{
  "version": "1.1.6",
  "modules": [
    {
      "id": 1,
      "plugin": "Core",
      "version": "1.1.6",
      "model": "AudioInterface",
      "params": [],
      "leftModuleId": 375,
      "rightModuleId": 451,
      "data": {
        "audio": {
          "driver": 7,
          "deviceName": "ReaRoute ASIO (x64)",
          "offset": 0,
          "maxChannels": 8,
          "sampleRate": 48000,
          "blockSize": 256
        }
      },
      "pos": [
        48,
        0
      ]
    },
    {
      "id": 5,
      "plugin": "Core",
      "version": "1.1.6",
      "model": "MIDIToCVInterface",
      "params": [],
      "leftModuleId": 79,
      "rightModuleId": 375,
      "data": {
        "channels": 1,
        "polyMode": 0,
        "clockDivision": 24,
        "lastPitch": 8192,
        "lastMod": 0,
        "midi": {
          "driver": 4,
          "deviceName": "loopMIDI Port 3",
          "channel": -1
        }
      },
      "pos": [
        14,
        0
      ]
    },
    {
      "id": 76,
      "plugin": "Stoermelder-P1",
      "version": "1.10.0",
      "model": "Mb",
      "params": [],
      "leftModuleId": 380,
      "rightModuleId": 79,
      "data": {
        "mode": 1
      },
      "pos": [
        6,
        0
      ]
    },
    {
      "id": 79,
      "plugin": "Stoermelder-P1",
      "version": "1.10.0",
      "model": "Stroke",
      "params": [],
      "leftModuleId": 76,
      "rightModuleId": 5,
      "data": {
        "panelTheme": 1,
        "keys": [
          {
            "button": -1,
            "key": 49,
            "mods": 0,
            "mode": 24,
            "high": false,
            "data": "#c9b70e"
          },
          {
            "button": -1,
            "key": 50,
            "mods": 0,
            "mode": 24,
            "high": false,
            "data": "#0c8e15"
          },
          {
            "button": -1,
            "key": 51,
            "mods": 0,
            "mode": 24,
            "high": false,
            "data": "#c91847"
          },
          {
            "button": -1,
            "key": 52,
            "mods": 0,
            "mode": 24,
            "high": false,
            "data": "#364449"
          },
          {
            "button": -1,
            "key": -1,
            "mods": 0,
            "mode": 1,
            "high": false,
            "data": ""
          },
          {
            "button": -1,
            "key": -1,
            "mods": 0,
            "mode": 1,
            "high": false,
            "data": ""
          },
          {
            "button": -1,
            "key": -1,
            "mods": 0,
            "mode": 1,
            "high": false,
            "data": ""
          },
          {
            "button": -1,
            "key": -1,
            "mods": 0,
            "mode": 1,
            "high": false,
            "data": ""
          },
          {
            "button": -1,
            "key": -1,
            "mods": 0,
            "mode": 1,
            "high": false,
            "data": ""
          },
          {
            "button": -1,
            "key": -1,
            "mods": 0,
            "mode": 1,
            "high": false,
            "data": ""
          }
        ]
      },
      "pos": [
        8,
        0
      ]
    },
    {
      "id": 94,
      "plugin": "Core",
      "version": "1.1.6",
      "model": "MIDI-Map",
      "params": [],
      "leftModuleId": 343,
      "rightModuleId": 453,
      "data": {
        "maps": [
          {
            "cc": -1,
            "moduleId": -1,
            "paramId": 0
          }
        ],
        "midi": {
          "driver": 4,
          "deviceName": "loopMIDI Port 3",
          "channel": -1
        }
      },
      "pos": [
        83,
        0
      ]
    },
    {
      "id": 343,
      "plugin": "Fundamental",
      "version": "1.4.0",
      "model": "Scope",
      "params": [
        {
          "id": 0,
          "value": 0.0
        },
        {
          "id": 1,
          "value": 0.0
        },
        {
          "id": 2,
          "value": 0.0
        },
        {
          "id": 3,
          "value": 0.0
        },
        {
          "id": 4,
          "value": 6.0
        },
        {
          "id": 5,
          "value": 0.0
        },
        {
          "id": 6,
          "value": 0.0
        },
        {
          "id": 7,
          "value": 0.0
        }
      ],
      "leftModuleId": 451,
      "rightModuleId": 94,
      "data": {
        "lissajous": 0,
        "external": 0
      },
      "pos": [
        70,
        0
      ]
    },
    {
      "id": 360,
      "plugin": "LindenbergResearch",
      "version": "1.3.3",
      "model": "BlankPanel_Wood",
      "params": [],
      "leftModuleId": 459,
      "gestaltID": 1,
      "gradient": false,
      "patina": false,
      "patina_i_x": false,
      "patina_i_y": false,
      "patina_a_x": 1048.69849,
      "patina_a_y": 465.392822,
      "overlay": false,
      "overlay_r": 0.33163017,
      "overlay_g": 0.664177358,
      "overlay_b": 0.536531448,
      "overlay_a": 0.249945372,
      "AGED": false,
      "screws": true,
      "logo": false,
      "pos": [
        113,
        0
      ]
    },
    {
      "id": 362,
      "plugin": "LindenbergResearch",
      "version": "1.3.3",
      "model": "BlankPanel_Wood",
      "params": [],
      "leftModuleId": 457,
      "gestaltID": 1,
      "gradient": false,
      "patina": false,
      "patina_i_x": false,
      "patina_i_y": false,
      "patina_a_x": 1048.69849,
      "patina_a_y": 465.392822,
      "overlay": false,
      "overlay_r": 0.329970539,
      "overlay_g": 0.835958183,
      "overlay_b": 0.234873891,
      "overlay_a": 0.271978289,
      "AGED": false,
      "screws": true,
      "logo": false,
      "pos": [
        113,
        1
      ]
    },
    {
      "id": 364,
      "plugin": "LindenbergResearch",
      "version": "1.3.3",
      "model": "BlankPanel_Wood",
      "params": [],
      "rightModuleId": 380,
      "gestaltID": 1,
      "gradient": false,
      "patina": false,
      "patina_i_x": true,
      "patina_i_y": false,
      "patina_a_x": 732.980896,
      "patina_a_y": 232.628174,
      "overlay": false,
      "overlay_r": 0.83082509,
      "overlay_g": 0.90338093,
      "overlay_b": 0.297818601,
      "overlay_a": 0.362419277,
      "AGED": false,
      "screws": true,
      "logo": false,
      "pos": [
        0,
        0
      ]
    },
    {
      "id": 365,
      "plugin": "LindenbergResearch",
      "version": "1.3.3",
      "model": "BlankPanel_Wood",
      "params": [],
      "rightModuleId": 379,
      "gestaltID": 1,
      "gradient": false,
      "patina": false,
      "patina_i_x": true,
      "patina_i_y": false,
      "patina_a_x": 732.980896,
      "patina_a_y": 232.628174,
      "overlay": false,
      "overlay_r": 0.558922946,
      "overlay_g": 0.831084013,
      "overlay_b": 0.708506823,
      "overlay_a": 0.325553983,
      "AGED": false,
      "screws": true,
      "logo": false,
      "pos": [
        0,
        1
      ]
    },
    {
      "id": 375,
      "plugin": "squinkylabs-plug1",
      "version": "1.0.20",
      "model": "squinkylabs-mix8",
      "params": [
        {
          "id": 0,
          "value": 0.800000012
        },
        {
          "id": 1,
          "value": 0.0
        },
        {
          "id": 2,
          "value": 0.800000012
        },
        {
          "id": 3,
          "value": 0.800000012
        },
        {
          "id": 4,
          "value": 0.800000012
        },
        {
          "id": 5,
          "value": 0.800000012
        },
        {
          "id": 6,
          "value": 0.415999889
        },
        {
          "id": 7,
          "value": 0.800000012
        },
        {
          "id": 8,
          "value": 0.800000012
        },
        {
          "id": 9,
          "value": 0.800000012
        },
        {
          "id": 10,
          "value": 0.0
        },
        {
          "id": 11,
          "value": 0.0
        },
        {
          "id": 12,
          "value": 0.0
        },
        {
          "id": 13,
          "value": 0.0
        },
        {
          "id": 14,
          "value": 0.0
        },
        {
          "id": 15,
          "value": 0.0
        },
        {
          "id": 16,
          "value": 0.0
        },
        {
          "id": 17,
          "value": 0.0
        },
        {
          "id": 18,
          "value": 0.0
        },
        {
          "id": 19,
          "value": 0.0
        },
        {
          "id": 20,
          "value": 0.0
        },
        {
          "id": 21,
          "value": 0.0
        },
        {
          "id": 22,
          "value": 0.0
        },
        {
          "id": 23,
          "value": 0.0
        },
        {
          "id": 24,
          "value": 0.0
        },
        {
          "id": 25,
          "value": 0.0
        },
        {
          "id": 26,
          "value": 0.0
        },
        {
          "id": 27,
          "value": 0.0
        },
        {
          "id": 28,
          "value": 0.0
        },
        {
          "id": 29,
          "value": 0.0
        },
        {
          "id": 30,
          "value": 0.0
        },
        {
          "id": 31,
          "value": 0.0
        },
        {
          "id": 32,
          "value": 0.0
        },
        {
          "id": 33,
          "value": 0.0
        },
        {
          "id": 34,
          "value": 0.981000066
        },
        {
          "id": 35,
          "value": 1.0
        },
        {
          "id": 36,
          "value": 0.926999927
        },
        {
          "id": 37,
          "value": 0.904500008
        },
        {
          "id": 38,
          "value": 0.494999975
        },
        {
          "id": 39,
          "value": 0.0
        },
        {
          "id": 40,
          "value": 0.0
        },
        {
          "id": 41,
          "value": 0.0
        },
        {
          "id": 42,
          "value": 1.0
        }
      ],
      "leftModuleId": 5,
      "rightModuleId": 1,
      "pos": [
        22,
        0
      ]
    },
    {
      "id": 379,
      "plugin": "ImpromptuModular",
      "version": "1.1.11",
      "model": "Clocked-Clkd",
      "params": [
        {
          "id": 0,
          "value": 0.0
        },
        {
          "id": 1,
          "value": 0.0
        },
        {
          "id": 2,
          "value": 0.0
        },
        {
          "id": 3,
          "value": 120.0
        },
        {
          "id": 4,
          "value": 0.0
        },
        {
          "id": 5,
          "value": 0.0
        },
        {
          "id": 6,
          "value": 0.0
        },
        {
          "id": 7,
          "value": 0.0
        },
        {
          "id": 8,
          "value": 0.0
        },
        {
          "id": 9,
          "value": 0.0
        }
      ],
      "leftModuleId": 365,
      "rightModuleId": 433,
      "data": {
        "panelTheme": 1,
        "running": true,
        "bpmDetectionMode": false,
        "resetOnStartStop": 0,
        "ppqn": 4,
        "resetClockOutputsHigh": true,
        "momentaryRunInput": true,
        "displayIndex": 0,
        "trigOuts": [
          false,
          false,
          false,
          false
        ],
        "clockMaster": -1
      },
      "pos": [
        4,
        1
      ]
    },
    {
      "id": 380,
      "plugin": "Stoermelder-P1",
      "version": "1.10.0",
      "model": "Me",
      "params": [],
      "leftModuleId": 364,
      "rightModuleId": 76,
      "pos": [
        4,
        0
      ]
    },
    {
      "id": 425,
      "plugin": "ML_modules",
      "version": "1.1.3",
      "model": "SeqSwitch",
      "params": [
        {
          "id": 0,
          "value": 8.0
        },
        {
          "id": 1,
          "value": 0.0
        },
        {
          "id": 2,
          "value": 0.0
        },
        {
          "id": 3,
          "value": 0.0
        },
        {
          "id": 4,
          "value": 0.0
        },
        {
          "id": 5,
          "value": 0.0
        },
        {
          "id": 6,
          "value": 0.0
        },
        {
          "id": 7,
          "value": 0.0
        },
        {
          "id": 8,
          "value": 0.0
        }
      ],
      "leftModuleId": 431,
      "rightModuleId": 428,
      "data": {
        "inputRange": 0
      },
      "pos": [
        16,
        2
      ]
    },
    {
      "id": 426,
      "plugin": "repelzen",
      "version": "1.1.0",
      "model": "rewin",
      "params": [
        {
          "id": 0,
          "value": 0.0
        },
        {
          "id": 1,
          "value": 1.0
        },
        {
          "id": 2,
          "value": -2.0
        },
        {
          "id": 3,
          "value": 0.0
        },
        {
          "id": 4,
          "value": 0.0
        },
        {
          "id": 5,
          "value": 0.0
        },
        {
          "id": 6,
          "value": 0.0
        },
        {
          "id": 7,
          "value": 0.0
        },
        {
          "id": 8,
          "value": 0.0
        },
        {
          "id": 9,
          "value": 0.0
        },
        {
          "id": 10,
          "value": 0.0
        },
        {
          "id": 11,
          "value": 0.0
        },
        {
          "id": 12,
          "value": 0.0
        },
        {
          "id": 13,
          "value": 0.0
        },
        {
          "id": 14,
          "value": 0.0
        },
        {
          "id": 15,
          "value": 0.0
        },
        {
          "id": 16,
          "value": 0.0
        }
      ],
      "leftModuleId": 436,
      "rightModuleId": 427,
      "data": {
        "notes": [
          false,
          false,
          true,
          true,
          false,
          false,
          false,
          true,
          true,
          false,
          true,
          false,
          false,
          false,
          false,
          false,
          false,
          false,
          false,
          false,
          false,
          false,
          false,
          false,
          false,
          false,
          false,
          false,
          false,
          false,
          false,
          false,
          false,
          false,
          false,
          false,
          false,
          false,
          false,
          false,
          false,
          false,
          false,
          false,
          false,
          false,
          false,
          false,
          false,
          false,
          false,
          false,
          false,
          false,
          false,
          false,
          false,
          false,
          false,
          false,
          false,
          false,
          false,
          false,
          false,
          false,
          false,
          false,
          false,
          false,
          false,
          false,
          false,
          false,
          false,
          false,
          false,
          false,
          false,
          false,
          false,
          false,
          false,
          false,
          false,
          false,
          false,
          false,
          false,
          false,
          false,
          false,
          false,
          false,
          false,
          false,
          false,
          false,
          false,
          false,
          false,
          false,
          false,
          false,
          false,
          false,
          false,
          false,
          false,
          false,
          false,
          false,
          false,
          false,
          false,
          false,
          false,
          false,
          false,
          false,
          false,
          false,
          false,
          false,
          false,
          false,
          false,
          false,
          false,
          false,
          false,
          false,
          false,
          false,
          false,
          false,
          false,
          false,
          false,
          false,
          false,
          false,
          false,
          false,
          false,
          false,
          false,
          false,
          false,
          false,
          false,
          false,
          false,
          false,
          false,
          false,
          false,
          false,
          false,
          false,
          false,
          false,
          false,
          false,
          false,
          false,
          false,
          false,
          false,
          false,
          false,
          false,
          false,
          false,
          false,
          false,
          false,
          false,
          false,
          false,
          false,
          false,
          false,
          false,
          false,
          false,
          false,
          false,
          false,
          false,
          false,
          false
        ],
        "mode": 0
      },
      "pos": [
        43,
        1
      ]
    },
    {
      "id": 427,
      "plugin": "repelzen",
      "version": "1.1.0",
      "model": "reburst",
      "params": [
        {
          "id": 0,
          "value": 0.0
        },
        {
          "id": 1,
          "value": 0.508000016
        },
        {
          "id": 2,
          "value": 4.0
        },
        {
          "id": 3,
          "value": 1.0
        },
        {
          "id": 4,
          "value": 0.0
        },
        {
          "id": 5,
          "value": 0.0
        },
        {
          "id": 6,
          "value": 1.0
        },
        {
          "id": 7,
          "value": 0.0
        },
        {
          "id": 8,
          "value": 0.0
        }
      ],
      "leftModuleId": 426,
      "rightModuleId": 439,
      "pos": [
        51,
        1
      ]
    },
    {
      "id": 428,
      "plugin": "Geodesics",
      "version": "1.2.0",
      "model": "Branes",
      "params": [
        {
          "id": 0,
          "value": 0.0
        },
        {
          "id": 1,
          "value": 0.0
        },
        {
          "id": 2,
          "value": 0.0
        },
        {
          "id": 3,
          "value": 0.0
        }
      ],
      "leftModuleId": 425,
      "rightModuleId": 434,
      "data": {
        "panelTheme": 1,
        "vibrations0": 0,
        "vibrations1": 0,
        "noiseRange0": 0.0,
        "noiseRange1": 0.0
      },
      "pos": [
        24,
        2
      ]
    },
    {
      "id": 429,
      "plugin": "AudibleInstruments",
      "version": "1.5.0",
      "model": "Branches",
      "params": [
        {
          "id": 0,
          "value": 0.5
        },
        {
          "id": 1,
          "value": 0.5
        },
        {
          "id": 2,
          "value": 0.0
        },
        {
          "id": 3,
          "value": 0.0
        }
      ],
      "leftModuleId": 432,
      "rightModuleId": 431,
      "data": {
        "modes": [
          false,
          false
        ]
      },
      "pos": [
        8,
        2
      ]
    },
    {
      "id": 430,
      "plugin": "Geodesics",
      "version": "1.2.0",
      "model": "Energy",
      "params": [
        {
          "id": 0,
          "value": 0.0
        },
        {
          "id": 1,
          "value": 0.0
        },
        {
          "id": 2,
          "value": 0.0
        },
        {
          "id": 3,
          "value": 0.0
        },
        {
          "id": 4,
          "value": 0.0
        },
        {
          "id": 5,
          "value": 0.0
        },
        {
          "id": 6,
          "value": -0.891000092
        },
        {
          "id": 7,
          "value": 0.0
        },
        {
          "id": 8,
          "value": 0.0
        },
        {
          "id": 9,
          "value": 0.0
        }
      ],
      "leftModuleId": 439,
      "rightModuleId": 454,
      "data": {
        "panelTheme": 1,
        "oscM_phase": 4189278544,
        "oscC_phase": 2001611512,
        "osc1M_phase": 1562120064,
        "osc1C_phase": 487973184,
        "osc2M_phase": 3913124256,
        "osc2C_phase": 3811054928,
        "osc3M_phase": 407069216,
        "osc3C_phase": 1954031408,
        "osc4M_phase": 0,
        "osc4C_phase": 0,
        "osc5M_phase": 0,
        "osc5C_phase": 0,
        "osc6M_phase": 0,
        "osc6C_phase": 0,
        "osc7M_phase": 0,
        "osc7C_phase": 0,
        "osc8M_phase": 0,
        "osc8C_phase": 0,
        "osc9M_phase": 0,
        "osc9C_phase": 0,
        "osc10M_phase": 0,
        "osc10C_phase": 0,
        "osc11M_phase": 0,
        "osc11C_phase": 0,
        "osc12M_phase": 0,
        "osc12C_phase": 0,
        "osc13M_phase": 0,
        "osc13C_phase": 0,
        "osc14M_phase": 0,
        "osc14C_phase": 0,
        "osc15M_phase": 0,
        "osc15C_phase": 0,
        "routing": 1,
        "planck0": 1,
        "planck1": 2,
        "modtype0": 1,
        "modtype1": 1,
        "cross": 1
      },
      "pos": [
        69,
        1
      ]
    },
    {
      "id": 431,
      "plugin": "GrandeModular",
      "version": "1.9.0",
      "model": "MergeSplit4",
      "params": [],
      "leftModuleId": 429,
      "rightModuleId": 425,
      "data": {
        "channels_merge": -1
      },
      "pos": [
        14,
        2
      ]
    },
    {
      "id": 432,
      "plugin": "AudibleInstruments",
      "version": "1.5.0",
      "model": "Kinks",
      "params": [],
      "leftModuleId": 445,
      "rightModuleId": 429,
      "pos": [
        4,
        2
      ]
    },
    {
      "id": 433,
      "plugin": "Valley",
      "version": "1.1.7",
      "model": "uGraph",
      "params": [
        {
          "id": 0,
          "value": 0.0
        },
        {
          "id": 1,
          "value": 0.0
        },
        {
          "id": 2,
          "value": 0.0
        },
        {
          "id": 3,
          "value": 0.340499997
        },
        {
          "id": 4,
          "value": 0.191999942
        },
        {
          "id": 5,
          "value": 0.573000014
        },
        {
          "id": 6,
          "value": 0.390500039
        },
        {
          "id": 7,
          "value": 0.351499975
        },
        {
          "id": 8,
          "value": 0.5
        },
        {
          "id": 9,
          "value": 0.0
        }
      ],
      "leftModuleId": 379,
      "rightModuleId": 436,
      "data": {
        "sequencerMode": 2,
        "triggerOutputMode": 0,
        "accOutputMode": 0,
        "extClockResolution": 0,
        "chaosKnobMode": 0,
        "runMode": 0,
        "panelStyle": 0,
        "running": 1
      },
      "pos": [
        14,
        1
      ]
    },
    {
      "id": 434,
      "plugin": "Bogaudio",
      "version": "1.1.37",
      "model": "Bogaudio-Slew",
      "params": [
        {
          "id": 0,
          "value": 0.316229999
        },
        {
          "id": 1,
          "value": 0.0
        },
        {
          "id": 2,
          "value": 0.316229999
        },
        {
          "id": 3,
          "value": 0.0
        },
        {
          "id": 4,
          "value": 0.0
        }
      ],
      "leftModuleId": 428,
      "rightModuleId": 437,
      "data": {},
      "pos": [
        35,
        2
      ]
    },
    {
      "id": 435,
      "plugin": "NYSTHI",
      "version": "1.0.17",
      "model": "Logic",
      "params": [],
      "leftModuleId": 438,
      "rightModuleId": 440,
      "data": {
        "m_use_10volts": false
      },
      "pos": [
        48,
        2
      ]
    },
    {
      "id": 436,
      "plugin": "Geodesics",
      "version": "1.2.0",
      "model": "Ions",
      "params": [
        {
          "id": 0,
          "value": 0.0
        },
        {
          "id": 1,
          "value": 0.0
        },
        {
          "id": 2,
          "value": 0.549980164
        },
        {
          "id": 3,
          "value": 0.904768705
        },
        {
          "id": 4,
          "value": 0.121373355
        },
        {
          "id": 5,
          "value": 0.711700976
        },
        {
          "id": 6,
          "value": 0.735286355
        },
        {
          "id": 7,
          "value": 0.181881189
        },
        {
          "id": 8,
          "value": 0.0411289334
        },
        {
          "id": 9,
          "value": 0.829101503
        },
        {
          "id": 10,
          "value": 0.18373692
        },
        {
          "id": 11,
          "value": 0.710136175
        },
        {
          "id": 12,
          "value": 0.349201858
        },
        {
          "id": 13,
          "value": 0.24165839
        },
        {
          "id": 14,
          "value": 0.662799954
        },
        {
          "id": 15,
          "value": 0.765562952
        },
        {
          "id": 16,
          "value": 0.840562463
        },
        {
          "id": 17,
          "value": 0.257640779
        },
        {
          "id": 18,
          "value": 0.0
        },
        {
          "id": 19,
          "value": 0.0
        },
        {
          "id": 20,
          "value": 0.0
        },
        {
          "id": 21,
          "value": 0.0
        },
        {
          "id": 22,
          "value": 0.0
        },
        {
          "id": 23,
          "value": 0.0
        },
        {
          "id": 24,
          "value": 0.0
        },
        {
          "id": 25,
          "value": 0.0
        },
        {
          "id": 26,
          "value": 0.0
        },
        {
          "id": 27,
          "value": 0.0
        }
      ],
      "leftModuleId": 433,
      "rightModuleId": 426,
      "data": {
        "panelTheme": 1,
        "running": true,
        "resetOnRun": false,
        "quantize": 3,
        "uncertainty": false,
        "stepIndexes0": 10,
        "stepIndexes1": 15,
        "states0": 2,
        "states1": 2,
        "ranges0": 0,
        "ranges1": 0,
        "leap": false
      },
      "pos": [
        24,
        1
      ]
    },
    {
      "id": 437,
      "plugin": "Bogaudio",
      "version": "1.1.37",
      "model": "Bogaudio-AddrSeq",
      "params": [
        {
          "id": 0,
          "value": 8.0
        },
        {
          "id": 1,
          "value": 1.0
        },
        {
          "id": 2,
          "value": 0.0
        },
        {
          "id": 3,
          "value": -0.377999961
        },
        {
          "id": 4,
          "value": 0.0689999983
        },
        {
          "id": 5,
          "value": 0.216000006
        },
        {
          "id": 6,
          "value": -0.308999956
        },
        {
          "id": 7,
          "value": -0.405000031
        },
        {
          "id": 8,
          "value": 0.191999987
        },
        {
          "id": 9,
          "value": 0.303000003
        },
        {
          "id": 10,
          "value": 0.389999986
        }
      ],
      "leftModuleId": 434,
      "rightModuleId": 438,
      "data": {
        "poly_input": 0,
        "select_on_clock": false,
        "triggered_select": false,
        "reverse_on_negative_clock": false,
        "range_offset": 0.0,
        "range_scale": 10.0
      },
      "pos": [
        38,
        2
      ]
    },
    {
      "id": 438,
      "plugin": "ML_modules",
      "version": "1.1.3",
      "model": "ShiftRegister",
      "params": [
        {
          "id": 0,
          "value": 0.0
        },
        {
          "id": 1,
          "value": 0.0
        },
        {
          "id": 2,
          "value": 0.0
        },
        {
          "id": 3,
          "value": 0.0
        },
        {
          "id": 4,
          "value": 0.0
        },
        {
          "id": 5,
          "value": 0.0
        },
        {
          "id": 6,
          "value": 0.0
        },
        {
          "id": 7,
          "value": 0.0
        },
        {
          "id": 8,
          "value": 0.0
        }
      ],
      "leftModuleId": 437,
      "rightModuleId": 435,
      "pos": [
        44,
        2
      ]
    },
    {
      "id": 439,
      "plugin": "VultModulesFree",
      "version": "1.16",
      "model": "Lateralus",
      "params": [
        {
          "id": 0,
          "value": 0.58100009
        },
        {
          "id": 1,
          "value": 0.395999968
        },
        {
          "id": 2,
          "value": 0.236999959
        },
        {
          "id": 3,
          "value": 0.279000074
        },
        {
          "id": 4,
          "value": 0.600000024
        },
        {
          "id": 5,
          "value": 0.0
        },
        {
          "id": 6,
          "value": 0.0
        }
      ],
      "leftModuleId": 427,
      "rightModuleId": 430,
      "pos": [
        59,
        1
      ]
    },
    {
      "id": 440,
      "plugin": "Bogaudio",
      "version": "1.1.37",
      "model": "Bogaudio-LFO",
      "params": [
        {
          "id": 0,
          "value": -2.35950041
        },
        {
          "id": 1,
          "value": 0.0
        },
        {
          "id": 2,
          "value": 0.0
        },
        {
          "id": 3,
          "value": 0.0
        },
        {
          "id": 4,
          "value": 0.0
        },
        {
          "id": 5,
          "value": 1.0
        },
        {
          "id": 6,
          "value": 0.0
        }
      ],
      "leftModuleId": 435,
      "rightModuleId": 441,
      "data": {
        "offset_cv_to_smoothing": false
      },
      "pos": [
        53,
        2
      ]
    },
    {
      "id": 441,
      "plugin": "Instruo",
      "version": "1.1.0",
      "model": "ochd",
      "params": [
        {
          "id": 0,
          "value": 0.557000101
        },
        {
          "id": 1,
          "value": 0.0
        }
      ],
      "leftModuleId": 440,
      "rightModuleId": 449,
      "data": {
        "deviations": {
          "lfos": [
            {
              "amplitude": 5.5,
              "frequency": {
                "maximum": 154.699997,
                "minimum": 0.147,
                "absMinimum": 0.000294000027,
                "absMaximum": 160.887985
              }
            },
            {
              "amplitude": 5.5,
              "frequency": {
                "maximum": 84.7399979,
                "minimum": 0.0816000029,
                "absMinimum": 0.00016320002,
                "absMaximum": 88.1295929
              }
            },
            {
              "amplitude": 5.5,
              "frequency": {
                "maximum": 42.2599983,
                "minimum": 0.0417000018,
                "absMinimum": 8.34000093e-5,
                "absMaximum": 43.9503975
              }
            },
            {
              "amplitude": 5.5,
              "frequency": {
                "maximum": 22.0100002,
                "minimum": 0.0221999995,
                "absMinimum": 4.43999998e-5,
                "absMaximum": 22.8903999
              }
            },
            {
              "amplitude": 5.5,
              "frequency": {
                "maximum": 10.3699999,
                "minimum": 0.0102000004,
                "absMinimum": 2.04000025e-5,
                "absMaximum": 10.7847996
              }
            },
            {
              "amplitude": 5.5,
              "frequency": {
                "maximum": 4.69999981,
                "minimum": 0.00505999988,
                "absMinimum": 1.01200003e-5,
                "absMaximum": 4.88799953
              }
            },
            {
              "amplitude": 5.5,
              "frequency": {
                "maximum": 2.11999989,
                "minimum": 0.00212999992,
                "absMinimum": 4.25999997e-6,
                "absMaximum": 2.20479989
              }
            },
            {
              "amplitude": 5.5,
              "frequency": {
                "maximum": 1.00999999,
                "minimum": 0.00100000005,
                "absMinimum": 2.00000022e-6,
                "absMaximum": 1.0503999
              }
            }
          ]
        }
      },
      "pos": [
        63,
        2
      ]
    },
    {
      "id": 442,
      "plugin": "Instruo",
      "version": "1.1.0",
      "model": "ceis",
      "params": [
        {
          "id": 0,
          "value": 0.25
        },
        {
          "id": 1,
          "value": 0.5
        },
        {
          "id": 2,
          "value": 0.75
        },
        {
          "id": 3,
          "value": 0.5
        },
        {
          "id": 4,
          "value": 0.0
        },
        {
          "id": 5,
          "value": 0.0
        },
        {
          "id": 6,
          "value": 0.5
        }
      ],
      "leftModuleId": 444,
      "rightModuleId": 456,
      "pos": [
        94,
        1
      ]
    },
    {
      "id": 444,
      "plugin": "Befaco",
      "version": "1.0.1",
      "model": "DualAtenuverter",
      "params": [
        {
          "id": 0,
          "value": 0.398999989
        },
        {
          "id": 1,
          "value": 0.0
        },
        {
          "id": 2,
          "value": 0.0
        },
        {
          "id": 3,
          "value": 0.0
        }
      ],
      "leftModuleId": 446,
      "rightModuleId": 442,
      "pos": [
        89,
        1
      ]
    },
    {
      "id": 445,
      "plugin": "LindenbergResearch",
      "version": "1.3.3",
      "model": "BlankPanel_Wood",
      "params": [],
      "rightModuleId": 432,
      "gestaltID": 1,
      "gradient": false,
      "patina": false,
      "patina_i_x": true,
      "patina_i_y": false,
      "patina_a_x": 732.980896,
      "patina_a_y": 232.628174,
      "overlay": false,
      "overlay_r": 0.909552038,
      "overlay_g": 0.050552547,
      "overlay_b": 0.239073455,
      "overlay_a": 0.294134915,
      "AGED": false,
      "screws": true,
      "logo": false,
      "pos": [
        0,
        2
      ]
    },
    {
      "id": 446,
      "plugin": "Bogaudio",
      "version": "1.1.37",
      "model": "Bogaudio-AD",
      "params": [
        {
          "id": 0,
          "value": 0.300421
        },
        {
          "id": 1,
          "value": 0.280229986
        },
        {
          "id": 2,
          "value": 0.0
        },
        {
          "id": 3,
          "value": 0.0
        },
        {
          "id": 4,
          "value": 1.0
        }
      ],
      "leftModuleId": 447,
      "rightModuleId": 444,
      "data": {
        "invert": 1.0
      },
      "pos": [
        86,
        1
      ]
    },
    {
      "id": 447,
      "plugin": "squinkylabs-plug1",
      "version": "1.0.20",
      "model": "squinkylabs-basic",
      "params": [
        {
          "id": 0,
          "value": 3.0
        },
        {
          "id": 1,
          "value": 0.0
        },
        {
          "id": 2,
          "value": 0.0
        },
        {
          "id": 3,
          "value": 0.0
        },
        {
          "id": 4,
          "value": 50.0
        },
        {
          "id": 5,
          "value": 0.0
        },
        {
          "id": 6,
          "value": 4.0
        }
      ],
      "leftModuleId": 454,
      "rightModuleId": 446,
      "pos": [
        83,
        1
      ]
    },
    {
      "id": 449,
      "plugin": "Befaco",
      "version": "1.0.1",
      "model": "Rampage",
      "params": [
        {
          "id": 0,
          "value": 0.0
        },
        {
          "id": 1,
          "value": 0.0
        },
        {
          "id": 2,
          "value": 0.0
        },
        {
          "id": 3,
          "value": 0.0
        },
        {
          "id": 4,
          "value": 0.0
        },
        {
          "id": 5,
          "value": 0.0
        },
        {
          "id": 6,
          "value": 0.0989999324
        },
        {
          "id": 7,
          "value": 0.537
        },
        {
          "id": 8,
          "value": 0.192000031
        },
        {
          "id": 9,
          "value": 0.284999996
        },
        {
          "id": 10,
          "value": 0.0
        },
        {
          "id": 11,
          "value": 0.0
        },
        {
          "id": 12,
          "value": 0.5
        }
      ],
      "leftModuleId": 441,
      "rightModuleId": 460,
      "pos": [
        67,
        2
      ]
    },
    {
      "id": 450,
      "plugin": "LindenbergResearch",
      "version": "1.3.3",
      "model": "BlankPanel_Wood",
      "params": [],
      "leftModuleId": 455,
      "gestaltID": 1,
      "gradient": false,
      "patina": false,
      "patina_i_x": false,
      "patina_i_y": false,
      "patina_a_x": 1048.69849,
      "patina_a_y": 465.392822,
      "overlay": false,
      "overlay_r": 0.387410283,
      "overlay_g": 0.035489738,
      "overlay_b": 0.971485257,
      "overlay_a": 0.244747341,
      "AGED": false,
      "screws": true,
      "logo": false,
      "pos": [
        113,
        2
      ]
    },
    {
      "id": 451,
      "plugin": "AlrightDevices",
      "version": "1.0.3",
      "model": "Chronoblob2",
      "params": [
        {
          "id": 0,
          "value": 0.5
        },
        {
          "id": 1,
          "value": 0.340999991
        },
        {
          "id": 2,
          "value": 1.0
        },
        {
          "id": 3,
          "value": 0.0
        },
        {
          "id": 4,
          "value": 0.0
        },
        {
          "id": 5,
          "value": 0.0
        },
        {
          "id": 6,
          "value": 0.0
        },
        {
          "id": 7,
          "value": 0.0
        },
        {
          "id": 8,
          "value": 0.0
        },
        {
          "id": 9,
          "value": 0.0
        }
      ],
      "leftModuleId": 1,
      "rightModuleId": 343,
      "data": {
        "delay_mode": 0,
        "hold_behavior": 0,
        "sync_prescaler": 6
      },
      "pos": [
        58,
        0
      ]
    },
    {
      "id": 453,
      "plugin": "Geodesics",
      "version": "1.2.0",
      "model": "Pulsars",
      "params": [
        {
          "id": 0,
          "value": 0.0
        },
        {
          "id": 1,
          "value": 0.0
        },
        {
          "id": 2,
          "value": 0.0
        },
        {
          "id": 3,
          "value": 0.0
        },
        {
          "id": 4,
          "value": 0.0
        },
        {
          "id": 5,
          "value": 0.0
        },
        {
          "id": 6,
          "value": 0.0
        },
        {
          "id": 7,
          "value": 0.0
        }
      ],
      "leftModuleId": 94,
      "rightModuleId": 458,
      "data": {
        "panelTheme": 1,
        "isVoid0": 0.0,
        "isVoid1": 0.0,
        "isReverse0": 0.0,
        "isReverse1": 0.0,
        "isRandom0": 0.0,
        "isRandom1": 0.0,
        "cvMode0": 0,
        "cvMode1": 0
      },
      "pos": [
        93,
        0
      ]
    },
    {
      "id": 454,
      "plugin": "Geodesics",
      "version": "1.2.0",
      "model": "Energy",
      "params": [
        {
          "id": 0,
          "value": 0.0
        },
        {
          "id": 1,
          "value": 0.0
        },
        {
          "id": 2,
          "value": 0.0
        },
        {
          "id": 3,
          "value": 0.0
        },
        {
          "id": 4,
          "value": 0.0
        },
        {
          "id": 5,
          "value": -1.08899987
        },
        {
          "id": 6,
          "value": 0.0
        },
        {
          "id": 7,
          "value": 0.0
        },
        {
          "id": 8,
          "value": 0.0
        },
        {
          "id": 9,
          "value": 0.0
        }
      ],
      "leftModuleId": 430,
      "rightModuleId": 447,
      "data": {
        "panelTheme": 1,
        "oscM_phase": 2160865216,
        "oscC_phase": 2160865216,
        "osc1M_phase": 0,
        "osc1C_phase": 0,
        "osc2M_phase": 0,
        "osc2C_phase": 0,
        "osc3M_phase": 0,
        "osc3C_phase": 0,
        "osc4M_phase": 0,
        "osc4C_phase": 0,
        "osc5M_phase": 0,
        "osc5C_phase": 0,
        "osc6M_phase": 0,
        "osc6C_phase": 0,
        "osc7M_phase": 0,
        "osc7C_phase": 0,
        "osc8M_phase": 0,
        "osc8C_phase": 0,
        "osc9M_phase": 0,
        "osc9C_phase": 0,
        "osc10M_phase": 0,
        "osc10C_phase": 0,
        "osc11M_phase": 0,
        "osc11C_phase": 0,
        "osc12M_phase": 0,
        "osc12C_phase": 0,
        "osc13M_phase": 0,
        "osc13C_phase": 0,
        "osc14M_phase": 0,
        "osc14C_phase": 0,
        "osc15M_phase": 0,
        "osc15C_phase": 0,
        "routing": 1,
        "planck0": 2,
        "planck1": 2,
        "modtype0": 1,
        "modtype1": 1,
        "cross": 1
      },
      "pos": [
        76,
        1
      ]
    },
    {
      "id": 455,
      "plugin": "Admiral",
      "version": "1.1.0",
      "model": "Tables",
      "params": [
        {
          "id": 0,
          "value": 0.0
        },
        {
          "id": 1,
          "value": 0.0
        },
        {
          "id": 2,
          "value": 0.0
        },
        {
          "id": 3,
          "value": 0.0
        },
        {
          "id": 4,
          "value": 0.0
        },
        {
          "id": 5,
          "value": 0.0
        },
        {
          "id": 6,
          "value": 0.0
        },
        {
          "id": 7,
          "value": 0.0
        },
        {
          "id": 8,
          "value": 0.0
        },
        {
          "id": 9,
          "value": 0.0
        },
        {
          "id": 10,
          "value": 0.0
        },
        {
          "id": 11,
          "value": 0.0
        },
        {
          "id": 12,
          "value": 0.0
        },
        {
          "id": 13,
          "value": 0.0
        },
        {
          "id": 14,
          "value": 0.0
        },
        {
          "id": 15,
          "value": 0.0
        },
        {
          "id": 16,
          "value": 1.0
        },
        {
          "id": 17,
          "value": 1.0
        }
      ],
      "rightModuleId": 450,
      "data": {
        "sel": 0,
        "channels": [
          {
            "order": 0,
            "beat": 0,
            "beats": [
              0,
              0,
              0,
              0
            ],
            "step": 0,
            "steps": [
              {
                "mode": 0,
                "pattern": 0
              },
              {
                "mode": 0,
                "pattern": 0
              },
              {
                "mode": 0,
                "pattern": 0
              },
              {
                "mode": 0,
                "pattern": 0
              },
              {
                "mode": 0,
                "pattern": 0
              },
              {
                "mode": 0,
                "pattern": 0
              },
              {
                "mode": 0,
                "pattern": 0
              },
              {
                "mode": 0,
                "pattern": 0
              }
            ]
          },
          {
            "order": 0,
            "beat": 0,
            "beats": [
              0,
              0,
              0,
              0
            ],
            "step": 0,
            "steps": [
              {
                "mode": 0,
                "pattern": 0
              },
              {
                "mode": 0,
                "pattern": 0
              },
              {
                "mode": 0,
                "pattern": 0
              },
              {
                "mode": 0,
                "pattern": 0
              },
              {
                "mode": 0,
                "pattern": 0
              },
              {
                "mode": 0,
                "pattern": 0
              },
              {
                "mode": 0,
                "pattern": 0
              },
              {
                "mode": 0,
                "pattern": 0
              }
            ]
          },
          {
            "order": 0,
            "beat": 0,
            "beats": [
              0,
              0,
              0,
              0
            ],
            "step": 0,
            "steps": [
              {
                "mode": 0,
                "pattern": 0
              },
              {
                "mode": 0,
                "pattern": 0
              },
              {
                "mode": 0,
                "pattern": 0
              },
              {
                "mode": 0,
                "pattern": 0
              },
              {
                "mode": 0,
                "pattern": 0
              },
              {
                "mode": 0,
                "pattern": 0
              },
              {
                "mode": 0,
                "pattern": 0
              },
              {
                "mode": 0,
                "pattern": 0
              }
            ]
          },
          {
            "order": 0,
            "beat": 0,
            "beats": [
              0,
              0,
              0,
              0
            ],
            "step": 0,
            "steps": [
              {
                "mode": 0,
                "pattern": 0
              },
              {
                "mode": 0,
                "pattern": 0
              },
              {
                "mode": 0,
                "pattern": 0
              },
              {
                "mode": 0,
                "pattern": 0
              },
              {
                "mode": 0,
                "pattern": 0
              },
              {
                "mode": 0,
                "pattern": 0
              },
              {
                "mode": 0,
                "pattern": 0
              },
              {
                "mode": 0,
                "pattern": 0
              }
            ]
          }
        ]
      },
      "pos": [
        103,
        2
      ]
    },
    {
      "id": 456,
      "plugin": "Bogaudio",
      "version": "1.1.37",
      "model": "Bogaudio-Cmp",
      "params": [
        {
          "id": 0,
          "value": 0.0
        },
        {
          "id": 1,
          "value": 0.0
        },
        {
          "id": 2,
          "value": 0.5
        },
        {
          "id": 3,
          "value": 0.100000001
        },
        {
          "id": 4,
          "value": 0.0
        }
      ],
      "leftModuleId": 442,
      "rightModuleId": 457,
      "data": {},
      "pos": [
        102,
        1
      ]
    },
    {
      "id": 457,
      "plugin": "Fundamental",
      "version": "1.4.0",
      "model": "VCA",
      "params": [
        {
          "id": 0,
          "value": 1.0
        },
        {
          "id": 1,
          "value": 1.0
        }
      ],
      "leftModuleId": 456,
      "rightModuleId": 362,
      "pos": [
        108,
        1
      ]
    },
    {
      "id": 458,
      "plugin": "FrozenWasteland",
      "version": "1.20.4",
      "model": "BPMLFO2",
      "params": [
        {
          "id": 0,
          "value": 1.0
        },
        {
          "id": 1,
          "value": 0.0
        },
        {
          "id": 2,
          "value": 1.0
        },
        {
          "id": 3,
          "value": 0.0
        },
        {
          "id": 4,
          "value": 0.0
        },
        {
          "id": 5,
          "value": 0.0
        },
        {
          "id": 6,
          "value": 0.5
        },
        {
          "id": 7,
          "value": 0.0
        },
        {
          "id": 8,
          "value": 0.0
        },
        {
          "id": 9,
          "value": 0.0
        },
        {
          "id": 10,
          "value": 0.0
        },
        {
          "id": 11,
          "value": 1.0
        },
        {
          "id": 12,
          "value": 0.0
        },
        {
          "id": 13,
          "value": 1.0
        },
        {
          "id": 14,
          "value": 1.0
        },
        {
          "id": 15,
          "value": 1.0
        }
      ],
      "leftModuleId": 453,
      "rightModuleId": 459,
      "data": {
        "phaseQuantized": false,
        "clockMode": false
      },
      "pos": [
        104,
        0
      ]
    },
    {
      "id": 459,
      "plugin": "Ohmer",
      "version": "1.1.6",
      "model": "OhmerBlank1",
      "params": [],
      "leftModuleId": 458,
      "rightModuleId": 360,
      "data": {
        "Theme": 5
      },
      "pos": [
        112,
        0
      ]
    },
    {
      "id": 460,
      "plugin": "Bogaudio",
      "version": "1.1.37",
      "model": "Bogaudio-LVCF",
      "params": [
        {
          "id": 0,
          "value": 0.223609999
        },
        {
          "id": 1,
          "value": 0.32099998
        },
        {
          "id": 2,
          "value": 0.208499983
        },
        {
          "id": 3,
          "value": 0.0
        }
      ],
      "leftModuleId": 449,
      "rightModuleId": 461,
      "data": {
        "poles": 4,
        "bandwidthMode": "pitched"
      },
      "pos": [
        85,
        2
      ]
    },
    {
      "id": 461,
      "plugin": "Bogaudio",
      "version": "1.1.37",
      "model": "Bogaudio-LVCF",
      "params": [
        {
          "id": 0,
          "value": 0.532609999
        },
        {
          "id": 1,
          "value": -0.522000074
        },
        {
          "id": 2,
          "value": 0.405000001
        },
        {
          "id": 3,
          "value": 1.0
        }
      ],
      "leftModuleId": 460,
      "data": {
        "poles": 4,
        "bandwidthMode": "pitched"
      },
      "pos": [
        88,
        2
      ]
    }
  ],
  "cables": [
    {
      "id": 702,
      "outputModuleId": 375,
      "outputId": 0,
      "inputModuleId": 1,
      "inputId": 0,
      "color": "#c91847"
    },
    {
      "id": 703,
      "outputModuleId": 375,
      "outputId": 1,
      "inputModuleId": 1,
      "inputId": 1,
      "color": "#c91847"
    },
    {
      "id": 807,
      "outputModuleId": 375,
      "outputId": 10,
      "inputModuleId": 451,
      "inputId": 5,
      "color": "#c91847"
    },
    {
      "id": 808,
      "outputModuleId": 375,
      "outputId": 11,
      "inputModuleId": 451,
      "inputId": 6,
      "color": "#c91847"
    },
    {
      "id": 809,
      "outputModuleId": 451,
      "outputId": 0,
      "inputModuleId": 375,
      "inputId": 34,
      "color": "#c91847"
    },
    {
      "id": 810,
      "outputModuleId": 451,
      "outputId": 1,
      "inputModuleId": 375,
      "inputId": 35,
      "color": "#c91847"
    },
    {
      "id": 811,
      "outputModuleId": 379,
      "outputId": 0,
      "inputModuleId": 451,
      "inputId": 7,
      "color": "#364449"
    },
    {
      "id": 812,
      "outputModuleId": 379,
      "outputId": 4,
      "inputModuleId": 436,
      "inputId": 4,
      "color": "#364449"
    },
    {
      "id": 813,
      "outputModuleId": 379,
      "outputId": 4,
      "inputModuleId": 433,
      "inputId": 1,
      "color": "#364449"
    },
    {
      "id": 814,
      "outputModuleId": 379,
      "outputId": 0,
      "inputModuleId": 433,
      "inputId": 0,
      "color": "#364449"
    },
    {
      "id": 815,
      "outputModuleId": 379,
      "outputId": 4,
      "inputModuleId": 437,
      "inputId": 1,
      "color": "#364449"
    },
    {
      "id": 816,
      "outputModuleId": 379,
      "outputId": 4,
      "inputModuleId": 425,
      "inputId": 11,
      "color": "#364449"
    },
    {
      "id": 817,
      "outputModuleId": 379,
      "outputId": 0,
      "inputModuleId": 436,
      "inputId": 0,
      "color": "#364449"
    },
    {
      "id": 818,
      "outputModuleId": 433,
      "outputId": 0,
      "inputModuleId": 436,
      "inputId": 1,
      "color": "#364449"
    },
    {
      "id": 819,
      "outputModuleId": 433,
      "outputId": 1,
      "inputModuleId": 436,
      "inputId": 2,
      "color": "#364449"
    },
    {
      "id": 820,
      "outputModuleId": 436,
      "outputId": 0,
      "inputModuleId": 426,
      "inputId": 2,
      "color": "#c9b70e"
    },
    {
      "id": 821,
      "outputModuleId": 436,
      "outputId": 1,
      "inputModuleId": 426,
      "inputId": 3,
      "color": "#c9b70e"
    },
    {
      "id": 824,
      "outputModuleId": 449,
      "outputId": 6,
      "inputModuleId": 430,
      "inputId": 3,
      "color": "#0c8e15"
    },
    {
      "id": 825,
      "outputModuleId": 433,
      "outputId": 2,
      "inputModuleId": 449,
      "inputId": 2,
      "color": "#364449"
    },
    {
      "id": 823,
      "outputModuleId": 430,
      "outputId": 0,
      "inputModuleId": 439,
      "inputId": 0,
      "color": "#c91847"
    },
    {
      "id": 828,
      "outputModuleId": 437,
      "outputId": 0,
      "inputModuleId": 439,
      "inputId": 1,
      "color": "#0c8e15"
    },
    {
      "id": 831,
      "outputModuleId": 428,
      "outputId": 3,
      "inputModuleId": 343,
      "inputId": 0,
      "color": "#0c8e15"
    },
    {
      "id": 832,
      "outputModuleId": 433,
      "outputId": 3,
      "inputModuleId": 427,
      "inputId": 0,
      "color": "#364449"
    },
    {
      "id": 833,
      "outputModuleId": 427,
      "outputId": 0,
      "inputModuleId": 428,
      "inputId": 14,
      "color": "#364449"
    },
    {
      "id": 834,
      "outputModuleId": 379,
      "outputId": 0,
      "inputModuleId": 427,
      "inputId": 1,
      "color": "#364449"
    },
    {
      "id": 837,
      "outputModuleId": 441,
      "outputId": 5,
      "inputModuleId": 430,
      "inputId": 5,
      "color": "#0c8e15"
    },
    {
      "id": 838,
      "outputModuleId": 441,
      "outputId": 4,
      "inputModuleId": 449,
      "inputId": 4,
      "color": "#0c8e15"
    },
    {
      "id": 839,
      "outputModuleId": 441,
      "outputId": 6,
      "inputModuleId": 449,
      "inputId": 6,
      "color": "#0c8e15"
    },
    {
      "id": 840,
      "outputModuleId": 426,
      "outputId": 1,
      "inputModuleId": 454,
      "inputId": 2,
      "color": "#c9b70e"
    },
    {
      "id": 843,
      "outputModuleId": 449,
      "outputId": 7,
      "inputModuleId": 454,
      "inputId": 3,
      "color": "#0c8e15"
    },
    {
      "id": 845,
      "outputModuleId": 433,
      "outputId": 4,
      "inputModuleId": 449,
      "inputId": 3,
      "color": "#364449"
    },
    {
      "id": 822,
      "outputModuleId": 426,
      "outputId": 0,
      "inputModuleId": 438,
      "inputId": 0,
      "color": "#c9b70e"
    },
    {
      "id": 846,
      "outputModuleId": 433,
      "outputId": 2,
      "inputModuleId": 438,
      "inputId": 1,
      "color": "#364449"
    },
    {
      "id": 847,
      "outputModuleId": 438,
      "outputId": 0,
      "inputModuleId": 431,
      "inputId": 0,
      "color": "#c9b70e"
    },
    {
      "id": 848,
      "outputModuleId": 438,
      "outputId": 1,
      "inputModuleId": 431,
      "inputId": 1,
      "color": "#c9b70e"
    },
    {
      "id": 849,
      "outputModuleId": 438,
      "outputId": 2,
      "inputModuleId": 431,
      "inputId": 2,
      "color": "#c9b70e"
    },
    {
      "id": 850,
      "outputModuleId": 438,
      "outputId": 3,
      "inputModuleId": 431,
      "inputId": 3,
      "color": "#c9b70e"
    },
    {
      "id": 851,
      "outputModuleId": 431,
      "outputId": 0,
      "inputModuleId": 430,
      "inputId": 2,
      "color": "#c9b70e"
    },
    {
      "id": 827,
      "outputModuleId": 439,
      "outputId": 3,
      "inputModuleId": 431,
      "inputId": 4,
      "color": "#c91847"
    },
    {
      "id": 852,
      "outputModuleId": 431,
      "outputId": 1,
      "inputModuleId": 375,
      "inputId": 0,
      "color": "#c91847"
    },
    {
      "id": 853,
      "outputModuleId": 431,
      "outputId": 2,
      "inputModuleId": 375,
      "inputId": 1,
      "color": "#c91847"
    },
    {
      "id": 854,
      "outputModuleId": 431,
      "outputId": 3,
      "inputModuleId": 375,
      "inputId": 2,
      "color": "#c91847"
    },
    {
      "id": 855,
      "outputModuleId": 431,
      "outputId": 4,
      "inputModuleId": 375,
      "inputId": 3,
      "color": "#c91847"
    },
    {
      "id": 856,
      "outputModuleId": 441,
      "outputId": 7,
      "inputModuleId": 439,
      "inputId": 2,
      "color": "#0c8e15"
    },
    {
      "id": 857,
      "outputModuleId": 428,
      "outputId": 2,
      "inputModuleId": 454,
      "inputId": 5,
      "color": "#0c8e15"
    },
    {
      "id": 858,
      "outputModuleId": 438,
      "outputId": 4,
      "inputModuleId": 426,
      "inputId": 4,
      "color": "#c9b70e"
    },
    {
      "id": 859,
      "outputModuleId": 426,
      "outputId": 2,
      "inputModuleId": 447,
      "inputId": 0,
      "color": "#c9b70e"
    },
    {
      "id": 861,
      "outputModuleId": 433,
      "outputId": 5,
      "inputModuleId": 446,
      "inputId": 0,
      "color": "#364449"
    },
    {
      "id": 862,
      "outputModuleId": 446,
      "outputId": 0,
      "inputModuleId": 375,
      "inputId": 13,
      "color": "#0c8e15"
    },
    {
      "id": 863,
      "outputModuleId": 440,
      "outputId": 0,
      "inputModuleId": 454,
      "inputId": 0,
      "color": "#0c8e15"
    },
    {
      "id": 860,
      "outputModuleId": 447,
      "outputId": 0,
      "inputModuleId": 460,
      "inputId": 0,
      "color": "#c91847"
    },
    {
      "id": 864,
      "outputModuleId": 460,
      "outputId": 0,
      "inputModuleId": 375,
      "inputId": 5,
      "color": "#c91847"
    },
    {
      "id": 844,
      "outputModuleId": 454,
      "outputId": 0,
      "inputModuleId": 461,
      "inputId": 0,
      "color": "#c91847"
    },
    {
      "id": 865,
      "outputModuleId": 461,
      "outputId": 0,
      "inputModuleId": 375,
      "inputId": 4,
      "color": "#c91847"
    },
    {
      "id": 866,
      "outputModuleId": 441,
      "outputId": 5,
      "inputModuleId": 460,
      "inputId": 1,
      "color": "#0c8e15"
    },
    {
      "id": 867,
      "outputModuleId": 428,
      "outputId": 4,
      "inputModuleId": 461,
      "inputId": 1,
      "color": "#0c8e15"
    }
  ]
}