{
  "version": "1.1.6",
  "modules": [
    {
      "id": 1,
      "plugin": "Core",
      "version": "1.1.6",
      "model": "AudioInterface",
      "params": [],
      "leftModuleId": 375,
      "rightModuleId": 384,
      "data": {
        "audio": {
          "driver": 7,
          "deviceName": "Studio USB ASIO Driver",
          "offset": 0,
          "maxChannels": 8,
          "sampleRate": 48000,
          "blockSize": 256
        }
      },
      "pos": [
        40,
        0
      ]
    },
    {
      "id": 76,
      "plugin": "Stoermelder-P1",
      "version": "1.10.0",
      "model": "Mb",
      "params": [],
      "leftModuleId": 364,
      "rightModuleId": 380,
      "data": {
        "mode": 1
      },
      "pos": [
        4,
        0
      ]
    },
    {
      "id": 360,
      "plugin": "LindenbergResearch",
      "version": "1.3.3",
      "model": "BlankPanel_Wood",
      "params": [],
      "leftModuleId": 723,
      "gestaltID": 1,
      "gradient": false,
      "patina": false,
      "patina_i_x": false,
      "patina_i_y": false,
      "patina_a_x": 1048.69849,
      "patina_a_y": 465.392822,
      "overlay": false,
      "overlay_r": 0.67385453,
      "overlay_g": 0.124055803,
      "overlay_b": 0.304537714,
      "overlay_a": 0.236330748,
      "AGED": false,
      "screws": true,
      "logo": false,
      "pos": [
        96,
        0
      ]
    },
    {
      "id": 362,
      "plugin": "LindenbergResearch",
      "version": "1.3.3",
      "model": "BlankPanel_Wood",
      "params": [],
      "leftModuleId": 703,
      "gestaltID": 1,
      "gradient": false,
      "patina": false,
      "patina_i_x": false,
      "patina_i_y": false,
      "patina_a_x": 1048.69849,
      "patina_a_y": 465.392822,
      "overlay": false,
      "overlay_r": 0.252461672,
      "overlay_g": 0.99043715,
      "overlay_b": 0.357358813,
      "overlay_a": 0.376255035,
      "AGED": false,
      "screws": true,
      "logo": false,
      "pos": [
        96,
        1
      ]
    },
    {
      "id": 364,
      "plugin": "LindenbergResearch",
      "version": "1.3.3",
      "model": "BlankPanel_Wood",
      "params": [],
      "rightModuleId": 76,
      "gestaltID": 1,
      "gradient": false,
      "patina": false,
      "patina_i_x": true,
      "patina_i_y": false,
      "patina_a_x": 732.980896,
      "patina_a_y": 232.628174,
      "overlay": false,
      "overlay_r": 0.11362201,
      "overlay_g": 0.962124407,
      "overlay_b": 0.732810915,
      "overlay_a": 0.393446654,
      "AGED": false,
      "screws": true,
      "logo": false,
      "pos": [
        0,
        0
      ]
    },
    {
      "id": 365,
      "plugin": "LindenbergResearch",
      "version": "1.3.3",
      "model": "BlankPanel_Wood",
      "params": [],
      "rightModuleId": 720,
      "gestaltID": 1,
      "gradient": false,
      "patina": false,
      "patina_i_x": true,
      "patina_i_y": false,
      "patina_a_x": 732.980896,
      "patina_a_y": 232.628174,
      "overlay": false,
      "overlay_r": 0.987476647,
      "overlay_g": 0.455949545,
      "overlay_b": 0.323059261,
      "overlay_a": 0.11974065,
      "AGED": false,
      "screws": true,
      "logo": false,
      "pos": [
        0,
        1
      ]
    },
    {
      "id": 375,
      "plugin": "squinkylabs-plug1",
      "version": "1.0.22",
      "model": "squinkylabs-mix8",
      "params": [
        {
          "id": 0,
          "value": 0.800000012
        },
        {
          "id": 1,
          "value": 0.0
        },
        {
          "id": 2,
          "value": 0.800000012
        },
        {
          "id": 3,
          "value": 1.0
        },
        {
          "id": 4,
          "value": 0.800000012
        },
        {
          "id": 5,
          "value": 0.800000012
        },
        {
          "id": 6,
          "value": 0.572000086
        },
        {
          "id": 7,
          "value": 0.436999738
        },
        {
          "id": 8,
          "value": 0.55249995
        },
        {
          "id": 9,
          "value": 0.800000012
        },
        {
          "id": 10,
          "value": -0.585000098
        },
        {
          "id": 11,
          "value": 0.578999996
        },
        {
          "id": 12,
          "value": -0.444000006
        },
        {
          "id": 13,
          "value": 0.0
        },
        {
          "id": 14,
          "value": 0.0
        },
        {
          "id": 15,
          "value": 0.0
        },
        {
          "id": 16,
          "value": 0.0
        },
        {
          "id": 17,
          "value": 0.0
        },
        {
          "id": 18,
          "value": 0.0
        },
        {
          "id": 19,
          "value": 0.0
        },
        {
          "id": 20,
          "value": 0.0
        },
        {
          "id": 21,
          "value": 0.0
        },
        {
          "id": 22,
          "value": 0.0
        },
        {
          "id": 23,
          "value": 0.0
        },
        {
          "id": 24,
          "value": 0.0
        },
        {
          "id": 25,
          "value": 0.0
        },
        {
          "id": 26,
          "value": 0.0
        },
        {
          "id": 27,
          "value": 0.0
        },
        {
          "id": 28,
          "value": 0.0
        },
        {
          "id": 29,
          "value": 0.0
        },
        {
          "id": 30,
          "value": 0.0
        },
        {
          "id": 31,
          "value": 0.0
        },
        {
          "id": 32,
          "value": 0.0
        },
        {
          "id": 33,
          "value": 0.0
        },
        {
          "id": 34,
          "value": 0.120000012
        },
        {
          "id": 35,
          "value": 0.022499999
        },
        {
          "id": 36,
          "value": 0.24149996
        },
        {
          "id": 37,
          "value": 0.1875
        },
        {
          "id": 38,
          "value": 0.0
        },
        {
          "id": 39,
          "value": 0.83099997
        },
        {
          "id": 40,
          "value": 0.0
        },
        {
          "id": 41,
          "value": 0.0
        },
        {
          "id": 42,
          "value": 1.0
        }
      ],
      "leftModuleId": 646,
      "rightModuleId": 1,
      "pos": [
        14,
        0
      ]
    },
    {
      "id": 380,
      "plugin": "Stoermelder-P1",
      "version": "1.10.0",
      "model": "Me",
      "params": [],
      "leftModuleId": 76,
      "rightModuleId": 646,
      "pos": [
        6,
        0
      ]
    },
    {
      "id": 384,
      "plugin": "Valley",
      "version": "1.1.7",
      "model": "Plateau",
      "params": [
        {
          "id": 0,
          "value": 0.0
        },
        {
          "id": 1,
          "value": 1.0
        },
        {
          "id": 2,
          "value": 0.0
        },
        {
          "id": 3,
          "value": 2.60499907
        },
        {
          "id": 4,
          "value": 10.0
        },
        {
          "id": 5,
          "value": 0.5
        },
        {
          "id": 6,
          "value": 10.0
        },
        {
          "id": 7,
          "value": 0.549950004
        },
        {
          "id": 8,
          "value": 10.0
        },
        {
          "id": 9,
          "value": 10.0
        },
        {
          "id": 10,
          "value": 0.0
        },
        {
          "id": 11,
          "value": 0.5
        },
        {
          "id": 12,
          "value": 0.5
        },
        {
          "id": 13,
          "value": 0.0
        },
        {
          "id": 14,
          "value": 0.0
        },
        {
          "id": 15,
          "value": 0.0
        },
        {
          "id": 16,
          "value": 0.0
        },
        {
          "id": 17,
          "value": 0.0
        },
        {
          "id": 18,
          "value": 0.0
        },
        {
          "id": 19,
          "value": 0.0
        },
        {
          "id": 20,
          "value": 0.0
        },
        {
          "id": 21,
          "value": 0.0
        },
        {
          "id": 22,
          "value": 0.0
        },
        {
          "id": 23,
          "value": 0.0
        },
        {
          "id": 24,
          "value": 0.0
        },
        {
          "id": 25,
          "value": 0.0
        },
        {
          "id": 26,
          "value": 0.0
        },
        {
          "id": 27,
          "value": 0.0
        },
        {
          "id": 28,
          "value": 0.0
        },
        {
          "id": 29,
          "value": 0.0
        },
        {
          "id": 30,
          "value": 1.0
        }
      ],
      "leftModuleId": 1,
      "rightModuleId": 705,
      "data": {
        "frozen": false,
        "freezeToggle": false,
        "panelStyle": 0,
        "tuned": 0,
        "diffuseInput": 1,
        "preDelayCVSens": 0,
        "inputSensitivity": 0,
        "outputSaturation": 0
      },
      "pos": [
        50,
        0
      ]
    },
    {
      "id": 646,
      "plugin": "Stoermelder-P1",
      "version": "1.10.0",
      "model": "Stroke",
      "params": [],
      "leftModuleId": 380,
      "rightModuleId": 375,
      "data": {
        "panelTheme": 1,
        "keys": [
          {
            "button": -1,
            "key": 49,
            "mods": 0,
            "mode": 24,
            "high": false,
            "data": "#e0d8a3"
          },
          {
            "button": -1,
            "key": 50,
            "mods": 0,
            "mode": 24,
            "high": false,
            "data": "#81b29a"
          },
          {
            "button": -1,
            "key": 51,
            "mods": 0,
            "mode": 24,
            "high": false,
            "data": "#e07a5f"
          },
          {
            "button": -1,
            "key": 52,
            "mods": 0,
            "mode": 24,
            "high": false,
            "data": "#3d405b"
          },
          {
            "button": -1,
            "key": -1,
            "mods": 0,
            "mode": 1,
            "high": false,
            "data": ""
          },
          {
            "button": -1,
            "key": -1,
            "mods": 0,
            "mode": 1,
            "high": false,
            "data": ""
          },
          {
            "button": -1,
            "key": -1,
            "mods": 0,
            "mode": 1,
            "high": false,
            "data": ""
          },
          {
            "button": -1,
            "key": -1,
            "mods": 0,
            "mode": 1,
            "high": false,
            "data": ""
          },
          {
            "button": -1,
            "key": -1,
            "mods": 0,
            "mode": 1,
            "high": false,
            "data": ""
          },
          {
            "button": -1,
            "key": -1,
            "mods": 0,
            "mode": 1,
            "high": false,
            "data": ""
          }
        ]
      },
      "pos": [
        8,
        0
      ]
    },
    {
      "id": 673,
      "plugin": "AriaSalvatrice",
      "version": "1.8.1",
      "model": "Atout",
      "params": [
        {
          "id": 0,
          "value": 1.0
        },
        {
          "id": 1,
          "value": 0.0
        },
        {
          "id": 2,
          "value": 0.0
        },
        {
          "id": 3,
          "value": 1.0
        }
      ],
      "leftModuleId": 683,
      "rightModuleId": 674,
      "data": {
        "running": true
      },
      "pos": [
        22,
        1
      ]
    },
    {
      "id": 674,
      "plugin": "Geodesics",
      "version": "1.2.0",
      "model": "Pulsars",
      "params": [
        {
          "id": 0,
          "value": 0.0
        },
        {
          "id": 1,
          "value": 0.0
        },
        {
          "id": 2,
          "value": 0.0
        },
        {
          "id": 3,
          "value": 0.0
        },
        {
          "id": 4,
          "value": 0.0
        },
        {
          "id": 5,
          "value": 0.0
        },
        {
          "id": 6,
          "value": 0.0
        },
        {
          "id": 7,
          "value": 0.0
        }
      ],
      "leftModuleId": 673,
      "rightModuleId": 675,
      "data": {
        "panelTheme": 1,
        "isVoid0": 0.0,
        "isVoid1": 0.0,
        "isReverse0": 0.0,
        "isReverse1": 0.0,
        "isRandom0": 0.0,
        "isRandom1": 0.0,
        "cvMode0": 0,
        "cvMode1": 0
      },
      "pos": [
        31,
        1
      ]
    },
    {
      "id": 675,
      "plugin": "Geodesics",
      "version": "1.2.0",
      "model": "Entropia",
      "params": [
        {
          "id": 0,
          "value": 0.0
        },
        {
          "id": 1,
          "value": 0.0
        },
        {
          "id": 2,
          "value": 0.0
        },
        {
          "id": 3,
          "value": 0.0
        },
        {
          "id": 4,
          "value": 0.0
        },
        {
          "id": 5,
          "value": 0.762512803
        },
        {
          "id": 6,
          "value": 0.376887023
        },
        {
          "id": 7,
          "value": 0.970664561
        },
        {
          "id": 8,
          "value": 0.106577456
        },
        {
          "id": 9,
          "value": 0.292611122
        },
        {
          "id": 10,
          "value": 0.0121495724
        },
        {
          "id": 11,
          "value": 0.854360819
        },
        {
          "id": 12,
          "value": 0.762484312
        },
        {
          "id": 13,
          "value": 0.452238798
        },
        {
          "id": 14,
          "value": 0.783302248
        },
        {
          "id": 15,
          "value": 0.0968633294
        },
        {
          "id": 16,
          "value": 0.980582893
        },
        {
          "id": 17,
          "value": 0.140580356
        },
        {
          "id": 18,
          "value": 0.458228767
        },
        {
          "id": 19,
          "value": 0.471187234
        },
        {
          "id": 20,
          "value": 0.483602524
        },
        {
          "id": 21,
          "value": 0.418694258
        },
        {
          "id": 22,
          "value": 0.239219069
        },
        {
          "id": 23,
          "value": 0.406258523
        },
        {
          "id": 24,
          "value": 0.00578397512
        },
        {
          "id": 25,
          "value": 0.407204986
        },
        {
          "id": 26,
          "value": 0.471818566
        },
        {
          "id": 27,
          "value": 0.904564023
        },
        {
          "id": 28,
          "value": 0.590802431
        },
        {
          "id": 29,
          "value": 0.0
        },
        {
          "id": 30,
          "value": 0.0
        },
        {
          "id": 31,
          "value": 0.0
        },
        {
          "id": 32,
          "value": 0.0
        },
        {
          "id": 33,
          "value": 0.0
        },
        {
          "id": 34,
          "value": 0.0
        },
        {
          "id": 35,
          "value": 0.0
        },
        {
          "id": 36,
          "value": 0.0
        },
        {
          "id": 37,
          "value": 0.0
        },
        {
          "id": 38,
          "value": 0.0
        },
        {
          "id": 39,
          "value": 0.0
        },
        {
          "id": 40,
          "value": 0.0
        },
        {
          "id": 41,
          "value": 0.0447564498
        },
        {
          "id": 42,
          "value": 0.0
        },
        {
          "id": 43,
          "value": 0.0
        },
        {
          "id": 44,
          "value": 0.0
        }
      ],
      "leftModuleId": 674,
      "rightModuleId": 677,
      "data": {
        "panelTheme": 1,
        "running": true,
        "resetOnRun": false,
        "length": 8,
        "quantize": 3,
        "audio": 0,
        "ranges0": 0,
        "ranges1": 1,
        "addMode": true,
        "sources0": 0,
        "sources1": 0,
        "stepIndex": 7,
        "pipeBlue": true,
        "randomCVs0": 0.453363776,
        "randomCVs1": 0.442883313,
        "clkSource": 0
      },
      "pos": [
        42,
        1
      ]
    },
    {
      "id": 676,
      "plugin": "Geodesics",
      "version": "1.2.0",
      "model": "Energy",
      "params": [
        {
          "id": 0,
          "value": 0.0
        },
        {
          "id": 1,
          "value": 0.0
        },
        {
          "id": 2,
          "value": 0.0
        },
        {
          "id": 3,
          "value": 0.0
        },
        {
          "id": 4,
          "value": 0.0
        },
        {
          "id": 5,
          "value": 0.0
        },
        {
          "id": 6,
          "value": 0.0
        },
        {
          "id": 7,
          "value": 0.558000028
        },
        {
          "id": 8,
          "value": 0.478499651
        },
        {
          "id": 9,
          "value": 0.0
        }
      ],
      "leftModuleId": 716,
      "rightModuleId": 681,
      "data": {
        "panelTheme": 1,
        "oscM_phase": 3902672672,
        "oscC_phase": 2831450176,
        "osc1M_phase": 4136985768,
        "osc1C_phase": 1750011624,
        "osc2M_phase": 3613848752,
        "osc2C_phase": 1291410896,
        "osc3M_phase": 2275077176,
        "osc3C_phase": 3392667736,
        "osc4M_phase": 0,
        "osc4C_phase": 0,
        "osc5M_phase": 0,
        "osc5C_phase": 0,
        "osc6M_phase": 0,
        "osc6C_phase": 0,
        "osc7M_phase": 0,
        "osc7C_phase": 0,
        "osc8M_phase": 0,
        "osc8C_phase": 0,
        "osc9M_phase": 0,
        "osc9C_phase": 0,
        "osc10M_phase": 0,
        "osc10C_phase": 0,
        "osc11M_phase": 0,
        "osc11C_phase": 0,
        "osc12M_phase": 0,
        "osc12C_phase": 0,
        "osc13M_phase": 0,
        "osc13C_phase": 0,
        "osc14M_phase": 0,
        "osc14C_phase": 0,
        "osc15M_phase": 0,
        "osc15C_phase": 0,
        "routing": 1,
        "planck0": 0,
        "planck1": 0,
        "modtype0": 1,
        "modtype1": 1,
        "cross": 1
      },
      "pos": [
        78,
        1
      ]
    },
    {
      "id": 677,
      "plugin": "Geodesics",
      "version": "1.2.0",
      "model": "Fate",
      "params": [
        {
          "id": 0,
          "value": 0.269999862
        },
        {
          "id": 1,
          "value": -0.889000118
        }
      ],
      "leftModuleId": 675,
      "rightModuleId": 680,
      "data": {
        "panelTheme": 1,
        "holdTrigOut": 0
      },
      "pos": [
        63,
        1
      ]
    },
    {
      "id": 679,
      "plugin": "GrandeModular",
      "version": "1.9.0",
      "model": "MergeSplit4",
      "params": [],
      "leftModuleId": 680,
      "rightModuleId": 716,
      "data": {
        "channels_merge": -1
      },
      "pos": [
        72,
        1
      ]
    },
    {
      "id": 680,
      "plugin": "ML_modules",
      "version": "1.1.3",
      "model": "ShiftRegister",
      "params": [
        {
          "id": 0,
          "value": 0.0
        },
        {
          "id": 1,
          "value": 0.0
        },
        {
          "id": 2,
          "value": 0.0
        },
        {
          "id": 3,
          "value": 0.0
        },
        {
          "id": 4,
          "value": 0.0
        },
        {
          "id": 5,
          "value": 0.0
        },
        {
          "id": 6,
          "value": 0.0
        },
        {
          "id": 7,
          "value": 0.0
        },
        {
          "id": 8,
          "value": 0.0
        }
      ],
      "leftModuleId": 677,
      "rightModuleId": 679,
      "pos": [
        68,
        1
      ]
    },
    {
      "id": 681,
      "plugin": "NYSTHI",
      "version": "1.0.17",
      "model": "AttackSustainRelease4",
      "params": [
        {
          "id": 0,
          "value": 0.0
        },
        {
          "id": 1,
          "value": 0.100000001
        },
        {
          "id": 2,
          "value": 0.0
        },
        {
          "id": 3,
          "value": 1.0
        },
        {
          "id": 4,
          "value": 0.5
        },
        {
          "id": 5,
          "value": 0.0
        },
        {
          "id": 6,
          "value": 0.0
        },
        {
          "id": 7,
          "value": 0.0
        },
        {
          "id": 8,
          "value": 0.0
        },
        {
          "id": 9,
          "value": 0.0
        },
        {
          "id": 10,
          "value": 0.0
        },
        {
          "id": 11,
          "value": 0.0
        },
        {
          "id": 12,
          "value": 0.0
        },
        {
          "id": 13,
          "value": 0.0
        },
        {
          "id": 14,
          "value": 0.0
        },
        {
          "id": 15,
          "value": 0.0
        },
        {
          "id": 16,
          "value": 0.0
        },
        {
          "id": 17,
          "value": 0.0
        },
        {
          "id": 18,
          "value": 0.0
        },
        {
          "id": 19,
          "value": 0.0
        },
        {
          "id": 20,
          "value": 0.0
        },
        {
          "id": 21,
          "value": 0.0
        },
        {
          "id": 22,
          "value": 0.0175000057
        },
        {
          "id": 23,
          "value": 0.178000018
        },
        {
          "id": 24,
          "value": 0.0
        },
        {
          "id": 25,
          "value": 0.0
        },
        {
          "id": 26,
          "value": 0.100000001
        },
        {
          "id": 27,
          "value": 0.100000001
        },
        {
          "id": 28,
          "value": 0.100000001
        },
        {
          "id": 29,
          "value": 0.100000001
        },
        {
          "id": 30,
          "value": 0.100000001
        },
        {
          "id": 31,
          "value": 0.100000001
        },
        {
          "id": 32,
          "value": 0.100000001
        },
        {
          "id": 33,
          "value": 0.100000001
        },
        {
          "id": 34,
          "value": 0.100000001
        },
        {
          "id": 35,
          "value": 0.100000001
        },
        {
          "id": 36,
          "value": 0.100000001
        },
        {
          "id": 37,
          "value": 0.100000001
        },
        {
          "id": 38,
          "value": 0.0
        },
        {
          "id": 39,
          "value": 0.5
        },
        {
          "id": 40,
          "value": 0.5
        },
        {
          "id": 41,
          "value": 0.5
        },
        {
          "id": 42,
          "value": 0.5
        },
        {
          "id": 43,
          "value": 0.5
        },
        {
          "id": 44,
          "value": 0.5
        },
        {
          "id": 45,
          "value": 0.5
        },
        {
          "id": 46,
          "value": 0.5
        },
        {
          "id": 47,
          "value": 0.5
        },
        {
          "id": 48,
          "value": 0.5
        },
        {
          "id": 49,
          "value": 0.5
        },
        {
          "id": 50,
          "value": 0.5
        },
        {
          "id": 51,
          "value": 0.5
        },
        {
          "id": 52,
          "value": 0.5
        },
        {
          "id": 53,
          "value": 0.5
        },
        {
          "id": 54,
          "value": 0.5
        },
        {
          "id": 55,
          "value": 0.0
        },
        {
          "id": 56,
          "value": 1.0
        },
        {
          "id": 57,
          "value": 1.0
        },
        {
          "id": 58,
          "value": 1.0
        },
        {
          "id": 59,
          "value": 1.0
        },
        {
          "id": 60,
          "value": 1.0
        },
        {
          "id": 61,
          "value": 1.0
        },
        {
          "id": 62,
          "value": 1.0
        },
        {
          "id": 63,
          "value": 1.0
        },
        {
          "id": 64,
          "value": 1.0
        },
        {
          "id": 65,
          "value": 1.0
        },
        {
          "id": 66,
          "value": 1.0
        },
        {
          "id": 67,
          "value": 1.0
        },
        {
          "id": 68,
          "value": 1.0
        },
        {
          "id": 69,
          "value": 1.0
        },
        {
          "id": 70,
          "value": 1.0
        },
        {
          "id": 71,
          "value": 1.0
        },
        {
          "id": 72,
          "value": 0.0
        },
        {
          "id": 73,
          "value": 0.0
        },
        {
          "id": 74,
          "value": 0.0
        },
        {
          "id": 75,
          "value": 0.0
        },
        {
          "id": 76,
          "value": 0.0
        },
        {
          "id": 77,
          "value": 0.0
        },
        {
          "id": 78,
          "value": 0.0
        },
        {
          "id": 79,
          "value": 0.0
        },
        {
          "id": 80,
          "value": 0.0
        },
        {
          "id": 81,
          "value": 0.0
        },
        {
          "id": 82,
          "value": 0.0
        },
        {
          "id": 83,
          "value": 0.0
        },
        {
          "id": 84,
          "value": 0.0
        },
        {
          "id": 85,
          "value": 0.0
        },
        {
          "id": 86,
          "value": 0.0
        },
        {
          "id": 87,
          "value": 0.0
        },
        {
          "id": 88,
          "value": 0.0
        },
        {
          "id": 89,
          "value": 0.0
        },
        {
          "id": 90,
          "value": 0.0
        },
        {
          "id": 91,
          "value": 0.0
        },
        {
          "id": 92,
          "value": 0.0
        },
        {
          "id": 93,
          "value": 0.0
        },
        {
          "id": 94,
          "value": 0.0
        },
        {
          "id": 95,
          "value": 0.0
        },
        {
          "id": 96,
          "value": 0.0
        },
        {
          "id": 97,
          "value": 0.0
        },
        {
          "id": 98,
          "value": 0.0
        },
        {
          "id": 99,
          "value": 0.0
        },
        {
          "id": 100,
          "value": 0.0
        },
        {
          "id": 101,
          "value": 0.0
        },
        {
          "id": 102,
          "value": 0.0
        },
        {
          "id": 103,
          "value": 0.0
        },
        {
          "id": 104,
          "value": 0.0
        },
        {
          "id": 105,
          "value": 0.0
        },
        {
          "id": 106,
          "value": 0.0
        },
        {
          "id": 107,
          "value": 0.0
        },
        {
          "id": 108,
          "value": 0.0
        },
        {
          "id": 109,
          "value": 0.0
        },
        {
          "id": 110,
          "value": 0.0
        },
        {
          "id": 111,
          "value": 0.0
        },
        {
          "id": 112,
          "value": 0.0
        },
        {
          "id": 113,
          "value": 0.0
        },
        {
          "id": 114,
          "value": 0.0
        },
        {
          "id": 115,
          "value": 0.0
        },
        {
          "id": 116,
          "value": 0.0
        },
        {
          "id": 117,
          "value": 0.0
        },
        {
          "id": 118,
          "value": 0.0
        },
        {
          "id": 119,
          "value": 0.0
        },
        {
          "id": 120,
          "value": 0.0
        },
        {
          "id": 121,
          "value": 0.0
        },
        {
          "id": 122,
          "value": 0.0
        },
        {
          "id": 123,
          "value": 0.0
        },
        {
          "id": 124,
          "value": 0.0
        },
        {
          "id": 125,
          "value": 0.0
        },
        {
          "id": 126,
          "value": 0.0
        },
        {
          "id": 127,
          "value": 0.0
        },
        {
          "id": 128,
          "value": 0.0
        },
        {
          "id": 129,
          "value": 0.0
        },
        {
          "id": 130,
          "value": 0.0
        },
        {
          "id": 131,
          "value": 0.0
        },
        {
          "id": 132,
          "value": 0.0
        },
        {
          "id": 133,
          "value": 0.0
        },
        {
          "id": 134,
          "value": 0.0
        },
        {
          "id": 135,
          "value": 0.0
        },
        {
          "id": 136,
          "value": 0.0
        },
        {
          "id": 137,
          "value": 0.0
        },
        {
          "id": 138,
          "value": 0.0
        },
        {
          "id": 139,
          "value": 0.0
        },
        {
          "id": 140,
          "value": 0.0
        },
        {
          "id": 141,
          "value": 0.0
        },
        {
          "id": 142,
          "value": 0.0
        },
        {
          "id": 143,
          "value": 0.0
        },
        {
          "id": 144,
          "value": 0.0
        },
        {
          "id": 145,
          "value": 0.0
        },
        {
          "id": 146,
          "value": 0.0
        },
        {
          "id": 147,
          "value": 0.0
        },
        {
          "id": 148,
          "value": 0.0
        },
        {
          "id": 149,
          "value": 0.0
        },
        {
          "id": 150,
          "value": 0.0
        },
        {
          "id": 151,
          "value": 0.0
        },
        {
          "id": 152,
          "value": 0.0
        },
        {
          "id": 153,
          "value": 0.0
        },
        {
          "id": 154,
          "value": 0.0
        },
        {
          "id": 155,
          "value": 0.0
        },
        {
          "id": 156,
          "value": 0.0
        },
        {
          "id": 157,
          "value": 0.0
        },
        {
          "id": 158,
          "value": 0.0
        },
        {
          "id": 159,
          "value": 0.0
        },
        {
          "id": 160,
          "value": 0.0
        },
        {
          "id": 161,
          "value": 0.0
        },
        {
          "id": 162,
          "value": 0.0
        },
        {
          "id": 163,
          "value": 0.0
        },
        {
          "id": 164,
          "value": 0.0
        },
        {
          "id": 165,
          "value": 0.0
        },
        {
          "id": 166,
          "value": 0.0
        },
        {
          "id": 167,
          "value": 0.0
        },
        {
          "id": 168,
          "value": 0.0
        },
        {
          "id": 169,
          "value": 0.0
        },
        {
          "id": 170,
          "value": 0.0
        },
        {
          "id": 171,
          "value": 0.0
        },
        {
          "id": 172,
          "value": 0.0
        },
        {
          "id": 173,
          "value": 0.0
        },
        {
          "id": 174,
          "value": 0.0
        }
      ],
      "leftModuleId": 676,
      "rightModuleId": 703,
      "data": {
        "m_looped0": false,
        "m_unitysummed0": false,
        "m_armode0": true,
        "m_busy0": false,
        "m_zero0": false,
        "m_looped1": false,
        "m_unitysummed1": false,
        "m_armode1": true,
        "m_busy1": false,
        "m_zero1": false,
        "m_looped2": false,
        "m_unitysummed2": false,
        "m_armode2": true,
        "m_busy2": false,
        "m_zero2": false,
        "m_looped3": false,
        "m_unitysummed3": false,
        "m_armode3": true,
        "m_busy3": false,
        "m_zero3": false,
        "m_looped4": false,
        "m_unitysummed4": false,
        "m_armode4": true,
        "m_busy4": false,
        "m_zero4": false,
        "m_looped5": false,
        "m_unitysummed5": false,
        "m_armode5": true,
        "m_busy5": false,
        "m_zero5": false,
        "m_looped6": false,
        "m_unitysummed6": false,
        "m_armode6": true,
        "m_busy6": false,
        "m_zero6": false,
        "m_looped7": false,
        "m_unitysummed7": false,
        "m_armode7": true,
        "m_busy7": false,
        "m_zero7": false,
        "m_looped8": false,
        "m_unitysummed8": false,
        "m_armode8": true,
        "m_busy8": false,
        "m_zero8": false,
        "m_looped9": false,
        "m_unitysummed9": false,
        "m_armode9": true,
        "m_busy9": false,
        "m_zero9": false,
        "m_looped10": false,
        "m_unitysummed10": false,
        "m_armode10": true,
        "m_busy10": false,
        "m_zero10": false,
        "m_looped11": false,
        "m_unitysummed11": false,
        "m_armode11": true,
        "m_busy11": false,
        "m_zero11": false,
        "m_looped12": false,
        "m_unitysummed12": false,
        "m_armode12": true,
        "m_busy12": false,
        "m_zero12": false,
        "m_looped13": false,
        "m_unitysummed13": false,
        "m_armode13": true,
        "m_busy13": false,
        "m_zero13": false,
        "m_looped14": false,
        "m_unitysummed14": false,
        "m_armode14": true,
        "m_busy14": false,
        "m_zero14": false,
        "m_looped15": false,
        "m_unitysummed15": false,
        "m_armode15": true,
        "m_busy15": false,
        "m_zero15": false
      },
      "pos": [
        85,
        1
      ]
    },
    {
      "id": 683,
      "plugin": "Bogaudio",
      "version": "1.1.37",
      "model": "Bogaudio-LFO",
      "params": [
        {
          "id": 0,
          "value": -3.22549987
        },
        {
          "id": 1,
          "value": 0.0
        },
        {
          "id": 2,
          "value": 0.0
        },
        {
          "id": 3,
          "value": 0.0
        },
        {
          "id": 4,
          "value": 0.0
        },
        {
          "id": 5,
          "value": 1.0
        },
        {
          "id": 6,
          "value": 0.0
        }
      ],
      "leftModuleId": 719,
      "rightModuleId": 673,
      "data": {
        "offset_cv_to_smoothing": false
      },
      "pos": [
        12,
        1
      ]
    },
    {
      "id": 684,
      "plugin": "Fundamental",
      "version": "1.4.0",
      "model": "Octave",
      "params": [
        {
          "id": 0,
          "value": -3.0
        }
      ],
      "leftModuleId": 722,
      "rightModuleId": 701,
      "pos": [
        88,
        0
      ]
    },
    {
      "id": 685,
      "plugin": "GrandeModular",
      "version": "1.9.0",
      "model": "MergeSplit4",
      "params": [],
      "leftModuleId": 699,
      "rightModuleId": 700,
      "data": {
        "channels_merge": -1
      },
      "pos": [
        94,
        2
      ]
    },
    {
      "id": 688,
      "plugin": "Geodesics",
      "version": "1.2.0",
      "model": "Pulsars",
      "params": [
        {
          "id": 0,
          "value": 0.0
        },
        {
          "id": 1,
          "value": 0.0
        },
        {
          "id": 2,
          "value": 0.0
        },
        {
          "id": 3,
          "value": 0.0
        },
        {
          "id": 4,
          "value": 0.0
        },
        {
          "id": 5,
          "value": 0.0
        },
        {
          "id": 6,
          "value": 0.0
        },
        {
          "id": 7,
          "value": 0.0
        }
      ],
      "leftModuleId": 713,
      "rightModuleId": 689,
      "data": {
        "panelTheme": 1,
        "isVoid0": 0.0,
        "isVoid1": 0.0,
        "isReverse0": 0.0,
        "isReverse1": 0.0,
        "isRandom0": 0.0,
        "isRandom1": 0.0,
        "cvMode0": 0,
        "cvMode1": 0
      },
      "pos": [
        31,
        2
      ]
    },
    {
      "id": 689,
      "plugin": "AudibleInstruments",
      "version": "1.5.0",
      "model": "Branches",
      "params": [
        {
          "id": 0,
          "value": 0.742000043
        },
        {
          "id": 1,
          "value": 0.309500039
        },
        {
          "id": 2,
          "value": 0.0
        },
        {
          "id": 3,
          "value": 0.0
        }
      ],
      "leftModuleId": 688,
      "rightModuleId": 691,
      "data": {
        "modes": [
          true,
          false
        ]
      },
      "pos": [
        42,
        2
      ]
    },
    {
      "id": 690,
      "plugin": "Hora-treasureFree",
      "version": "1.0.3",
      "model": "HiHat",
      "params": [
        {
          "id": 0,
          "value": 0.5
        },
        {
          "id": 1,
          "value": 0.600000024
        },
        {
          "id": 2,
          "value": 0.730440021
        },
        {
          "id": 3,
          "value": 0.0
        },
        {
          "id": 4,
          "value": 0.0
        },
        {
          "id": 5,
          "value": 0.0
        },
        {
          "id": 6,
          "value": 1.25049996
        },
        {
          "id": 7,
          "value": 0.800000012
        },
        {
          "id": 8,
          "value": 0.800000012
        },
        {
          "id": 9,
          "value": 0.600000024
        },
        {
          "id": 10,
          "value": 0.100000001
        },
        {
          "id": 11,
          "value": 0.421000004
        }
      ],
      "leftModuleId": 691,
      "rightModuleId": 692,
      "pos": [
        56,
        2
      ]
    },
    {
      "id": 691,
      "plugin": "Hora-treasureFree",
      "version": "1.0.3",
      "model": "Deep",
      "params": [
        {
          "id": 0,
          "value": 0.850000024
        },
        {
          "id": 1,
          "value": 0.980000019
        },
        {
          "id": 2,
          "value": 0.0
        },
        {
          "id": 3,
          "value": 0.319999993
        },
        {
          "id": 4,
          "value": 0.800000012
        },
        {
          "id": 5,
          "value": 0.475499988
        },
        {
          "id": 6,
          "value": 3.5
        },
        {
          "id": 7,
          "value": 0.600000024
        },
        {
          "id": 8,
          "value": 0.800000012
        },
        {
          "id": 9,
          "value": 0.0
        },
        {
          "id": 10,
          "value": 1.0
        },
        {
          "id": 11,
          "value": 0.5
        },
        {
          "id": 12,
          "value": 0.514800012
        },
        {
          "id": 13,
          "value": 0.0
        }
      ],
      "leftModuleId": 689,
      "rightModuleId": 690,
      "pos": [
        48,
        2
      ]
    },
    {
      "id": 692,
      "plugin": "Geodesics",
      "version": "1.2.0",
      "model": "BlackHoles",
      "params": [
        {
          "id": 0,
          "value": 0.972000122
        },
        {
          "id": 1,
          "value": 0.816999912
        },
        {
          "id": 2,
          "value": 1.0
        },
        {
          "id": 3,
          "value": 0.0
        },
        {
          "id": 4,
          "value": 0.0
        },
        {
          "id": 5,
          "value": 0.0
        },
        {
          "id": 6,
          "value": 0.0
        },
        {
          "id": 7,
          "value": 0.0
        },
        {
          "id": 8,
          "value": 0.0
        },
        {
          "id": 9,
          "value": 0.0
        },
        {
          "id": 10,
          "value": 0.0
        },
        {
          "id": 11,
          "value": 0.0
        },
        {
          "id": 12,
          "value": 0.0
        }
      ],
      "leftModuleId": 690,
      "rightModuleId": 693,
      "data": {
        "panelTheme": 1,
        "isExponential0": 0.0,
        "isExponential1": 0.0,
        "wormhole": true,
        "cvMode": 3
      },
      "pos": [
        64,
        2
      ]
    },
    {
      "id": 693,
      "plugin": "Hora-treasureFree",
      "version": "1.0.3",
      "model": "SnareDrum-VCV",
      "params": [
        {
          "id": 0,
          "value": 0.5
        },
        {
          "id": 1,
          "value": 1500.0
        },
        {
          "id": 2,
          "value": 0.0
        },
        {
          "id": 3,
          "value": 0.0
        },
        {
          "id": 4,
          "value": 0.00999999978
        },
        {
          "id": 5,
          "value": 0.805000007
        },
        {
          "id": 6,
          "value": 0.800000012
        },
        {
          "id": 7,
          "value": 0.0
        },
        {
          "id": 8,
          "value": 0.50999999
        },
        {
          "id": 9,
          "value": 0.677399993
        },
        {
          "id": 10,
          "value": 0.800000012
        },
        {
          "id": 11,
          "value": 0.800000012
        },
        {
          "id": 12,
          "value": 0.0
        },
        {
          "id": 13,
          "value": 0.583000004
        }
      ],
      "leftModuleId": 692,
      "rightModuleId": 699,
      "pos": [
        75,
        2
      ]
    },
    {
      "id": 699,
      "plugin": "Geodesics",
      "version": "1.2.0",
      "model": "Branes",
      "params": [
        {
          "id": 0,
          "value": 0.0
        },
        {
          "id": 1,
          "value": 0.0
        },
        {
          "id": 2,
          "value": 0.0
        },
        {
          "id": 3,
          "value": 0.0
        }
      ],
      "leftModuleId": 693,
      "rightModuleId": 685,
      "data": {
        "panelTheme": 1,
        "vibrations0": 0,
        "vibrations1": 0,
        "noiseRange0": 1.0,
        "noiseRange1": 0.0
      },
      "pos": [
        83,
        2
      ]
    },
    {
      "id": 700,
      "plugin": "LindenbergResearch",
      "version": "1.3.3",
      "model": "BlankPanel_Wood",
      "params": [],
      "leftModuleId": 685,
      "gestaltID": 1,
      "gradient": false,
      "patina": false,
      "patina_i_x": false,
      "patina_i_y": false,
      "patina_a_x": 1048.69849,
      "patina_a_y": 465.392822,
      "overlay": false,
      "overlay_r": 0.392020762,
      "overlay_g": 0.101727426,
      "overlay_b": 0.389652371,
      "overlay_a": 0.252901882,
      "AGED": false,
      "screws": true,
      "logo": false,
      "pos": [
        96,
        2
      ]
    },
    {
      "id": 701,
      "plugin": "GrandeModular",
      "version": "1.9.0",
      "model": "MergeSplit4",
      "params": [],
      "leftModuleId": 684,
      "rightModuleId": 723,
      "data": {
        "channels_merge": -1
      },
      "pos": [
        91,
        0
      ]
    },
    {
      "id": 702,
      "plugin": "VultModulesFree",
      "version": "1.18",
      "model": "Wolv",
      "params": [
        {
          "id": 0,
          "value": 0.369499952
        },
        {
          "id": 1,
          "value": 0.301499993
        },
        {
          "id": 2,
          "value": 0.656000018
        },
        {
          "id": 3,
          "value": 0.209999949
        },
        {
          "id": 4,
          "value": 0.728999674
        },
        {
          "id": 5,
          "value": 0.448500037
        }
      ],
      "leftModuleId": 705,
      "rightModuleId": 722,
      "pos": [
        74,
        0
      ]
    },
    {
      "id": 703,
      "plugin": "GrandeModular",
      "version": "1.9.0",
      "model": "MergeSplit4",
      "params": [],
      "leftModuleId": 681,
      "rightModuleId": 362,
      "data": {
        "channels_merge": -1
      },
      "pos": [
        94,
        1
      ]
    },
    {
      "id": 704,
      "plugin": "LindenbergResearch",
      "version": "1.3.3",
      "model": "BlankPanel_Wood",
      "params": [],
      "rightModuleId": 724,
      "gestaltID": 1,
      "gradient": false,
      "patina": false,
      "patina_i_x": true,
      "patina_i_y": false,
      "patina_a_x": 732.980896,
      "patina_a_y": 232.628174,
      "overlay": false,
      "overlay_r": 0.121850908,
      "overlay_g": 0.475797594,
      "overlay_b": 0.703193903,
      "overlay_a": 0.243133247,
      "AGED": false,
      "screws": true,
      "logo": false,
      "pos": [
        0,
        2
      ]
    },
    {
      "id": 705,
      "plugin": "AlrightDevices",
      "version": "1.0.3",
      "model": "Chronoblob2",
      "params": [
        {
          "id": 0,
          "value": 0.39049992
        },
        {
          "id": 1,
          "value": 0.333500028
        },
        {
          "id": 2,
          "value": 1.0
        },
        {
          "id": 3,
          "value": -0.305999994
        },
        {
          "id": 4,
          "value": 0.0359999985
        },
        {
          "id": 5,
          "value": 0.0
        },
        {
          "id": 6,
          "value": 0.246000022
        },
        {
          "id": 7,
          "value": 0.0
        },
        {
          "id": 8,
          "value": 0.0
        },
        {
          "id": 9,
          "value": 0.0
        }
      ],
      "leftModuleId": 384,
      "rightModuleId": 702,
      "data": {
        "delay_mode": 1,
        "hold_behavior": 0,
        "sync_prescaler": 6
      },
      "pos": [
        62,
        0
      ]
    },
    {
      "id": 706,
      "plugin": "Bogaudio",
      "version": "1.1.37",
      "model": "Bogaudio-FourFO",
      "params": [
        {
          "id": 0,
          "value": 2.41800022
        },
        {
          "id": 1,
          "value": 3.0
        },
        {
          "id": 2,
          "value": 1.0
        },
        {
          "id": 3,
          "value": 0.0
        },
        {
          "id": 4,
          "value": 0.201000124
        },
        {
          "id": 5,
          "value": -0.114000067
        },
        {
          "id": 6,
          "value": 1.0
        },
        {
          "id": 7,
          "value": 0.0
        },
        {
          "id": 8,
          "value": 0.0
        },
        {
          "id": 9,
          "value": 0.0
        },
        {
          "id": 10,
          "value": 0.0
        }
      ],
      "leftModuleId": 717,
      "rightModuleId": 713,
      "data": {},
      "pos": [
        18,
        2
      ]
    },
    {
      "id": 713,
      "plugin": "ModularFungi",
      "version": "1.1.4",
      "model": "Blank3HP",
      "params": [],
      "leftModuleId": 706,
      "rightModuleId": 688,
      "style": 1.0,
      "pos": [
        28,
        2
      ]
    },
    {
      "id": 716,
      "plugin": "JW-Modules",
      "version": "1.0.29",
      "model": "Quantizer",
      "params": [
        {
          "id": 0,
          "value": 6.0
        },
        {
          "id": 1,
          "value": 9.0
        },
        {
          "id": 2,
          "value": 0.0
        }
      ],
      "leftModuleId": 679,
      "rightModuleId": 676,
      "data": {},
      "pos": [
        74,
        1
      ]
    },
    {
      "id": 717,
      "plugin": "Bogaudio",
      "version": "1.1.37",
      "model": "Bogaudio-AddrSeq",
      "params": [
        {
          "id": 0,
          "value": 5.14399862
        },
        {
          "id": 1,
          "value": 1.0
        },
        {
          "id": 2,
          "value": 0.0
        },
        {
          "id": 3,
          "value": 0.0
        },
        {
          "id": 4,
          "value": -0.0750000402
        },
        {
          "id": 5,
          "value": 0.120000035
        },
        {
          "id": 6,
          "value": 0.381000072
        },
        {
          "id": 7,
          "value": -0.162000015
        },
        {
          "id": 8,
          "value": 0.0
        },
        {
          "id": 9,
          "value": 0.0
        },
        {
          "id": 10,
          "value": 0.0
        }
      ],
      "leftModuleId": 718,
      "rightModuleId": 706,
      "data": {
        "poly_input": 0,
        "select_on_clock": false,
        "triggered_select": false,
        "reverse_on_negative_clock": false,
        "range_offset": 0.0,
        "range_scale": 10.0
      },
      "pos": [
        12,
        2
      ]
    },
    {
      "id": 718,
      "plugin": "Bogaudio",
      "version": "1.1.37",
      "model": "Bogaudio-AddrSeq",
      "params": [
        {
          "id": 0,
          "value": 5.22799921
        },
        {
          "id": 1,
          "value": 1.0
        },
        {
          "id": 2,
          "value": 0.0
        },
        {
          "id": 3,
          "value": 0.0149999894
        },
        {
          "id": 4,
          "value": 0.0
        },
        {
          "id": 5,
          "value": 0.29399994
        },
        {
          "id": 6,
          "value": 0.360000014
        },
        {
          "id": 7,
          "value": 0.326999962
        },
        {
          "id": 8,
          "value": 0.0
        },
        {
          "id": 9,
          "value": 0.0
        },
        {
          "id": 10,
          "value": 0.0
        }
      ],
      "leftModuleId": 724,
      "rightModuleId": 717,
      "data": {
        "poly_input": 0,
        "select_on_clock": false,
        "triggered_select": false,
        "reverse_on_negative_clock": false,
        "range_offset": 0.0,
        "range_scale": 10.0
      },
      "pos": [
        6,
        2
      ]
    },
    {
      "id": 719,
      "plugin": "Bogaudio",
      "version": "1.1.37",
      "model": "Bogaudio-RGate",
      "params": [
        {
          "id": 0,
          "value": 0.5
        },
        {
          "id": 1,
          "value": 0.186000109
        },
        {
          "id": 2,
          "value": 0.00900001545
        }
      ],
      "leftModuleId": 720,
      "rightModuleId": 683,
      "data": {
        "range_offset": 1.0,
        "range_scale": 5.0,
        "reset_mode": 0,
        "initial_clock_seconds": 0.5,
        "poly_input": 4
      },
      "pos": [
        7,
        1
      ]
    },
    {
      "id": 720,
      "plugin": "Bogaudio",
      "version": "1.1.37",
      "model": "Bogaudio-Manual",
      "params": [
        {
          "id": 0,
          "value": 0.0
        }
      ],
      "leftModuleId": 365,
      "rightModuleId": 719,
      "data": {
        "triggerOnLoad": false,
        "shouldTriggerOnLoad": true,
        "output_scale": 1.0
      },
      "pos": [
        4,
        1
      ]
    },
    {
      "id": 722,
      "plugin": "Geodesics",
      "version": "1.2.0",
      "model": "Blank-PanelLogo",
      "params": [
        {
          "id": 0,
          "value": 1.0
        }
      ],
      "leftModuleId": 702,
      "rightModuleId": 684,
      "data": {
        "panelTheme": 1
      },
      "pos": [
        84,
        0
      ]
    },
    {
      "id": 723,
      "plugin": "Bogaudio",
      "version": "1.1.37",
      "model": "Bogaudio-Blank3",
      "params": [],
      "leftModuleId": 701,
      "rightModuleId": 360,
      "data": {},
      "pos": [
        93,
        0
      ]
    },
    {
      "id": 724,
      "plugin": "Ohmer",
      "version": "1.1.6",
      "model": "OhmerBlank2",
      "params": [],
      "leftModuleId": 704,
      "rightModuleId": 718,
      "data": {
        "Theme": 5,
        "screwsDisposal": 0
      },
      "pos": [
        4,
        2
      ]
    }
  ],
  "cables": [
    {
      "id": 1053,
      "outputModuleId": 375,
      "outputId": 0,
      "inputModuleId": 1,
      "inputId": 0,
      "color": "#db6443"
    },
    {
      "id": 1054,
      "outputModuleId": 375,
      "outputId": 1,
      "inputModuleId": 1,
      "inputId": 1,
      "color": "#db6443"
    },
    {
      "id": 1063,
      "outputModuleId": 375,
      "outputId": 10,
      "inputModuleId": 384,
      "inputId": 0,
      "color": "#db6443"
    },
    {
      "id": 1064,
      "outputModuleId": 375,
      "outputId": 11,
      "inputModuleId": 384,
      "inputId": 1,
      "color": "#db6443"
    },
    {
      "id": 1065,
      "outputModuleId": 384,
      "outputId": 0,
      "inputModuleId": 375,
      "inputId": 34,
      "color": "#e07a5f"
    },
    {
      "id": 1066,
      "outputModuleId": 384,
      "outputId": 1,
      "inputModuleId": 375,
      "inputId": 35,
      "color": "#db6443"
    },
    {
      "id": 1073,
      "outputModuleId": 673,
      "outputId": 5,
      "inputModuleId": 674,
      "inputId": 0,
      "color": "#3d405b"
    },
    {
      "id": 1074,
      "outputModuleId": 674,
      "outputId": 0,
      "inputModuleId": 675,
      "inputId": 0,
      "color": "#3d405b"
    },
    {
      "id": 1075,
      "outputModuleId": 675,
      "outputId": 0,
      "inputModuleId": 677,
      "inputId": 2,
      "color": "#e0d8a3"
    },
    {
      "id": 1082,
      "outputModuleId": 673,
      "outputId": 4,
      "inputModuleId": 674,
      "inputId": 1,
      "color": "#3d405b"
    },
    {
      "id": 1083,
      "outputModuleId": 673,
      "outputId": 6,
      "inputModuleId": 674,
      "inputId": 2,
      "color": "#3d405b"
    },
    {
      "id": 1084,
      "outputModuleId": 673,
      "outputId": 7,
      "inputModuleId": 674,
      "inputId": 3,
      "color": "#3d405b"
    },
    {
      "id": 1085,
      "outputModuleId": 683,
      "outputId": 4,
      "inputModuleId": 674,
      "inputId": 9,
      "color": "#81b29a"
    },
    {
      "id": 1086,
      "outputModuleId": 674,
      "outputId": 0,
      "inputModuleId": 677,
      "inputId": 1,
      "color": "#3d405b"
    },
    {
      "id": 1089,
      "outputModuleId": 674,
      "outputId": 0,
      "inputModuleId": 680,
      "inputId": 1,
      "color": "#3d405b"
    },
    {
      "id": 1090,
      "outputModuleId": 680,
      "outputId": 0,
      "inputModuleId": 679,
      "inputId": 0,
      "color": "#e0d8a3"
    },
    {
      "id": 1092,
      "outputModuleId": 680,
      "outputId": 2,
      "inputModuleId": 679,
      "inputId": 2,
      "color": "#e0d8a3"
    },
    {
      "id": 1093,
      "outputModuleId": 680,
      "outputId": 3,
      "inputModuleId": 679,
      "inputId": 3,
      "color": "#e0d8a3"
    },
    {
      "id": 1096,
      "outputModuleId": 679,
      "outputId": 1,
      "inputModuleId": 375,
      "inputId": 0,
      "color": "#e07a5f"
    },
    {
      "id": 1097,
      "outputModuleId": 679,
      "outputId": 2,
      "inputModuleId": 375,
      "inputId": 1,
      "color": "#e07a5f"
    },
    {
      "id": 1098,
      "outputModuleId": 679,
      "outputId": 3,
      "inputModuleId": 375,
      "inputId": 2,
      "color": "#e07a5f"
    },
    {
      "id": 1099,
      "outputModuleId": 679,
      "outputId": 4,
      "inputModuleId": 375,
      "inputId": 3,
      "color": "#e07a5f"
    },
    {
      "id": 1100,
      "outputModuleId": 684,
      "outputId": 0,
      "inputModuleId": 679,
      "inputId": 1,
      "color": "#e0d8a3"
    },
    {
      "id": 1091,
      "outputModuleId": 680,
      "outputId": 1,
      "inputModuleId": 684,
      "inputId": 0,
      "color": "#e0d8a3"
    },
    {
      "id": 1112,
      "outputModuleId": 683,
      "outputId": 0,
      "inputModuleId": 688,
      "inputId": 9,
      "color": "#81b29a"
    },
    {
      "id": 1113,
      "outputModuleId": 689,
      "outputId": 0,
      "inputModuleId": 691,
      "inputId": 0,
      "color": "#3d405b"
    },
    {
      "id": 1114,
      "outputModuleId": 688,
      "outputId": 0,
      "inputModuleId": 689,
      "inputId": 0,
      "color": "#3d405b"
    },
    {
      "id": 1116,
      "outputModuleId": 691,
      "outputId": 2,
      "inputModuleId": 692,
      "inputId": 0,
      "color": "#e07a5f"
    },
    {
      "id": 1117,
      "outputModuleId": 690,
      "outputId": 2,
      "inputModuleId": 692,
      "inputId": 1,
      "color": "#3d405b"
    },
    {
      "id": 1118,
      "outputModuleId": 692,
      "outputId": 8,
      "inputModuleId": 375,
      "inputId": 4,
      "color": "#e07a5f"
    },
    {
      "id": 1115,
      "outputModuleId": 689,
      "outputId": 1,
      "inputModuleId": 690,
      "inputId": 0,
      "color": "#3d405b"
    },
    {
      "id": 1119,
      "outputModuleId": 693,
      "outputId": 2,
      "inputModuleId": 692,
      "inputId": 2,
      "color": "#e07a5f"
    },
    {
      "id": 1120,
      "outputModuleId": 689,
      "outputId": 2,
      "inputModuleId": 693,
      "inputId": 0,
      "color": "#e07a5f"
    },
    {
      "id": 1132,
      "outputModuleId": 673,
      "outputId": 10,
      "inputModuleId": 688,
      "inputId": 0,
      "color": "#3d405b"
    },
    {
      "id": 1133,
      "outputModuleId": 673,
      "outputId": 11,
      "inputModuleId": 688,
      "inputId": 1,
      "color": "#3d405b"
    },
    {
      "id": 1134,
      "outputModuleId": 673,
      "outputId": 12,
      "inputModuleId": 688,
      "inputId": 2,
      "color": "#3d405b"
    },
    {
      "id": 1135,
      "outputModuleId": 673,
      "outputId": 13,
      "inputModuleId": 688,
      "inputId": 3,
      "color": "#3d405b"
    },
    {
      "id": 1137,
      "outputModuleId": 689,
      "outputId": 3,
      "inputModuleId": 690,
      "inputId": 1,
      "color": "#3d405b"
    },
    {
      "id": 1146,
      "outputModuleId": 681,
      "outputId": 2,
      "inputModuleId": 685,
      "inputId": 0,
      "color": "#81b29a"
    },
    {
      "id": 1147,
      "outputModuleId": 681,
      "outputId": 3,
      "inputModuleId": 685,
      "inputId": 1,
      "color": "#81b29a"
    },
    {
      "id": 1154,
      "outputModuleId": 681,
      "outputId": 4,
      "inputModuleId": 685,
      "inputId": 2,
      "color": "#81b29a"
    },
    {
      "id": 1155,
      "outputModuleId": 681,
      "outputId": 5,
      "inputModuleId": 685,
      "inputId": 3,
      "color": "#81b29a"
    },
    {
      "id": 1157,
      "outputModuleId": 673,
      "outputId": 18,
      "inputModuleId": 681,
      "inputId": 39,
      "color": "#3d405b"
    },
    {
      "id": 1158,
      "outputModuleId": 673,
      "outputId": 17,
      "inputModuleId": 681,
      "inputId": 38,
      "color": "#3d405b"
    },
    {
      "id": 1159,
      "outputModuleId": 673,
      "outputId": 21,
      "inputModuleId": 681,
      "inputId": 40,
      "color": "#3d405b"
    },
    {
      "id": 1160,
      "outputModuleId": 673,
      "outputId": 22,
      "inputModuleId": 681,
      "inputId": 41,
      "color": "#3d405b"
    },
    {
      "id": 1161,
      "outputModuleId": 673,
      "outputId": 28,
      "inputModuleId": 674,
      "inputId": 4,
      "color": "#3d405b"
    },
    {
      "id": 1162,
      "outputModuleId": 673,
      "outputId": 23,
      "inputModuleId": 674,
      "inputId": 5,
      "color": "#3d405b"
    },
    {
      "id": 1163,
      "outputModuleId": 673,
      "outputId": 15,
      "inputModuleId": 674,
      "inputId": 6,
      "color": "#3d405b"
    },
    {
      "id": 1164,
      "outputModuleId": 673,
      "outputId": 27,
      "inputModuleId": 674,
      "inputId": 7,
      "color": "#3d405b"
    },
    {
      "id": 1172,
      "outputModuleId": 699,
      "outputId": 2,
      "inputModuleId": 701,
      "inputId": 2,
      "color": "#81b29a"
    },
    {
      "id": 1173,
      "outputModuleId": 699,
      "outputId": 1,
      "inputModuleId": 701,
      "inputId": 3,
      "color": "#81b29a"
    },
    {
      "id": 1174,
      "outputModuleId": 699,
      "outputId": 4,
      "inputModuleId": 701,
      "inputId": 1,
      "color": "#81b29a"
    },
    {
      "id": 1168,
      "outputModuleId": 699,
      "outputId": 0,
      "inputModuleId": 701,
      "inputId": 0,
      "color": "#81b29a"
    },
    {
      "id": 1176,
      "outputModuleId": 673,
      "outputId": 11,
      "inputModuleId": 699,
      "inputId": 14,
      "color": "#3d405b"
    },
    {
      "id": 1095,
      "outputModuleId": 676,
      "outputId": 0,
      "inputModuleId": 702,
      "inputId": 0,
      "color": "#e07a5f"
    },
    {
      "id": 1178,
      "outputModuleId": 702,
      "outputId": 1,
      "inputModuleId": 679,
      "inputId": 4,
      "color": "#81b29a"
    },
    {
      "id": 1180,
      "outputModuleId": 673,
      "outputId": 20,
      "inputModuleId": 699,
      "inputId": 15,
      "color": "#3d405b"
    },
    {
      "id": 1181,
      "outputModuleId": 699,
      "outputId": 7,
      "inputModuleId": 703,
      "inputId": 0,
      "color": "#81b29a"
    },
    {
      "id": 1182,
      "outputModuleId": 699,
      "outputId": 8,
      "inputModuleId": 703,
      "inputId": 1,
      "color": "#81b29a"
    },
    {
      "id": 1183,
      "outputModuleId": 699,
      "outputId": 13,
      "inputModuleId": 703,
      "inputId": 2,
      "color": "#81b29a"
    },
    {
      "id": 1184,
      "outputModuleId": 699,
      "outputId": 12,
      "inputModuleId": 703,
      "inputId": 3,
      "color": "#81b29a"
    },
    {
      "id": 1186,
      "outputModuleId": 703,
      "outputId": 0,
      "inputModuleId": 702,
      "inputId": 2,
      "color": "#81b29a"
    },
    {
      "id": 1187,
      "outputModuleId": 699,
      "outputId": 11,
      "inputModuleId": 691,
      "inputId": 2,
      "color": "#81b29a"
    },
    {
      "id": 1189,
      "outputModuleId": 701,
      "outputId": 0,
      "inputModuleId": 702,
      "inputId": 1,
      "color": "#81b29a"
    },
    {
      "id": 1190,
      "outputModuleId": 375,
      "outputId": 2,
      "inputModuleId": 705,
      "inputId": 5,
      "color": "#e07a5f"
    },
    {
      "id": 1192,
      "outputModuleId": 705,
      "outputId": 0,
      "inputModuleId": 375,
      "inputId": 5,
      "color": "#e07a5f"
    },
    {
      "id": 1193,
      "outputModuleId": 673,
      "outputId": 7,
      "inputModuleId": 705,
      "inputId": 7,
      "color": "#3d405b"
    },
    {
      "id": 1194,
      "outputModuleId": 702,
      "outputId": 0,
      "inputModuleId": 375,
      "inputId": 6,
      "color": "#e07a5f"
    },
    {
      "id": 1195,
      "outputModuleId": 699,
      "outputId": 3,
      "inputModuleId": 375,
      "inputId": 22,
      "color": "#81b29a"
    },
    {
      "id": 1198,
      "outputModuleId": 702,
      "outputId": 0,
      "inputModuleId": 705,
      "inputId": 6,
      "color": "#e07a5f"
    },
    {
      "id": 1199,
      "outputModuleId": 706,
      "outputId": 1,
      "inputModuleId": 681,
      "inputId": 21,
      "color": "#81b29a"
    },
    {
      "id": 1200,
      "outputModuleId": 706,
      "outputId": 0,
      "inputModuleId": 681,
      "inputId": 23,
      "color": "#81b29a"
    },
    {
      "id": 1201,
      "outputModuleId": 706,
      "outputId": 2,
      "inputModuleId": 681,
      "inputId": 24,
      "color": "#81b29a"
    },
    {
      "id": 1205,
      "outputModuleId": 699,
      "outputId": 10,
      "inputModuleId": 706,
      "inputId": 4,
      "color": "#81b29a"
    },
    {
      "id": 1209,
      "outputModuleId": 699,
      "outputId": 9,
      "inputModuleId": 706,
      "inputId": 1,
      "color": "#81b29a"
    },
    {
      "id": 1210,
      "outputModuleId": 699,
      "outputId": 12,
      "inputModuleId": 375,
      "inputId": 21,
      "color": "#81b29a"
    },
    {
      "id": 1211,
      "outputModuleId": 673,
      "outputId": 22,
      "inputModuleId": 688,
      "inputId": 5,
      "color": "#3d405b"
    },
    {
      "id": 1212,
      "outputModuleId": 673,
      "outputId": 27,
      "inputModuleId": 688,
      "inputId": 6,
      "color": "#3d405b"
    },
    {
      "id": 1214,
      "outputModuleId": 673,
      "outputId": 25,
      "inputModuleId": 688,
      "inputId": 4,
      "color": "#3d405b"
    },
    {
      "id": 1217,
      "outputModuleId": 717,
      "outputId": 0,
      "inputModuleId": 716,
      "inputId": 0,
      "color": "#3d405b"
    },
    {
      "id": 1219,
      "outputModuleId": 718,
      "outputId": 0,
      "inputModuleId": 716,
      "inputId": 1,
      "color": "#81b29a"
    },
    {
      "id": 1220,
      "outputModuleId": 673,
      "outputId": 8,
      "inputModuleId": 719,
      "inputId": 4,
      "color": "#3d405b"
    },
    {
      "id": 1216,
      "outputModuleId": 677,
      "outputId": 0,
      "inputModuleId": 680,
      "inputId": 0,
      "color": "#e0d8a3"
    },
    {
      "id": 1223,
      "outputModuleId": 716,
      "outputId": 0,
      "inputModuleId": 676,
      "inputId": 2,
      "color": "#e0d8a3"
    },
    {
      "id": 1224,
      "outputModuleId": 720,
      "outputId": 0,
      "inputModuleId": 719,
      "inputId": 2,
      "color": "#3d405b"
    },
    {
      "id": 1225,
      "outputModuleId": 720,
      "outputId": 1,
      "inputModuleId": 718,
      "inputId": 1,
      "color": "#3d405b"
    },
    {
      "id": 1226,
      "outputModuleId": 720,
      "outputId": 2,
      "inputModuleId": 717,
      "inputId": 1,
      "color": "#3d405b"
    },
    {
      "id": 1227,
      "outputModuleId": 719,
      "outputId": 0,
      "inputModuleId": 717,
      "inputId": 0,
      "color": "#3d405b"
    },
    {
      "id": 1228,
      "outputModuleId": 719,
      "outputId": 0,
      "inputModuleId": 718,
      "inputId": 0,
      "color": "#3d405b"
    },
    {
      "id": 1229,
      "outputModuleId": 699,
      "outputId": 2,
      "inputModuleId": 692,
      "inputId": 8,
      "color": "#81b29a"
    },
    {
      "id": 1230,
      "outputModuleId": 699,
      "outputId": 4,
      "inputModuleId": 692,
      "inputId": 9,
      "color": "#81b29a"
    },
    {
      "id": 1232,
      "outputModuleId": 699,
      "outputId": 6,
      "inputModuleId": 692,
      "inputId": 10,
      "color": "#81b29a"
    },
    {
      "id": 1237,
      "outputModuleId": 701,
      "outputId": 0,
      "inputModuleId": 676,
      "inputId": 5,
      "color": "#81b29a"
    },
    {
      "id": 1238,
      "outputModuleId": 685,
      "outputId": 0,
      "inputModuleId": 676,
      "inputId": 3,
      "color": "#e07a5f"
    },
    {
      "id": 1239,
      "outputModuleId": 679,
      "outputId": 0,
      "inputModuleId": 716,
      "inputId": 2,
      "color": "#81b29a"
    }
  ]
}