{
  "version": "1.1.6",
  "modules": [
    {
      "id": 1,
      "plugin": "Core",
      "version": "1.1.6",
      "model": "AudioInterface",
      "params": [],
      "leftModuleId": 375,
      "rightModuleId": 384,
      "data": {
        "audio": {
          "driver": 7,
          "deviceName": "Studio USB ASIO Driver",
          "offset": 0,
          "maxChannels": 8,
          "sampleRate": 48000,
          "blockSize": 256
        }
      },
      "pos": [
        40,
        0
      ]
    },
    {
      "id": 76,
      "plugin": "Stoermelder-P1",
      "version": "1.10.0",
      "model": "Mb",
      "params": [],
      "leftModuleId": 380,
      "rightModuleId": 79,
      "data": {
        "mode": 1
      },
      "pos": [
        6,
        0
      ]
    },
    {
      "id": 79,
      "plugin": "Stoermelder-P1",
      "version": "1.10.0",
      "model": "Stroke",
      "params": [],
      "leftModuleId": 76,
      "rightModuleId": 375,
      "data": {
        "panelTheme": 1,
        "keys": [
          {
            "button": -1,
            "key": 49,
            "mods": 0,
            "mode": 24,
            "high": false,
            "data": "#c9b70e"
          },
          {
            "button": -1,
            "key": 50,
            "mods": 0,
            "mode": 24,
            "high": false,
            "data": "#0c8e15"
          },
          {
            "button": -1,
            "key": 51,
            "mods": 0,
            "mode": 24,
            "high": false,
            "data": "#c91847"
          },
          {
            "button": -1,
            "key": 52,
            "mods": 0,
            "mode": 24,
            "high": false,
            "data": "#364449"
          },
          {
            "button": -1,
            "key": -1,
            "mods": 0,
            "mode": 1,
            "high": false,
            "data": ""
          },
          {
            "button": -1,
            "key": -1,
            "mods": 0,
            "mode": 1,
            "high": false,
            "data": ""
          },
          {
            "button": -1,
            "key": -1,
            "mods": 0,
            "mode": 1,
            "high": false,
            "data": ""
          },
          {
            "button": -1,
            "key": -1,
            "mods": 0,
            "mode": 1,
            "high": false,
            "data": ""
          },
          {
            "button": -1,
            "key": -1,
            "mods": 0,
            "mode": 1,
            "high": false,
            "data": ""
          },
          {
            "button": -1,
            "key": -1,
            "mods": 0,
            "mode": 1,
            "high": false,
            "data": ""
          }
        ]
      },
      "pos": [
        8,
        0
      ]
    },
    {
      "id": 360,
      "plugin": "LindenbergResearch",
      "version": "1.3.3",
      "model": "BlankPanel_Wood",
      "params": [],
      "leftModuleId": 539,
      "gestaltID": 1,
      "gradient": false,
      "patina": false,
      "patina_i_x": false,
      "patina_i_y": false,
      "patina_a_x": 1048.69849,
      "patina_a_y": 465.392822,
      "overlay": false,
      "overlay_r": 0.870275259,
      "overlay_g": 0.162121892,
      "overlay_b": 0.890248775,
      "overlay_a": 0.204827338,
      "AGED": false,
      "screws": true,
      "logo": false,
      "pos": [
        86,
        0
      ]
    },
    {
      "id": 362,
      "plugin": "LindenbergResearch",
      "version": "1.3.3",
      "model": "BlankPanel_Wood",
      "params": [],
      "leftModuleId": 523,
      "gestaltID": 1,
      "gradient": false,
      "patina": false,
      "patina_i_x": false,
      "patina_i_y": false,
      "patina_a_x": 1048.69849,
      "patina_a_y": 465.392822,
      "overlay": false,
      "overlay_r": 0.32112968,
      "overlay_g": 0.63462764,
      "overlay_b": 0.500923574,
      "overlay_a": 0.164620236,
      "AGED": false,
      "screws": true,
      "logo": false,
      "pos": [
        86,
        1
      ]
    },
    {
      "id": 364,
      "plugin": "LindenbergResearch",
      "version": "1.3.3",
      "model": "BlankPanel_Wood",
      "params": [],
      "rightModuleId": 380,
      "gestaltID": 1,
      "gradient": false,
      "patina": false,
      "patina_i_x": true,
      "patina_i_y": false,
      "patina_a_x": 732.980896,
      "patina_a_y": 232.628174,
      "overlay": false,
      "overlay_r": 0.0955938101,
      "overlay_g": 0.744888783,
      "overlay_b": 0.633082747,
      "overlay_a": 0.123580739,
      "AGED": false,
      "screws": true,
      "logo": false,
      "pos": [
        0,
        0
      ]
    },
    {
      "id": 365,
      "plugin": "LindenbergResearch",
      "version": "1.3.3",
      "model": "BlankPanel_Wood",
      "params": [],
      "rightModuleId": 383,
      "gestaltID": 1,
      "gradient": false,
      "patina": false,
      "patina_i_x": true,
      "patina_i_y": false,
      "patina_a_x": 732.980896,
      "patina_a_y": 232.628174,
      "overlay": false,
      "overlay_r": 0.514478803,
      "overlay_g": 0.891887665,
      "overlay_b": 0.994378567,
      "overlay_a": 0.266305208,
      "AGED": false,
      "screws": true,
      "logo": false,
      "pos": [
        0,
        1
      ]
    },
    {
      "id": 375,
      "plugin": "squinkylabs-plug1",
      "version": "1.0.22",
      "model": "squinkylabs-mix8",
      "params": [
        {
          "id": 0,
          "value": 0.800000012
        },
        {
          "id": 1,
          "value": 0.0
        },
        {
          "id": 2,
          "value": 0.120499335
        },
        {
          "id": 3,
          "value": 0.851500034
        },
        {
          "id": 4,
          "value": 0.800000012
        },
        {
          "id": 5,
          "value": 0.800000012
        },
        {
          "id": 6,
          "value": 0.800000012
        },
        {
          "id": 7,
          "value": 0.800000012
        },
        {
          "id": 8,
          "value": 0.800000012
        },
        {
          "id": 9,
          "value": 0.800000012
        },
        {
          "id": 10,
          "value": 0.0
        },
        {
          "id": 11,
          "value": 0.0
        },
        {
          "id": 12,
          "value": 0.0
        },
        {
          "id": 13,
          "value": 0.0
        },
        {
          "id": 14,
          "value": 0.0
        },
        {
          "id": 15,
          "value": 0.0
        },
        {
          "id": 16,
          "value": 0.0
        },
        {
          "id": 17,
          "value": 0.0
        },
        {
          "id": 18,
          "value": 0.0
        },
        {
          "id": 19,
          "value": 0.0
        },
        {
          "id": 20,
          "value": 0.0
        },
        {
          "id": 21,
          "value": 0.0
        },
        {
          "id": 22,
          "value": 0.0
        },
        {
          "id": 23,
          "value": 0.0
        },
        {
          "id": 24,
          "value": 0.0
        },
        {
          "id": 25,
          "value": 0.0
        },
        {
          "id": 26,
          "value": 0.0
        },
        {
          "id": 27,
          "value": 0.0
        },
        {
          "id": 28,
          "value": 0.0
        },
        {
          "id": 29,
          "value": 0.0
        },
        {
          "id": 30,
          "value": 0.0
        },
        {
          "id": 31,
          "value": 0.0
        },
        {
          "id": 32,
          "value": 0.0
        },
        {
          "id": 33,
          "value": 0.0
        },
        {
          "id": 34,
          "value": 0.155999959
        },
        {
          "id": 35,
          "value": 0.0
        },
        {
          "id": 36,
          "value": 0.0
        },
        {
          "id": 37,
          "value": 0.0
        },
        {
          "id": 38,
          "value": 0.0
        },
        {
          "id": 39,
          "value": 0.0
        },
        {
          "id": 40,
          "value": 0.0
        },
        {
          "id": 41,
          "value": 0.0
        },
        {
          "id": 42,
          "value": 1.0
        }
      ],
      "leftModuleId": 79,
      "rightModuleId": 1,
      "pos": [
        14,
        0
      ]
    },
    {
      "id": 380,
      "plugin": "Stoermelder-P1",
      "version": "1.10.0",
      "model": "Me",
      "params": [],
      "leftModuleId": 364,
      "rightModuleId": 76,
      "pos": [
        4,
        0
      ]
    },
    {
      "id": 383,
      "plugin": "ImpromptuModular",
      "version": "1.1.12",
      "model": "Clocked",
      "params": [
        {
          "id": 0,
          "value": 107.0
        },
        {
          "id": 1,
          "value": 2.0
        },
        {
          "id": 2,
          "value": 0.0
        },
        {
          "id": 3,
          "value": 0.0
        },
        {
          "id": 4,
          "value": 0.0
        },
        {
          "id": 5,
          "value": 0.0
        },
        {
          "id": 6,
          "value": 0.0
        },
        {
          "id": 7,
          "value": 0.0
        },
        {
          "id": 8,
          "value": 0.5
        },
        {
          "id": 9,
          "value": 0.5
        },
        {
          "id": 10,
          "value": 0.5
        },
        {
          "id": 11,
          "value": 0.5
        },
        {
          "id": 12,
          "value": 0.0
        },
        {
          "id": 13,
          "value": 0.0
        },
        {
          "id": 14,
          "value": 0.0
        },
        {
          "id": 15,
          "value": 0.0
        },
        {
          "id": 16,
          "value": 0.0
        },
        {
          "id": 17,
          "value": 0.0
        },
        {
          "id": 18,
          "value": 0.0
        },
        {
          "id": 19,
          "value": 0.0
        }
      ],
      "leftModuleId": 365,
      "rightModuleId": 516,
      "data": {
        "panelTheme": 1,
        "running": false,
        "displayDelayNoteMode": true,
        "bpmDetectionMode": false,
        "resetOnStartStop": 0,
        "ppqn": 4,
        "resetClockOutputsHigh": true,
        "momentaryRunInput": true,
        "clockMaster": false
      },
      "pos": [
        4,
        1
      ]
    },
    {
      "id": 384,
      "plugin": "Valley",
      "version": "1.1.7",
      "model": "Plateau",
      "params": [
        {
          "id": 0,
          "value": 0.0
        },
        {
          "id": 1,
          "value": 1.0
        },
        {
          "id": 2,
          "value": 0.0
        },
        {
          "id": 3,
          "value": 10.0
        },
        {
          "id": 4,
          "value": 10.0
        },
        {
          "id": 5,
          "value": 0.5
        },
        {
          "id": 6,
          "value": 10.0
        },
        {
          "id": 7,
          "value": 0.549950004
        },
        {
          "id": 8,
          "value": 10.0
        },
        {
          "id": 9,
          "value": 10.0
        },
        {
          "id": 10,
          "value": 0.0
        },
        {
          "id": 11,
          "value": 0.5
        },
        {
          "id": 12,
          "value": 0.5
        },
        {
          "id": 13,
          "value": 0.0
        },
        {
          "id": 14,
          "value": 0.0
        },
        {
          "id": 15,
          "value": 0.0
        },
        {
          "id": 16,
          "value": 0.0
        },
        {
          "id": 17,
          "value": 0.0
        },
        {
          "id": 18,
          "value": 0.0
        },
        {
          "id": 19,
          "value": 0.0
        },
        {
          "id": 20,
          "value": 0.0
        },
        {
          "id": 21,
          "value": 0.0
        },
        {
          "id": 22,
          "value": 0.0
        },
        {
          "id": 23,
          "value": 0.0
        },
        {
          "id": 24,
          "value": 0.0
        },
        {
          "id": 25,
          "value": 0.0
        },
        {
          "id": 26,
          "value": 0.0
        },
        {
          "id": 27,
          "value": 0.0
        },
        {
          "id": 28,
          "value": 0.0
        },
        {
          "id": 29,
          "value": 0.0
        },
        {
          "id": 30,
          "value": 1.0
        }
      ],
      "leftModuleId": 1,
      "rightModuleId": 525,
      "data": {
        "frozen": false,
        "freezeToggle": false,
        "panelStyle": 0,
        "tuned": 0,
        "diffuseInput": 1,
        "preDelayCVSens": 0,
        "inputSensitivity": 0,
        "outputSaturation": 0
      },
      "pos": [
        50,
        0
      ]
    },
    {
      "id": 515,
      "plugin": "cvly",
      "version": "1.0.1",
      "model": "stpr",
      "params": [
        {
          "id": 0,
          "value": -0.422736764
        },
        {
          "id": 1,
          "value": 0.272407889
        },
        {
          "id": 2,
          "value": -0.861650109
        },
        {
          "id": 3,
          "value": 0.481019378
        },
        {
          "id": 4,
          "value": -0.262210965
        },
        {
          "id": 5,
          "value": 0.904651284
        },
        {
          "id": 6,
          "value": -0.993006587
        },
        {
          "id": 7,
          "value": 0.458919764
        }
      ],
      "leftModuleId": 528,
      "rightModuleId": 520,
      "pos": [
        52,
        1
      ]
    },
    {
      "id": 516,
      "plugin": "Valley",
      "version": "1.1.7",
      "model": "uGraph",
      "params": [
        {
          "id": 0,
          "value": 0.0
        },
        {
          "id": 1,
          "value": 0.0
        },
        {
          "id": 2,
          "value": 0.0
        },
        {
          "id": 3,
          "value": 0.140999988
        },
        {
          "id": 4,
          "value": 0.330000013
        },
        {
          "id": 5,
          "value": 0.538500071
        },
        {
          "id": 6,
          "value": 0.5
        },
        {
          "id": 7,
          "value": 0.55250001
        },
        {
          "id": 8,
          "value": 0.5
        },
        {
          "id": 9,
          "value": 0.0
        }
      ],
      "leftModuleId": 383,
      "rightModuleId": 517,
      "data": {
        "sequencerMode": 2,
        "triggerOutputMode": 0,
        "accOutputMode": 0,
        "extClockResolution": 0,
        "chaosKnobMode": 0,
        "runMode": 0,
        "panelStyle": 0,
        "running": 1
      },
      "pos": [
        24,
        1
      ]
    },
    {
      "id": 517,
      "plugin": "AudibleInstruments",
      "version": "1.5.0",
      "model": "Branches",
      "params": [
        {
          "id": 0,
          "value": 0.5
        },
        {
          "id": 1,
          "value": 0.5
        },
        {
          "id": 2,
          "value": 0.0
        },
        {
          "id": 3,
          "value": 0.0
        }
      ],
      "leftModuleId": 516,
      "rightModuleId": 519,
      "data": {
        "modes": [
          false,
          false
        ]
      },
      "pos": [
        34,
        1
      ]
    },
    {
      "id": 519,
      "plugin": "AudibleInstruments",
      "version": "1.5.0",
      "model": "Branches",
      "params": [
        {
          "id": 0,
          "value": 0.5
        },
        {
          "id": 1,
          "value": 0.5
        },
        {
          "id": 2,
          "value": 0.0
        },
        {
          "id": 3,
          "value": 0.0
        }
      ],
      "leftModuleId": 517,
      "rightModuleId": 528,
      "data": {
        "modes": [
          false,
          false
        ]
      },
      "pos": [
        40,
        1
      ]
    },
    {
      "id": 520,
      "plugin": "repelzen",
      "version": "1.1.0",
      "model": "rewin",
      "params": [
        {
          "id": 0,
          "value": 0.0
        },
        {
          "id": 1,
          "value": 0.0
        },
        {
          "id": 2,
          "value": 0.0
        },
        {
          "id": 3,
          "value": 0.0
        },
        {
          "id": 4,
          "value": 0.0
        },
        {
          "id": 5,
          "value": 0.0
        },
        {
          "id": 6,
          "value": 0.0
        },
        {
          "id": 7,
          "value": 0.0
        },
        {
          "id": 8,
          "value": 0.0
        },
        {
          "id": 9,
          "value": 0.0
        },
        {
          "id": 10,
          "value": 0.0
        },
        {
          "id": 11,
          "value": 0.0
        },
        {
          "id": 12,
          "value": 0.0
        },
        {
          "id": 13,
          "value": 0.0
        },
        {
          "id": 14,
          "value": 0.0
        },
        {
          "id": 15,
          "value": 0.0
        },
        {
          "id": 16,
          "value": 0.0
        }
      ],
      "leftModuleId": 515,
      "rightModuleId": 521,
      "data": {
        "notes": [
          false,
          false,
          true,
          false,
          true,
          true,
          false,
          true,
          false,
          true,
          false,
          false,
          false,
          false,
          false,
          false,
          false,
          false,
          false,
          false,
          false,
          false,
          false,
          false,
          false,
          false,
          false,
          false,
          false,
          false,
          false,
          false,
          false,
          false,
          false,
          false,
          false,
          false,
          false,
          false,
          false,
          false,
          false,
          false,
          false,
          false,
          false,
          false,
          false,
          false,
          false,
          false,
          false,
          false,
          false,
          false,
          false,
          false,
          false,
          false,
          false,
          false,
          false,
          false,
          false,
          false,
          false,
          false,
          false,
          false,
          false,
          false,
          false,
          false,
          false,
          false,
          false,
          false,
          false,
          false,
          false,
          false,
          false,
          false,
          false,
          false,
          false,
          false,
          false,
          false,
          false,
          false,
          false,
          false,
          false,
          false,
          false,
          false,
          false,
          false,
          false,
          false,
          false,
          false,
          false,
          false,
          false,
          false,
          false,
          false,
          false,
          false,
          false,
          false,
          false,
          false,
          false,
          false,
          false,
          false,
          false,
          false,
          false,
          false,
          false,
          false,
          false,
          false,
          false,
          false,
          false,
          false,
          false,
          false,
          false,
          false,
          false,
          false,
          false,
          false,
          false,
          false,
          false,
          false,
          false,
          false,
          false,
          false,
          false,
          false,
          false,
          false,
          false,
          false,
          false,
          false,
          false,
          false,
          false,
          false,
          false,
          false,
          false,
          false,
          false,
          false,
          false,
          false,
          false,
          false,
          false,
          false,
          false,
          false,
          false,
          false,
          false,
          false,
          false,
          false,
          false,
          false,
          false,
          false,
          false,
          false,
          false,
          false,
          false,
          false,
          false,
          false
        ],
        "mode": 0
      },
      "pos": [
        64,
        1
      ]
    },
    {
      "id": 521,
      "plugin": "Geodesics",
      "version": "1.2.0",
      "model": "Energy",
      "params": [
        {
          "id": 0,
          "value": 0.0
        },
        {
          "id": 1,
          "value": 0.0
        },
        {
          "id": 2,
          "value": 0.0
        },
        {
          "id": 3,
          "value": 0.0
        },
        {
          "id": 4,
          "value": 0.0
        },
        {
          "id": 5,
          "value": 0.0
        },
        {
          "id": 6,
          "value": 0.0
        },
        {
          "id": 7,
          "value": 0.388500035
        },
        {
          "id": 8,
          "value": 0.407999992
        },
        {
          "id": 9,
          "value": 0.0
        }
      ],
      "leftModuleId": 520,
      "rightModuleId": 522,
      "data": {
        "panelTheme": 1,
        "oscM_phase": 3134679456,
        "oscC_phase": 3134679456,
        "osc1M_phase": 0,
        "osc1C_phase": 0,
        "osc2M_phase": 0,
        "osc2C_phase": 0,
        "osc3M_phase": 0,
        "osc3C_phase": 0,
        "osc4M_phase": 0,
        "osc4C_phase": 0,
        "osc5M_phase": 0,
        "osc5C_phase": 0,
        "osc6M_phase": 0,
        "osc6C_phase": 0,
        "osc7M_phase": 0,
        "osc7C_phase": 0,
        "osc8M_phase": 0,
        "osc8C_phase": 0,
        "osc9M_phase": 0,
        "osc9C_phase": 0,
        "osc10M_phase": 0,
        "osc10C_phase": 0,
        "osc11M_phase": 0,
        "osc11C_phase": 0,
        "osc12M_phase": 0,
        "osc12C_phase": 0,
        "osc13M_phase": 0,
        "osc13C_phase": 0,
        "osc14M_phase": 0,
        "osc14C_phase": 0,
        "osc15M_phase": 0,
        "osc15C_phase": 0,
        "routing": 1,
        "planck0": 0,
        "planck1": 0,
        "modtype0": 1,
        "modtype1": 1,
        "cross": 1
      },
      "pos": [
        72,
        1
      ]
    },
    {
      "id": 522,
      "plugin": "Bogaudio",
      "version": "1.1.37",
      "model": "Bogaudio-AD",
      "params": [
        {
          "id": 0,
          "value": 0.0
        },
        {
          "id": 1,
          "value": 0.137730002
        },
        {
          "id": 2,
          "value": 0.0
        },
        {
          "id": 3,
          "value": 0.0
        },
        {
          "id": 4,
          "value": 1.0
        }
      ],
      "leftModuleId": 521,
      "rightModuleId": 523,
      "data": {
        "invert": 1.0
      },
      "pos": [
        79,
        1
      ]
    },
    {
      "id": 523,
      "plugin": "Instruo",
      "version": "1.1.0",
      "model": "ochd",
      "params": [
        {
          "id": 0,
          "value": 0.384499967
        },
        {
          "id": 1,
          "value": 0.0
        }
      ],
      "leftModuleId": 522,
      "rightModuleId": 362,
      "data": {
        "deviations": {
          "lfos": [
            {
              "amplitude": 5.5,
              "frequency": {
                "maximum": 154.699997,
                "minimum": 0.147,
                "absMinimum": 0.000294000027,
                "absMaximum": 160.887985
              }
            },
            {
              "amplitude": 5.5,
              "frequency": {
                "maximum": 84.7399979,
                "minimum": 0.0816000029,
                "absMinimum": 0.00016320002,
                "absMaximum": 88.1295929
              }
            },
            {
              "amplitude": 5.5,
              "frequency": {
                "maximum": 42.2599983,
                "minimum": 0.0417000018,
                "absMinimum": 8.34000093e-5,
                "absMaximum": 43.9503975
              }
            },
            {
              "amplitude": 5.5,
              "frequency": {
                "maximum": 22.0100002,
                "minimum": 0.0221999995,
                "absMinimum": 4.43999998e-5,
                "absMaximum": 22.8903999
              }
            },
            {
              "amplitude": 5.5,
              "frequency": {
                "maximum": 10.3699999,
                "minimum": 0.0102000004,
                "absMinimum": 2.04000025e-5,
                "absMaximum": 10.7847996
              }
            },
            {
              "amplitude": 5.5,
              "frequency": {
                "maximum": 4.69999981,
                "minimum": 0.00505999988,
                "absMinimum": 1.01200003e-5,
                "absMaximum": 4.88799953
              }
            },
            {
              "amplitude": 5.5,
              "frequency": {
                "maximum": 2.11999989,
                "minimum": 0.00212999992,
                "absMinimum": 4.25999997e-6,
                "absMaximum": 2.20479989
              }
            },
            {
              "amplitude": 5.5,
              "frequency": {
                "maximum": 1.00999999,
                "minimum": 0.00100000005,
                "absMinimum": 2.00000022e-6,
                "absMaximum": 1.0503999
              }
            }
          ]
        }
      },
      "pos": [
        82,
        1
      ]
    },
    {
      "id": 524,
      "plugin": "Fundamental",
      "version": "1.4.0",
      "model": "8vert",
      "params": [
        {
          "id": 0,
          "value": 0.104999989
        },
        {
          "id": 1,
          "value": 0.0749999955
        },
        {
          "id": 2,
          "value": 0.158999994
        },
        {
          "id": 3,
          "value": 0.110999987
        },
        {
          "id": 4,
          "value": 0.116999984
        },
        {
          "id": 5,
          "value": 0.0
        },
        {
          "id": 6,
          "value": 0.0
        },
        {
          "id": 7,
          "value": 0.0
        }
      ],
      "leftModuleId": 532,
      "rightModuleId": 526,
      "pos": [
        68,
        2
      ]
    },
    {
      "id": 525,
      "plugin": "AlrightDevices",
      "version": "1.0.3",
      "model": "Chronoblob2",
      "params": [
        {
          "id": 0,
          "value": 0.564500034
        },
        {
          "id": 1,
          "value": 0.41749993
        },
        {
          "id": 2,
          "value": 0.684499979
        },
        {
          "id": 3,
          "value": 0.0
        },
        {
          "id": 4,
          "value": 0.0
        },
        {
          "id": 5,
          "value": 0.0
        },
        {
          "id": 6,
          "value": 0.0
        },
        {
          "id": 7,
          "value": 0.0
        },
        {
          "id": 8,
          "value": 1.0
        },
        {
          "id": 9,
          "value": 0.0
        }
      ],
      "leftModuleId": 384,
      "rightModuleId": 527,
      "data": {
        "delay_mode": 2,
        "hold_behavior": 0,
        "sync_prescaler": 6
      },
      "pos": [
        62,
        0
      ]
    },
    {
      "id": 526,
      "plugin": "VultModulesFree",
      "version": "1.18",
      "model": "Wolv",
      "params": [
        {
          "id": 0,
          "value": 0.791500092
        },
        {
          "id": 1,
          "value": 0.32249999
        },
        {
          "id": 2,
          "value": 0.499999881
        },
        {
          "id": 3,
          "value": 0.0839999616
        },
        {
          "id": 4,
          "value": 0.179999977
        },
        {
          "id": 5,
          "value": 0.17399995
        }
      ],
      "leftModuleId": 524,
      "rightModuleId": 538,
      "pos": [
        76,
        2
      ]
    },
    {
      "id": 527,
      "plugin": "VultModulesFree",
      "version": "1.18",
      "model": "Nitrous",
      "params": [
        {
          "id": 0,
          "value": 0.678500175
        },
        {
          "id": 1,
          "value": 0.248999998
        },
        {
          "id": 2,
          "value": 0.667999983
        },
        {
          "id": 3,
          "value": 0.301500022
        },
        {
          "id": 4,
          "value": 0.273000032
        }
      ],
      "leftModuleId": 525,
      "rightModuleId": 539,
      "pos": [
        74,
        0
      ]
    },
    {
      "id": 528,
      "plugin": "AudibleInstruments",
      "version": "1.5.0",
      "model": "Branches",
      "params": [
        {
          "id": 0,
          "value": 0.657499969
        },
        {
          "id": 1,
          "value": 0.5
        },
        {
          "id": 2,
          "value": 0.0
        },
        {
          "id": 3,
          "value": 0.0
        }
      ],
      "leftModuleId": 519,
      "rightModuleId": 515,
      "data": {
        "modes": [
          true,
          false
        ]
      },
      "pos": [
        46,
        1
      ]
    },
    {
      "id": 529,
      "plugin": "AriaSalvatrice",
      "version": "1.8.1",
      "model": "Darius",
      "params": [
        {
          "id": 0,
          "value": 2.08093596
        },
        {
          "id": 1,
          "value": 0.991657376
        },
        {
          "id": 2,
          "value": 4.56298161
        },
        {
          "id": 3,
          "value": 0.637480617
        },
        {
          "id": 4,
          "value": 7.34012127
        },
        {
          "id": 5,
          "value": 5.03141308
        },
        {
          "id": 6,
          "value": 3.38897419
        },
        {
          "id": 7,
          "value": 9.50861168
        },
        {
          "id": 8,
          "value": 4.02988338
        },
        {
          "id": 9,
          "value": 4.37797308
        },
        {
          "id": 10,
          "value": 8.02914238
        },
        {
          "id": 11,
          "value": 0.795401931
        },
        {
          "id": 12,
          "value": 9.90842628
        },
        {
          "id": 13,
          "value": 0.299150348
        },
        {
          "id": 14,
          "value": 2.81624913
        },
        {
          "id": 15,
          "value": 7.50932121
        },
        {
          "id": 16,
          "value": 9.50412655
        },
        {
          "id": 17,
          "value": 9.20981216
        },
        {
          "id": 18,
          "value": 9.79650879
        },
        {
          "id": 19,
          "value": 3.5518086
        },
        {
          "id": 20,
          "value": 5.35479259
        },
        {
          "id": 21,
          "value": 0.566539764
        },
        {
          "id": 22,
          "value": 4.77378941
        },
        {
          "id": 23,
          "value": 8.05509186
        },
        {
          "id": 24,
          "value": 7.6522398
        },
        {
          "id": 25,
          "value": 4.39973736
        },
        {
          "id": 26,
          "value": 5.21960926
        },
        {
          "id": 27,
          "value": 2.66092491
        },
        {
          "id": 28,
          "value": 9.56286335
        },
        {
          "id": 29,
          "value": 4.2901206
        },
        {
          "id": 30,
          "value": 8.395257
        },
        {
          "id": 31,
          "value": 0.563898087
        },
        {
          "id": 32,
          "value": 2.07400846
        },
        {
          "id": 33,
          "value": 1.09504163
        },
        {
          "id": 34,
          "value": 6.62274885
        },
        {
          "id": 35,
          "value": 2.62828946
        },
        {
          "id": 36,
          "value": 0.208482325
        },
        {
          "id": 37,
          "value": 0.742796838
        },
        {
          "id": 38,
          "value": 0.147374332
        },
        {
          "id": 39,
          "value": 0.499894083
        },
        {
          "id": 40,
          "value": 0.693759859
        },
        {
          "id": 41,
          "value": 0.430619001
        },
        {
          "id": 42,
          "value": 0.216765165
        },
        {
          "id": 43,
          "value": 0.121615887
        },
        {
          "id": 44,
          "value": 0.0701240897
        },
        {
          "id": 45,
          "value": 0.189839959
        },
        {
          "id": 46,
          "value": 0.867275894
        },
        {
          "id": 47,
          "value": 0.325824678
        },
        {
          "id": 48,
          "value": 0.0642904043
        },
        {
          "id": 49,
          "value": 0.850708187
        },
        {
          "id": 50,
          "value": 0.0401844382
        },
        {
          "id": 51,
          "value": 0.070733428
        },
        {
          "id": 52,
          "value": 0.110414982
        },
        {
          "id": 53,
          "value": 0.681830347
        },
        {
          "id": 54,
          "value": 0.849837065
        },
        {
          "id": 55,
          "value": 0.0724882483
        },
        {
          "id": 56,
          "value": 0.366171658
        },
        {
          "id": 57,
          "value": 0.734169424
        },
        {
          "id": 58,
          "value": 0.538318753
        },
        {
          "id": 59,
          "value": 0.746643603
        },
        {
          "id": 60,
          "value": 0.219730616
        },
        {
          "id": 61,
          "value": 0.376569271
        },
        {
          "id": 62,
          "value": 0.0491207242
        },
        {
          "id": 63,
          "value": 0.995359778
        },
        {
          "id": 64,
          "value": 0.723807693
        },
        {
          "id": 65,
          "value": 0.945599318
        },
        {
          "id": 66,
          "value": 0.0313577652
        },
        {
          "id": 67,
          "value": 0.861525834
        },
        {
          "id": 68,
          "value": 0.658334434
        },
        {
          "id": 69,
          "value": 0.876445174
        },
        {
          "id": 70,
          "value": 0.947863221
        },
        {
          "id": 71,
          "value": 0.644812942
        },
        {
          "id": 72,
          "value": 0.0
        },
        {
          "id": 73,
          "value": 1.0
        },
        {
          "id": 74,
          "value": 0.0
        },
        {
          "id": 75,
          "value": 7.0
        },
        {
          "id": 76,
          "value": 0.0
        },
        {
          "id": 77,
          "value": 0.0
        },
        {
          "id": 78,
          "value": 1.0
        },
        {
          "id": 79,
          "value": 1.0
        },
        {
          "id": 80,
          "value": 2.0
        },
        {
          "id": 81,
          "value": 3.20904732
        },
        {
          "id": 82,
          "value": 4.77996778
        },
        {
          "id": 83,
          "value": 0.100811735
        },
        {
          "id": 84,
          "value": 1.0
        },
        {
          "id": 85,
          "value": 0.0
        },
        {
          "id": 86,
          "value": 1.0
        }
      ],
      "leftModuleId": 537,
      "rightModuleId": 540,
      "data": {
        "step": 5,
        "node": 16,
        "lastNode": 16,
        "lastGate": 16,
        "pathTraveled": [
          0,
          1,
          3,
          7,
          11,
          16,
          -1,
          -1
        ]
      },
      "pos": [
        4,
        2
      ]
    },
    {
      "id": 530,
      "plugin": "Geodesics",
      "version": "1.2.0",
      "model": "Energy",
      "params": [
        {
          "id": 0,
          "value": 0.0
        },
        {
          "id": 1,
          "value": 0.0
        },
        {
          "id": 2,
          "value": 0.0
        },
        {
          "id": 3,
          "value": 0.0
        },
        {
          "id": 4,
          "value": 0.0
        },
        {
          "id": 5,
          "value": -1.04400015
        },
        {
          "id": 6,
          "value": -0.954000175
        },
        {
          "id": 7,
          "value": 0.499500066
        },
        {
          "id": 8,
          "value": 0.478500009
        },
        {
          "id": 9,
          "value": 0.0
        }
      ],
      "leftModuleId": 540,
      "rightModuleId": 536,
      "data": {
        "panelTheme": 1,
        "oscM_phase": 2965039104,
        "oscC_phase": 2334317504,
        "osc1M_phase": 0,
        "osc1C_phase": 0,
        "osc2M_phase": 0,
        "osc2C_phase": 0,
        "osc3M_phase": 0,
        "osc3C_phase": 0,
        "osc4M_phase": 0,
        "osc4C_phase": 0,
        "osc5M_phase": 0,
        "osc5C_phase": 0,
        "osc6M_phase": 0,
        "osc6C_phase": 0,
        "osc7M_phase": 0,
        "osc7C_phase": 0,
        "osc8M_phase": 0,
        "osc8C_phase": 0,
        "osc9M_phase": 0,
        "osc9C_phase": 0,
        "osc10M_phase": 0,
        "osc10C_phase": 0,
        "osc11M_phase": 0,
        "osc11C_phase": 0,
        "osc12M_phase": 0,
        "osc12C_phase": 0,
        "osc13M_phase": 0,
        "osc13C_phase": 0,
        "osc14M_phase": 0,
        "osc14C_phase": 0,
        "osc15M_phase": 0,
        "osc15C_phase": 0,
        "routing": 1,
        "planck0": 2,
        "planck1": 2,
        "modtype0": 1,
        "modtype1": 1,
        "cross": 0
      },
      "pos": [
        37,
        2
      ]
    },
    {
      "id": 531,
      "plugin": "VultModulesFree",
      "version": "1.18",
      "model": "Boomstick",
      "params": [
        {
          "id": 0,
          "value": 0.492499828
        },
        {
          "id": 1,
          "value": 0.561000109
        },
        {
          "id": 2,
          "value": 1.0
        },
        {
          "id": 3,
          "value": 0.350999922
        },
        {
          "id": 4,
          "value": 0.249000072
        }
      ],
      "leftModuleId": 536,
      "rightModuleId": 533,
      "pos": [
        47,
        2
      ]
    },
    {
      "id": 532,
      "plugin": "VultModulesFree",
      "version": "1.18",
      "model": "Wolv",
      "params": [
        {
          "id": 0,
          "value": 0.482500106
        },
        {
          "id": 1,
          "value": 0.646499991
        },
        {
          "id": 2,
          "value": 0.0
        },
        {
          "id": 3,
          "value": 0.520500004
        },
        {
          "id": 4,
          "value": 0.179999977
        },
        {
          "id": 5,
          "value": 0.144000024
        }
      ],
      "leftModuleId": 533,
      "rightModuleId": 524,
      "pos": [
        58,
        2
      ]
    },
    {
      "id": 533,
      "plugin": "Bogaudio",
      "version": "1.1.37",
      "model": "Bogaudio-SampleHold",
      "params": [
        {
          "id": 0,
          "value": 0.0
        },
        {
          "id": 1,
          "value": 0.0
        },
        {
          "id": 2,
          "value": 0.0
        },
        {
          "id": 3,
          "value": 0.0
        },
        {
          "id": 4,
          "value": 0.0
        },
        {
          "id": 5,
          "value": 0.0
        }
      ],
      "leftModuleId": 531,
      "rightModuleId": 532,
      "data": {
        "poly_input": 0,
        "noise_type": 0,
        "range_offset": 1.0,
        "range_scale": 5.0
      },
      "pos": [
        55,
        2
      ]
    },
    {
      "id": 536,
      "plugin": "Bogaudio",
      "version": "1.1.37",
      "model": "Bogaudio-ADSR",
      "params": [
        {
          "id": 0,
          "value": 0.126421005
        },
        {
          "id": 1,
          "value": 0.296729952
        },
        {
          "id": 2,
          "value": 1.0
        },
        {
          "id": 3,
          "value": 0.332729906
        },
        {
          "id": 4,
          "value": 0.0
        }
      ],
      "leftModuleId": 530,
      "rightModuleId": 531,
      "data": {
        "invert": 1.0
      },
      "pos": [
        44,
        2
      ]
    },
    {
      "id": 537,
      "plugin": "LindenbergResearch",
      "version": "1.3.3",
      "model": "BlankPanel_Wood",
      "params": [],
      "rightModuleId": 529,
      "gestaltID": 1,
      "gradient": false,
      "patina": false,
      "patina_i_x": true,
      "patina_i_y": false,
      "patina_a_x": 732.980896,
      "patina_a_y": 232.628174,
      "overlay": false,
      "overlay_r": 0.229475439,
      "overlay_g": 0.76787287,
      "overlay_b": 0.145697951,
      "overlay_a": 0.179691672,
      "AGED": false,
      "screws": true,
      "logo": false,
      "pos": [
        0,
        2
      ]
    },
    {
      "id": 538,
      "plugin": "LindenbergResearch",
      "version": "1.3.3",
      "model": "BlankPanel_Wood",
      "params": [],
      "leftModuleId": 526,
      "gestaltID": 1,
      "gradient": false,
      "patina": false,
      "patina_i_x": false,
      "patina_i_y": false,
      "patina_a_x": 1048.69849,
      "patina_a_y": 465.392822,
      "overlay": false,
      "overlay_r": 0.273609757,
      "overlay_g": 0.76917398,
      "overlay_b": 0.812913537,
      "overlay_a": 0.361586183,
      "AGED": false,
      "screws": true,
      "logo": false,
      "pos": [
        86,
        2
      ]
    },
    {
      "id": 539,
      "plugin": "VultModulesFree",
      "version": "1.18",
      "model": "BlackPanel",
      "params": [],
      "leftModuleId": 527,
      "rightModuleId": 360,
      "pos": [
        80,
        0
      ]
    },
    {
      "id": 540,
      "plugin": "ModularFungi",
      "version": "1.1.4",
      "model": "Blank1HP",
      "params": [],
      "leftModuleId": 529,
      "rightModuleId": 530,
      "style": 0.0,
      "pos": [
        36,
        2
      ]
    }
  ],
  "cables": [
    {
      "id": 702,
      "outputModuleId": 375,
      "outputId": 0,
      "inputModuleId": 1,
      "inputId": 0,
      "color": "#c91847"
    },
    {
      "id": 703,
      "outputModuleId": 375,
      "outputId": 1,
      "inputModuleId": 1,
      "inputId": 1,
      "color": "#c91847"
    },
    {
      "id": 707,
      "outputModuleId": 375,
      "outputId": 10,
      "inputModuleId": 384,
      "inputId": 0,
      "color": "#c91847"
    },
    {
      "id": 708,
      "outputModuleId": 375,
      "outputId": 11,
      "inputModuleId": 384,
      "inputId": 1,
      "color": "#c91847"
    },
    {
      "id": 709,
      "outputModuleId": 384,
      "outputId": 0,
      "inputModuleId": 375,
      "inputId": 34,
      "color": "#c91847"
    },
    {
      "id": 710,
      "outputModuleId": 384,
      "outputId": 1,
      "inputModuleId": 375,
      "inputId": 35,
      "color": "#c91847"
    },
    {
      "id": 711,
      "outputModuleId": 383,
      "outputId": 1,
      "inputModuleId": 516,
      "inputId": 0,
      "color": "#364449"
    },
    {
      "id": 712,
      "outputModuleId": 383,
      "outputId": 4,
      "inputModuleId": 516,
      "inputId": 1,
      "color": "#364449"
    },
    {
      "id": 714,
      "outputModuleId": 383,
      "outputId": 4,
      "inputModuleId": 515,
      "inputId": 1,
      "color": "#364449"
    },
    {
      "id": 715,
      "outputModuleId": 516,
      "outputId": 0,
      "inputModuleId": 517,
      "inputId": 0,
      "color": "#364449"
    },
    {
      "id": 716,
      "outputModuleId": 516,
      "outputId": 1,
      "inputModuleId": 517,
      "inputId": 1,
      "color": "#364449"
    },
    {
      "id": 717,
      "outputModuleId": 517,
      "outputId": 0,
      "inputModuleId": 515,
      "inputId": 2,
      "color": "#364449"
    },
    {
      "id": 718,
      "outputModuleId": 517,
      "outputId": 2,
      "inputModuleId": 515,
      "inputId": 3,
      "color": "#364449"
    },
    {
      "id": 719,
      "outputModuleId": 517,
      "outputId": 1,
      "inputModuleId": 515,
      "inputId": 4,
      "color": "#364449"
    },
    {
      "id": 720,
      "outputModuleId": 517,
      "outputId": 3,
      "inputModuleId": 515,
      "inputId": 5,
      "color": "#364449"
    },
    {
      "id": 721,
      "outputModuleId": 516,
      "outputId": 2,
      "inputModuleId": 519,
      "inputId": 0,
      "color": "#364449"
    },
    {
      "id": 723,
      "outputModuleId": 519,
      "outputId": 0,
      "inputModuleId": 515,
      "inputId": 6,
      "color": "#364449"
    },
    {
      "id": 724,
      "outputModuleId": 519,
      "outputId": 2,
      "inputModuleId": 515,
      "inputId": 7,
      "color": "#364449"
    },
    {
      "id": 725,
      "outputModuleId": 519,
      "outputId": 1,
      "inputModuleId": 515,
      "inputId": 8,
      "color": "#364449"
    },
    {
      "id": 726,
      "outputModuleId": 519,
      "outputId": 3,
      "inputModuleId": 515,
      "inputId": 9,
      "color": "#364449"
    },
    {
      "id": 722,
      "outputModuleId": 516,
      "outputId": 4,
      "inputModuleId": 519,
      "inputId": 1,
      "color": "#364449"
    },
    {
      "id": 728,
      "outputModuleId": 516,
      "outputId": 3,
      "inputModuleId": 515,
      "inputId": 0,
      "color": "#364449"
    },
    {
      "id": 729,
      "outputModuleId": 515,
      "outputId": 0,
      "inputModuleId": 520,
      "inputId": 2,
      "color": "#c9b70e"
    },
    {
      "id": 731,
      "outputModuleId": 520,
      "outputId": 0,
      "inputModuleId": 521,
      "inputId": 2,
      "color": "#c9b70e"
    },
    {
      "id": 732,
      "outputModuleId": 516,
      "outputId": 0,
      "inputModuleId": 522,
      "inputId": 0,
      "color": "#364449"
    },
    {
      "id": 733,
      "outputModuleId": 522,
      "outputId": 0,
      "inputModuleId": 521,
      "inputId": 3,
      "color": "#0c8e15"
    },
    {
      "id": 735,
      "outputModuleId": 523,
      "outputId": 4,
      "inputModuleId": 524,
      "inputId": 0,
      "color": "#0c8e15"
    },
    {
      "id": 736,
      "outputModuleId": 524,
      "outputId": 0,
      "inputModuleId": 516,
      "inputId": 5,
      "color": "#0c8e15"
    },
    {
      "id": 737,
      "outputModuleId": 524,
      "outputId": 1,
      "inputModuleId": 516,
      "inputId": 6,
      "color": "#0c8e15"
    },
    {
      "id": 738,
      "outputModuleId": 524,
      "outputId": 2,
      "inputModuleId": 516,
      "inputId": 7,
      "color": "#0c8e15"
    },
    {
      "id": 739,
      "outputModuleId": 523,
      "outputId": 3,
      "inputModuleId": 524,
      "inputId": 1,
      "color": "#0c8e15"
    },
    {
      "id": 740,
      "outputModuleId": 523,
      "outputId": 5,
      "inputModuleId": 524,
      "inputId": 2,
      "color": "#0c8e15"
    },
    {
      "id": 742,
      "outputModuleId": 525,
      "outputId": 1,
      "inputModuleId": 526,
      "inputId": 0,
      "color": "#c91847"
    },
    {
      "id": 747,
      "outputModuleId": 523,
      "outputId": 5,
      "inputModuleId": 526,
      "inputId": 1,
      "color": "#0c8e15"
    },
    {
      "id": 743,
      "outputModuleId": 526,
      "outputId": 1,
      "inputModuleId": 525,
      "inputId": 6,
      "color": "#c91847"
    },
    {
      "id": 748,
      "outputModuleId": 383,
      "outputId": 0,
      "inputModuleId": 525,
      "inputId": 7,
      "color": "#364449"
    },
    {
      "id": 749,
      "outputModuleId": 521,
      "outputId": 0,
      "inputModuleId": 525,
      "inputId": 5,
      "color": "#c91847"
    },
    {
      "id": 750,
      "outputModuleId": 525,
      "outputId": 0,
      "inputModuleId": 527,
      "inputId": 0,
      "color": "#c91847"
    },
    {
      "id": 751,
      "outputModuleId": 527,
      "outputId": 0,
      "inputModuleId": 375,
      "inputId": 0,
      "color": "#c91847"
    },
    {
      "id": 752,
      "outputModuleId": 523,
      "outputId": 4,
      "inputModuleId": 527,
      "inputId": 1,
      "color": "#0c8e15"
    },
    {
      "id": 753,
      "outputModuleId": 523,
      "outputId": 7,
      "inputModuleId": 527,
      "inputId": 2,
      "color": "#0c8e15"
    },
    {
      "id": 757,
      "outputModuleId": 516,
      "outputId": 3,
      "inputModuleId": 528,
      "inputId": 0,
      "color": "#364449"
    },
    {
      "id": 759,
      "outputModuleId": 529,
      "outputId": 36,
      "inputModuleId": 530,
      "inputId": 2,
      "color": "#c9b70e"
    },
    {
      "id": 761,
      "outputModuleId": 519,
      "outputId": 2,
      "inputModuleId": 529,
      "inputId": 2,
      "color": "#364449"
    },
    {
      "id": 762,
      "outputModuleId": 383,
      "outputId": 4,
      "inputModuleId": 529,
      "inputId": 1,
      "color": "#364449"
    },
    {
      "id": 763,
      "outputModuleId": 528,
      "outputId": 2,
      "inputModuleId": 529,
      "inputId": 4,
      "color": "#364449"
    },
    {
      "id": 764,
      "outputModuleId": 516,
      "outputId": 5,
      "inputModuleId": 529,
      "inputId": 5,
      "color": "#364449"
    },
    {
      "id": 768,
      "outputModuleId": 530,
      "outputId": 0,
      "inputModuleId": 532,
      "inputId": 0,
      "color": "#c91847"
    },
    {
      "id": 769,
      "outputModuleId": 532,
      "outputId": 1,
      "inputModuleId": 531,
      "inputId": 2,
      "color": "#c91847"
    },
    {
      "id": 770,
      "outputModuleId": 531,
      "outputId": 0,
      "inputModuleId": 375,
      "inputId": 1,
      "color": "#c91847"
    },
    {
      "id": 771,
      "outputModuleId": 523,
      "outputId": 3,
      "inputModuleId": 531,
      "inputId": 0,
      "color": "#0c8e15"
    },
    {
      "id": 772,
      "outputModuleId": 524,
      "outputId": 3,
      "inputModuleId": 530,
      "inputId": 5,
      "color": "#0c8e15"
    },
    {
      "id": 773,
      "outputModuleId": 523,
      "outputId": 4,
      "inputModuleId": 524,
      "inputId": 3,
      "color": "#0c8e15"
    },
    {
      "id": 774,
      "outputModuleId": 523,
      "outputId": 3,
      "inputModuleId": 533,
      "inputId": 1,
      "color": "#0c8e15"
    },
    {
      "id": 775,
      "outputModuleId": 516,
      "outputId": 0,
      "inputModuleId": 533,
      "inputId": 0,
      "color": "#364449"
    },
    {
      "id": 776,
      "outputModuleId": 533,
      "outputId": 0,
      "inputModuleId": 530,
      "inputId": 4,
      "color": "#0c8e15"
    },
    {
      "id": 777,
      "outputModuleId": 533,
      "outputId": 1,
      "inputModuleId": 521,
      "inputId": 5,
      "color": "#0c8e15"
    },
    {
      "id": 779,
      "outputModuleId": 517,
      "outputId": 3,
      "inputModuleId": 533,
      "inputId": 2,
      "color": "#364449"
    },
    {
      "id": 780,
      "outputModuleId": 523,
      "outputId": 2,
      "inputModuleId": 533,
      "inputId": 3,
      "color": "#0c8e15"
    },
    {
      "id": 781,
      "outputModuleId": 523,
      "outputId": 1,
      "inputModuleId": 521,
      "inputId": 4,
      "color": "#0c8e15"
    },
    {
      "id": 785,
      "outputModuleId": 529,
      "outputId": 37,
      "inputModuleId": 536,
      "inputId": 0,
      "color": "#364449"
    },
    {
      "id": 786,
      "outputModuleId": 536,
      "outputId": 0,
      "inputModuleId": 530,
      "inputId": 3,
      "color": "#0c8e15"
    },
    {
      "id": 787,
      "outputModuleId": 533,
      "outputId": 1,
      "inputModuleId": 531,
      "inputId": 1,
      "color": "#0c8e15"
    },
    {
      "id": 788,
      "outputModuleId": 523,
      "outputId": 4,
      "inputModuleId": 524,
      "inputId": 4,
      "color": "#0c8e15"
    },
    {
      "id": 789,
      "outputModuleId": 524,
      "outputId": 4,
      "inputModuleId": 375,
      "inputId": 16,
      "color": "#0c8e15"
    },
    {
      "id": 746,
      "outputModuleId": 523,
      "outputId": 5,
      "inputModuleId": 526,
      "inputId": 2,
      "color": "#0c8e15"
    },
    {
      "id": 756,
      "outputModuleId": 528,
      "outputId": 0,
      "inputModuleId": 525,
      "inputId": 2,
      "color": "#364449"
    }
  ]
}