{
  "version": "1.1.6",
  "modules": [
    {
      "id": 1,
      "plugin": "Core",
      "version": "1.1.6",
      "model": "AudioInterface",
      "params": [],
      "leftModuleId": 375,
      "rightModuleId": 427,
      "data": {
        "audio": {
          "driver": 7,
          "deviceName": "ReaRoute ASIO (x64)",
          "offset": 0,
          "maxChannels": 8,
          "sampleRate": 48000,
          "blockSize": 256
        }
      },
      "pos": [
        40,
        0
      ]
    },
    {
      "id": 76,
      "plugin": "Stoermelder-P1",
      "version": "1.10.0",
      "model": "Mb",
      "params": [],
      "leftModuleId": 380,
      "rightModuleId": 79,
      "data": {
        "mode": 1
      },
      "pos": [
        6,
        0
      ]
    },
    {
      "id": 79,
      "plugin": "Stoermelder-P1",
      "version": "1.10.0",
      "model": "Stroke",
      "params": [],
      "leftModuleId": 76,
      "rightModuleId": 375,
      "data": {
        "panelTheme": 1,
        "keys": [
          {
            "button": -1,
            "key": 49,
            "mods": 0,
            "mode": 24,
            "high": false,
            "data": "#c9b70e"
          },
          {
            "button": -1,
            "key": 50,
            "mods": 0,
            "mode": 24,
            "high": false,
            "data": "#0c8e15"
          },
          {
            "button": -1,
            "key": 51,
            "mods": 0,
            "mode": 24,
            "high": false,
            "data": "#c91847"
          },
          {
            "button": -1,
            "key": 52,
            "mods": 0,
            "mode": 24,
            "high": false,
            "data": "#364449"
          },
          {
            "button": -1,
            "key": -1,
            "mods": 0,
            "mode": 1,
            "high": false,
            "data": ""
          },
          {
            "button": -1,
            "key": -1,
            "mods": 0,
            "mode": 1,
            "high": false,
            "data": ""
          },
          {
            "button": -1,
            "key": -1,
            "mods": 0,
            "mode": 1,
            "high": false,
            "data": ""
          },
          {
            "button": -1,
            "key": -1,
            "mods": 0,
            "mode": 1,
            "high": false,
            "data": ""
          },
          {
            "button": -1,
            "key": -1,
            "mods": 0,
            "mode": 1,
            "high": false,
            "data": ""
          },
          {
            "button": -1,
            "key": -1,
            "mods": 0,
            "mode": 1,
            "high": false,
            "data": ""
          }
        ]
      },
      "pos": [
        8,
        0
      ]
    },
    {
      "id": 360,
      "plugin": "LindenbergResearch",
      "version": "1.3.3",
      "model": "BlankPanel_Wood",
      "params": [],
      "leftModuleId": 455,
      "gestaltID": 1,
      "gradient": false,
      "patina": false,
      "patina_i_x": false,
      "patina_i_y": false,
      "patina_a_x": 1048.69849,
      "patina_a_y": 465.392822,
      "overlay": false,
      "overlay_r": 0.12081027,
      "overlay_g": 0.49789995,
      "overlay_b": 0.501267433,
      "overlay_a": 0.357503951,
      "AGED": false,
      "screws": true,
      "logo": false,
      "pos": [
        107,
        0
      ]
    },
    {
      "id": 362,
      "plugin": "LindenbergResearch",
      "version": "1.3.3",
      "model": "BlankPanel_Wood",
      "params": [],
      "leftModuleId": 464,
      "gestaltID": 1,
      "gradient": false,
      "patina": false,
      "patina_i_x": false,
      "patina_i_y": false,
      "patina_a_x": 1048.69849,
      "patina_a_y": 465.392822,
      "overlay": false,
      "overlay_r": 0.010356009,
      "overlay_g": 0.619705856,
      "overlay_b": 0.232211709,
      "overlay_a": 0.355597824,
      "AGED": false,
      "screws": true,
      "logo": false,
      "pos": [
        107,
        1
      ]
    },
    {
      "id": 364,
      "plugin": "LindenbergResearch",
      "version": "1.3.3",
      "model": "BlankPanel_Wood",
      "params": [],
      "rightModuleId": 380,
      "gestaltID": 1,
      "gradient": false,
      "patina": false,
      "patina_i_x": true,
      "patina_i_y": false,
      "patina_a_x": 732.980896,
      "patina_a_y": 232.628174,
      "overlay": false,
      "overlay_r": 0.362694085,
      "overlay_g": 0.139449477,
      "overlay_b": 0.098880887,
      "overlay_a": 0.423527569,
      "AGED": false,
      "screws": true,
      "logo": false,
      "pos": [
        0,
        0
      ]
    },
    {
      "id": 365,
      "plugin": "LindenbergResearch",
      "version": "1.3.3",
      "model": "BlankPanel_Wood",
      "params": [],
      "rightModuleId": 379,
      "gestaltID": 1,
      "gradient": false,
      "patina": false,
      "patina_i_x": true,
      "patina_i_y": false,
      "patina_a_x": 732.980896,
      "patina_a_y": 232.628174,
      "overlay": false,
      "overlay_r": 0.882311404,
      "overlay_g": 0.0474251509,
      "overlay_b": 0.0553049445,
      "overlay_a": 0.342533529,
      "AGED": false,
      "screws": true,
      "logo": false,
      "pos": [
        0,
        1
      ]
    },
    {
      "id": 375,
      "plugin": "squinkylabs-plug1",
      "version": "1.0.20",
      "model": "squinkylabs-mix8",
      "params": [
        {
          "id": 0,
          "value": 1.0
        },
        {
          "id": 1,
          "value": 0.0
        },
        {
          "id": 2,
          "value": 0.654499948
        },
        {
          "id": 3,
          "value": 0.408500016
        },
        {
          "id": 4,
          "value": 0.68599987
        },
        {
          "id": 5,
          "value": 0.156500041
        },
        {
          "id": 6,
          "value": 1.0
        },
        {
          "id": 7,
          "value": 1.0
        },
        {
          "id": 8,
          "value": 0.800000012
        },
        {
          "id": 9,
          "value": 0.800000012
        },
        {
          "id": 10,
          "value": 0.0
        },
        {
          "id": 11,
          "value": 0.0
        },
        {
          "id": 12,
          "value": 0.0
        },
        {
          "id": 13,
          "value": 0.0
        },
        {
          "id": 14,
          "value": 0.0
        },
        {
          "id": 15,
          "value": 0.0
        },
        {
          "id": 16,
          "value": 0.0
        },
        {
          "id": 17,
          "value": 0.0
        },
        {
          "id": 18,
          "value": 0.0
        },
        {
          "id": 19,
          "value": 0.0
        },
        {
          "id": 20,
          "value": 0.0
        },
        {
          "id": 21,
          "value": 0.0
        },
        {
          "id": 22,
          "value": 0.0
        },
        {
          "id": 23,
          "value": 0.0
        },
        {
          "id": 24,
          "value": 0.0
        },
        {
          "id": 25,
          "value": 0.0
        },
        {
          "id": 26,
          "value": 0.0
        },
        {
          "id": 27,
          "value": 0.0
        },
        {
          "id": 28,
          "value": 0.0
        },
        {
          "id": 29,
          "value": 0.0
        },
        {
          "id": 30,
          "value": 0.0
        },
        {
          "id": 31,
          "value": 0.0
        },
        {
          "id": 32,
          "value": 0.0
        },
        {
          "id": 33,
          "value": 0.0
        },
        {
          "id": 34,
          "value": 0.409500003
        },
        {
          "id": 35,
          "value": 0.0
        },
        {
          "id": 36,
          "value": 0.0
        },
        {
          "id": 37,
          "value": 0.0
        },
        {
          "id": 38,
          "value": 0.0
        },
        {
          "id": 39,
          "value": 0.0
        },
        {
          "id": 40,
          "value": 0.0
        },
        {
          "id": 41,
          "value": 0.0
        },
        {
          "id": 42,
          "value": 1.0
        }
      ],
      "leftModuleId": 79,
      "rightModuleId": 1,
      "pos": [
        14,
        0
      ]
    },
    {
      "id": 379,
      "plugin": "ImpromptuModular",
      "version": "1.1.11",
      "model": "Clocked-Clkd",
      "params": [
        {
          "id": 0,
          "value": 2.0
        },
        {
          "id": 1,
          "value": -17.0
        },
        {
          "id": 2,
          "value": -3.0
        },
        {
          "id": 3,
          "value": 150.0
        },
        {
          "id": 4,
          "value": 0.0
        },
        {
          "id": 5,
          "value": 0.0
        },
        {
          "id": 6,
          "value": 0.0
        },
        {
          "id": 7,
          "value": 0.0
        },
        {
          "id": 8,
          "value": 0.0
        },
        {
          "id": 9,
          "value": 0.0
        }
      ],
      "leftModuleId": 365,
      "rightModuleId": 401,
      "data": {
        "panelTheme": 0,
        "running": true,
        "bpmDetectionMode": false,
        "resetOnStartStop": 0,
        "ppqn": 4,
        "resetClockOutputsHigh": true,
        "momentaryRunInput": true,
        "displayIndex": 3,
        "trigOuts": [
          false,
          false,
          false,
          false
        ],
        "clockMaster": -1
      },
      "pos": [
        4,
        1
      ]
    },
    {
      "id": 380,
      "plugin": "Stoermelder-P1",
      "version": "1.10.0",
      "model": "Me",
      "params": [],
      "leftModuleId": 364,
      "rightModuleId": 76,
      "pos": [
        4,
        0
      ]
    },
    {
      "id": 399,
      "plugin": "Grayscale",
      "version": "1.0.2",
      "model": "Algorhythm",
      "params": [
        {
          "id": 0,
          "value": 0.0
        },
        {
          "id": 1,
          "value": 0.0
        },
        {
          "id": 2,
          "value": 0.0
        },
        {
          "id": 3,
          "value": 0.0
        },
        {
          "id": 4,
          "value": 0.0
        },
        {
          "id": 5,
          "value": 0.0
        },
        {
          "id": 6,
          "value": 0.0
        },
        {
          "id": 7,
          "value": 0.0
        },
        {
          "id": 8,
          "value": 0.0
        },
        {
          "id": 9,
          "value": 0.0
        },
        {
          "id": 10,
          "value": 0.0
        },
        {
          "id": 11,
          "value": 0.0
        }
      ],
      "leftModuleId": 401,
      "rightModuleId": 452,
      "data": {
        "pattern": [
          1,
          0,
          1,
          1,
          0,
          1,
          1,
          0
        ],
        "gates": [
          1,
          1,
          1,
          1,
          1,
          1,
          1,
          1
        ],
        "looping": true,
        "seq": true,
        "gate": true,
        "clockPassthrough": true,
        "patternLength": 8,
        "numLoops": 1,
        "immediateReset": 0,
        "startupState": 2,
        "started": true,
        "running": true,
        "stepOutsAlwaysActive": true
      },
      "pos": [
        30,
        1
      ]
    },
    {
      "id": 401,
      "plugin": "Valley",
      "version": "1.1.7",
      "model": "Topograph",
      "params": [
        {
          "id": 0,
          "value": 0.0
        },
        {
          "id": 1,
          "value": 0.0
        },
        {
          "id": 2,
          "value": 0.0
        },
        {
          "id": 3,
          "value": 0.199499995
        },
        {
          "id": 4,
          "value": 0.331500024
        },
        {
          "id": 5,
          "value": 0.526499987
        },
        {
          "id": 6,
          "value": 0.357499927
        },
        {
          "id": 7,
          "value": 0.429499984
        },
        {
          "id": 8,
          "value": 0.636499822
        },
        {
          "id": 9,
          "value": 0.0
        }
      ],
      "leftModuleId": 379,
      "rightModuleId": 399,
      "data": {
        "sequencerMode": 2,
        "triggerOutputMode": 0,
        "accOutputMode": 0,
        "extClockResolution": 0,
        "chaosKnobMode": 0,
        "runMode": 0,
        "panelStyle": 1,
        "running": 1
      },
      "pos": [
        14,
        1
      ]
    },
    {
      "id": 405,
      "plugin": "Grayscale",
      "version": "1.0.2",
      "model": "Binary2",
      "params": [
        {
          "id": 0,
          "value": 0.0
        },
        {
          "id": 1,
          "value": 0.0
        },
        {
          "id": 2,
          "value": 0.0
        },
        {
          "id": 3,
          "value": 0.0
        },
        {
          "id": 4,
          "value": 0.0
        },
        {
          "id": 5,
          "value": 0.0
        }
      ],
      "leftModuleId": 451,
      "rightModuleId": 429,
      "data": {
        "states": [
          1,
          1,
          1,
          1,
          1,
          1
        ]
      },
      "pos": [
        67,
        1
      ]
    },
    {
      "id": 406,
      "plugin": "Grayscale",
      "version": "1.0.2",
      "model": "Binary",
      "params": [
        {
          "id": 0,
          "value": 0.0
        },
        {
          "id": 1,
          "value": 0.0
        },
        {
          "id": 2,
          "value": 0.0
        },
        {
          "id": 3,
          "value": 0.0
        },
        {
          "id": 4,
          "value": 0.0
        },
        {
          "id": 5,
          "value": 0.0
        },
        {
          "id": 6,
          "value": 0.0
        }
      ],
      "leftModuleId": 438,
      "rightModuleId": 413,
      "data": {
        "states": [
          1,
          1,
          1,
          1,
          1,
          1,
          1
        ]
      },
      "pos": [
        4,
        2
      ]
    },
    {
      "id": 407,
      "plugin": "AudibleInstruments",
      "version": "1.5.0",
      "model": "Branches",
      "params": [
        {
          "id": 0,
          "value": 0.247999921
        },
        {
          "id": 1,
          "value": 0.5
        },
        {
          "id": 2,
          "value": 0.0
        },
        {
          "id": 3,
          "value": 0.0
        }
      ],
      "leftModuleId": 413,
      "rightModuleId": 408,
      "data": {
        "modes": [
          false,
          false
        ]
      },
      "pos": [
        21,
        2
      ]
    },
    {
      "id": 408,
      "plugin": "Grayscale",
      "version": "1.0.2",
      "model": "Algorhythm",
      "params": [
        {
          "id": 0,
          "value": 0.0
        },
        {
          "id": 1,
          "value": 0.0
        },
        {
          "id": 2,
          "value": 0.0
        },
        {
          "id": 3,
          "value": 0.0
        },
        {
          "id": 4,
          "value": 0.0
        },
        {
          "id": 5,
          "value": 0.0
        },
        {
          "id": 6,
          "value": 0.0
        },
        {
          "id": 7,
          "value": 0.0
        },
        {
          "id": 8,
          "value": 0.0
        },
        {
          "id": 9,
          "value": 0.0
        },
        {
          "id": 10,
          "value": 0.0
        },
        {
          "id": 11,
          "value": 0.0
        }
      ],
      "leftModuleId": 407,
      "rightModuleId": 415,
      "data": {
        "pattern": [
          1,
          0,
          1,
          0,
          1,
          1,
          1,
          0
        ],
        "gates": [
          1,
          1,
          1,
          1,
          1,
          1,
          1,
          1
        ],
        "looping": true,
        "seq": true,
        "gate": true,
        "clockPassthrough": true,
        "patternLength": 7,
        "numLoops": 1,
        "immediateReset": 0,
        "startupState": 1,
        "started": false,
        "running": false,
        "stepOutsAlwaysActive": false
      },
      "pos": [
        27,
        2
      ]
    },
    {
      "id": 412,
      "plugin": "AlrightDevices",
      "version": "1.0.3",
      "model": "Chronoblob2",
      "params": [
        {
          "id": 0,
          "value": 0.572000146
        },
        {
          "id": 1,
          "value": 0.5
        },
        {
          "id": 2,
          "value": 0.5
        },
        {
          "id": 3,
          "value": 0.0
        },
        {
          "id": 4,
          "value": 0.0
        },
        {
          "id": 5,
          "value": 0.0
        },
        {
          "id": 6,
          "value": 0.0
        },
        {
          "id": 7,
          "value": 0.0
        },
        {
          "id": 8,
          "value": 1.0
        },
        {
          "id": 9,
          "value": 0.0
        }
      ],
      "leftModuleId": 428,
      "rightModuleId": 446,
      "data": {
        "delay_mode": 0,
        "hold_behavior": 0,
        "sync_prescaler": 6
      },
      "pos": [
        68,
        0
      ]
    },
    {
      "id": 413,
      "plugin": "Geodesics",
      "version": "1.2.0",
      "model": "Branes",
      "params": [
        {
          "id": 0,
          "value": 0.0
        },
        {
          "id": 1,
          "value": 0.0
        },
        {
          "id": 2,
          "value": 0.0
        },
        {
          "id": 3,
          "value": 0.0
        }
      ],
      "leftModuleId": 406,
      "rightModuleId": 407,
      "data": {
        "panelTheme": 0,
        "vibrations0": 0,
        "vibrations1": 0,
        "noiseRange0": 0.0,
        "noiseRange1": 0.0
      },
      "pos": [
        10,
        2
      ]
    },
    {
      "id": 415,
      "plugin": "JW-Modules",
      "version": "1.0.29",
      "model": "Quantizer",
      "params": [
        {
          "id": 0,
          "value": 3.0
        },
        {
          "id": 1,
          "value": 4.0
        },
        {
          "id": 2,
          "value": 0.0
        }
      ],
      "leftModuleId": 408,
      "rightModuleId": 416,
      "data": {},
      "pos": [
        39,
        2
      ]
    },
    {
      "id": 416,
      "plugin": "ML_modules",
      "version": "1.1.3",
      "model": "ShiftRegister",
      "params": [
        {
          "id": 0,
          "value": 0.0
        },
        {
          "id": 1,
          "value": 0.0
        },
        {
          "id": 2,
          "value": 0.0
        },
        {
          "id": 3,
          "value": 0.0
        },
        {
          "id": 4,
          "value": 0.0
        },
        {
          "id": 5,
          "value": 0.0
        },
        {
          "id": 6,
          "value": 0.0
        },
        {
          "id": 7,
          "value": 0.0
        },
        {
          "id": 8,
          "value": 0.0
        }
      ],
      "leftModuleId": 415,
      "rightModuleId": 418,
      "pos": [
        43,
        2
      ]
    },
    {
      "id": 417,
      "plugin": "Geodesics",
      "version": "1.2.0",
      "model": "Energy",
      "params": [
        {
          "id": 0,
          "value": 0.0
        },
        {
          "id": 1,
          "value": 0.0
        },
        {
          "id": 2,
          "value": 0.0
        },
        {
          "id": 3,
          "value": 0.0
        },
        {
          "id": 4,
          "value": 0.0
        },
        {
          "id": 5,
          "value": 0.0
        },
        {
          "id": 6,
          "value": 0.918000102
        },
        {
          "id": 7,
          "value": 0.0
        },
        {
          "id": 8,
          "value": 0.0
        },
        {
          "id": 9,
          "value": 0.0
        }
      ],
      "rightModuleId": 420,
      "data": {
        "panelTheme": 0,
        "oscM_phase": 1338611552,
        "oscC_phase": 1245559104,
        "osc1M_phase": 2483488384,
        "osc1C_phase": 2372504288,
        "osc2M_phase": 1273747800,
        "osc2C_phase": 2550597936,
        "osc3M_phase": 3202016032,
        "osc3C_phase": 306735904,
        "osc4M_phase": 0,
        "osc4C_phase": 0,
        "osc5M_phase": 0,
        "osc5C_phase": 0,
        "osc6M_phase": 0,
        "osc6C_phase": 0,
        "osc7M_phase": 0,
        "osc7C_phase": 0,
        "osc8M_phase": 0,
        "osc8C_phase": 0,
        "osc9M_phase": 0,
        "osc9C_phase": 0,
        "osc10M_phase": 0,
        "osc10C_phase": 0,
        "osc11M_phase": 0,
        "osc11C_phase": 0,
        "osc12M_phase": 0,
        "osc12C_phase": 0,
        "osc13M_phase": 0,
        "osc13C_phase": 0,
        "osc14M_phase": 0,
        "osc14C_phase": 0,
        "osc15M_phase": 0,
        "osc15C_phase": 0,
        "routing": 1,
        "planck0": 2,
        "planck1": 2,
        "modtype0": 1,
        "modtype1": 1,
        "cross": 1
      },
      "pos": [
        60,
        2
      ]
    },
    {
      "id": 418,
      "plugin": "GrandeModular",
      "version": "1.9.0",
      "model": "MergeSplit4",
      "params": [],
      "leftModuleId": 416,
      "rightModuleId": 463,
      "data": {
        "channels_merge": -1
      },
      "pos": [
        47,
        2
      ]
    },
    {
      "id": 419,
      "plugin": "NYSTHI",
      "version": "1.0.17",
      "model": "mix4",
      "params": [
        {
          "id": 0,
          "value": 0.0
        },
        {
          "id": 1,
          "value": 0.0
        },
        {
          "id": 2,
          "value": 0.0
        },
        {
          "id": 3,
          "value": 0.0
        },
        {
          "id": 4,
          "value": 0.0
        },
        {
          "id": 5,
          "value": 0.0
        },
        {
          "id": 6,
          "value": 0.0
        },
        {
          "id": 7,
          "value": 0.0
        },
        {
          "id": 8,
          "value": 0.0
        },
        {
          "id": 9,
          "value": 0.0
        },
        {
          "id": 10,
          "value": 0.0
        },
        {
          "id": 11,
          "value": 0.0
        },
        {
          "id": 12,
          "value": 0.0
        },
        {
          "id": 13,
          "value": 0.0
        },
        {
          "id": 14,
          "value": 0.0
        },
        {
          "id": 15,
          "value": 0.0188999996
        },
        {
          "id": 16,
          "value": 0.0379500017
        },
        {
          "id": 17,
          "value": 0.061499998
        },
        {
          "id": 18,
          "value": 0.0755999908
        },
        {
          "id": 19,
          "value": 0.0
        },
        {
          "id": 20,
          "value": 0.0
        },
        {
          "id": 21,
          "value": 0.0
        },
        {
          "id": 22,
          "value": 0.0
        },
        {
          "id": 23,
          "value": 0.0
        }
      ],
      "leftModuleId": 426,
      "rightModuleId": 422,
      "data": {
        "m_channels": [
          1.0,
          0.5,
          false,
          false,
          1.0,
          0.5,
          false,
          false,
          1.0,
          0.5,
          false,
          false,
          1.0,
          0.5,
          false,
          false
        ],
        "m_master_volume": 0.74921912,
        "m_master_mute_trig": false,
        "m_low_power": false,
        "m_cvcompatible": false,
        "m_show_post_out": false,
        "m_post_outputs_unaffected_by_solo_mode": false,
        "m_attenuation": 1.0,
        "m_limiting_mode": 0,
        "m_poly_out": 4
      },
      "pos": [
        73,
        2
      ]
    },
    {
      "id": 420,
      "plugin": "Bogaudio",
      "version": "1.1.37",
      "model": "Bogaudio-AD",
      "params": [
        {
          "id": 0,
          "value": 0.0
        },
        {
          "id": 1,
          "value": 0.115229987
        },
        {
          "id": 2,
          "value": 0.0
        },
        {
          "id": 3,
          "value": 0.0
        },
        {
          "id": 4,
          "value": 1.0
        }
      ],
      "leftModuleId": 417,
      "rightModuleId": 426,
      "data": {
        "skin": "light",
        "invert": 1.0
      },
      "pos": [
        67,
        2
      ]
    },
    {
      "id": 421,
      "plugin": "Grayscale",
      "version": "1.0.2",
      "model": "Algorhythm",
      "params": [
        {
          "id": 0,
          "value": 0.0
        },
        {
          "id": 1,
          "value": 0.0
        },
        {
          "id": 2,
          "value": 0.0
        },
        {
          "id": 3,
          "value": 0.0
        },
        {
          "id": 4,
          "value": 0.0
        },
        {
          "id": 5,
          "value": 0.0
        },
        {
          "id": 6,
          "value": 0.0
        },
        {
          "id": 7,
          "value": 0.0
        },
        {
          "id": 8,
          "value": 0.0
        },
        {
          "id": 9,
          "value": 0.0
        },
        {
          "id": 10,
          "value": 0.0
        },
        {
          "id": 11,
          "value": 0.0
        }
      ],
      "leftModuleId": 424,
      "rightModuleId": 445,
      "data": {
        "pattern": [
          1,
          0,
          1,
          1,
          1,
          1,
          1,
          0
        ],
        "gates": [
          1,
          1,
          1,
          1,
          1,
          1,
          1,
          1
        ],
        "looping": false,
        "seq": true,
        "gate": true,
        "clockPassthrough": true,
        "patternLength": 7,
        "numLoops": 1,
        "immediateReset": 0,
        "startupState": 1,
        "started": false,
        "running": false,
        "stepOutsAlwaysActive": false
      },
      "pos": [
        92,
        2
      ]
    },
    {
      "id": 422,
      "plugin": "Bogaudio",
      "version": "1.1.37",
      "model": "Bogaudio-SampleHold",
      "params": [
        {
          "id": 0,
          "value": 0.0
        },
        {
          "id": 1,
          "value": 0.0
        },
        {
          "id": 2,
          "value": 0.0
        },
        {
          "id": 3,
          "value": 0.0
        },
        {
          "id": 4,
          "value": 0.0
        },
        {
          "id": 5,
          "value": 0.0
        }
      ],
      "leftModuleId": 419,
      "rightModuleId": 424,
      "data": {
        "skin": "light",
        "poly_input": 0,
        "noise_type": 0,
        "range_offset": 1.0,
        "range_scale": 5.0
      },
      "pos": [
        81,
        2
      ]
    },
    {
      "id": 424,
      "plugin": "Fundamental",
      "version": "1.4.0",
      "model": "VCF",
      "params": [
        {
          "id": 0,
          "value": 0.339499593
        },
        {
          "id": 1,
          "value": 0.5
        },
        {
          "id": 2,
          "value": 0.315000117
        },
        {
          "id": 3,
          "value": 0.76600033
        },
        {
          "id": 4,
          "value": 0.37349999
        }
      ],
      "leftModuleId": 422,
      "rightModuleId": 421,
      "pos": [
        84,
        2
      ]
    },
    {
      "id": 426,
      "plugin": "Bogaudio",
      "version": "1.1.37",
      "model": "Bogaudio-AD",
      "params": [
        {
          "id": 0,
          "value": 0.090000011
        },
        {
          "id": 1,
          "value": 0.172229961
        },
        {
          "id": 2,
          "value": 0.0
        },
        {
          "id": 3,
          "value": 0.0
        },
        {
          "id": 4,
          "value": 1.0
        }
      ],
      "leftModuleId": 420,
      "rightModuleId": 419,
      "data": {
        "skin": "light",
        "invert": 1.0
      },
      "pos": [
        70,
        2
      ]
    },
    {
      "id": 427,
      "plugin": "Grayscale",
      "version": "1.0.2",
      "model": "Algorhythm",
      "params": [
        {
          "id": 0,
          "value": 0.0
        },
        {
          "id": 1,
          "value": 0.0
        },
        {
          "id": 2,
          "value": 0.0
        },
        {
          "id": 3,
          "value": 0.0
        },
        {
          "id": 4,
          "value": 0.0
        },
        {
          "id": 5,
          "value": 0.0
        },
        {
          "id": 6,
          "value": 0.0
        },
        {
          "id": 7,
          "value": 0.0
        },
        {
          "id": 8,
          "value": 0.0
        },
        {
          "id": 9,
          "value": 0.0
        },
        {
          "id": 10,
          "value": 0.0
        },
        {
          "id": 11,
          "value": 0.0
        }
      ],
      "leftModuleId": 1,
      "rightModuleId": 428,
      "data": {
        "pattern": [
          1,
          1,
          1,
          1,
          1,
          1,
          1,
          0
        ],
        "gates": [
          1,
          1,
          1,
          1,
          1,
          1,
          1,
          1
        ],
        "looping": false,
        "seq": true,
        "gate": false,
        "clockPassthrough": true,
        "patternLength": 4,
        "numLoops": 1,
        "immediateReset": 0,
        "startupState": 1,
        "started": false,
        "running": false,
        "stepOutsAlwaysActive": false
      },
      "pos": [
        50,
        0
      ]
    },
    {
      "id": 428,
      "plugin": "VultModulesFree",
      "version": "1.16",
      "model": "Basal",
      "params": [
        {
          "id": 0,
          "value": -0.34800005
        },
        {
          "id": 1,
          "value": -0.332999945
        },
        {
          "id": 2,
          "value": 0.377999872
        },
        {
          "id": 3,
          "value": 0.524999976
        },
        {
          "id": 4,
          "value": 0.273000002
        },
        {
          "id": 5,
          "value": -0.363000035
        }
      ],
      "leftModuleId": 427,
      "rightModuleId": 412,
      "pos": [
        62,
        0
      ]
    },
    {
      "id": 429,
      "plugin": "Fundamental",
      "version": "1.4.0",
      "model": "VCF",
      "params": [
        {
          "id": 0,
          "value": 0.192499757
        },
        {
          "id": 1,
          "value": 0.5
        },
        {
          "id": 2,
          "value": 0.322500139
        },
        {
          "id": 3,
          "value": 0.762999833
        },
        {
          "id": 4,
          "value": 0.364500046
        }
      ],
      "leftModuleId": 405,
      "rightModuleId": 437,
      "pos": [
        73,
        1
      ]
    },
    {
      "id": 431,
      "plugin": "Fundamental",
      "version": "1.4.0",
      "model": "VCA-1",
      "params": [
        {
          "id": 0,
          "value": 1.0
        },
        {
          "id": 1,
          "value": 1.0
        }
      ],
      "leftModuleId": 437,
      "rightModuleId": 433,
      "pos": [
        84,
        1
      ]
    },
    {
      "id": 433,
      "plugin": "ML_modules",
      "version": "1.1.3",
      "model": "Constants",
      "params": [],
      "leftModuleId": 431,
      "rightModuleId": 435,
      "pos": [
        87,
        1
      ]
    },
    {
      "id": 435,
      "plugin": "ML_modules",
      "version": "1.1.3",
      "model": "SeqSwitch",
      "params": [
        {
          "id": 0,
          "value": 4.0
        },
        {
          "id": 1,
          "value": 0.0
        },
        {
          "id": 2,
          "value": 0.0
        },
        {
          "id": 3,
          "value": 0.0
        },
        {
          "id": 4,
          "value": 0.0
        },
        {
          "id": 5,
          "value": 0.0
        },
        {
          "id": 6,
          "value": 0.0
        },
        {
          "id": 7,
          "value": 0.0
        },
        {
          "id": 8,
          "value": 0.0
        }
      ],
      "leftModuleId": 433,
      "rightModuleId": 448,
      "data": {
        "inputRange": 0
      },
      "pos": [
        93,
        1
      ]
    },
    {
      "id": 437,
      "plugin": "Bogaudio",
      "version": "1.1.37",
      "model": "Bogaudio-AD",
      "params": [
        {
          "id": 0,
          "value": 0.352499962
        },
        {
          "id": 1,
          "value": 0.274229974
        },
        {
          "id": 2,
          "value": 0.0
        },
        {
          "id": 3,
          "value": 0.0
        },
        {
          "id": 4,
          "value": 1.0
        }
      ],
      "leftModuleId": 429,
      "rightModuleId": 431,
      "data": {
        "skin": "light",
        "invert": 1.0
      },
      "pos": [
        81,
        1
      ]
    },
    {
      "id": 438,
      "plugin": "LindenbergResearch",
      "version": "1.3.3",
      "model": "BlankPanel_Wood",
      "params": [],
      "rightModuleId": 406,
      "gestaltID": 1,
      "gradient": false,
      "patina": false,
      "patina_i_x": true,
      "patina_i_y": false,
      "patina_a_x": 732.980896,
      "patina_a_y": 232.628174,
      "overlay": false,
      "overlay_r": 0.432930827,
      "overlay_g": 0.241274655,
      "overlay_b": 0.14212954,
      "overlay_a": 0.344889015,
      "AGED": false,
      "screws": true,
      "logo": false,
      "pos": [
        0,
        2
      ]
    },
    {
      "id": 439,
      "plugin": "LindenbergResearch",
      "version": "1.3.3",
      "model": "BlankPanel_Wood",
      "params": [],
      "leftModuleId": 445,
      "gestaltID": 1,
      "gradient": false,
      "patina": false,
      "patina_i_x": true,
      "patina_i_y": false,
      "patina_a_x": 732.980896,
      "patina_a_y": 232.628174,
      "overlay": false,
      "overlay_r": 0.526999474,
      "overlay_g": 0.265536845,
      "overlay_b": 0.964073122,
      "overlay_a": 0.356934994,
      "AGED": false,
      "screws": true,
      "logo": false,
      "pos": [
        107,
        2
      ]
    },
    {
      "id": 445,
      "plugin": "Bogaudio",
      "version": "1.1.37",
      "model": "Bogaudio-ASR",
      "params": [
        {
          "id": 0,
          "value": 0.306420952
        },
        {
          "id": 1,
          "value": 0.362729996
        },
        {
          "id": 2,
          "value": 1.0
        },
        {
          "id": 3,
          "value": 0.0
        }
      ],
      "leftModuleId": 421,
      "rightModuleId": 439,
      "data": {
        "invert": 1.0
      },
      "pos": [
        104,
        2
      ]
    },
    {
      "id": 446,
      "plugin": "Core",
      "version": "1.1.6",
      "model": "CV-Gate",
      "params": [],
      "leftModuleId": 412,
      "rightModuleId": 447,
      "data": {
        "notes": [
          48,
          49,
          50,
          51,
          44,
          45,
          46,
          47,
          40,
          41,
          42,
          43,
          36,
          37,
          38,
          39
        ],
        "velocity": true,
        "midi": {
          "driver": 4,
          "deviceName": "loopMIDI Port 1 4",
          "channel": 0
        }
      },
      "pos": [
        80,
        0
      ]
    },
    {
      "id": 447,
      "plugin": "Geodesics",
      "version": "1.2.0",
      "model": "BlackHoles",
      "params": [
        {
          "id": 0,
          "value": 0.539999843
        },
        {
          "id": 1,
          "value": 0.45600003
        },
        {
          "id": 2,
          "value": 0.273000062
        },
        {
          "id": 3,
          "value": 0.0
        },
        {
          "id": 4,
          "value": 0.0
        },
        {
          "id": 5,
          "value": 0.0
        },
        {
          "id": 6,
          "value": 0.0
        },
        {
          "id": 7,
          "value": 0.0
        },
        {
          "id": 8,
          "value": 0.0
        },
        {
          "id": 9,
          "value": 0.0
        },
        {
          "id": 10,
          "value": 0.0
        },
        {
          "id": 11,
          "value": 0.0
        },
        {
          "id": 12,
          "value": 0.0
        }
      ],
      "leftModuleId": 446,
      "rightModuleId": 455,
      "data": {
        "panelTheme": 0,
        "isExponential0": 0.0,
        "isExponential1": 0.0,
        "wormhole": true,
        "cvMode": 3
      },
      "pos": [
        90,
        0
      ]
    },
    {
      "id": 448,
      "plugin": "ZZC",
      "version": "1.1.3",
      "model": "SH-8",
      "params": [],
      "leftModuleId": 435,
      "rightModuleId": 464,
      "data": {
        "wideRange": false
      },
      "pos": [
        101,
        1
      ]
    },
    {
      "id": 451,
      "plugin": "NYSTHI",
      "version": "1.0.17",
      "model": "ConstAddMult",
      "params": [],
      "leftModuleId": 457,
      "rightModuleId": 405,
      "data": {
        "m_param_values0": 3.8499999,
        "m_param_values1": 4.51999998,
        "m_param_values2": 0.0,
        "m_param_values3": 0.0,
        "m_mono_mode": false
      },
      "pos": [
        60,
        1
      ]
    },
    {
      "id": 452,
      "plugin": "SonusModular",
      "version": "1.4.0",
      "model": "Paramath",
      "params": [],
      "leftModuleId": 399,
      "rightModuleId": 456,
      "pos": [
        42,
        1
      ]
    },
    {
      "id": 455,
      "plugin": "Stalys",
      "version": "1.4.2",
      "model": "Abs",
      "params": [],
      "leftModuleId": 447,
      "rightModuleId": 360,
      "data": {
        "skin": ""
      },
      "pos": [
        101,
        0
      ]
    },
    {
      "id": 456,
      "plugin": "SonusModular",
      "version": "1.4.0",
      "model": "Paramath",
      "params": [],
      "leftModuleId": 452,
      "rightModuleId": 457,
      "pos": [
        48,
        1
      ]
    },
    {
      "id": 457,
      "plugin": "SonusModular",
      "version": "1.4.0",
      "model": "Paramath",
      "params": [],
      "leftModuleId": 456,
      "rightModuleId": 451,
      "pos": [
        54,
        1
      ]
    },
    {
      "id": 463,
      "plugin": "computerscare",
      "version": "1.4.2",
      "model": "computerscare-blank",
      "params": [
        {
          "id": 0,
          "value": 0.0
        },
        {
          "id": 1,
          "value": 1.0
        },
        {
          "id": 2,
          "value": 0.0
        },
        {
          "id": 3,
          "value": 0.0
        },
        {
          "id": 4,
          "value": 0.0
        },
        {
          "id": 5,
          "value": 0.5
        },
        {
          "id": 6,
          "value": 0.0
        },
        {
          "id": 7,
          "value": 0.0
        },
        {
          "id": 8,
          "value": 0.200948
        },
        {
          "id": 9,
          "value": 0.0
        }
      ],
      "leftModuleId": 418,
      "data": {
        "path": "D:\\Backup\\Pictures\\WP\\cf20a8cnj7j21.jpg",
        "width": 165.0,
        "imageFitEnum": 0,
        "invertY": true,
        "zoomX": 0.152777776,
        "zoomY": 0.197916672,
        "xOffset": 0.0,
        "yOffset": 0.0,
        "rotation": 0
      },
      "pos": [
        49,
        2
      ]
    },
    {
      "id": 464,
      "plugin": "Ohmer",
      "version": "1.1.6",
      "model": "OhmerBlank1",
      "params": [],
      "leftModuleId": 448,
      "rightModuleId": 362,
      "data": {
        "Theme": 0
      },
      "pos": [
        106,
        1
      ]
    }
  ],
  "cables": [
    {
      "id": 702,
      "outputModuleId": 375,
      "outputId": 0,
      "inputModuleId": 1,
      "inputId": 0,
      "color": "#c91847"
    },
    {
      "id": 703,
      "outputModuleId": 375,
      "outputId": 1,
      "inputModuleId": 1,
      "inputId": 1,
      "color": "#c91847"
    },
    {
      "id": 752,
      "outputModuleId": 379,
      "outputId": 4,
      "inputModuleId": 401,
      "inputId": 1,
      "color": "#364449"
    },
    {
      "id": 753,
      "outputModuleId": 379,
      "outputId": 1,
      "inputModuleId": 401,
      "inputId": 0,
      "color": "#364449"
    },
    {
      "id": 754,
      "outputModuleId": 401,
      "outputId": 2,
      "inputModuleId": 399,
      "inputId": 2,
      "color": "#364449"
    },
    {
      "id": 761,
      "outputModuleId": 401,
      "outputId": 1,
      "inputModuleId": 408,
      "inputId": 2,
      "color": "#364449"
    },
    {
      "id": 762,
      "outputModuleId": 401,
      "outputId": 0,
      "inputModuleId": 407,
      "inputId": 0,
      "color": "#364449"
    },
    {
      "id": 773,
      "outputModuleId": 412,
      "outputId": 0,
      "inputModuleId": 375,
      "inputId": 4,
      "color": "#c91847"
    },
    {
      "id": 774,
      "outputModuleId": 412,
      "outputId": 1,
      "inputModuleId": 375,
      "inputId": 5,
      "color": "#c91847"
    },
    {
      "id": 775,
      "outputModuleId": 379,
      "outputId": 1,
      "inputModuleId": 412,
      "inputId": 7,
      "color": "#364449"
    },
    {
      "id": 779,
      "outputModuleId": 399,
      "outputId": 2,
      "inputModuleId": 406,
      "inputId": 0,
      "color": "#364449"
    },
    {
      "id": 780,
      "outputModuleId": 408,
      "outputId": 5,
      "inputModuleId": 406,
      "inputId": 1,
      "color": "#364449"
    },
    {
      "id": 781,
      "outputModuleId": 406,
      "outputId": 0,
      "inputModuleId": 413,
      "inputId": 14,
      "color": "#364449"
    },
    {
      "id": 782,
      "outputModuleId": 401,
      "outputId": 3,
      "inputModuleId": 406,
      "inputId": 2,
      "color": "#364449"
    },
    {
      "id": 788,
      "outputModuleId": 415,
      "outputId": 0,
      "inputModuleId": 416,
      "inputId": 0,
      "color": "#c9b70e"
    },
    {
      "id": 789,
      "outputModuleId": 416,
      "outputId": 0,
      "inputModuleId": 418,
      "inputId": 0,
      "color": "#c9b70e"
    },
    {
      "id": 793,
      "outputModuleId": 399,
      "outputId": 11,
      "inputModuleId": 405,
      "inputId": 0,
      "color": "#364449"
    },
    {
      "id": 794,
      "outputModuleId": 401,
      "outputId": 4,
      "inputModuleId": 405,
      "inputId": 1,
      "color": "#364449"
    },
    {
      "id": 796,
      "outputModuleId": 418,
      "outputId": 0,
      "inputModuleId": 417,
      "inputId": 2,
      "color": "#c91847"
    },
    {
      "id": 799,
      "outputModuleId": 418,
      "outputId": 1,
      "inputModuleId": 419,
      "inputId": 0,
      "color": "#c91847"
    },
    {
      "id": 800,
      "outputModuleId": 418,
      "outputId": 2,
      "inputModuleId": 419,
      "inputId": 1,
      "color": "#c91847"
    },
    {
      "id": 801,
      "outputModuleId": 418,
      "outputId": 3,
      "inputModuleId": 419,
      "inputId": 2,
      "color": "#c91847"
    },
    {
      "id": 802,
      "outputModuleId": 418,
      "outputId": 4,
      "inputModuleId": 419,
      "inputId": 3,
      "color": "#c91847"
    },
    {
      "id": 804,
      "outputModuleId": 420,
      "outputId": 0,
      "inputModuleId": 417,
      "inputId": 3,
      "color": "#0c8e15"
    },
    {
      "id": 807,
      "outputModuleId": 413,
      "outputId": 3,
      "inputModuleId": 417,
      "inputId": 5,
      "color": "#0c8e15"
    },
    {
      "id": 811,
      "outputModuleId": 407,
      "outputId": 2,
      "inputModuleId": 406,
      "inputId": 4,
      "color": "#364449"
    },
    {
      "id": 805,
      "outputModuleId": 419,
      "outputId": 0,
      "inputModuleId": 412,
      "inputId": 5,
      "color": "#c91847"
    },
    {
      "id": 806,
      "outputModuleId": 419,
      "outputId": 1,
      "inputModuleId": 412,
      "inputId": 6,
      "color": "#c91847"
    },
    {
      "id": 812,
      "outputModuleId": 421,
      "outputId": 11,
      "inputModuleId": 420,
      "inputId": 0,
      "color": "#364449"
    },
    {
      "id": 814,
      "outputModuleId": 379,
      "outputId": 2,
      "inputModuleId": 421,
      "inputId": 0,
      "color": "#364449"
    },
    {
      "id": 815,
      "outputModuleId": 379,
      "outputId": 1,
      "inputModuleId": 421,
      "inputId": 2,
      "color": "#364449"
    },
    {
      "id": 792,
      "outputModuleId": 416,
      "outputId": 4,
      "inputModuleId": 418,
      "inputId": 3,
      "color": "#c9b70e"
    },
    {
      "id": 791,
      "outputModuleId": 416,
      "outputId": 6,
      "inputModuleId": 418,
      "inputId": 2,
      "color": "#c9b70e"
    },
    {
      "id": 790,
      "outputModuleId": 416,
      "outputId": 2,
      "inputModuleId": 418,
      "inputId": 1,
      "color": "#c9b70e"
    },
    {
      "id": 823,
      "outputModuleId": 422,
      "outputId": 0,
      "inputModuleId": 415,
      "inputId": 2,
      "color": "#c9b70e"
    },
    {
      "id": 824,
      "outputModuleId": 406,
      "outputId": 0,
      "inputModuleId": 422,
      "inputId": 0,
      "color": "#364449"
    },
    {
      "id": 828,
      "outputModuleId": 401,
      "outputId": 1,
      "inputModuleId": 406,
      "inputId": 5,
      "color": "#364449"
    },
    {
      "id": 830,
      "outputModuleId": 405,
      "outputId": 0,
      "inputModuleId": 406,
      "inputId": 3,
      "color": "#364449"
    },
    {
      "id": 798,
      "outputModuleId": 417,
      "outputId": 0,
      "inputModuleId": 424,
      "inputId": 3,
      "color": "#c91847"
    },
    {
      "id": 835,
      "outputModuleId": 406,
      "outputId": 0,
      "inputModuleId": 413,
      "inputId": 15,
      "color": "#364449"
    },
    {
      "id": 837,
      "outputModuleId": 413,
      "outputId": 8,
      "inputModuleId": 424,
      "inputId": 1,
      "color": "#0c8e15"
    },
    {
      "id": 843,
      "outputModuleId": 379,
      "outputId": 1,
      "inputModuleId": 416,
      "inputId": 1,
      "color": "#364449"
    },
    {
      "id": 844,
      "outputModuleId": 379,
      "outputId": 0,
      "inputModuleId": 427,
      "inputId": 2,
      "color": "#364449"
    },
    {
      "id": 845,
      "outputModuleId": 421,
      "outputId": 5,
      "inputModuleId": 427,
      "inputId": 0,
      "color": "#364449"
    },
    {
      "id": 847,
      "outputModuleId": 428,
      "outputId": 0,
      "inputModuleId": 429,
      "inputId": 3,
      "color": "#c91847"
    },
    {
      "id": 855,
      "outputModuleId": 427,
      "outputId": 11,
      "inputModuleId": 426,
      "inputId": 0,
      "color": "#364449"
    },
    {
      "id": 856,
      "outputModuleId": 429,
      "outputId": 0,
      "inputModuleId": 431,
      "inputId": 1,
      "color": "#c91847"
    },
    {
      "id": 858,
      "outputModuleId": 426,
      "outputId": 0,
      "inputModuleId": 431,
      "inputId": 0,
      "color": "#0c8e15"
    },
    {
      "id": 862,
      "outputModuleId": 435,
      "outputId": 0,
      "inputModuleId": 428,
      "inputId": 0,
      "color": "#c9b70e"
    },
    {
      "id": 865,
      "outputModuleId": 421,
      "outputId": 8,
      "inputModuleId": 435,
      "inputId": 9,
      "color": "#364449"
    },
    {
      "id": 866,
      "outputModuleId": 433,
      "outputId": 11,
      "inputModuleId": 435,
      "inputId": 2,
      "color": "#c9b70e"
    },
    {
      "id": 867,
      "outputModuleId": 433,
      "outputId": 4,
      "inputModuleId": 435,
      "inputId": 3,
      "color": "#c9b70e"
    },
    {
      "id": 869,
      "outputModuleId": 427,
      "outputId": 11,
      "inputModuleId": 437,
      "inputId": 0,
      "color": "#364449"
    },
    {
      "id": 871,
      "outputModuleId": 413,
      "outputId": 1,
      "inputModuleId": 428,
      "inputId": 1,
      "color": "#0c8e15"
    },
    {
      "id": 872,
      "outputModuleId": 413,
      "outputId": 5,
      "inputModuleId": 428,
      "inputId": 2,
      "color": "#0c8e15"
    },
    {
      "id": 870,
      "outputModuleId": 437,
      "outputId": 0,
      "inputModuleId": 429,
      "inputId": 0,
      "color": "#0c8e15"
    },
    {
      "id": 873,
      "outputModuleId": 431,
      "outputId": 0,
      "inputModuleId": 375,
      "inputId": 2,
      "color": "#c91847"
    },
    {
      "id": 877,
      "outputModuleId": 399,
      "outputId": 4,
      "inputModuleId": 405,
      "inputId": 2,
      "color": "#364449"
    },
    {
      "id": 880,
      "outputModuleId": 405,
      "outputId": 1,
      "inputModuleId": 407,
      "inputId": 1,
      "color": "#364449"
    },
    {
      "id": 885,
      "outputModuleId": 399,
      "outputId": 6,
      "inputModuleId": 405,
      "inputId": 3,
      "color": "#364449"
    },
    {
      "id": 833,
      "outputModuleId": 424,
      "outputId": 0,
      "inputModuleId": 418,
      "inputId": 4,
      "color": "#c91847"
    },
    {
      "id": 888,
      "outputModuleId": 445,
      "outputId": 0,
      "inputModuleId": 424,
      "inputId": 0,
      "color": "#364449"
    },
    {
      "id": 889,
      "outputModuleId": 379,
      "outputId": 2,
      "inputModuleId": 445,
      "inputId": 0,
      "color": "#364449"
    },
    {
      "id": 891,
      "outputModuleId": 379,
      "outputId": 1,
      "inputModuleId": 448,
      "inputId": 1,
      "color": "#364449"
    },
    {
      "id": 755,
      "outputModuleId": 399,
      "outputId": 0,
      "inputModuleId": 447,
      "inputId": 0,
      "color": "#364449"
    },
    {
      "id": 894,
      "outputModuleId": 447,
      "outputId": 0,
      "inputModuleId": 446,
      "inputId": 12,
      "color": "#364449"
    },
    {
      "id": 900,
      "outputModuleId": 448,
      "outputId": 0,
      "inputModuleId": 455,
      "inputId": 0,
      "color": "#0c8e15"
    },
    {
      "id": 902,
      "outputModuleId": 455,
      "outputId": 0,
      "inputModuleId": 452,
      "inputId": 1,
      "color": "#0c8e15"
    },
    {
      "id": 903,
      "outputModuleId": 452,
      "outputId": 3,
      "inputModuleId": 447,
      "inputId": 8,
      "color": "#0c8e15"
    },
    {
      "id": 757,
      "outputModuleId": 399,
      "outputId": 11,
      "inputModuleId": 447,
      "inputId": 1,
      "color": "#364449"
    },
    {
      "id": 904,
      "outputModuleId": 448,
      "outputId": 1,
      "inputModuleId": 455,
      "inputId": 1,
      "color": "#0c8e15"
    },
    {
      "id": 905,
      "outputModuleId": 455,
      "outputId": 1,
      "inputModuleId": 456,
      "inputId": 1,
      "color": "#0c8e15"
    },
    {
      "id": 906,
      "outputModuleId": 451,
      "outputId": 0,
      "inputModuleId": 456,
      "inputId": 0,
      "color": "#0c8e15"
    },
    {
      "id": 907,
      "outputModuleId": 456,
      "outputId": 3,
      "inputModuleId": 447,
      "inputId": 9,
      "color": "#0c8e15"
    },
    {
      "id": 908,
      "outputModuleId": 447,
      "outputId": 1,
      "inputModuleId": 446,
      "inputId": 4,
      "color": "#364449"
    },
    {
      "id": 884,
      "outputModuleId": 407,
      "outputId": 1,
      "inputModuleId": 447,
      "inputId": 2,
      "color": "#364449"
    },
    {
      "id": 909,
      "outputModuleId": 455,
      "outputId": 2,
      "inputModuleId": 457,
      "inputId": 1,
      "color": "#0c8e15"
    },
    {
      "id": 910,
      "outputModuleId": 448,
      "outputId": 2,
      "inputModuleId": 455,
      "inputId": 2,
      "color": "#0c8e15"
    },
    {
      "id": 911,
      "outputModuleId": 451,
      "outputId": 1,
      "inputModuleId": 452,
      "inputId": 0,
      "color": "#0c8e15"
    },
    {
      "id": 912,
      "outputModuleId": 451,
      "outputId": 2,
      "inputModuleId": 457,
      "inputId": 0,
      "color": "#0c8e15"
    },
    {
      "id": 913,
      "outputModuleId": 457,
      "outputId": 3,
      "inputModuleId": 447,
      "inputId": 10,
      "color": "#0c8e15"
    },
    {
      "id": 914,
      "outputModuleId": 447,
      "outputId": 2,
      "inputModuleId": 446,
      "inputId": 14,
      "color": "#364449"
    },
    {
      "id": 915,
      "outputModuleId": 379,
      "outputId": 4,
      "inputModuleId": 435,
      "inputId": 11,
      "color": "#364449"
    },
    {
      "id": 916,
      "outputModuleId": 379,
      "outputId": 4,
      "inputModuleId": 421,
      "inputId": 1,
      "color": "#364449"
    },
    {
      "id": 917,
      "outputModuleId": 379,
      "outputId": 4,
      "inputModuleId": 399,
      "inputId": 1,
      "color": "#364449"
    },
    {
      "id": 918,
      "outputModuleId": 379,
      "outputId": 4,
      "inputModuleId": 427,
      "inputId": 1,
      "color": "#364449"
    }
  ]
}