{
  "version": "1.1.6",
  "modules": [
    {
      "id": 1,
      "plugin": "Core",
      "version": "1.1.6",
      "model": "AudioInterface",
      "params": [],
      "leftModuleId": 375,
      "rightModuleId": 384,
      "data": {
        "audio": {
          "driver": 7,
          "deviceName": "Studio USB ASIO Driver",
          "offset": 0,
          "maxChannels": 8,
          "sampleRate": 48000,
          "blockSize": 256
        }
      },
      "pos": [
        40,
        0
      ]
    },
    {
      "id": 76,
      "plugin": "Stoermelder-P1",
      "version": "1.10.0",
      "model": "Mb",
      "params": [],
      "leftModuleId": 364,
      "rightModuleId": 380,
      "data": {
        "mode": 1
      },
      "pos": [
        4,
        0
      ]
    },
    {
      "id": 360,
      "plugin": "LindenbergResearch",
      "version": "1.3.3",
      "model": "BlankPanel_Wood",
      "params": [],
      "leftModuleId": 808,
      "gestaltID": 1,
      "gradient": false,
      "patina": false,
      "patina_i_x": false,
      "patina_i_y": false,
      "patina_a_x": 1048.69849,
      "patina_a_y": 465.392822,
      "overlay": false,
      "overlay_r": 0.998159766,
      "overlay_g": 0.908210397,
      "overlay_b": 0.3508448,
      "overlay_a": 0.18971692,
      "AGED": false,
      "screws": true,
      "logo": false,
      "pos": [
        110,
        0
      ]
    },
    {
      "id": 362,
      "plugin": "LindenbergResearch",
      "version": "1.3.3",
      "model": "BlankPanel_Wood",
      "params": [],
      "gestaltID": 1,
      "gradient": false,
      "patina": false,
      "patina_i_x": false,
      "patina_i_y": false,
      "patina_a_x": 1048.69849,
      "patina_a_y": 465.392822,
      "overlay": false,
      "overlay_r": 0.607856572,
      "overlay_g": 0.237216055,
      "overlay_b": 0.0212660432,
      "overlay_a": 0.281125456,
      "AGED": false,
      "screws": true,
      "logo": false,
      "pos": [
        110,
        1
      ]
    },
    {
      "id": 364,
      "plugin": "LindenbergResearch",
      "version": "1.3.3",
      "model": "BlankPanel_Wood",
      "params": [],
      "rightModuleId": 76,
      "gestaltID": 1,
      "gradient": false,
      "patina": false,
      "patina_i_x": true,
      "patina_i_y": false,
      "patina_a_x": 732.980896,
      "patina_a_y": 232.628174,
      "overlay": false,
      "overlay_r": 0.597853899,
      "overlay_g": 0.383826733,
      "overlay_b": 0.51267314,
      "overlay_a": 0.156828105,
      "AGED": false,
      "screws": true,
      "logo": false,
      "pos": [
        0,
        0
      ]
    },
    {
      "id": 365,
      "plugin": "LindenbergResearch",
      "version": "1.3.3",
      "model": "BlankPanel_Wood",
      "params": [],
      "rightModuleId": 648,
      "gestaltID": 1,
      "gradient": false,
      "patina": false,
      "patina_i_x": true,
      "patina_i_y": false,
      "patina_a_x": 732.980896,
      "patina_a_y": 232.628174,
      "overlay": false,
      "overlay_r": 0.0763064027,
      "overlay_g": 0.497222483,
      "overlay_b": 0.961047888,
      "overlay_a": 0.305257499,
      "AGED": false,
      "screws": true,
      "logo": false,
      "pos": [
        0,
        1
      ]
    },
    {
      "id": 375,
      "plugin": "squinkylabs-plug1",
      "version": "1.0.22",
      "model": "squinkylabs-mix8",
      "params": [
        {
          "id": 0,
          "value": 0.800000012
        },
        {
          "id": 1,
          "value": 0.0
        },
        {
          "id": 2,
          "value": 0.800000012
        },
        {
          "id": 3,
          "value": 1.0
        },
        {
          "id": 4,
          "value": 0.800000012
        },
        {
          "id": 5,
          "value": 0.800000012
        },
        {
          "id": 6,
          "value": 0.800000012
        },
        {
          "id": 7,
          "value": 0.800000012
        },
        {
          "id": 8,
          "value": 0.800000012
        },
        {
          "id": 9,
          "value": 0.800000012
        },
        {
          "id": 10,
          "value": 0.0
        },
        {
          "id": 11,
          "value": 0.0
        },
        {
          "id": 12,
          "value": 0.0
        },
        {
          "id": 13,
          "value": 0.0
        },
        {
          "id": 14,
          "value": 0.0
        },
        {
          "id": 15,
          "value": 0.0
        },
        {
          "id": 16,
          "value": 0.0
        },
        {
          "id": 17,
          "value": 0.0
        },
        {
          "id": 18,
          "value": 1.0
        },
        {
          "id": 19,
          "value": 0.0
        },
        {
          "id": 20,
          "value": 0.0
        },
        {
          "id": 21,
          "value": 0.0
        },
        {
          "id": 22,
          "value": 0.0
        },
        {
          "id": 23,
          "value": 0.0
        },
        {
          "id": 24,
          "value": 0.0
        },
        {
          "id": 25,
          "value": 0.0
        },
        {
          "id": 26,
          "value": 0.0
        },
        {
          "id": 27,
          "value": 0.0
        },
        {
          "id": 28,
          "value": 0.0
        },
        {
          "id": 29,
          "value": 0.0
        },
        {
          "id": 30,
          "value": 0.0
        },
        {
          "id": 31,
          "value": 0.0
        },
        {
          "id": 32,
          "value": 0.0
        },
        {
          "id": 33,
          "value": 0.0
        },
        {
          "id": 34,
          "value": 0.164999962
        },
        {
          "id": 35,
          "value": 0.0
        },
        {
          "id": 36,
          "value": 0.0239999983
        },
        {
          "id": 37,
          "value": 0.0855000094
        },
        {
          "id": 38,
          "value": 0.0344999991
        },
        {
          "id": 39,
          "value": 0.0404999964
        },
        {
          "id": 40,
          "value": 0.0
        },
        {
          "id": 41,
          "value": 0.0
        },
        {
          "id": 42,
          "value": 1.0
        }
      ],
      "leftModuleId": 646,
      "rightModuleId": 1,
      "pos": [
        14,
        0
      ]
    },
    {
      "id": 380,
      "plugin": "Stoermelder-P1",
      "version": "1.10.0",
      "model": "Me",
      "params": [],
      "leftModuleId": 76,
      "rightModuleId": 646,
      "pos": [
        6,
        0
      ]
    },
    {
      "id": 384,
      "plugin": "Valley",
      "version": "1.1.7",
      "model": "Plateau",
      "params": [
        {
          "id": 0,
          "value": 0.0
        },
        {
          "id": 1,
          "value": 0.881499946
        },
        {
          "id": 2,
          "value": 0.0
        },
        {
          "id": 3,
          "value": 7.48000097
        },
        {
          "id": 4,
          "value": 10.0
        },
        {
          "id": 5,
          "value": 0.5
        },
        {
          "id": 6,
          "value": 10.0
        },
        {
          "id": 7,
          "value": 0.549950004
        },
        {
          "id": 8,
          "value": 10.0
        },
        {
          "id": 9,
          "value": 10.0
        },
        {
          "id": 10,
          "value": 0.0
        },
        {
          "id": 11,
          "value": 0.5
        },
        {
          "id": 12,
          "value": 0.5
        },
        {
          "id": 13,
          "value": 0.0
        },
        {
          "id": 14,
          "value": 0.0
        },
        {
          "id": 15,
          "value": 0.0
        },
        {
          "id": 16,
          "value": 0.0
        },
        {
          "id": 17,
          "value": 0.0
        },
        {
          "id": 18,
          "value": 0.0
        },
        {
          "id": 19,
          "value": 0.0
        },
        {
          "id": 20,
          "value": 0.0
        },
        {
          "id": 21,
          "value": 0.0
        },
        {
          "id": 22,
          "value": 0.0
        },
        {
          "id": 23,
          "value": 0.0
        },
        {
          "id": 24,
          "value": 0.0
        },
        {
          "id": 25,
          "value": 0.0
        },
        {
          "id": 26,
          "value": 0.0
        },
        {
          "id": 27,
          "value": 0.0
        },
        {
          "id": 28,
          "value": 0.0
        },
        {
          "id": 29,
          "value": 0.0
        },
        {
          "id": 30,
          "value": 1.0
        }
      ],
      "leftModuleId": 1,
      "rightModuleId": 647,
      "data": {
        "frozen": false,
        "freezeToggle": false,
        "panelStyle": 0,
        "tuned": 0,
        "diffuseInput": 1,
        "preDelayCVSens": 0,
        "inputSensitivity": 0,
        "outputSaturation": 0
      },
      "pos": [
        50,
        0
      ]
    },
    {
      "id": 646,
      "plugin": "Stoermelder-P1",
      "version": "1.10.0",
      "model": "Stroke",
      "params": [],
      "leftModuleId": 380,
      "rightModuleId": 375,
      "data": {
        "panelTheme": 1,
        "keys": [
          {
            "button": -1,
            "key": 49,
            "mods": 0,
            "mode": 24,
            "high": false,
            "data": "#e0d8a3"
          },
          {
            "button": -1,
            "key": 50,
            "mods": 0,
            "mode": 24,
            "high": false,
            "data": "#81b29a"
          },
          {
            "button": -1,
            "key": 51,
            "mods": 0,
            "mode": 24,
            "high": false,
            "data": "#e07a5f"
          },
          {
            "button": -1,
            "key": 52,
            "mods": 0,
            "mode": 24,
            "high": false,
            "data": "#3d405b"
          },
          {
            "button": -1,
            "key": -1,
            "mods": 0,
            "mode": 1,
            "high": false,
            "data": ""
          },
          {
            "button": -1,
            "key": -1,
            "mods": 0,
            "mode": 1,
            "high": false,
            "data": ""
          },
          {
            "button": -1,
            "key": -1,
            "mods": 0,
            "mode": 1,
            "high": false,
            "data": ""
          },
          {
            "button": -1,
            "key": -1,
            "mods": 0,
            "mode": 1,
            "high": false,
            "data": ""
          },
          {
            "button": -1,
            "key": -1,
            "mods": 0,
            "mode": 1,
            "high": false,
            "data": ""
          },
          {
            "button": -1,
            "key": -1,
            "mods": 0,
            "mode": 1,
            "high": false,
            "data": ""
          }
        ]
      },
      "pos": [
        8,
        0
      ]
    },
    {
      "id": 647,
      "plugin": "Fundamental",
      "version": "1.4.0",
      "model": "Scope",
      "params": [
        {
          "id": 0,
          "value": 0.0
        },
        {
          "id": 1,
          "value": 0.0
        },
        {
          "id": 2,
          "value": 0.0
        },
        {
          "id": 3,
          "value": 0.0
        },
        {
          "id": 4,
          "value": 6.0
        },
        {
          "id": 5,
          "value": 0.0
        },
        {
          "id": 6,
          "value": 0.0
        },
        {
          "id": 7,
          "value": 0.0
        }
      ],
      "leftModuleId": 384,
      "rightModuleId": 799,
      "data": {
        "lissajous": 0,
        "external": 0
      },
      "pos": [
        62,
        0
      ]
    },
    {
      "id": 648,
      "plugin": "ImpromptuModular",
      "version": "1.1.12",
      "model": "Clocked-Clkd",
      "params": [
        {
          "id": 0,
          "value": 5.0
        },
        {
          "id": 1,
          "value": 2.0
        },
        {
          "id": 2,
          "value": -5.0
        },
        {
          "id": 3,
          "value": 120.0
        },
        {
          "id": 4,
          "value": 0.0
        },
        {
          "id": 5,
          "value": 0.0
        },
        {
          "id": 6,
          "value": 0.0
        },
        {
          "id": 7,
          "value": 0.0
        },
        {
          "id": 8,
          "value": 0.0
        },
        {
          "id": 9,
          "value": 0.0
        }
      ],
      "leftModuleId": 365,
      "rightModuleId": 774,
      "data": {
        "panelTheme": 1,
        "running": false,
        "bpmDetectionMode": false,
        "resetOnStartStop": 0,
        "ppqn": 4,
        "resetClockOutputsHigh": true,
        "momentaryRunInput": true,
        "displayIndex": 2,
        "trigOuts": [
          false,
          false,
          false,
          false
        ],
        "clockMaster": -1
      },
      "pos": [
        4,
        1
      ]
    },
    {
      "id": 771,
      "plugin": "AriaSalvatrice",
      "version": "1.8.1",
      "model": "Psychopump",
      "params": [
        {
          "id": 0,
          "value": 0.0
        },
        {
          "id": 1,
          "value": 5.79500008
        },
        {
          "id": 2,
          "value": 3.10999966
        },
        {
          "id": 3,
          "value": 6.24499893
        },
        {
          "id": 4,
          "value": 6.00999928
        },
        {
          "id": 5,
          "value": 6.01999998
        },
        {
          "id": 6,
          "value": 3.66499972
        },
        {
          "id": 7,
          "value": 6.00500059
        },
        {
          "id": 8,
          "value": 5.0
        },
        {
          "id": 9,
          "value": 3.08000016
        },
        {
          "id": 10,
          "value": 6.99500036
        },
        {
          "id": 11,
          "value": 5.73499918
        },
        {
          "id": 12,
          "value": 4.36999941
        },
        {
          "id": 13,
          "value": 6.07999992
        },
        {
          "id": 14,
          "value": 7.45999908
        },
        {
          "id": 15,
          "value": 7.50499964
        },
        {
          "id": 16,
          "value": 5.0
        },
        {
          "id": 17,
          "value": 6.62000036
        },
        {
          "id": 18,
          "value": 5.0
        },
        {
          "id": 19,
          "value": 4.56499958
        },
        {
          "id": 20,
          "value": 2.67500138
        },
        {
          "id": 21,
          "value": 0.739999652
        },
        {
          "id": 22,
          "value": 6.75499964
        },
        {
          "id": 23,
          "value": 4.20499992
        },
        {
          "id": 24,
          "value": 1.59500027
        },
        {
          "id": 25,
          "value": 2.19499922
        },
        {
          "id": 26,
          "value": 6.54500055
        },
        {
          "id": 27,
          "value": 4.17499971
        },
        {
          "id": 28,
          "value": 8.04500008
        },
        {
          "id": 29,
          "value": 2.13500023
        },
        {
          "id": 30,
          "value": 4.08499956
        },
        {
          "id": 31,
          "value": 7.71500111
        },
        {
          "id": 32,
          "value": 3.3949995
        },
        {
          "id": 33,
          "value": 7.36999989
        },
        {
          "id": 34,
          "value": 5.0
        },
        {
          "id": 35,
          "value": 6.11499929
        },
        {
          "id": 36,
          "value": 1.98500001
        },
        {
          "id": 37,
          "value": 4.44499969
        },
        {
          "id": 38,
          "value": 5.92999983
        },
        {
          "id": 39,
          "value": 8.16499996
        },
        {
          "id": 40,
          "value": 0.0
        },
        {
          "id": 41,
          "value": 5.35500002
        },
        {
          "id": 42,
          "value": 1.39999974
        },
        {
          "id": 43,
          "value": 10.0
        },
        {
          "id": 44,
          "value": 1.33500075
        },
        {
          "id": 45,
          "value": 10.0
        },
        {
          "id": 46,
          "value": 1.38499963
        },
        {
          "id": 47,
          "value": 6.55500031
        },
        {
          "id": 48,
          "value": 2.73499966
        },
        {
          "id": 49,
          "value": 7.5800004
        },
        {
          "id": 50,
          "value": 5.87000036
        },
        {
          "id": 51,
          "value": 5.0
        },
        {
          "id": 52,
          "value": 8.90000057
        },
        {
          "id": 53,
          "value": 5.86999989
        },
        {
          "id": 54,
          "value": 8.28500175
        },
        {
          "id": 55,
          "value": 4.62500095
        },
        {
          "id": 56,
          "value": 0.0
        },
        {
          "id": 57,
          "value": 1.27499998
        },
        {
          "id": 58,
          "value": 2.29500008
        },
        {
          "id": 59,
          "value": 3.72000027
        },
        {
          "id": 60,
          "value": 2.38500023
        },
        {
          "id": 61,
          "value": 4.99999952
        },
        {
          "id": 62,
          "value": 6.64499998
        },
        {
          "id": 63,
          "value": 7.95000172
        },
        {
          "id": 64,
          "value": 0.0
        },
        {
          "id": 65,
          "value": 0.0
        },
        {
          "id": 66,
          "value": 0.0
        },
        {
          "id": 67,
          "value": 0.0
        },
        {
          "id": 68,
          "value": 0.0
        },
        {
          "id": 69,
          "value": 0.0
        },
        {
          "id": 70,
          "value": 0.0
        },
        {
          "id": 71,
          "value": 0.0
        },
        {
          "id": 72,
          "value": 0.0
        },
        {
          "id": 73,
          "value": 0.0
        },
        {
          "id": 74,
          "value": 0.0
        },
        {
          "id": 75,
          "value": 0.0
        },
        {
          "id": 76,
          "value": 0.0
        },
        {
          "id": 77,
          "value": 0.0
        },
        {
          "id": 78,
          "value": 0.0
        },
        {
          "id": 79,
          "value": 0.0
        },
        {
          "id": 80,
          "value": 0.0
        },
        {
          "id": 81,
          "value": 0.0
        },
        {
          "id": 82,
          "value": 0.0
        },
        {
          "id": 83,
          "value": 0.0
        },
        {
          "id": 84,
          "value": 0.0
        },
        {
          "id": 85,
          "value": 0.0
        },
        {
          "id": 86,
          "value": 0.0
        },
        {
          "id": 87,
          "value": 0.0
        },
        {
          "id": 88,
          "value": 0.0
        },
        {
          "id": 89,
          "value": 0.0
        },
        {
          "id": 90,
          "value": 0.0
        },
        {
          "id": 91,
          "value": 0.0
        },
        {
          "id": 92,
          "value": 0.0
        },
        {
          "id": 93,
          "value": 0.0
        },
        {
          "id": 94,
          "value": 0.0
        },
        {
          "id": 95,
          "value": 0.0
        },
        {
          "id": 96,
          "value": 0.0
        },
        {
          "id": 97,
          "value": 0.0
        },
        {
          "id": 98,
          "value": 0.0
        },
        {
          "id": 99,
          "value": 0.0
        },
        {
          "id": 100,
          "value": 0.0
        },
        {
          "id": 101,
          "value": 0.0
        },
        {
          "id": 102,
          "value": 0.0
        },
        {
          "id": 103,
          "value": 0.0
        },
        {
          "id": 104,
          "value": 0.0
        },
        {
          "id": 105,
          "value": 0.0
        },
        {
          "id": 106,
          "value": 0.0
        },
        {
          "id": 107,
          "value": 0.0
        },
        {
          "id": 108,
          "value": 0.0
        },
        {
          "id": 109,
          "value": 0.0
        },
        {
          "id": 110,
          "value": 0.0
        },
        {
          "id": 111,
          "value": 0.0
        },
        {
          "id": 112,
          "value": 0.0
        },
        {
          "id": 113,
          "value": 0.0
        },
        {
          "id": 114,
          "value": 0.0
        },
        {
          "id": 115,
          "value": 0.0
        },
        {
          "id": 116,
          "value": 0.0
        },
        {
          "id": 117,
          "value": 0.0
        },
        {
          "id": 118,
          "value": 0.0
        },
        {
          "id": 119,
          "value": 0.0
        },
        {
          "id": 120,
          "value": 0.0
        },
        {
          "id": 121,
          "value": 0.0
        },
        {
          "id": 122,
          "value": 0.0
        },
        {
          "id": 123,
          "value": 1.0
        },
        {
          "id": 124,
          "value": 0.0
        },
        {
          "id": 125,
          "value": 1.0
        },
        {
          "id": 126,
          "value": 0.0
        },
        {
          "id": 127,
          "value": 0.0
        },
        {
          "id": 128,
          "value": 0.0
        },
        {
          "id": 129,
          "value": 0.0
        },
        {
          "id": 130,
          "value": 0.0
        },
        {
          "id": 131,
          "value": 0.0
        },
        {
          "id": 132,
          "value": 0.0
        },
        {
          "id": 133,
          "value": 0.0
        },
        {
          "id": 134,
          "value": 0.0
        },
        {
          "id": 135,
          "value": 0.0
        },
        {
          "id": 136,
          "value": 0.0
        },
        {
          "id": 137,
          "value": 0.0
        },
        {
          "id": 138,
          "value": 0.0
        },
        {
          "id": 139,
          "value": 0.0
        },
        {
          "id": 140,
          "value": 0.0
        },
        {
          "id": 141,
          "value": 0.0
        },
        {
          "id": 142,
          "value": 0.0
        },
        {
          "id": 143,
          "value": 0.0
        },
        {
          "id": 144,
          "value": 0.0
        },
        {
          "id": 145,
          "value": 0.0
        },
        {
          "id": 146,
          "value": 0.0
        },
        {
          "id": 147,
          "value": 0.0
        },
        {
          "id": 148,
          "value": 0.0
        },
        {
          "id": 149,
          "value": 0.0
        },
        {
          "id": 150,
          "value": 0.0
        },
        {
          "id": 151,
          "value": 0.0
        },
        {
          "id": 152,
          "value": 0.0
        },
        {
          "id": 153,
          "value": 0.0
        },
        {
          "id": 154,
          "value": 0.0
        },
        {
          "id": 155,
          "value": 0.0
        },
        {
          "id": 156,
          "value": 0.0
        },
        {
          "id": 157,
          "value": 0.0
        },
        {
          "id": 158,
          "value": 0.0
        },
        {
          "id": 159,
          "value": 0.0
        },
        {
          "id": 160,
          "value": 0.0
        },
        {
          "id": 161,
          "value": 0.0
        },
        {
          "id": 162,
          "value": 0.0
        },
        {
          "id": 163,
          "value": 0.0
        },
        {
          "id": 164,
          "value": 0.0
        },
        {
          "id": 165,
          "value": 0.0
        },
        {
          "id": 166,
          "value": 0.0
        },
        {
          "id": 167,
          "value": 0.0
        },
        {
          "id": 168,
          "value": 0.0
        },
        {
          "id": 169,
          "value": 0.0
        },
        {
          "id": 170,
          "value": 0.0
        },
        {
          "id": 171,
          "value": 0.0
        },
        {
          "id": 172,
          "value": 0.0
        },
        {
          "id": 173,
          "value": 0.0
        },
        {
          "id": 174,
          "value": 0.0
        },
        {
          "id": 175,
          "value": 0.0
        },
        {
          "id": 176,
          "value": 0.0
        },
        {
          "id": 177,
          "value": 0.0
        },
        {
          "id": 178,
          "value": 0.0
        },
        {
          "id": 179,
          "value": 0.0
        },
        {
          "id": 180,
          "value": 0.0
        },
        {
          "id": 181,
          "value": 0.0
        },
        {
          "id": 182,
          "value": 0.0
        },
        {
          "id": 183,
          "value": 0.0
        },
        {
          "id": 184,
          "value": 0.0
        },
        {
          "id": 185,
          "value": 0.0
        },
        {
          "id": 186,
          "value": 0.0
        },
        {
          "id": 187,
          "value": 0.0
        },
        {
          "id": 188,
          "value": 0.0
        },
        {
          "id": 189,
          "value": 0.0
        },
        {
          "id": 190,
          "value": 0.0
        },
        {
          "id": 191,
          "value": 1.0
        },
        {
          "id": 192,
          "value": 0.0
        },
        {
          "id": 193,
          "value": 0.0
        },
        {
          "id": 194,
          "value": 0.0
        },
        {
          "id": 195,
          "value": 0.0
        },
        {
          "id": 196,
          "value": 0.0
        },
        {
          "id": 197,
          "value": 0.0
        },
        {
          "id": 198,
          "value": 0.0
        },
        {
          "id": 199,
          "value": 0.0
        },
        {
          "id": 200,
          "value": 0.0
        },
        {
          "id": 201,
          "value": 0.0
        },
        {
          "id": 202,
          "value": 0.0
        },
        {
          "id": 203,
          "value": 0.0
        },
        {
          "id": 204,
          "value": 0.0
        },
        {
          "id": 205,
          "value": 2.42999983
        },
        {
          "id": 206,
          "value": 1.2075001
        },
        {
          "id": 207,
          "value": 0.0
        },
        {
          "id": 208,
          "value": 0.0
        },
        {
          "id": 209,
          "value": 0.0
        },
        {
          "id": 210,
          "value": 0.0
        },
        {
          "id": 211,
          "value": 0.0
        },
        {
          "id": 212,
          "value": 0.0
        },
        {
          "id": 213,
          "value": 1.0
        },
        {
          "id": 214,
          "value": 1.0
        },
        {
          "id": 215,
          "value": 1.0
        },
        {
          "id": 216,
          "value": 0.0
        },
        {
          "id": 217,
          "value": 0.0
        },
        {
          "id": 218,
          "value": 0.0
        },
        {
          "id": 219,
          "value": 0.0
        },
        {
          "id": 220,
          "value": 0.0
        },
        {
          "id": 221,
          "value": 0.0
        },
        {
          "id": 222,
          "value": 0.0
        },
        {
          "id": 223,
          "value": 0.0
        },
        {
          "id": 224,
          "value": 0.0
        },
        {
          "id": 225,
          "value": 0.0
        },
        {
          "id": 226,
          "value": 0.0
        },
        {
          "id": 227,
          "value": 0.0
        },
        {
          "id": 228,
          "value": 0.0
        },
        {
          "id": 229,
          "value": 0.0
        },
        {
          "id": 230,
          "value": 0.0
        },
        {
          "id": 231,
          "value": 0.0
        },
        {
          "id": 232,
          "value": 0.0
        },
        {
          "id": 233,
          "value": 0.0
        },
        {
          "id": 234,
          "value": 0.0
        },
        {
          "id": 235,
          "value": 0.0
        },
        {
          "id": 236,
          "value": 0.0
        },
        {
          "id": 237,
          "value": 0.0
        },
        {
          "id": 238,
          "value": 0.0
        },
        {
          "id": 239,
          "value": 0.0
        },
        {
          "id": 240,
          "value": 0.0
        },
        {
          "id": 241,
          "value": 0.0
        },
        {
          "id": 242,
          "value": 0.0
        },
        {
          "id": 243,
          "value": 0.0
        },
        {
          "id": 244,
          "value": 0.0
        },
        {
          "id": 245,
          "value": 0.0
        },
        {
          "id": 246,
          "value": 0.0
        },
        {
          "id": 247,
          "value": 0.0
        },
        {
          "id": 248,
          "value": 0.0
        },
        {
          "id": 249,
          "value": 0.0
        },
        {
          "id": 250,
          "value": 0.0
        },
        {
          "id": 251,
          "value": 0.0
        },
        {
          "id": 252,
          "value": 0.0
        },
        {
          "id": 253,
          "value": 0.0
        },
        {
          "id": 254,
          "value": 0.0
        },
        {
          "id": 255,
          "value": 0.0
        },
        {
          "id": 256,
          "value": 0.0
        },
        {
          "id": 257,
          "value": 0.0
        },
        {
          "id": 258,
          "value": 0.0
        },
        {
          "id": 259,
          "value": 0.0
        },
        {
          "id": 260,
          "value": 0.0
        },
        {
          "id": 261,
          "value": 0.0
        },
        {
          "id": 262,
          "value": 0.0
        },
        {
          "id": 263,
          "value": 0.0
        },
        {
          "id": 264,
          "value": 0.0
        },
        {
          "id": 265,
          "value": 0.0
        },
        {
          "id": 266,
          "value": 0.0
        },
        {
          "id": 267,
          "value": 0.0
        },
        {
          "id": 268,
          "value": 0.0
        },
        {
          "id": 269,
          "value": 0.0
        },
        {
          "id": 270,
          "value": 0.0
        },
        {
          "id": 271,
          "value": 0.0
        },
        {
          "id": 272,
          "value": 0.0
        },
        {
          "id": 273,
          "value": 0.0
        },
        {
          "id": 274,
          "value": 0.0
        },
        {
          "id": 275,
          "value": 0.0
        },
        {
          "id": 276,
          "value": 0.0
        },
        {
          "id": 277,
          "value": 0.0
        },
        {
          "id": 278,
          "value": 0.0
        },
        {
          "id": 279,
          "value": 0.0
        },
        {
          "id": 280,
          "value": 0.0
        },
        {
          "id": 281,
          "value": 0.0
        },
        {
          "id": 282,
          "value": 0.0
        },
        {
          "id": 283,
          "value": 0.0
        },
        {
          "id": 284,
          "value": 0.0
        },
        {
          "id": 285,
          "value": 0.0
        },
        {
          "id": 286,
          "value": 0.0
        },
        {
          "id": 287,
          "value": 0.0
        },
        {
          "id": 288,
          "value": 0.0
        },
        {
          "id": 289,
          "value": 0.0
        },
        {
          "id": 290,
          "value": 0.0
        },
        {
          "id": 291,
          "value": 0.0
        },
        {
          "id": 292,
          "value": 0.0
        },
        {
          "id": 293,
          "value": 0.0
        },
        {
          "id": 294,
          "value": 0.0
        },
        {
          "id": 295,
          "value": 0.0
        },
        {
          "id": 296,
          "value": 0.0
        },
        {
          "id": 297,
          "value": 0.0
        },
        {
          "id": 298,
          "value": 0.0
        },
        {
          "id": 299,
          "value": 1.0
        },
        {
          "id": 300,
          "value": 1.0
        },
        {
          "id": 301,
          "value": 1.0
        },
        {
          "id": 302,
          "value": 1.0
        },
        {
          "id": 303,
          "value": 1.0
        },
        {
          "id": 304,
          "value": 1.0
        },
        {
          "id": 305,
          "value": 1.0
        },
        {
          "id": 306,
          "value": 1.0
        },
        {
          "id": 307,
          "value": 0.0
        },
        {
          "id": 308,
          "value": 0.0
        },
        {
          "id": 309,
          "value": 0.0
        },
        {
          "id": 310,
          "value": 0.0
        },
        {
          "id": 311,
          "value": 0.0
        },
        {
          "id": 312,
          "value": 0.0
        },
        {
          "id": 313,
          "value": 0.0
        },
        {
          "id": 314,
          "value": 0.0
        },
        {
          "id": 315,
          "value": 0.0
        },
        {
          "id": 316,
          "value": 0.0
        },
        {
          "id": 317,
          "value": 0.0
        },
        {
          "id": 318,
          "value": 0.0
        },
        {
          "id": 319,
          "value": 0.0
        },
        {
          "id": 320,
          "value": 0.0
        },
        {
          "id": 321,
          "value": 0.0
        },
        {
          "id": 322,
          "value": 0.0
        },
        {
          "id": 323,
          "value": 0.0
        },
        {
          "id": 324,
          "value": 0.0
        },
        {
          "id": 325,
          "value": 0.0
        },
        {
          "id": 326,
          "value": 0.0
        },
        {
          "id": 327,
          "value": 0.0
        },
        {
          "id": 328,
          "value": 0.0
        },
        {
          "id": 329,
          "value": 0.0
        },
        {
          "id": 330,
          "value": 0.0
        },
        {
          "id": 331,
          "value": 0.0
        },
        {
          "id": 332,
          "value": 0.0
        }
      ],
      "leftModuleId": 772,
      "rightModuleId": 775,
      "data": {
        "channelLabels": [
          "Gate 1",
          "Gate 2",
          "Gate 3",
          "Gate 4",
          "Gate 5",
          "Gate 6",
          "Gate 7",
          "Gate 8"
        ],
        "outputLabels": [
          "pitch",
          "Knob 2",
          "Knob 3",
          "Knob 4",
          "Knob 5",
          "Knob 6",
          "Knob 7",
          "Knob 8"
        ],
        "delayEnabled": false,
        "polyMode": 0
      },
      "pos": [
        23,
        1
      ]
    },
    {
      "id": 772,
      "plugin": "Bogaudio",
      "version": "1.1.37",
      "model": "Bogaudio-OneEight",
      "params": [
        {
          "id": 0,
          "value": 8.0
        },
        {
          "id": 1,
          "value": 1.0
        },
        {
          "id": 2,
          "value": 0.0
        }
      ],
      "leftModuleId": 774,
      "rightModuleId": 771,
      "data": {
        "poly_input": 0,
        "select_on_clock": false,
        "triggered_select": false,
        "reverse_on_negative_clock": false
      },
      "pos": [
        17,
        1
      ]
    },
    {
      "id": 774,
      "plugin": "Bogaudio",
      "version": "1.1.37",
      "model": "Bogaudio-Offset",
      "params": [
        {
          "id": 0,
          "value": 1.0
        },
        {
          "id": 1,
          "value": 0.316229999
        }
      ],
      "leftModuleId": 648,
      "rightModuleId": 772,
      "data": {
        "disableOutputLimit": false,
        "offset_first": false
      },
      "pos": [
        14,
        1
      ]
    },
    {
      "id": 775,
      "plugin": "AriaSalvatrice",
      "version": "1.8.1",
      "model": "Qqqq",
      "params": [
        {
          "id": 0,
          "value": 0.0
        },
        {
          "id": 1,
          "value": 1.0
        },
        {
          "id": 2,
          "value": 0.0
        },
        {
          "id": 3,
          "value": 0.0
        },
        {
          "id": 4,
          "value": 1.0
        },
        {
          "id": 5,
          "value": 0.0
        },
        {
          "id": 6,
          "value": 0.0
        },
        {
          "id": 7,
          "value": 0.0
        },
        {
          "id": 8,
          "value": 1.0
        },
        {
          "id": 9,
          "value": 0.0
        },
        {
          "id": 10,
          "value": 0.0
        },
        {
          "id": 11,
          "value": 1.0
        },
        {
          "id": 12,
          "value": 38.2000008
        },
        {
          "id": 13,
          "value": 11.7999926
        },
        {
          "id": 14,
          "value": 100.0
        },
        {
          "id": 15,
          "value": 100.0
        },
        {
          "id": 16,
          "value": 0.0
        },
        {
          "id": 17,
          "value": 0.0
        },
        {
          "id": 18,
          "value": 0.0
        },
        {
          "id": 19,
          "value": 0.0
        },
        {
          "id": 20,
          "value": 0.0
        },
        {
          "id": 21,
          "value": -2.0
        },
        {
          "id": 22,
          "value": 0.0
        },
        {
          "id": 23,
          "value": 1.0
        },
        {
          "id": 24,
          "value": 0.0
        },
        {
          "id": 25,
          "value": 0.0
        },
        {
          "id": 26,
          "value": 2.0
        },
        {
          "id": 27,
          "value": 2.0
        },
        {
          "id": 28,
          "value": 0.0
        },
        {
          "id": 29,
          "value": 0.0
        },
        {
          "id": 30,
          "value": 0.0
        },
        {
          "id": 31,
          "value": 0.0
        },
        {
          "id": 32,
          "value": 1.0
        },
        {
          "id": 33,
          "value": 0.0
        },
        {
          "id": 34,
          "value": 0.0
        },
        {
          "id": 35,
          "value": 0.0
        },
        {
          "id": 36,
          "value": 0.0
        },
        {
          "id": 37,
          "value": 0.0
        },
        {
          "id": 38,
          "value": 0.0
        },
        {
          "id": 39,
          "value": 0.0
        },
        {
          "id": 40,
          "value": 0.0
        },
        {
          "id": 41,
          "value": 1.0
        },
        {
          "id": 42,
          "value": 0.0
        },
        {
          "id": 43,
          "value": 0.0
        },
        {
          "id": 44,
          "value": 0.0
        },
        {
          "id": 45,
          "value": 0.0
        },
        {
          "id": 46,
          "value": 0.0
        },
        {
          "id": 47,
          "value": 0.0
        },
        {
          "id": 48,
          "value": 0.0
        },
        {
          "id": 49,
          "value": 0.0
        },
        {
          "id": 50,
          "value": 0.0
        },
        {
          "id": 51,
          "value": 0.0
        },
        {
          "id": 52,
          "value": 0.0
        },
        {
          "id": 53,
          "value": 2.0
        },
        {
          "id": 54,
          "value": 0.0
        }
      ],
      "leftModuleId": 771,
      "rightModuleId": 796,
      "data": {
        "sceneTrigSelection": false,
        "scene": 5,
        "scenes": [
          [
            true,
            false,
            true,
            false,
            false,
            true,
            false,
            true,
            false,
            false,
            true,
            false
          ],
          [
            true,
            false,
            false,
            false,
            true,
            false,
            false,
            true,
            false,
            true,
            false,
            false
          ],
          [
            true,
            false,
            false,
            true,
            false,
            false,
            false,
            true,
            true,
            false,
            false,
            false
          ],
          [
            true,
            false,
            false,
            false,
            false,
            true,
            false,
            true,
            false,
            true,
            false,
            false
          ],
          [
            false,
            true,
            false,
            false,
            false,
            true,
            false,
            false,
            true,
            false,
            false,
            false
          ],
          [
            false,
            true,
            false,
            false,
            true,
            false,
            false,
            false,
            true,
            false,
            false,
            true
          ],
          [
            false,
            false,
            false,
            false,
            false,
            false,
            false,
            false,
            false,
            false,
            false,
            false
          ],
          [
            false,
            false,
            false,
            false,
            false,
            false,
            false,
            false,
            false,
            false,
            false,
            false
          ],
          [
            false,
            false,
            false,
            false,
            false,
            false,
            false,
            false,
            false,
            false,
            false,
            false
          ],
          [
            false,
            false,
            false,
            false,
            false,
            false,
            false,
            false,
            false,
            false,
            false,
            false
          ],
          [
            false,
            false,
            false,
            false,
            false,
            false,
            false,
            false,
            false,
            false,
            false,
            false
          ],
          [
            false,
            false,
            false,
            false,
            false,
            false,
            false,
            false,
            false,
            false,
            false,
            false
          ],
          [
            false,
            false,
            false,
            false,
            false,
            false,
            false,
            false,
            false,
            false,
            false,
            false
          ],
          [
            false,
            false,
            false,
            false,
            false,
            false,
            false,
            false,
            false,
            false,
            false,
            false
          ],
          [
            false,
            false,
            false,
            false,
            false,
            false,
            false,
            false,
            false,
            false,
            false,
            false
          ],
          [
            false,
            false,
            false,
            false,
            false,
            false,
            false,
            false,
            false,
            false,
            false,
            false
          ]
        ]
      },
      "pos": [
        73,
        1
      ]
    },
    {
      "id": 776,
      "plugin": "Bogaudio",
      "version": "1.1.37",
      "model": "Bogaudio-AddrSeq",
      "params": [
        {
          "id": 0,
          "value": 8.0
        },
        {
          "id": 1,
          "value": 1.0
        },
        {
          "id": 2,
          "value": 0.0
        },
        {
          "id": 3,
          "value": 0.0
        },
        {
          "id": 4,
          "value": 0.0869999975
        },
        {
          "id": 5,
          "value": 0.0
        },
        {
          "id": 6,
          "value": 0.0840000361
        },
        {
          "id": 7,
          "value": 0.192000017
        },
        {
          "id": 8,
          "value": 0.215999991
        },
        {
          "id": 9,
          "value": 0.324000001
        },
        {
          "id": 10,
          "value": 0.332999974
        }
      ],
      "leftModuleId": 784,
      "rightModuleId": 786,
      "data": {
        "poly_input": 0,
        "select_on_clock": false,
        "triggered_select": false,
        "reverse_on_negative_clock": false,
        "range_offset": 0.0,
        "range_scale": 10.0
      },
      "pos": [
        56,
        2
      ]
    },
    {
      "id": 777,
      "plugin": "Geodesics",
      "version": "1.2.0",
      "model": "Branes",
      "params": [
        {
          "id": 0,
          "value": 0.0
        },
        {
          "id": 1,
          "value": 0.0
        },
        {
          "id": 2,
          "value": 0.0
        },
        {
          "id": 3,
          "value": 0.0
        }
      ],
      "leftModuleId": 781,
      "rightModuleId": 778,
      "data": {
        "panelTheme": 1,
        "vibrations0": 0,
        "vibrations1": 0,
        "noiseRange0": 1.0,
        "noiseRange1": 0.0
      },
      "pos": [
        15,
        2
      ]
    },
    {
      "id": 778,
      "plugin": "squinkylabs-plug1",
      "version": "1.0.22",
      "model": "squinkylabs-basic",
      "params": [
        {
          "id": 0,
          "value": 4.0
        },
        {
          "id": 1,
          "value": 0.0
        },
        {
          "id": 2,
          "value": 0.0
        },
        {
          "id": 3,
          "value": 0.0
        },
        {
          "id": 4,
          "value": 50.0
        },
        {
          "id": 5,
          "value": 83.5000076
        },
        {
          "id": 6,
          "value": 3.0
        }
      ],
      "leftModuleId": 777,
      "rightModuleId": 779,
      "pos": [
        26,
        2
      ]
    },
    {
      "id": 779,
      "plugin": "squinkylabs-plug1",
      "version": "1.0.22",
      "model": "squinkylabs-basic",
      "params": [
        {
          "id": 0,
          "value": 4.0
        },
        {
          "id": 1,
          "value": 0.0
        },
        {
          "id": 2,
          "value": 0.0
        },
        {
          "id": 3,
          "value": 0.0
        },
        {
          "id": 4,
          "value": 50.0
        },
        {
          "id": 5,
          "value": 0.0
        },
        {
          "id": 6,
          "value": 0.0
        }
      ],
      "leftModuleId": 778,
      "rightModuleId": 782,
      "pos": [
        29,
        2
      ]
    },
    {
      "id": 781,
      "plugin": "Geodesics",
      "version": "1.2.0",
      "model": "Energy",
      "params": [
        {
          "id": 0,
          "value": 0.0
        },
        {
          "id": 1,
          "value": 0.0
        },
        {
          "id": 2,
          "value": 0.0
        },
        {
          "id": 3,
          "value": 0.0
        },
        {
          "id": 4,
          "value": 0.0
        },
        {
          "id": 5,
          "value": -0.387000382
        },
        {
          "id": 6,
          "value": 0.513000011
        },
        {
          "id": 7,
          "value": 0.233999997
        },
        {
          "id": 8,
          "value": 0.599999845
        },
        {
          "id": 9,
          "value": 0.0
        }
      ],
      "leftModuleId": 811,
      "rightModuleId": 777,
      "data": {
        "panelTheme": 1,
        "oscM_phase": 1214166240,
        "oscC_phase": 3867707392,
        "osc1M_phase": 0,
        "osc1C_phase": 0,
        "osc2M_phase": 0,
        "osc2C_phase": 0,
        "osc3M_phase": 0,
        "osc3C_phase": 0,
        "osc4M_phase": 0,
        "osc4C_phase": 0,
        "osc5M_phase": 0,
        "osc5C_phase": 0,
        "osc6M_phase": 0,
        "osc6C_phase": 0,
        "osc7M_phase": 0,
        "osc7C_phase": 0,
        "osc8M_phase": 0,
        "osc8C_phase": 0,
        "osc9M_phase": 0,
        "osc9C_phase": 0,
        "osc10M_phase": 0,
        "osc10C_phase": 0,
        "osc11M_phase": 0,
        "osc11C_phase": 0,
        "osc12M_phase": 0,
        "osc12C_phase": 0,
        "osc13M_phase": 0,
        "osc13C_phase": 0,
        "osc14M_phase": 0,
        "osc14C_phase": 0,
        "osc15M_phase": 0,
        "osc15C_phase": 0,
        "routing": 1,
        "planck0": 2,
        "planck1": 3,
        "modtype0": 1,
        "modtype1": 1,
        "cross": 0
      },
      "pos": [
        8,
        2
      ]
    },
    {
      "id": 782,
      "plugin": "VultModulesFree",
      "version": "1.18",
      "model": "Unstabile",
      "params": [
        {
          "id": 0,
          "value": 0.572000086
        },
        {
          "id": 1,
          "value": 0.375
        },
        {
          "id": 2,
          "value": 0.345000029
        },
        {
          "id": 3,
          "value": 0.438000053
        },
        {
          "id": 4,
          "value": 0.0109999971
        },
        {
          "id": 5,
          "value": 1.0
        },
        {
          "id": 6,
          "value": 1.1220001
        },
        {
          "id": 7,
          "value": 0.357000202
        }
      ],
      "leftModuleId": 779,
      "rightModuleId": 783,
      "pos": [
        32,
        2
      ]
    },
    {
      "id": 783,
      "plugin": "Geodesics",
      "version": "1.2.0",
      "model": "Pulsars",
      "params": [
        {
          "id": 0,
          "value": 0.0
        },
        {
          "id": 1,
          "value": 0.0
        },
        {
          "id": 2,
          "value": 0.0
        },
        {
          "id": 3,
          "value": 0.0
        },
        {
          "id": 4,
          "value": 0.0
        },
        {
          "id": 5,
          "value": 0.0
        },
        {
          "id": 6,
          "value": 0.0
        },
        {
          "id": 7,
          "value": 0.0
        }
      ],
      "leftModuleId": 782,
      "rightModuleId": 784,
      "data": {
        "panelTheme": 1,
        "isVoid0": 0.0,
        "isVoid1": 0.0,
        "isReverse0": 0.0,
        "isReverse1": 0.0,
        "isRandom0": 0.0,
        "isRandom1": 0.0,
        "cvMode0": 0,
        "cvMode1": 0
      },
      "pos": [
        42,
        2
      ]
    },
    {
      "id": 784,
      "plugin": "Bogaudio",
      "version": "1.1.37",
      "model": "Bogaudio-LLFO",
      "params": [
        {
          "id": 0,
          "value": -1.34550023
        },
        {
          "id": 1,
          "value": 0.0
        },
        {
          "id": 2,
          "value": 0.0
        },
        {
          "id": 3,
          "value": 0.0
        },
        {
          "id": 4,
          "value": 1.0
        }
      ],
      "leftModuleId": 783,
      "rightModuleId": 776,
      "data": {
        "output_sampling": 0.0,
        "pulse_width": -0.851063788,
        "smoothing": 0.0
      },
      "pos": [
        53,
        2
      ]
    },
    {
      "id": 785,
      "plugin": "Valley",
      "version": "1.1.7",
      "model": "uGraph",
      "params": [
        {
          "id": 0,
          "value": 0.0
        },
        {
          "id": 1,
          "value": 0.0
        },
        {
          "id": 2,
          "value": 0.0
        },
        {
          "id": 3,
          "value": 0.232499972
        },
        {
          "id": 4,
          "value": 0.258000016
        },
        {
          "id": 5,
          "value": 0.333000004
        },
        {
          "id": 6,
          "value": 0.5
        },
        {
          "id": 7,
          "value": 0.5
        },
        {
          "id": 8,
          "value": 0.5
        },
        {
          "id": 9,
          "value": 0.0
        }
      ],
      "leftModuleId": 787,
      "rightModuleId": 788,
      "data": {
        "sequencerMode": 2,
        "triggerOutputMode": 0,
        "accOutputMode": 0,
        "extClockResolution": 0,
        "chaosKnobMode": 0,
        "runMode": 0,
        "panelStyle": 0,
        "running": 1
      },
      "pos": [
        72,
        2
      ]
    },
    {
      "id": 786,
      "plugin": "Bogaudio",
      "version": "1.1.37",
      "model": "Bogaudio-RGate",
      "params": [
        {
          "id": 0,
          "value": 0.0830000192
        },
        {
          "id": 1,
          "value": 0.0
        },
        {
          "id": 2,
          "value": 0.128999993
        }
      ],
      "leftModuleId": 776,
      "rightModuleId": 787,
      "data": {
        "range_offset": 1.0,
        "range_scale": 5.0,
        "reset_mode": 0,
        "initial_clock_seconds": 0.5,
        "poly_input": 4
      },
      "pos": [
        62,
        2
      ]
    },
    {
      "id": 787,
      "plugin": "Bogaudio",
      "version": "1.1.37",
      "model": "Bogaudio-RGate",
      "params": [
        {
          "id": 0,
          "value": 0.0
        },
        {
          "id": 1,
          "value": 0.0
        },
        {
          "id": 2,
          "value": 0.181500003
        }
      ],
      "leftModuleId": 786,
      "rightModuleId": 785,
      "data": {
        "range_offset": 1.0,
        "range_scale": 5.0,
        "reset_mode": 0,
        "initial_clock_seconds": 0.5,
        "poly_input": 4
      },
      "pos": [
        67,
        2
      ]
    },
    {
      "id": 788,
      "plugin": "Bogaudio",
      "version": "1.1.37",
      "model": "Bogaudio-AD",
      "params": [
        {
          "id": 0,
          "value": 0.0
        },
        {
          "id": 1,
          "value": 0.109229982
        },
        {
          "id": 2,
          "value": 0.0
        },
        {
          "id": 3,
          "value": 0.0
        },
        {
          "id": 4,
          "value": 1.0
        }
      ],
      "leftModuleId": 785,
      "rightModuleId": 789,
      "data": {
        "invert": 1.0
      },
      "pos": [
        82,
        2
      ]
    },
    {
      "id": 789,
      "plugin": "Bogaudio",
      "version": "1.1.37",
      "model": "Bogaudio-AD",
      "params": [
        {
          "id": 0,
          "value": 0.0
        },
        {
          "id": 1,
          "value": 0.143729985
        },
        {
          "id": 2,
          "value": 0.0
        },
        {
          "id": 3,
          "value": 0.0
        },
        {
          "id": 4,
          "value": 0.0
        }
      ],
      "leftModuleId": 788,
      "rightModuleId": 790,
      "data": {
        "invert": 1.0
      },
      "pos": [
        85,
        2
      ]
    },
    {
      "id": 790,
      "plugin": "Geodesics",
      "version": "1.2.0",
      "model": "Energy",
      "params": [
        {
          "id": 0,
          "value": 0.0
        },
        {
          "id": 1,
          "value": 0.0
        },
        {
          "id": 2,
          "value": 0.0
        },
        {
          "id": 3,
          "value": 0.0
        },
        {
          "id": 4,
          "value": 0.0
        },
        {
          "id": 5,
          "value": 0.0
        },
        {
          "id": 6,
          "value": 0.0
        },
        {
          "id": 7,
          "value": 0.357000053
        },
        {
          "id": 8,
          "value": 0.414000034
        },
        {
          "id": 9,
          "value": 0.0
        }
      ],
      "leftModuleId": 789,
      "rightModuleId": 794,
      "data": {
        "panelTheme": 1,
        "oscM_phase": 2537587552,
        "oscC_phase": 2537587552,
        "osc1M_phase": 3078348400,
        "osc1C_phase": 3078348400,
        "osc2M_phase": 2192750464,
        "osc2C_phase": 2192750464,
        "osc3M_phase": 3514162992,
        "osc3C_phase": 3514162992,
        "osc4M_phase": 0,
        "osc4C_phase": 0,
        "osc5M_phase": 0,
        "osc5C_phase": 0,
        "osc6M_phase": 0,
        "osc6C_phase": 0,
        "osc7M_phase": 0,
        "osc7C_phase": 0,
        "osc8M_phase": 0,
        "osc8C_phase": 0,
        "osc9M_phase": 0,
        "osc9C_phase": 0,
        "osc10M_phase": 0,
        "osc10C_phase": 0,
        "osc11M_phase": 0,
        "osc11C_phase": 0,
        "osc12M_phase": 0,
        "osc12C_phase": 0,
        "osc13M_phase": 0,
        "osc13C_phase": 0,
        "osc14M_phase": 0,
        "osc14C_phase": 0,
        "osc15M_phase": 0,
        "osc15C_phase": 0,
        "routing": 1,
        "planck0": 2,
        "planck1": 0,
        "modtype0": 1,
        "modtype1": 1,
        "cross": 0
      },
      "pos": [
        88,
        2
      ]
    },
    {
      "id": 794,
      "plugin": "NYSTHI",
      "version": "1.0.17",
      "model": "AttackSustainRelease4",
      "params": [
        {
          "id": 0,
          "value": 0.0
        },
        {
          "id": 1,
          "value": 0.100000001
        },
        {
          "id": 2,
          "value": 0.0
        },
        {
          "id": 3,
          "value": 1.0
        },
        {
          "id": 4,
          "value": 0.5
        },
        {
          "id": 5,
          "value": 0.0
        },
        {
          "id": 6,
          "value": 0.0
        },
        {
          "id": 7,
          "value": 0.0
        },
        {
          "id": 8,
          "value": 0.0
        },
        {
          "id": 9,
          "value": 0.0
        },
        {
          "id": 10,
          "value": 0.0
        },
        {
          "id": 11,
          "value": 0.0
        },
        {
          "id": 12,
          "value": 0.0
        },
        {
          "id": 13,
          "value": 0.0
        },
        {
          "id": 14,
          "value": 0.0
        },
        {
          "id": 15,
          "value": 0.0
        },
        {
          "id": 16,
          "value": 0.0
        },
        {
          "id": 17,
          "value": 0.0
        },
        {
          "id": 18,
          "value": 0.0
        },
        {
          "id": 19,
          "value": 0.0
        },
        {
          "id": 20,
          "value": 0.0
        },
        {
          "id": 21,
          "value": 0.0
        },
        {
          "id": 22,
          "value": 0.015999997
        },
        {
          "id": 23,
          "value": 0.0460000038
        },
        {
          "id": 24,
          "value": 0.0
        },
        {
          "id": 25,
          "value": 0.00850000046
        },
        {
          "id": 26,
          "value": 0.100000001
        },
        {
          "id": 27,
          "value": 0.100000001
        },
        {
          "id": 28,
          "value": 0.100000001
        },
        {
          "id": 29,
          "value": 0.100000001
        },
        {
          "id": 30,
          "value": 0.100000001
        },
        {
          "id": 31,
          "value": 0.100000001
        },
        {
          "id": 32,
          "value": 0.100000001
        },
        {
          "id": 33,
          "value": 0.100000001
        },
        {
          "id": 34,
          "value": 0.100000001
        },
        {
          "id": 35,
          "value": 0.100000001
        },
        {
          "id": 36,
          "value": 0.100000001
        },
        {
          "id": 37,
          "value": 0.100000001
        },
        {
          "id": 38,
          "value": 0.0
        },
        {
          "id": 39,
          "value": 0.5
        },
        {
          "id": 40,
          "value": 0.5
        },
        {
          "id": 41,
          "value": 0.5
        },
        {
          "id": 42,
          "value": 0.5
        },
        {
          "id": 43,
          "value": 0.5
        },
        {
          "id": 44,
          "value": 0.5
        },
        {
          "id": 45,
          "value": 0.5
        },
        {
          "id": 46,
          "value": 0.5
        },
        {
          "id": 47,
          "value": 0.5
        },
        {
          "id": 48,
          "value": 0.5
        },
        {
          "id": 49,
          "value": 0.5
        },
        {
          "id": 50,
          "value": 0.5
        },
        {
          "id": 51,
          "value": 0.5
        },
        {
          "id": 52,
          "value": 0.5
        },
        {
          "id": 53,
          "value": 0.5
        },
        {
          "id": 54,
          "value": 0.5
        },
        {
          "id": 55,
          "value": 0.0
        },
        {
          "id": 56,
          "value": 1.0
        },
        {
          "id": 57,
          "value": 1.0
        },
        {
          "id": 58,
          "value": 1.0
        },
        {
          "id": 59,
          "value": 1.0
        },
        {
          "id": 60,
          "value": 1.0
        },
        {
          "id": 61,
          "value": 1.0
        },
        {
          "id": 62,
          "value": 1.0
        },
        {
          "id": 63,
          "value": 1.0
        },
        {
          "id": 64,
          "value": 1.0
        },
        {
          "id": 65,
          "value": 1.0
        },
        {
          "id": 66,
          "value": 1.0
        },
        {
          "id": 67,
          "value": 1.0
        },
        {
          "id": 68,
          "value": 1.0
        },
        {
          "id": 69,
          "value": 1.0
        },
        {
          "id": 70,
          "value": 1.0
        },
        {
          "id": 71,
          "value": 1.0
        },
        {
          "id": 72,
          "value": 0.0
        },
        {
          "id": 73,
          "value": 0.0
        },
        {
          "id": 74,
          "value": 0.0
        },
        {
          "id": 75,
          "value": 0.0
        },
        {
          "id": 76,
          "value": 0.0
        },
        {
          "id": 77,
          "value": 0.0
        },
        {
          "id": 78,
          "value": 0.0
        },
        {
          "id": 79,
          "value": 0.0
        },
        {
          "id": 80,
          "value": 0.0
        },
        {
          "id": 81,
          "value": 0.0
        },
        {
          "id": 82,
          "value": 0.0
        },
        {
          "id": 83,
          "value": 0.0
        },
        {
          "id": 84,
          "value": 0.0
        },
        {
          "id": 85,
          "value": 0.0
        },
        {
          "id": 86,
          "value": 0.0
        },
        {
          "id": 87,
          "value": 0.0
        },
        {
          "id": 88,
          "value": 0.0
        },
        {
          "id": 89,
          "value": 0.0
        },
        {
          "id": 90,
          "value": 0.0
        },
        {
          "id": 91,
          "value": 0.0
        },
        {
          "id": 92,
          "value": 0.0
        },
        {
          "id": 93,
          "value": 0.0
        },
        {
          "id": 94,
          "value": 0.0
        },
        {
          "id": 95,
          "value": 0.0
        },
        {
          "id": 96,
          "value": 0.0
        },
        {
          "id": 97,
          "value": 0.0
        },
        {
          "id": 98,
          "value": 0.0
        },
        {
          "id": 99,
          "value": 0.0
        },
        {
          "id": 100,
          "value": 0.0
        },
        {
          "id": 101,
          "value": 0.0
        },
        {
          "id": 102,
          "value": 0.0
        },
        {
          "id": 103,
          "value": 0.0
        },
        {
          "id": 104,
          "value": 0.0
        },
        {
          "id": 105,
          "value": 0.0
        },
        {
          "id": 106,
          "value": 0.0
        },
        {
          "id": 107,
          "value": 0.0
        },
        {
          "id": 108,
          "value": 0.0
        },
        {
          "id": 109,
          "value": 0.0
        },
        {
          "id": 110,
          "value": 0.0
        },
        {
          "id": 111,
          "value": 0.0
        },
        {
          "id": 112,
          "value": 0.0
        },
        {
          "id": 113,
          "value": 0.0
        },
        {
          "id": 114,
          "value": 0.0
        },
        {
          "id": 115,
          "value": 0.0
        },
        {
          "id": 116,
          "value": 0.0
        },
        {
          "id": 117,
          "value": 0.0
        },
        {
          "id": 118,
          "value": 0.0
        },
        {
          "id": 119,
          "value": 0.0
        },
        {
          "id": 120,
          "value": 0.0
        },
        {
          "id": 121,
          "value": 0.0
        },
        {
          "id": 122,
          "value": 0.0
        },
        {
          "id": 123,
          "value": 0.0
        },
        {
          "id": 124,
          "value": 0.0
        },
        {
          "id": 125,
          "value": 0.0
        },
        {
          "id": 126,
          "value": 0.0
        },
        {
          "id": 127,
          "value": 0.0
        },
        {
          "id": 128,
          "value": 0.0
        },
        {
          "id": 129,
          "value": 0.0
        },
        {
          "id": 130,
          "value": 0.0
        },
        {
          "id": 131,
          "value": 0.0
        },
        {
          "id": 132,
          "value": 0.0
        },
        {
          "id": 133,
          "value": 0.0
        },
        {
          "id": 134,
          "value": 0.0
        },
        {
          "id": 135,
          "value": 0.0
        },
        {
          "id": 136,
          "value": 0.0
        },
        {
          "id": 137,
          "value": 0.0
        },
        {
          "id": 138,
          "value": 0.0
        },
        {
          "id": 139,
          "value": 0.0
        },
        {
          "id": 140,
          "value": 0.0
        },
        {
          "id": 141,
          "value": 0.0
        },
        {
          "id": 142,
          "value": 0.0
        },
        {
          "id": 143,
          "value": 0.0
        },
        {
          "id": 144,
          "value": 0.0
        },
        {
          "id": 145,
          "value": 0.0
        },
        {
          "id": 146,
          "value": 0.0
        },
        {
          "id": 147,
          "value": 0.0
        },
        {
          "id": 148,
          "value": 0.0
        },
        {
          "id": 149,
          "value": 0.0
        },
        {
          "id": 150,
          "value": 0.0
        },
        {
          "id": 151,
          "value": 0.0
        },
        {
          "id": 152,
          "value": 0.0
        },
        {
          "id": 153,
          "value": 0.0
        },
        {
          "id": 154,
          "value": 0.0
        },
        {
          "id": 155,
          "value": 0.0
        },
        {
          "id": 156,
          "value": 0.0
        },
        {
          "id": 157,
          "value": 0.0
        },
        {
          "id": 158,
          "value": 0.0
        },
        {
          "id": 159,
          "value": 0.0
        },
        {
          "id": 160,
          "value": 0.0
        },
        {
          "id": 161,
          "value": 0.0
        },
        {
          "id": 162,
          "value": 0.0
        },
        {
          "id": 163,
          "value": 0.0
        },
        {
          "id": 164,
          "value": 0.0
        },
        {
          "id": 165,
          "value": 0.0
        },
        {
          "id": 166,
          "value": 0.0
        },
        {
          "id": 167,
          "value": 0.0
        },
        {
          "id": 168,
          "value": 0.0
        },
        {
          "id": 169,
          "value": 0.0
        },
        {
          "id": 170,
          "value": 0.0
        },
        {
          "id": 171,
          "value": 0.0
        },
        {
          "id": 172,
          "value": 0.0
        },
        {
          "id": 173,
          "value": 0.0
        },
        {
          "id": 174,
          "value": 0.0
        }
      ],
      "leftModuleId": 790,
      "rightModuleId": 795,
      "data": {
        "m_looped0": false,
        "m_unitysummed0": false,
        "m_armode0": true,
        "m_busy0": true,
        "m_zero0": false,
        "m_looped1": false,
        "m_unitysummed1": false,
        "m_armode1": true,
        "m_busy1": true,
        "m_zero1": false,
        "m_looped2": false,
        "m_unitysummed2": false,
        "m_armode2": true,
        "m_busy2": true,
        "m_zero2": false,
        "m_looped3": false,
        "m_unitysummed3": false,
        "m_armode3": true,
        "m_busy3": true,
        "m_zero3": false,
        "m_looped4": false,
        "m_unitysummed4": false,
        "m_armode4": true,
        "m_busy4": false,
        "m_zero4": false,
        "m_looped5": false,
        "m_unitysummed5": false,
        "m_armode5": true,
        "m_busy5": false,
        "m_zero5": false,
        "m_looped6": false,
        "m_unitysummed6": false,
        "m_armode6": true,
        "m_busy6": false,
        "m_zero6": false,
        "m_looped7": false,
        "m_unitysummed7": false,
        "m_armode7": true,
        "m_busy7": false,
        "m_zero7": false,
        "m_looped8": false,
        "m_unitysummed8": false,
        "m_armode8": true,
        "m_busy8": false,
        "m_zero8": false,
        "m_looped9": false,
        "m_unitysummed9": false,
        "m_armode9": true,
        "m_busy9": false,
        "m_zero9": false,
        "m_looped10": false,
        "m_unitysummed10": false,
        "m_armode10": true,
        "m_busy10": false,
        "m_zero10": false,
        "m_looped11": false,
        "m_unitysummed11": false,
        "m_armode11": true,
        "m_busy11": false,
        "m_zero11": false,
        "m_looped12": false,
        "m_unitysummed12": false,
        "m_armode12": true,
        "m_busy12": false,
        "m_zero12": false,
        "m_looped13": false,
        "m_unitysummed13": false,
        "m_armode13": true,
        "m_busy13": false,
        "m_zero13": false,
        "m_looped14": false,
        "m_unitysummed14": false,
        "m_armode14": true,
        "m_busy14": false,
        "m_zero14": false,
        "m_looped15": false,
        "m_unitysummed15": false,
        "m_armode15": true,
        "m_busy15": false,
        "m_zero15": false
      },
      "pos": [
        95,
        2
      ]
    },
    {
      "id": 795,
      "plugin": "GrandeModular",
      "version": "1.9.0",
      "model": "MergeSplit4",
      "params": [],
      "leftModuleId": 794,
      "rightModuleId": 805,
      "data": {
        "channels_merge": -1
      },
      "pos": [
        104,
        2
      ]
    },
    {
      "id": 796,
      "plugin": "GrandeModular",
      "version": "1.9.0",
      "model": "MergeSplit4",
      "params": [],
      "leftModuleId": 775,
      "rightModuleId": 797,
      "data": {
        "channels_merge": -1
      },
      "pos": [
        93,
        1
      ]
    },
    {
      "id": 797,
      "plugin": "GrandeModular",
      "version": "1.9.0",
      "model": "MergeSplit4",
      "params": [],
      "leftModuleId": 796,
      "rightModuleId": 804,
      "data": {
        "channels_merge": -1
      },
      "pos": [
        95,
        1
      ]
    },
    {
      "id": 799,
      "plugin": "Bogaudio",
      "version": "1.1.37",
      "model": "Bogaudio-VCF",
      "params": [
        {
          "id": 0,
          "value": 0.546110094
        },
        {
          "id": 1,
          "value": 0.437999994
        },
        {
          "id": 2,
          "value": 0.634500027
        },
        {
          "id": 3,
          "value": 0.613500059
        },
        {
          "id": 4,
          "value": 0.0
        },
        {
          "id": 5,
          "value": 0.522233009
        }
      ],
      "leftModuleId": 647,
      "rightModuleId": 801,
      "data": {
        "bandwidthMode": "pitched"
      },
      "pos": [
        75,
        0
      ]
    },
    {
      "id": 801,
      "plugin": "Bogaudio",
      "version": "1.1.37",
      "model": "Bogaudio-LVCF",
      "params": [
        {
          "id": 0,
          "value": 0.223609999
        },
        {
          "id": 1,
          "value": 0.263999969
        },
        {
          "id": 2,
          "value": 0.685499966
        },
        {
          "id": 3,
          "value": 0.0
        }
      ],
      "leftModuleId": 799,
      "rightModuleId": 802,
      "data": {
        "poles": 4,
        "bandwidthMode": "pitched"
      },
      "pos": [
        85,
        0
      ]
    },
    {
      "id": 802,
      "plugin": "AudibleInstruments",
      "version": "1.5.0",
      "model": "Branches",
      "params": [
        {
          "id": 0,
          "value": 0.731000066
        },
        {
          "id": 1,
          "value": 0.5
        },
        {
          "id": 2,
          "value": 0.0
        },
        {
          "id": 3,
          "value": 0.0
        }
      ],
      "leftModuleId": 801,
      "rightModuleId": 807,
      "data": {
        "modes": [
          false,
          false
        ]
      },
      "pos": [
        88,
        0
      ]
    },
    {
      "id": 804,
      "plugin": "Geodesics",
      "version": "1.2.0",
      "model": "BlackHoles",
      "params": [
        {
          "id": 0,
          "value": 1.0
        },
        {
          "id": 1,
          "value": 0.512999952
        },
        {
          "id": 2,
          "value": 0.0
        },
        {
          "id": 3,
          "value": 0.0
        },
        {
          "id": 4,
          "value": 0.0
        },
        {
          "id": 5,
          "value": 0.0
        },
        {
          "id": 6,
          "value": 0.0
        },
        {
          "id": 7,
          "value": 0.0
        },
        {
          "id": 8,
          "value": 0.0
        },
        {
          "id": 9,
          "value": 0.0
        },
        {
          "id": 10,
          "value": 0.0
        },
        {
          "id": 11,
          "value": 0.0
        },
        {
          "id": 12,
          "value": 0.0
        }
      ],
      "leftModuleId": 797,
      "data": {
        "panelTheme": 1,
        "isExponential0": 0.0,
        "isExponential1": 0.0,
        "wormhole": true,
        "cvMode": 3
      },
      "pos": [
        97,
        1
      ]
    },
    {
      "id": 805,
      "plugin": "rackwindows",
      "version": "1.1.2",
      "model": "bitshiftgain",
      "params": [
        {
          "id": 0,
          "value": 1.0
        },
        {
          "id": 1,
          "value": 0.0
        },
        {
          "id": 2,
          "value": 0.0
        }
      ],
      "leftModuleId": 795,
      "rightModuleId": 809,
      "pos": [
        106,
        2
      ]
    },
    {
      "id": 807,
      "plugin": "Hora-treasureFree",
      "version": "1.0.3",
      "model": "Deep",
      "params": [
        {
          "id": 0,
          "value": 0.742600083
        },
        {
          "id": 1,
          "value": 0.980000019
        },
        {
          "id": 2,
          "value": 0.0
        },
        {
          "id": 3,
          "value": 0.0626000017
        },
        {
          "id": 4,
          "value": 0.800000012
        },
        {
          "id": 5,
          "value": 0.852000058
        },
        {
          "id": 6,
          "value": 2.5892005
        },
        {
          "id": 7,
          "value": 0.600000024
        },
        {
          "id": 8,
          "value": 0.800000012
        },
        {
          "id": 9,
          "value": 0.267750055
        },
        {
          "id": 10,
          "value": 1.0
        },
        {
          "id": 11,
          "value": 0.5
        },
        {
          "id": 12,
          "value": 0.514800012
        },
        {
          "id": 13,
          "value": 0.0
        }
      ],
      "leftModuleId": 802,
      "rightModuleId": 808,
      "pos": [
        94,
        0
      ]
    },
    {
      "id": 808,
      "plugin": "Hora-treasureFree",
      "version": "1.0.3",
      "model": "HiHat",
      "params": [
        {
          "id": 0,
          "value": 0.5
        },
        {
          "id": 1,
          "value": 0.600000024
        },
        {
          "id": 2,
          "value": 0.730440021
        },
        {
          "id": 3,
          "value": 0.0
        },
        {
          "id": 4,
          "value": 0.233549997
        },
        {
          "id": 5,
          "value": 0.791999936
        },
        {
          "id": 6,
          "value": 1.25049996
        },
        {
          "id": 7,
          "value": 0.800000012
        },
        {
          "id": 8,
          "value": 0.800000012
        },
        {
          "id": 9,
          "value": 0.600000024
        },
        {
          "id": 10,
          "value": 0.762849867
        },
        {
          "id": 11,
          "value": 0.421000004
        }
      ],
      "leftModuleId": 807,
      "rightModuleId": 360,
      "pos": [
        102,
        0
      ]
    },
    {
      "id": 809,
      "plugin": "LindenbergResearch",
      "version": "1.3.3",
      "model": "BlankPanel_Wood",
      "params": [],
      "leftModuleId": 805,
      "gestaltID": 1,
      "gradient": false,
      "patina": false,
      "patina_i_x": false,
      "patina_i_y": false,
      "patina_a_x": 1048.69849,
      "patina_a_y": 465.392822,
      "overlay": false,
      "overlay_r": 0.981048167,
      "overlay_g": 0.913075805,
      "overlay_b": 0.158463836,
      "overlay_a": 0.268055558,
      "AGED": false,
      "screws": true,
      "logo": false,
      "pos": [
        110,
        2
      ]
    },
    {
      "id": 810,
      "plugin": "LindenbergResearch",
      "version": "1.3.3",
      "model": "BlankPanel_Wood",
      "params": [],
      "rightModuleId": 811,
      "gestaltID": 1,
      "gradient": false,
      "patina": false,
      "patina_i_x": true,
      "patina_i_y": false,
      "patina_a_x": 732.980896,
      "patina_a_y": 232.628174,
      "overlay": false,
      "overlay_r": 0.2973786,
      "overlay_g": 0.812281251,
      "overlay_b": 0.297147036,
      "overlay_a": 0.280200213,
      "AGED": false,
      "screws": true,
      "logo": false,
      "pos": [
        0,
        2
      ]
    },
    {
      "id": 811,
      "plugin": "Geodesics",
      "version": "1.2.0",
      "model": "Blank-PanelLogo",
      "params": [
        {
          "id": 0,
          "value": 1.0
        }
      ],
      "leftModuleId": 810,
      "rightModuleId": 781,
      "data": {
        "panelTheme": 1
      },
      "pos": [
        4,
        2
      ]
    }
  ],
  "cables": [
    {
      "id": 1053,
      "outputModuleId": 375,
      "outputId": 0,
      "inputModuleId": 1,
      "inputId": 0,
      "color": "#db6443"
    },
    {
      "id": 1054,
      "outputModuleId": 375,
      "outputId": 1,
      "inputModuleId": 1,
      "inputId": 1,
      "color": "#db6443"
    },
    {
      "id": 1063,
      "outputModuleId": 375,
      "outputId": 10,
      "inputModuleId": 384,
      "inputId": 0,
      "color": "#db6443"
    },
    {
      "id": 1064,
      "outputModuleId": 375,
      "outputId": 11,
      "inputModuleId": 384,
      "inputId": 1,
      "color": "#db6443"
    },
    {
      "id": 1065,
      "outputModuleId": 384,
      "outputId": 0,
      "inputModuleId": 375,
      "inputId": 34,
      "color": "#e07a5f"
    },
    {
      "id": 1066,
      "outputModuleId": 384,
      "outputId": 1,
      "inputModuleId": 375,
      "inputId": 35,
      "color": "#db6443"
    },
    {
      "id": 1367,
      "outputModuleId": 772,
      "outputId": 0,
      "inputModuleId": 771,
      "inputId": 0,
      "color": "#3d405b"
    },
    {
      "id": 1368,
      "outputModuleId": 772,
      "outputId": 1,
      "inputModuleId": 771,
      "inputId": 1,
      "color": "#3d405b"
    },
    {
      "id": 1369,
      "outputModuleId": 772,
      "outputId": 2,
      "inputModuleId": 771,
      "inputId": 2,
      "color": "#3d405b"
    },
    {
      "id": 1370,
      "outputModuleId": 772,
      "outputId": 3,
      "inputModuleId": 771,
      "inputId": 3,
      "color": "#3d405b"
    },
    {
      "id": 1371,
      "outputModuleId": 772,
      "outputId": 4,
      "inputModuleId": 771,
      "inputId": 4,
      "color": "#3d405b"
    },
    {
      "id": 1372,
      "outputModuleId": 772,
      "outputId": 5,
      "inputModuleId": 771,
      "inputId": 5,
      "color": "#3d405b"
    },
    {
      "id": 1373,
      "outputModuleId": 772,
      "outputId": 6,
      "inputModuleId": 771,
      "inputId": 6,
      "color": "#3d405b"
    },
    {
      "id": 1374,
      "outputModuleId": 772,
      "outputId": 7,
      "inputModuleId": 771,
      "inputId": 7,
      "color": "#3d405b"
    },
    {
      "id": 1375,
      "outputModuleId": 774,
      "outputId": 0,
      "inputModuleId": 772,
      "inputId": 3,
      "color": "#3d405b"
    },
    {
      "id": 1377,
      "outputModuleId": 776,
      "outputId": 0,
      "inputModuleId": 775,
      "inputId": 9,
      "color": "#3d405b"
    },
    {
      "id": 1378,
      "outputModuleId": 648,
      "outputId": 1,
      "inputModuleId": 777,
      "inputId": 14,
      "color": "#e0d8a3"
    },
    {
      "id": 1379,
      "outputModuleId": 777,
      "outputId": 2,
      "inputModuleId": 775,
      "inputId": 0,
      "color": "#e0d8a3"
    },
    {
      "id": 1380,
      "outputModuleId": 775,
      "outputId": 0,
      "inputModuleId": 778,
      "inputId": 0,
      "color": "#e0d8a3"
    },
    {
      "id": 1383,
      "outputModuleId": 648,
      "outputId": 3,
      "inputModuleId": 776,
      "inputId": 0,
      "color": "#81b29a"
    },
    {
      "id": 1384,
      "outputModuleId": 648,
      "outputId": 4,
      "inputModuleId": 776,
      "inputId": 1,
      "color": "#3d405b"
    },
    {
      "id": 1385,
      "outputModuleId": 648,
      "outputId": 4,
      "inputModuleId": 772,
      "inputId": 1,
      "color": "#3d405b"
    },
    {
      "id": 1386,
      "outputModuleId": 648,
      "outputId": 3,
      "inputModuleId": 772,
      "inputId": 0,
      "color": "#e0d8a3"
    },
    {
      "id": 1387,
      "outputModuleId": 777,
      "outputId": 3,
      "inputModuleId": 775,
      "inputId": 1,
      "color": "#e0d8a3"
    },
    {
      "id": 1388,
      "outputModuleId": 648,
      "outputId": 2,
      "inputModuleId": 775,
      "inputId": 5,
      "color": "#3d405b"
    },
    {
      "id": 1389,
      "outputModuleId": 775,
      "outputId": 1,
      "inputModuleId": 779,
      "inputId": 0,
      "color": "#e0d8a3"
    },
    {
      "id": 1390,
      "outputModuleId": 779,
      "outputId": 0,
      "inputModuleId": 375,
      "inputId": 1,
      "color": "#e07a5f"
    },
    {
      "id": 1391,
      "outputModuleId": 779,
      "outputId": 0,
      "inputModuleId": 778,
      "inputId": 2,
      "color": "#e07a5f"
    },
    {
      "id": 1394,
      "outputModuleId": 781,
      "outputId": 0,
      "inputModuleId": 777,
      "inputId": 2,
      "color": "#e0d8a3"
    },
    {
      "id": 1395,
      "outputModuleId": 781,
      "outputId": 0,
      "inputModuleId": 647,
      "inputId": 0,
      "color": "#3d405b"
    },
    {
      "id": 1397,
      "outputModuleId": 771,
      "outputId": 1,
      "inputModuleId": 778,
      "inputId": 1,
      "color": "#81b29a"
    },
    {
      "id": 1398,
      "outputModuleId": 771,
      "outputId": 2,
      "inputModuleId": 781,
      "inputId": 5,
      "color": "#e07a5f"
    },
    {
      "id": 1396,
      "outputModuleId": 771,
      "outputId": 0,
      "inputModuleId": 781,
      "inputId": 0,
      "color": "#e07a5f"
    },
    {
      "id": 1382,
      "outputModuleId": 778,
      "outputId": 0,
      "inputModuleId": 782,
      "inputId": 0,
      "color": "#e0d8a3"
    },
    {
      "id": 1401,
      "outputModuleId": 777,
      "outputId": 4,
      "inputModuleId": 782,
      "inputId": 1,
      "color": "#81b29a"
    },
    {
      "id": 1402,
      "outputModuleId": 777,
      "outputId": 5,
      "inputModuleId": 782,
      "inputId": 2,
      "color": "#81b29a"
    },
    {
      "id": 1403,
      "outputModuleId": 777,
      "outputId": 13,
      "inputModuleId": 782,
      "inputId": 3,
      "color": "#81b29a"
    },
    {
      "id": 1404,
      "outputModuleId": 648,
      "outputId": 2,
      "inputModuleId": 777,
      "inputId": 15,
      "color": "#3d405b"
    },
    {
      "id": 1405,
      "outputModuleId": 777,
      "outputId": 1,
      "inputModuleId": 375,
      "inputId": 16,
      "color": "#81b29a"
    },
    {
      "id": 1406,
      "outputModuleId": 648,
      "outputId": 1,
      "inputModuleId": 785,
      "inputId": 0,
      "color": "#3d405b"
    },
    {
      "id": 1407,
      "outputModuleId": 785,
      "outputId": 0,
      "inputModuleId": 783,
      "inputId": 0,
      "color": "#3d405b"
    },
    {
      "id": 1408,
      "outputModuleId": 785,
      "outputId": 1,
      "inputModuleId": 783,
      "inputId": 1,
      "color": "#3d405b"
    },
    {
      "id": 1409,
      "outputModuleId": 785,
      "outputId": 2,
      "inputModuleId": 783,
      "inputId": 2,
      "color": "#3d405b"
    },
    {
      "id": 1410,
      "outputModuleId": 785,
      "outputId": 0,
      "inputModuleId": 786,
      "inputId": 4,
      "color": "#3d405b"
    },
    {
      "id": 1411,
      "outputModuleId": 785,
      "outputId": 1,
      "inputModuleId": 787,
      "inputId": 4,
      "color": "#3d405b"
    },
    {
      "id": 1412,
      "outputModuleId": 787,
      "outputId": 0,
      "inputModuleId": 783,
      "inputId": 3,
      "color": "#3d405b"
    },
    {
      "id": 1413,
      "outputModuleId": 786,
      "outputId": 0,
      "inputModuleId": 783,
      "inputId": 4,
      "color": "#3d405b"
    },
    {
      "id": 1414,
      "outputModuleId": 783,
      "outputId": 0,
      "inputModuleId": 788,
      "inputId": 0,
      "color": "#3d405b"
    },
    {
      "id": 1415,
      "outputModuleId": 788,
      "outputId": 0,
      "inputModuleId": 375,
      "inputId": 8,
      "color": "#3d405b"
    },
    {
      "id": 1416,
      "outputModuleId": 784,
      "outputId": 0,
      "inputModuleId": 783,
      "inputId": 9,
      "color": "#81b29a"
    },
    {
      "id": 1417,
      "outputModuleId": 789,
      "outputId": 0,
      "inputModuleId": 375,
      "inputId": 9,
      "color": "#81b29a"
    },
    {
      "id": 1418,
      "outputModuleId": 648,
      "outputId": 2,
      "inputModuleId": 789,
      "inputId": 0,
      "color": "#3d405b"
    },
    {
      "id": 1419,
      "outputModuleId": 785,
      "outputId": 3,
      "inputModuleId": 783,
      "inputId": 5,
      "color": "#3d405b"
    },
    {
      "id": 1420,
      "outputModuleId": 777,
      "outputId": 0,
      "inputModuleId": 775,
      "inputId": 2,
      "color": "#e0d8a3"
    },
    {
      "id": 1425,
      "outputModuleId": 783,
      "outputId": 0,
      "inputModuleId": 783,
      "inputId": 8,
      "color": "#3d405b"
    },
    {
      "id": 1433,
      "outputModuleId": 783,
      "outputId": 1,
      "inputModuleId": 794,
      "inputId": 38,
      "color": "#3d405b"
    },
    {
      "id": 1434,
      "outputModuleId": 783,
      "outputId": 2,
      "inputModuleId": 794,
      "inputId": 39,
      "color": "#3d405b"
    },
    {
      "id": 1435,
      "outputModuleId": 783,
      "outputId": 3,
      "inputModuleId": 794,
      "inputId": 40,
      "color": "#3d405b"
    },
    {
      "id": 1436,
      "outputModuleId": 783,
      "outputId": 4,
      "inputModuleId": 794,
      "inputId": 41,
      "color": "#3d405b"
    },
    {
      "id": 1438,
      "outputModuleId": 794,
      "outputId": 2,
      "inputModuleId": 795,
      "inputId": 0,
      "color": "#81b29a"
    },
    {
      "id": 1439,
      "outputModuleId": 794,
      "outputId": 3,
      "inputModuleId": 795,
      "inputId": 1,
      "color": "#81b29a"
    },
    {
      "id": 1440,
      "outputModuleId": 794,
      "outputId": 4,
      "inputModuleId": 795,
      "inputId": 2,
      "color": "#81b29a"
    },
    {
      "id": 1441,
      "outputModuleId": 794,
      "outputId": 5,
      "inputModuleId": 795,
      "inputId": 3,
      "color": "#81b29a"
    },
    {
      "id": 1442,
      "outputModuleId": 795,
      "outputId": 0,
      "inputModuleId": 790,
      "inputId": 3,
      "color": "#81b29a"
    },
    {
      "id": 1443,
      "outputModuleId": 775,
      "outputId": 0,
      "inputModuleId": 796,
      "inputId": 0,
      "color": "#e0d8a3"
    },
    {
      "id": 1444,
      "outputModuleId": 775,
      "outputId": 1,
      "inputModuleId": 796,
      "inputId": 1,
      "color": "#e0d8a3"
    },
    {
      "id": 1445,
      "outputModuleId": 775,
      "outputId": 2,
      "inputModuleId": 796,
      "inputId": 2,
      "color": "#e0d8a3"
    },
    {
      "id": 1446,
      "outputModuleId": 775,
      "outputId": 3,
      "inputModuleId": 796,
      "inputId": 3,
      "color": "#e0d8a3"
    },
    {
      "id": 1447,
      "outputModuleId": 777,
      "outputId": 7,
      "inputModuleId": 775,
      "inputId": 3,
      "color": "#e0d8a3"
    },
    {
      "id": 1448,
      "outputModuleId": 796,
      "outputId": 0,
      "inputModuleId": 790,
      "inputId": 2,
      "color": "#e0d8a3"
    },
    {
      "id": 1450,
      "outputModuleId": 795,
      "outputId": 1,
      "inputModuleId": 375,
      "inputId": 2,
      "color": "#e07a5f"
    },
    {
      "id": 1451,
      "outputModuleId": 795,
      "outputId": 2,
      "inputModuleId": 375,
      "inputId": 3,
      "color": "#e07a5f"
    },
    {
      "id": 1452,
      "outputModuleId": 795,
      "outputId": 3,
      "inputModuleId": 375,
      "inputId": 4,
      "color": "#e07a5f"
    },
    {
      "id": 1453,
      "outputModuleId": 795,
      "outputId": 4,
      "inputModuleId": 375,
      "inputId": 5,
      "color": "#e07a5f"
    },
    {
      "id": 1430,
      "outputModuleId": 771,
      "outputId": 3,
      "inputModuleId": 797,
      "inputId": 0,
      "color": "#81b29a"
    },
    {
      "id": 1456,
      "outputModuleId": 771,
      "outputId": 1,
      "inputModuleId": 797,
      "inputId": 1,
      "color": "#81b29a"
    },
    {
      "id": 1457,
      "outputModuleId": 771,
      "outputId": 0,
      "inputModuleId": 797,
      "inputId": 2,
      "color": "#81b29a"
    },
    {
      "id": 1458,
      "outputModuleId": 771,
      "outputId": 2,
      "inputModuleId": 797,
      "inputId": 3,
      "color": "#81b29a"
    },
    {
      "id": 1459,
      "outputModuleId": 797,
      "outputId": 0,
      "inputModuleId": 790,
      "inputId": 5,
      "color": "#81b29a"
    },
    {
      "id": 1460,
      "outputModuleId": 796,
      "outputId": 0,
      "inputModuleId": 790,
      "inputId": 4,
      "color": "#81b29a"
    },
    {
      "id": 1461,
      "outputModuleId": 771,
      "outputId": 4,
      "inputModuleId": 787,
      "inputId": 3,
      "color": "#81b29a"
    },
    {
      "id": 1449,
      "outputModuleId": 790,
      "outputId": 0,
      "inputModuleId": 799,
      "inputId": 3,
      "color": "#e07a5f"
    },
    {
      "id": 1470,
      "outputModuleId": 799,
      "outputId": 0,
      "inputModuleId": 795,
      "inputId": 4,
      "color": "#e07a5f"
    },
    {
      "id": 1400,
      "outputModuleId": 782,
      "outputId": 3,
      "inputModuleId": 801,
      "inputId": 0,
      "color": "#e0d8a3"
    },
    {
      "id": 1473,
      "outputModuleId": 801,
      "outputId": 0,
      "inputModuleId": 375,
      "inputId": 0,
      "color": "#e07a5f"
    },
    {
      "id": 1475,
      "outputModuleId": 777,
      "outputId": 6,
      "inputModuleId": 801,
      "inputId": 1,
      "color": "#81b29a"
    },
    {
      "id": 1476,
      "outputModuleId": 777,
      "outputId": 8,
      "inputModuleId": 799,
      "inputId": 0,
      "color": "#81b29a"
    },
    {
      "id": 1477,
      "outputModuleId": 771,
      "outputId": 0,
      "inputModuleId": 799,
      "inputId": 1,
      "color": "#81b29a"
    },
    {
      "id": 1480,
      "outputModuleId": 804,
      "outputId": 8,
      "inputModuleId": 375,
      "inputId": 6,
      "color": "#e07a5f"
    },
    {
      "id": 1485,
      "outputModuleId": 805,
      "outputId": 0,
      "inputModuleId": 804,
      "inputId": 0,
      "color": "#e07a5f"
    },
    {
      "id": 1491,
      "outputModuleId": 648,
      "outputId": 0,
      "inputModuleId": 807,
      "inputId": 0,
      "color": "#e07a5f"
    },
    {
      "id": 1492,
      "outputModuleId": 807,
      "outputId": 2,
      "inputModuleId": 805,
      "inputId": 0,
      "color": "#3d405b"
    },
    {
      "id": 1493,
      "outputModuleId": 771,
      "outputId": 5,
      "inputModuleId": 807,
      "inputId": 3,
      "color": "#81b29a"
    },
    {
      "id": 1495,
      "outputModuleId": 802,
      "outputId": 0,
      "inputModuleId": 808,
      "inputId": 0,
      "color": "#3d405b"
    },
    {
      "id": 1496,
      "outputModuleId": 802,
      "outputId": 2,
      "inputModuleId": 808,
      "inputId": 1,
      "color": "#3d405b"
    },
    {
      "id": 1497,
      "outputModuleId": 808,
      "outputId": 2,
      "inputModuleId": 804,
      "inputId": 1,
      "color": "#81b29a"
    },
    {
      "id": 1498,
      "outputModuleId": 786,
      "outputId": 0,
      "inputModuleId": 802,
      "inputId": 0,
      "color": "#3d405b"
    },
    {
      "id": 1499,
      "outputModuleId": 771,
      "outputId": 6,
      "inputModuleId": 808,
      "inputId": 4,
      "color": "#81b29a"
    },
    {
      "id": 1500,
      "outputModuleId": 771,
      "outputId": 6,
      "inputModuleId": 808,
      "inputId": 3,
      "color": "#81b29a"
    },
    {
      "id": 1502,
      "outputModuleId": 783,
      "outputId": 0,
      "inputModuleId": 808,
      "inputId": 2,
      "color": "#3d405b"
    },
    {
      "id": 1504,
      "outputModuleId": 784,
      "outputId": 0,
      "inputModuleId": 785,
      "inputId": 6,
      "color": "#81b29a"
    },
    {
      "id": 1505,
      "outputModuleId": 771,
      "outputId": 7,
      "inputModuleId": 782,
      "inputId": 4,
      "color": "#81b29a"
    }
  ]
}