{
  "version": "1.1.6",
  "modules": [
    {
      "id": 1,
      "plugin": "Core",
      "version": "1.1.6",
      "model": "AudioInterface",
      "params": [],
      "leftModuleId": 375,
      "rightModuleId": 430,
      "data": {
        "audio": {
          "driver": 7,
          "deviceName": "ReaRoute ASIO (x64)",
          "offset": 0,
          "maxChannels": 8,
          "sampleRate": 48000,
          "blockSize": 256
        }
      },
      "pos": [
        57,
        0
      ]
    },
    {
      "id": 76,
      "plugin": "Stoermelder-P1",
      "version": "1.9.0",
      "model": "Mb",
      "params": [],
      "leftModuleId": 364,
      "rightModuleId": 79,
      "data": {
        "mode": 1
      },
      "pos": [
        4,
        0
      ]
    },
    {
      "id": 79,
      "plugin": "Stoermelder-P1",
      "version": "1.9.0",
      "model": "Stroke",
      "params": [],
      "leftModuleId": 76,
      "rightModuleId": 444,
      "data": {
        "panelTheme": 1,
        "keys": [
          {
            "button": -1,
            "key": 49,
            "mods": 0,
            "mode": 24,
            "high": false,
            "data": "#c9b70e"
          },
          {
            "button": -1,
            "key": 50,
            "mods": 0,
            "mode": 24,
            "high": false,
            "data": "#0c8e15"
          },
          {
            "button": -1,
            "key": 51,
            "mods": 0,
            "mode": 24,
            "high": false,
            "data": "#c91847"
          },
          {
            "button": -1,
            "key": 52,
            "mods": 0,
            "mode": 24,
            "high": false,
            "data": "#364449"
          },
          {
            "button": -1,
            "key": -1,
            "mods": 0,
            "mode": 1,
            "high": false,
            "data": ""
          },
          {
            "button": -1,
            "key": -1,
            "mods": 0,
            "mode": 1,
            "high": false,
            "data": ""
          },
          {
            "button": -1,
            "key": -1,
            "mods": 0,
            "mode": 1,
            "high": false,
            "data": ""
          },
          {
            "button": -1,
            "key": -1,
            "mods": 0,
            "mode": 1,
            "high": false,
            "data": ""
          },
          {
            "button": -1,
            "key": -1,
            "mods": 0,
            "mode": 1,
            "high": false,
            "data": ""
          },
          {
            "button": -1,
            "key": -1,
            "mods": 0,
            "mode": 1,
            "high": false,
            "data": ""
          }
        ]
      },
      "pos": [
        6,
        0
      ]
    },
    {
      "id": 360,
      "plugin": "LindenbergResearch",
      "version": "1.3.3",
      "model": "BlankPanel_Wood",
      "params": [],
      "leftModuleId": 445,
      "gestaltID": 1,
      "gradient": false,
      "patina": false,
      "patina_i_x": false,
      "patina_i_y": false,
      "patina_a_x": 1048.69849,
      "patina_a_y": 465.392822,
      "overlay": false,
      "overlay_r": 0.877615452,
      "overlay_g": 0.466744184,
      "overlay_b": 0.410719573,
      "overlay_a": 0.43127206,
      "AGED": false,
      "screws": true,
      "logo": false,
      "pos": [
        116,
        0
      ]
    },
    {
      "id": 361,
      "plugin": "LindenbergResearch",
      "version": "1.3.3",
      "model": "BlankPanel_Wood",
      "params": [],
      "gestaltID": 1,
      "gradient": false,
      "patina": false,
      "patina_i_x": false,
      "patina_i_y": false,
      "patina_a_x": 1048.69849,
      "patina_a_y": 465.392822,
      "overlay": false,
      "overlay_r": 0.395753264,
      "overlay_g": 0.294533372,
      "overlay_b": 0.854261458,
      "overlay_a": 0.278242886,
      "AGED": false,
      "screws": true,
      "logo": false,
      "pos": [
        116,
        3
      ]
    },
    {
      "id": 362,
      "plugin": "LindenbergResearch",
      "version": "1.3.3",
      "model": "BlankPanel_Wood",
      "params": [],
      "leftModuleId": 437,
      "gestaltID": 1,
      "gradient": false,
      "patina": false,
      "patina_i_x": false,
      "patina_i_y": false,
      "patina_a_x": 1048.69849,
      "patina_a_y": 465.392822,
      "overlay": false,
      "overlay_r": 0.491708457,
      "overlay_g": 0.513159752,
      "overlay_b": 0.0215365291,
      "overlay_a": 0.398921132,
      "AGED": false,
      "screws": true,
      "logo": false,
      "pos": [
        116,
        1
      ]
    },
    {
      "id": 363,
      "plugin": "LindenbergResearch",
      "version": "1.3.3",
      "model": "BlankPanel_Wood",
      "params": [],
      "gestaltID": 1,
      "gradient": false,
      "patina": false,
      "patina_i_x": false,
      "patina_i_y": false,
      "patina_a_x": 1048.69849,
      "patina_a_y": 465.392822,
      "overlay": false,
      "overlay_r": 0.857058108,
      "overlay_g": 0.489637256,
      "overlay_b": 0.709552288,
      "overlay_a": 0.202137291,
      "AGED": false,
      "screws": true,
      "logo": false,
      "pos": [
        116,
        2
      ]
    },
    {
      "id": 364,
      "plugin": "LindenbergResearch",
      "version": "1.3.3",
      "model": "BlankPanel_Wood",
      "params": [],
      "rightModuleId": 76,
      "gestaltID": 1,
      "gradient": false,
      "patina": false,
      "patina_i_x": true,
      "patina_i_y": false,
      "patina_a_x": 732.980896,
      "patina_a_y": 232.628174,
      "overlay": false,
      "overlay_r": 0.911151528,
      "overlay_g": 0.829919577,
      "overlay_b": 0.740517318,
      "overlay_a": 0.405033171,
      "AGED": false,
      "screws": true,
      "logo": false,
      "pos": [
        0,
        0
      ]
    },
    {
      "id": 365,
      "plugin": "LindenbergResearch",
      "version": "1.3.3",
      "model": "BlankPanel_Wood",
      "params": [],
      "rightModuleId": 379,
      "gestaltID": 1,
      "gradient": false,
      "patina": false,
      "patina_i_x": true,
      "patina_i_y": false,
      "patina_a_x": 732.980896,
      "patina_a_y": 232.628174,
      "overlay": false,
      "overlay_r": 0.196098268,
      "overlay_g": 0.958725452,
      "overlay_b": 0.228165567,
      "overlay_a": 0.121241935,
      "AGED": false,
      "screws": true,
      "logo": false,
      "pos": [
        0,
        1
      ]
    },
    {
      "id": 366,
      "plugin": "LindenbergResearch",
      "version": "1.3.3",
      "model": "BlankPanel_Wood",
      "params": [],
      "gestaltID": 1,
      "gradient": false,
      "patina": false,
      "patina_i_x": true,
      "patina_i_y": false,
      "patina_a_x": 732.980896,
      "patina_a_y": 232.628174,
      "overlay": false,
      "overlay_r": 0.436738968,
      "overlay_g": 0.967880547,
      "overlay_b": 0.417460263,
      "overlay_a": 0.326299638,
      "AGED": false,
      "screws": true,
      "logo": false,
      "pos": [
        0,
        2
      ]
    },
    {
      "id": 367,
      "plugin": "LindenbergResearch",
      "version": "1.3.3",
      "model": "BlankPanel_Wood",
      "params": [],
      "gestaltID": 1,
      "gradient": false,
      "patina": false,
      "patina_i_x": true,
      "patina_i_y": false,
      "patina_a_x": 732.980896,
      "patina_a_y": 232.628174,
      "overlay": false,
      "overlay_r": 0.223027349,
      "overlay_g": 0.909564495,
      "overlay_b": 0.698168933,
      "overlay_a": 0.314838588,
      "AGED": false,
      "screws": true,
      "logo": false,
      "pos": [
        0,
        3
      ]
    },
    {
      "id": 375,
      "plugin": "squinkylabs-plug1",
      "version": "1.0.19",
      "model": "squinkylabs-mix8",
      "params": [
        {
          "id": 0,
          "value": 0.930999994
        },
        {
          "id": 1,
          "value": 0.0
        },
        {
          "id": 2,
          "value": 0.800000012
        },
        {
          "id": 3,
          "value": 0.800000012
        },
        {
          "id": 4,
          "value": 0.800000012
        },
        {
          "id": 5,
          "value": 0.800000012
        },
        {
          "id": 6,
          "value": 0.800000012
        },
        {
          "id": 7,
          "value": 0.800000012
        },
        {
          "id": 8,
          "value": 0.800000012
        },
        {
          "id": 9,
          "value": 0.800000012
        },
        {
          "id": 10,
          "value": 0.0
        },
        {
          "id": 11,
          "value": 0.609000027
        },
        {
          "id": 12,
          "value": -0.648000062
        },
        {
          "id": 13,
          "value": 0.0
        },
        {
          "id": 14,
          "value": 0.0
        },
        {
          "id": 15,
          "value": 0.0
        },
        {
          "id": 16,
          "value": 0.0
        },
        {
          "id": 17,
          "value": 0.0
        },
        {
          "id": 18,
          "value": 0.0
        },
        {
          "id": 19,
          "value": 0.0
        },
        {
          "id": 20,
          "value": 0.0
        },
        {
          "id": 21,
          "value": 0.0
        },
        {
          "id": 22,
          "value": 0.0
        },
        {
          "id": 23,
          "value": 0.0
        },
        {
          "id": 24,
          "value": 0.0
        },
        {
          "id": 25,
          "value": 0.0
        },
        {
          "id": 26,
          "value": 0.0
        },
        {
          "id": 27,
          "value": 0.0
        },
        {
          "id": 28,
          "value": 0.0
        },
        {
          "id": 29,
          "value": 0.0
        },
        {
          "id": 30,
          "value": 0.0
        },
        {
          "id": 31,
          "value": 0.0
        },
        {
          "id": 32,
          "value": 0.0
        },
        {
          "id": 33,
          "value": 0.0
        },
        {
          "id": 34,
          "value": 0.549000025
        },
        {
          "id": 35,
          "value": 0.548999965
        },
        {
          "id": 36,
          "value": 0.610500038
        },
        {
          "id": 37,
          "value": 0.760500073
        },
        {
          "id": 38,
          "value": 0.0
        },
        {
          "id": 39,
          "value": 0.0
        },
        {
          "id": 40,
          "value": 0.0
        },
        {
          "id": 41,
          "value": 0.0
        },
        {
          "id": 42,
          "value": 1.0
        }
      ],
      "leftModuleId": 440,
      "rightModuleId": 1,
      "pos": [
        31,
        0
      ]
    },
    {
      "id": 379,
      "plugin": "ImpromptuModular",
      "version": "1.1.10",
      "model": "Clocked-Clkd",
      "params": [
        {
          "id": 0,
          "value": 2.0
        },
        {
          "id": 1,
          "value": -5.0
        },
        {
          "id": 2,
          "value": -3.0
        },
        {
          "id": 3,
          "value": 96.0
        },
        {
          "id": 4,
          "value": 0.0
        },
        {
          "id": 5,
          "value": 0.0
        },
        {
          "id": 6,
          "value": 0.0
        },
        {
          "id": 7,
          "value": 0.0
        },
        {
          "id": 8,
          "value": 0.0
        },
        {
          "id": 9,
          "value": 0.0
        }
      ],
      "leftModuleId": 365,
      "rightModuleId": 411,
      "data": {
        "panelTheme": 1,
        "running": true,
        "bpmDetectionMode": false,
        "resetOnStartStop": 0,
        "ppqn": 4,
        "resetClockOutputsHigh": true,
        "momentaryRunInput": true,
        "displayIndex": 3,
        "trigOuts": [
          false,
          false,
          false,
          false
        ],
        "clockMaster": -1
      },
      "pos": [
        4,
        1
      ]
    },
    {
      "id": 411,
      "plugin": "Geodesics",
      "version": "1.2.0",
      "model": "Ions",
      "params": [
        {
          "id": 0,
          "value": 0.0
        },
        {
          "id": 1,
          "value": 0.0
        },
        {
          "id": 2,
          "value": 0.479106545
        },
        {
          "id": 3,
          "value": 0.471101522
        },
        {
          "id": 4,
          "value": 0.0814171433
        },
        {
          "id": 5,
          "value": 0.472315788
        },
        {
          "id": 6,
          "value": 0.499654114
        },
        {
          "id": 7,
          "value": 0.97083199
        },
        {
          "id": 8,
          "value": 0.742794394
        },
        {
          "id": 9,
          "value": 0.732071459
        },
        {
          "id": 10,
          "value": 0.719647467
        },
        {
          "id": 11,
          "value": 0.448416054
        },
        {
          "id": 12,
          "value": 0.0648568273
        },
        {
          "id": 13,
          "value": 0.165248632
        },
        {
          "id": 14,
          "value": 0.865207016
        },
        {
          "id": 15,
          "value": 0.246477664
        },
        {
          "id": 16,
          "value": 0.267048955
        },
        {
          "id": 17,
          "value": 0.430678427
        },
        {
          "id": 18,
          "value": 0.0
        },
        {
          "id": 19,
          "value": 0.0
        },
        {
          "id": 20,
          "value": 0.0
        },
        {
          "id": 21,
          "value": 0.0
        },
        {
          "id": 22,
          "value": 0.0
        },
        {
          "id": 23,
          "value": 0.0
        },
        {
          "id": 24,
          "value": 0.0
        },
        {
          "id": 25,
          "value": 0.0
        },
        {
          "id": 26,
          "value": 0.0
        },
        {
          "id": 27,
          "value": 0.0
        }
      ],
      "leftModuleId": 379,
      "rightModuleId": 412,
      "data": {
        "panelTheme": 1,
        "running": true,
        "resetOnRun": false,
        "quantize": 3,
        "uncertainty": false,
        "stepIndexes0": 9,
        "stepIndexes1": 0,
        "states0": 2,
        "states1": 0,
        "ranges0": 1,
        "ranges1": 1,
        "leap": false
      },
      "pos": [
        14,
        1
      ]
    },
    {
      "id": 412,
      "plugin": "Geodesics",
      "version": "1.2.0",
      "model": "Entropia",
      "params": [
        {
          "id": 0,
          "value": 0.0
        },
        {
          "id": 1,
          "value": 0.0
        },
        {
          "id": 2,
          "value": 0.0
        },
        {
          "id": 3,
          "value": 0.0
        },
        {
          "id": 4,
          "value": 0.0
        },
        {
          "id": 5,
          "value": 0.987135351
        },
        {
          "id": 6,
          "value": 0.224160492
        },
        {
          "id": 7,
          "value": 0.855435848
        },
        {
          "id": 8,
          "value": 0.825068891
        },
        {
          "id": 9,
          "value": 0.158986747
        },
        {
          "id": 10,
          "value": 0.516115725
        },
        {
          "id": 11,
          "value": 0.463458598
        },
        {
          "id": 12,
          "value": 0.0641860962
        },
        {
          "id": 13,
          "value": 0.797671914
        },
        {
          "id": 14,
          "value": 0.424166739
        },
        {
          "id": 15,
          "value": 0.44354552
        },
        {
          "id": 16,
          "value": 0.820830941
        },
        {
          "id": 17,
          "value": 0.263059556
        },
        {
          "id": 18,
          "value": 0.684067011
        },
        {
          "id": 19,
          "value": 0.241605639
        },
        {
          "id": 20,
          "value": 0.947597861
        },
        {
          "id": 21,
          "value": 0.373928964
        },
        {
          "id": 22,
          "value": 0.563280821
        },
        {
          "id": 23,
          "value": 0.450428188
        },
        {
          "id": 24,
          "value": 0.781017601
        },
        {
          "id": 25,
          "value": 0.562587082
        },
        {
          "id": 26,
          "value": 0.709879637
        },
        {
          "id": 27,
          "value": 0.826958656
        },
        {
          "id": 28,
          "value": 0.893945038
        },
        {
          "id": 29,
          "value": 0.0
        },
        {
          "id": 30,
          "value": 0.0
        },
        {
          "id": 31,
          "value": 0.0
        },
        {
          "id": 32,
          "value": 0.0
        },
        {
          "id": 33,
          "value": 0.0
        },
        {
          "id": 34,
          "value": 0.0
        },
        {
          "id": 35,
          "value": 0.0
        },
        {
          "id": 36,
          "value": 0.0
        },
        {
          "id": 37,
          "value": 0.0
        },
        {
          "id": 38,
          "value": 0.0
        },
        {
          "id": 39,
          "value": 0.0
        },
        {
          "id": 40,
          "value": 0.0
        },
        {
          "id": 41,
          "value": 0.0860000178
        },
        {
          "id": 42,
          "value": 0.0
        },
        {
          "id": 43,
          "value": 0.0
        },
        {
          "id": 44,
          "value": 0.0
        }
      ],
      "leftModuleId": 411,
      "rightModuleId": 413,
      "data": {
        "panelTheme": 1,
        "running": true,
        "resetOnRun": false,
        "length": 8,
        "quantize": 3,
        "audio": 0,
        "ranges0": 1,
        "ranges1": 1,
        "addMode": false,
        "sources0": 0,
        "sources1": 0,
        "stepIndex": 0,
        "pipeBlue": false,
        "randomCVs0": 0.377839088,
        "randomCVs1": 0.404972136,
        "clkSource": 0
      },
      "pos": [
        33,
        1
      ]
    },
    {
      "id": 413,
      "plugin": "repelzen",
      "version": "1.1.0",
      "model": "rewin",
      "params": [
        {
          "id": 0,
          "value": 0.0
        },
        {
          "id": 1,
          "value": 1.0
        },
        {
          "id": 2,
          "value": 0.0
        },
        {
          "id": 3,
          "value": 0.0
        },
        {
          "id": 4,
          "value": 0.0
        },
        {
          "id": 5,
          "value": 0.0
        },
        {
          "id": 6,
          "value": 0.0
        },
        {
          "id": 7,
          "value": 0.0
        },
        {
          "id": 8,
          "value": 0.0
        },
        {
          "id": 9,
          "value": 0.0
        },
        {
          "id": 10,
          "value": 0.0
        },
        {
          "id": 11,
          "value": 0.0
        },
        {
          "id": 12,
          "value": 0.0
        },
        {
          "id": 13,
          "value": 0.0
        },
        {
          "id": 14,
          "value": 0.0
        },
        {
          "id": 15,
          "value": 0.0
        },
        {
          "id": 16,
          "value": 0.0
        }
      ],
      "leftModuleId": 412,
      "rightModuleId": 414,
      "data": {
        "notes": [
          true,
          false,
          true,
          false,
          false,
          true,
          false,
          true,
          false,
          true,
          false,
          false,
          false,
          false,
          false,
          false,
          false,
          false,
          false,
          false,
          false,
          false,
          false,
          false,
          false,
          false,
          false,
          false,
          false,
          false,
          false,
          false,
          false,
          false,
          false,
          false,
          false,
          false,
          false,
          false,
          false,
          false,
          false,
          false,
          false,
          false,
          false,
          false,
          false,
          false,
          false,
          false,
          false,
          false,
          false,
          false,
          false,
          false,
          false,
          false,
          false,
          false,
          false,
          false,
          false,
          false,
          false,
          false,
          false,
          false,
          false,
          false,
          false,
          false,
          false,
          false,
          false,
          false,
          false,
          false,
          false,
          false,
          false,
          false,
          false,
          false,
          false,
          false,
          false,
          false,
          false,
          false,
          false,
          false,
          false,
          false,
          false,
          false,
          false,
          false,
          false,
          false,
          false,
          false,
          false,
          false,
          false,
          false,
          false,
          false,
          false,
          false,
          false,
          false,
          false,
          false,
          false,
          false,
          false,
          false,
          false,
          false,
          false,
          false,
          false,
          false,
          false,
          false,
          false,
          false,
          false,
          false,
          false,
          false,
          false,
          false,
          false,
          false,
          false,
          false,
          false,
          false,
          false,
          false,
          false,
          false,
          false,
          false,
          false,
          false,
          false,
          false,
          false,
          false,
          false,
          false,
          false,
          false,
          false,
          false,
          false,
          false,
          false,
          false,
          false,
          false,
          false,
          false,
          false,
          false,
          false,
          false,
          false,
          false,
          false,
          false,
          false,
          false,
          false,
          false,
          false,
          false,
          false,
          false,
          false,
          false,
          false,
          false,
          false,
          false,
          false,
          false
        ],
        "mode": 0
      },
      "pos": [
        54,
        1
      ]
    },
    {
      "id": 414,
      "plugin": "ML_modules",
      "version": "1.1.3",
      "model": "SeqSwitch",
      "params": [
        {
          "id": 0,
          "value": 8.0
        },
        {
          "id": 1,
          "value": 0.0
        },
        {
          "id": 2,
          "value": 0.0
        },
        {
          "id": 3,
          "value": 0.0
        },
        {
          "id": 4,
          "value": 0.0
        },
        {
          "id": 5,
          "value": 0.0
        },
        {
          "id": 6,
          "value": 0.0
        },
        {
          "id": 7,
          "value": 0.0
        },
        {
          "id": 8,
          "value": 0.0
        }
      ],
      "leftModuleId": 413,
      "rightModuleId": 415,
      "data": {
        "inputRange": 0
      },
      "pos": [
        62,
        1
      ]
    },
    {
      "id": 415,
      "plugin": "ML_modules",
      "version": "1.1.3",
      "model": "ShiftRegister",
      "params": [
        {
          "id": 0,
          "value": 0.0
        },
        {
          "id": 1,
          "value": 0.0
        },
        {
          "id": 2,
          "value": 0.0
        },
        {
          "id": 3,
          "value": 0.0
        },
        {
          "id": 4,
          "value": 0.0
        },
        {
          "id": 5,
          "value": 0.0
        },
        {
          "id": 6,
          "value": 0.0
        },
        {
          "id": 7,
          "value": 0.0
        },
        {
          "id": 8,
          "value": 0.0
        }
      ],
      "leftModuleId": 414,
      "rightModuleId": 416,
      "pos": [
        70,
        1
      ]
    },
    {
      "id": 416,
      "plugin": "Geodesics",
      "version": "1.2.0",
      "model": "Energy",
      "params": [
        {
          "id": 0,
          "value": 0.0
        },
        {
          "id": 1,
          "value": 0.0
        },
        {
          "id": 2,
          "value": 0.0
        },
        {
          "id": 3,
          "value": 0.0
        },
        {
          "id": 4,
          "value": 0.0
        },
        {
          "id": 5,
          "value": -0.972000182
        },
        {
          "id": 6,
          "value": 0.0
        },
        {
          "id": 7,
          "value": 0.0
        },
        {
          "id": 8,
          "value": 0.0
        },
        {
          "id": 9,
          "value": 0.0
        }
      ],
      "leftModuleId": 415,
      "rightModuleId": 418,
      "data": {
        "panelTheme": 1,
        "oscM_phase": 3656771856,
        "oscC_phase": 3712719504,
        "osc1M_phase": 0,
        "osc1C_phase": 0,
        "osc2M_phase": 0,
        "osc2C_phase": 0,
        "osc3M_phase": 0,
        "osc3C_phase": 0,
        "osc4M_phase": 0,
        "osc4C_phase": 0,
        "osc5M_phase": 0,
        "osc5C_phase": 0,
        "osc6M_phase": 0,
        "osc6C_phase": 0,
        "osc7M_phase": 0,
        "osc7C_phase": 0,
        "osc8M_phase": 0,
        "osc8C_phase": 0,
        "osc9M_phase": 0,
        "osc9C_phase": 0,
        "osc10M_phase": 0,
        "osc10C_phase": 0,
        "osc11M_phase": 0,
        "osc11C_phase": 0,
        "osc12M_phase": 0,
        "osc12C_phase": 0,
        "osc13M_phase": 0,
        "osc13C_phase": 0,
        "osc14M_phase": 0,
        "osc14C_phase": 0,
        "osc15M_phase": 0,
        "osc15C_phase": 0,
        "routing": 1,
        "planck0": 2,
        "planck1": 3,
        "modtype0": 1,
        "modtype1": 2,
        "cross": 1
      },
      "pos": [
        74,
        1
      ]
    },
    {
      "id": 418,
      "plugin": "Geodesics",
      "version": "1.2.0",
      "model": "Energy",
      "params": [
        {
          "id": 0,
          "value": 0.0
        },
        {
          "id": 1,
          "value": 0.0
        },
        {
          "id": 2,
          "value": 0.0
        },
        {
          "id": 3,
          "value": 0.0
        },
        {
          "id": 4,
          "value": 0.0
        },
        {
          "id": 5,
          "value": 0.0
        },
        {
          "id": 6,
          "value": 0.0
        },
        {
          "id": 7,
          "value": 0.0
        },
        {
          "id": 8,
          "value": 0.0
        },
        {
          "id": 9,
          "value": 0.0
        }
      ],
      "leftModuleId": 416,
      "rightModuleId": 419,
      "data": {
        "panelTheme": 1,
        "oscM_phase": 1136983648,
        "oscC_phase": 3153228864,
        "osc1M_phase": 0,
        "osc1C_phase": 0,
        "osc2M_phase": 0,
        "osc2C_phase": 0,
        "osc3M_phase": 0,
        "osc3C_phase": 0,
        "osc4M_phase": 0,
        "osc4C_phase": 0,
        "osc5M_phase": 0,
        "osc5C_phase": 0,
        "osc6M_phase": 0,
        "osc6C_phase": 0,
        "osc7M_phase": 0,
        "osc7C_phase": 0,
        "osc8M_phase": 0,
        "osc8C_phase": 0,
        "osc9M_phase": 0,
        "osc9C_phase": 0,
        "osc10M_phase": 0,
        "osc10C_phase": 0,
        "osc11M_phase": 0,
        "osc11C_phase": 0,
        "osc12M_phase": 0,
        "osc12C_phase": 0,
        "osc13M_phase": 0,
        "osc13C_phase": 0,
        "osc14M_phase": 0,
        "osc14C_phase": 0,
        "osc15M_phase": 0,
        "osc15C_phase": 0,
        "routing": 1,
        "planck0": 2,
        "planck1": 3,
        "modtype0": 1,
        "modtype1": 2,
        "cross": 1
      },
      "pos": [
        81,
        1
      ]
    },
    {
      "id": 419,
      "plugin": "Geodesics",
      "version": "1.2.0",
      "model": "Energy",
      "params": [
        {
          "id": 0,
          "value": 0.0
        },
        {
          "id": 1,
          "value": 0.0
        },
        {
          "id": 2,
          "value": 0.0
        },
        {
          "id": 3,
          "value": 0.0
        },
        {
          "id": 4,
          "value": 0.0
        },
        {
          "id": 5,
          "value": 0.0
        },
        {
          "id": 6,
          "value": 1.14299989
        },
        {
          "id": 7,
          "value": 0.0
        },
        {
          "id": 8,
          "value": 0.0
        },
        {
          "id": 9,
          "value": 0.0
        }
      ],
      "leftModuleId": 418,
      "rightModuleId": 420,
      "data": {
        "panelTheme": 1,
        "oscM_phase": 1800324512,
        "oscC_phase": 3212864160,
        "osc1M_phase": 0,
        "osc1C_phase": 0,
        "osc2M_phase": 0,
        "osc2C_phase": 0,
        "osc3M_phase": 0,
        "osc3C_phase": 0,
        "osc4M_phase": 0,
        "osc4C_phase": 0,
        "osc5M_phase": 0,
        "osc5C_phase": 0,
        "osc6M_phase": 0,
        "osc6C_phase": 0,
        "osc7M_phase": 0,
        "osc7C_phase": 0,
        "osc8M_phase": 0,
        "osc8C_phase": 0,
        "osc9M_phase": 0,
        "osc9C_phase": 0,
        "osc10M_phase": 0,
        "osc10C_phase": 0,
        "osc11M_phase": 0,
        "osc11C_phase": 0,
        "osc12M_phase": 0,
        "osc12C_phase": 0,
        "osc13M_phase": 0,
        "osc13C_phase": 0,
        "osc14M_phase": 0,
        "osc14C_phase": 0,
        "osc15M_phase": 0,
        "osc15C_phase": 0,
        "routing": 1,
        "planck0": 0,
        "planck1": 2,
        "modtype0": 1,
        "modtype1": 2,
        "cross": 1
      },
      "pos": [
        88,
        1
      ]
    },
    {
      "id": 420,
      "plugin": "Geodesics",
      "version": "1.2.0",
      "model": "Energy",
      "params": [
        {
          "id": 0,
          "value": 0.0
        },
        {
          "id": 1,
          "value": 0.0
        },
        {
          "id": 2,
          "value": 0.0
        },
        {
          "id": 3,
          "value": 0.0
        },
        {
          "id": 4,
          "value": 0.0
        },
        {
          "id": 5,
          "value": 0.0
        },
        {
          "id": 6,
          "value": 0.0
        },
        {
          "id": 7,
          "value": 0.507000029
        },
        {
          "id": 8,
          "value": 0.0
        },
        {
          "id": 9,
          "value": 0.0
        }
      ],
      "leftModuleId": 419,
      "rightModuleId": 433,
      "data": {
        "panelTheme": 1,
        "oscM_phase": 3487775528,
        "oscC_phase": 3780262112,
        "osc1M_phase": 0,
        "osc1C_phase": 0,
        "osc2M_phase": 0,
        "osc2C_phase": 0,
        "osc3M_phase": 0,
        "osc3C_phase": 0,
        "osc4M_phase": 0,
        "osc4C_phase": 0,
        "osc5M_phase": 0,
        "osc5C_phase": 0,
        "osc6M_phase": 0,
        "osc6C_phase": 0,
        "osc7M_phase": 0,
        "osc7C_phase": 0,
        "osc8M_phase": 0,
        "osc8C_phase": 0,
        "osc9M_phase": 0,
        "osc9C_phase": 0,
        "osc10M_phase": 0,
        "osc10C_phase": 0,
        "osc11M_phase": 0,
        "osc11C_phase": 0,
        "osc12M_phase": 0,
        "osc12C_phase": 0,
        "osc13M_phase": 0,
        "osc13C_phase": 0,
        "osc14M_phase": 0,
        "osc14C_phase": 0,
        "osc15M_phase": 0,
        "osc15C_phase": 0,
        "routing": 0,
        "planck0": 3,
        "planck1": 2,
        "modtype0": 2,
        "modtype1": 1,
        "cross": 1
      },
      "pos": [
        95,
        1
      ]
    },
    {
      "id": 421,
      "plugin": "Bogaudio",
      "version": "1.1.37",
      "model": "Bogaudio-AD",
      "params": [
        {
          "id": 0,
          "value": 0.288421035
        },
        {
          "id": 1,
          "value": 0.42723003
        },
        {
          "id": 2,
          "value": 0.0
        },
        {
          "id": 3,
          "value": 0.0
        },
        {
          "id": 4,
          "value": 1.0
        }
      ],
      "leftModuleId": 432,
      "rightModuleId": 422,
      "data": {
        "invert": 1.0
      },
      "pos": [
        93,
        0
      ]
    },
    {
      "id": 422,
      "plugin": "AudibleInstruments",
      "version": "1.5.0",
      "model": "Branches",
      "params": [
        {
          "id": 0,
          "value": 0.5
        },
        {
          "id": 1,
          "value": 0.5
        },
        {
          "id": 2,
          "value": 0.0
        },
        {
          "id": 3,
          "value": 0.0
        }
      ],
      "leftModuleId": 421,
      "rightModuleId": 423,
      "data": {
        "modes": [
          true,
          false
        ]
      },
      "pos": [
        96,
        0
      ]
    },
    {
      "id": 423,
      "plugin": "Bogaudio",
      "version": "1.1.37",
      "model": "Bogaudio-AD",
      "params": [
        {
          "id": 0,
          "value": 0.364921123
        },
        {
          "id": 1,
          "value": 0.536730051
        },
        {
          "id": 2,
          "value": 0.0
        },
        {
          "id": 3,
          "value": 0.0
        },
        {
          "id": 4,
          "value": 1.0
        }
      ],
      "leftModuleId": 422,
      "rightModuleId": 424,
      "data": {
        "invert": 1.0
      },
      "pos": [
        102,
        0
      ]
    },
    {
      "id": 424,
      "plugin": "Bogaudio",
      "version": "1.1.37",
      "model": "Bogaudio-AD",
      "params": [
        {
          "id": 0,
          "value": 0.38442111
        },
        {
          "id": 1,
          "value": 0.646230042
        },
        {
          "id": 2,
          "value": 0.0
        },
        {
          "id": 3,
          "value": 0.0
        },
        {
          "id": 4,
          "value": 1.0
        }
      ],
      "leftModuleId": 423,
      "rightModuleId": 428,
      "data": {
        "invert": 1.0
      },
      "pos": [
        105,
        0
      ]
    },
    {
      "id": 427,
      "plugin": "Bogaudio",
      "version": "1.1.37",
      "model": "Bogaudio-SampleHold",
      "params": [
        {
          "id": 0,
          "value": 0.0
        },
        {
          "id": 1,
          "value": 0.0
        },
        {
          "id": 2,
          "value": 0.0
        },
        {
          "id": 3,
          "value": 0.0
        },
        {
          "id": 4,
          "value": 0.0
        },
        {
          "id": 5,
          "value": 0.0
        }
      ],
      "leftModuleId": 430,
      "rightModuleId": 432,
      "data": {
        "poly_input": 0,
        "noise_type": 0,
        "range_offset": 0.0,
        "range_scale": 3.0
      },
      "pos": [
        79,
        0
      ]
    },
    {
      "id": 428,
      "plugin": "Bogaudio",
      "version": "1.1.37",
      "model": "Bogaudio-SampleHold",
      "params": [
        {
          "id": 0,
          "value": 0.0
        },
        {
          "id": 1,
          "value": 0.0
        },
        {
          "id": 2,
          "value": 0.0
        },
        {
          "id": 3,
          "value": 0.0
        },
        {
          "id": 4,
          "value": 0.0
        },
        {
          "id": 5,
          "value": 0.0
        }
      ],
      "leftModuleId": 424,
      "rightModuleId": 429,
      "data": {
        "poly_input": 0,
        "noise_type": 0,
        "range_offset": 0.0,
        "range_scale": 5.0
      },
      "pos": [
        108,
        0
      ]
    },
    {
      "id": 429,
      "plugin": "Instruo",
      "version": "1.1.0",
      "model": "ochd",
      "params": [
        {
          "id": 0,
          "value": 0.5
        },
        {
          "id": 1,
          "value": 0.0
        }
      ],
      "leftModuleId": 428,
      "rightModuleId": 445,
      "data": {
        "deviations": {
          "lfos": [
            {
              "amplitude": 5.5,
              "frequency": {
                "maximum": 154.699997,
                "minimum": 0.147,
                "absMinimum": 0.000294000027,
                "absMaximum": 160.887985
              }
            },
            {
              "amplitude": 5.5,
              "frequency": {
                "maximum": 84.7399979,
                "minimum": 0.0816000029,
                "absMinimum": 0.00016320002,
                "absMaximum": 88.1295929
              }
            },
            {
              "amplitude": 5.5,
              "frequency": {
                "maximum": 42.2599983,
                "minimum": 0.0417000018,
                "absMinimum": 8.34000093e-5,
                "absMaximum": 43.9503975
              }
            },
            {
              "amplitude": 5.5,
              "frequency": {
                "maximum": 22.0100002,
                "minimum": 0.0221999995,
                "absMinimum": 4.43999998e-5,
                "absMaximum": 22.8903999
              }
            },
            {
              "amplitude": 5.5,
              "frequency": {
                "maximum": 10.3699999,
                "minimum": 0.0102000004,
                "absMinimum": 2.04000025e-5,
                "absMaximum": 10.7847996
              }
            },
            {
              "amplitude": 5.5,
              "frequency": {
                "maximum": 4.69999981,
                "minimum": 0.00505999988,
                "absMinimum": 1.01200003e-5,
                "absMaximum": 4.88799953
              }
            },
            {
              "amplitude": 5.5,
              "frequency": {
                "maximum": 2.11999989,
                "minimum": 0.00212999992,
                "absMinimum": 4.25999997e-6,
                "absMaximum": 2.20479989
              }
            },
            {
              "amplitude": 5.5,
              "frequency": {
                "maximum": 1.00999999,
                "minimum": 0.00100000005,
                "absMinimum": 2.00000022e-6,
                "absMaximum": 1.0503999
              }
            }
          ]
        }
      },
      "pos": [
        111,
        0
      ]
    },
    {
      "id": 430,
      "plugin": "AlrightDevices",
      "version": "1.0.3",
      "model": "Chronoblob2",
      "params": [
        {
          "id": 0,
          "value": 0.5
        },
        {
          "id": 1,
          "value": 0.5
        },
        {
          "id": 2,
          "value": 0.5
        },
        {
          "id": 3,
          "value": 0.0
        },
        {
          "id": 4,
          "value": 0.0
        },
        {
          "id": 5,
          "value": 0.0
        },
        {
          "id": 6,
          "value": 0.0
        },
        {
          "id": 7,
          "value": 0.0
        },
        {
          "id": 8,
          "value": 1.0
        },
        {
          "id": 9,
          "value": 0.0
        }
      ],
      "leftModuleId": 1,
      "rightModuleId": 427,
      "data": {
        "delay_mode": 0,
        "hold_behavior": 0,
        "sync_prescaler": 6
      },
      "pos": [
        67,
        0
      ]
    },
    {
      "id": 432,
      "plugin": "Geodesics",
      "version": "1.2.0",
      "model": "Branes",
      "params": [
        {
          "id": 0,
          "value": 0.0
        },
        {
          "id": 1,
          "value": 0.0
        },
        {
          "id": 2,
          "value": 0.0
        },
        {
          "id": 3,
          "value": 0.0
        }
      ],
      "leftModuleId": 427,
      "rightModuleId": 421,
      "data": {
        "panelTheme": 1,
        "vibrations0": 0,
        "vibrations1": 0,
        "noiseRange0": 0.0,
        "noiseRange1": 0.0
      },
      "pos": [
        82,
        0
      ]
    },
    {
      "id": 433,
      "plugin": "Bogaudio",
      "version": "1.1.37",
      "model": "Bogaudio-AD",
      "params": [
        {
          "id": 0,
          "value": 0.0
        },
        {
          "id": 1,
          "value": 0.127230063
        },
        {
          "id": 2,
          "value": 0.0
        },
        {
          "id": 3,
          "value": 0.0
        },
        {
          "id": 4,
          "value": 1.0
        }
      ],
      "leftModuleId": 420,
      "rightModuleId": 438,
      "data": {
        "skin": "lowcontrast",
        "invert": 1.0
      },
      "pos": [
        102,
        1
      ]
    },
    {
      "id": 437,
      "plugin": "Fundamental",
      "version": "1.4.0",
      "model": "Quantizer",
      "params": [],
      "leftModuleId": 439,
      "rightModuleId": 362,
      "data": {
        "enabledNotes": [
          true,
          false,
          true,
          false,
          true,
          false,
          true,
          true,
          false,
          true,
          false,
          true
        ]
      },
      "pos": [
        113,
        1
      ]
    },
    {
      "id": 438,
      "plugin": "Fundamental",
      "version": "1.4.0",
      "model": "Merge",
      "params": [],
      "leftModuleId": 433,
      "rightModuleId": 439,
      "data": {
        "channels": -1
      },
      "pos": [
        105,
        1
      ]
    },
    {
      "id": 439,
      "plugin": "Stoermelder-P1",
      "version": "1.9.0",
      "model": "AffixMicro",
      "params": [
        {
          "id": 0,
          "value": -1.78999949
        },
        {
          "id": 1,
          "value": -1.53000033
        },
        {
          "id": 2,
          "value": -2.37000036
        },
        {
          "id": 3,
          "value": 0.0
        },
        {
          "id": 4,
          "value": 0.0
        },
        {
          "id": 5,
          "value": 0.0
        },
        {
          "id": 6,
          "value": 0.0
        },
        {
          "id": 7,
          "value": 0.0
        }
      ],
      "leftModuleId": 438,
      "rightModuleId": 437,
      "data": {
        "panelTheme": 1,
        "paramMode": 0,
        "numberOfChannels": 0
      },
      "pos": [
        110,
        1
      ]
    },
    {
      "id": 440,
      "plugin": "AudibleInstruments",
      "version": "1.5.0",
      "model": "Branches",
      "params": [
        {
          "id": 0,
          "value": 0.5
        },
        {
          "id": 1,
          "value": 0.5
        },
        {
          "id": 2,
          "value": 0.0
        },
        {
          "id": 3,
          "value": 0.0
        }
      ],
      "leftModuleId": 441,
      "rightModuleId": 375,
      "data": {
        "modes": [
          false,
          false
        ]
      },
      "pos": [
        25,
        0
      ]
    },
    {
      "id": 441,
      "plugin": "Bogaudio",
      "version": "1.1.37",
      "model": "Bogaudio-LVCF",
      "params": [
        {
          "id": 0,
          "value": 0.412610054
        },
        {
          "id": 1,
          "value": 0.314999968
        },
        {
          "id": 2,
          "value": 0.206999972
        },
        {
          "id": 3,
          "value": 0.0
        }
      ],
      "leftModuleId": 442,
      "rightModuleId": 440,
      "data": {
        "poles": 4,
        "bandwidthMode": "pitched"
      },
      "pos": [
        22,
        0
      ]
    },
    {
      "id": 442,
      "plugin": "Bogaudio",
      "version": "1.1.37",
      "model": "Bogaudio-LVCF",
      "params": [
        {
          "id": 0,
          "value": 0.369110048
        },
        {
          "id": 1,
          "value": 0.192000002
        },
        {
          "id": 2,
          "value": 0.108000003
        },
        {
          "id": 3,
          "value": 0.0
        }
      ],
      "leftModuleId": 443,
      "rightModuleId": 441,
      "data": {
        "poles": 4,
        "bandwidthMode": "pitched"
      },
      "pos": [
        19,
        0
      ]
    },
    {
      "id": 443,
      "plugin": "Bogaudio",
      "version": "1.1.37",
      "model": "Bogaudio-LVCF",
      "params": [
        {
          "id": 0,
          "value": 0.29561004
        },
        {
          "id": 1,
          "value": 0.215999991
        },
        {
          "id": 2,
          "value": 0.169499993
        },
        {
          "id": 3,
          "value": 0.0
        }
      ],
      "leftModuleId": 444,
      "rightModuleId": 442,
      "data": {
        "poles": 4,
        "bandwidthMode": "pitched"
      },
      "pos": [
        16,
        0
      ]
    },
    {
      "id": 444,
      "plugin": "Geodesics",
      "version": "1.2.0",
      "model": "Blank-PanelLogo",
      "params": [
        {
          "id": 0,
          "value": 1.0
        }
      ],
      "leftModuleId": 79,
      "rightModuleId": 443,
      "data": {
        "panelTheme": 1
      },
      "pos": [
        12,
        0
      ]
    },
    {
      "id": 445,
      "plugin": "Ohmer",
      "version": "1.1.6",
      "model": "OhmerBlank1",
      "params": [],
      "leftModuleId": 429,
      "rightModuleId": 360,
      "data": {
        "Theme": 5
      },
      "pos": [
        115,
        0
      ]
    }
  ],
  "cables": [
    {
      "id": 702,
      "outputModuleId": 375,
      "outputId": 0,
      "inputModuleId": 1,
      "inputId": 0,
      "color": "#c91847"
    },
    {
      "id": 703,
      "outputModuleId": 375,
      "outputId": 1,
      "inputModuleId": 1,
      "inputId": 1,
      "color": "#c91847"
    },
    {
      "id": 803,
      "outputModuleId": 379,
      "outputId": 0,
      "inputModuleId": 411,
      "inputId": 0,
      "color": "#364449"
    },
    {
      "id": 807,
      "outputModuleId": 379,
      "outputId": 4,
      "inputModuleId": 412,
      "inputId": 4,
      "color": "#364449"
    },
    {
      "id": 808,
      "outputModuleId": 379,
      "outputId": 4,
      "inputModuleId": 411,
      "inputId": 4,
      "color": "#364449"
    },
    {
      "id": 809,
      "outputModuleId": 411,
      "outputId": 1,
      "inputModuleId": 413,
      "inputId": 2,
      "color": "#c9b70e"
    },
    {
      "id": 810,
      "outputModuleId": 411,
      "outputId": 0,
      "inputModuleId": 413,
      "inputId": 3,
      "color": "#c9b70e"
    },
    {
      "id": 811,
      "outputModuleId": 412,
      "outputId": 0,
      "inputModuleId": 413,
      "inputId": 4,
      "color": "#c9b70e"
    },
    {
      "id": 812,
      "outputModuleId": 413,
      "outputId": 0,
      "inputModuleId": 414,
      "inputId": 0,
      "color": "#c9b70e"
    },
    {
      "id": 813,
      "outputModuleId": 413,
      "outputId": 0,
      "inputModuleId": 414,
      "inputId": 2,
      "color": "#c9b70e"
    },
    {
      "id": 814,
      "outputModuleId": 413,
      "outputId": 1,
      "inputModuleId": 414,
      "inputId": 3,
      "color": "#c9b70e"
    },
    {
      "id": 815,
      "outputModuleId": 413,
      "outputId": 1,
      "inputModuleId": 414,
      "inputId": 6,
      "color": "#c9b70e"
    },
    {
      "id": 816,
      "outputModuleId": 413,
      "outputId": 2,
      "inputModuleId": 414,
      "inputId": 5,
      "color": "#c9b70e"
    },
    {
      "id": 817,
      "outputModuleId": 413,
      "outputId": 2,
      "inputModuleId": 414,
      "inputId": 1,
      "color": "#c9b70e"
    },
    {
      "id": 819,
      "outputModuleId": 414,
      "outputId": 0,
      "inputModuleId": 415,
      "inputId": 0,
      "color": "#c9b70e"
    },
    {
      "id": 822,
      "outputModuleId": 415,
      "outputId": 0,
      "inputModuleId": 416,
      "inputId": 2,
      "color": "#c9b70e"
    },
    {
      "id": 823,
      "outputModuleId": 415,
      "outputId": 1,
      "inputModuleId": 418,
      "inputId": 2,
      "color": "#c9b70e"
    },
    {
      "id": 824,
      "outputModuleId": 415,
      "outputId": 2,
      "inputModuleId": 419,
      "inputId": 2,
      "color": "#c9b70e"
    },
    {
      "id": 825,
      "outputModuleId": 414,
      "outputId": 0,
      "inputModuleId": 420,
      "inputId": 2,
      "color": "#c9b70e"
    },
    {
      "id": 821,
      "outputModuleId": 379,
      "outputId": 4,
      "inputModuleId": 414,
      "inputId": 11,
      "color": "#364449"
    },
    {
      "id": 835,
      "outputModuleId": 421,
      "outputId": 0,
      "inputModuleId": 416,
      "inputId": 3,
      "color": "#0c8e15"
    },
    {
      "id": 841,
      "outputModuleId": 422,
      "outputId": 0,
      "inputModuleId": 423,
      "inputId": 0,
      "color": "#364449"
    },
    {
      "id": 842,
      "outputModuleId": 422,
      "outputId": 2,
      "inputModuleId": 424,
      "inputId": 0,
      "color": "#364449"
    },
    {
      "id": 843,
      "outputModuleId": 423,
      "outputId": 0,
      "inputModuleId": 418,
      "inputId": 3,
      "color": "#0c8e15"
    },
    {
      "id": 844,
      "outputModuleId": 424,
      "outputId": 0,
      "inputModuleId": 419,
      "inputId": 3,
      "color": "#0c8e15"
    },
    {
      "id": 847,
      "outputModuleId": 379,
      "outputId": 2,
      "inputModuleId": 414,
      "inputId": 10,
      "color": "#364449"
    },
    {
      "id": 848,
      "outputModuleId": 422,
      "outputId": 0,
      "inputModuleId": 415,
      "inputId": 1,
      "color": "#364449"
    },
    {
      "id": 851,
      "outputModuleId": 379,
      "outputId": 0,
      "inputModuleId": 422,
      "inputId": 1,
      "color": "#364449"
    },
    {
      "id": 853,
      "outputModuleId": 422,
      "outputId": 3,
      "inputModuleId": 427,
      "inputId": 2,
      "color": "#364449"
    },
    {
      "id": 854,
      "outputModuleId": 427,
      "outputId": 0,
      "inputModuleId": 413,
      "inputId": 5,
      "color": "#c9b70e"
    },
    {
      "id": 855,
      "outputModuleId": 413,
      "outputId": 3,
      "inputModuleId": 414,
      "inputId": 7,
      "color": "#c9b70e"
    },
    {
      "id": 857,
      "outputModuleId": 379,
      "outputId": 1,
      "inputModuleId": 427,
      "inputId": 0,
      "color": "#364449"
    },
    {
      "id": 858,
      "outputModuleId": 413,
      "outputId": 3,
      "inputModuleId": 414,
      "inputId": 4,
      "color": "#c9b70e"
    },
    {
      "id": 845,
      "outputModuleId": 422,
      "outputId": 1,
      "inputModuleId": 412,
      "inputId": 1,
      "color": "#364449"
    },
    {
      "id": 860,
      "outputModuleId": 422,
      "outputId": 1,
      "inputModuleId": 414,
      "inputId": 13,
      "color": "#364449"
    },
    {
      "id": 861,
      "outputModuleId": 379,
      "outputId": 0,
      "inputModuleId": 422,
      "inputId": 0,
      "color": "#364449"
    },
    {
      "id": 862,
      "outputModuleId": 422,
      "outputId": 3,
      "inputModuleId": 428,
      "inputId": 0,
      "color": "#364449"
    },
    {
      "id": 863,
      "outputModuleId": 428,
      "outputId": 0,
      "inputModuleId": 416,
      "inputId": 5,
      "color": "#0c8e15"
    },
    {
      "id": 864,
      "outputModuleId": 428,
      "outputId": 1,
      "inputModuleId": 418,
      "inputId": 5,
      "color": "#0c8e15"
    },
    {
      "id": 865,
      "outputModuleId": 422,
      "outputId": 3,
      "inputModuleId": 428,
      "inputId": 2,
      "color": "#364449"
    },
    {
      "id": 866,
      "outputModuleId": 429,
      "outputId": 5,
      "inputModuleId": 419,
      "inputId": 5,
      "color": "#0c8e15"
    },
    {
      "id": 867,
      "outputModuleId": 429,
      "outputId": 4,
      "inputModuleId": 420,
      "inputId": 5,
      "color": "#0c8e15"
    },
    {
      "id": 869,
      "outputModuleId": 375,
      "outputId": 10,
      "inputModuleId": 430,
      "inputId": 5,
      "color": "#c91847"
    },
    {
      "id": 870,
      "outputModuleId": 375,
      "outputId": 11,
      "inputModuleId": 430,
      "inputId": 6,
      "color": "#c91847"
    },
    {
      "id": 871,
      "outputModuleId": 430,
      "outputId": 0,
      "inputModuleId": 375,
      "inputId": 34,
      "color": "#c91847"
    },
    {
      "id": 872,
      "outputModuleId": 430,
      "outputId": 1,
      "inputModuleId": 375,
      "inputId": 35,
      "color": "#c91847"
    },
    {
      "id": 873,
      "outputModuleId": 379,
      "outputId": 0,
      "inputModuleId": 430,
      "inputId": 7,
      "color": "#364449"
    },
    {
      "id": 874,
      "outputModuleId": 429,
      "outputId": 3,
      "inputModuleId": 432,
      "inputId": 2,
      "color": "#0c8e15"
    },
    {
      "id": 875,
      "outputModuleId": 429,
      "outputId": 4,
      "inputModuleId": 432,
      "inputId": 3,
      "color": "#0c8e15"
    },
    {
      "id": 876,
      "outputModuleId": 429,
      "outputId": 5,
      "inputModuleId": 432,
      "inputId": 4,
      "color": "#0c8e15"
    },
    {
      "id": 877,
      "outputModuleId": 429,
      "outputId": 6,
      "inputModuleId": 432,
      "inputId": 5,
      "color": "#0c8e15"
    },
    {
      "id": 878,
      "outputModuleId": 429,
      "outputId": 2,
      "inputModuleId": 432,
      "inputId": 1,
      "color": "#0c8e15"
    },
    {
      "id": 879,
      "outputModuleId": 422,
      "outputId": 1,
      "inputModuleId": 432,
      "inputId": 14,
      "color": "#364449"
    },
    {
      "id": 890,
      "outputModuleId": 420,
      "outputId": 0,
      "inputModuleId": 375,
      "inputId": 3,
      "color": "#c91847"
    },
    {
      "id": 892,
      "outputModuleId": 433,
      "outputId": 0,
      "inputModuleId": 420,
      "inputId": 3,
      "color": "#0c8e15"
    },
    {
      "id": 893,
      "outputModuleId": 433,
      "outputId": 1,
      "inputModuleId": 411,
      "inputId": 1,
      "color": "#364449"
    },
    {
      "id": 894,
      "outputModuleId": 437,
      "outputId": 0,
      "inputModuleId": 416,
      "inputId": 1,
      "color": "#c9b70e"
    },
    {
      "id": 896,
      "outputModuleId": 437,
      "outputId": 0,
      "inputModuleId": 418,
      "inputId": 1,
      "color": "#c9b70e"
    },
    {
      "id": 897,
      "outputModuleId": 437,
      "outputId": 0,
      "inputModuleId": 419,
      "inputId": 1,
      "color": "#c9b70e"
    },
    {
      "id": 898,
      "outputModuleId": 432,
      "outputId": 1,
      "inputModuleId": 438,
      "inputId": 0,
      "color": "#c9b70e"
    },
    {
      "id": 899,
      "outputModuleId": 432,
      "outputId": 2,
      "inputModuleId": 438,
      "inputId": 1,
      "color": "#c9b70e"
    },
    {
      "id": 900,
      "outputModuleId": 432,
      "outputId": 3,
      "inputModuleId": 438,
      "inputId": 2,
      "color": "#c9b70e"
    },
    {
      "id": 895,
      "outputModuleId": 438,
      "outputId": 0,
      "inputModuleId": 439,
      "inputId": 0,
      "color": "#c9b70e"
    },
    {
      "id": 901,
      "outputModuleId": 439,
      "outputId": 0,
      "inputModuleId": 437,
      "inputId": 0,
      "color": "#c9b70e"
    },
    {
      "id": 902,
      "outputModuleId": 379,
      "outputId": 1,
      "inputModuleId": 440,
      "inputId": 0,
      "color": "#364449"
    },
    {
      "id": 903,
      "outputModuleId": 440,
      "outputId": 0,
      "inputModuleId": 433,
      "inputId": 0,
      "color": "#364449"
    },
    {
      "id": 904,
      "outputModuleId": 440,
      "outputId": 2,
      "inputModuleId": 412,
      "inputId": 0,
      "color": "#364449"
    },
    {
      "id": 826,
      "outputModuleId": 416,
      "outputId": 0,
      "inputModuleId": 443,
      "inputId": 0,
      "color": "#c91847"
    },
    {
      "id": 827,
      "outputModuleId": 418,
      "outputId": 0,
      "inputModuleId": 442,
      "inputId": 0,
      "color": "#c91847"
    },
    {
      "id": 828,
      "outputModuleId": 419,
      "outputId": 0,
      "inputModuleId": 441,
      "inputId": 0,
      "color": "#c91847"
    },
    {
      "id": 905,
      "outputModuleId": 443,
      "outputId": 0,
      "inputModuleId": 375,
      "inputId": 0,
      "color": "#c91847"
    },
    {
      "id": 906,
      "outputModuleId": 442,
      "outputId": 0,
      "inputModuleId": 375,
      "inputId": 1,
      "color": "#c91847"
    },
    {
      "id": 907,
      "outputModuleId": 441,
      "outputId": 0,
      "inputModuleId": 375,
      "inputId": 2,
      "color": "#c91847"
    },
    {
      "id": 908,
      "outputModuleId": 432,
      "outputId": 4,
      "inputModuleId": 443,
      "inputId": 1,
      "color": "#0c8e15"
    },
    {
      "id": 909,
      "outputModuleId": 432,
      "outputId": 5,
      "inputModuleId": 442,
      "inputId": 1,
      "color": "#0c8e15"
    },
    {
      "id": 910,
      "outputModuleId": 429,
      "outputId": 7,
      "inputModuleId": 441,
      "inputId": 1,
      "color": "#0c8e15"
    },
    {
      "id": 836,
      "outputModuleId": 379,
      "outputId": 2,
      "inputModuleId": 421,
      "inputId": 0,
      "color": "#364449"
    },
    {
      "id": 911,
      "outputModuleId": 379,
      "outputId": 3,
      "inputModuleId": 440,
      "inputId": 1,
      "color": "#364449"
    }
  ]
}