{
  "version": "1.1.6",
  "modules": [
    {
      "id": 1,
      "plugin": "Core",
      "version": "1.1.6",
      "model": "AudioInterface",
      "params": [],
      "leftModuleId": 375,
      "rightModuleId": 384,
      "data": {
        "audio": {
          "driver": 7,
          "deviceName": "Studio USB ASIO Driver",
          "offset": 0,
          "maxChannels": 8,
          "sampleRate": 48000,
          "blockSize": 256
        }
      },
      "pos": [
        40,
        0
      ]
    },
    {
      "id": 76,
      "plugin": "Stoermelder-P1",
      "version": "1.10.0",
      "model": "Mb",
      "params": [],
      "leftModuleId": 914,
      "rightModuleId": 380,
      "data": {
        "mode": 1
      },
      "pos": [
        4,
        0
      ]
    },
    {
      "id": 375,
      "plugin": "squinkylabs-plug1",
      "version": "1.0.22",
      "model": "squinkylabs-mix8",
      "params": [
        {
          "id": 0,
          "value": 0.800000012
        },
        {
          "id": 1,
          "value": 0.0
        },
        {
          "id": 2,
          "value": 0.800000012
        },
        {
          "id": 3,
          "value": 0.800000012
        },
        {
          "id": 4,
          "value": 0.800000012
        },
        {
          "id": 5,
          "value": 0.800000012
        },
        {
          "id": 6,
          "value": 0.722000062
        },
        {
          "id": 7,
          "value": 0.732500076
        },
        {
          "id": 8,
          "value": 0.800000012
        },
        {
          "id": 9,
          "value": 0.800000012
        },
        {
          "id": 10,
          "value": 0.0
        },
        {
          "id": 11,
          "value": 0.0
        },
        {
          "id": 12,
          "value": 0.0
        },
        {
          "id": 13,
          "value": 0.0
        },
        {
          "id": 14,
          "value": 0.0
        },
        {
          "id": 15,
          "value": 0.0
        },
        {
          "id": 16,
          "value": 0.0
        },
        {
          "id": 17,
          "value": 0.0
        },
        {
          "id": 18,
          "value": 0.0
        },
        {
          "id": 19,
          "value": 0.0
        },
        {
          "id": 20,
          "value": 0.0
        },
        {
          "id": 21,
          "value": 0.0
        },
        {
          "id": 22,
          "value": 0.0
        },
        {
          "id": 23,
          "value": 0.0
        },
        {
          "id": 24,
          "value": 0.0
        },
        {
          "id": 25,
          "value": 0.0
        },
        {
          "id": 26,
          "value": 0.0
        },
        {
          "id": 27,
          "value": 0.0
        },
        {
          "id": 28,
          "value": 0.0
        },
        {
          "id": 29,
          "value": 0.0
        },
        {
          "id": 30,
          "value": 0.0
        },
        {
          "id": 31,
          "value": 0.0
        },
        {
          "id": 32,
          "value": 0.0
        },
        {
          "id": 33,
          "value": 0.0
        },
        {
          "id": 34,
          "value": 0.13350001
        },
        {
          "id": 35,
          "value": 0.112499997
        },
        {
          "id": 36,
          "value": 0.124499999
        },
        {
          "id": 37,
          "value": 0.146999985
        },
        {
          "id": 38,
          "value": 0.1065
        },
        {
          "id": 39,
          "value": 0.103500001
        },
        {
          "id": 40,
          "value": 0.0
        },
        {
          "id": 41,
          "value": 0.0
        },
        {
          "id": 42,
          "value": 1.0
        }
      ],
      "leftModuleId": 646,
      "rightModuleId": 1,
      "pos": [
        14,
        0
      ]
    },
    {
      "id": 380,
      "plugin": "Stoermelder-P1",
      "version": "1.10.0",
      "model": "Me",
      "params": [],
      "leftModuleId": 76,
      "rightModuleId": 646,
      "pos": [
        6,
        0
      ]
    },
    {
      "id": 384,
      "plugin": "Valley",
      "version": "1.1.7",
      "model": "Plateau",
      "params": [
        {
          "id": 0,
          "value": 0.0
        },
        {
          "id": 1,
          "value": 1.0
        },
        {
          "id": 2,
          "value": 0.0
        },
        {
          "id": 3,
          "value": 5.71000004
        },
        {
          "id": 4,
          "value": 10.0
        },
        {
          "id": 5,
          "value": 0.5
        },
        {
          "id": 6,
          "value": 10.0
        },
        {
          "id": 7,
          "value": 0.549950004
        },
        {
          "id": 8,
          "value": 10.0
        },
        {
          "id": 9,
          "value": 10.0
        },
        {
          "id": 10,
          "value": 0.0
        },
        {
          "id": 11,
          "value": 0.5
        },
        {
          "id": 12,
          "value": 0.5
        },
        {
          "id": 13,
          "value": 0.0
        },
        {
          "id": 14,
          "value": 0.0
        },
        {
          "id": 15,
          "value": 0.0
        },
        {
          "id": 16,
          "value": 0.0
        },
        {
          "id": 17,
          "value": 0.0
        },
        {
          "id": 18,
          "value": 0.0
        },
        {
          "id": 19,
          "value": 0.0
        },
        {
          "id": 20,
          "value": 0.0
        },
        {
          "id": 21,
          "value": 0.0
        },
        {
          "id": 22,
          "value": 0.0
        },
        {
          "id": 23,
          "value": 0.0
        },
        {
          "id": 24,
          "value": 0.0
        },
        {
          "id": 25,
          "value": 0.0
        },
        {
          "id": 26,
          "value": 0.0
        },
        {
          "id": 27,
          "value": 0.0
        },
        {
          "id": 28,
          "value": 0.0
        },
        {
          "id": 29,
          "value": 0.0
        },
        {
          "id": 30,
          "value": 1.0
        }
      ],
      "leftModuleId": 1,
      "rightModuleId": 926,
      "data": {
        "frozen": false,
        "freezeToggle": false,
        "panelStyle": 0,
        "tuned": 0,
        "diffuseInput": 1,
        "preDelayCVSens": 0,
        "inputSensitivity": 0,
        "outputSaturation": 0
      },
      "pos": [
        50,
        0
      ]
    },
    {
      "id": 646,
      "plugin": "Stoermelder-P1",
      "version": "1.10.0",
      "model": "Stroke",
      "params": [],
      "leftModuleId": 380,
      "rightModuleId": 375,
      "data": {
        "panelTheme": 1,
        "keys": [
          {
            "button": -1,
            "key": 49,
            "mods": 0,
            "mode": 24,
            "high": false,
            "data": "#e0d8a3"
          },
          {
            "button": -1,
            "key": 50,
            "mods": 0,
            "mode": 24,
            "high": false,
            "data": "#81b29a"
          },
          {
            "button": -1,
            "key": 51,
            "mods": 0,
            "mode": 24,
            "high": false,
            "data": "#e07a5f"
          },
          {
            "button": -1,
            "key": 52,
            "mods": 0,
            "mode": 24,
            "high": false,
            "data": "#3d405b"
          },
          {
            "button": -1,
            "key": -1,
            "mods": 0,
            "mode": 1,
            "high": false,
            "data": ""
          },
          {
            "button": -1,
            "key": -1,
            "mods": 0,
            "mode": 1,
            "high": false,
            "data": ""
          },
          {
            "button": -1,
            "key": -1,
            "mods": 0,
            "mode": 1,
            "high": false,
            "data": ""
          },
          {
            "button": -1,
            "key": -1,
            "mods": 0,
            "mode": 1,
            "high": false,
            "data": ""
          },
          {
            "button": -1,
            "key": -1,
            "mods": 0,
            "mode": 1,
            "high": false,
            "data": ""
          },
          {
            "button": -1,
            "key": -1,
            "mods": 0,
            "mode": 1,
            "high": false,
            "data": ""
          }
        ]
      },
      "pos": [
        8,
        0
      ]
    },
    {
      "id": 648,
      "plugin": "ImpromptuModular",
      "version": "1.1.12",
      "model": "Clocked-Clkd",
      "params": [
        {
          "id": 0,
          "value": 0.0
        },
        {
          "id": 1,
          "value": 4.0
        },
        {
          "id": 2,
          "value": 7.0
        },
        {
          "id": 3,
          "value": 123.0
        },
        {
          "id": 4,
          "value": 0.0
        },
        {
          "id": 5,
          "value": 0.0
        },
        {
          "id": 6,
          "value": 0.0
        },
        {
          "id": 7,
          "value": 0.0
        },
        {
          "id": 8,
          "value": 0.0
        },
        {
          "id": 9,
          "value": 0.0
        }
      ],
      "leftModuleId": 915,
      "rightModuleId": 925,
      "data": {
        "panelTheme": 1,
        "running": true,
        "bpmDetectionMode": false,
        "resetOnStartStop": 0,
        "ppqn": 4,
        "resetClockOutputsHigh": true,
        "momentaryRunInput": true,
        "displayIndex": 2,
        "trigOuts": [
          false,
          false,
          false,
          false
        ],
        "clockMaster": -1
      },
      "pos": [
        4,
        1
      ]
    },
    {
      "id": 874,
      "plugin": "Geodesics",
      "version": "1.2.0",
      "model": "Fate",
      "params": [
        {
          "id": 0,
          "value": 0.0989999399
        },
        {
          "id": 1,
          "value": 0.128999919
        }
      ],
      "leftModuleId": 875,
      "rightModuleId": 879,
      "data": {
        "panelTheme": 1,
        "holdTrigOut": 0
      },
      "pos": [
        34,
        1
      ]
    },
    {
      "id": 875,
      "plugin": "Geodesics",
      "version": "1.2.0",
      "model": "Ions",
      "params": [
        {
          "id": 0,
          "value": 0.0
        },
        {
          "id": 1,
          "value": 0.0
        },
        {
          "id": 2,
          "value": 0.528562427
        },
        {
          "id": 3,
          "value": 0.359506786
        },
        {
          "id": 4,
          "value": 0.638191938
        },
        {
          "id": 5,
          "value": 0.442076743
        },
        {
          "id": 6,
          "value": 0.0221049786
        },
        {
          "id": 7,
          "value": 0.546370745
        },
        {
          "id": 8,
          "value": 0.40546757
        },
        {
          "id": 9,
          "value": 0.371379435
        },
        {
          "id": 10,
          "value": 0.131830096
        },
        {
          "id": 11,
          "value": 0.357901156
        },
        {
          "id": 12,
          "value": 0.267029881
        },
        {
          "id": 13,
          "value": 0.670714676
        },
        {
          "id": 14,
          "value": 0.908929288
        },
        {
          "id": 15,
          "value": 0.67148453
        },
        {
          "id": 16,
          "value": 0.00188827515
        },
        {
          "id": 17,
          "value": 0.643675268
        },
        {
          "id": 18,
          "value": 0.0
        },
        {
          "id": 19,
          "value": 0.0
        },
        {
          "id": 20,
          "value": 0.0
        },
        {
          "id": 21,
          "value": 0.0
        },
        {
          "id": 22,
          "value": 0.0
        },
        {
          "id": 23,
          "value": 0.0
        },
        {
          "id": 24,
          "value": 0.0
        },
        {
          "id": 25,
          "value": 0.0
        },
        {
          "id": 26,
          "value": 0.0
        },
        {
          "id": 27,
          "value": 0.0
        }
      ],
      "leftModuleId": 925,
      "rightModuleId": 874,
      "data": {
        "panelTheme": 1,
        "running": true,
        "resetOnRun": false,
        "quantize": 3,
        "uncertainty": false,
        "stepIndexes0": 7,
        "stepIndexes1": 15,
        "states0": 2,
        "states1": 2,
        "ranges0": 1,
        "ranges1": 1,
        "leap": false
      },
      "pos": [
        15,
        1
      ]
    },
    {
      "id": 879,
      "plugin": "ML_modules",
      "version": "1.1.3",
      "model": "ShiftRegister",
      "params": [
        {
          "id": 0,
          "value": 0.0
        },
        {
          "id": 1,
          "value": 0.0
        },
        {
          "id": 2,
          "value": 0.0
        },
        {
          "id": 3,
          "value": 0.0
        },
        {
          "id": 4,
          "value": 0.0
        },
        {
          "id": 5,
          "value": 0.0
        },
        {
          "id": 6,
          "value": 0.0
        },
        {
          "id": 7,
          "value": 0.0
        },
        {
          "id": 8,
          "value": 0.0
        }
      ],
      "leftModuleId": 874,
      "rightModuleId": 880,
      "pos": [
        39,
        1
      ]
    },
    {
      "id": 880,
      "plugin": "Fundamental",
      "version": "1.4.0",
      "model": "Merge",
      "params": [],
      "leftModuleId": 879,
      "rightModuleId": 882,
      "data": {
        "channels": -1
      },
      "pos": [
        43,
        1
      ]
    },
    {
      "id": 881,
      "plugin": "Fundamental",
      "version": "1.4.0",
      "model": "Split",
      "params": [],
      "leftModuleId": 882,
      "rightModuleId": 883,
      "pos": [
        55,
        1
      ]
    },
    {
      "id": 882,
      "plugin": "Geodesics",
      "version": "1.2.0",
      "model": "Energy",
      "params": [
        {
          "id": 0,
          "value": 0.0
        },
        {
          "id": 1,
          "value": 0.0
        },
        {
          "id": 2,
          "value": 0.0
        },
        {
          "id": 3,
          "value": 0.0
        },
        {
          "id": 4,
          "value": 0.0
        },
        {
          "id": 5,
          "value": 0.0
        },
        {
          "id": 6,
          "value": 0.0
        },
        {
          "id": 7,
          "value": 0.0
        },
        {
          "id": 8,
          "value": 0.0
        },
        {
          "id": 9,
          "value": 0.0
        }
      ],
      "leftModuleId": 880,
      "rightModuleId": 881,
      "data": {
        "panelTheme": 1,
        "oscM_phase": 3412232568,
        "oscC_phase": 3926965880,
        "osc1M_phase": 3952579648,
        "osc1C_phase": 411775520,
        "osc2M_phase": 1846413312,
        "osc2C_phase": 636384480,
        "osc3M_phase": 439602240,
        "osc3C_phase": 3566297216,
        "osc4M_phase": 1313956112,
        "osc4C_phase": 1020891808,
        "osc5M_phase": 4279167936,
        "osc5C_phase": 2419533824,
        "osc6M_phase": 0,
        "osc6C_phase": 0,
        "osc7M_phase": 0,
        "osc7C_phase": 0,
        "osc8M_phase": 0,
        "osc8C_phase": 0,
        "osc9M_phase": 0,
        "osc9C_phase": 0,
        "osc10M_phase": 0,
        "osc10C_phase": 0,
        "osc11M_phase": 0,
        "osc11C_phase": 0,
        "osc12M_phase": 0,
        "osc12C_phase": 0,
        "osc13M_phase": 0,
        "osc13C_phase": 0,
        "osc14M_phase": 0,
        "osc14C_phase": 0,
        "osc15M_phase": 0,
        "osc15C_phase": 0,
        "routing": 1,
        "planck0": 0,
        "planck1": 0,
        "modtype0": 1,
        "modtype1": 1,
        "cross": 1
      },
      "pos": [
        48,
        1
      ]
    },
    {
      "id": 883,
      "plugin": "JW-Modules",
      "version": "1.0.29",
      "model": "Quantizer",
      "params": [
        {
          "id": 0,
          "value": 3.0
        },
        {
          "id": 1,
          "value": 11.0
        },
        {
          "id": 2,
          "value": 0.0
        }
      ],
      "leftModuleId": 881,
      "rightModuleId": 886,
      "data": {},
      "pos": [
        60,
        1
      ]
    },
    {
      "id": 886,
      "plugin": "NYSTHI",
      "version": "1.0.17",
      "model": "8AttackDecay",
      "params": [
        {
          "id": 0,
          "value": 0.0
        },
        {
          "id": 1,
          "value": 0.100000001
        },
        {
          "id": 2,
          "value": 0.0
        },
        {
          "id": 3,
          "value": 0.0
        },
        {
          "id": 4,
          "value": 0.0
        },
        {
          "id": 5,
          "value": 0.0
        },
        {
          "id": 6,
          "value": 0.0
        },
        {
          "id": 7,
          "value": 0.0
        },
        {
          "id": 8,
          "value": 0.0
        },
        {
          "id": 9,
          "value": 0.0
        },
        {
          "id": 10,
          "value": 0.0
        },
        {
          "id": 11,
          "value": 0.0
        },
        {
          "id": 12,
          "value": 1.0
        },
        {
          "id": 13,
          "value": 0.5
        },
        {
          "id": 14,
          "value": 1.0
        },
        {
          "id": 15,
          "value": 1.0
        },
        {
          "id": 16,
          "value": 1.0
        },
        {
          "id": 17,
          "value": 1.0
        },
        {
          "id": 18,
          "value": 1.0
        },
        {
          "id": 19,
          "value": 1.0
        },
        {
          "id": 20,
          "value": 1.0
        },
        {
          "id": 21,
          "value": 1.0
        },
        {
          "id": 22,
          "value": 0.0
        },
        {
          "id": 23,
          "value": 0.0
        },
        {
          "id": 24,
          "value": 0.0
        },
        {
          "id": 25,
          "value": 0.0
        },
        {
          "id": 26,
          "value": 0.0
        },
        {
          "id": 27,
          "value": 0.0
        },
        {
          "id": 28,
          "value": 0.0
        },
        {
          "id": 29,
          "value": 0.0
        },
        {
          "id": 30,
          "value": 0.0
        },
        {
          "id": 31,
          "value": 0.0
        },
        {
          "id": 32,
          "value": 0.0
        },
        {
          "id": 33,
          "value": 0.0
        },
        {
          "id": 34,
          "value": 0.0
        },
        {
          "id": 35,
          "value": 0.0
        },
        {
          "id": 36,
          "value": 0.0
        },
        {
          "id": 37,
          "value": 0.0
        },
        {
          "id": 38,
          "value": 0.0
        },
        {
          "id": 39,
          "value": 0.0
        },
        {
          "id": 40,
          "value": 0.0
        },
        {
          "id": 41,
          "value": 0.039000012
        },
        {
          "id": 42,
          "value": 0.00299999793
        },
        {
          "id": 43,
          "value": 0.0
        },
        {
          "id": 44,
          "value": 0.0
        },
        {
          "id": 45,
          "value": 0.0
        },
        {
          "id": 46,
          "value": 0.0
        },
        {
          "id": 47,
          "value": 0.0
        },
        {
          "id": 48,
          "value": 0.0
        },
        {
          "id": 49,
          "value": 0.0
        },
        {
          "id": 50,
          "value": 0.230499983
        },
        {
          "id": 51,
          "value": 0.185499996
        },
        {
          "id": 52,
          "value": 0.0849999934
        },
        {
          "id": 53,
          "value": 0.116499998
        },
        {
          "id": 54,
          "value": 0.0849999934
        },
        {
          "id": 55,
          "value": 0.0850000009
        },
        {
          "id": 56,
          "value": 0.100000001
        },
        {
          "id": 57,
          "value": 0.100000001
        },
        {
          "id": 58,
          "value": 0.0
        },
        {
          "id": 59,
          "value": 0.5
        },
        {
          "id": 60,
          "value": 0.5
        },
        {
          "id": 61,
          "value": 0.5
        },
        {
          "id": 62,
          "value": 0.5
        },
        {
          "id": 63,
          "value": 0.5
        },
        {
          "id": 64,
          "value": 0.5
        },
        {
          "id": 65,
          "value": 0.5
        },
        {
          "id": 66,
          "value": 0.5
        },
        {
          "id": 67,
          "value": 0.0
        }
      ],
      "leftModuleId": 883,
      "rightModuleId": 912,
      "data": {
        "m_looped0": false,
        "m_unitysummed0": false,
        "m_looped1": false,
        "m_unitysummed1": false,
        "m_looped2": false,
        "m_unitysummed2": false,
        "m_looped3": false,
        "m_unitysummed3": false,
        "m_looped4": false,
        "m_unitysummed4": false,
        "m_looped5": false,
        "m_unitysummed5": false,
        "m_looped6": false,
        "m_unitysummed6": false,
        "m_looped7": false,
        "m_unitysummed7": false
      },
      "pos": [
        64,
        1
      ]
    },
    {
      "id": 887,
      "plugin": "Fundamental",
      "version": "1.4.0",
      "model": "Merge",
      "params": [],
      "leftModuleId": 897,
      "rightModuleId": 910,
      "data": {
        "channels": -1
      },
      "pos": [
        97,
        0
      ]
    },
    {
      "id": 889,
      "plugin": "AS",
      "version": "1.0.4",
      "model": "Merge2_5",
      "params": [],
      "leftModuleId": 916,
      "rightModuleId": 890,
      "pos": [
        4,
        2
      ]
    },
    {
      "id": 890,
      "plugin": "FehlerFabrik-Suite",
      "version": "1.1.1",
      "model": "Aspect",
      "params": [],
      "leftModuleId": 889,
      "rightModuleId": 891,
      "pos": [
        9,
        2
      ]
    },
    {
      "id": 891,
      "plugin": "Fundamental",
      "version": "1.4.0",
      "model": "Merge",
      "params": [],
      "leftModuleId": 890,
      "rightModuleId": 892,
      "data": {
        "channels": -1
      },
      "pos": [
        19,
        2
      ]
    },
    {
      "id": 892,
      "plugin": "CountModula",
      "version": "1.15.1",
      "model": "PolyG2T",
      "params": [],
      "leftModuleId": 891,
      "rightModuleId": 893,
      "data": {
        "moduleVersion": 2,
        "theme": 1
      },
      "pos": [
        24,
        2
      ]
    },
    {
      "id": 893,
      "plugin": "Fundamental",
      "version": "1.4.0",
      "model": "Split",
      "params": [],
      "leftModuleId": 892,
      "rightModuleId": 894,
      "pos": [
        32,
        2
      ]
    },
    {
      "id": 894,
      "plugin": "Bogaudio",
      "version": "1.1.37",
      "model": "Bogaudio-Switch88",
      "params": [
        {
          "id": 0,
          "value": 1.0
        },
        {
          "id": 1,
          "value": 0.0
        },
        {
          "id": 2,
          "value": 1.0
        },
        {
          "id": 3,
          "value": 0.0
        },
        {
          "id": 4,
          "value": 1.0
        },
        {
          "id": 5,
          "value": 1.0
        },
        {
          "id": 6,
          "value": 0.0
        },
        {
          "id": 7,
          "value": 0.0
        },
        {
          "id": 8,
          "value": 0.0
        },
        {
          "id": 9,
          "value": 1.0
        },
        {
          "id": 10,
          "value": 1.0
        },
        {
          "id": 11,
          "value": 0.0
        },
        {
          "id": 12,
          "value": 1.0
        },
        {
          "id": 13,
          "value": 0.0
        },
        {
          "id": 14,
          "value": 1.0
        },
        {
          "id": 15,
          "value": 0.0
        },
        {
          "id": 16,
          "value": 1.0
        },
        {
          "id": 17,
          "value": 0.0
        },
        {
          "id": 18,
          "value": 0.0
        },
        {
          "id": 19,
          "value": 1.0
        },
        {
          "id": 20,
          "value": 0.0
        },
        {
          "id": 21,
          "value": 0.0
        },
        {
          "id": 22,
          "value": 0.0
        },
        {
          "id": 23,
          "value": 0.0
        },
        {
          "id": 24,
          "value": 0.0
        },
        {
          "id": 25,
          "value": 1.0
        },
        {
          "id": 26,
          "value": 0.0
        },
        {
          "id": 27,
          "value": 0.0
        },
        {
          "id": 28,
          "value": 0.0
        },
        {
          "id": 29,
          "value": 1.0
        },
        {
          "id": 30,
          "value": 0.0
        },
        {
          "id": 31,
          "value": 0.0
        },
        {
          "id": 32,
          "value": 1.0
        },
        {
          "id": 33,
          "value": 1.0
        },
        {
          "id": 34,
          "value": 0.0
        },
        {
          "id": 35,
          "value": 1.0
        },
        {
          "id": 36,
          "value": 1.0
        },
        {
          "id": 37,
          "value": 0.0
        },
        {
          "id": 38,
          "value": 1.0
        },
        {
          "id": 39,
          "value": 0.0
        },
        {
          "id": 40,
          "value": 0.0
        },
        {
          "id": 41,
          "value": 1.0
        },
        {
          "id": 42,
          "value": 1.0
        },
        {
          "id": 43,
          "value": 0.0
        },
        {
          "id": 44,
          "value": 1.0
        },
        {
          "id": 45,
          "value": 1.0
        },
        {
          "id": 46,
          "value": 0.0
        },
        {
          "id": 47,
          "value": 0.0
        },
        {
          "id": 48,
          "value": 1.0
        },
        {
          "id": 49,
          "value": 0.0
        },
        {
          "id": 50,
          "value": 1.0
        },
        {
          "id": 51,
          "value": 1.0
        },
        {
          "id": 52,
          "value": 0.0
        },
        {
          "id": 53,
          "value": 1.0
        },
        {
          "id": 54,
          "value": 0.0
        },
        {
          "id": 55,
          "value": 0.0
        },
        {
          "id": 56,
          "value": 0.0
        },
        {
          "id": 57,
          "value": 0.0
        },
        {
          "id": 58,
          "value": 1.0
        },
        {
          "id": 59,
          "value": 0.0
        },
        {
          "id": 60,
          "value": 0.0
        },
        {
          "id": 61,
          "value": 1.0
        },
        {
          "id": 62,
          "value": 0.0
        },
        {
          "id": 63,
          "value": 0.0
        }
      ],
      "leftModuleId": 893,
      "rightModuleId": 895,
      "data": {
        "clipping_mode": 0,
        "input_gain_db": 0.0,
        "sum": true,
        "inverting": "disabled",
        "row_exclusive": false,
        "column_exclusive": false
      },
      "pos": [
        37,
        2
      ]
    },
    {
      "id": 895,
      "plugin": "Stalys",
      "version": "1.4.2",
      "model": "Clip",
      "params": [
        {
          "id": 0,
          "value": -2.0
        },
        {
          "id": 1,
          "value": -2.0
        },
        {
          "id": 2,
          "value": -2.0
        },
        {
          "id": 3,
          "value": -2.0
        },
        {
          "id": 4,
          "value": -2.0
        },
        {
          "id": 5,
          "value": -2.0
        },
        {
          "id": 6,
          "value": -2.0
        },
        {
          "id": 7,
          "value": -2.0
        }
      ],
      "leftModuleId": 894,
      "rightModuleId": 903,
      "data": {
        "skin": ""
      },
      "pos": [
        59,
        2
      ]
    },
    {
      "id": 897,
      "plugin": "Fundamental",
      "version": "1.4.0",
      "model": "Merge",
      "params": [],
      "leftModuleId": 900,
      "rightModuleId": 887,
      "data": {
        "channels": -1
      },
      "pos": [
        92,
        0
      ]
    },
    {
      "id": 898,
      "plugin": "Geodesics",
      "version": "1.2.0",
      "model": "Branes",
      "params": [
        {
          "id": 0,
          "value": 0.0
        },
        {
          "id": 1,
          "value": 0.0
        },
        {
          "id": 2,
          "value": 0.0
        },
        {
          "id": 3,
          "value": 0.0
        }
      ],
      "leftModuleId": 923,
      "rightModuleId": 899,
      "data": {
        "panelTheme": 1,
        "vibrations0": 0,
        "vibrations1": 0,
        "noiseRange0": 0.0,
        "noiseRange1": 0.0
      },
      "pos": [
        66,
        0
      ]
    },
    {
      "id": 899,
      "plugin": "Instruo",
      "version": "1.1.0",
      "model": "ochd",
      "params": [
        {
          "id": 0,
          "value": 0.264499992
        },
        {
          "id": 1,
          "value": 0.0
        }
      ],
      "leftModuleId": 898,
      "rightModuleId": 902,
      "data": {
        "deviations": {
          "lfos": [
            {
              "amplitude": 5.5,
              "frequency": {
                "maximum": 154.699997,
                "minimum": 0.147,
                "absMinimum": 0.000294000027,
                "absMaximum": 160.887985
              }
            },
            {
              "amplitude": 5.5,
              "frequency": {
                "maximum": 84.7399979,
                "minimum": 0.0816000029,
                "absMinimum": 0.00016320002,
                "absMaximum": 88.1295929
              }
            },
            {
              "amplitude": 5.5,
              "frequency": {
                "maximum": 42.2599983,
                "minimum": 0.0417000018,
                "absMinimum": 8.34000093e-5,
                "absMaximum": 43.9503975
              }
            },
            {
              "amplitude": 5.5,
              "frequency": {
                "maximum": 22.0100002,
                "minimum": 0.0221999995,
                "absMinimum": 4.43999998e-5,
                "absMaximum": 22.8903999
              }
            },
            {
              "amplitude": 5.5,
              "frequency": {
                "maximum": 10.3699999,
                "minimum": 0.0102000004,
                "absMinimum": 2.04000025e-5,
                "absMaximum": 10.7847996
              }
            },
            {
              "amplitude": 5.5,
              "frequency": {
                "maximum": 4.69999981,
                "minimum": 0.00505999988,
                "absMinimum": 1.01200003e-5,
                "absMaximum": 4.88799953
              }
            },
            {
              "amplitude": 5.5,
              "frequency": {
                "maximum": 2.11999989,
                "minimum": 0.00212999992,
                "absMinimum": 4.25999997e-6,
                "absMaximum": 2.20479989
              }
            },
            {
              "amplitude": 5.5,
              "frequency": {
                "maximum": 1.00999999,
                "minimum": 0.00100000005,
                "absMinimum": 2.00000022e-6,
                "absMaximum": 1.0503999
              }
            }
          ]
        }
      },
      "pos": [
        77,
        0
      ]
    },
    {
      "id": 900,
      "plugin": "Fundamental",
      "version": "1.4.0",
      "model": "Merge",
      "params": [],
      "leftModuleId": 901,
      "rightModuleId": 897,
      "data": {
        "channels": -1
      },
      "pos": [
        87,
        0
      ]
    },
    {
      "id": 901,
      "plugin": "Fundamental",
      "version": "1.4.0",
      "model": "Octave",
      "params": [
        {
          "id": 0,
          "value": -2.0
        }
      ],
      "leftModuleId": 902,
      "rightModuleId": 900,
      "pos": [
        84,
        0
      ]
    },
    {
      "id": 902,
      "plugin": "Fundamental",
      "version": "1.4.0",
      "model": "Octave",
      "params": [
        {
          "id": 0,
          "value": 1.0
        }
      ],
      "leftModuleId": 899,
      "rightModuleId": 901,
      "pos": [
        81,
        0
      ]
    },
    {
      "id": 903,
      "plugin": "Bogaudio",
      "version": "1.1.37",
      "model": "Bogaudio-Switch88",
      "params": [
        {
          "id": 0,
          "value": 1.0
        },
        {
          "id": 1,
          "value": 0.0
        },
        {
          "id": 2,
          "value": 0.0
        },
        {
          "id": 3,
          "value": 0.0
        },
        {
          "id": 4,
          "value": 0.0
        },
        {
          "id": 5,
          "value": 0.0
        },
        {
          "id": 6,
          "value": 0.0
        },
        {
          "id": 7,
          "value": 0.0
        },
        {
          "id": 8,
          "value": 0.0
        },
        {
          "id": 9,
          "value": 1.0
        },
        {
          "id": 10,
          "value": 1.0
        },
        {
          "id": 11,
          "value": 0.0
        },
        {
          "id": 12,
          "value": 0.0
        },
        {
          "id": 13,
          "value": 1.0
        },
        {
          "id": 14,
          "value": 0.0
        },
        {
          "id": 15,
          "value": 0.0
        },
        {
          "id": 16,
          "value": 0.0
        },
        {
          "id": 17,
          "value": 0.0
        },
        {
          "id": 18,
          "value": 0.0
        },
        {
          "id": 19,
          "value": 1.0
        },
        {
          "id": 20,
          "value": 0.0
        },
        {
          "id": 21,
          "value": 0.0
        },
        {
          "id": 22,
          "value": 0.0
        },
        {
          "id": 23,
          "value": 0.0
        },
        {
          "id": 24,
          "value": 0.0
        },
        {
          "id": 25,
          "value": 1.0
        },
        {
          "id": 26,
          "value": 0.0
        },
        {
          "id": 27,
          "value": 0.0
        },
        {
          "id": 28,
          "value": 1.0
        },
        {
          "id": 29,
          "value": 0.0
        },
        {
          "id": 30,
          "value": 0.0
        },
        {
          "id": 31,
          "value": 0.0
        },
        {
          "id": 32,
          "value": 1.0
        },
        {
          "id": 33,
          "value": 0.0
        },
        {
          "id": 34,
          "value": 0.0
        },
        {
          "id": 35,
          "value": 1.0
        },
        {
          "id": 36,
          "value": 0.0
        },
        {
          "id": 37,
          "value": 0.0
        },
        {
          "id": 38,
          "value": 0.0
        },
        {
          "id": 39,
          "value": 0.0
        },
        {
          "id": 40,
          "value": 0.0
        },
        {
          "id": 41,
          "value": 0.0
        },
        {
          "id": 42,
          "value": 0.0
        },
        {
          "id": 43,
          "value": 1.0
        },
        {
          "id": 44,
          "value": 0.0
        },
        {
          "id": 45,
          "value": 0.0
        },
        {
          "id": 46,
          "value": 1.0
        },
        {
          "id": 47,
          "value": 0.0
        },
        {
          "id": 48,
          "value": 0.0
        },
        {
          "id": 49,
          "value": 0.0
        },
        {
          "id": 50,
          "value": 0.0
        },
        {
          "id": 51,
          "value": 0.0
        },
        {
          "id": 52,
          "value": 0.0
        },
        {
          "id": 53,
          "value": 0.0
        },
        {
          "id": 54,
          "value": 0.0
        },
        {
          "id": 55,
          "value": 0.0
        },
        {
          "id": 56,
          "value": 0.0
        },
        {
          "id": 57,
          "value": 0.0
        },
        {
          "id": 58,
          "value": 0.0
        },
        {
          "id": 59,
          "value": 0.0
        },
        {
          "id": 60,
          "value": 0.0
        },
        {
          "id": 61,
          "value": 0.0
        },
        {
          "id": 62,
          "value": 0.0
        },
        {
          "id": 63,
          "value": 0.0
        }
      ],
      "leftModuleId": 895,
      "rightModuleId": 904,
      "data": {
        "clipping_mode": 0,
        "input_gain_db": 0.0,
        "sum": true,
        "inverting": "disabled",
        "row_exclusive": false,
        "column_exclusive": false
      },
      "pos": [
        71,
        2
      ]
    },
    {
      "id": 904,
      "plugin": "Stalys",
      "version": "1.4.2",
      "model": "Clip",
      "params": [
        {
          "id": 0,
          "value": -2.0
        },
        {
          "id": 1,
          "value": -2.0
        },
        {
          "id": 2,
          "value": -2.0
        },
        {
          "id": 3,
          "value": -2.0
        },
        {
          "id": 4,
          "value": -2.0
        },
        {
          "id": 5,
          "value": -2.0
        },
        {
          "id": 6,
          "value": -2.0
        },
        {
          "id": 7,
          "value": -2.0
        }
      ],
      "leftModuleId": 903,
      "rightModuleId": 905,
      "data": {
        "skin": ""
      },
      "pos": [
        93,
        2
      ]
    },
    {
      "id": 905,
      "plugin": "AudibleInstruments",
      "version": "1.5.0",
      "model": "Branches",
      "params": [
        {
          "id": 0,
          "value": 1.0
        },
        {
          "id": 1,
          "value": 0.288499981
        },
        {
          "id": 2,
          "value": 0.0
        },
        {
          "id": 3,
          "value": 0.0
        }
      ],
      "leftModuleId": 904,
      "rightModuleId": 924,
      "data": {
        "modes": [
          true,
          false
        ]
      },
      "pos": [
        105,
        2
      ]
    },
    {
      "id": 907,
      "plugin": "rackwindows",
      "version": "1.1.2",
      "model": "bitshiftgain",
      "params": [
        {
          "id": 0,
          "value": 2.0
        },
        {
          "id": 1,
          "value": 0.0
        },
        {
          "id": 2,
          "value": 0.0
        }
      ],
      "leftModuleId": 908,
      "rightModuleId": 911,
      "pos": [
        104,
        1
      ]
    },
    {
      "id": 908,
      "plugin": "Geodesics",
      "version": "1.2.0",
      "model": "Branes",
      "params": [
        {
          "id": 0,
          "value": 0.0
        },
        {
          "id": 1,
          "value": 0.0
        },
        {
          "id": 2,
          "value": 0.0
        },
        {
          "id": 3,
          "value": 0.0
        }
      ],
      "leftModuleId": 912,
      "rightModuleId": 907,
      "data": {
        "panelTheme": 1,
        "vibrations0": 0,
        "vibrations1": 0,
        "noiseRange0": 1.0,
        "noiseRange1": 1.0
      },
      "pos": [
        93,
        1
      ]
    },
    {
      "id": 909,
      "plugin": "Befaco",
      "version": "1.1.1",
      "model": "Kickall",
      "params": [
        {
          "id": 0,
          "value": 75.4855042
        },
        {
          "id": 1,
          "value": 0.0
        },
        {
          "id": 2,
          "value": 0.0
        },
        {
          "id": 3,
          "value": 0.147999987
        },
        {
          "id": 4,
          "value": 0.0
        },
        {
          "id": 5,
          "value": 0.0
        }
      ],
      "leftModuleId": 910,
      "rightModuleId": 919,
      "pos": [
        110,
        0
      ]
    },
    {
      "id": 910,
      "plugin": "Hora-treasureFree",
      "version": "1.0.3",
      "model": "SnareDrum-VCV",
      "params": [
        {
          "id": 0,
          "value": 0.5
        },
        {
          "id": 1,
          "value": 1500.0
        },
        {
          "id": 2,
          "value": 0.0
        },
        {
          "id": 3,
          "value": 0.0
        },
        {
          "id": 4,
          "value": 0.00999999978
        },
        {
          "id": 5,
          "value": 0.805000007
        },
        {
          "id": 6,
          "value": 0.800000012
        },
        {
          "id": 7,
          "value": 0.354000002
        },
        {
          "id": 8,
          "value": 0.50999999
        },
        {
          "id": 9,
          "value": 0.677399993
        },
        {
          "id": 10,
          "value": 0.800000012
        },
        {
          "id": 11,
          "value": 0.800000012
        },
        {
          "id": 12,
          "value": 0.112500012
        },
        {
          "id": 13,
          "value": 0.583000004
        }
      ],
      "leftModuleId": 887,
      "rightModuleId": 909,
      "pos": [
        102,
        0
      ]
    },
    {
      "id": 911,
      "plugin": "Hora-treasureFree",
      "version": "1.0.3",
      "model": "HiHat",
      "params": [
        {
          "id": 0,
          "value": 0.5
        },
        {
          "id": 1,
          "value": 0.600000024
        },
        {
          "id": 2,
          "value": 0.730440021
        },
        {
          "id": 3,
          "value": 0.0
        },
        {
          "id": 4,
          "value": 0.190349996
        },
        {
          "id": 5,
          "value": 0.504000008
        },
        {
          "id": 6,
          "value": 1.88049996
        },
        {
          "id": 7,
          "value": 0.800000012
        },
        {
          "id": 8,
          "value": 0.800000012
        },
        {
          "id": 9,
          "value": 0.600000024
        },
        {
          "id": 10,
          "value": 0.762850046
        },
        {
          "id": 11,
          "value": 0.421000004
        }
      ],
      "leftModuleId": 907,
      "rightModuleId": 918,
      "pos": [
        108,
        1
      ]
    },
    {
      "id": 912,
      "plugin": "Geodesics",
      "version": "1.2.0",
      "model": "BlackHoles",
      "params": [
        {
          "id": 0,
          "value": 0.868000031
        },
        {
          "id": 1,
          "value": 0.309999973
        },
        {
          "id": 2,
          "value": 0.0
        },
        {
          "id": 3,
          "value": 0.0
        },
        {
          "id": 4,
          "value": 0.354000002
        },
        {
          "id": 5,
          "value": -0.209999964
        },
        {
          "id": 6,
          "value": -0.371999979
        },
        {
          "id": 7,
          "value": 0.0
        },
        {
          "id": 8,
          "value": 0.0
        },
        {
          "id": 9,
          "value": 0.0
        },
        {
          "id": 10,
          "value": 0.0
        },
        {
          "id": 11,
          "value": 0.0
        },
        {
          "id": 12,
          "value": 0.0
        }
      ],
      "leftModuleId": 886,
      "rightModuleId": 908,
      "data": {
        "panelTheme": 1,
        "isExponential0": 0.0,
        "isExponential1": 0.0,
        "wormhole": true,
        "cvMode": 3
      },
      "pos": [
        82,
        1
      ]
    },
    {
      "id": 914,
      "plugin": "LindenbergResearch",
      "version": "1.3.3",
      "model": "BlankPanel_Wood",
      "params": [],
      "rightModuleId": 76,
      "gestaltID": 1,
      "gradient": false,
      "patina": false,
      "patina_i_x": true,
      "patina_i_y": false,
      "patina_a_x": 928.515381,
      "patina_a_y": 348.176666,
      "overlay": false,
      "overlay_r": 0.579966009,
      "overlay_g": 0.383057237,
      "overlay_b": 0.94525677,
      "overlay_a": 0.326290816,
      "AGED": true,
      "screws": false,
      "logo": false,
      "pos": [
        0,
        0
      ]
    },
    {
      "id": 915,
      "plugin": "LindenbergResearch",
      "version": "1.3.3",
      "model": "BlankPanel_Wood",
      "params": [],
      "rightModuleId": 648,
      "gestaltID": 1,
      "gradient": false,
      "patina": false,
      "patina_i_x": true,
      "patina_i_y": false,
      "patina_a_x": 928.515381,
      "patina_a_y": 348.176666,
      "overlay": false,
      "overlay_r": 0.709351718,
      "overlay_g": 0.00911968946,
      "overlay_b": 0.11510998,
      "overlay_a": 0.320628136,
      "AGED": true,
      "screws": false,
      "logo": false,
      "pos": [
        0,
        1
      ]
    },
    {
      "id": 916,
      "plugin": "LindenbergResearch",
      "version": "1.3.3",
      "model": "BlankPanel_Wood",
      "params": [],
      "rightModuleId": 889,
      "gestaltID": 1,
      "gradient": false,
      "patina": false,
      "patina_i_x": true,
      "patina_i_y": false,
      "patina_a_x": 928.515381,
      "patina_a_y": 348.176666,
      "overlay": false,
      "overlay_r": 0.455753386,
      "overlay_g": 0.483486176,
      "overlay_b": 0.944437504,
      "overlay_a": 0.258089781,
      "AGED": true,
      "screws": false,
      "logo": false,
      "pos": [
        0,
        2
      ]
    },
    {
      "id": 917,
      "plugin": "LindenbergResearch",
      "version": "1.3.3",
      "model": "BlankPanel_Wood",
      "params": [],
      "leftModuleId": 924,
      "gestaltID": 1,
      "gradient": false,
      "patina": false,
      "patina_i_x": true,
      "patina_i_y": false,
      "patina_a_x": 928.515381,
      "patina_a_y": 348.176666,
      "overlay": false,
      "overlay_r": 0.317352712,
      "overlay_g": 0.450812161,
      "overlay_b": 0.527927279,
      "overlay_a": 0.367133558,
      "AGED": true,
      "screws": false,
      "logo": false,
      "pos": [
        116,
        2
      ]
    },
    {
      "id": 918,
      "plugin": "LindenbergResearch",
      "version": "1.3.3",
      "model": "BlankPanel_Wood",
      "params": [],
      "leftModuleId": 911,
      "gestaltID": 1,
      "gradient": false,
      "patina": false,
      "patina_i_x": true,
      "patina_i_y": false,
      "patina_a_x": 928.515381,
      "patina_a_y": 348.176666,
      "overlay": false,
      "overlay_r": 0.281024456,
      "overlay_g": 0.200558364,
      "overlay_b": 0.256725907,
      "overlay_a": 0.224936426,
      "AGED": true,
      "screws": false,
      "logo": false,
      "pos": [
        116,
        1
      ]
    },
    {
      "id": 919,
      "plugin": "LindenbergResearch",
      "version": "1.3.3",
      "model": "BlankPanel_Wood",
      "params": [],
      "leftModuleId": 909,
      "gestaltID": 1,
      "gradient": false,
      "patina": false,
      "patina_i_x": true,
      "patina_i_y": false,
      "patina_a_x": 928.515381,
      "patina_a_y": 348.176666,
      "overlay": false,
      "overlay_r": 0.0636270642,
      "overlay_g": 0.637878478,
      "overlay_b": 0.451799095,
      "overlay_a": 0.340419114,
      "AGED": true,
      "screws": false,
      "logo": false,
      "pos": [
        116,
        0
      ]
    },
    {
      "id": 923,
      "plugin": "Bogaudio",
      "version": "1.1.37",
      "model": "Bogaudio-LVCF",
      "params": [
        {
          "id": 0,
          "value": 0.306110024
        },
        {
          "id": 1,
          "value": 0.497999966
        },
        {
          "id": 2,
          "value": 0.187499985
        },
        {
          "id": 3,
          "value": 0.0
        }
      ],
      "leftModuleId": 926,
      "rightModuleId": 898,
      "data": {
        "poles": 4,
        "bandwidthMode": "pitched"
      },
      "pos": [
        63,
        0
      ]
    },
    {
      "id": 924,
      "plugin": "Fundamental",
      "version": "1.4.0",
      "model": "Merge",
      "params": [],
      "leftModuleId": 905,
      "rightModuleId": 917,
      "data": {
        "channels": -1
      },
      "pos": [
        111,
        2
      ]
    },
    {
      "id": 925,
      "plugin": "Ohmer",
      "version": "1.1.6",
      "model": "OhmerBlank1",
      "params": [],
      "leftModuleId": 648,
      "rightModuleId": 875,
      "data": {
        "Theme": 5
      },
      "pos": [
        14,
        1
      ]
    },
    {
      "id": 926,
      "plugin": "Ohmer",
      "version": "1.1.6",
      "model": "OhmerBlank1",
      "params": [],
      "leftModuleId": 384,
      "rightModuleId": 923,
      "data": {
        "Theme": 5
      },
      "pos": [
        62,
        0
      ]
    }
  ],
  "cables": [
    {
      "id": 1053,
      "outputModuleId": 375,
      "outputId": 0,
      "inputModuleId": 1,
      "inputId": 0,
      "color": "#db6443"
    },
    {
      "id": 1054,
      "outputModuleId": 375,
      "outputId": 1,
      "inputModuleId": 1,
      "inputId": 1,
      "color": "#db6443"
    },
    {
      "id": 1063,
      "outputModuleId": 375,
      "outputId": 10,
      "inputModuleId": 384,
      "inputId": 0,
      "color": "#db6443"
    },
    {
      "id": 1064,
      "outputModuleId": 375,
      "outputId": 11,
      "inputModuleId": 384,
      "inputId": 1,
      "color": "#db6443"
    },
    {
      "id": 1065,
      "outputModuleId": 384,
      "outputId": 0,
      "inputModuleId": 375,
      "inputId": 34,
      "color": "#e07a5f"
    },
    {
      "id": 1066,
      "outputModuleId": 384,
      "outputId": 1,
      "inputModuleId": 375,
      "inputId": 35,
      "color": "#db6443"
    },
    {
      "id": 1313,
      "outputModuleId": 648,
      "outputId": 4,
      "inputModuleId": 875,
      "inputId": 4,
      "color": "#3d405b"
    },
    {
      "id": 1317,
      "outputModuleId": 648,
      "outputId": 2,
      "inputModuleId": 879,
      "inputId": 1,
      "color": "#3d405b"
    },
    {
      "id": 1320,
      "outputModuleId": 879,
      "outputId": 1,
      "inputModuleId": 880,
      "inputId": 1,
      "color": "#e0d8a3"
    },
    {
      "id": 1322,
      "outputModuleId": 879,
      "outputId": 3,
      "inputModuleId": 880,
      "inputId": 3,
      "color": "#e0d8a3"
    },
    {
      "id": 1323,
      "outputModuleId": 875,
      "outputId": 0,
      "inputModuleId": 880,
      "inputId": 4,
      "color": "#e0d8a3"
    },
    {
      "id": 1324,
      "outputModuleId": 875,
      "outputId": 1,
      "inputModuleId": 880,
      "inputId": 5,
      "color": "#e0d8a3"
    },
    {
      "id": 1325,
      "outputModuleId": 880,
      "outputId": 0,
      "inputModuleId": 874,
      "inputId": 2,
      "color": "#e0d8a3"
    },
    {
      "id": 1327,
      "outputModuleId": 875,
      "outputId": 1,
      "inputModuleId": 879,
      "inputId": 0,
      "color": "#3d405b"
    },
    {
      "id": 1335,
      "outputModuleId": 881,
      "outputId": 0,
      "inputModuleId": 375,
      "inputId": 0,
      "color": "#e07a5f"
    },
    {
      "id": 1336,
      "outputModuleId": 881,
      "outputId": 1,
      "inputModuleId": 375,
      "inputId": 1,
      "color": "#e07a5f"
    },
    {
      "id": 1337,
      "outputModuleId": 881,
      "outputId": 2,
      "inputModuleId": 375,
      "inputId": 2,
      "color": "#e07a5f"
    },
    {
      "id": 1338,
      "outputModuleId": 881,
      "outputId": 3,
      "inputModuleId": 375,
      "inputId": 3,
      "color": "#e07a5f"
    },
    {
      "id": 1339,
      "outputModuleId": 881,
      "outputId": 4,
      "inputModuleId": 375,
      "inputId": 4,
      "color": "#e07a5f"
    },
    {
      "id": 1340,
      "outputModuleId": 881,
      "outputId": 5,
      "inputModuleId": 375,
      "inputId": 5,
      "color": "#e07a5f"
    },
    {
      "id": 1344,
      "outputModuleId": 874,
      "outputId": 0,
      "inputModuleId": 883,
      "inputId": 2,
      "color": "#e0d8a3"
    },
    {
      "id": 1345,
      "outputModuleId": 883,
      "outputId": 0,
      "inputModuleId": 882,
      "inputId": 2,
      "color": "#e0d8a3"
    },
    {
      "id": 1346,
      "outputModuleId": 886,
      "outputId": 0,
      "inputModuleId": 887,
      "inputId": 0,
      "color": "#81b29a"
    },
    {
      "id": 1347,
      "outputModuleId": 886,
      "outputId": 1,
      "inputModuleId": 887,
      "inputId": 1,
      "color": "#81b29a"
    },
    {
      "id": 1348,
      "outputModuleId": 886,
      "outputId": 2,
      "inputModuleId": 887,
      "inputId": 2,
      "color": "#81b29a"
    },
    {
      "id": 1349,
      "outputModuleId": 886,
      "outputId": 3,
      "inputModuleId": 887,
      "inputId": 3,
      "color": "#81b29a"
    },
    {
      "id": 1350,
      "outputModuleId": 886,
      "outputId": 4,
      "inputModuleId": 887,
      "inputId": 4,
      "color": "#81b29a"
    },
    {
      "id": 1351,
      "outputModuleId": 886,
      "outputId": 5,
      "inputModuleId": 887,
      "inputId": 5,
      "color": "#81b29a"
    },
    {
      "id": 1352,
      "outputModuleId": 887,
      "outputId": 0,
      "inputModuleId": 882,
      "inputId": 3,
      "color": "#81b29a"
    },
    {
      "id": 1353,
      "outputModuleId": 893,
      "outputId": 0,
      "inputModuleId": 894,
      "inputId": 0,
      "color": "#364449"
    },
    {
      "id": 1354,
      "outputModuleId": 893,
      "outputId": 1,
      "inputModuleId": 894,
      "inputId": 1,
      "color": "#364449"
    },
    {
      "id": 1355,
      "outputModuleId": 893,
      "outputId": 2,
      "inputModuleId": 894,
      "inputId": 2,
      "color": "#364449"
    },
    {
      "id": 1356,
      "outputModuleId": 893,
      "outputId": 3,
      "inputModuleId": 894,
      "inputId": 3,
      "color": "#364449"
    },
    {
      "id": 1357,
      "outputModuleId": 893,
      "outputId": 4,
      "inputModuleId": 894,
      "inputId": 4,
      "color": "#364449"
    },
    {
      "id": 1358,
      "outputModuleId": 893,
      "outputId": 5,
      "inputModuleId": 894,
      "inputId": 5,
      "color": "#364449"
    },
    {
      "id": 1359,
      "outputModuleId": 893,
      "outputId": 6,
      "inputModuleId": 894,
      "inputId": 6,
      "color": "#364449"
    },
    {
      "id": 1360,
      "outputModuleId": 892,
      "outputId": 2,
      "inputModuleId": 893,
      "inputId": 0,
      "color": "#364449"
    },
    {
      "id": 1361,
      "outputModuleId": 894,
      "outputId": 0,
      "inputModuleId": 895,
      "inputId": 0,
      "color": "#364449"
    },
    {
      "id": 1362,
      "outputModuleId": 894,
      "outputId": 1,
      "inputModuleId": 895,
      "inputId": 2,
      "color": "#364449"
    },
    {
      "id": 1363,
      "outputModuleId": 894,
      "outputId": 2,
      "inputModuleId": 895,
      "inputId": 4,
      "color": "#364449"
    },
    {
      "id": 1364,
      "outputModuleId": 894,
      "outputId": 3,
      "inputModuleId": 895,
      "inputId": 6,
      "color": "#364449"
    },
    {
      "id": 1365,
      "outputModuleId": 894,
      "outputId": 4,
      "inputModuleId": 895,
      "inputId": 8,
      "color": "#364449"
    },
    {
      "id": 1366,
      "outputModuleId": 894,
      "outputId": 5,
      "inputModuleId": 895,
      "inputId": 10,
      "color": "#364449"
    },
    {
      "id": 1367,
      "outputModuleId": 894,
      "outputId": 6,
      "inputModuleId": 895,
      "inputId": 12,
      "color": "#364449"
    },
    {
      "id": 1368,
      "outputModuleId": 894,
      "outputId": 7,
      "inputModuleId": 895,
      "inputId": 14,
      "color": "#364449"
    },
    {
      "id": 1369,
      "outputModuleId": 891,
      "outputId": 0,
      "inputModuleId": 892,
      "inputId": 0,
      "color": "#364449"
    },
    {
      "id": 1370,
      "outputModuleId": 889,
      "outputId": 1,
      "inputModuleId": 890,
      "inputId": 1,
      "color": "#364449"
    },
    {
      "id": 1371,
      "outputModuleId": 890,
      "outputId": 6,
      "inputModuleId": 891,
      "inputId": 0,
      "color": "#364449"
    },
    {
      "id": 1372,
      "outputModuleId": 890,
      "outputId": 7,
      "inputModuleId": 891,
      "inputId": 1,
      "color": "#364449"
    },
    {
      "id": 1373,
      "outputModuleId": 890,
      "outputId": 8,
      "inputModuleId": 891,
      "inputId": 2,
      "color": "#364449"
    },
    {
      "id": 1374,
      "outputModuleId": 890,
      "outputId": 9,
      "inputModuleId": 891,
      "inputId": 3,
      "color": "#364449"
    },
    {
      "id": 1375,
      "outputModuleId": 890,
      "outputId": 10,
      "inputModuleId": 891,
      "inputId": 4,
      "color": "#364449"
    },
    {
      "id": 1376,
      "outputModuleId": 890,
      "outputId": 11,
      "inputModuleId": 891,
      "inputId": 5,
      "color": "#364449"
    },
    {
      "id": 1377,
      "outputModuleId": 890,
      "outputId": 12,
      "inputModuleId": 891,
      "inputId": 6,
      "color": "#364449"
    },
    {
      "id": 1378,
      "outputModuleId": 890,
      "outputId": 13,
      "inputModuleId": 889,
      "inputId": 5,
      "color": "#364449"
    },
    {
      "id": 1381,
      "outputModuleId": 648,
      "outputId": 4,
      "inputModuleId": 889,
      "inputId": 6,
      "color": "#3d405b"
    },
    {
      "id": 1382,
      "outputModuleId": 895,
      "outputId": 0,
      "inputModuleId": 886,
      "inputId": 2,
      "color": "#3d405b"
    },
    {
      "id": 1383,
      "outputModuleId": 895,
      "outputId": 1,
      "inputModuleId": 886,
      "inputId": 3,
      "color": "#3d405b"
    },
    {
      "id": 1384,
      "outputModuleId": 895,
      "outputId": 2,
      "inputModuleId": 886,
      "inputId": 4,
      "color": "#3d405b"
    },
    {
      "id": 1385,
      "outputModuleId": 895,
      "outputId": 3,
      "inputModuleId": 886,
      "inputId": 5,
      "color": "#3d405b"
    },
    {
      "id": 1386,
      "outputModuleId": 895,
      "outputId": 4,
      "inputModuleId": 886,
      "inputId": 6,
      "color": "#3d405b"
    },
    {
      "id": 1387,
      "outputModuleId": 895,
      "outputId": 5,
      "inputModuleId": 886,
      "inputId": 7,
      "color": "#3d405b"
    },
    {
      "id": 1388,
      "outputModuleId": 895,
      "outputId": 6,
      "inputModuleId": 898,
      "inputId": 14,
      "color": "#3d405b"
    },
    {
      "id": 1389,
      "outputModuleId": 898,
      "outputId": 3,
      "inputModuleId": 897,
      "inputId": 0,
      "color": "#81b29a"
    },
    {
      "id": 1390,
      "outputModuleId": 898,
      "outputId": 4,
      "inputModuleId": 897,
      "inputId": 1,
      "color": "#81b29a"
    },
    {
      "id": 1391,
      "outputModuleId": 898,
      "outputId": 5,
      "inputModuleId": 897,
      "inputId": 2,
      "color": "#81b29a"
    },
    {
      "id": 1392,
      "outputModuleId": 898,
      "outputId": 2,
      "inputModuleId": 897,
      "inputId": 3,
      "color": "#81b29a"
    },
    {
      "id": 1393,
      "outputModuleId": 898,
      "outputId": 1,
      "inputModuleId": 897,
      "inputId": 4,
      "color": "#81b29a"
    },
    {
      "id": 1394,
      "outputModuleId": 898,
      "outputId": 6,
      "inputModuleId": 897,
      "inputId": 5,
      "color": "#81b29a"
    },
    {
      "id": 1395,
      "outputModuleId": 899,
      "outputId": 2,
      "inputModuleId": 898,
      "inputId": 1,
      "color": "#81b29a"
    },
    {
      "id": 1396,
      "outputModuleId": 899,
      "outputId": 3,
      "inputModuleId": 898,
      "inputId": 2,
      "color": "#81b29a"
    },
    {
      "id": 1397,
      "outputModuleId": 899,
      "outputId": 4,
      "inputModuleId": 898,
      "inputId": 3,
      "color": "#81b29a"
    },
    {
      "id": 1398,
      "outputModuleId": 899,
      "outputId": 5,
      "inputModuleId": 898,
      "inputId": 4,
      "color": "#81b29a"
    },
    {
      "id": 1399,
      "outputModuleId": 899,
      "outputId": 6,
      "inputModuleId": 898,
      "inputId": 5,
      "color": "#81b29a"
    },
    {
      "id": 1400,
      "outputModuleId": 899,
      "outputId": 1,
      "inputModuleId": 898,
      "inputId": 6,
      "color": "#81b29a"
    },
    {
      "id": 1401,
      "outputModuleId": 897,
      "outputId": 0,
      "inputModuleId": 882,
      "inputId": 5,
      "color": "#81b29a"
    },
    {
      "id": 1404,
      "outputModuleId": 895,
      "outputId": 7,
      "inputModuleId": 900,
      "inputId": 0,
      "color": "#3d405b"
    },
    {
      "id": 1405,
      "outputModuleId": 895,
      "outputId": 2,
      "inputModuleId": 900,
      "inputId": 1,
      "color": "#3d405b"
    },
    {
      "id": 1406,
      "outputModuleId": 895,
      "outputId": 4,
      "inputModuleId": 900,
      "inputId": 2,
      "color": "#3d405b"
    },
    {
      "id": 1407,
      "outputModuleId": 895,
      "outputId": 0,
      "inputModuleId": 900,
      "inputId": 3,
      "color": "#3d405b"
    },
    {
      "id": 1408,
      "outputModuleId": 648,
      "outputId": 1,
      "inputModuleId": 900,
      "inputId": 4,
      "color": "#3d405b"
    },
    {
      "id": 1409,
      "outputModuleId": 648,
      "outputId": 3,
      "inputModuleId": 900,
      "inputId": 5,
      "color": "#3d405b"
    },
    {
      "id": 1410,
      "outputModuleId": 900,
      "outputId": 0,
      "inputModuleId": 874,
      "inputId": 1,
      "color": "#3d405b"
    },
    {
      "id": 1411,
      "outputModuleId": 895,
      "outputId": 7,
      "inputModuleId": 898,
      "inputId": 15,
      "color": "#3d405b"
    },
    {
      "id": 1412,
      "outputModuleId": 898,
      "outputId": 12,
      "inputModuleId": 375,
      "inputId": 16,
      "color": "#81b29a"
    },
    {
      "id": 1413,
      "outputModuleId": 898,
      "outputId": 8,
      "inputModuleId": 375,
      "inputId": 17,
      "color": "#81b29a"
    },
    {
      "id": 1414,
      "outputModuleId": 898,
      "outputId": 7,
      "inputModuleId": 375,
      "inputId": 18,
      "color": "#81b29a"
    },
    {
      "id": 1415,
      "outputModuleId": 898,
      "outputId": 13,
      "inputModuleId": 375,
      "inputId": 19,
      "color": "#81b29a"
    },
    {
      "id": 1416,
      "outputModuleId": 898,
      "outputId": 11,
      "inputModuleId": 375,
      "inputId": 20,
      "color": "#81b29a"
    },
    {
      "id": 1417,
      "outputModuleId": 898,
      "outputId": 9,
      "inputModuleId": 375,
      "inputId": 21,
      "color": "#81b29a"
    },
    {
      "id": 1319,
      "outputModuleId": 879,
      "outputId": 0,
      "inputModuleId": 901,
      "inputId": 1,
      "color": "#e0d8a3"
    },
    {
      "id": 1418,
      "outputModuleId": 901,
      "outputId": 0,
      "inputModuleId": 880,
      "inputId": 0,
      "color": "#e0d8a3"
    },
    {
      "id": 1321,
      "outputModuleId": 879,
      "outputId": 2,
      "inputModuleId": 902,
      "inputId": 1,
      "color": "#e0d8a3"
    },
    {
      "id": 1419,
      "outputModuleId": 902,
      "outputId": 0,
      "inputModuleId": 880,
      "inputId": 2,
      "color": "#e0d8a3"
    },
    {
      "id": 1420,
      "outputModuleId": 903,
      "outputId": 0,
      "inputModuleId": 904,
      "inputId": 0,
      "color": "#3d405b"
    },
    {
      "id": 1421,
      "outputModuleId": 903,
      "outputId": 1,
      "inputModuleId": 904,
      "inputId": 2,
      "color": "#3d405b"
    },
    {
      "id": 1422,
      "outputModuleId": 903,
      "outputId": 2,
      "inputModuleId": 904,
      "inputId": 4,
      "color": "#3d405b"
    },
    {
      "id": 1423,
      "outputModuleId": 903,
      "outputId": 3,
      "inputModuleId": 904,
      "inputId": 6,
      "color": "#3d405b"
    },
    {
      "id": 1424,
      "outputModuleId": 903,
      "outputId": 4,
      "inputModuleId": 904,
      "inputId": 8,
      "color": "#3d405b"
    },
    {
      "id": 1425,
      "outputModuleId": 903,
      "outputId": 5,
      "inputModuleId": 904,
      "inputId": 10,
      "color": "#3d405b"
    },
    {
      "id": 1426,
      "outputModuleId": 903,
      "outputId": 6,
      "inputModuleId": 904,
      "inputId": 12,
      "color": "#3d405b"
    },
    {
      "id": 1427,
      "outputModuleId": 903,
      "outputId": 7,
      "inputModuleId": 904,
      "inputId": 14,
      "color": "#3d405b"
    },
    {
      "id": 1428,
      "outputModuleId": 893,
      "outputId": 0,
      "inputModuleId": 903,
      "inputId": 0,
      "color": "#3d405b"
    },
    {
      "id": 1429,
      "outputModuleId": 893,
      "outputId": 1,
      "inputModuleId": 903,
      "inputId": 1,
      "color": "#3d405b"
    },
    {
      "id": 1430,
      "outputModuleId": 893,
      "outputId": 2,
      "inputModuleId": 903,
      "inputId": 2,
      "color": "#3d405b"
    },
    {
      "id": 1431,
      "outputModuleId": 893,
      "outputId": 3,
      "inputModuleId": 903,
      "inputId": 3,
      "color": "#3d405b"
    },
    {
      "id": 1432,
      "outputModuleId": 893,
      "outputId": 4,
      "inputModuleId": 903,
      "inputId": 4,
      "color": "#3d405b"
    },
    {
      "id": 1433,
      "outputModuleId": 893,
      "outputId": 5,
      "inputModuleId": 903,
      "inputId": 5,
      "color": "#3d405b"
    },
    {
      "id": 1434,
      "outputModuleId": 893,
      "outputId": 6,
      "inputModuleId": 903,
      "inputId": 6,
      "color": "#3d405b"
    },
    {
      "id": 1436,
      "outputModuleId": 907,
      "outputId": 0,
      "inputModuleId": 375,
      "inputId": 6,
      "color": "#e07a5f"
    },
    {
      "id": 1437,
      "outputModuleId": 907,
      "outputId": 1,
      "inputModuleId": 375,
      "inputId": 7,
      "color": "#e07a5f"
    },
    {
      "id": 1435,
      "outputModuleId": 904,
      "outputId": 0,
      "inputModuleId": 905,
      "inputId": 0,
      "color": "#3d405b"
    },
    {
      "id": 1444,
      "outputModuleId": 904,
      "outputId": 1,
      "inputModuleId": 905,
      "inputId": 1,
      "color": "#3d405b"
    },
    {
      "id": 1448,
      "outputModuleId": 904,
      "outputId": 2,
      "inputModuleId": 875,
      "inputId": 0,
      "color": "#3d405b"
    },
    {
      "id": 1449,
      "outputModuleId": 904,
      "outputId": 3,
      "inputModuleId": 875,
      "inputId": 2,
      "color": "#3d405b"
    },
    {
      "id": 1450,
      "outputModuleId": 904,
      "outputId": 4,
      "inputModuleId": 875,
      "inputId": 1,
      "color": "#3d405b"
    },
    {
      "id": 1456,
      "outputModuleId": 895,
      "outputId": 2,
      "inputModuleId": 908,
      "inputId": 14,
      "color": "#3d405b"
    },
    {
      "id": 1463,
      "outputModuleId": 909,
      "outputId": 0,
      "inputModuleId": 912,
      "inputId": 0,
      "color": "#e07a5f"
    },
    {
      "id": 1464,
      "outputModuleId": 910,
      "outputId": 2,
      "inputModuleId": 912,
      "inputId": 1,
      "color": "#e07a5f"
    },
    {
      "id": 1465,
      "outputModuleId": 911,
      "outputId": 2,
      "inputModuleId": 912,
      "inputId": 2,
      "color": "#e07a5f"
    },
    {
      "id": 1469,
      "outputModuleId": 905,
      "outputId": 0,
      "inputModuleId": 909,
      "inputId": 0,
      "color": "#3d405b"
    },
    {
      "id": 1470,
      "outputModuleId": 905,
      "outputId": 2,
      "inputModuleId": 910,
      "inputId": 0,
      "color": "#3d405b"
    },
    {
      "id": 1471,
      "outputModuleId": 912,
      "outputId": 8,
      "inputModuleId": 907,
      "inputId": 0,
      "color": "#e07a5f"
    },
    {
      "id": 1472,
      "outputModuleId": 905,
      "outputId": 1,
      "inputModuleId": 911,
      "inputId": 0,
      "color": "#3d405b"
    },
    {
      "id": 1473,
      "outputModuleId": 905,
      "outputId": 3,
      "inputModuleId": 911,
      "inputId": 1,
      "color": "#3d405b"
    },
    {
      "id": 1475,
      "outputModuleId": 908,
      "outputId": 6,
      "inputModuleId": 912,
      "inputId": 9,
      "color": "#81b29a"
    },
    {
      "id": 1477,
      "outputModuleId": 908,
      "outputId": 5,
      "inputModuleId": 912,
      "inputId": 10,
      "color": "#81b29a"
    },
    {
      "id": 1478,
      "outputModuleId": 648,
      "outputId": 2,
      "inputModuleId": 890,
      "inputId": 0,
      "color": "#3d405b"
    },
    {
      "id": 1342,
      "outputModuleId": 882,
      "outputId": 0,
      "inputModuleId": 923,
      "inputId": 0,
      "color": "#e0d8a3"
    },
    {
      "id": 1479,
      "outputModuleId": 923,
      "outputId": 0,
      "inputModuleId": 881,
      "inputId": 0,
      "color": "#e07a5f"
    },
    {
      "id": 1480,
      "outputModuleId": 897,
      "outputId": 0,
      "inputModuleId": 923,
      "inputId": 1,
      "color": "#81b29a"
    },
    {
      "id": 1482,
      "outputModuleId": 908,
      "outputId": 4,
      "inputModuleId": 911,
      "inputId": 3,
      "color": "#81b29a"
    },
    {
      "id": 1484,
      "outputModuleId": 898,
      "outputId": 0,
      "inputModuleId": 910,
      "inputId": 3,
      "color": "#81b29a"
    },
    {
      "id": 1481,
      "outputModuleId": 908,
      "outputId": 1,
      "inputModuleId": 911,
      "inputId": 4,
      "color": "#81b29a"
    },
    {
      "id": 1483,
      "outputModuleId": 908,
      "outputId": 2,
      "inputModuleId": 912,
      "inputId": 4,
      "color": "#81b29a"
    },
    {
      "id": 1487,
      "outputModuleId": 912,
      "outputId": 4,
      "inputModuleId": 909,
      "inputId": 4,
      "color": "#81b29a"
    },
    {
      "id": 1490,
      "outputModuleId": 908,
      "outputId": 3,
      "inputModuleId": 912,
      "inputId": 5,
      "color": "#81b29a"
    },
    {
      "id": 1492,
      "outputModuleId": 912,
      "outputId": 6,
      "inputModuleId": 875,
      "inputId": 6,
      "color": "#81b29a"
    },
    {
      "id": 1493,
      "outputModuleId": 908,
      "outputId": 4,
      "inputModuleId": 912,
      "inputId": 6,
      "color": "#81b29a"
    },
    {
      "id": 1494,
      "outputModuleId": 912,
      "outputId": 5,
      "inputModuleId": 883,
      "inputId": 3,
      "color": "#81b29a"
    },
    {
      "id": 1495,
      "outputModuleId": 897,
      "outputId": 0,
      "inputModuleId": 874,
      "inputId": 0,
      "color": "#81b29a"
    },
    {
      "id": 1496,
      "outputModuleId": 897,
      "outputId": 0,
      "inputModuleId": 874,
      "inputId": 4,
      "color": "#81b29a"
    },
    {
      "id": 1497,
      "outputModuleId": 908,
      "outputId": 3,
      "inputModuleId": 912,
      "inputId": 8,
      "color": "#81b29a"
    },
    {
      "id": 1486,
      "outputModuleId": 908,
      "outputId": 0,
      "inputModuleId": 910,
      "inputId": 2,
      "color": "#81b29a"
    },
    {
      "id": 1498,
      "outputModuleId": 875,
      "outputId": 3,
      "inputModuleId": 908,
      "inputId": 15,
      "color": "#3d405b"
    },
    {
      "id": 1501,
      "outputModuleId": 924,
      "outputId": 0,
      "inputModuleId": 882,
      "inputId": 1,
      "color": "#81b29a"
    },
    {
      "id": 1502,
      "outputModuleId": 908,
      "outputId": 13,
      "inputModuleId": 924,
      "inputId": 5,
      "color": "#81b29a"
    },
    {
      "id": 1504,
      "outputModuleId": 908,
      "outputId": 12,
      "inputModuleId": 924,
      "inputId": 4,
      "color": "#81b29a"
    }
  ]
}