{
  "version": "1.1.6",
  "modules": [
    {
      "id": 1,
      "plugin": "Core",
      "version": "1.1.6",
      "model": "AudioInterface",
      "params": [],
      "leftModuleId": 350,
      "rightModuleId": 91,
      "data": {
        "audio": {
          "driver": 7,
          "deviceName": "ReaRoute ASIO (x64)",
          "offset": 0,
          "maxChannels": 8,
          "sampleRate": 48000,
          "blockSize": 256
        }
      },
      "pos": [
        58,
        0
      ]
    },
    {
      "id": 5,
      "plugin": "Core",
      "version": "1.1.6",
      "model": "MIDIToCVInterface",
      "params": [],
      "leftModuleId": 364,
      "rightModuleId": 94,
      "data": {
        "channels": 1,
        "polyMode": 0,
        "clockDivision": 24,
        "lastPitch": 8192,
        "lastMod": 0,
        "midi": {
          "driver": 4,
          "deviceName": "loopMIDI Port 2",
          "channel": -1
        }
      },
      "pos": [
        4,
        0
      ]
    },
    {
      "id": 76,
      "plugin": "Stoermelder-P1",
      "version": "1.10.0",
      "model": "Mb",
      "params": [],
      "leftModuleId": 79,
      "rightModuleId": 350,
      "data": {
        "mode": 1
      },
      "pos": [
        28,
        0
      ]
    },
    {
      "id": 79,
      "plugin": "Stoermelder-P1",
      "version": "1.10.0",
      "model": "Stroke",
      "params": [],
      "leftModuleId": 94,
      "rightModuleId": 76,
      "data": {
        "panelTheme": 1,
        "keys": [
          {
            "button": -1,
            "key": 49,
            "mods": 0,
            "mode": 24,
            "high": false,
            "data": "#c9b70e"
          },
          {
            "button": -1,
            "key": 50,
            "mods": 0,
            "mode": 24,
            "high": false,
            "data": "#0c8e15"
          },
          {
            "button": -1,
            "key": 51,
            "mods": 0,
            "mode": 24,
            "high": false,
            "data": "#c91847"
          },
          {
            "button": -1,
            "key": 52,
            "mods": 0,
            "mode": 24,
            "high": false,
            "data": "#364449"
          },
          {
            "button": -1,
            "key": -1,
            "mods": 0,
            "mode": 1,
            "high": false,
            "data": ""
          },
          {
            "button": -1,
            "key": -1,
            "mods": 0,
            "mode": 1,
            "high": false,
            "data": ""
          },
          {
            "button": -1,
            "key": -1,
            "mods": 0,
            "mode": 1,
            "high": false,
            "data": ""
          },
          {
            "button": -1,
            "key": -1,
            "mods": 0,
            "mode": 1,
            "high": false,
            "data": ""
          },
          {
            "button": -1,
            "key": -1,
            "mods": 0,
            "mode": 1,
            "high": false,
            "data": ""
          },
          {
            "button": -1,
            "key": -1,
            "mods": 0,
            "mode": 1,
            "high": false,
            "data": ""
          }
        ]
      },
      "pos": [
        22,
        0
      ]
    },
    {
      "id": 91,
      "plugin": "AlrightDevices",
      "version": "1.0.3",
      "model": "Chronoblob2",
      "params": [
        {
          "id": 0,
          "value": 0.144000024
        },
        {
          "id": 1,
          "value": 0.213499889
        },
        {
          "id": 2,
          "value": 1.0
        },
        {
          "id": 3,
          "value": 0.0
        },
        {
          "id": 4,
          "value": 0.0
        },
        {
          "id": 5,
          "value": 0.0
        },
        {
          "id": 6,
          "value": 0.0
        },
        {
          "id": 7,
          "value": 0.0
        },
        {
          "id": 8,
          "value": 1.0
        },
        {
          "id": 9,
          "value": 0.0
        }
      ],
      "leftModuleId": 1,
      "rightModuleId": 359,
      "data": {
        "delay_mode": 1,
        "hold_behavior": 0,
        "sync_prescaler": 6
      },
      "pos": [
        68,
        0
      ]
    },
    {
      "id": 94,
      "plugin": "Core",
      "version": "1.1.6",
      "model": "MIDI-Map",
      "params": [],
      "leftModuleId": 5,
      "rightModuleId": 79,
      "data": {
        "maps": [
          {
            "cc": -1,
            "moduleId": -1,
            "paramId": 0
          }
        ],
        "midi": {
          "driver": 4,
          "channel": -1
        }
      },
      "pos": [
        12,
        0
      ]
    },
    {
      "id": 30,
      "plugin": "ImpromptuModular",
      "version": "1.1.12",
      "model": "Clocked",
      "params": [
        {
          "id": 0,
          "value": 120.0
        },
        {
          "id": 1,
          "value": 2.0
        },
        {
          "id": 2,
          "value": -2.0
        },
        {
          "id": 3,
          "value": 0.0
        },
        {
          "id": 4,
          "value": 0.0
        },
        {
          "id": 5,
          "value": 0.0
        },
        {
          "id": 6,
          "value": 0.0
        },
        {
          "id": 7,
          "value": 0.0
        },
        {
          "id": 8,
          "value": 0.5
        },
        {
          "id": 9,
          "value": 0.5
        },
        {
          "id": 10,
          "value": 0.5
        },
        {
          "id": 11,
          "value": 0.5
        },
        {
          "id": 12,
          "value": 0.0
        },
        {
          "id": 13,
          "value": 0.0
        },
        {
          "id": 14,
          "value": 0.0
        },
        {
          "id": 15,
          "value": 0.0
        },
        {
          "id": 16,
          "value": 0.0
        },
        {
          "id": 17,
          "value": 0.0
        },
        {
          "id": 18,
          "value": 0.0
        },
        {
          "id": 19,
          "value": 0.0
        }
      ],
      "leftModuleId": 365,
      "rightModuleId": 393,
      "data": {
        "panelTheme": 1,
        "running": true,
        "displayDelayNoteMode": true,
        "bpmDetectionMode": true,
        "resetOnStartStop": 15,
        "ppqn": 24,
        "resetClockOutputsHigh": true,
        "momentaryRunInput": true,
        "clockMaster": false
      },
      "pos": [
        4,
        1
      ]
    },
    {
      "id": 350,
      "plugin": "repelzen",
      "version": "1.1.0",
      "model": "rexmix",
      "params": [
        {
          "id": 0,
          "value": -18.0300026
        },
        {
          "id": 1,
          "value": 0.0
        },
        {
          "id": 2,
          "value": 0.0
        },
        {
          "id": 3,
          "value": 0.0
        },
        {
          "id": 4,
          "value": -1.52999997
        },
        {
          "id": 5,
          "value": -2.34000015
        },
        {
          "id": 6,
          "value": -60.0
        },
        {
          "id": 7,
          "value": -60.0
        },
        {
          "id": 8,
          "value": -60.0
        },
        {
          "id": 9,
          "value": -60.0
        },
        {
          "id": 10,
          "value": 0.0
        },
        {
          "id": 11,
          "value": 0.0
        },
        {
          "id": 12,
          "value": 0.0
        },
        {
          "id": 13,
          "value": 0.0
        },
        {
          "id": 14,
          "value": 0.0
        },
        {
          "id": 15,
          "value": 0.0
        },
        {
          "id": 16,
          "value": 13.2600002
        },
        {
          "id": 17,
          "value": 5.76000166
        },
        {
          "id": 18,
          "value": 0.0
        },
        {
          "id": 19,
          "value": 0.0
        },
        {
          "id": 20,
          "value": 0.0
        },
        {
          "id": 21,
          "value": 0.0
        },
        {
          "id": 22,
          "value": -5.70000076
        },
        {
          "id": 23,
          "value": 0.0
        },
        {
          "id": 24,
          "value": 0.0
        },
        {
          "id": 25,
          "value": 0.0
        },
        {
          "id": 26,
          "value": 0.0
        },
        {
          "id": 27,
          "value": 0.0
        },
        {
          "id": 28,
          "value": 0.0
        },
        {
          "id": 29,
          "value": 3.73218775
        },
        {
          "id": 30,
          "value": 0.0
        },
        {
          "id": 31,
          "value": 0.0
        },
        {
          "id": 32,
          "value": 0.0
        },
        {
          "id": 33,
          "value": 0.0
        },
        {
          "id": 34,
          "value": 0.0
        },
        {
          "id": 35,
          "value": 0.0
        },
        {
          "id": 36,
          "value": 0.0
        },
        {
          "id": 37,
          "value": 0.0
        },
        {
          "id": 38,
          "value": 0.0
        },
        {
          "id": 39,
          "value": 0.0
        },
        {
          "id": 40,
          "value": 0.860500097
        },
        {
          "id": 41,
          "value": 0.844000041
        },
        {
          "id": 42,
          "value": 0.0
        },
        {
          "id": 43,
          "value": 0.0
        },
        {
          "id": 44,
          "value": 0.0
        },
        {
          "id": 45,
          "value": 0.0
        },
        {
          "id": 46,
          "value": 0.202500001
        },
        {
          "id": 47,
          "value": 0.195000008
        },
        {
          "id": 48,
          "value": 0.0
        },
        {
          "id": 49,
          "value": 0.0
        },
        {
          "id": 50,
          "value": 0.0
        },
        {
          "id": 51,
          "value": 0.0
        }
      ],
      "leftModuleId": 76,
      "rightModuleId": 1,
      "pos": [
        30,
        0
      ]
    },
    {
      "id": 359,
      "plugin": "AS",
      "version": "1.0.4",
      "model": "ReverbStereoFx",
      "params": [
        {
          "id": 0,
          "value": 0.912999988
        },
        {
          "id": 1,
          "value": 0.294
        },
        {
          "id": 2,
          "value": 1.0
        },
        {
          "id": 3,
          "value": 0.0
        }
      ],
      "leftModuleId": 91,
      "rightModuleId": 407,
      "data": {
        "as_FxBypass": [
          false
        ]
      },
      "pos": [
        80,
        0
      ]
    },
    {
      "id": 360,
      "plugin": "LindenbergResearch",
      "version": "1.3.3",
      "model": "BlankPanel_Wood",
      "params": [],
      "gestaltID": 1,
      "gradient": false,
      "patina": false,
      "patina_i_x": false,
      "patina_i_y": false,
      "patina_a_x": 1048.69849,
      "patina_a_y": 465.392822,
      "overlay": false,
      "overlay_r": 0.778103054,
      "overlay_g": 0.110450864,
      "overlay_b": 0.81347692,
      "overlay_a": 0.146274477,
      "AGED": false,
      "screws": true,
      "logo": false,
      "pos": [
        116,
        0
      ]
    },
    {
      "id": 361,
      "plugin": "LindenbergResearch",
      "version": "1.3.3",
      "model": "BlankPanel_Wood",
      "params": [],
      "gestaltID": 1,
      "gradient": false,
      "patina": false,
      "patina_i_x": false,
      "patina_i_y": false,
      "patina_a_x": 1048.69849,
      "patina_a_y": 465.392822,
      "overlay": false,
      "overlay_r": 0.349096596,
      "overlay_g": 0.599727154,
      "overlay_b": 0.31901741,
      "overlay_a": 0.141655415,
      "AGED": false,
      "screws": true,
      "logo": false,
      "pos": [
        116,
        3
      ]
    },
    {
      "id": 362,
      "plugin": "LindenbergResearch",
      "version": "1.3.3",
      "model": "BlankPanel_Wood",
      "params": [],
      "gestaltID": 1,
      "gradient": false,
      "patina": false,
      "patina_i_x": false,
      "patina_i_y": false,
      "patina_a_x": 1048.69849,
      "patina_a_y": 465.392822,
      "overlay": false,
      "overlay_r": 0.897585511,
      "overlay_g": 0.40863353,
      "overlay_b": 0.891845703,
      "overlay_a": 0.24052462,
      "AGED": false,
      "screws": true,
      "logo": false,
      "pos": [
        116,
        1
      ]
    },
    {
      "id": 363,
      "plugin": "LindenbergResearch",
      "version": "1.3.3",
      "model": "BlankPanel_Wood",
      "params": [],
      "gestaltID": 1,
      "gradient": false,
      "patina": false,
      "patina_i_x": false,
      "patina_i_y": false,
      "patina_a_x": 1048.69849,
      "patina_a_y": 465.392822,
      "overlay": false,
      "overlay_r": 0.227105916,
      "overlay_g": 0.0923478007,
      "overlay_b": 0.0904430747,
      "overlay_a": 0.335284948,
      "AGED": false,
      "screws": true,
      "logo": false,
      "pos": [
        116,
        2
      ]
    },
    {
      "id": 364,
      "plugin": "LindenbergResearch",
      "version": "1.3.3",
      "model": "BlankPanel_Wood",
      "params": [],
      "rightModuleId": 5,
      "gestaltID": 1,
      "gradient": false,
      "patina": false,
      "patina_i_x": true,
      "patina_i_y": false,
      "patina_a_x": 732.980896,
      "patina_a_y": 232.628174,
      "overlay": false,
      "overlay_r": 0.38997823,
      "overlay_g": 0.644305646,
      "overlay_b": 0.170617223,
      "overlay_a": 0.147528291,
      "AGED": false,
      "screws": true,
      "logo": false,
      "pos": [
        0,
        0
      ]
    },
    {
      "id": 365,
      "plugin": "LindenbergResearch",
      "version": "1.3.3",
      "model": "BlankPanel_Wood",
      "params": [],
      "rightModuleId": 30,
      "gestaltID": 1,
      "gradient": false,
      "patina": false,
      "patina_i_x": true,
      "patina_i_y": false,
      "patina_a_x": 732.980896,
      "patina_a_y": 232.628174,
      "overlay": false,
      "overlay_r": 0.347331822,
      "overlay_g": 0.692534089,
      "overlay_b": 0.252043903,
      "overlay_a": 0.415304154,
      "AGED": false,
      "screws": true,
      "logo": false,
      "pos": [
        0,
        1
      ]
    },
    {
      "id": 366,
      "plugin": "LindenbergResearch",
      "version": "1.3.3",
      "model": "BlankPanel_Wood",
      "params": [],
      "gestaltID": 1,
      "gradient": false,
      "patina": false,
      "patina_i_x": true,
      "patina_i_y": false,
      "patina_a_x": 732.980896,
      "patina_a_y": 232.628174,
      "overlay": false,
      "overlay_r": 0.366503775,
      "overlay_g": 0.409117341,
      "overlay_b": 0.268398643,
      "overlay_a": 0.187651753,
      "AGED": false,
      "screws": true,
      "logo": false,
      "pos": [
        0,
        2
      ]
    },
    {
      "id": 367,
      "plugin": "LindenbergResearch",
      "version": "1.3.3",
      "model": "BlankPanel_Wood",
      "params": [],
      "gestaltID": 1,
      "gradient": false,
      "patina": false,
      "patina_i_x": true,
      "patina_i_y": false,
      "patina_a_x": 732.980896,
      "patina_a_y": 232.628174,
      "overlay": false,
      "overlay_r": 0.492131233,
      "overlay_g": 0.530577123,
      "overlay_b": 0.309186459,
      "overlay_a": 0.341221422,
      "AGED": false,
      "screws": true,
      "logo": false,
      "pos": [
        0,
        3
      ]
    },
    {
      "id": 392,
      "plugin": "Valley",
      "version": "1.1.7",
      "model": "Interzone",
      "params": [
        {
          "id": 0,
          "value": -1.0
        },
        {
          "id": 1,
          "value": 1.0
        },
        {
          "id": 2,
          "value": 0.0
        },
        {
          "id": 3,
          "value": 0.0
        },
        {
          "id": 4,
          "value": 1.0
        },
        {
          "id": 5,
          "value": 0.0
        },
        {
          "id": 6,
          "value": 0.270500034
        },
        {
          "id": 7,
          "value": 0.0
        },
        {
          "id": 8,
          "value": 1.0
        },
        {
          "id": 9,
          "value": 0.0
        },
        {
          "id": 10,
          "value": 0.0
        },
        {
          "id": 11,
          "value": 0.0
        },
        {
          "id": 12,
          "value": 1.65000224
        },
        {
          "id": 13,
          "value": 1.0
        },
        {
          "id": 14,
          "value": 0.0
        },
        {
          "id": 15,
          "value": 0.800000012
        },
        {
          "id": 16,
          "value": 0.407999992
        },
        {
          "id": 17,
          "value": 0.717999995
        },
        {
          "id": 18,
          "value": 0.759000003
        },
        {
          "id": 19,
          "value": 0.410999894
        },
        {
          "id": 20,
          "value": 8.13000202
        },
        {
          "id": 21,
          "value": 5.28999901
        },
        {
          "id": 22,
          "value": 0.0
        },
        {
          "id": 23,
          "value": 1.0
        },
        {
          "id": 24,
          "value": 0.0
        },
        {
          "id": 25,
          "value": 0.0
        },
        {
          "id": 26,
          "value": 0.0
        },
        {
          "id": 27,
          "value": 1.0
        },
        {
          "id": 28,
          "value": -0.0400000252
        },
        {
          "id": 29,
          "value": 0.417999953
        },
        {
          "id": 30,
          "value": 0.0
        },
        {
          "id": 31,
          "value": 0.0
        },
        {
          "id": 32,
          "value": 0.0
        },
        {
          "id": 33,
          "value": 0.0
        },
        {
          "id": 34,
          "value": 0.0
        },
        {
          "id": 35,
          "value": 0.644999981
        },
        {
          "id": 36,
          "value": 0.535000026
        },
        {
          "id": 37,
          "value": 0.495000035
        },
        {
          "id": 38,
          "value": 0.0
        },
        {
          "id": 39,
          "value": 0.0
        },
        {
          "id": 40,
          "value": 0.0
        },
        {
          "id": 41,
          "value": 0.0
        },
        {
          "id": 42,
          "value": 0.0
        }
      ],
      "leftModuleId": 397,
      "data": {
        "panelStyle": 0
      },
      "pos": [
        61,
        1
      ]
    },
    {
      "id": 393,
      "plugin": "Geodesics",
      "version": "1.2.0",
      "model": "Ions",
      "params": [
        {
          "id": 0,
          "value": 0.0
        },
        {
          "id": 1,
          "value": 0.0
        },
        {
          "id": 2,
          "value": 0.206339955
        },
        {
          "id": 3,
          "value": 0.323825359
        },
        {
          "id": 4,
          "value": 0.798200369
        },
        {
          "id": 5,
          "value": 0.604299963
        },
        {
          "id": 6,
          "value": 0.883921266
        },
        {
          "id": 7,
          "value": 0.937287211
        },
        {
          "id": 8,
          "value": 0.377353728
        },
        {
          "id": 9,
          "value": 0.624054313
        },
        {
          "id": 10,
          "value": 0.474732697
        },
        {
          "id": 11,
          "value": 0.400780976
        },
        {
          "id": 12,
          "value": 0.329561353
        },
        {
          "id": 13,
          "value": 0.117608607
        },
        {
          "id": 14,
          "value": 0.945658922
        },
        {
          "id": 15,
          "value": 0.085206449
        },
        {
          "id": 16,
          "value": 0.656654477
        },
        {
          "id": 17,
          "value": 0.642999947
        },
        {
          "id": 18,
          "value": 0.0
        },
        {
          "id": 19,
          "value": 0.0
        },
        {
          "id": 20,
          "value": 0.0
        },
        {
          "id": 21,
          "value": 0.0
        },
        {
          "id": 22,
          "value": 0.0
        },
        {
          "id": 23,
          "value": 0.0
        },
        {
          "id": 24,
          "value": 0.0
        },
        {
          "id": 25,
          "value": 0.0
        },
        {
          "id": 26,
          "value": 0.0
        },
        {
          "id": 27,
          "value": 0.0
        }
      ],
      "leftModuleId": 30,
      "rightModuleId": 396,
      "data": {
        "panelTheme": 1,
        "running": true,
        "resetOnRun": false,
        "quantize": 3,
        "uncertainty": false,
        "stepIndexes0": 12,
        "stepIndexes1": 11,
        "states0": 2,
        "states1": 2,
        "ranges0": 1,
        "ranges1": 1,
        "leap": false
      },
      "pos": [
        24,
        1
      ]
    },
    {
      "id": 394,
      "plugin": "Geodesics",
      "version": "1.2.0",
      "model": "Pulsars",
      "params": [
        {
          "id": 0,
          "value": 0.0
        },
        {
          "id": 1,
          "value": 0.0
        },
        {
          "id": 2,
          "value": 0.0
        },
        {
          "id": 3,
          "value": 0.0
        },
        {
          "id": 4,
          "value": 0.0
        },
        {
          "id": 5,
          "value": 0.0
        },
        {
          "id": 6,
          "value": 0.0
        },
        {
          "id": 7,
          "value": 0.0
        }
      ],
      "rightModuleId": 395,
      "data": {
        "panelTheme": 1,
        "isVoid0": 0.0,
        "isVoid1": 0.0,
        "isReverse0": 0.0,
        "isReverse1": 0.0,
        "isRandom0": 0.0,
        "isRandom1": 0.0,
        "cvMode0": 0,
        "cvMode1": 0
      },
      "pos": [
        94,
        1
      ]
    },
    {
      "id": 395,
      "plugin": "Instruo",
      "version": "1.1.0",
      "model": "ochd",
      "params": [
        {
          "id": 0,
          "value": 0.5
        },
        {
          "id": 1,
          "value": 0.0
        }
      ],
      "leftModuleId": 394,
      "data": {
        "deviations": {
          "lfos": [
            {
              "amplitude": 5.5,
              "frequency": {
                "maximum": 154.699997,
                "minimum": 0.147,
                "absMinimum": 0.000294000027,
                "absMaximum": 160.887985
              }
            },
            {
              "amplitude": 5.5,
              "frequency": {
                "maximum": 84.7399979,
                "minimum": 0.0816000029,
                "absMinimum": 0.00016320002,
                "absMaximum": 88.1295929
              }
            },
            {
              "amplitude": 5.5,
              "frequency": {
                "maximum": 42.2599983,
                "minimum": 0.0417000018,
                "absMinimum": 8.34000093e-5,
                "absMaximum": 43.9503975
              }
            },
            {
              "amplitude": 5.5,
              "frequency": {
                "maximum": 22.0100002,
                "minimum": 0.0221999995,
                "absMinimum": 4.43999998e-5,
                "absMaximum": 22.8903999
              }
            },
            {
              "amplitude": 5.5,
              "frequency": {
                "maximum": 10.3699999,
                "minimum": 0.0102000004,
                "absMinimum": 2.04000025e-5,
                "absMaximum": 10.7847996
              }
            },
            {
              "amplitude": 5.5,
              "frequency": {
                "maximum": 4.69999981,
                "minimum": 0.00505999988,
                "absMinimum": 1.01200003e-5,
                "absMaximum": 4.88799953
              }
            },
            {
              "amplitude": 5.5,
              "frequency": {
                "maximum": 2.11999989,
                "minimum": 0.00212999992,
                "absMinimum": 4.25999997e-6,
                "absMaximum": 2.20479989
              }
            },
            {
              "amplitude": 5.5,
              "frequency": {
                "maximum": 1.00999999,
                "minimum": 0.00100000005,
                "absMinimum": 2.00000022e-6,
                "absMaximum": 1.0503999
              }
            }
          ]
        }
      },
      "pos": [
        105,
        1
      ]
    },
    {
      "id": 396,
      "plugin": "repelzen",
      "version": "1.1.0",
      "model": "rewin",
      "params": [
        {
          "id": 0,
          "value": 0.0
        },
        {
          "id": 1,
          "value": 0.0
        },
        {
          "id": 2,
          "value": 0.0
        },
        {
          "id": 3,
          "value": 0.0
        },
        {
          "id": 4,
          "value": 0.0
        },
        {
          "id": 5,
          "value": 0.0
        },
        {
          "id": 6,
          "value": 0.0
        },
        {
          "id": 7,
          "value": 0.0
        },
        {
          "id": 8,
          "value": 0.0
        },
        {
          "id": 9,
          "value": 0.0
        },
        {
          "id": 10,
          "value": 0.0
        },
        {
          "id": 11,
          "value": 0.0
        },
        {
          "id": 12,
          "value": 0.0
        },
        {
          "id": 13,
          "value": 0.0
        },
        {
          "id": 14,
          "value": 0.0
        },
        {
          "id": 15,
          "value": 0.0
        },
        {
          "id": 16,
          "value": 0.0
        }
      ],
      "leftModuleId": 393,
      "rightModuleId": 397,
      "data": {
        "notes": [
          true,
          false,
          true,
          false,
          true,
          false,
          true,
          true,
          false,
          true,
          true,
          false,
          false,
          false,
          false,
          false,
          false,
          false,
          false,
          false,
          false,
          false,
          false,
          false,
          false,
          false,
          false,
          false,
          false,
          false,
          false,
          false,
          false,
          false,
          false,
          false,
          false,
          false,
          false,
          false,
          false,
          false,
          false,
          false,
          false,
          false,
          false,
          false,
          false,
          false,
          false,
          false,
          false,
          false,
          false,
          false,
          false,
          false,
          false,
          false,
          false,
          false,
          false,
          false,
          false,
          false,
          false,
          false,
          false,
          false,
          false,
          false,
          false,
          false,
          false,
          false,
          false,
          false,
          false,
          false,
          false,
          false,
          false,
          false,
          false,
          false,
          false,
          false,
          false,
          false,
          false,
          false,
          false,
          false,
          false,
          false,
          false,
          false,
          false,
          false,
          false,
          false,
          false,
          false,
          false,
          false,
          false,
          false,
          false,
          false,
          false,
          false,
          false,
          false,
          false,
          false,
          false,
          false,
          false,
          false,
          false,
          false,
          false,
          false,
          false,
          false,
          false,
          false,
          false,
          false,
          false,
          false,
          false,
          false,
          false,
          false,
          false,
          false,
          false,
          false,
          false,
          false,
          false,
          false,
          false,
          false,
          false,
          false,
          false,
          false,
          false,
          false,
          false,
          false,
          false,
          false,
          false,
          false,
          false,
          false,
          false,
          false,
          false,
          false,
          false,
          false,
          false,
          false,
          false,
          false,
          false,
          false,
          false,
          false,
          false,
          false,
          false,
          false,
          false,
          false,
          false,
          false,
          false,
          false,
          false,
          false,
          false,
          false,
          false,
          false,
          false,
          false
        ],
        "mode": 0
      },
      "pos": [
        43,
        1
      ]
    },
    {
      "id": 397,
      "plugin": "VultModulesFree",
      "version": "1.19.1",
      "model": "Slap",
      "params": [
        {
          "id": 0,
          "value": 0.0
        },
        {
          "id": 1,
          "value": 0.222499996
        },
        {
          "id": 2,
          "value": 0.29399997
        },
        {
          "id": 3,
          "value": 0.5
        },
        {
          "id": 4,
          "value": 0.0
        },
        {
          "id": 5,
          "value": 0.0
        },
        {
          "id": 6,
          "value": 0.0
        },
        {
          "id": 7,
          "value": 0.0
        },
        {
          "id": 8,
          "value": 0.0
        }
      ],
      "leftModuleId": 396,
      "rightModuleId": 392,
      "pos": [
        51,
        1
      ]
    },
    {
      "id": 398,
      "plugin": "VultModulesFree",
      "version": "1.19.1",
      "model": "Slap",
      "params": [
        {
          "id": 0,
          "value": 0.0
        },
        {
          "id": 1,
          "value": 0.343999982
        },
        {
          "id": 2,
          "value": 0.309499919
        },
        {
          "id": 3,
          "value": 0.5
        },
        {
          "id": 4,
          "value": 0.0
        },
        {
          "id": 5,
          "value": 0.215999991
        },
        {
          "id": 6,
          "value": 0.0
        },
        {
          "id": 7,
          "value": 0.0
        },
        {
          "id": 8,
          "value": 0.0
        }
      ],
      "leftModuleId": 403,
      "rightModuleId": 400,
      "pos": [
        79,
        2
      ]
    },
    {
      "id": 400,
      "plugin": "VultModulesFree",
      "version": "1.19.1",
      "model": "Spank",
      "params": [
        {
          "id": 0,
          "value": 0.0
        },
        {
          "id": 1,
          "value": 0.0
        },
        {
          "id": 2,
          "value": 0.241999939
        },
        {
          "id": 3,
          "value": 0.0
        },
        {
          "id": 4,
          "value": 0.0
        },
        {
          "id": 5,
          "value": 0.0
        },
        {
          "id": 6,
          "value": 0.0
        }
      ],
      "leftModuleId": 398,
      "rightModuleId": 402,
      "pos": [
        89,
        2
      ]
    },
    {
      "id": 402,
      "plugin": "VultModulesFree",
      "version": "1.19.1",
      "model": "Slap",
      "params": [
        {
          "id": 0,
          "value": 0.0
        },
        {
          "id": 1,
          "value": 0.564500213
        },
        {
          "id": 2,
          "value": 0.345499933
        },
        {
          "id": 3,
          "value": 0.5
        },
        {
          "id": 4,
          "value": 0.0
        },
        {
          "id": 5,
          "value": 0.0
        },
        {
          "id": 6,
          "value": 0.0
        },
        {
          "id": 7,
          "value": 0.0
        },
        {
          "id": 8,
          "value": 0.0
        }
      ],
      "leftModuleId": 400,
      "pos": [
        99,
        2
      ]
    },
    {
      "id": 403,
      "plugin": "AudibleInstruments",
      "version": "1.5.0",
      "model": "Branches",
      "params": [
        {
          "id": 0,
          "value": 0.5
        },
        {
          "id": 1,
          "value": 0.444999844
        },
        {
          "id": 2,
          "value": 0.0
        },
        {
          "id": 3,
          "value": 0.0
        }
      ],
      "leftModuleId": 404,
      "rightModuleId": 398,
      "data": {
        "modes": [
          false,
          true
        ]
      },
      "pos": [
        73,
        2
      ]
    },
    {
      "id": 404,
      "plugin": "Geodesics",
      "version": "1.2.0",
      "model": "Energy",
      "params": [
        {
          "id": 0,
          "value": 0.0
        },
        {
          "id": 1,
          "value": 0.0
        },
        {
          "id": 2,
          "value": 0.0
        },
        {
          "id": 3,
          "value": 0.0
        },
        {
          "id": 4,
          "value": 0.0
        },
        {
          "id": 5,
          "value": 0.0
        },
        {
          "id": 6,
          "value": 0.0
        },
        {
          "id": 7,
          "value": 0.423000008
        },
        {
          "id": 8,
          "value": 0.48300004
        },
        {
          "id": 9,
          "value": 0.0
        }
      ],
      "leftModuleId": 405,
      "rightModuleId": 403,
      "data": {
        "panelTheme": 1,
        "oscM_phase": 4187142880,
        "oscC_phase": 2816932448,
        "osc1M_phase": 0,
        "osc1C_phase": 0,
        "osc2M_phase": 0,
        "osc2C_phase": 0,
        "osc3M_phase": 0,
        "osc3C_phase": 0,
        "osc4M_phase": 0,
        "osc4C_phase": 0,
        "osc5M_phase": 0,
        "osc5C_phase": 0,
        "osc6M_phase": 0,
        "osc6C_phase": 0,
        "osc7M_phase": 0,
        "osc7C_phase": 0,
        "osc8M_phase": 0,
        "osc8C_phase": 0,
        "osc9M_phase": 0,
        "osc9C_phase": 0,
        "osc10M_phase": 0,
        "osc10C_phase": 0,
        "osc11M_phase": 0,
        "osc11C_phase": 0,
        "osc12M_phase": 0,
        "osc12C_phase": 0,
        "osc13M_phase": 0,
        "osc13C_phase": 0,
        "osc14M_phase": 0,
        "osc14C_phase": 0,
        "osc15M_phase": 0,
        "osc15C_phase": 0,
        "routing": 1,
        "planck0": 0,
        "planck1": 0,
        "modtype0": 1,
        "modtype1": 1,
        "cross": 1
      },
      "pos": [
        66,
        2
      ]
    },
    {
      "id": 405,
      "plugin": "Fundamental",
      "version": "1.4.0",
      "model": "Octave",
      "params": [
        {
          "id": 0,
          "value": 1.0
        }
      ],
      "leftModuleId": 406,
      "rightModuleId": 404,
      "pos": [
        63,
        2
      ]
    },
    {
      "id": 406,
      "plugin": "VultModulesFree",
      "version": "1.19.1",
      "model": "Spank",
      "params": [
        {
          "id": 0,
          "value": 0.0
        },
        {
          "id": 1,
          "value": 0.0
        },
        {
          "id": 2,
          "value": 0.5
        },
        {
          "id": 3,
          "value": 0.0
        },
        {
          "id": 4,
          "value": 0.0
        },
        {
          "id": 5,
          "value": 0.0
        },
        {
          "id": 6,
          "value": 0.0
        }
      ],
      "leftModuleId": 408,
      "rightModuleId": 405,
      "pos": [
        53,
        2
      ]
    },
    {
      "id": 407,
      "plugin": "LindenbergResearch",
      "version": "1.3.3",
      "model": "Neo",
      "params": [
        {
          "id": 0,
          "value": 0.529000401
        },
        {
          "id": 1,
          "value": 0.508500159
        },
        {
          "id": 2,
          "value": 0.360000074
        },
        {
          "id": 3,
          "value": 0.696600199
        },
        {
          "id": 4,
          "value": 0.418500066
        },
        {
          "id": 5,
          "value": 0.0
        },
        {
          "id": 6,
          "value": 0.0
        },
        {
          "id": 7,
          "value": 1.0
        }
      ],
      "leftModuleId": 359,
      "gestaltID": 1,
      "gradient": true,
      "patina": false,
      "patina_i_x": false,
      "patina_i_y": false,
      "patina_a_x": 199.809601,
      "patina_a_y": 318.105682,
      "overlay": false,
      "overlay_r": 0.0683171153,
      "overlay_g": 0.725277126,
      "overlay_b": 0.602222204,
      "overlay_a": 0.395872444,
      "pos": [
        86,
        0
      ]
    },
    {
      "id": 408,
      "plugin": "LindenbergResearch",
      "version": "1.3.3",
      "model": "MS20_VCF",
      "params": [
        {
          "id": 0,
          "value": 0.593500018
        },
        {
          "id": 1,
          "value": 0.379500031
        },
        {
          "id": 2,
          "value": 0.0
        },
        {
          "id": 3,
          "value": 0.0
        },
        {
          "id": 4,
          "value": 0.0
        },
        {
          "id": 5,
          "value": 0.0
        },
        {
          "id": 6,
          "value": 1.0
        }
      ],
      "rightModuleId": 406,
      "gestaltID": 1,
      "gradient": true,
      "patina": false,
      "patina_i_x": true,
      "patina_i_y": false,
      "patina_a_x": 100.948349,
      "patina_a_y": 66.8106003,
      "overlay": false,
      "overlay_r": 0.505404472,
      "overlay_g": 0.231402278,
      "overlay_b": 0.339632809,
      "overlay_a": 0.145276979,
      "pos": [
        41,
        2
      ]
    }
  ],
  "cables": [
    {
      "id": 668,
      "outputModuleId": 350,
      "outputId": 2,
      "inputModuleId": 91,
      "inputId": 5,
      "color": "#c91847"
    },
    {
      "id": 669,
      "outputModuleId": 350,
      "outputId": 3,
      "inputModuleId": 91,
      "inputId": 6,
      "color": "#c91847"
    },
    {
      "id": 670,
      "outputModuleId": 91,
      "outputId": 0,
      "inputModuleId": 350,
      "inputId": 0,
      "color": "#c91847"
    },
    {
      "id": 671,
      "outputModuleId": 91,
      "outputId": 1,
      "inputModuleId": 350,
      "inputId": 1,
      "color": "#c91847"
    },
    {
      "id": 673,
      "outputModuleId": 350,
      "outputId": 0,
      "inputModuleId": 1,
      "inputId": 0,
      "color": "#c91847"
    },
    {
      "id": 674,
      "outputModuleId": 350,
      "outputId": 1,
      "inputModuleId": 1,
      "inputId": 1,
      "color": "#c91847"
    },
    {
      "id": 691,
      "outputModuleId": 350,
      "outputId": 4,
      "inputModuleId": 359,
      "inputId": 0,
      "color": "#c91847"
    },
    {
      "id": 692,
      "outputModuleId": 350,
      "outputId": 5,
      "inputModuleId": 359,
      "inputId": 1,
      "color": "#c91847"
    },
    {
      "id": 693,
      "outputModuleId": 359,
      "outputId": 0,
      "inputModuleId": 350,
      "inputId": 2,
      "color": "#c91847"
    },
    {
      "id": 694,
      "outputModuleId": 359,
      "outputId": 1,
      "inputModuleId": 350,
      "inputId": 3,
      "color": "#c91847"
    },
    {
      "id": 751,
      "outputModuleId": 30,
      "outputId": 1,
      "inputModuleId": 393,
      "inputId": 0,
      "color": "#364449"
    },
    {
      "id": 752,
      "outputModuleId": 393,
      "outputId": 1,
      "inputModuleId": 396,
      "inputId": 2,
      "color": "#c9b70e"
    },
    {
      "id": 753,
      "outputModuleId": 393,
      "outputId": 0,
      "inputModuleId": 396,
      "inputId": 3,
      "color": "#c9b70e"
    },
    {
      "id": 754,
      "outputModuleId": 396,
      "outputId": 0,
      "inputModuleId": 392,
      "inputId": 0,
      "color": "#c9b70e"
    },
    {
      "id": 757,
      "outputModuleId": 395,
      "outputId": 3,
      "inputModuleId": 394,
      "inputId": 9,
      "color": "#0c8e15"
    },
    {
      "id": 755,
      "outputModuleId": 392,
      "outputId": 0,
      "inputModuleId": 397,
      "inputId": 5,
      "color": "#c91847"
    },
    {
      "id": 764,
      "outputModuleId": 397,
      "outputId": 0,
      "inputModuleId": 394,
      "inputId": 0,
      "color": "#c91847"
    },
    {
      "id": 758,
      "outputModuleId": 392,
      "outputId": 1,
      "inputModuleId": 398,
      "inputId": 5,
      "color": "#c91847"
    },
    {
      "id": 765,
      "outputModuleId": 398,
      "outputId": 0,
      "inputModuleId": 394,
      "inputId": 1,
      "color": "#c91847"
    },
    {
      "id": 761,
      "outputModuleId": 392,
      "outputId": 2,
      "inputModuleId": 400,
      "inputId": 4,
      "color": "#c91847"
    },
    {
      "id": 766,
      "outputModuleId": 400,
      "outputId": 0,
      "inputModuleId": 394,
      "inputId": 2,
      "color": "#c91847"
    },
    {
      "id": 767,
      "outputModuleId": 30,
      "outputId": 1,
      "inputModuleId": 400,
      "inputId": 0,
      "color": "#0c8e15"
    },
    {
      "id": 768,
      "outputModuleId": 30,
      "outputId": 1,
      "inputModuleId": 398,
      "inputId": 0,
      "color": "#0c8e15"
    },
    {
      "id": 769,
      "outputModuleId": 30,
      "outputId": 1,
      "inputModuleId": 397,
      "inputId": 0,
      "color": "#0c8e15"
    },
    {
      "id": 772,
      "outputModuleId": 392,
      "outputId": 4,
      "inputModuleId": 402,
      "inputId": 5,
      "color": "#c91847"
    },
    {
      "id": 773,
      "outputModuleId": 402,
      "outputId": 0,
      "inputModuleId": 394,
      "inputId": 3,
      "color": "#c91847"
    },
    {
      "id": 774,
      "outputModuleId": 30,
      "outputId": 1,
      "inputModuleId": 402,
      "inputId": 0,
      "color": "#364449"
    },
    {
      "id": 776,
      "outputModuleId": 395,
      "outputId": 4,
      "inputModuleId": 392,
      "inputId": 7,
      "color": "#0c8e15"
    },
    {
      "id": 777,
      "outputModuleId": 395,
      "outputId": 5,
      "inputModuleId": 392,
      "inputId": 8,
      "color": "#0c8e15"
    },
    {
      "id": 778,
      "outputModuleId": 395,
      "outputId": 6,
      "inputModuleId": 392,
      "inputId": 2,
      "color": "#0c8e15"
    },
    {
      "id": 762,
      "outputModuleId": 30,
      "outputId": 1,
      "inputModuleId": 392,
      "inputId": 11,
      "color": "#c9b70e"
    },
    {
      "id": 780,
      "outputModuleId": 392,
      "outputId": 6,
      "inputModuleId": 398,
      "inputId": 2,
      "color": "#0c8e15"
    },
    {
      "id": 781,
      "outputModuleId": 30,
      "outputId": 2,
      "inputModuleId": 403,
      "inputId": 0,
      "color": "#364449"
    },
    {
      "id": 782,
      "outputModuleId": 403,
      "outputId": 0,
      "inputModuleId": 393,
      "inputId": 2,
      "color": "#364449"
    },
    {
      "id": 783,
      "outputModuleId": 403,
      "outputId": 2,
      "inputModuleId": 393,
      "inputId": 1,
      "color": "#364449"
    },
    {
      "id": 784,
      "outputModuleId": 396,
      "outputId": 1,
      "inputModuleId": 405,
      "inputId": 0,
      "color": "#c9b70e"
    },
    {
      "id": 785,
      "outputModuleId": 404,
      "outputId": 0,
      "inputModuleId": 406,
      "inputId": 4,
      "color": "#c91847"
    },
    {
      "id": 789,
      "outputModuleId": 403,
      "outputId": 1,
      "inputModuleId": 406,
      "inputId": 0,
      "color": "#364449"
    },
    {
      "id": 790,
      "outputModuleId": 395,
      "outputId": 5,
      "inputModuleId": 394,
      "inputId": 8,
      "color": "#0c8e15"
    },
    {
      "id": 791,
      "outputModuleId": 394,
      "outputId": 1,
      "inputModuleId": 404,
      "inputId": 0,
      "color": "#0c8e15"
    },
    {
      "id": 792,
      "outputModuleId": 394,
      "outputId": 2,
      "inputModuleId": 404,
      "inputId": 1,
      "color": "#0c8e15"
    },
    {
      "id": 793,
      "outputModuleId": 394,
      "outputId": 3,
      "inputModuleId": 404,
      "inputId": 4,
      "color": "#0c8e15"
    },
    {
      "id": 794,
      "outputModuleId": 394,
      "outputId": 4,
      "inputModuleId": 404,
      "inputId": 5,
      "color": "#0c8e15"
    },
    {
      "id": 795,
      "outputModuleId": 30,
      "outputId": 1,
      "inputModuleId": 403,
      "inputId": 1,
      "color": "#0c8e15"
    },
    {
      "id": 796,
      "outputModuleId": 395,
      "outputId": 6,
      "inputModuleId": 350,
      "inputId": 17,
      "color": "#0c8e15"
    },
    {
      "id": 756,
      "outputModuleId": 394,
      "outputId": 0,
      "inputModuleId": 407,
      "inputId": 0,
      "color": "#c91847"
    },
    {
      "id": 797,
      "outputModuleId": 407,
      "outputId": 0,
      "inputModuleId": 350,
      "inputId": 4,
      "color": "#c91847"
    },
    {
      "id": 787,
      "outputModuleId": 406,
      "outputId": 0,
      "inputModuleId": 408,
      "inputId": 0,
      "color": "#c91847"
    },
    {
      "id": 798,
      "outputModuleId": 408,
      "outputId": 0,
      "inputModuleId": 350,
      "inputId": 5,
      "color": "#c91847"
    },
    {
      "id": 799,
      "outputModuleId": 395,
      "outputId": 6,
      "inputModuleId": 407,
      "inputId": 1,
      "color": "#0c8e15"
    },
    {
      "id": 800,
      "outputModuleId": 395,
      "outputId": 7,
      "inputModuleId": 407,
      "inputId": 2,
      "color": "#0c8e15"
    },
    {
      "id": 801,
      "outputModuleId": 403,
      "outputId": 3,
      "inputModuleId": 393,
      "inputId": 11,
      "color": "#364449"
    },
    {
      "id": 1351,
      "outputModuleId": 5,
      "outputId": 7,
      "inputModuleId": 30,
      "inputId": 6,
      "color": "#e07a5f"
    },
    {
      "id": 1352,
      "outputModuleId": 30,
      "outputId": 4,
      "inputModuleId": 393,
      "inputId": 4,
      "color": "#3d405b"
    }
  ]
}