{
  "version": "1.1.6",
  "modules": [
    {
      "id": 1,
      "plugin": "Core",
      "version": "1.1.6",
      "model": "AudioInterface",
      "params": [],
      "leftModuleId": 375,
      "rightModuleId": 687,
      "data": {
        "audio": {
          "driver": 7,
          "deviceName": "ReaRoute ASIO (x64)",
          "offset": 0,
          "maxChannels": 8,
          "sampleRate": 48000,
          "blockSize": 256
        }
      },
      "pos": [
        52,
        0
      ]
    },
    {
      "id": 5,
      "plugin": "Core",
      "version": "1.1.6",
      "model": "MIDIToCVInterface",
      "params": [],
      "leftModuleId": 79,
      "rightModuleId": 375,
      "data": {
        "channels": 1,
        "polyMode": 0,
        "clockDivision": 24,
        "lastPitch": 8192,
        "lastMod": 0,
        "midi": {
          "driver": 4,
          "deviceName": "loopMIDI Port 3",
          "channel": -1
        }
      },
      "pos": [
        18,
        0
      ]
    },
    {
      "id": 76,
      "plugin": "Stoermelder-P1",
      "version": "1.9.0",
      "model": "Mb",
      "params": [],
      "leftModuleId": 702,
      "rightModuleId": 79,
      "data": {
        "mode": 1
      },
      "pos": [
        10,
        0
      ]
    },
    {
      "id": 79,
      "plugin": "Stoermelder-P1",
      "version": "1.9.0",
      "model": "Stroke",
      "params": [],
      "leftModuleId": 76,
      "rightModuleId": 5,
      "data": {
        "panelTheme": 1,
        "keys": [
          {
            "button": -1,
            "key": 49,
            "mods": 0,
            "mode": 24,
            "high": false,
            "data": "#c9b70e"
          },
          {
            "button": -1,
            "key": 50,
            "mods": 0,
            "mode": 24,
            "high": false,
            "data": "#0c8e15"
          },
          {
            "button": -1,
            "key": 51,
            "mods": 0,
            "mode": 24,
            "high": false,
            "data": "#c91847"
          },
          {
            "button": -1,
            "key": 52,
            "mods": 0,
            "mode": 24,
            "high": false,
            "data": "#364449"
          },
          {
            "button": -1,
            "key": -1,
            "mods": 0,
            "mode": 1,
            "high": false,
            "data": ""
          },
          {
            "button": -1,
            "key": -1,
            "mods": 0,
            "mode": 1,
            "high": false,
            "data": ""
          },
          {
            "button": -1,
            "key": -1,
            "mods": 0,
            "mode": 1,
            "high": false,
            "data": ""
          },
          {
            "button": -1,
            "key": -1,
            "mods": 0,
            "mode": 1,
            "high": false,
            "data": ""
          },
          {
            "button": -1,
            "key": -1,
            "mods": 0,
            "mode": 1,
            "high": false,
            "data": ""
          },
          {
            "button": -1,
            "key": -1,
            "mods": 0,
            "mode": 1,
            "high": false,
            "data": ""
          }
        ]
      },
      "pos": [
        12,
        0
      ]
    },
    {
      "id": 360,
      "plugin": "LindenbergResearch",
      "version": "1.3.3",
      "model": "BlankPanel_Wood",
      "params": [],
      "leftModuleId": 692,
      "gestaltID": 1,
      "gradient": false,
      "patina": false,
      "patina_i_x": false,
      "patina_i_y": false,
      "patina_a_x": 1048.69849,
      "patina_a_y": 465.392822,
      "overlay": false,
      "overlay_r": 0.606022775,
      "overlay_g": 0.917279661,
      "overlay_b": 0.125715017,
      "overlay_a": 0.363167405,
      "AGED": false,
      "screws": true,
      "logo": false,
      "pos": [
        94,
        0
      ]
    },
    {
      "id": 362,
      "plugin": "LindenbergResearch",
      "version": "1.3.3",
      "model": "BlankPanel_Wood",
      "params": [],
      "leftModuleId": 698,
      "gestaltID": 1,
      "gradient": false,
      "patina": false,
      "patina_i_x": false,
      "patina_i_y": false,
      "patina_a_x": 1048.69849,
      "patina_a_y": 465.392822,
      "overlay": false,
      "overlay_r": 0.797270119,
      "overlay_g": 0.658141792,
      "overlay_b": 0.687848747,
      "overlay_a": 0.226201594,
      "AGED": false,
      "screws": true,
      "logo": false,
      "pos": [
        94,
        1
      ]
    },
    {
      "id": 363,
      "plugin": "LindenbergResearch",
      "version": "1.3.3",
      "model": "BlankPanel_Wood",
      "params": [],
      "leftModuleId": 701,
      "gestaltID": 1,
      "gradient": false,
      "patina": false,
      "patina_i_x": false,
      "patina_i_y": false,
      "patina_a_x": 1048.69849,
      "patina_a_y": 465.392822,
      "overlay": false,
      "overlay_r": 0.0826702118,
      "overlay_g": 0.131002486,
      "overlay_b": 0.729777277,
      "overlay_a": 0.207638443,
      "AGED": false,
      "screws": true,
      "logo": false,
      "pos": [
        94,
        2
      ]
    },
    {
      "id": 364,
      "plugin": "LindenbergResearch",
      "version": "1.3.3",
      "model": "BlankPanel_Wood",
      "params": [],
      "rightModuleId": 702,
      "gestaltID": 1,
      "gradient": false,
      "patina": false,
      "patina_i_x": true,
      "patina_i_y": false,
      "patina_a_x": 732.980896,
      "patina_a_y": 232.628174,
      "overlay": false,
      "overlay_r": 0.37102133,
      "overlay_g": 0.859581113,
      "overlay_b": 0.84999305,
      "overlay_a": 0.154669657,
      "AGED": false,
      "screws": true,
      "logo": false,
      "pos": [
        0,
        0
      ]
    },
    {
      "id": 365,
      "plugin": "LindenbergResearch",
      "version": "1.3.3",
      "model": "BlankPanel_Wood",
      "params": [],
      "rightModuleId": 648,
      "gestaltID": 1,
      "gradient": false,
      "patina": false,
      "patina_i_x": true,
      "patina_i_y": false,
      "patina_a_x": 732.980896,
      "patina_a_y": 232.628174,
      "overlay": false,
      "overlay_r": 0.2575261,
      "overlay_g": 0.105298877,
      "overlay_b": 0.142306566,
      "overlay_a": 0.11634095,
      "AGED": false,
      "screws": true,
      "logo": false,
      "pos": [
        0,
        1
      ]
    },
    {
      "id": 366,
      "plugin": "LindenbergResearch",
      "version": "1.3.3",
      "model": "BlankPanel_Wood",
      "params": [],
      "rightModuleId": 659,
      "gestaltID": 1,
      "gradient": false,
      "patina": false,
      "patina_i_x": true,
      "patina_i_y": false,
      "patina_a_x": 732.980896,
      "patina_a_y": 232.628174,
      "overlay": false,
      "overlay_r": 0.117016077,
      "overlay_g": 0.0262012482,
      "overlay_b": 0.995278716,
      "overlay_a": 0.339199722,
      "AGED": false,
      "screws": true,
      "logo": false,
      "pos": [
        0,
        2
      ]
    },
    {
      "id": 375,
      "plugin": "squinkylabs-plug1",
      "version": "1.0.20",
      "model": "squinkylabs-mix8",
      "params": [
        {
          "id": 0,
          "value": 0.800000012
        },
        {
          "id": 1,
          "value": 0.0
        },
        {
          "id": 2,
          "value": 0.800000012
        },
        {
          "id": 3,
          "value": 0.800000012
        },
        {
          "id": 4,
          "value": 0.800000012
        },
        {
          "id": 5,
          "value": 0.800000012
        },
        {
          "id": 6,
          "value": 0.800000012
        },
        {
          "id": 7,
          "value": 0.800000012
        },
        {
          "id": 8,
          "value": 0.800000012
        },
        {
          "id": 9,
          "value": 0.800000012
        },
        {
          "id": 10,
          "value": -0.664000034
        },
        {
          "id": 11,
          "value": 0.657999992
        },
        {
          "id": 12,
          "value": -0.531999886
        },
        {
          "id": 13,
          "value": 0.264000088
        },
        {
          "id": 14,
          "value": 0.0
        },
        {
          "id": 15,
          "value": 0.0
        },
        {
          "id": 16,
          "value": 0.0
        },
        {
          "id": 17,
          "value": 0.0
        },
        {
          "id": 18,
          "value": 0.0
        },
        {
          "id": 19,
          "value": 0.0
        },
        {
          "id": 20,
          "value": 0.0
        },
        {
          "id": 21,
          "value": 0.0
        },
        {
          "id": 22,
          "value": 0.0
        },
        {
          "id": 23,
          "value": 0.0
        },
        {
          "id": 24,
          "value": 0.0
        },
        {
          "id": 25,
          "value": 0.0
        },
        {
          "id": 26,
          "value": 0.0
        },
        {
          "id": 27,
          "value": 0.0
        },
        {
          "id": 28,
          "value": 0.0
        },
        {
          "id": 29,
          "value": 0.0
        },
        {
          "id": 30,
          "value": 0.0
        },
        {
          "id": 31,
          "value": 0.0
        },
        {
          "id": 32,
          "value": 0.0
        },
        {
          "id": 33,
          "value": 0.0
        },
        {
          "id": 34,
          "value": 0.0
        },
        {
          "id": 35,
          "value": 0.0
        },
        {
          "id": 36,
          "value": 0.0
        },
        {
          "id": 37,
          "value": 0.0
        },
        {
          "id": 38,
          "value": 0.0
        },
        {
          "id": 39,
          "value": 0.0
        },
        {
          "id": 40,
          "value": 0.0
        },
        {
          "id": 41,
          "value": 0.0
        },
        {
          "id": 42,
          "value": 0.0
        }
      ],
      "leftModuleId": 5,
      "rightModuleId": 1,
      "pos": [
        26,
        0
      ]
    },
    {
      "id": 648,
      "plugin": "ImpromptuModular",
      "version": "1.1.11",
      "model": "Clocked-Clkd",
      "params": [
        {
          "id": 0,
          "value": 2.0
        },
        {
          "id": 1,
          "value": 5.0
        },
        {
          "id": 2,
          "value": 0.0
        },
        {
          "id": 3,
          "value": 120.0
        },
        {
          "id": 4,
          "value": 0.0
        },
        {
          "id": 5,
          "value": 0.0
        },
        {
          "id": 6,
          "value": 0.0
        },
        {
          "id": 7,
          "value": 0.0
        },
        {
          "id": 8,
          "value": 0.0
        },
        {
          "id": 9,
          "value": 0.0
        }
      ],
      "leftModuleId": 365,
      "rightModuleId": 661,
      "data": {
        "panelTheme": 1,
        "running": true,
        "bpmDetectionMode": false,
        "resetOnStartStop": 0,
        "ppqn": 4,
        "resetClockOutputsHigh": true,
        "momentaryRunInput": true,
        "displayIndex": 2,
        "trigOuts": [
          false,
          false,
          false,
          false
        ],
        "clockMaster": -1
      },
      "pos": [
        4,
        1
      ]
    },
    {
      "id": 660,
      "plugin": "Bogaudio",
      "version": "1.1.37",
      "model": "Bogaudio-AD",
      "params": [
        {
          "id": 0,
          "value": 0.151500002
        },
        {
          "id": 1,
          "value": 0.299730033
        },
        {
          "id": 2,
          "value": 0.0
        },
        {
          "id": 3,
          "value": 0.0
        },
        {
          "id": 4,
          "value": 1.0
        }
      ],
      "leftModuleId": 659,
      "rightModuleId": 676,
      "data": {
        "invert": 1.0
      },
      "pos": [
        11,
        2
      ]
    },
    {
      "id": 661,
      "plugin": "Valley",
      "version": "1.1.7",
      "model": "uGraph",
      "params": [
        {
          "id": 0,
          "value": 0.0
        },
        {
          "id": 1,
          "value": 0.0
        },
        {
          "id": 2,
          "value": 0.0
        },
        {
          "id": 3,
          "value": 0.142499998
        },
        {
          "id": 4,
          "value": 0.129000008
        },
        {
          "id": 5,
          "value": 0.329999983
        },
        {
          "id": 6,
          "value": 0.835000098
        },
        {
          "id": 7,
          "value": 0.544999957
        },
        {
          "id": 8,
          "value": 0.326000035
        },
        {
          "id": 9,
          "value": 0.0
        }
      ],
      "leftModuleId": 648,
      "rightModuleId": 662,
      "data": {
        "sequencerMode": 2,
        "triggerOutputMode": 0,
        "accOutputMode": 0,
        "extClockResolution": 0,
        "chaosKnobMode": 0,
        "runMode": 0,
        "panelStyle": 0,
        "running": 1
      },
      "pos": [
        14,
        1
      ]
    },
    {
      "id": 662,
      "plugin": "AudibleInstruments",
      "version": "1.5.0",
      "model": "Branches",
      "params": [
        {
          "id": 0,
          "value": 0.5
        },
        {
          "id": 1,
          "value": 0.5
        },
        {
          "id": 2,
          "value": 0.0
        },
        {
          "id": 3,
          "value": 0.0
        }
      ],
      "leftModuleId": 661,
      "rightModuleId": 673,
      "data": {
        "modes": [
          false,
          true
        ]
      },
      "pos": [
        24,
        1
      ]
    },
    {
      "id": 664,
      "plugin": "Geodesics",
      "version": "1.2.0",
      "model": "Energy",
      "params": [
        {
          "id": 0,
          "value": 0.0
        },
        {
          "id": 1,
          "value": 0.0
        },
        {
          "id": 2,
          "value": 0.0
        },
        {
          "id": 3,
          "value": 0.0
        },
        {
          "id": 4,
          "value": 0.0
        },
        {
          "id": 5,
          "value": 0.0
        },
        {
          "id": 6,
          "value": 0.0
        },
        {
          "id": 7,
          "value": 0.0
        },
        {
          "id": 8,
          "value": 0.0
        },
        {
          "id": 9,
          "value": 0.0
        }
      ],
      "leftModuleId": 675,
      "rightModuleId": 665,
      "data": {
        "panelTheme": 1,
        "oscM_phase": 923218904,
        "oscC_phase": 2822793304,
        "osc1M_phase": 0,
        "osc1C_phase": 0,
        "osc2M_phase": 0,
        "osc2C_phase": 0,
        "osc3M_phase": 0,
        "osc3C_phase": 0,
        "osc4M_phase": 0,
        "osc4C_phase": 0,
        "osc5M_phase": 0,
        "osc5C_phase": 0,
        "osc6M_phase": 0,
        "osc6C_phase": 0,
        "osc7M_phase": 0,
        "osc7C_phase": 0,
        "osc8M_phase": 0,
        "osc8C_phase": 0,
        "osc9M_phase": 0,
        "osc9C_phase": 0,
        "osc10M_phase": 0,
        "osc10C_phase": 0,
        "osc11M_phase": 0,
        "osc11C_phase": 0,
        "osc12M_phase": 0,
        "osc12C_phase": 0,
        "osc13M_phase": 0,
        "osc13C_phase": 0,
        "osc14M_phase": 0,
        "osc14C_phase": 0,
        "osc15M_phase": 0,
        "osc15C_phase": 0,
        "routing": 1,
        "planck0": 2,
        "planck1": 0,
        "modtype0": 1,
        "modtype1": 1,
        "cross": 1
      },
      "pos": [
        34,
        2
      ]
    },
    {
      "id": 665,
      "plugin": "Bogaudio",
      "version": "1.1.37",
      "model": "Bogaudio-AD",
      "params": [
        {
          "id": 0,
          "value": 0.180000007
        },
        {
          "id": 1,
          "value": 0.313230097
        },
        {
          "id": 2,
          "value": 0.0
        },
        {
          "id": 3,
          "value": 0.0
        },
        {
          "id": 4,
          "value": 1.0
        }
      ],
      "leftModuleId": 664,
      "rightModuleId": 683,
      "data": {
        "invert": 1.0
      },
      "pos": [
        41,
        2
      ]
    },
    {
      "id": 659,
      "plugin": "Geodesics",
      "version": "1.2.0",
      "model": "Energy",
      "params": [
        {
          "id": 0,
          "value": 0.0
        },
        {
          "id": 1,
          "value": 0.0
        },
        {
          "id": 2,
          "value": 0.0
        },
        {
          "id": 3,
          "value": 0.0
        },
        {
          "id": 4,
          "value": 0.0
        },
        {
          "id": 5,
          "value": -1.1700002
        },
        {
          "id": 6,
          "value": 0.0
        },
        {
          "id": 7,
          "value": 0.0
        },
        {
          "id": 8,
          "value": 0.0
        },
        {
          "id": 9,
          "value": 0.0
        }
      ],
      "leftModuleId": 366,
      "rightModuleId": 660,
      "data": {
        "panelTheme": 1,
        "oscM_phase": 4268330408,
        "oscC_phase": 4268330408,
        "osc1M_phase": 0,
        "osc1C_phase": 0,
        "osc2M_phase": 0,
        "osc2C_phase": 0,
        "osc3M_phase": 0,
        "osc3C_phase": 0,
        "osc4M_phase": 0,
        "osc4C_phase": 0,
        "osc5M_phase": 0,
        "osc5C_phase": 0,
        "osc6M_phase": 0,
        "osc6C_phase": 0,
        "osc7M_phase": 0,
        "osc7C_phase": 0,
        "osc8M_phase": 0,
        "osc8C_phase": 0,
        "osc9M_phase": 0,
        "osc9C_phase": 0,
        "osc10M_phase": 0,
        "osc10C_phase": 0,
        "osc11M_phase": 0,
        "osc11C_phase": 0,
        "osc12M_phase": 0,
        "osc12C_phase": 0,
        "osc13M_phase": 0,
        "osc13C_phase": 0,
        "osc14M_phase": 0,
        "osc14C_phase": 0,
        "osc15M_phase": 0,
        "osc15C_phase": 0,
        "routing": 1,
        "planck0": 2,
        "planck1": 0,
        "modtype0": 1,
        "modtype1": 1,
        "cross": 1
      },
      "pos": [
        4,
        2
      ]
    },
    {
      "id": 673,
      "plugin": "Instruo",
      "version": "1.1.0",
      "model": "harmonaig",
      "params": [
        {
          "id": 0,
          "value": 1.0
        },
        {
          "id": 1,
          "value": 1.0
        },
        {
          "id": 2,
          "value": 1.0
        },
        {
          "id": 3,
          "value": 1.0
        },
        {
          "id": 4,
          "value": 1.0
        },
        {
          "id": 5,
          "value": 1.0
        },
        {
          "id": 6,
          "value": 1.0
        },
        {
          "id": 7,
          "value": 1.0
        },
        {
          "id": 8,
          "value": 1.0
        },
        {
          "id": 9,
          "value": 0.0
        },
        {
          "id": 10,
          "value": 1.0
        },
        {
          "id": 11,
          "value": 0.0
        },
        {
          "id": 12,
          "value": 0.0
        },
        {
          "id": 13,
          "value": 0.0
        },
        {
          "id": 14,
          "value": 0.0
        },
        {
          "id": 15,
          "value": 1.10000002
        },
        {
          "id": 16,
          "value": 0.0
        },
        {
          "id": 17,
          "value": 0.0
        },
        {
          "id": 18,
          "value": 0.0
        },
        {
          "id": 19,
          "value": 0.0
        },
        {
          "id": 20,
          "value": 0.0
        },
        {
          "id": 21,
          "value": 0.0
        },
        {
          "id": 22,
          "value": 0.0
        },
        {
          "id": 23,
          "value": 0.0
        },
        {
          "id": 24,
          "value": 1.0
        },
        {
          "id": 25,
          "value": 1.0
        },
        {
          "id": 26,
          "value": 1.0
        },
        {
          "id": 27,
          "value": 1.0
        },
        {
          "id": 28,
          "value": 1.0
        },
        {
          "id": 29,
          "value": 1.0
        },
        {
          "id": 30,
          "value": 1.0
        },
        {
          "id": 31,
          "value": 1.0
        },
        {
          "id": 32,
          "value": 1.0
        },
        {
          "id": 33,
          "value": 0.0
        },
        {
          "id": 34,
          "value": 1.0
        },
        {
          "id": 35,
          "value": 0.0
        },
        {
          "id": 36,
          "value": 2.0
        },
        {
          "id": 37,
          "value": 0.0
        },
        {
          "id": 38,
          "value": 6.0
        },
        {
          "id": 39,
          "value": 0.0
        },
        {
          "id": 40,
          "value": 0.0
        },
        {
          "id": 41,
          "value": 0.0
        },
        {
          "id": 42,
          "value": 1.0
        },
        {
          "id": 43,
          "value": 1.0
        },
        {
          "id": 44,
          "value": 1.0
        },
        {
          "id": 45,
          "value": 1.0
        }
      ],
      "leftModuleId": 662,
      "rightModuleId": 679,
      "data": {
        "mode": 0
      },
      "pos": [
        30,
        1
      ]
    },
    {
      "id": 674,
      "plugin": "Geodesics",
      "version": "1.2.0",
      "model": "Energy",
      "params": [
        {
          "id": 0,
          "value": 0.0
        },
        {
          "id": 1,
          "value": 0.0
        },
        {
          "id": 2,
          "value": 0.0
        },
        {
          "id": 3,
          "value": 0.0
        },
        {
          "id": 4,
          "value": 0.0
        },
        {
          "id": 5,
          "value": 0.0
        },
        {
          "id": 6,
          "value": 0.0
        },
        {
          "id": 7,
          "value": 0.0
        },
        {
          "id": 8,
          "value": 0.0
        },
        {
          "id": 9,
          "value": 0.0
        }
      ],
      "leftModuleId": 677,
      "rightModuleId": 675,
      "data": {
        "panelTheme": 1,
        "oscM_phase": 2272469928,
        "oscC_phase": 2272469928,
        "osc1M_phase": 0,
        "osc1C_phase": 0,
        "osc2M_phase": 0,
        "osc2C_phase": 0,
        "osc3M_phase": 0,
        "osc3C_phase": 0,
        "osc4M_phase": 0,
        "osc4C_phase": 0,
        "osc5M_phase": 0,
        "osc5C_phase": 0,
        "osc6M_phase": 0,
        "osc6C_phase": 0,
        "osc7M_phase": 0,
        "osc7C_phase": 0,
        "osc8M_phase": 0,
        "osc8C_phase": 0,
        "osc9M_phase": 0,
        "osc9C_phase": 0,
        "osc10M_phase": 0,
        "osc10C_phase": 0,
        "osc11M_phase": 0,
        "osc11C_phase": 0,
        "osc12M_phase": 0,
        "osc12C_phase": 0,
        "osc13M_phase": 0,
        "osc13C_phase": 0,
        "osc14M_phase": 0,
        "osc14C_phase": 0,
        "osc15M_phase": 0,
        "osc15C_phase": 0,
        "routing": 1,
        "planck0": 2,
        "planck1": 0,
        "modtype0": 1,
        "modtype1": 1,
        "cross": 1
      },
      "pos": [
        24,
        2
      ]
    },
    {
      "id": 675,
      "plugin": "Bogaudio",
      "version": "1.1.37",
      "model": "Bogaudio-AD",
      "params": [
        {
          "id": 0,
          "value": 0.13500002
        },
        {
          "id": 1,
          "value": 0.190230086
        },
        {
          "id": 2,
          "value": 0.0
        },
        {
          "id": 3,
          "value": 0.0
        },
        {
          "id": 4,
          "value": 1.0
        }
      ],
      "leftModuleId": 674,
      "rightModuleId": 664,
      "data": {
        "invert": 1.0
      },
      "pos": [
        31,
        2
      ]
    },
    {
      "id": 676,
      "plugin": "Geodesics",
      "version": "1.2.0",
      "model": "Energy",
      "params": [
        {
          "id": 0,
          "value": 0.0
        },
        {
          "id": 1,
          "value": 0.0
        },
        {
          "id": 2,
          "value": 0.0
        },
        {
          "id": 3,
          "value": 0.0
        },
        {
          "id": 4,
          "value": 0.0
        },
        {
          "id": 5,
          "value": -1.13399994
        },
        {
          "id": 6,
          "value": 0.0
        },
        {
          "id": 7,
          "value": 0.0
        },
        {
          "id": 8,
          "value": 0.0
        },
        {
          "id": 9,
          "value": 0.0
        }
      ],
      "leftModuleId": 660,
      "rightModuleId": 677,
      "data": {
        "panelTheme": 1,
        "oscM_phase": 3258119752,
        "oscC_phase": 3358014632,
        "osc1M_phase": 0,
        "osc1C_phase": 0,
        "osc2M_phase": 0,
        "osc2C_phase": 0,
        "osc3M_phase": 0,
        "osc3C_phase": 0,
        "osc4M_phase": 0,
        "osc4C_phase": 0,
        "osc5M_phase": 0,
        "osc5C_phase": 0,
        "osc6M_phase": 0,
        "osc6C_phase": 0,
        "osc7M_phase": 0,
        "osc7C_phase": 0,
        "osc8M_phase": 0,
        "osc8C_phase": 0,
        "osc9M_phase": 0,
        "osc9C_phase": 0,
        "osc10M_phase": 0,
        "osc10C_phase": 0,
        "osc11M_phase": 0,
        "osc11C_phase": 0,
        "osc12M_phase": 0,
        "osc12C_phase": 0,
        "osc13M_phase": 0,
        "osc13C_phase": 0,
        "osc14M_phase": 0,
        "osc14C_phase": 0,
        "osc15M_phase": 0,
        "osc15C_phase": 0,
        "routing": 1,
        "planck0": 2,
        "planck1": 2,
        "modtype0": 1,
        "modtype1": 1,
        "cross": 1
      },
      "pos": [
        14,
        2
      ]
    },
    {
      "id": 677,
      "plugin": "Bogaudio",
      "version": "1.1.37",
      "model": "Bogaudio-AD",
      "params": [
        {
          "id": 0,
          "value": 0.180000007
        },
        {
          "id": 1,
          "value": 0.313230097
        },
        {
          "id": 2,
          "value": 0.0
        },
        {
          "id": 3,
          "value": 0.0
        },
        {
          "id": 4,
          "value": 1.0
        }
      ],
      "leftModuleId": 676,
      "rightModuleId": 674,
      "data": {
        "invert": 1.0
      },
      "pos": [
        21,
        2
      ]
    },
    {
      "id": 679,
      "plugin": "Geodesics",
      "version": "1.2.0",
      "model": "Entropia",
      "params": [
        {
          "id": 0,
          "value": 0.0
        },
        {
          "id": 1,
          "value": 0.0
        },
        {
          "id": 2,
          "value": 0.0
        },
        {
          "id": 3,
          "value": 0.0
        },
        {
          "id": 4,
          "value": 0.0
        },
        {
          "id": 5,
          "value": 0.883879364
        },
        {
          "id": 6,
          "value": 0.270929456
        },
        {
          "id": 7,
          "value": 0.782159984
        },
        {
          "id": 8,
          "value": 0.167449296
        },
        {
          "id": 9,
          "value": 0.213279128
        },
        {
          "id": 10,
          "value": 0.557730377
        },
        {
          "id": 11,
          "value": 0.714352965
        },
        {
          "id": 12,
          "value": 0.461233914
        },
        {
          "id": 13,
          "value": 0.807889402
        },
        {
          "id": 14,
          "value": 0.147688091
        },
        {
          "id": 15,
          "value": 0.324243128
        },
        {
          "id": 16,
          "value": 0.980994046
        },
        {
          "id": 17,
          "value": 0.392305374
        },
        {
          "id": 18,
          "value": 0.893361032
        },
        {
          "id": 19,
          "value": 0.805312335
        },
        {
          "id": 20,
          "value": 0.280987024
        },
        {
          "id": 21,
          "value": 0.0729563236
        },
        {
          "id": 22,
          "value": 0.457032025
        },
        {
          "id": 23,
          "value": 0.919860601
        },
        {
          "id": 24,
          "value": 0.938325763
        },
        {
          "id": 25,
          "value": 0.517179906
        },
        {
          "id": 26,
          "value": 0.650627971
        },
        {
          "id": 27,
          "value": 0.177115738
        },
        {
          "id": 28,
          "value": 0.896755338
        },
        {
          "id": 29,
          "value": 0.0
        },
        {
          "id": 30,
          "value": 0.0
        },
        {
          "id": 31,
          "value": 0.0
        },
        {
          "id": 32,
          "value": 0.0
        },
        {
          "id": 33,
          "value": 0.0
        },
        {
          "id": 34,
          "value": 0.0
        },
        {
          "id": 35,
          "value": 0.0
        },
        {
          "id": 36,
          "value": 0.0
        },
        {
          "id": 37,
          "value": 0.0
        },
        {
          "id": 38,
          "value": 0.0
        },
        {
          "id": 39,
          "value": 0.0
        },
        {
          "id": 40,
          "value": 0.0
        },
        {
          "id": 41,
          "value": -0.446758509
        },
        {
          "id": 42,
          "value": 0.0
        },
        {
          "id": 43,
          "value": 0.0
        },
        {
          "id": 44,
          "value": 0.0
        }
      ],
      "leftModuleId": 673,
      "rightModuleId": 682,
      "data": {
        "panelTheme": 1,
        "running": true,
        "resetOnRun": false,
        "length": 8,
        "quantize": 3,
        "audio": 0,
        "ranges0": 0,
        "ranges1": 0,
        "addMode": false,
        "sources0": 0,
        "sources1": 0,
        "stepIndex": 7,
        "pipeBlue": true,
        "randomCVs0": 0.474553287,
        "randomCVs1": 0.62569052,
        "clkSource": 0
      },
      "pos": [
        48,
        1
      ]
    },
    {
      "id": 682,
      "plugin": "Geodesics",
      "version": "1.2.0",
      "model": "Ions",
      "params": [
        {
          "id": 0,
          "value": 0.0
        },
        {
          "id": 1,
          "value": 0.0
        },
        {
          "id": 2,
          "value": 0.105391085
        },
        {
          "id": 3,
          "value": 0.687871337
        },
        {
          "id": 4,
          "value": 0.00428259373
        },
        {
          "id": 5,
          "value": 0.465960383
        },
        {
          "id": 6,
          "value": 0.573582828
        },
        {
          "id": 7,
          "value": 0.276797652
        },
        {
          "id": 8,
          "value": 0.481883109
        },
        {
          "id": 9,
          "value": 0.768436849
        },
        {
          "id": 10,
          "value": 0.430882573
        },
        {
          "id": 11,
          "value": 0.61494267
        },
        {
          "id": 12,
          "value": 0.719841301
        },
        {
          "id": 13,
          "value": 0.415553451
        },
        {
          "id": 14,
          "value": 0.324859917
        },
        {
          "id": 15,
          "value": 0.0462080836
        },
        {
          "id": 16,
          "value": 0.755725443
        },
        {
          "id": 17,
          "value": 0.409220397
        },
        {
          "id": 18,
          "value": 0.0
        },
        {
          "id": 19,
          "value": 0.0
        },
        {
          "id": 20,
          "value": 0.0
        },
        {
          "id": 21,
          "value": 0.0
        },
        {
          "id": 22,
          "value": 0.0
        },
        {
          "id": 23,
          "value": 0.0
        },
        {
          "id": 24,
          "value": 0.0
        },
        {
          "id": 25,
          "value": 0.0
        },
        {
          "id": 26,
          "value": 0.0
        },
        {
          "id": 27,
          "value": 0.0
        }
      ],
      "leftModuleId": 679,
      "rightModuleId": 700,
      "data": {
        "panelTheme": 1,
        "running": true,
        "resetOnRun": false,
        "quantize": 0,
        "uncertainty": false,
        "stepIndexes0": 7,
        "stepIndexes1": 13,
        "states0": 1,
        "states1": 1,
        "ranges0": 1,
        "ranges1": 1,
        "leap": false
      },
      "pos": [
        69,
        1
      ]
    },
    {
      "id": 683,
      "plugin": "Instruo",
      "version": "1.1.0",
      "model": "ochd",
      "params": [
        {
          "id": 0,
          "value": 0.263000041
        },
        {
          "id": 1,
          "value": 0.0
        }
      ],
      "leftModuleId": 665,
      "rightModuleId": 684,
      "data": {
        "deviations": {
          "lfos": [
            {
              "amplitude": 5.5,
              "frequency": {
                "maximum": 154.699997,
                "minimum": 0.147,
                "absMinimum": 0.000294000027,
                "absMaximum": 160.887985
              }
            },
            {
              "amplitude": 5.5,
              "frequency": {
                "maximum": 84.7399979,
                "minimum": 0.0816000029,
                "absMinimum": 0.00016320002,
                "absMaximum": 88.1295929
              }
            },
            {
              "amplitude": 5.5,
              "frequency": {
                "maximum": 42.2599983,
                "minimum": 0.0417000018,
                "absMinimum": 8.34000093e-5,
                "absMaximum": 43.9503975
              }
            },
            {
              "amplitude": 5.5,
              "frequency": {
                "maximum": 22.0100002,
                "minimum": 0.0221999995,
                "absMinimum": 4.43999998e-5,
                "absMaximum": 22.8903999
              }
            },
            {
              "amplitude": 5.5,
              "frequency": {
                "maximum": 10.3699999,
                "minimum": 0.0102000004,
                "absMinimum": 2.04000025e-5,
                "absMaximum": 10.7847996
              }
            },
            {
              "amplitude": 5.5,
              "frequency": {
                "maximum": 4.69999981,
                "minimum": 0.00505999988,
                "absMinimum": 1.01200003e-5,
                "absMaximum": 4.88799953
              }
            },
            {
              "amplitude": 5.5,
              "frequency": {
                "maximum": 2.11999989,
                "minimum": 0.00212999992,
                "absMinimum": 4.25999997e-6,
                "absMaximum": 2.20479989
              }
            },
            {
              "amplitude": 5.5,
              "frequency": {
                "maximum": 1.00999999,
                "minimum": 0.00100000005,
                "absMinimum": 2.00000022e-6,
                "absMaximum": 1.0503999
              }
            }
          ]
        }
      },
      "pos": [
        44,
        2
      ]
    },
    {
      "id": 684,
      "plugin": "Geodesics",
      "version": "1.2.0",
      "model": "Branes",
      "params": [
        {
          "id": 0,
          "value": 0.0
        },
        {
          "id": 1,
          "value": 0.0
        },
        {
          "id": 2,
          "value": 0.0
        },
        {
          "id": 3,
          "value": 0.0
        }
      ],
      "leftModuleId": 683,
      "rightModuleId": 696,
      "data": {
        "panelTheme": 1,
        "vibrations0": 0,
        "vibrations1": 0,
        "noiseRange0": 0.0,
        "noiseRange1": 0.0
      },
      "pos": [
        48,
        2
      ]
    },
    {
      "id": 686,
      "plugin": "Core",
      "version": "1.1.6",
      "model": "CV-Gate",
      "params": [],
      "leftModuleId": 688,
      "rightModuleId": 691,
      "data": {
        "notes": [
          32,
          49,
          53,
          51,
          44,
          45,
          46,
          47,
          40,
          41,
          42,
          43,
          36,
          37,
          38,
          39
        ],
        "velocity": false,
        "midi": {
          "driver": 4,
          "deviceName": "loopMIDI Port 1 4",
          "channel": 0
        }
      },
      "pos": [
        78,
        0
      ]
    },
    {
      "id": 687,
      "plugin": "Valley",
      "version": "1.1.7",
      "model": "uGraph",
      "params": [
        {
          "id": 0,
          "value": 0.0
        },
        {
          "id": 1,
          "value": 0.0
        },
        {
          "id": 2,
          "value": 0.0
        },
        {
          "id": 3,
          "value": 0.0419999957
        },
        {
          "id": 4,
          "value": 0.129000008
        },
        {
          "id": 5,
          "value": 0.342000037
        },
        {
          "id": 6,
          "value": 0.552999914
        },
        {
          "id": 7,
          "value": 0.654499948
        },
        {
          "id": 8,
          "value": 0.599000037
        },
        {
          "id": 9,
          "value": 0.0
        }
      ],
      "leftModuleId": 1,
      "rightModuleId": 688,
      "data": {
        "sequencerMode": 2,
        "triggerOutputMode": 0,
        "accOutputMode": 0,
        "extClockResolution": 0,
        "chaosKnobMode": 0,
        "runMode": 0,
        "panelStyle": 0,
        "running": 1
      },
      "pos": [
        62,
        0
      ]
    },
    {
      "id": 688,
      "plugin": "AudibleInstruments",
      "version": "1.5.0",
      "model": "Branches",
      "params": [
        {
          "id": 0,
          "value": 0.5
        },
        {
          "id": 1,
          "value": 0.5
        },
        {
          "id": 2,
          "value": 0.0
        },
        {
          "id": 3,
          "value": 0.0
        }
      ],
      "leftModuleId": 687,
      "rightModuleId": 686,
      "data": {
        "modes": [
          true,
          false
        ]
      },
      "pos": [
        72,
        0
      ]
    },
    {
      "id": 691,
      "plugin": "Bogaudio",
      "version": "1.1.37",
      "model": "Bogaudio-CVD",
      "params": [
        {
          "id": 0,
          "value": 0.652999997
        },
        {
          "id": 1,
          "value": 1.0
        },
        {
          "id": 2,
          "value": 1.0
        }
      ],
      "leftModuleId": 686,
      "rightModuleId": 692,
      "data": {},
      "pos": [
        88,
        0
      ]
    },
    {
      "id": 692,
      "plugin": "Bogaudio",
      "version": "1.1.37",
      "model": "Bogaudio-CVD",
      "params": [
        {
          "id": 0,
          "value": 0.597499847
        },
        {
          "id": 1,
          "value": 1.0
        },
        {
          "id": 2,
          "value": 1.0
        }
      ],
      "leftModuleId": 691,
      "rightModuleId": 360,
      "data": {},
      "pos": [
        91,
        0
      ]
    },
    {
      "id": 693,
      "plugin": "Geodesics",
      "version": "1.2.0",
      "model": "Branes",
      "params": [
        {
          "id": 0,
          "value": 0.0
        },
        {
          "id": 1,
          "value": 0.0
        },
        {
          "id": 2,
          "value": 0.0
        },
        {
          "id": 3,
          "value": 0.0
        }
      ],
      "leftModuleId": 699,
      "rightModuleId": 694,
      "data": {
        "panelTheme": 1,
        "vibrations0": 0,
        "vibrations1": 0,
        "noiseRange0": 0.0,
        "noiseRange1": 0.0
      },
      "pos": [
        68,
        2
      ]
    },
    {
      "id": 694,
      "plugin": "Instruo",
      "version": "1.1.0",
      "model": "ochd",
      "params": [
        {
          "id": 0,
          "value": 0.5
        },
        {
          "id": 1,
          "value": 0.0
        }
      ],
      "leftModuleId": 693,
      "rightModuleId": 695,
      "data": {
        "deviations": {
          "lfos": [
            {
              "amplitude": 5.40810776,
              "frequency": {
                "maximum": 156.464127,
                "minimum": 0.14478305,
                "absMinimum": 0.000293143035,
                "absMaximum": 157.803528
              }
            },
            {
              "amplitude": 5.44126654,
              "frequency": {
                "maximum": 84.1294785,
                "minimum": 0.0818358958,
                "absMinimum": 0.000160734431,
                "absMaximum": 86.5076904
              }
            },
            {
              "amplitude": 5.54694414,
              "frequency": {
                "maximum": 42.4961052,
                "minimum": 0.0414151847,
                "absMinimum": 8.43492453e-5,
                "absMaximum": 44.5513229
              }
            },
            {
              "amplitude": 5.59439754,
              "frequency": {
                "maximum": 22.036787,
                "minimum": 0.0220723674,
                "absMinimum": 4.37031777e-5,
                "absMaximum": 22.9295464
              }
            },
            {
              "amplitude": 5.55514622,
              "frequency": {
                "maximum": 10.219326,
                "minimum": 0.0102738086,
                "absMinimum": 2.02538977e-5,
                "absMaximum": 10.9358702
              }
            },
            {
              "amplitude": 5.54371834,
              "frequency": {
                "maximum": 4.70179796,
                "minimum": 0.00500734011,
                "absMinimum": 1.0251485e-5,
                "absMaximum": 4.98392534
              }
            },
            {
              "amplitude": 5.47089672,
              "frequency": {
                "maximum": 2.10632753,
                "minimum": 0.00210772431,
                "absMinimum": 4.28385965e-6,
                "absMaximum": 2.17081904
              }
            },
            {
              "amplitude": 5.41550255,
              "frequency": {
                "maximum": 0.996434629,
                "minimum": 0.00099756429,
                "absMinimum": 2.01261128e-6,
                "absMaximum": 1.03879809
              }
            }
          ]
        }
      },
      "pos": [
        79,
        2
      ]
    },
    {
      "id": 695,
      "plugin": "NYSTHI",
      "version": "1.0.17",
      "model": "ConstAddMult",
      "params": [],
      "leftModuleId": 694,
      "rightModuleId": 701,
      "data": {
        "m_param_values0": -1.5207746,
        "m_param_values1": -1.98431504,
        "m_param_values2": 0.0,
        "m_param_values3": 0.0,
        "m_mono_mode": false
      },
      "pos": [
        83,
        2
      ]
    },
    {
      "id": 696,
      "plugin": "Fundamental",
      "version": "1.4.0",
      "model": "SequentialSwitch2",
      "params": [
        {
          "id": 0,
          "value": 2.0
        }
      ],
      "leftModuleId": 684,
      "rightModuleId": 699,
      "pos": [
        59,
        2
      ]
    },
    {
      "id": 698,
      "plugin": "Bogaudio",
      "version": "1.1.37",
      "model": "Bogaudio-AD",
      "params": [
        {
          "id": 0,
          "value": 0.0
        },
        {
          "id": 1,
          "value": 0.365730017
        },
        {
          "id": 2,
          "value": 0.0
        },
        {
          "id": 3,
          "value": 0.0
        },
        {
          "id": 4,
          "value": 1.0
        }
      ],
      "leftModuleId": 700,
      "rightModuleId": 362,
      "data": {
        "invert": 1.0
      },
      "pos": [
        91,
        1
      ]
    },
    {
      "id": 699,
      "plugin": "VultModulesFree",
      "version": "1.16",
      "model": "Basal",
      "params": [
        {
          "id": 0,
          "value": 0.0
        },
        {
          "id": 1,
          "value": -0.288000017
        },
        {
          "id": 2,
          "value": 0.0
        },
        {
          "id": 3,
          "value": 0.0
        },
        {
          "id": 4,
          "value": 0.0
        },
        {
          "id": 5,
          "value": 0.0
        }
      ],
      "leftModuleId": 696,
      "rightModuleId": 693,
      "pos": [
        62,
        2
      ]
    },
    {
      "id": 700,
      "plugin": "squinkylabs-plug1",
      "version": "1.0.20",
      "model": "squinkylabs-basic",
      "params": [
        {
          "id": 0,
          "value": 1.0
        },
        {
          "id": 1,
          "value": 0.0
        },
        {
          "id": 2,
          "value": 0.0
        },
        {
          "id": 3,
          "value": 0.0
        },
        {
          "id": 4,
          "value": 50.0
        },
        {
          "id": 5,
          "value": 0.0
        },
        {
          "id": 6,
          "value": 5.0
        }
      ],
      "leftModuleId": 682,
      "rightModuleId": 698,
      "pos": [
        88,
        1
      ]
    },
    {
      "id": 701,
      "plugin": "Geodesics",
      "version": "1.2.0",
      "model": "Blank-PanelLogo",
      "params": [
        {
          "id": 0,
          "value": 1.0
        }
      ],
      "leftModuleId": 695,
      "rightModuleId": 363,
      "data": {
        "panelTheme": 1
      },
      "pos": [
        90,
        2
      ]
    },
    {
      "id": 702,
      "plugin": "VultModulesFree",
      "version": "1.16",
      "model": "BlackPanel",
      "params": [],
      "leftModuleId": 364,
      "rightModuleId": 76,
      "pos": [
        4,
        0
      ]
    }
  ],
  "cables": [
    {
      "id": 702,
      "outputModuleId": 375,
      "outputId": 0,
      "inputModuleId": 1,
      "inputId": 0,
      "color": "#c91847"
    },
    {
      "id": 703,
      "outputModuleId": 375,
      "outputId": 1,
      "inputModuleId": 1,
      "inputId": 1,
      "color": "#c91847"
    },
    {
      "id": 1480,
      "outputModuleId": 648,
      "outputId": 5,
      "inputModuleId": 661,
      "inputId": 9,
      "color": "#364449"
    },
    {
      "id": 1481,
      "outputModuleId": 648,
      "outputId": 4,
      "inputModuleId": 661,
      "inputId": 1,
      "color": "#364449"
    },
    {
      "id": 1482,
      "outputModuleId": 648,
      "outputId": 1,
      "inputModuleId": 661,
      "inputId": 0,
      "color": "#364449"
    },
    {
      "id": 1483,
      "outputModuleId": 661,
      "outputId": 0,
      "inputModuleId": 662,
      "inputId": 0,
      "color": "#364449"
    },
    {
      "id": 1486,
      "outputModuleId": 648,
      "outputId": 2,
      "inputModuleId": 662,
      "inputId": 1,
      "color": "#364449"
    },
    {
      "id": 1489,
      "outputModuleId": 665,
      "outputId": 0,
      "inputModuleId": 664,
      "inputId": 3,
      "color": "#0c8e15"
    },
    {
      "id": 1490,
      "outputModuleId": 664,
      "outputId": 0,
      "inputModuleId": 375,
      "inputId": 1,
      "color": "#c91847"
    },
    {
      "id": 1478,
      "outputModuleId": 660,
      "outputId": 0,
      "inputModuleId": 659,
      "inputId": 3,
      "color": "#0c8e15"
    },
    {
      "id": 1479,
      "outputModuleId": 659,
      "outputId": 0,
      "inputModuleId": 375,
      "inputId": 0,
      "color": "#c91847"
    },
    {
      "id": 1509,
      "outputModuleId": 673,
      "outputId": 0,
      "inputModuleId": 659,
      "inputId": 2,
      "color": "#c9b70e"
    },
    {
      "id": 1511,
      "outputModuleId": 662,
      "outputId": 0,
      "inputModuleId": 660,
      "inputId": 0,
      "color": "#364449"
    },
    {
      "id": 1512,
      "outputModuleId": 662,
      "outputId": 2,
      "inputModuleId": 665,
      "inputId": 0,
      "color": "#364449"
    },
    {
      "id": 1510,
      "outputModuleId": 673,
      "outputId": 2,
      "inputModuleId": 664,
      "inputId": 2,
      "color": "#c9b70e"
    },
    {
      "id": 1513,
      "outputModuleId": 674,
      "outputId": 0,
      "inputModuleId": 375,
      "inputId": 2,
      "color": "#c91847"
    },
    {
      "id": 1514,
      "outputModuleId": 673,
      "outputId": 3,
      "inputModuleId": 674,
      "inputId": 2,
      "color": "#c9b70e"
    },
    {
      "id": 1515,
      "outputModuleId": 662,
      "outputId": 1,
      "inputModuleId": 675,
      "inputId": 0,
      "color": "#364449"
    },
    {
      "id": 1516,
      "outputModuleId": 675,
      "outputId": 0,
      "inputModuleId": 674,
      "inputId": 3,
      "color": "#0c8e15"
    },
    {
      "id": 1517,
      "outputModuleId": 677,
      "outputId": 0,
      "inputModuleId": 676,
      "inputId": 3,
      "color": "#0c8e15"
    },
    {
      "id": 1518,
      "outputModuleId": 662,
      "outputId": 3,
      "inputModuleId": 677,
      "inputId": 0,
      "color": "#364449"
    },
    {
      "id": 1519,
      "outputModuleId": 673,
      "outputId": 1,
      "inputModuleId": 676,
      "inputId": 2,
      "color": "#c9b70e"
    },
    {
      "id": 1520,
      "outputModuleId": 676,
      "outputId": 0,
      "inputModuleId": 375,
      "inputId": 3,
      "color": "#c91847"
    },
    {
      "id": 1524,
      "outputModuleId": 679,
      "outputId": 0,
      "inputModuleId": 673,
      "inputId": 0,
      "color": "#c9b70e"
    },
    {
      "id": 1525,
      "outputModuleId": 661,
      "outputId": 2,
      "inputModuleId": 679,
      "inputId": 0,
      "color": "#364449"
    },
    {
      "id": 1529,
      "outputModuleId": 661,
      "outputId": 1,
      "inputModuleId": 682,
      "inputId": 2,
      "color": "#364449"
    },
    {
      "id": 1530,
      "outputModuleId": 661,
      "outputId": 4,
      "inputModuleId": 682,
      "inputId": 1,
      "color": "#364449"
    },
    {
      "id": 1531,
      "outputModuleId": 682,
      "outputId": 1,
      "inputModuleId": 673,
      "inputId": 3,
      "color": "#0c8e15"
    },
    {
      "id": 1532,
      "outputModuleId": 682,
      "outputId": 0,
      "inputModuleId": 673,
      "inputId": 2,
      "color": "#0c8e15"
    },
    {
      "id": 1533,
      "outputModuleId": 683,
      "outputId": 2,
      "inputModuleId": 684,
      "inputId": 2,
      "color": "#0c8e15"
    },
    {
      "id": 1534,
      "outputModuleId": 683,
      "outputId": 3,
      "inputModuleId": 684,
      "inputId": 4,
      "color": "#0c8e15"
    },
    {
      "id": 1535,
      "outputModuleId": 683,
      "outputId": 4,
      "inputModuleId": 684,
      "inputId": 3,
      "color": "#0c8e15"
    },
    {
      "id": 1536,
      "outputModuleId": 661,
      "outputId": 3,
      "inputModuleId": 684,
      "inputId": 14,
      "color": "#364449"
    },
    {
      "id": 1537,
      "outputModuleId": 684,
      "outputId": 2,
      "inputModuleId": 675,
      "inputId": 1,
      "color": "#0c8e15"
    },
    {
      "id": 1538,
      "outputModuleId": 684,
      "outputId": 3,
      "inputModuleId": 665,
      "inputId": 1,
      "color": "#0c8e15"
    },
    {
      "id": 1539,
      "outputModuleId": 684,
      "outputId": 4,
      "inputModuleId": 677,
      "inputId": 1,
      "color": "#0c8e15"
    },
    {
      "id": 1540,
      "outputModuleId": 684,
      "outputId": 1,
      "inputModuleId": 660,
      "inputId": 1,
      "color": "#0c8e15"
    },
    {
      "id": 1541,
      "outputModuleId": 683,
      "outputId": 5,
      "inputModuleId": 684,
      "inputId": 1,
      "color": "#0c8e15"
    },
    {
      "id": 1542,
      "outputModuleId": 662,
      "outputId": 2,
      "inputModuleId": 684,
      "inputId": 15,
      "color": "#364449"
    },
    {
      "id": 1543,
      "outputModuleId": 683,
      "outputId": 1,
      "inputModuleId": 684,
      "inputId": 12,
      "color": "#0c8e15"
    },
    {
      "id": 1544,
      "outputModuleId": 683,
      "outputId": 2,
      "inputModuleId": 684,
      "inputId": 11,
      "color": "#0c8e15"
    },
    {
      "id": 1545,
      "outputModuleId": 683,
      "outputId": 3,
      "inputModuleId": 684,
      "inputId": 10,
      "color": "#0c8e15"
    },
    {
      "id": 1546,
      "outputModuleId": 684,
      "outputId": 12,
      "inputModuleId": 665,
      "inputId": 2,
      "color": "#0c8e15"
    },
    {
      "id": 1547,
      "outputModuleId": 684,
      "outputId": 11,
      "inputModuleId": 675,
      "inputId": 2,
      "color": "#0c8e15"
    },
    {
      "id": 1548,
      "outputModuleId": 684,
      "outputId": 10,
      "inputModuleId": 677,
      "inputId": 2,
      "color": "#0c8e15"
    },
    {
      "id": 1549,
      "outputModuleId": 683,
      "outputId": 5,
      "inputModuleId": 684,
      "inputId": 9,
      "color": "#0c8e15"
    },
    {
      "id": 1550,
      "outputModuleId": 684,
      "outputId": 9,
      "inputModuleId": 660,
      "inputId": 2,
      "color": "#0c8e15"
    },
    {
      "id": 1557,
      "outputModuleId": 5,
      "outputId": 8,
      "inputModuleId": 648,
      "inputId": 2,
      "color": "#364449"
    },
    {
      "id": 1558,
      "outputModuleId": 648,
      "outputId": 4,
      "inputModuleId": 679,
      "inputId": 4,
      "color": "#364449"
    },
    {
      "id": 1559,
      "outputModuleId": 648,
      "outputId": 4,
      "inputModuleId": 682,
      "inputId": 4,
      "color": "#364449"
    },
    {
      "id": 1556,
      "outputModuleId": 5,
      "outputId": 11,
      "inputModuleId": 648,
      "inputId": 1,
      "color": "#364449"
    },
    {
      "id": 1562,
      "outputModuleId": 648,
      "outputId": 1,
      "inputModuleId": 687,
      "inputId": 0,
      "color": "#364449"
    },
    {
      "id": 1563,
      "outputModuleId": 687,
      "outputId": 0,
      "inputModuleId": 686,
      "inputId": 4,
      "color": "#364449"
    },
    {
      "id": 1564,
      "outputModuleId": 687,
      "outputId": 1,
      "inputModuleId": 688,
      "inputId": 0,
      "color": "#364449"
    },
    {
      "id": 1566,
      "outputModuleId": 688,
      "outputId": 2,
      "inputModuleId": 686,
      "inputId": 12,
      "color": "#364449"
    },
    {
      "id": 1567,
      "outputModuleId": 687,
      "outputId": 4,
      "inputModuleId": 688,
      "inputId": 1,
      "color": "#364449"
    },
    {
      "id": 1575,
      "outputModuleId": 688,
      "outputId": 1,
      "inputModuleId": 691,
      "inputId": 2,
      "color": "#364449"
    },
    {
      "id": 1576,
      "outputModuleId": 691,
      "outputId": 0,
      "inputModuleId": 686,
      "inputId": 3,
      "color": "#364449"
    },
    {
      "id": 1578,
      "outputModuleId": 692,
      "outputId": 0,
      "inputModuleId": 686,
      "inputId": 9,
      "color": "#364449"
    },
    {
      "id": 1577,
      "outputModuleId": 687,
      "outputId": 5,
      "inputModuleId": 692,
      "inputId": 2,
      "color": "#364449"
    },
    {
      "id": 1580,
      "outputModuleId": 648,
      "outputId": 1,
      "inputModuleId": 693,
      "inputId": 14,
      "color": "#364449"
    },
    {
      "id": 1565,
      "outputModuleId": 688,
      "outputId": 3,
      "inputModuleId": 695,
      "inputId": 0,
      "color": "#364449"
    },
    {
      "id": 1581,
      "outputModuleId": 693,
      "outputId": 4,
      "inputModuleId": 695,
      "inputId": 4,
      "color": "#0c8e15"
    },
    {
      "id": 1582,
      "outputModuleId": 695,
      "outputId": 8,
      "inputModuleId": 686,
      "inputId": 14,
      "color": "#364449"
    },
    {
      "id": 1585,
      "outputModuleId": 688,
      "outputId": 0,
      "inputModuleId": 695,
      "inputId": 1,
      "color": "#364449"
    },
    {
      "id": 1586,
      "outputModuleId": 693,
      "outputId": 5,
      "inputModuleId": 695,
      "inputId": 5,
      "color": "#0c8e15"
    },
    {
      "id": 1587,
      "outputModuleId": 695,
      "outputId": 5,
      "inputModuleId": 686,
      "inputId": 5,
      "color": "#364449"
    },
    {
      "id": 1588,
      "outputModuleId": 684,
      "outputId": 8,
      "inputModuleId": 664,
      "inputId": 5,
      "color": "#0c8e15"
    },
    {
      "id": 1589,
      "outputModuleId": 684,
      "outputId": 7,
      "inputModuleId": 674,
      "inputId": 5,
      "color": "#0c8e15"
    },
    {
      "id": 1591,
      "outputModuleId": 684,
      "outputId": 0,
      "inputModuleId": 659,
      "inputId": 5,
      "color": "#0c8e15"
    },
    {
      "id": 1590,
      "outputModuleId": 684,
      "outputId": 6,
      "inputModuleId": 676,
      "inputId": 5,
      "color": "#0c8e15"
    },
    {
      "id": 1592,
      "outputModuleId": 673,
      "outputId": 0,
      "inputModuleId": 696,
      "inputId": 2,
      "color": "#c9b70e"
    },
    {
      "id": 1594,
      "outputModuleId": 673,
      "outputId": 2,
      "inputModuleId": 696,
      "inputId": 3,
      "color": "#c9b70e"
    },
    {
      "id": 1596,
      "outputModuleId": 661,
      "outputId": 5,
      "inputModuleId": 696,
      "inputId": 0,
      "color": "#364449"
    },
    {
      "id": 1598,
      "outputModuleId": 688,
      "outputId": 2,
      "inputModuleId": 698,
      "inputId": 0,
      "color": "#364449"
    },
    {
      "id": 1600,
      "outputModuleId": 696,
      "outputId": 0,
      "inputModuleId": 699,
      "inputId": 0,
      "color": "#c9b70e"
    },
    {
      "id": 1601,
      "outputModuleId": 699,
      "outputId": 0,
      "inputModuleId": 375,
      "inputId": 4,
      "color": "#c91847"
    },
    {
      "id": 1597,
      "outputModuleId": 698,
      "outputId": 0,
      "inputModuleId": 375,
      "inputId": 12,
      "color": "#0c8e15"
    },
    {
      "id": 1602,
      "outputModuleId": 696,
      "outputId": 0,
      "inputModuleId": 700,
      "inputId": 0,
      "color": "#c9b70e"
    },
    {
      "id": 1603,
      "outputModuleId": 700,
      "outputId": 0,
      "inputModuleId": 375,
      "inputId": 5,
      "color": "#c91847"
    },
    {
      "id": 1604,
      "outputModuleId": 698,
      "outputId": 0,
      "inputModuleId": 375,
      "inputId": 13,
      "color": "#0c8e15"
    }
  ]
}