{
  "version": "1.1.6",
  "modules": [
    {
      "id": 1,
      "plugin": "Core",
      "version": "1.1.6",
      "model": "AudioInterface",
      "params": [],
      "leftModuleId": 375,
      "rightModuleId": 343,
      "data": {
        "audio": {
          "driver": 7,
          "deviceName": "ReaRoute ASIO (x64)",
          "offset": 0,
          "maxChannels": 8,
          "sampleRate": 48000,
          "blockSize": 256
        }
      },
      "pos": [
        58,
        0
      ]
    },
    {
      "id": 5,
      "plugin": "Core",
      "version": "1.1.6",
      "model": "MIDIToCVInterface",
      "params": [],
      "leftModuleId": 79,
      "rightModuleId": 94,
      "data": {
        "channels": 1,
        "polyMode": 0,
        "clockDivision": 24,
        "lastPitch": 8192,
        "lastMod": 0,
        "midi": {
          "driver": 4,
          "deviceName": "loopMIDI Port 1",
          "channel": -1
        }
      },
      "pos": [
        14,
        0
      ]
    },
    {
      "id": 76,
      "plugin": "Stoermelder-P1",
      "version": "1.10.0",
      "model": "Mb",
      "params": [],
      "leftModuleId": 380,
      "rightModuleId": 79,
      "data": {
        "mode": 1
      },
      "pos": [
        6,
        0
      ]
    },
    {
      "id": 79,
      "plugin": "Stoermelder-P1",
      "version": "1.10.0",
      "model": "Stroke",
      "params": [],
      "leftModuleId": 76,
      "rightModuleId": 5,
      "data": {
        "panelTheme": 1,
        "keys": [
          {
            "button": -1,
            "key": 49,
            "mods": 0,
            "mode": 24,
            "high": false,
            "data": "#c9b70e"
          },
          {
            "button": -1,
            "key": 50,
            "mods": 0,
            "mode": 24,
            "high": false,
            "data": "#0c8e15"
          },
          {
            "button": -1,
            "key": 51,
            "mods": 0,
            "mode": 24,
            "high": false,
            "data": "#c91847"
          },
          {
            "button": -1,
            "key": 52,
            "mods": 0,
            "mode": 24,
            "high": false,
            "data": "#364449"
          },
          {
            "button": -1,
            "key": -1,
            "mods": 0,
            "mode": 1,
            "high": false,
            "data": ""
          },
          {
            "button": -1,
            "key": -1,
            "mods": 0,
            "mode": 1,
            "high": false,
            "data": ""
          },
          {
            "button": -1,
            "key": -1,
            "mods": 0,
            "mode": 1,
            "high": false,
            "data": ""
          },
          {
            "button": -1,
            "key": -1,
            "mods": 0,
            "mode": 1,
            "high": false,
            "data": ""
          },
          {
            "button": -1,
            "key": -1,
            "mods": 0,
            "mode": 1,
            "high": false,
            "data": ""
          },
          {
            "button": -1,
            "key": -1,
            "mods": 0,
            "mode": 1,
            "high": false,
            "data": ""
          }
        ]
      },
      "pos": [
        8,
        0
      ]
    },
    {
      "id": 94,
      "plugin": "Core",
      "version": "1.1.6",
      "model": "MIDI-Map",
      "params": [],
      "leftModuleId": 5,
      "rightModuleId": 375,
      "data": {
        "maps": [
          {
            "cc": -1,
            "moduleId": -1,
            "paramId": 0
          }
        ],
        "midi": {
          "driver": 4,
          "deviceName": "loopMIDI Port 1",
          "channel": -1
        }
      },
      "pos": [
        22,
        0
      ]
    },
    {
      "id": 343,
      "plugin": "Fundamental",
      "version": "1.4.0",
      "model": "Scope",
      "params": [
        {
          "id": 0,
          "value": 0.0
        },
        {
          "id": 1,
          "value": 0.0
        },
        {
          "id": 2,
          "value": 0.0
        },
        {
          "id": 3,
          "value": 0.0
        },
        {
          "id": 4,
          "value": 6.0
        },
        {
          "id": 5,
          "value": 0.0
        },
        {
          "id": 6,
          "value": 0.0
        },
        {
          "id": 7,
          "value": 0.0
        }
      ],
      "leftModuleId": 1,
      "rightModuleId": 382,
      "data": {
        "lissajous": 0,
        "external": 0
      },
      "pos": [
        68,
        0
      ]
    },
    {
      "id": 360,
      "plugin": "LindenbergResearch",
      "version": "1.3.3",
      "model": "BlankPanel_Wood",
      "params": [],
      "gestaltID": 1,
      "gradient": false,
      "patina": false,
      "patina_i_x": false,
      "patina_i_y": false,
      "patina_a_x": 1048.69849,
      "patina_a_y": 465.392822,
      "overlay": false,
      "overlay_r": 0.794730842,
      "overlay_g": 0.259520292,
      "overlay_b": 0.907467544,
      "overlay_a": 0.175070658,
      "AGED": false,
      "screws": true,
      "logo": false,
      "pos": [
        116,
        0
      ]
    },
    {
      "id": 362,
      "plugin": "LindenbergResearch",
      "version": "1.3.3",
      "model": "BlankPanel_Wood",
      "params": [],
      "gestaltID": 1,
      "gradient": false,
      "patina": false,
      "patina_i_x": false,
      "patina_i_y": false,
      "patina_a_x": 1048.69849,
      "patina_a_y": 465.392822,
      "overlay": false,
      "overlay_r": 0.619378686,
      "overlay_g": 0.360026538,
      "overlay_b": 0.640758216,
      "overlay_a": 0.210625529,
      "AGED": false,
      "screws": true,
      "logo": false,
      "pos": [
        116,
        1
      ]
    },
    {
      "id": 364,
      "plugin": "LindenbergResearch",
      "version": "1.3.3",
      "model": "BlankPanel_Wood",
      "params": [],
      "rightModuleId": 380,
      "gestaltID": 1,
      "gradient": false,
      "patina": false,
      "patina_i_x": true,
      "patina_i_y": false,
      "patina_a_x": 732.980896,
      "patina_a_y": 232.628174,
      "overlay": false,
      "overlay_r": 0.0859004855,
      "overlay_g": 0.156647205,
      "overlay_b": 0.734342635,
      "overlay_a": 0.305394083,
      "AGED": false,
      "screws": true,
      "logo": false,
      "pos": [
        0,
        0
      ]
    },
    {
      "id": 365,
      "plugin": "LindenbergResearch",
      "version": "1.3.3",
      "model": "BlankPanel_Wood",
      "params": [],
      "rightModuleId": 379,
      "gestaltID": 1,
      "gradient": false,
      "patina": false,
      "patina_i_x": true,
      "patina_i_y": false,
      "patina_a_x": 732.980896,
      "patina_a_y": 232.628174,
      "overlay": false,
      "overlay_r": 0.750770926,
      "overlay_g": 0.158999205,
      "overlay_b": 0.60274905,
      "overlay_a": 0.157160848,
      "AGED": false,
      "screws": true,
      "logo": false,
      "pos": [
        0,
        1
      ]
    },
    {
      "id": 375,
      "plugin": "squinkylabs-plug1",
      "version": "1.0.21",
      "model": "squinkylabs-mix8",
      "params": [
        {
          "id": 0,
          "value": 0.800000012
        },
        {
          "id": 1,
          "value": 0.0
        },
        {
          "id": 2,
          "value": 0.709999979
        },
        {
          "id": 3,
          "value": 0.713000119
        },
        {
          "id": 4,
          "value": 0.800000012
        },
        {
          "id": 5,
          "value": 0.800000012
        },
        {
          "id": 6,
          "value": 0.800000012
        },
        {
          "id": 7,
          "value": 0.800000012
        },
        {
          "id": 8,
          "value": 0.800000012
        },
        {
          "id": 9,
          "value": 0.800000012
        },
        {
          "id": 10,
          "value": -1.0
        },
        {
          "id": 11,
          "value": 1.0
        },
        {
          "id": 12,
          "value": 0.0
        },
        {
          "id": 13,
          "value": 0.0
        },
        {
          "id": 14,
          "value": 0.0
        },
        {
          "id": 15,
          "value": 0.0
        },
        {
          "id": 16,
          "value": 0.0
        },
        {
          "id": 17,
          "value": 0.0
        },
        {
          "id": 18,
          "value": 0.0
        },
        {
          "id": 19,
          "value": 0.0
        },
        {
          "id": 20,
          "value": 0.0
        },
        {
          "id": 21,
          "value": 0.0
        },
        {
          "id": 22,
          "value": 0.0
        },
        {
          "id": 23,
          "value": 0.0
        },
        {
          "id": 24,
          "value": 0.0
        },
        {
          "id": 25,
          "value": 0.0
        },
        {
          "id": 26,
          "value": 0.0
        },
        {
          "id": 27,
          "value": 0.0
        },
        {
          "id": 28,
          "value": 0.0
        },
        {
          "id": 29,
          "value": 0.0
        },
        {
          "id": 30,
          "value": 0.0
        },
        {
          "id": 31,
          "value": 0.0
        },
        {
          "id": 32,
          "value": 0.0
        },
        {
          "id": 33,
          "value": 0.0
        },
        {
          "id": 34,
          "value": 0.0
        },
        {
          "id": 35,
          "value": 0.0
        },
        {
          "id": 36,
          "value": 0.0
        },
        {
          "id": 37,
          "value": 0.0
        },
        {
          "id": 38,
          "value": 0.0
        },
        {
          "id": 39,
          "value": 0.0
        },
        {
          "id": 40,
          "value": 0.0
        },
        {
          "id": 41,
          "value": 0.0
        },
        {
          "id": 42,
          "value": 0.0
        }
      ],
      "leftModuleId": 94,
      "rightModuleId": 1,
      "pos": [
        32,
        0
      ]
    },
    {
      "id": 379,
      "plugin": "ImpromptuModular",
      "version": "1.1.11",
      "model": "Clocked-Clkd",
      "params": [
        {
          "id": 0,
          "value": 2.0
        },
        {
          "id": 1,
          "value": 5.0
        },
        {
          "id": 2,
          "value": 0.0
        },
        {
          "id": 3,
          "value": 120.0
        },
        {
          "id": 4,
          "value": 0.0
        },
        {
          "id": 5,
          "value": 0.0
        },
        {
          "id": 6,
          "value": 0.0
        },
        {
          "id": 7,
          "value": 0.0
        },
        {
          "id": 8,
          "value": 0.0
        },
        {
          "id": 9,
          "value": 0.0
        }
      ],
      "leftModuleId": 365,
      "rightModuleId": 485,
      "data": {
        "panelTheme": 1,
        "running": true,
        "bpmDetectionMode": false,
        "resetOnStartStop": 0,
        "ppqn": 4,
        "resetClockOutputsHigh": true,
        "momentaryRunInput": true,
        "displayIndex": 2,
        "trigOuts": [
          false,
          false,
          false,
          false
        ],
        "clockMaster": -1
      },
      "pos": [
        4,
        1
      ]
    },
    {
      "id": 380,
      "plugin": "Stoermelder-P1",
      "version": "1.10.0",
      "model": "Me",
      "params": [],
      "leftModuleId": 364,
      "rightModuleId": 76,
      "pos": [
        4,
        0
      ]
    },
    {
      "id": 381,
      "plugin": "Core",
      "version": "1.1.6",
      "model": "CV-MIDI",
      "params": [],
      "leftModuleId": 382,
      "rightModuleId": 498,
      "data": {
        "midi": {
          "driver": 4,
          "channel": 0
        }
      },
      "pos": [
        91,
        0
      ]
    },
    {
      "id": 382,
      "plugin": "Core",
      "version": "1.1.6",
      "model": "CV-Gate",
      "params": [],
      "leftModuleId": 343,
      "rightModuleId": 381,
      "data": {
        "notes": [
          48,
          49,
          50,
          51,
          44,
          45,
          46,
          47,
          40,
          41,
          42,
          43,
          36,
          37,
          38,
          39
        ],
        "velocity": false,
        "midi": {
          "driver": 4,
          "channel": 0
        }
      },
      "pos": [
        81,
        0
      ]
    },
    {
      "id": 478,
      "plugin": "Geodesics",
      "version": "1.2.0",
      "model": "Ions",
      "params": [
        {
          "id": 0,
          "value": 0.0
        },
        {
          "id": 1,
          "value": 0.0
        },
        {
          "id": 2,
          "value": 0.665114045
        },
        {
          "id": 3,
          "value": 0.818677068
        },
        {
          "id": 4,
          "value": 0.0858418345
        },
        {
          "id": 5,
          "value": 0.00133186579
        },
        {
          "id": 6,
          "value": 0.359699488
        },
        {
          "id": 7,
          "value": 0.542167306
        },
        {
          "id": 8,
          "value": 0.358926356
        },
        {
          "id": 9,
          "value": 0.178373516
        },
        {
          "id": 10,
          "value": 0.381814837
        },
        {
          "id": 11,
          "value": 0.884996653
        },
        {
          "id": 12,
          "value": 0.860876143
        },
        {
          "id": 13,
          "value": 0.824612916
        },
        {
          "id": 14,
          "value": 0.527312458
        },
        {
          "id": 15,
          "value": 0.28754431
        },
        {
          "id": 16,
          "value": 0.325270057
        },
        {
          "id": 17,
          "value": 0.626181364
        },
        {
          "id": 18,
          "value": 0.0
        },
        {
          "id": 19,
          "value": 0.0
        },
        {
          "id": 20,
          "value": 0.0
        },
        {
          "id": 21,
          "value": 0.0
        },
        {
          "id": 22,
          "value": 0.0
        },
        {
          "id": 23,
          "value": 0.0
        },
        {
          "id": 24,
          "value": 0.0
        },
        {
          "id": 25,
          "value": 0.0
        },
        {
          "id": 26,
          "value": 0.0
        },
        {
          "id": 27,
          "value": 0.0
        }
      ],
      "leftModuleId": 485,
      "rightModuleId": 480,
      "data": {
        "panelTheme": 1,
        "running": true,
        "resetOnRun": false,
        "quantize": 3,
        "uncertainty": false,
        "stepIndexes0": 12,
        "stepIndexes1": 13,
        "states0": 0,
        "states1": 2,
        "ranges0": 0,
        "ranges1": 0,
        "leap": false
      },
      "pos": [
        26,
        1
      ]
    },
    {
      "id": 479,
      "plugin": "Geodesics",
      "version": "1.2.0",
      "model": "Energy",
      "params": [
        {
          "id": 0,
          "value": 0.0
        },
        {
          "id": 1,
          "value": 0.0
        },
        {
          "id": 2,
          "value": 0.0
        },
        {
          "id": 3,
          "value": 0.0
        },
        {
          "id": 4,
          "value": 0.0
        },
        {
          "id": 5,
          "value": 0.0
        },
        {
          "id": 6,
          "value": 0.0
        },
        {
          "id": 7,
          "value": 0.0
        },
        {
          "id": 8,
          "value": 0.0
        },
        {
          "id": 9,
          "value": 0.0
        }
      ],
      "leftModuleId": 486,
      "rightModuleId": 490,
      "data": {
        "panelTheme": 1,
        "oscM_phase": 2582734912,
        "oscC_phase": 2582734912,
        "osc1M_phase": 3851521536,
        "osc1C_phase": 3851521536,
        "osc2M_phase": 687074112,
        "osc2C_phase": 687074112,
        "osc3M_phase": 597794112,
        "osc3C_phase": 597794112,
        "osc4M_phase": 0,
        "osc4C_phase": 0,
        "osc5M_phase": 0,
        "osc5C_phase": 0,
        "osc6M_phase": 0,
        "osc6C_phase": 0,
        "osc7M_phase": 0,
        "osc7C_phase": 0,
        "osc8M_phase": 0,
        "osc8C_phase": 0,
        "osc9M_phase": 0,
        "osc9C_phase": 0,
        "osc10M_phase": 0,
        "osc10C_phase": 0,
        "osc11M_phase": 0,
        "osc11C_phase": 0,
        "osc12M_phase": 0,
        "osc12C_phase": 0,
        "osc13M_phase": 0,
        "osc13C_phase": 0,
        "osc14M_phase": 0,
        "osc14C_phase": 0,
        "osc15M_phase": 0,
        "osc15C_phase": 0,
        "routing": 1,
        "planck0": 0,
        "planck1": 0,
        "modtype0": 1,
        "modtype1": 1,
        "cross": 0
      },
      "pos": [
        79,
        1
      ]
    },
    {
      "id": 480,
      "plugin": "Geodesics",
      "version": "1.2.0",
      "model": "Fate",
      "params": [
        {
          "id": 0,
          "value": 0.329999954
        },
        {
          "id": 1,
          "value": -0.246999919
        }
      ],
      "leftModuleId": 478,
      "rightModuleId": 496,
      "data": {
        "panelTheme": 1,
        "holdTrigOut": 0
      },
      "pos": [
        45,
        1
      ]
    },
    {
      "id": 485,
      "plugin": "Grayscale",
      "version": "1.0.2",
      "model": "Algorhythm",
      "params": [
        {
          "id": 0,
          "value": 0.0
        },
        {
          "id": 1,
          "value": 0.0
        },
        {
          "id": 2,
          "value": 0.0
        },
        {
          "id": 3,
          "value": 0.0
        },
        {
          "id": 4,
          "value": 0.0
        },
        {
          "id": 5,
          "value": 0.0
        },
        {
          "id": 6,
          "value": 0.0
        },
        {
          "id": 7,
          "value": 0.0
        },
        {
          "id": 8,
          "value": 0.0
        },
        {
          "id": 9,
          "value": 0.0
        },
        {
          "id": 10,
          "value": 0.0
        },
        {
          "id": 11,
          "value": 0.0
        }
      ],
      "leftModuleId": 379,
      "rightModuleId": 478,
      "data": {
        "pattern": [
          1,
          1,
          1,
          1,
          1,
          1,
          1,
          1
        ],
        "gates": [
          1,
          1,
          1,
          1,
          1,
          1,
          1,
          1
        ],
        "looping": false,
        "seq": true,
        "gate": true,
        "clockPassthrough": true,
        "patternLength": 7,
        "numLoops": 1,
        "immediateReset": 1,
        "startupState": 1,
        "started": false,
        "running": false,
        "stepOutsAlwaysActive": false
      },
      "pos": [
        14,
        1
      ]
    },
    {
      "id": 486,
      "plugin": "Stalys",
      "version": "1.4.2",
      "model": "ASR",
      "params": [],
      "leftModuleId": 487,
      "rightModuleId": 479,
      "data": {
        "skin": "dark"
      },
      "pos": [
        73,
        1
      ]
    },
    {
      "id": 487,
      "plugin": "GrandeModular",
      "version": "1.9.0",
      "model": "MergeSplit4",
      "params": [],
      "leftModuleId": 497,
      "rightModuleId": 486,
      "data": {
        "channels_merge": -1
      },
      "pos": [
        71,
        1
      ]
    },
    {
      "id": 489,
      "plugin": "VultModulesFree",
      "version": "1.16",
      "model": "Unstabile",
      "params": [
        {
          "id": 0,
          "value": 0.669500291
        },
        {
          "id": 1,
          "value": 0.693000019
        },
        {
          "id": 2,
          "value": 0.0
        },
        {
          "id": 3,
          "value": 0.0
        },
        {
          "id": 4,
          "value": 0.5
        },
        {
          "id": 5,
          "value": 0.0
        },
        {
          "id": 6,
          "value": 0.332999974
        },
        {
          "id": 7,
          "value": 0.0
        }
      ],
      "leftModuleId": 490,
      "rightModuleId": 495,
      "pos": [
        89,
        1
      ]
    },
    {
      "id": 490,
      "plugin": "Bogaudio",
      "version": "1.1.37",
      "model": "Bogaudio-AD",
      "params": [
        {
          "id": 0,
          "value": 0.0240000002
        },
        {
          "id": 1,
          "value": 0.086729981
        },
        {
          "id": 2,
          "value": 0.0
        },
        {
          "id": 3,
          "value": 0.0
        },
        {
          "id": 4,
          "value": 0.0
        }
      ],
      "leftModuleId": 479,
      "rightModuleId": 489,
      "data": {
        "invert": 1.0
      },
      "pos": [
        86,
        1
      ]
    },
    {
      "id": 495,
      "plugin": "NYSTHI",
      "version": "1.0.17",
      "model": "mix4",
      "params": [
        {
          "id": 0,
          "value": 0.0
        },
        {
          "id": 1,
          "value": 0.0
        },
        {
          "id": 2,
          "value": 0.0
        },
        {
          "id": 3,
          "value": 0.0
        },
        {
          "id": 4,
          "value": 0.0
        },
        {
          "id": 5,
          "value": 0.0
        },
        {
          "id": 6,
          "value": 0.0
        },
        {
          "id": 7,
          "value": 0.0
        },
        {
          "id": 8,
          "value": 0.0
        },
        {
          "id": 9,
          "value": 0.0
        },
        {
          "id": 10,
          "value": 0.0
        },
        {
          "id": 11,
          "value": 0.0
        },
        {
          "id": 12,
          "value": 0.0
        },
        {
          "id": 13,
          "value": 0.0
        },
        {
          "id": 14,
          "value": 0.0
        },
        {
          "id": 15,
          "value": 0.0
        },
        {
          "id": 16,
          "value": 0.0
        },
        {
          "id": 17,
          "value": 0.0
        },
        {
          "id": 18,
          "value": 0.0
        },
        {
          "id": 19,
          "value": 0.0
        },
        {
          "id": 20,
          "value": 0.0
        },
        {
          "id": 21,
          "value": 0.0
        },
        {
          "id": 22,
          "value": 0.0
        },
        {
          "id": 23,
          "value": 0.0
        }
      ],
      "leftModuleId": 489,
      "data": {
        "m_channels": [
          1.0,
          0.0,
          false,
          false,
          1.0,
          0.298203111,
          false,
          false,
          1.0,
          0.668203115,
          false,
          false,
          1.0,
          1.0,
          false,
          false
        ],
        "m_master_volume": 1.0,
        "m_master_mute_trig": false,
        "m_low_power": false,
        "m_cvcompatible": false,
        "m_show_post_out": false,
        "m_post_outputs_unaffected_by_solo_mode": false,
        "m_attenuation": 1.0,
        "m_limiting_mode": 0,
        "m_poly_out": 4
      },
      "pos": [
        99,
        1
      ]
    },
    {
      "id": 496,
      "plugin": "Instruo",
      "version": "1.1.0",
      "model": "harmonaig",
      "params": [
        {
          "id": 0,
          "value": 1.0
        },
        {
          "id": 1,
          "value": 0.0
        },
        {
          "id": 2,
          "value": 1.0
        },
        {
          "id": 3,
          "value": 1.0
        },
        {
          "id": 4,
          "value": 0.0
        },
        {
          "id": 5,
          "value": 1.0
        },
        {
          "id": 6,
          "value": 0.0
        },
        {
          "id": 7,
          "value": 1.0
        },
        {
          "id": 8,
          "value": 0.0
        },
        {
          "id": 9,
          "value": 1.0
        },
        {
          "id": 10,
          "value": 1.0
        },
        {
          "id": 11,
          "value": 0.0
        },
        {
          "id": 12,
          "value": 0.0
        },
        {
          "id": 13,
          "value": 0.0
        },
        {
          "id": 14,
          "value": 3.4119997
        },
        {
          "id": 15,
          "value": 1.10000002
        },
        {
          "id": 16,
          "value": 0.131999984
        },
        {
          "id": 17,
          "value": 0.104999997
        },
        {
          "id": 18,
          "value": 0.0390000008
        },
        {
          "id": 19,
          "value": 0.26849997
        },
        {
          "id": 20,
          "value": 0.0
        },
        {
          "id": 21,
          "value": 0.0
        },
        {
          "id": 22,
          "value": 0.0
        },
        {
          "id": 23,
          "value": 0.0
        },
        {
          "id": 24,
          "value": 1.0
        },
        {
          "id": 25,
          "value": 0.0
        },
        {
          "id": 26,
          "value": 1.0
        },
        {
          "id": 27,
          "value": 1.0
        },
        {
          "id": 28,
          "value": 0.0
        },
        {
          "id": 29,
          "value": 1.0
        },
        {
          "id": 30,
          "value": 0.0
        },
        {
          "id": 31,
          "value": 1.0
        },
        {
          "id": 32,
          "value": 0.0
        },
        {
          "id": 33,
          "value": 1.0
        },
        {
          "id": 34,
          "value": 1.0
        },
        {
          "id": 35,
          "value": 0.0
        },
        {
          "id": 36,
          "value": 1.0
        },
        {
          "id": 37,
          "value": 0.0
        },
        {
          "id": 38,
          "value": 3.0
        },
        {
          "id": 39,
          "value": 0.0
        },
        {
          "id": 40,
          "value": 0.0
        },
        {
          "id": 41,
          "value": 0.0
        },
        {
          "id": 42,
          "value": 1.0
        },
        {
          "id": 43,
          "value": 1.0
        },
        {
          "id": 44,
          "value": 1.0
        },
        {
          "id": 45,
          "value": 1.0
        }
      ],
      "leftModuleId": 480,
      "rightModuleId": 497,
      "data": {
        "mode": 0
      },
      "pos": [
        50,
        1
      ]
    },
    {
      "id": 497,
      "plugin": "Bogaudio",
      "version": "1.1.37",
      "model": "Bogaudio-AD",
      "params": [
        {
          "id": 0,
          "value": 0.610500097
        },
        {
          "id": 1,
          "value": 0.194729954
        },
        {
          "id": 2,
          "value": 0.0
        },
        {
          "id": 3,
          "value": 0.0
        },
        {
          "id": 4,
          "value": 0.0
        }
      ],
      "leftModuleId": 496,
      "rightModuleId": 487,
      "data": {
        "invert": 1.0
      },
      "pos": [
        68,
        1
      ]
    },
    {
      "id": 498,
      "plugin": "Befaco",
      "version": "1.1.0",
      "model": "DualAtenuverter",
      "params": [
        {
          "id": 0,
          "value": 0.396000028
        },
        {
          "id": 1,
          "value": 0.0
        },
        {
          "id": 2,
          "value": -0.558000028
        },
        {
          "id": 3,
          "value": 0.0
        }
      ],
      "leftModuleId": 381,
      "pos": [
        99,
        0
      ]
    },
    {
      "id": 499,
      "plugin": "Bogaudio",
      "version": "1.1.37",
      "model": "Bogaudio-AD",
      "params": [
        {
          "id": 0,
          "value": 0.127499998
        },
        {
          "id": 1,
          "value": 0.11072997
        },
        {
          "id": 2,
          "value": 0.0
        },
        {
          "id": 3,
          "value": 0.0
        },
        {
          "id": 4,
          "value": 1.0
        }
      ],
      "leftModuleId": 500,
      "rightModuleId": 516,
      "data": {
        "invert": 1.0
      },
      "pos": [
        74,
        2
      ]
    },
    {
      "id": 501,
      "plugin": "Valley",
      "version": "1.1.7",
      "model": "uGraph",
      "params": [
        {
          "id": 0,
          "value": 0.0
        },
        {
          "id": 1,
          "value": 0.0
        },
        {
          "id": 2,
          "value": 0.0
        },
        {
          "id": 3,
          "value": 0.433500022
        },
        {
          "id": 4,
          "value": 0.219000012
        },
        {
          "id": 5,
          "value": 0.451499999
        },
        {
          "id": 6,
          "value": 0.5
        },
        {
          "id": 7,
          "value": 0.5
        },
        {
          "id": 8,
          "value": 0.5
        },
        {
          "id": 9,
          "value": 0.0
        }
      ],
      "rightModuleId": 502,
      "data": {
        "sequencerMode": 2,
        "triggerOutputMode": 0,
        "accOutputMode": 0,
        "extClockResolution": 0,
        "chaosKnobMode": 0,
        "runMode": 0,
        "panelStyle": 0,
        "running": 1
      },
      "pos": [
        4,
        2
      ]
    },
    {
      "id": 502,
      "plugin": "Admiral",
      "version": "1.1.0",
      "model": "Tables",
      "params": [
        {
          "id": 0,
          "value": 0.0
        },
        {
          "id": 1,
          "value": 0.0
        },
        {
          "id": 2,
          "value": 0.0
        },
        {
          "id": 3,
          "value": 0.0
        },
        {
          "id": 4,
          "value": 0.0
        },
        {
          "id": 5,
          "value": 0.0
        },
        {
          "id": 6,
          "value": 0.0
        },
        {
          "id": 7,
          "value": 0.0
        },
        {
          "id": 8,
          "value": 0.0
        },
        {
          "id": 9,
          "value": 0.0
        },
        {
          "id": 10,
          "value": 0.0
        },
        {
          "id": 11,
          "value": 0.0
        },
        {
          "id": 12,
          "value": 0.0
        },
        {
          "id": 13,
          "value": 0.0
        },
        {
          "id": 14,
          "value": 0.0
        },
        {
          "id": 15,
          "value": 0.0
        },
        {
          "id": 16,
          "value": 1.0
        },
        {
          "id": 17,
          "value": 1.0
        }
      ],
      "leftModuleId": 501,
      "rightModuleId": 509,
      "data": {
        "sel": 0,
        "channels": [
          {
            "order": 0,
            "beat": 1,
            "beats": [
              1,
              -1,
              -1,
              0
            ],
            "step": 0,
            "steps": [
              {
                "mode": 1,
                "pattern": 3
              },
              {
                "mode": 1,
                "pattern": 2
              },
              {
                "mode": 0,
                "pattern": 0
              },
              {
                "mode": 0,
                "pattern": 0
              },
              {
                "mode": 0,
                "pattern": 0
              },
              {
                "mode": 0,
                "pattern": 0
              },
              {
                "mode": 0,
                "pattern": 0
              },
              {
                "mode": 0,
                "pattern": 0
              }
            ]
          },
          {
            "order": 0,
            "beat": -1,
            "beats": [
              0,
              0,
              0,
              0
            ],
            "step": 0,
            "steps": [
              {
                "mode": 0,
                "pattern": 0
              },
              {
                "mode": 0,
                "pattern": 0
              },
              {
                "mode": 0,
                "pattern": 0
              },
              {
                "mode": 0,
                "pattern": 0
              },
              {
                "mode": 0,
                "pattern": 0
              },
              {
                "mode": 0,
                "pattern": 0
              },
              {
                "mode": 0,
                "pattern": 0
              },
              {
                "mode": 0,
                "pattern": 0
              }
            ]
          },
          {
            "order": 0,
            "beat": -1,
            "beats": [
              0,
              0,
              0,
              0
            ],
            "step": 0,
            "steps": [
              {
                "mode": 0,
                "pattern": 0
              },
              {
                "mode": 0,
                "pattern": 0
              },
              {
                "mode": 0,
                "pattern": 0
              },
              {
                "mode": 0,
                "pattern": 0
              },
              {
                "mode": 0,
                "pattern": 0
              },
              {
                "mode": 0,
                "pattern": 0
              },
              {
                "mode": 0,
                "pattern": 0
              },
              {
                "mode": 0,
                "pattern": 0
              }
            ]
          },
          {
            "order": 0,
            "beat": -1,
            "beats": [
              0,
              0,
              0,
              0
            ],
            "step": 0,
            "steps": [
              {
                "mode": 0,
                "pattern": 0
              },
              {
                "mode": 0,
                "pattern": 0
              },
              {
                "mode": 0,
                "pattern": 0
              },
              {
                "mode": 0,
                "pattern": 0
              },
              {
                "mode": 0,
                "pattern": 0
              },
              {
                "mode": 0,
                "pattern": 0
              },
              {
                "mode": 0,
                "pattern": 0
              },
              {
                "mode": 0,
                "pattern": 0
              }
            ]
          }
        ]
      },
      "pos": [
        14,
        2
      ]
    },
    {
      "id": 506,
      "plugin": "Instruo",
      "version": "1.1.0",
      "model": "ochd",
      "params": [
        {
          "id": 0,
          "value": 0.5
        },
        {
          "id": 1,
          "value": 0.0
        }
      ],
      "leftModuleId": 510,
      "rightModuleId": 515,
      "data": {
        "deviations": {
          "lfos": [
            {
              "amplitude": 5.5,
              "frequency": {
                "maximum": 154.699997,
                "minimum": 0.147,
                "absMinimum": 0.000294000027,
                "absMaximum": 160.887985
              }
            },
            {
              "amplitude": 5.5,
              "frequency": {
                "maximum": 84.7399979,
                "minimum": 0.0816000029,
                "absMinimum": 0.00016320002,
                "absMaximum": 88.1295929
              }
            },
            {
              "amplitude": 5.5,
              "frequency": {
                "maximum": 42.2599983,
                "minimum": 0.0417000018,
                "absMinimum": 8.34000093e-5,
                "absMaximum": 43.9503975
              }
            },
            {
              "amplitude": 5.5,
              "frequency": {
                "maximum": 22.0100002,
                "minimum": 0.0221999995,
                "absMinimum": 4.43999998e-5,
                "absMaximum": 22.8903999
              }
            },
            {
              "amplitude": 5.5,
              "frequency": {
                "maximum": 10.3699999,
                "minimum": 0.0102000004,
                "absMinimum": 2.04000025e-5,
                "absMaximum": 10.7847996
              }
            },
            {
              "amplitude": 5.5,
              "frequency": {
                "maximum": 4.69999981,
                "minimum": 0.00505999988,
                "absMinimum": 1.01200003e-5,
                "absMaximum": 4.88799953
              }
            },
            {
              "amplitude": 5.5,
              "frequency": {
                "maximum": 2.11999989,
                "minimum": 0.00212999992,
                "absMinimum": 4.25999997e-6,
                "absMaximum": 2.20479989
              }
            },
            {
              "amplitude": 5.5,
              "frequency": {
                "maximum": 1.00999999,
                "minimum": 0.00100000005,
                "absMinimum": 2.00000022e-6,
                "absMaximum": 1.0503999
              }
            }
          ]
        }
      },
      "pos": [
        48,
        2
      ]
    },
    {
      "id": 509,
      "plugin": "Grayscale",
      "version": "1.0.2",
      "model": "Algorhythm",
      "params": [
        {
          "id": 0,
          "value": 0.0
        },
        {
          "id": 1,
          "value": 0.0
        },
        {
          "id": 2,
          "value": 0.0
        },
        {
          "id": 3,
          "value": 0.0
        },
        {
          "id": 4,
          "value": 0.0
        },
        {
          "id": 5,
          "value": 0.0
        },
        {
          "id": 6,
          "value": 0.0
        },
        {
          "id": 7,
          "value": 0.0
        },
        {
          "id": 8,
          "value": 0.0
        },
        {
          "id": 9,
          "value": 0.0
        },
        {
          "id": 10,
          "value": 0.0
        },
        {
          "id": 11,
          "value": 0.0
        }
      ],
      "leftModuleId": 502,
      "rightModuleId": 510,
      "data": {
        "pattern": [
          1,
          1,
          1,
          1,
          1,
          1,
          1,
          1
        ],
        "gates": [
          1,
          1,
          1,
          1,
          1,
          1,
          1,
          1
        ],
        "looping": false,
        "seq": true,
        "gate": true,
        "clockPassthrough": true,
        "patternLength": 5,
        "numLoops": 1,
        "immediateReset": 1,
        "startupState": 1,
        "started": false,
        "running": false,
        "stepOutsAlwaysActive": false
      },
      "pos": [
        24,
        2
      ]
    },
    {
      "id": 510,
      "plugin": "AlrightDevices",
      "version": "1.0.3",
      "model": "Chronoblob2",
      "params": [
        {
          "id": 0,
          "value": 0.486500353
        },
        {
          "id": 1,
          "value": 0.349999934
        },
        {
          "id": 2,
          "value": 0.470000058
        },
        {
          "id": 3,
          "value": 0.0
        },
        {
          "id": 4,
          "value": 0.0
        },
        {
          "id": 5,
          "value": 0.0
        },
        {
          "id": 6,
          "value": 0.0
        },
        {
          "id": 7,
          "value": 0.0
        },
        {
          "id": 8,
          "value": 0.0
        },
        {
          "id": 9,
          "value": 0.0
        }
      ],
      "leftModuleId": 509,
      "rightModuleId": 506,
      "data": {
        "delay_mode": 0,
        "hold_behavior": 0,
        "sync_prescaler": 6
      },
      "pos": [
        36,
        2
      ]
    },
    {
      "id": 500,
      "plugin": "Geodesics",
      "version": "1.2.0",
      "model": "Energy",
      "params": [
        {
          "id": 0,
          "value": 0.0
        },
        {
          "id": 1,
          "value": 0.0
        },
        {
          "id": 2,
          "value": 0.0
        },
        {
          "id": 3,
          "value": 0.0
        },
        {
          "id": 4,
          "value": 0.0
        },
        {
          "id": 5,
          "value": -1.99799955
        },
        {
          "id": 6,
          "value": -2.1239996
        },
        {
          "id": 7,
          "value": 0.0
        },
        {
          "id": 8,
          "value": 0.0
        },
        {
          "id": 9,
          "value": 0.0
        }
      ],
      "leftModuleId": 514,
      "rightModuleId": 499,
      "data": {
        "panelTheme": 1,
        "oscM_phase": 1036832296,
        "oscC_phase": 1670071912,
        "osc1M_phase": 685240072,
        "osc1C_phase": 796596944,
        "osc2M_phase": 2466717760,
        "osc2C_phase": 2466717760,
        "osc3M_phase": 85134272,
        "osc3C_phase": 85134272,
        "osc4M_phase": 0,
        "osc4C_phase": 0,
        "osc5M_phase": 0,
        "osc5C_phase": 0,
        "osc6M_phase": 0,
        "osc6C_phase": 0,
        "osc7M_phase": 0,
        "osc7C_phase": 0,
        "osc8M_phase": 0,
        "osc8C_phase": 0,
        "osc9M_phase": 0,
        "osc9C_phase": 0,
        "osc10M_phase": 0,
        "osc10C_phase": 0,
        "osc11M_phase": 0,
        "osc11C_phase": 0,
        "osc12M_phase": 0,
        "osc12C_phase": 0,
        "osc13M_phase": 0,
        "osc13C_phase": 0,
        "osc14M_phase": 0,
        "osc14C_phase": 0,
        "osc15M_phase": 0,
        "osc15C_phase": 0,
        "routing": 1,
        "planck0": 2,
        "planck1": 2,
        "modtype0": 1,
        "modtype1": 1,
        "cross": 1
      },
      "pos": [
        67,
        2
      ]
    },
    {
      "id": 514,
      "plugin": "Fundamental",
      "version": "1.4.0",
      "model": "SequentialSwitch2",
      "params": [
        {
          "id": 0,
          "value": 2.0
        }
      ],
      "leftModuleId": 515,
      "rightModuleId": 500,
      "pos": [
        64,
        2
      ]
    },
    {
      "id": 515,
      "plugin": "Grayscale",
      "version": "1.0.2",
      "model": "Algorhythm",
      "params": [
        {
          "id": 0,
          "value": 0.0
        },
        {
          "id": 1,
          "value": 0.0
        },
        {
          "id": 2,
          "value": 0.0
        },
        {
          "id": 3,
          "value": 0.0
        },
        {
          "id": 4,
          "value": 0.0
        },
        {
          "id": 5,
          "value": 0.0
        },
        {
          "id": 6,
          "value": 0.0
        },
        {
          "id": 7,
          "value": 0.0
        },
        {
          "id": 8,
          "value": 0.0
        },
        {
          "id": 9,
          "value": 0.0
        },
        {
          "id": 10,
          "value": 0.0
        },
        {
          "id": 11,
          "value": 0.0
        }
      ],
      "leftModuleId": 506,
      "rightModuleId": 514,
      "data": {
        "pattern": [
          1,
          0,
          1,
          1,
          0,
          1,
          1,
          1
        ],
        "gates": [
          1,
          1,
          1,
          1,
          1,
          1,
          1,
          1
        ],
        "looping": false,
        "seq": true,
        "gate": true,
        "clockPassthrough": true,
        "patternLength": 3,
        "numLoops": 1,
        "immediateReset": 1,
        "startupState": 1,
        "started": false,
        "running": false,
        "stepOutsAlwaysActive": false
      },
      "pos": [
        52,
        2
      ]
    },
    {
      "id": 516,
      "plugin": "Geodesics",
      "version": "1.2.0",
      "model": "Energy",
      "params": [
        {
          "id": 0,
          "value": 0.0
        },
        {
          "id": 1,
          "value": 0.0
        },
        {
          "id": 2,
          "value": 0.0
        },
        {
          "id": 3,
          "value": 0.0
        },
        {
          "id": 4,
          "value": 0.0
        },
        {
          "id": 5,
          "value": 0.0
        },
        {
          "id": 6,
          "value": 0.0
        },
        {
          "id": 7,
          "value": 0.250499994
        },
        {
          "id": 8,
          "value": 0.306000024
        },
        {
          "id": 9,
          "value": 0.0
        }
      ],
      "leftModuleId": 499,
      "rightModuleId": 517,
      "data": {
        "panelTheme": 1,
        "oscM_phase": 1540135976,
        "oscC_phase": 3795938760,
        "osc1M_phase": 685240072,
        "osc1C_phase": 796596944,
        "osc2M_phase": 2466717760,
        "osc2C_phase": 2466717760,
        "osc3M_phase": 85134272,
        "osc3C_phase": 85134272,
        "osc4M_phase": 0,
        "osc4C_phase": 0,
        "osc5M_phase": 0,
        "osc5C_phase": 0,
        "osc6M_phase": 0,
        "osc6C_phase": 0,
        "osc7M_phase": 0,
        "osc7C_phase": 0,
        "osc8M_phase": 0,
        "osc8C_phase": 0,
        "osc9M_phase": 0,
        "osc9C_phase": 0,
        "osc10M_phase": 0,
        "osc10C_phase": 0,
        "osc11M_phase": 0,
        "osc11C_phase": 0,
        "osc12M_phase": 0,
        "osc12C_phase": 0,
        "osc13M_phase": 0,
        "osc13C_phase": 0,
        "osc14M_phase": 0,
        "osc14C_phase": 0,
        "osc15M_phase": 0,
        "osc15C_phase": 0,
        "routing": 1,
        "planck0": 2,
        "planck1": 2,
        "modtype0": 1,
        "modtype1": 1,
        "cross": 1
      },
      "pos": [
        77,
        2
      ]
    },
    {
      "id": 517,
      "plugin": "Bogaudio",
      "version": "1.1.37",
      "model": "Bogaudio-AD",
      "params": [
        {
          "id": 0,
          "value": 0.333000004
        },
        {
          "id": 1,
          "value": 0.0717299581
        },
        {
          "id": 2,
          "value": 0.0
        },
        {
          "id": 3,
          "value": 0.0
        },
        {
          "id": 4,
          "value": 1.0
        }
      ],
      "leftModuleId": 516,
      "rightModuleId": 518,
      "data": {
        "invert": 1.0
      },
      "pos": [
        84,
        2
      ]
    },
    {
      "id": 518,
      "plugin": "Fundamental",
      "version": "1.4.0",
      "model": "Quantizer",
      "params": [],
      "leftModuleId": 517,
      "rightModuleId": 520,
      "data": {
        "enabledNotes": [
          true,
          false,
          true,
          true,
          false,
          true,
          false,
          true,
          false,
          true,
          true,
          false
        ]
      },
      "pos": [
        87,
        2
      ]
    },
    {
      "id": 520,
      "plugin": "Bogaudio",
      "version": "1.1.37",
      "model": "Bogaudio-RGate",
      "params": [
        {
          "id": 0,
          "value": 0.5
        },
        {
          "id": 1,
          "value": 0.204000026
        },
        {
          "id": 2,
          "value": 0.0
        }
      ],
      "leftModuleId": 518,
      "rightModuleId": 521,
      "data": {
        "range_offset": 1.0,
        "range_scale": 5.0,
        "reset_mode": 0,
        "initial_clock_seconds": 0.5,
        "poly_input": 4
      },
      "pos": [
        90,
        2
      ]
    },
    {
      "id": 521,
      "plugin": "Geodesics",
      "version": "1.2.0",
      "model": "Fate",
      "params": [
        {
          "id": 0,
          "value": 0.329999954
        },
        {
          "id": 1,
          "value": -0.406000018
        }
      ],
      "leftModuleId": 520,
      "data": {
        "panelTheme": 1,
        "holdTrigOut": 0
      },
      "pos": [
        95,
        2
      ]
    }
  ],
  "cables": [
    {
      "id": 702,
      "outputModuleId": 375,
      "outputId": 0,
      "inputModuleId": 1,
      "inputId": 0,
      "color": "#c91847"
    },
    {
      "id": 703,
      "outputModuleId": 375,
      "outputId": 1,
      "inputModuleId": 1,
      "inputId": 1,
      "color": "#c91847"
    },
    {
      "id": 1083,
      "outputModuleId": 379,
      "outputId": 4,
      "inputModuleId": 485,
      "inputId": 1,
      "color": "#364449"
    },
    {
      "id": 1084,
      "outputModuleId": 379,
      "outputId": 4,
      "inputModuleId": 478,
      "inputId": 4,
      "color": "#364449"
    },
    {
      "id": 1085,
      "outputModuleId": 478,
      "outputId": 0,
      "inputModuleId": 480,
      "inputId": 2,
      "color": "#c9b70e"
    },
    {
      "id": 1088,
      "outputModuleId": 486,
      "outputId": 0,
      "inputModuleId": 487,
      "inputId": 0,
      "color": "#c9b70e"
    },
    {
      "id": 1089,
      "outputModuleId": 486,
      "outputId": 1,
      "inputModuleId": 487,
      "inputId": 1,
      "color": "#c9b70e"
    },
    {
      "id": 1090,
      "outputModuleId": 486,
      "outputId": 2,
      "inputModuleId": 487,
      "inputId": 2,
      "color": "#c9b70e"
    },
    {
      "id": 1091,
      "outputModuleId": 486,
      "outputId": 3,
      "inputModuleId": 487,
      "inputId": 3,
      "color": "#c9b70e"
    },
    {
      "id": 1092,
      "outputModuleId": 487,
      "outputId": 0,
      "inputModuleId": 479,
      "inputId": 2,
      "color": "#c9b70e"
    },
    {
      "id": 1093,
      "outputModuleId": 479,
      "outputId": 0,
      "inputModuleId": 489,
      "inputId": 0,
      "color": "#c91847"
    },
    {
      "id": 1096,
      "outputModuleId": 490,
      "outputId": 0,
      "inputModuleId": 479,
      "inputId": 3,
      "color": "#0c8e15"
    },
    {
      "id": 1097,
      "outputModuleId": 489,
      "outputId": 0,
      "inputModuleId": 487,
      "inputId": 4,
      "color": "#c91847"
    },
    {
      "id": 1105,
      "outputModuleId": 487,
      "outputId": 1,
      "inputModuleId": 495,
      "inputId": 0,
      "color": "#c91847"
    },
    {
      "id": 1106,
      "outputModuleId": 487,
      "outputId": 2,
      "inputModuleId": 495,
      "inputId": 1,
      "color": "#c91847"
    },
    {
      "id": 1107,
      "outputModuleId": 487,
      "outputId": 3,
      "inputModuleId": 495,
      "inputId": 2,
      "color": "#c91847"
    },
    {
      "id": 1108,
      "outputModuleId": 487,
      "outputId": 4,
      "inputModuleId": 495,
      "inputId": 3,
      "color": "#c91847"
    },
    {
      "id": 1113,
      "outputModuleId": 379,
      "outputId": 0,
      "inputModuleId": 486,
      "inputId": 0,
      "color": "#364449"
    },
    {
      "id": 1112,
      "outputModuleId": 379,
      "outputId": 0,
      "inputModuleId": 480,
      "inputId": 1,
      "color": "#364449"
    },
    {
      "id": 1114,
      "outputModuleId": 379,
      "outputId": 1,
      "inputModuleId": 478,
      "inputId": 0,
      "color": "#364449"
    },
    {
      "id": 1117,
      "outputModuleId": 480,
      "outputId": 0,
      "inputModuleId": 496,
      "inputId": 0,
      "color": "#c9b70e"
    },
    {
      "id": 1118,
      "outputModuleId": 496,
      "outputId": 0,
      "inputModuleId": 486,
      "inputId": 1,
      "color": "#c9b70e"
    },
    {
      "id": 1119,
      "outputModuleId": 480,
      "outputId": 2,
      "inputModuleId": 497,
      "inputId": 0,
      "color": "#364449"
    },
    {
      "id": 1121,
      "outputModuleId": 497,
      "outputId": 0,
      "inputModuleId": 498,
      "inputId": 0,
      "color": "#0c8e15"
    },
    {
      "id": 1122,
      "outputModuleId": 498,
      "outputId": 0,
      "inputModuleId": 496,
      "inputId": 2,
      "color": "#0c8e15"
    },
    {
      "id": 1123,
      "outputModuleId": 498,
      "outputId": 0,
      "inputModuleId": 343,
      "inputId": 0,
      "color": "#0c8e15"
    },
    {
      "id": 1124,
      "outputModuleId": 497,
      "outputId": 0,
      "inputModuleId": 498,
      "inputId": 1,
      "color": "#0c8e15"
    },
    {
      "id": 1125,
      "outputModuleId": 498,
      "outputId": 1,
      "inputModuleId": 496,
      "inputId": 3,
      "color": "#0c8e15"
    },
    {
      "id": 1127,
      "outputModuleId": 379,
      "outputId": 4,
      "inputModuleId": 501,
      "inputId": 1,
      "color": "#364449"
    },
    {
      "id": 1128,
      "outputModuleId": 501,
      "outputId": 3,
      "inputModuleId": 502,
      "inputId": 0,
      "color": "#364449"
    },
    {
      "id": 1129,
      "outputModuleId": 502,
      "outputId": 8,
      "inputModuleId": 485,
      "inputId": 0,
      "color": "#c91847"
    },
    {
      "id": 1130,
      "outputModuleId": 379,
      "outputId": 1,
      "inputModuleId": 485,
      "inputId": 2,
      "color": "#364449"
    },
    {
      "id": 1131,
      "outputModuleId": 485,
      "outputId": 11,
      "inputModuleId": 499,
      "inputId": 0,
      "color": "#364449"
    },
    {
      "id": 1143,
      "outputModuleId": 379,
      "outputId": 1,
      "inputModuleId": 501,
      "inputId": 0,
      "color": "#364449"
    },
    {
      "id": 1151,
      "outputModuleId": 379,
      "outputId": 4,
      "inputModuleId": 509,
      "inputId": 1,
      "color": "#364449"
    },
    {
      "id": 1152,
      "outputModuleId": 501,
      "outputId": 5,
      "inputModuleId": 509,
      "inputId": 0,
      "color": "#364449"
    },
    {
      "id": 1153,
      "outputModuleId": 379,
      "outputId": 1,
      "inputModuleId": 509,
      "inputId": 2,
      "color": "#364449"
    },
    {
      "id": 1154,
      "outputModuleId": 509,
      "outputId": 11,
      "inputModuleId": 490,
      "inputId": 0,
      "color": "#364449"
    },
    {
      "id": 1109,
      "outputModuleId": 495,
      "outputId": 0,
      "inputModuleId": 510,
      "inputId": 5,
      "color": "#c91847"
    },
    {
      "id": 1110,
      "outputModuleId": 495,
      "outputId": 1,
      "inputModuleId": 510,
      "inputId": 6,
      "color": "#c91847"
    },
    {
      "id": 1155,
      "outputModuleId": 510,
      "outputId": 0,
      "inputModuleId": 375,
      "inputId": 0,
      "color": "#c91847"
    },
    {
      "id": 1156,
      "outputModuleId": 510,
      "outputId": 1,
      "inputModuleId": 375,
      "inputId": 1,
      "color": "#c91847"
    },
    {
      "id": 1157,
      "outputModuleId": 379,
      "outputId": 0,
      "inputModuleId": 510,
      "inputId": 7,
      "color": "#364449"
    },
    {
      "id": 1139,
      "outputModuleId": 499,
      "outputId": 0,
      "inputModuleId": 500,
      "inputId": 3,
      "color": "#0c8e15"
    },
    {
      "id": 1140,
      "outputModuleId": 500,
      "outputId": 0,
      "inputModuleId": 375,
      "inputId": 2,
      "color": "#c91847"
    },
    {
      "id": 1145,
      "outputModuleId": 506,
      "outputId": 3,
      "inputModuleId": 500,
      "inputId": 5,
      "color": "#0c8e15"
    },
    {
      "id": 1178,
      "outputModuleId": 496,
      "outputId": 2,
      "inputModuleId": 514,
      "inputId": 2,
      "color": "#c9b70e"
    },
    {
      "id": 1179,
      "outputModuleId": 496,
      "outputId": 0,
      "inputModuleId": 514,
      "inputId": 3,
      "color": "#c9b70e"
    },
    {
      "id": 1180,
      "outputModuleId": 514,
      "outputId": 0,
      "inputModuleId": 500,
      "inputId": 2,
      "color": "#c9b70e"
    },
    {
      "id": 1183,
      "outputModuleId": 485,
      "outputId": 11,
      "inputModuleId": 514,
      "inputId": 0,
      "color": "#364449"
    },
    {
      "id": 1184,
      "outputModuleId": 515,
      "outputId": 11,
      "inputModuleId": 517,
      "inputId": 0,
      "color": "#364449"
    },
    {
      "id": 1186,
      "outputModuleId": 379,
      "outputId": 0,
      "inputModuleId": 515,
      "inputId": 2,
      "color": "#364449"
    },
    {
      "id": 1187,
      "outputModuleId": 517,
      "outputId": 0,
      "inputModuleId": 516,
      "inputId": 3,
      "color": "#0c8e15"
    },
    {
      "id": 1190,
      "outputModuleId": 506,
      "outputId": 4,
      "inputModuleId": 516,
      "inputId": 5,
      "color": "#0c8e15"
    },
    {
      "id": 1192,
      "outputModuleId": 518,
      "outputId": 0,
      "inputModuleId": 516,
      "inputId": 2,
      "color": "#c9b70e"
    },
    {
      "id": 1189,
      "outputModuleId": 516,
      "outputId": 0,
      "inputModuleId": 1,
      "inputId": 2,
      "color": "#c91847"
    },
    {
      "id": 1193,
      "outputModuleId": 509,
      "outputId": 9,
      "inputModuleId": 520,
      "inputId": 4,
      "color": "#364449"
    },
    {
      "id": 1195,
      "outputModuleId": 379,
      "outputId": 4,
      "inputModuleId": 520,
      "inputId": 2,
      "color": "#364449"
    },
    {
      "id": 1196,
      "outputModuleId": 520,
      "outputId": 0,
      "inputModuleId": 515,
      "inputId": 0,
      "color": "#364449"
    },
    {
      "id": 1197,
      "outputModuleId": 501,
      "outputId": 1,
      "inputModuleId": 478,
      "inputId": 2,
      "color": "#364449"
    },
    {
      "id": 1191,
      "outputModuleId": 478,
      "outputId": 1,
      "inputModuleId": 521,
      "inputId": 2,
      "color": "#c9b70e"
    },
    {
      "id": 1199,
      "outputModuleId": 501,
      "outputId": 2,
      "inputModuleId": 521,
      "inputId": 1,
      "color": "#364449"
    },
    {
      "id": 1198,
      "outputModuleId": 521,
      "outputId": 1,
      "inputModuleId": 518,
      "inputId": 0,
      "color": "#c9b70e"
    }
  ]
}