{
  "version": "1.1.6",
  "modules": [
    {
      "id": 1,
      "plugin": "Core",
      "version": "1.1.6",
      "model": "AudioInterface",
      "params": [],
      "leftModuleId": 375,
      "rightModuleId": 384,
      "data": {
        "audio": {
          "driver": 7,
          "deviceName": "Studio USB ASIO Driver",
          "offset": 0,
          "maxChannels": 8,
          "sampleRate": 48000,
          "blockSize": 256
        }
      },
      "pos": [
        40,
        0
      ]
    },
    {
      "id": 76,
      "plugin": "Stoermelder-P1",
      "version": "1.10.0",
      "model": "Mb",
      "params": [],
      "leftModuleId": 364,
      "rightModuleId": 380,
      "data": {
        "mode": 1
      },
      "pos": [
        4,
        0
      ]
    },
    {
      "id": 360,
      "plugin": "LindenbergResearch",
      "version": "1.3.3",
      "model": "BlankPanel_Wood",
      "params": [],
      "leftModuleId": 751,
      "gestaltID": 1,
      "gradient": false,
      "patina": false,
      "patina_i_x": false,
      "patina_i_y": false,
      "patina_a_x": 1048.69849,
      "patina_a_y": 465.392822,
      "overlay": false,
      "overlay_r": 0.873391569,
      "overlay_g": 0.64072597,
      "overlay_b": 0.351481795,
      "overlay_a": 0.162211627,
      "AGED": false,
      "screws": true,
      "logo": false,
      "pos": [
        97,
        1
      ]
    },
    {
      "id": 362,
      "plugin": "LindenbergResearch",
      "version": "1.3.3",
      "model": "BlankPanel_Wood",
      "params": [],
      "leftModuleId": 764,
      "gestaltID": 1,
      "gradient": false,
      "patina": false,
      "patina_i_x": false,
      "patina_i_y": false,
      "patina_a_x": 1048.69849,
      "patina_a_y": 465.392822,
      "overlay": false,
      "overlay_r": 0.806644678,
      "overlay_g": 0.860630453,
      "overlay_b": 0.242195666,
      "overlay_a": 0.123115771,
      "AGED": false,
      "screws": true,
      "logo": false,
      "pos": [
        97,
        2
      ]
    },
    {
      "id": 364,
      "plugin": "LindenbergResearch",
      "version": "1.3.3",
      "model": "BlankPanel_Wood",
      "params": [],
      "rightModuleId": 76,
      "gestaltID": 1,
      "gradient": false,
      "patina": false,
      "patina_i_x": true,
      "patina_i_y": false,
      "patina_a_x": 732.980896,
      "patina_a_y": 232.628174,
      "overlay": false,
      "overlay_r": 0.978796721,
      "overlay_g": 0.296196163,
      "overlay_b": 0.41441673,
      "overlay_a": 0.158671871,
      "AGED": false,
      "screws": true,
      "logo": false,
      "pos": [
        0,
        0
      ]
    },
    {
      "id": 365,
      "plugin": "LindenbergResearch",
      "version": "1.3.3",
      "model": "BlankPanel_Wood",
      "params": [],
      "rightModuleId": 648,
      "gestaltID": 1,
      "gradient": false,
      "patina": false,
      "patina_i_x": true,
      "patina_i_y": false,
      "patina_a_x": 732.980896,
      "patina_a_y": 232.628174,
      "overlay": false,
      "overlay_r": 0.0991028547,
      "overlay_g": 0.0158284307,
      "overlay_b": 0.565674603,
      "overlay_a": 0.348035753,
      "AGED": false,
      "screws": true,
      "logo": false,
      "pos": [
        0,
        1
      ]
    },
    {
      "id": 375,
      "plugin": "squinkylabs-plug1",
      "version": "1.0.22",
      "model": "squinkylabs-mix8",
      "params": [
        {
          "id": 0,
          "value": 0.800000012
        },
        {
          "id": 1,
          "value": 0.0
        },
        {
          "id": 2,
          "value": 0.800000012
        },
        {
          "id": 3,
          "value": 0.800000012
        },
        {
          "id": 4,
          "value": 0.800000012
        },
        {
          "id": 5,
          "value": 0.800000012
        },
        {
          "id": 6,
          "value": 0.126499951
        },
        {
          "id": 7,
          "value": 0.800000012
        },
        {
          "id": 8,
          "value": 0.800000012
        },
        {
          "id": 9,
          "value": 0.800000012
        },
        {
          "id": 10,
          "value": 0.0
        },
        {
          "id": 11,
          "value": 0.0
        },
        {
          "id": 12,
          "value": 0.0
        },
        {
          "id": 13,
          "value": -0.201000065
        },
        {
          "id": 14,
          "value": 0.0
        },
        {
          "id": 15,
          "value": 0.0
        },
        {
          "id": 16,
          "value": 0.0
        },
        {
          "id": 17,
          "value": 0.0
        },
        {
          "id": 18,
          "value": 0.0
        },
        {
          "id": 19,
          "value": 0.0
        },
        {
          "id": 20,
          "value": 0.0
        },
        {
          "id": 21,
          "value": 0.0
        },
        {
          "id": 22,
          "value": 0.0
        },
        {
          "id": 23,
          "value": 0.0
        },
        {
          "id": 24,
          "value": 0.0
        },
        {
          "id": 25,
          "value": 0.0
        },
        {
          "id": 26,
          "value": 0.0
        },
        {
          "id": 27,
          "value": 0.0
        },
        {
          "id": 28,
          "value": 0.0
        },
        {
          "id": 29,
          "value": 0.0
        },
        {
          "id": 30,
          "value": 0.0
        },
        {
          "id": 31,
          "value": 0.0
        },
        {
          "id": 32,
          "value": 0.0
        },
        {
          "id": 33,
          "value": 0.0
        },
        {
          "id": 34,
          "value": 0.203999996
        },
        {
          "id": 35,
          "value": 0.319499999
        },
        {
          "id": 36,
          "value": 0.0510000028
        },
        {
          "id": 37,
          "value": 0.0
        },
        {
          "id": 38,
          "value": 0.223499998
        },
        {
          "id": 39,
          "value": 0.0
        },
        {
          "id": 40,
          "value": 0.0
        },
        {
          "id": 41,
          "value": 0.0
        },
        {
          "id": 42,
          "value": 1.0
        }
      ],
      "leftModuleId": 646,
      "rightModuleId": 1,
      "pos": [
        14,
        0
      ]
    },
    {
      "id": 380,
      "plugin": "Stoermelder-P1",
      "version": "1.10.0",
      "model": "Me",
      "params": [],
      "leftModuleId": 76,
      "rightModuleId": 646,
      "pos": [
        6,
        0
      ]
    },
    {
      "id": 384,
      "plugin": "Valley",
      "version": "1.1.7",
      "model": "Plateau",
      "params": [
        {
          "id": 0,
          "value": 0.0
        },
        {
          "id": 1,
          "value": 1.0
        },
        {
          "id": 2,
          "value": 0.0
        },
        {
          "id": 3,
          "value": 6.26500082
        },
        {
          "id": 4,
          "value": 10.0
        },
        {
          "id": 5,
          "value": 0.5
        },
        {
          "id": 6,
          "value": 10.0
        },
        {
          "id": 7,
          "value": 0.549950004
        },
        {
          "id": 8,
          "value": 10.0
        },
        {
          "id": 9,
          "value": 10.0
        },
        {
          "id": 10,
          "value": 0.0
        },
        {
          "id": 11,
          "value": 0.5
        },
        {
          "id": 12,
          "value": 0.5
        },
        {
          "id": 13,
          "value": 0.0
        },
        {
          "id": 14,
          "value": 0.0
        },
        {
          "id": 15,
          "value": 0.0
        },
        {
          "id": 16,
          "value": 0.0
        },
        {
          "id": 17,
          "value": 0.0
        },
        {
          "id": 18,
          "value": 0.0
        },
        {
          "id": 19,
          "value": 0.0
        },
        {
          "id": 20,
          "value": 0.0
        },
        {
          "id": 21,
          "value": 0.0
        },
        {
          "id": 22,
          "value": 0.0
        },
        {
          "id": 23,
          "value": 0.0
        },
        {
          "id": 24,
          "value": 0.0
        },
        {
          "id": 25,
          "value": 0.0
        },
        {
          "id": 26,
          "value": 0.0
        },
        {
          "id": 27,
          "value": 0.0
        },
        {
          "id": 28,
          "value": 0.0
        },
        {
          "id": 29,
          "value": 0.0
        },
        {
          "id": 30,
          "value": 1.0
        }
      ],
      "leftModuleId": 1,
      "rightModuleId": 742,
      "data": {
        "frozen": false,
        "freezeToggle": false,
        "panelStyle": 0,
        "tuned": 0,
        "diffuseInput": 1,
        "preDelayCVSens": 0,
        "inputSensitivity": 0,
        "outputSaturation": 0
      },
      "pos": [
        50,
        0
      ]
    },
    {
      "id": 646,
      "plugin": "Stoermelder-P1",
      "version": "1.10.0",
      "model": "Stroke",
      "params": [],
      "leftModuleId": 380,
      "rightModuleId": 375,
      "data": {
        "panelTheme": 1,
        "keys": [
          {
            "button": -1,
            "key": 49,
            "mods": 0,
            "mode": 24,
            "high": false,
            "data": "#e0d8a3"
          },
          {
            "button": -1,
            "key": 50,
            "mods": 0,
            "mode": 24,
            "high": false,
            "data": "#81b29a"
          },
          {
            "button": -1,
            "key": 51,
            "mods": 0,
            "mode": 24,
            "high": false,
            "data": "#e07a5f"
          },
          {
            "button": -1,
            "key": 52,
            "mods": 0,
            "mode": 24,
            "high": false,
            "data": "#3d405b"
          },
          {
            "button": -1,
            "key": -1,
            "mods": 0,
            "mode": 1,
            "high": false,
            "data": ""
          },
          {
            "button": -1,
            "key": -1,
            "mods": 0,
            "mode": 1,
            "high": false,
            "data": ""
          },
          {
            "button": -1,
            "key": -1,
            "mods": 0,
            "mode": 1,
            "high": false,
            "data": ""
          },
          {
            "button": -1,
            "key": -1,
            "mods": 0,
            "mode": 1,
            "high": false,
            "data": ""
          },
          {
            "button": -1,
            "key": -1,
            "mods": 0,
            "mode": 1,
            "high": false,
            "data": ""
          },
          {
            "button": -1,
            "key": -1,
            "mods": 0,
            "mode": 1,
            "high": false,
            "data": ""
          }
        ]
      },
      "pos": [
        8,
        0
      ]
    },
    {
      "id": 648,
      "plugin": "ImpromptuModular",
      "version": "1.1.12",
      "model": "Clocked-Clkd",
      "params": [
        {
          "id": 0,
          "value": 2.0
        },
        {
          "id": 1,
          "value": 5.0
        },
        {
          "id": 2,
          "value": 2.0
        },
        {
          "id": 3,
          "value": 120.0
        },
        {
          "id": 4,
          "value": 0.0
        },
        {
          "id": 5,
          "value": 0.0
        },
        {
          "id": 6,
          "value": 0.0
        },
        {
          "id": 7,
          "value": 0.0
        },
        {
          "id": 8,
          "value": 0.0
        },
        {
          "id": 9,
          "value": 0.0
        }
      ],
      "leftModuleId": 365,
      "rightModuleId": 745,
      "data": {
        "panelTheme": 1,
        "running": false,
        "bpmDetectionMode": false,
        "resetOnStartStop": 0,
        "ppqn": 4,
        "resetClockOutputsHigh": true,
        "momentaryRunInput": true,
        "displayIndex": 2,
        "trigOuts": [
          false,
          false,
          false,
          false
        ],
        "clockMaster": -1
      },
      "pos": [
        4,
        1
      ]
    },
    {
      "id": 730,
      "plugin": "AriaSalvatrice",
      "version": "1.8.1",
      "model": "Qqqq",
      "params": [
        {
          "id": 0,
          "value": 0.0
        },
        {
          "id": 1,
          "value": 1.0
        },
        {
          "id": 2,
          "value": 0.0
        },
        {
          "id": 3,
          "value": 0.0
        },
        {
          "id": 4,
          "value": 1.0
        },
        {
          "id": 5,
          "value": 0.0
        },
        {
          "id": 6,
          "value": 0.0
        },
        {
          "id": 7,
          "value": 0.0
        },
        {
          "id": 8,
          "value": 1.0
        },
        {
          "id": 9,
          "value": 0.0
        },
        {
          "id": 10,
          "value": 0.0
        },
        {
          "id": 11,
          "value": 1.0
        },
        {
          "id": 12,
          "value": 100.0
        },
        {
          "id": 13,
          "value": 51.4000015
        },
        {
          "id": 14,
          "value": 100.0
        },
        {
          "id": 15,
          "value": 100.0
        },
        {
          "id": 16,
          "value": 0.0
        },
        {
          "id": 17,
          "value": 0.0
        },
        {
          "id": 18,
          "value": 1.52999997
        },
        {
          "id": 19,
          "value": 0.0
        },
        {
          "id": 20,
          "value": 0.0
        },
        {
          "id": 21,
          "value": 1.0
        },
        {
          "id": 22,
          "value": 0.0
        },
        {
          "id": 23,
          "value": 0.0
        },
        {
          "id": 24,
          "value": 2.0
        },
        {
          "id": 25,
          "value": 0.0
        },
        {
          "id": 26,
          "value": 0.0
        },
        {
          "id": 27,
          "value": 0.0
        },
        {
          "id": 28,
          "value": 0.0
        },
        {
          "id": 29,
          "value": 0.0
        },
        {
          "id": 30,
          "value": 0.0
        },
        {
          "id": 31,
          "value": 0.0
        },
        {
          "id": 32,
          "value": 0.0
        },
        {
          "id": 33,
          "value": 0.0
        },
        {
          "id": 34,
          "value": 0.0
        },
        {
          "id": 35,
          "value": 0.0
        },
        {
          "id": 36,
          "value": 1.0
        },
        {
          "id": 37,
          "value": 0.0
        },
        {
          "id": 38,
          "value": 0.0
        },
        {
          "id": 39,
          "value": 0.0
        },
        {
          "id": 40,
          "value": 0.0
        },
        {
          "id": 41,
          "value": 0.0
        },
        {
          "id": 42,
          "value": 0.0
        },
        {
          "id": 43,
          "value": 0.0
        },
        {
          "id": 44,
          "value": 0.0
        },
        {
          "id": 45,
          "value": 0.0
        },
        {
          "id": 46,
          "value": 0.0
        },
        {
          "id": 47,
          "value": 0.0
        },
        {
          "id": 48,
          "value": 0.0
        },
        {
          "id": 49,
          "value": 0.0
        },
        {
          "id": 50,
          "value": 0.0
        },
        {
          "id": 51,
          "value": 0.0
        },
        {
          "id": 52,
          "value": 0.0
        },
        {
          "id": 53,
          "value": 0.0
        },
        {
          "id": 54,
          "value": 0.0
        }
      ],
      "leftModuleId": 738,
      "rightModuleId": 732,
      "data": {
        "sceneTrigSelection": false,
        "scene": 0,
        "scenes": [
          [
            false,
            true,
            false,
            false,
            true,
            false,
            false,
            false,
            true,
            false,
            false,
            true
          ],
          [
            true,
            false,
            true,
            false,
            true,
            false,
            false,
            true,
            false,
            true,
            false,
            false
          ],
          [
            false,
            false,
            false,
            true,
            false,
            true,
            false,
            false,
            false,
            false,
            true,
            false
          ],
          [
            true,
            false,
            false,
            true,
            false,
            true,
            false,
            false,
            true,
            false,
            false,
            false
          ],
          [
            false,
            false,
            false,
            false,
            false,
            false,
            false,
            false,
            false,
            false,
            false,
            false
          ],
          [
            false,
            false,
            false,
            false,
            false,
            false,
            false,
            false,
            false,
            false,
            false,
            false
          ],
          [
            false,
            false,
            false,
            false,
            false,
            false,
            false,
            false,
            false,
            false,
            false,
            false
          ],
          [
            false,
            false,
            false,
            false,
            false,
            false,
            false,
            false,
            false,
            false,
            false,
            false
          ],
          [
            false,
            false,
            false,
            false,
            false,
            false,
            false,
            false,
            false,
            false,
            false,
            false
          ],
          [
            false,
            false,
            false,
            false,
            false,
            false,
            false,
            false,
            false,
            false,
            false,
            false
          ],
          [
            false,
            false,
            false,
            false,
            false,
            false,
            false,
            false,
            false,
            false,
            false,
            false
          ],
          [
            false,
            false,
            false,
            false,
            false,
            false,
            false,
            false,
            false,
            false,
            false,
            false
          ],
          [
            false,
            false,
            false,
            false,
            false,
            false,
            false,
            false,
            false,
            false,
            false,
            false
          ],
          [
            false,
            false,
            false,
            false,
            false,
            false,
            false,
            false,
            false,
            false,
            false,
            false
          ],
          [
            false,
            false,
            false,
            false,
            false,
            false,
            false,
            false,
            false,
            false,
            false,
            false
          ],
          [
            false,
            false,
            false,
            false,
            false,
            false,
            false,
            false,
            false,
            false,
            false,
            false
          ]
        ]
      },
      "pos": [
        65,
        1
      ]
    },
    {
      "id": 732,
      "plugin": "AriaSalvatrice",
      "version": "1.8.1",
      "model": "Splirge",
      "params": [
        {
          "id": 0,
          "value": 1.0
        }
      ],
      "leftModuleId": 730,
      "rightModuleId": 736,
      "pos": [
        85,
        1
      ]
    },
    {
      "id": 734,
      "plugin": "Geodesics",
      "version": "1.2.0",
      "model": "Ions",
      "params": [
        {
          "id": 0,
          "value": 0.0
        },
        {
          "id": 1,
          "value": 0.0
        },
        {
          "id": 2,
          "value": 0.0522089601
        },
        {
          "id": 3,
          "value": 0.563291013
        },
        {
          "id": 4,
          "value": 0.258967221
        },
        {
          "id": 5,
          "value": 0.625933826
        },
        {
          "id": 6,
          "value": 0.469986856
        },
        {
          "id": 7,
          "value": 0.173544109
        },
        {
          "id": 8,
          "value": 0.209208012
        },
        {
          "id": 9,
          "value": 0.0598237514
        },
        {
          "id": 10,
          "value": 0.0126583576
        },
        {
          "id": 11,
          "value": 0.523377895
        },
        {
          "id": 12,
          "value": 0.748781204
        },
        {
          "id": 13,
          "value": 0.522202075
        },
        {
          "id": 14,
          "value": 0.180042326
        },
        {
          "id": 15,
          "value": 0.715230048
        },
        {
          "id": 16,
          "value": 0.826677084
        },
        {
          "id": 17,
          "value": 0.445535004
        },
        {
          "id": 18,
          "value": 0.0
        },
        {
          "id": 19,
          "value": 0.0
        },
        {
          "id": 20,
          "value": 0.0
        },
        {
          "id": 21,
          "value": 0.0
        },
        {
          "id": 22,
          "value": 0.0
        },
        {
          "id": 23,
          "value": 0.0
        },
        {
          "id": 24,
          "value": 0.0
        },
        {
          "id": 25,
          "value": 0.0
        },
        {
          "id": 26,
          "value": 0.0
        },
        {
          "id": 27,
          "value": 0.0
        }
      ],
      "leftModuleId": 735,
      "rightModuleId": 739,
      "data": {
        "panelTheme": 1,
        "running": true,
        "resetOnRun": false,
        "quantize": 3,
        "uncertainty": false,
        "stepIndexes0": 7,
        "stepIndexes1": 7,
        "states0": 2,
        "states1": 2,
        "ranges0": 1,
        "ranges1": 1,
        "leap": false
      },
      "pos": [
        34,
        1
      ]
    },
    {
      "id": 735,
      "plugin": "Valley",
      "version": "1.1.7",
      "model": "uGraph",
      "params": [
        {
          "id": 0,
          "value": 0.0
        },
        {
          "id": 1,
          "value": 0.0
        },
        {
          "id": 2,
          "value": 0.0
        },
        {
          "id": 3,
          "value": 0.199499995
        },
        {
          "id": 4,
          "value": 0.144000009
        },
        {
          "id": 5,
          "value": 0.340500116
        },
        {
          "id": 6,
          "value": 0.5
        },
        {
          "id": 7,
          "value": 0.5
        },
        {
          "id": 8,
          "value": 0.5
        },
        {
          "id": 9,
          "value": 0.0
        }
      ],
      "leftModuleId": 745,
      "rightModuleId": 734,
      "data": {
        "sequencerMode": 2,
        "triggerOutputMode": 0,
        "accOutputMode": 0,
        "extClockResolution": 0,
        "chaosKnobMode": 0,
        "runMode": 0,
        "panelStyle": 0,
        "running": 1
      },
      "pos": [
        24,
        1
      ]
    },
    {
      "id": 736,
      "plugin": "Geodesics",
      "version": "1.2.0",
      "model": "Energy",
      "params": [
        {
          "id": 0,
          "value": 0.0
        },
        {
          "id": 1,
          "value": 0.0
        },
        {
          "id": 2,
          "value": 0.0
        },
        {
          "id": 3,
          "value": 0.0
        },
        {
          "id": 4,
          "value": 0.0
        },
        {
          "id": 5,
          "value": 0.0
        },
        {
          "id": 6,
          "value": 0.0
        },
        {
          "id": 7,
          "value": 0.385500014
        },
        {
          "id": 8,
          "value": 0.420000017
        },
        {
          "id": 9,
          "value": 0.0
        }
      ],
      "leftModuleId": 732,
      "rightModuleId": 751,
      "data": {
        "panelTheme": 1,
        "oscM_phase": 791170848,
        "oscC_phase": 791170848,
        "osc1M_phase": 3669254720,
        "osc1C_phase": 3669254720,
        "osc2M_phase": 2181598816,
        "osc2C_phase": 2181598816,
        "osc3M_phase": 3170279456,
        "osc3C_phase": 3170279456,
        "osc4M_phase": 0,
        "osc4C_phase": 0,
        "osc5M_phase": 0,
        "osc5C_phase": 0,
        "osc6M_phase": 0,
        "osc6C_phase": 0,
        "osc7M_phase": 0,
        "osc7C_phase": 0,
        "osc8M_phase": 0,
        "osc8C_phase": 0,
        "osc9M_phase": 0,
        "osc9C_phase": 0,
        "osc10M_phase": 0,
        "osc10C_phase": 0,
        "osc11M_phase": 0,
        "osc11C_phase": 0,
        "osc12M_phase": 0,
        "osc12C_phase": 0,
        "osc13M_phase": 0,
        "osc13C_phase": 0,
        "osc14M_phase": 0,
        "osc14C_phase": 0,
        "osc15M_phase": 0,
        "osc15C_phase": 0,
        "routing": 1,
        "planck0": 0,
        "planck1": 0,
        "modtype0": 1,
        "modtype1": 1,
        "cross": 1
      },
      "pos": [
        88,
        1
      ]
    },
    {
      "id": 737,
      "plugin": "ML_modules",
      "version": "1.1.3",
      "model": "ShiftRegister",
      "params": [
        {
          "id": 0,
          "value": 0.0
        },
        {
          "id": 1,
          "value": 0.0
        },
        {
          "id": 2,
          "value": 0.0
        },
        {
          "id": 3,
          "value": 0.0
        },
        {
          "id": 4,
          "value": 0.0
        },
        {
          "id": 5,
          "value": 0.0
        },
        {
          "id": 6,
          "value": 0.0
        },
        {
          "id": 7,
          "value": 0.0
        },
        {
          "id": 8,
          "value": 0.0
        }
      ],
      "leftModuleId": 739,
      "rightModuleId": 738,
      "pos": [
        58,
        1
      ]
    },
    {
      "id": 738,
      "plugin": "Fundamental",
      "version": "1.4.0",
      "model": "Octave",
      "params": [
        {
          "id": 0,
          "value": -2.0
        }
      ],
      "leftModuleId": 737,
      "rightModuleId": 730,
      "pos": [
        62,
        1
      ]
    },
    {
      "id": 739,
      "plugin": "Geodesics",
      "version": "1.2.0",
      "model": "Fate",
      "params": [
        {
          "id": 0,
          "value": 0.17399998
        },
        {
          "id": 1,
          "value": 0.314999998
        }
      ],
      "leftModuleId": 734,
      "rightModuleId": 737,
      "data": {
        "panelTheme": 1,
        "holdTrigOut": 0
      },
      "pos": [
        53,
        1
      ]
    },
    {
      "id": 742,
      "plugin": "squinkylabs-plug1",
      "version": "1.0.22",
      "model": "squinkylabs-basic",
      "params": [
        {
          "id": 0,
          "value": 4.0
        },
        {
          "id": 1,
          "value": 7.0
        },
        {
          "id": 2,
          "value": 0.0
        },
        {
          "id": 3,
          "value": 87.8999939
        },
        {
          "id": 4,
          "value": 50.0
        },
        {
          "id": 5,
          "value": 34.4999962
        },
        {
          "id": 6,
          "value": 3.0
        }
      ],
      "leftModuleId": 384,
      "rightModuleId": 743,
      "pos": [
        62,
        0
      ]
    },
    {
      "id": 743,
      "plugin": "squinkylabs-plug1",
      "version": "1.0.22",
      "model": "squinkylabs-basic",
      "params": [
        {
          "id": 0,
          "value": 4.0
        },
        {
          "id": 1,
          "value": 0.0
        },
        {
          "id": 2,
          "value": 0.0
        },
        {
          "id": 3,
          "value": 0.0
        },
        {
          "id": 4,
          "value": 50.0
        },
        {
          "id": 5,
          "value": 0.0
        },
        {
          "id": 6,
          "value": 0.0
        }
      ],
      "leftModuleId": 742,
      "rightModuleId": 744,
      "pos": [
        65,
        0
      ]
    },
    {
      "id": 744,
      "plugin": "NYSTHI",
      "version": "1.0.17",
      "model": "AttackSustainRelease4",
      "params": [
        {
          "id": 0,
          "value": 0.0
        },
        {
          "id": 1,
          "value": 0.100000001
        },
        {
          "id": 2,
          "value": 0.0
        },
        {
          "id": 3,
          "value": 1.0
        },
        {
          "id": 4,
          "value": 0.5
        },
        {
          "id": 5,
          "value": 0.0
        },
        {
          "id": 6,
          "value": 0.0
        },
        {
          "id": 7,
          "value": 0.0
        },
        {
          "id": 8,
          "value": 0.0
        },
        {
          "id": 9,
          "value": 0.0
        },
        {
          "id": 10,
          "value": 0.0
        },
        {
          "id": 11,
          "value": 0.0
        },
        {
          "id": 12,
          "value": 0.0
        },
        {
          "id": 13,
          "value": 0.0
        },
        {
          "id": 14,
          "value": 0.0
        },
        {
          "id": 15,
          "value": 0.0
        },
        {
          "id": 16,
          "value": 0.0
        },
        {
          "id": 17,
          "value": 0.0
        },
        {
          "id": 18,
          "value": 0.0
        },
        {
          "id": 19,
          "value": 0.0
        },
        {
          "id": 20,
          "value": 0.0
        },
        {
          "id": 21,
          "value": 0.0
        },
        {
          "id": 22,
          "value": 0.0579999797
        },
        {
          "id": 23,
          "value": 0.0519999973
        },
        {
          "id": 24,
          "value": 0.0129999872
        },
        {
          "id": 25,
          "value": 0.0104999999
        },
        {
          "id": 26,
          "value": 0.100000001
        },
        {
          "id": 27,
          "value": 0.100000001
        },
        {
          "id": 28,
          "value": 0.100000001
        },
        {
          "id": 29,
          "value": 0.100000001
        },
        {
          "id": 30,
          "value": 0.100000001
        },
        {
          "id": 31,
          "value": 0.100000001
        },
        {
          "id": 32,
          "value": 0.100000001
        },
        {
          "id": 33,
          "value": 0.100000001
        },
        {
          "id": 34,
          "value": 0.100000001
        },
        {
          "id": 35,
          "value": 0.100000001
        },
        {
          "id": 36,
          "value": 0.100000001
        },
        {
          "id": 37,
          "value": 0.100000001
        },
        {
          "id": 38,
          "value": 0.0
        },
        {
          "id": 39,
          "value": 0.5
        },
        {
          "id": 40,
          "value": 0.5
        },
        {
          "id": 41,
          "value": 0.5
        },
        {
          "id": 42,
          "value": 0.5
        },
        {
          "id": 43,
          "value": 0.5
        },
        {
          "id": 44,
          "value": 0.5
        },
        {
          "id": 45,
          "value": 0.5
        },
        {
          "id": 46,
          "value": 0.5
        },
        {
          "id": 47,
          "value": 0.5
        },
        {
          "id": 48,
          "value": 0.5
        },
        {
          "id": 49,
          "value": 0.5
        },
        {
          "id": 50,
          "value": 0.5
        },
        {
          "id": 51,
          "value": 0.5
        },
        {
          "id": 52,
          "value": 0.5
        },
        {
          "id": 53,
          "value": 0.5
        },
        {
          "id": 54,
          "value": 0.5
        },
        {
          "id": 55,
          "value": 0.0
        },
        {
          "id": 56,
          "value": 1.0
        },
        {
          "id": 57,
          "value": 1.0
        },
        {
          "id": 58,
          "value": 1.0
        },
        {
          "id": 59,
          "value": 1.0
        },
        {
          "id": 60,
          "value": 1.0
        },
        {
          "id": 61,
          "value": 1.0
        },
        {
          "id": 62,
          "value": 1.0
        },
        {
          "id": 63,
          "value": 1.0
        },
        {
          "id": 64,
          "value": 1.0
        },
        {
          "id": 65,
          "value": 1.0
        },
        {
          "id": 66,
          "value": 1.0
        },
        {
          "id": 67,
          "value": 1.0
        },
        {
          "id": 68,
          "value": 1.0
        },
        {
          "id": 69,
          "value": 1.0
        },
        {
          "id": 70,
          "value": 1.0
        },
        {
          "id": 71,
          "value": 1.0
        },
        {
          "id": 72,
          "value": 0.0
        },
        {
          "id": 73,
          "value": 0.0
        },
        {
          "id": 74,
          "value": 0.0
        },
        {
          "id": 75,
          "value": 0.0
        },
        {
          "id": 76,
          "value": 0.0
        },
        {
          "id": 77,
          "value": 0.0
        },
        {
          "id": 78,
          "value": 0.0
        },
        {
          "id": 79,
          "value": 0.0
        },
        {
          "id": 80,
          "value": 0.0
        },
        {
          "id": 81,
          "value": 0.0
        },
        {
          "id": 82,
          "value": 0.0
        },
        {
          "id": 83,
          "value": 0.0
        },
        {
          "id": 84,
          "value": 0.0
        },
        {
          "id": 85,
          "value": 0.0
        },
        {
          "id": 86,
          "value": 0.0
        },
        {
          "id": 87,
          "value": 0.0
        },
        {
          "id": 88,
          "value": 0.0
        },
        {
          "id": 89,
          "value": 0.0
        },
        {
          "id": 90,
          "value": 0.0
        },
        {
          "id": 91,
          "value": 0.0
        },
        {
          "id": 92,
          "value": 0.0
        },
        {
          "id": 93,
          "value": 0.0
        },
        {
          "id": 94,
          "value": 0.0
        },
        {
          "id": 95,
          "value": 0.0
        },
        {
          "id": 96,
          "value": 0.0
        },
        {
          "id": 97,
          "value": 0.0
        },
        {
          "id": 98,
          "value": 0.0
        },
        {
          "id": 99,
          "value": 0.0
        },
        {
          "id": 100,
          "value": 0.0
        },
        {
          "id": 101,
          "value": 0.0
        },
        {
          "id": 102,
          "value": 0.0
        },
        {
          "id": 103,
          "value": 0.0
        },
        {
          "id": 104,
          "value": 0.0
        },
        {
          "id": 105,
          "value": 0.0
        },
        {
          "id": 106,
          "value": 0.0
        },
        {
          "id": 107,
          "value": 0.0
        },
        {
          "id": 108,
          "value": 0.0
        },
        {
          "id": 109,
          "value": 0.0
        },
        {
          "id": 110,
          "value": 0.0
        },
        {
          "id": 111,
          "value": 0.0
        },
        {
          "id": 112,
          "value": 0.0
        },
        {
          "id": 113,
          "value": 0.0
        },
        {
          "id": 114,
          "value": 0.0
        },
        {
          "id": 115,
          "value": 0.0
        },
        {
          "id": 116,
          "value": 0.0
        },
        {
          "id": 117,
          "value": 0.0
        },
        {
          "id": 118,
          "value": 0.0
        },
        {
          "id": 119,
          "value": 0.0
        },
        {
          "id": 120,
          "value": 0.0
        },
        {
          "id": 121,
          "value": 0.0
        },
        {
          "id": 122,
          "value": 0.0
        },
        {
          "id": 123,
          "value": 0.0
        },
        {
          "id": 124,
          "value": 0.0
        },
        {
          "id": 125,
          "value": 0.0
        },
        {
          "id": 126,
          "value": 0.0
        },
        {
          "id": 127,
          "value": 0.0
        },
        {
          "id": 128,
          "value": 0.0
        },
        {
          "id": 129,
          "value": 0.0
        },
        {
          "id": 130,
          "value": 0.0
        },
        {
          "id": 131,
          "value": 0.0
        },
        {
          "id": 132,
          "value": 0.0
        },
        {
          "id": 133,
          "value": 0.0
        },
        {
          "id": 134,
          "value": 0.0
        },
        {
          "id": 135,
          "value": 0.0
        },
        {
          "id": 136,
          "value": 0.0
        },
        {
          "id": 137,
          "value": 0.0
        },
        {
          "id": 138,
          "value": 0.0
        },
        {
          "id": 139,
          "value": 0.0
        },
        {
          "id": 140,
          "value": 0.0
        },
        {
          "id": 141,
          "value": 0.0
        },
        {
          "id": 142,
          "value": 0.0
        },
        {
          "id": 143,
          "value": 0.0
        },
        {
          "id": 144,
          "value": 0.0
        },
        {
          "id": 145,
          "value": 0.0
        },
        {
          "id": 146,
          "value": 0.0
        },
        {
          "id": 147,
          "value": 0.0
        },
        {
          "id": 148,
          "value": 0.0
        },
        {
          "id": 149,
          "value": 0.0
        },
        {
          "id": 150,
          "value": 0.0
        },
        {
          "id": 151,
          "value": 0.0
        },
        {
          "id": 152,
          "value": 0.0
        },
        {
          "id": 153,
          "value": 0.0
        },
        {
          "id": 154,
          "value": 0.0
        },
        {
          "id": 155,
          "value": 0.0
        },
        {
          "id": 156,
          "value": 0.0
        },
        {
          "id": 157,
          "value": 0.0
        },
        {
          "id": 158,
          "value": 0.0
        },
        {
          "id": 159,
          "value": 0.0
        },
        {
          "id": 160,
          "value": 0.0
        },
        {
          "id": 161,
          "value": 0.0
        },
        {
          "id": 162,
          "value": 0.0
        },
        {
          "id": 163,
          "value": 0.0
        },
        {
          "id": 164,
          "value": 0.0
        },
        {
          "id": 165,
          "value": 0.0
        },
        {
          "id": 166,
          "value": 0.0
        },
        {
          "id": 167,
          "value": 0.0
        },
        {
          "id": 168,
          "value": 0.0
        },
        {
          "id": 169,
          "value": 0.0
        },
        {
          "id": 170,
          "value": 0.0
        },
        {
          "id": 171,
          "value": 0.0
        },
        {
          "id": 172,
          "value": 0.0
        },
        {
          "id": 173,
          "value": 0.0
        },
        {
          "id": 174,
          "value": 0.0
        }
      ],
      "leftModuleId": 743,
      "rightModuleId": 746,
      "data": {
        "m_looped0": false,
        "m_unitysummed0": false,
        "m_armode0": true,
        "m_busy0": true,
        "m_zero0": false,
        "m_looped1": false,
        "m_unitysummed1": false,
        "m_armode1": true,
        "m_busy1": false,
        "m_zero1": false,
        "m_looped2": false,
        "m_unitysummed2": false,
        "m_armode2": true,
        "m_busy2": true,
        "m_zero2": false,
        "m_looped3": false,
        "m_unitysummed3": false,
        "m_armode3": true,
        "m_busy3": true,
        "m_zero3": false,
        "m_looped4": false,
        "m_unitysummed4": false,
        "m_armode4": true,
        "m_busy4": false,
        "m_zero4": false,
        "m_looped5": false,
        "m_unitysummed5": false,
        "m_armode5": true,
        "m_busy5": false,
        "m_zero5": false,
        "m_looped6": false,
        "m_unitysummed6": false,
        "m_armode6": true,
        "m_busy6": false,
        "m_zero6": false,
        "m_looped7": false,
        "m_unitysummed7": false,
        "m_armode7": true,
        "m_busy7": false,
        "m_zero7": false,
        "m_looped8": false,
        "m_unitysummed8": false,
        "m_armode8": true,
        "m_busy8": false,
        "m_zero8": false,
        "m_looped9": false,
        "m_unitysummed9": false,
        "m_armode9": true,
        "m_busy9": false,
        "m_zero9": false,
        "m_looped10": false,
        "m_unitysummed10": false,
        "m_armode10": true,
        "m_busy10": false,
        "m_zero10": false,
        "m_looped11": false,
        "m_unitysummed11": false,
        "m_armode11": true,
        "m_busy11": false,
        "m_zero11": false,
        "m_looped12": false,
        "m_unitysummed12": false,
        "m_armode12": true,
        "m_busy12": false,
        "m_zero12": false,
        "m_looped13": false,
        "m_unitysummed13": false,
        "m_armode13": true,
        "m_busy13": false,
        "m_zero13": false,
        "m_looped14": false,
        "m_unitysummed14": false,
        "m_armode14": true,
        "m_busy14": false,
        "m_zero14": false,
        "m_looped15": false,
        "m_unitysummed15": false,
        "m_armode15": true,
        "m_busy15": false,
        "m_zero15": false
      },
      "pos": [
        68,
        0
      ]
    },
    {
      "id": 745,
      "plugin": "Valley",
      "version": "1.1.7",
      "model": "uGraph",
      "params": [
        {
          "id": 0,
          "value": 0.0
        },
        {
          "id": 1,
          "value": 0.0
        },
        {
          "id": 2,
          "value": 0.0
        },
        {
          "id": 3,
          "value": 0.169499993
        },
        {
          "id": 4,
          "value": 0.264000028
        },
        {
          "id": 5,
          "value": 0.384000123
        },
        {
          "id": 6,
          "value": 0.601999938
        },
        {
          "id": 7,
          "value": 0.5
        },
        {
          "id": 8,
          "value": 0.5
        },
        {
          "id": 9,
          "value": 0.0
        }
      ],
      "leftModuleId": 648,
      "rightModuleId": 735,
      "data": {
        "sequencerMode": 2,
        "triggerOutputMode": 0,
        "accOutputMode": 0,
        "extClockResolution": 0,
        "chaosKnobMode": 0,
        "runMode": 0,
        "panelStyle": 0,
        "running": 1
      },
      "pos": [
        14,
        1
      ]
    },
    {
      "id": 746,
      "plugin": "GrandeModular",
      "version": "1.9.0",
      "model": "MergeSplit4",
      "params": [],
      "leftModuleId": 744,
      "rightModuleId": 747,
      "data": {
        "channels_merge": -1
      },
      "pos": [
        77,
        0
      ]
    },
    {
      "id": 747,
      "plugin": "Bogaudio",
      "version": "1.1.37",
      "model": "Bogaudio-AD",
      "params": [
        {
          "id": 0,
          "value": 0.204421014
        },
        {
          "id": 1,
          "value": 0.424230039
        },
        {
          "id": 2,
          "value": 0.0
        },
        {
          "id": 3,
          "value": 0.0
        },
        {
          "id": 4,
          "value": 1.0
        }
      ],
      "leftModuleId": 746,
      "rightModuleId": 748,
      "data": {
        "invert": 1.0
      },
      "pos": [
        79,
        0
      ]
    },
    {
      "id": 748,
      "plugin": "Bogaudio",
      "version": "1.1.37",
      "model": "Bogaudio-AddrSeq",
      "params": [
        {
          "id": 0,
          "value": 4.28299999
        },
        {
          "id": 1,
          "value": 1.0
        },
        {
          "id": 2,
          "value": 0.0
        },
        {
          "id": 3,
          "value": 0.0
        },
        {
          "id": 4,
          "value": 0.128999993
        },
        {
          "id": 5,
          "value": 0.180000022
        },
        {
          "id": 6,
          "value": 0.261000037
        },
        {
          "id": 7,
          "value": 0.0
        },
        {
          "id": 8,
          "value": 0.0
        },
        {
          "id": 9,
          "value": 0.0
        },
        {
          "id": 10,
          "value": 0.0
        }
      ],
      "leftModuleId": 747,
      "rightModuleId": 749,
      "data": {
        "poly_input": 0,
        "select_on_clock": false,
        "triggered_select": false,
        "reverse_on_negative_clock": false,
        "range_offset": 0.0,
        "range_scale": 10.0
      },
      "pos": [
        82,
        0
      ]
    },
    {
      "id": 749,
      "plugin": "Bogaudio",
      "version": "1.1.37",
      "model": "Bogaudio-RGate",
      "params": [
        {
          "id": 0,
          "value": 0.146999985
        },
        {
          "id": 1,
          "value": 0.225000083
        },
        {
          "id": 2,
          "value": 0.0
        }
      ],
      "leftModuleId": 748,
      "rightModuleId": 770,
      "data": {
        "range_offset": 1.0,
        "range_scale": 5.0,
        "reset_mode": 0,
        "initial_clock_seconds": 0.5,
        "poly_input": 4
      },
      "pos": [
        88,
        0
      ]
    },
    {
      "id": 750,
      "plugin": "Geodesics",
      "version": "1.2.0",
      "model": "Branes",
      "params": [
        {
          "id": 0,
          "value": 0.0
        },
        {
          "id": 1,
          "value": 0.0
        },
        {
          "id": 2,
          "value": 0.0
        },
        {
          "id": 3,
          "value": 0.0
        }
      ],
      "leftModuleId": 766,
      "rightModuleId": 764,
      "data": {
        "panelTheme": 1,
        "vibrations0": 0,
        "vibrations1": 0,
        "noiseRange0": 1.0,
        "noiseRange1": 1.0
      },
      "pos": [
        82,
        2
      ]
    },
    {
      "id": 751,
      "plugin": "GrandeModular",
      "version": "1.9.0",
      "model": "MergeSplit4",
      "params": [],
      "leftModuleId": 736,
      "rightModuleId": 360,
      "data": {
        "channels_merge": -1
      },
      "pos": [
        95,
        1
      ]
    },
    {
      "id": 752,
      "plugin": "Geodesics",
      "version": "1.2.0",
      "model": "BlackHoles",
      "params": [
        {
          "id": 0,
          "value": 0.702999949
        },
        {
          "id": 1,
          "value": 0.768999934
        },
        {
          "id": 2,
          "value": 1.0
        },
        {
          "id": 3,
          "value": -0.0390000194
        },
        {
          "id": 4,
          "value": 0.0
        },
        {
          "id": 5,
          "value": 0.0
        },
        {
          "id": 6,
          "value": 0.0
        },
        {
          "id": 7,
          "value": 0.0
        },
        {
          "id": 8,
          "value": 0.0
        },
        {
          "id": 9,
          "value": 0.0
        },
        {
          "id": 10,
          "value": 0.0
        },
        {
          "id": 11,
          "value": 0.0
        },
        {
          "id": 12,
          "value": 0.0
        }
      ],
      "leftModuleId": 759,
      "rightModuleId": 760,
      "data": {
        "panelTheme": 1,
        "isExponential0": 0.0,
        "isExponential1": 0.0,
        "wormhole": true,
        "cvMode": 3
      },
      "pos": [
        53,
        2
      ]
    },
    {
      "id": 753,
      "plugin": "Geodesics",
      "version": "1.2.0",
      "model": "Pulsars",
      "params": [
        {
          "id": 0,
          "value": 0.0
        },
        {
          "id": 1,
          "value": 0.0
        },
        {
          "id": 2,
          "value": 0.0
        },
        {
          "id": 3,
          "value": 0.0
        },
        {
          "id": 4,
          "value": 0.0
        },
        {
          "id": 5,
          "value": 0.0
        },
        {
          "id": 6,
          "value": 0.0
        },
        {
          "id": 7,
          "value": 0.0
        }
      ],
      "leftModuleId": 768,
      "rightModuleId": 754,
      "data": {
        "panelTheme": 1,
        "isVoid0": 0.0,
        "isVoid1": 0.0,
        "isReverse0": 0.0,
        "isReverse1": 0.0,
        "isRandom0": 0.0,
        "isRandom1": 0.0,
        "cvMode0": 0,
        "cvMode1": 0
      },
      "pos": [
        4,
        2
      ]
    },
    {
      "id": 754,
      "plugin": "AudibleInstruments",
      "version": "1.5.0",
      "model": "Branches",
      "params": [
        {
          "id": 0,
          "value": 0.5
        },
        {
          "id": 1,
          "value": 0.271999985
        },
        {
          "id": 2,
          "value": 0.0
        },
        {
          "id": 3,
          "value": 0.0
        }
      ],
      "leftModuleId": 753,
      "rightModuleId": 755,
      "data": {
        "modes": [
          true,
          false
        ]
      },
      "pos": [
        15,
        2
      ]
    },
    {
      "id": 755,
      "plugin": "Bogaudio",
      "version": "1.1.37",
      "model": "Bogaudio-RGate",
      "params": [
        {
          "id": 0,
          "value": 0.110000022
        },
        {
          "id": 1,
          "value": 0.0
        },
        {
          "id": 2,
          "value": 0.106500007
        }
      ],
      "leftModuleId": 754,
      "rightModuleId": 756,
      "data": {
        "range_offset": 1.0,
        "range_scale": 5.0,
        "reset_mode": 0,
        "initial_clock_seconds": 0.5,
        "poly_input": 4
      },
      "pos": [
        21,
        2
      ]
    },
    {
      "id": 756,
      "plugin": "Bogaudio",
      "version": "1.1.37",
      "model": "Bogaudio-LLFO",
      "params": [
        {
          "id": 0,
          "value": -2.22300029
        },
        {
          "id": 1,
          "value": 0.0
        },
        {
          "id": 2,
          "value": 0.0
        },
        {
          "id": 3,
          "value": 0.0
        },
        {
          "id": 4,
          "value": 1.0
        }
      ],
      "leftModuleId": 755,
      "rightModuleId": 762,
      "data": {
        "output_sampling": 0.0,
        "pulse_width": -0.851063788,
        "smoothing": 0.0
      },
      "pos": [
        26,
        2
      ]
    },
    {
      "id": 758,
      "plugin": "Hora-treasureFree",
      "version": "1.0.3",
      "model": "HiHat",
      "params": [
        {
          "id": 0,
          "value": 0.5
        },
        {
          "id": 1,
          "value": 0.600000024
        },
        {
          "id": 2,
          "value": 0.730440021
        },
        {
          "id": 3,
          "value": 0.0
        },
        {
          "id": 4,
          "value": 0.0
        },
        {
          "id": 5,
          "value": 0.0
        },
        {
          "id": 6,
          "value": 1.25049996
        },
        {
          "id": 7,
          "value": 0.800000012
        },
        {
          "id": 8,
          "value": 0.800000012
        },
        {
          "id": 9,
          "value": 0.600000024
        },
        {
          "id": 10,
          "value": 0.100000001
        },
        {
          "id": 11,
          "value": 0.421000004
        }
      ],
      "leftModuleId": 762,
      "rightModuleId": 759,
      "pos": [
        37,
        2
      ]
    },
    {
      "id": 759,
      "plugin": "Hora-treasureFree",
      "version": "1.0.3",
      "model": "SnareDrum-VCV",
      "params": [
        {
          "id": 0,
          "value": 0.5
        },
        {
          "id": 1,
          "value": 1500.0
        },
        {
          "id": 2,
          "value": 0.0
        },
        {
          "id": 3,
          "value": 0.0
        },
        {
          "id": 4,
          "value": 0.00999999978
        },
        {
          "id": 5,
          "value": 0.805000007
        },
        {
          "id": 6,
          "value": 0.800000012
        },
        {
          "id": 7,
          "value": 0.0
        },
        {
          "id": 8,
          "value": 0.50999999
        },
        {
          "id": 9,
          "value": 0.677399993
        },
        {
          "id": 10,
          "value": 0.800000012
        },
        {
          "id": 11,
          "value": 0.800000012
        },
        {
          "id": 12,
          "value": 0.0
        },
        {
          "id": 13,
          "value": 0.583000004
        }
      ],
      "leftModuleId": 758,
      "rightModuleId": 752,
      "pos": [
        45,
        2
      ]
    },
    {
      "id": 760,
      "plugin": "Bogaudio",
      "version": "1.1.37",
      "model": "Bogaudio-RGate",
      "params": [
        {
          "id": 0,
          "value": 0.0
        },
        {
          "id": 1,
          "value": 0.0
        },
        {
          "id": 2,
          "value": 0.167999998
        }
      ],
      "leftModuleId": 752,
      "rightModuleId": 763,
      "data": {
        "range_offset": 1.0,
        "range_scale": 5.0,
        "reset_mode": 0,
        "initial_clock_seconds": 0.5,
        "poly_input": 4
      },
      "pos": [
        64,
        2
      ]
    },
    {
      "id": 762,
      "plugin": "Hora-treasureFree",
      "version": "1.0.3",
      "model": "Deep",
      "params": [
        {
          "id": 0,
          "value": 0.850000024
        },
        {
          "id": 1,
          "value": 0.980000019
        },
        {
          "id": 2,
          "value": 0.0
        },
        {
          "id": 3,
          "value": 0.319999993
        },
        {
          "id": 4,
          "value": 0.800000012
        },
        {
          "id": 5,
          "value": 0.555000007
        },
        {
          "id": 6,
          "value": 3.5
        },
        {
          "id": 7,
          "value": 0.563100159
        },
        {
          "id": 8,
          "value": 0.800000012
        },
        {
          "id": 9,
          "value": 0.196200043
        },
        {
          "id": 10,
          "value": 0.0
        },
        {
          "id": 11,
          "value": 0.757775068
        },
        {
          "id": 12,
          "value": 0.514800012
        },
        {
          "id": 13,
          "value": 0.0
        }
      ],
      "leftModuleId": 756,
      "rightModuleId": 758,
      "pos": [
        29,
        2
      ]
    },
    {
      "id": 763,
      "plugin": "Bogaudio",
      "version": "1.1.37",
      "model": "Bogaudio-RGate",
      "params": [
        {
          "id": 0,
          "value": 0.0649999604
        },
        {
          "id": 1,
          "value": 0.0
        },
        {
          "id": 2,
          "value": 0.139499977
        }
      ],
      "leftModuleId": 760,
      "rightModuleId": 766,
      "data": {
        "range_offset": 1.0,
        "range_scale": 5.0,
        "reset_mode": 0,
        "initial_clock_seconds": 0.5,
        "poly_input": 4
      },
      "pos": [
        69,
        2
      ]
    },
    {
      "id": 764,
      "plugin": "Instruo",
      "version": "1.1.0",
      "model": "ochd",
      "params": [
        {
          "id": 0,
          "value": 0.519499958
        },
        {
          "id": 1,
          "value": 0.0
        }
      ],
      "leftModuleId": 750,
      "rightModuleId": 362,
      "data": {
        "deviations": {
          "lfos": [
            {
              "amplitude": 5.5,
              "frequency": {
                "maximum": 154.699997,
                "minimum": 0.147,
                "absMinimum": 0.000294000027,
                "absMaximum": 160.887985
              }
            },
            {
              "amplitude": 5.5,
              "frequency": {
                "maximum": 84.7399979,
                "minimum": 0.0816000029,
                "absMinimum": 0.00016320002,
                "absMaximum": 88.1295929
              }
            },
            {
              "amplitude": 5.5,
              "frequency": {
                "maximum": 42.2599983,
                "minimum": 0.0417000018,
                "absMinimum": 8.34000093e-5,
                "absMaximum": 43.9503975
              }
            },
            {
              "amplitude": 5.5,
              "frequency": {
                "maximum": 22.0100002,
                "minimum": 0.0221999995,
                "absMinimum": 4.43999998e-5,
                "absMaximum": 22.8903999
              }
            },
            {
              "amplitude": 5.5,
              "frequency": {
                "maximum": 10.3699999,
                "minimum": 0.0102000004,
                "absMinimum": 2.04000025e-5,
                "absMaximum": 10.7847996
              }
            },
            {
              "amplitude": 5.5,
              "frequency": {
                "maximum": 4.69999981,
                "minimum": 0.00505999988,
                "absMinimum": 1.01200003e-5,
                "absMaximum": 4.88799953
              }
            },
            {
              "amplitude": 5.5,
              "frequency": {
                "maximum": 2.11999989,
                "minimum": 0.00212999992,
                "absMinimum": 4.25999997e-6,
                "absMaximum": 2.20479989
              }
            },
            {
              "amplitude": 5.5,
              "frequency": {
                "maximum": 1.00999999,
                "minimum": 0.00100000005,
                "absMinimum": 2.00000022e-6,
                "absMaximum": 1.0503999
              }
            }
          ]
        }
      },
      "pos": [
        93,
        2
      ]
    },
    {
      "id": 766,
      "plugin": "Fundamental",
      "version": "1.4.0",
      "model": "8vert",
      "params": [
        {
          "id": 0,
          "value": 0.305999905
        },
        {
          "id": 1,
          "value": 0.468000084
        },
        {
          "id": 2,
          "value": 0.255000174
        },
        {
          "id": 3,
          "value": -0.227999926
        },
        {
          "id": 4,
          "value": 0.194999993
        },
        {
          "id": 5,
          "value": 0.0
        },
        {
          "id": 6,
          "value": 0.0
        },
        {
          "id": 7,
          "value": 0.0
        }
      ],
      "leftModuleId": 763,
      "rightModuleId": 750,
      "pos": [
        74,
        2
      ]
    },
    {
      "id": 768,
      "plugin": "LindenbergResearch",
      "version": "1.3.3",
      "model": "BlankPanel_Wood",
      "params": [],
      "rightModuleId": 753,
      "gestaltID": 1,
      "gradient": false,
      "patina": false,
      "patina_i_x": true,
      "patina_i_y": false,
      "patina_a_x": 732.980896,
      "patina_a_y": 232.628174,
      "overlay": false,
      "overlay_r": 0.438362002,
      "overlay_g": 0.886635661,
      "overlay_b": 0.839421749,
      "overlay_a": 0.368892878,
      "AGED": false,
      "screws": true,
      "logo": false,
      "pos": [
        0,
        2
      ]
    },
    {
      "id": 769,
      "plugin": "LindenbergResearch",
      "version": "1.3.3",
      "model": "BlankPanel_Wood",
      "params": [],
      "leftModuleId": 770,
      "gestaltID": 1,
      "gradient": false,
      "patina": false,
      "patina_i_x": false,
      "patina_i_y": false,
      "patina_a_x": 1048.69849,
      "patina_a_y": 465.392822,
      "overlay": false,
      "overlay_r": 0.56876111,
      "overlay_g": 0.885241628,
      "overlay_b": 0.700579405,
      "overlay_a": 0.308305085,
      "AGED": false,
      "screws": true,
      "logo": false,
      "pos": [
        97,
        0
      ]
    },
    {
      "id": 770,
      "plugin": "Geodesics",
      "version": "1.2.0",
      "model": "Blank-PanelLogo",
      "params": [
        {
          "id": 0,
          "value": 1.0
        }
      ],
      "leftModuleId": 749,
      "rightModuleId": 769,
      "data": {
        "panelTheme": 1
      },
      "pos": [
        93,
        0
      ]
    }
  ],
  "cables": [
    {
      "id": 1053,
      "outputModuleId": 375,
      "outputId": 0,
      "inputModuleId": 1,
      "inputId": 0,
      "color": "#db6443"
    },
    {
      "id": 1054,
      "outputModuleId": 375,
      "outputId": 1,
      "inputModuleId": 1,
      "inputId": 1,
      "color": "#db6443"
    },
    {
      "id": 1063,
      "outputModuleId": 375,
      "outputId": 10,
      "inputModuleId": 384,
      "inputId": 0,
      "color": "#db6443"
    },
    {
      "id": 1064,
      "outputModuleId": 375,
      "outputId": 11,
      "inputModuleId": 384,
      "inputId": 1,
      "color": "#db6443"
    },
    {
      "id": 1065,
      "outputModuleId": 384,
      "outputId": 0,
      "inputModuleId": 375,
      "inputId": 34,
      "color": "#e07a5f"
    },
    {
      "id": 1066,
      "outputModuleId": 384,
      "outputId": 1,
      "inputModuleId": 375,
      "inputId": 35,
      "color": "#db6443"
    },
    {
      "id": 1242,
      "outputModuleId": 648,
      "outputId": 4,
      "inputModuleId": 734,
      "inputId": 4,
      "color": "#3d405b"
    },
    {
      "id": 1243,
      "outputModuleId": 648,
      "outputId": 1,
      "inputModuleId": 735,
      "inputId": 0,
      "color": "#3d405b"
    },
    {
      "id": 1244,
      "outputModuleId": 648,
      "outputId": 4,
      "inputModuleId": 735,
      "inputId": 1,
      "color": "#3d405b"
    },
    {
      "id": 1249,
      "outputModuleId": 735,
      "outputId": 0,
      "inputModuleId": 734,
      "inputId": 1,
      "color": "#3d405b"
    },
    {
      "id": 1250,
      "outputModuleId": 735,
      "outputId": 1,
      "inputModuleId": 734,
      "inputId": 2,
      "color": "#3d405b"
    },
    {
      "id": 1253,
      "outputModuleId": 737,
      "outputId": 0,
      "inputModuleId": 732,
      "inputId": 1,
      "color": "#e0d8a3"
    },
    {
      "id": 1254,
      "outputModuleId": 737,
      "outputId": 2,
      "inputModuleId": 732,
      "inputId": 2,
      "color": "#e0d8a3"
    },
    {
      "id": 1257,
      "outputModuleId": 732,
      "outputId": 0,
      "inputModuleId": 730,
      "inputId": 0,
      "color": "#e0d8a3"
    },
    {
      "id": 1259,
      "outputModuleId": 736,
      "outputId": 0,
      "inputModuleId": 732,
      "inputId": 0,
      "color": "#e07a5f"
    },
    {
      "id": 1260,
      "outputModuleId": 732,
      "outputId": 1,
      "inputModuleId": 375,
      "inputId": 0,
      "color": "#e07a5f"
    },
    {
      "id": 1261,
      "outputModuleId": 732,
      "outputId": 2,
      "inputModuleId": 375,
      "inputId": 1,
      "color": "#e07a5f"
    },
    {
      "id": 1262,
      "outputModuleId": 732,
      "outputId": 3,
      "inputModuleId": 375,
      "inputId": 2,
      "color": "#e07a5f"
    },
    {
      "id": 1263,
      "outputModuleId": 732,
      "outputId": 4,
      "inputModuleId": 375,
      "inputId": 3,
      "color": "#e07a5f"
    },
    {
      "id": 1265,
      "outputModuleId": 737,
      "outputId": 1,
      "inputModuleId": 738,
      "inputId": 0,
      "color": "#3d405b"
    },
    {
      "id": 1267,
      "outputModuleId": 734,
      "outputId": 0,
      "inputModuleId": 739,
      "inputId": 2,
      "color": "#e0d8a3"
    },
    {
      "id": 1268,
      "outputModuleId": 737,
      "outputId": 3,
      "inputModuleId": 732,
      "inputId": 4,
      "color": "#e0d8a3"
    },
    {
      "id": 1269,
      "outputModuleId": 739,
      "outputId": 0,
      "inputModuleId": 737,
      "inputId": 0,
      "color": "#e0d8a3"
    },
    {
      "id": 1266,
      "outputModuleId": 738,
      "outputId": 0,
      "inputModuleId": 732,
      "inputId": 3,
      "color": "#e0d8a3"
    },
    {
      "id": 1274,
      "outputModuleId": 730,
      "outputId": 0,
      "inputModuleId": 736,
      "inputId": 2,
      "color": "#e07a5f"
    },
    {
      "id": 1275,
      "outputModuleId": 734,
      "outputId": 1,
      "inputModuleId": 730,
      "inputId": 1,
      "color": "#e0d8a3"
    },
    {
      "id": 1276,
      "outputModuleId": 730,
      "outputId": 1,
      "inputModuleId": 742,
      "inputId": 0,
      "color": "#e0d8a3"
    },
    {
      "id": 1277,
      "outputModuleId": 730,
      "outputId": 2,
      "inputModuleId": 743,
      "inputId": 0,
      "color": "#e0d8a3"
    },
    {
      "id": 1278,
      "outputModuleId": 743,
      "outputId": 0,
      "inputModuleId": 742,
      "inputId": 2,
      "color": "#e07a5f"
    },
    {
      "id": 1279,
      "outputModuleId": 742,
      "outputId": 0,
      "inputModuleId": 375,
      "inputId": 4,
      "color": "#e07a5f"
    },
    {
      "id": 1280,
      "outputModuleId": 648,
      "outputId": 2,
      "inputModuleId": 745,
      "inputId": 0,
      "color": "#3d405b"
    },
    {
      "id": 1281,
      "outputModuleId": 648,
      "outputId": 4,
      "inputModuleId": 745,
      "inputId": 1,
      "color": "#3d405b"
    },
    {
      "id": 1282,
      "outputModuleId": 745,
      "outputId": 0,
      "inputModuleId": 744,
      "inputId": 38,
      "color": "#3d405b"
    },
    {
      "id": 1283,
      "outputModuleId": 745,
      "outputId": 1,
      "inputModuleId": 744,
      "inputId": 39,
      "color": "#3d405b"
    },
    {
      "id": 1284,
      "outputModuleId": 745,
      "outputId": 2,
      "inputModuleId": 744,
      "inputId": 40,
      "color": "#3d405b"
    },
    {
      "id": 1285,
      "outputModuleId": 745,
      "outputId": 3,
      "inputModuleId": 744,
      "inputId": 41,
      "color": "#3d405b"
    },
    {
      "id": 1286,
      "outputModuleId": 744,
      "outputId": 2,
      "inputModuleId": 746,
      "inputId": 0,
      "color": "#81b29a"
    },
    {
      "id": 1287,
      "outputModuleId": 744,
      "outputId": 3,
      "inputModuleId": 746,
      "inputId": 1,
      "color": "#81b29a"
    },
    {
      "id": 1288,
      "outputModuleId": 744,
      "outputId": 4,
      "inputModuleId": 746,
      "inputId": 2,
      "color": "#81b29a"
    },
    {
      "id": 1289,
      "outputModuleId": 744,
      "outputId": 5,
      "inputModuleId": 746,
      "inputId": 3,
      "color": "#81b29a"
    },
    {
      "id": 1291,
      "outputModuleId": 748,
      "outputId": 0,
      "inputModuleId": 730,
      "inputId": 9,
      "color": "#81b29a"
    },
    {
      "id": 1292,
      "outputModuleId": 746,
      "outputId": 0,
      "inputModuleId": 736,
      "inputId": 3,
      "color": "#81b29a"
    },
    {
      "id": 1294,
      "outputModuleId": 747,
      "outputId": 0,
      "inputModuleId": 375,
      "inputId": 12,
      "color": "#81b29a"
    },
    {
      "id": 1295,
      "outputModuleId": 749,
      "outputId": 0,
      "inputModuleId": 748,
      "inputId": 0,
      "color": "#e0d8a3"
    },
    {
      "id": 1298,
      "outputModuleId": 745,
      "outputId": 2,
      "inputModuleId": 750,
      "inputId": 14,
      "color": "#3d405b"
    },
    {
      "id": 1299,
      "outputModuleId": 750,
      "outputId": 2,
      "inputModuleId": 375,
      "inputId": 19,
      "color": "#81b29a"
    },
    {
      "id": 1300,
      "outputModuleId": 750,
      "outputId": 1,
      "inputModuleId": 375,
      "inputId": 20,
      "color": "#81b29a"
    },
    {
      "id": 1302,
      "outputModuleId": 750,
      "outputId": 2,
      "inputModuleId": 751,
      "inputId": 0,
      "color": "#81b29a"
    },
    {
      "id": 1303,
      "outputModuleId": 750,
      "outputId": 1,
      "inputModuleId": 751,
      "inputId": 1,
      "color": "#81b29a"
    },
    {
      "id": 1304,
      "outputModuleId": 750,
      "outputId": 0,
      "inputModuleId": 751,
      "inputId": 2,
      "color": "#81b29a"
    },
    {
      "id": 1305,
      "outputModuleId": 750,
      "outputId": 3,
      "inputModuleId": 751,
      "inputId": 3,
      "color": "#81b29a"
    },
    {
      "id": 1306,
      "outputModuleId": 751,
      "outputId": 0,
      "inputModuleId": 736,
      "inputId": 5,
      "color": "#81b29a"
    },
    {
      "id": 1307,
      "outputModuleId": 735,
      "outputId": 5,
      "inputModuleId": 749,
      "inputId": 4,
      "color": "#3d405b"
    },
    {
      "id": 1308,
      "outputModuleId": 752,
      "outputId": 8,
      "inputModuleId": 375,
      "inputId": 5,
      "color": "#e07a5f"
    },
    {
      "id": 1309,
      "outputModuleId": 745,
      "outputId": 1,
      "inputModuleId": 753,
      "inputId": 0,
      "color": "#3d405b"
    },
    {
      "id": 1310,
      "outputModuleId": 745,
      "outputId": 0,
      "inputModuleId": 753,
      "inputId": 1,
      "color": "#3d405b"
    },
    {
      "id": 1311,
      "outputModuleId": 735,
      "outputId": 0,
      "inputModuleId": 753,
      "inputId": 2,
      "color": "#3d405b"
    },
    {
      "id": 1312,
      "outputModuleId": 745,
      "outputId": 2,
      "inputModuleId": 753,
      "inputId": 3,
      "color": "#3d405b"
    },
    {
      "id": 1313,
      "outputModuleId": 745,
      "outputId": 1,
      "inputModuleId": 755,
      "inputId": 4,
      "color": "#3d405b"
    },
    {
      "id": 1314,
      "outputModuleId": 755,
      "outputId": 0,
      "inputModuleId": 753,
      "inputId": 4,
      "color": "#3d405b"
    },
    {
      "id": 1315,
      "outputModuleId": 756,
      "outputId": 0,
      "inputModuleId": 753,
      "inputId": 9,
      "color": "#e0d8a3"
    },
    {
      "id": 1316,
      "outputModuleId": 753,
      "outputId": 0,
      "inputModuleId": 754,
      "inputId": 0,
      "color": "#3d405b"
    },
    {
      "id": 1319,
      "outputModuleId": 754,
      "outputId": 3,
      "inputModuleId": 758,
      "inputId": 1,
      "color": "#3d405b"
    },
    {
      "id": 1320,
      "outputModuleId": 758,
      "outputId": 2,
      "inputModuleId": 752,
      "inputId": 0,
      "color": "#e07a5f"
    },
    {
      "id": 1323,
      "outputModuleId": 754,
      "outputId": 2,
      "inputModuleId": 759,
      "inputId": 0,
      "color": "#3d405b"
    },
    {
      "id": 1324,
      "outputModuleId": 759,
      "outputId": 2,
      "inputModuleId": 752,
      "inputId": 2,
      "color": "#e07a5f"
    },
    {
      "id": 1325,
      "outputModuleId": 745,
      "outputId": 0,
      "inputModuleId": 750,
      "inputId": 15,
      "color": "#3d405b"
    },
    {
      "id": 1326,
      "outputModuleId": 750,
      "outputId": 11,
      "inputModuleId": 752,
      "inputId": 8,
      "color": "#81b29a"
    },
    {
      "id": 1327,
      "outputModuleId": 750,
      "outputId": 12,
      "inputModuleId": 752,
      "inputId": 10,
      "color": "#81b29a"
    },
    {
      "id": 1331,
      "outputModuleId": 754,
      "outputId": 0,
      "inputModuleId": 762,
      "inputId": 0,
      "color": "#3d405b"
    },
    {
      "id": 1332,
      "outputModuleId": 762,
      "outputId": 2,
      "inputModuleId": 752,
      "inputId": 1,
      "color": "#e07a5f"
    },
    {
      "id": 1335,
      "outputModuleId": 750,
      "outputId": 4,
      "inputModuleId": 762,
      "inputId": 3,
      "color": "#81b29a"
    },
    {
      "id": 1336,
      "outputModuleId": 754,
      "outputId": 1,
      "inputModuleId": 760,
      "inputId": 4,
      "color": "#3d405b"
    },
    {
      "id": 1337,
      "outputModuleId": 760,
      "outputId": 0,
      "inputModuleId": 758,
      "inputId": 0,
      "color": "#3d405b"
    },
    {
      "id": 1338,
      "outputModuleId": 750,
      "outputId": 5,
      "inputModuleId": 760,
      "inputId": 3,
      "color": "#81b29a"
    },
    {
      "id": 1339,
      "outputModuleId": 750,
      "outputId": 13,
      "inputModuleId": 752,
      "inputId": 9,
      "color": "#81b29a"
    },
    {
      "id": 1341,
      "outputModuleId": 750,
      "outputId": 6,
      "inputModuleId": 763,
      "inputId": 3,
      "color": "#81b29a"
    },
    {
      "id": 1342,
      "outputModuleId": 745,
      "outputId": 1,
      "inputModuleId": 763,
      "inputId": 4,
      "color": "#3d405b"
    },
    {
      "id": 1343,
      "outputModuleId": 763,
      "outputId": 0,
      "inputModuleId": 753,
      "inputId": 5,
      "color": "#3d405b"
    },
    {
      "id": 1344,
      "outputModuleId": 764,
      "outputId": 3,
      "inputModuleId": 766,
      "inputId": 0,
      "color": "#81b29a"
    },
    {
      "id": 1345,
      "outputModuleId": 764,
      "outputId": 4,
      "inputModuleId": 766,
      "inputId": 1,
      "color": "#81b29a"
    },
    {
      "id": 1346,
      "outputModuleId": 764,
      "outputId": 5,
      "inputModuleId": 766,
      "inputId": 2,
      "color": "#81b29a"
    },
    {
      "id": 1347,
      "outputModuleId": 764,
      "outputId": 6,
      "inputModuleId": 766,
      "inputId": 3,
      "color": "#81b29a"
    },
    {
      "id": 1348,
      "outputModuleId": 766,
      "outputId": 0,
      "inputModuleId": 744,
      "inputId": 21,
      "color": "#81b29a"
    },
    {
      "id": 1349,
      "outputModuleId": 766,
      "outputId": 1,
      "inputModuleId": 744,
      "inputId": 22,
      "color": "#81b29a"
    },
    {
      "id": 1350,
      "outputModuleId": 766,
      "outputId": 2,
      "inputModuleId": 744,
      "inputId": 23,
      "color": "#81b29a"
    },
    {
      "id": 1351,
      "outputModuleId": 766,
      "outputId": 3,
      "inputModuleId": 744,
      "inputId": 24,
      "color": "#81b29a"
    },
    {
      "id": 1352,
      "outputModuleId": 764,
      "outputId": 7,
      "inputModuleId": 766,
      "inputId": 4,
      "color": "#81b29a"
    },
    {
      "id": 1353,
      "outputModuleId": 766,
      "outputId": 4,
      "inputModuleId": 742,
      "inputId": 1,
      "color": "#81b29a"
    },
    {
      "id": 1357,
      "outputModuleId": 750,
      "outputId": 1,
      "inputModuleId": 375,
      "inputId": 16,
      "color": "#81b29a"
    },
    {
      "id": 1358,
      "outputModuleId": 750,
      "outputId": 0,
      "inputModuleId": 375,
      "inputId": 17,
      "color": "#81b29a"
    },
    {
      "id": 1359,
      "outputModuleId": 753,
      "outputId": 0,
      "inputModuleId": 734,
      "inputId": 0,
      "color": "#3d405b"
    },
    {
      "id": 1360,
      "outputModuleId": 753,
      "outputId": 0,
      "inputModuleId": 737,
      "inputId": 1,
      "color": "#3d405b"
    },
    {
      "id": 1361,
      "outputModuleId": 753,
      "outputId": 0,
      "inputModuleId": 739,
      "inputId": 1,
      "color": "#3d405b"
    },
    {
      "id": 1362,
      "outputModuleId": 735,
      "outputId": 1,
      "inputModuleId": 753,
      "inputId": 6,
      "color": "#3d405b"
    },
    {
      "id": 1363,
      "outputModuleId": 735,
      "outputId": 4,
      "inputModuleId": 753,
      "inputId": 7,
      "color": "#3d405b"
    },
    {
      "id": 1364,
      "outputModuleId": 734,
      "outputId": 2,
      "inputModuleId": 747,
      "inputId": 0,
      "color": "#3d405b"
    }
  ]
}