{
  "version": "1.1.6",
  "modules": [
    {
      "id": 1,
      "plugin": "Core",
      "version": "1.1.6",
      "model": "AudioInterface",
      "params": [],
      "leftModuleId": 375,
      "rightModuleId": 384,
      "data": {
        "audio": {
          "driver": 7,
          "deviceName": "Studio USB ASIO Driver",
          "offset": 0,
          "maxChannels": 8,
          "sampleRate": 48000,
          "blockSize": 256
        }
      },
      "pos": [
        40,
        0
      ]
    },
    {
      "id": 76,
      "plugin": "Stoermelder-P1",
      "version": "1.10.0",
      "model": "Mb",
      "params": [],
      "leftModuleId": 380,
      "rightModuleId": 79,
      "data": {
        "mode": 1
      },
      "pos": [
        6,
        0
      ]
    },
    {
      "id": 79,
      "plugin": "Stoermelder-P1",
      "version": "1.10.0",
      "model": "Stroke",
      "params": [],
      "leftModuleId": 76,
      "rightModuleId": 375,
      "data": {
        "panelTheme": 1,
        "keys": [
          {
            "button": -1,
            "key": 49,
            "mods": 0,
            "mode": 24,
            "high": false,
            "data": "#c9b70e"
          },
          {
            "button": -1,
            "key": 50,
            "mods": 0,
            "mode": 24,
            "high": false,
            "data": "#0c8e15"
          },
          {
            "button": -1,
            "key": 51,
            "mods": 0,
            "mode": 24,
            "high": false,
            "data": "#c91847"
          },
          {
            "button": -1,
            "key": 52,
            "mods": 0,
            "mode": 24,
            "high": false,
            "data": "#364449"
          },
          {
            "button": -1,
            "key": -1,
            "mods": 0,
            "mode": 1,
            "high": false,
            "data": ""
          },
          {
            "button": -1,
            "key": -1,
            "mods": 0,
            "mode": 1,
            "high": false,
            "data": ""
          },
          {
            "button": -1,
            "key": -1,
            "mods": 0,
            "mode": 1,
            "high": false,
            "data": ""
          },
          {
            "button": -1,
            "key": -1,
            "mods": 0,
            "mode": 1,
            "high": false,
            "data": ""
          },
          {
            "button": -1,
            "key": -1,
            "mods": 0,
            "mode": 1,
            "high": false,
            "data": ""
          },
          {
            "button": -1,
            "key": -1,
            "mods": 0,
            "mode": 1,
            "high": false,
            "data": ""
          }
        ]
      },
      "pos": [
        8,
        0
      ]
    },
    {
      "id": 360,
      "plugin": "LindenbergResearch",
      "version": "1.3.3",
      "model": "BlankPanel_Wood",
      "params": [],
      "leftModuleId": 463,
      "gestaltID": 1,
      "gradient": false,
      "patina": false,
      "patina_i_x": false,
      "patina_i_y": false,
      "patina_a_x": 1048.69849,
      "patina_a_y": 465.392822,
      "overlay": false,
      "overlay_r": 0.381588399,
      "overlay_g": 0.984871864,
      "overlay_b": 0.361863077,
      "overlay_a": 0.265206695,
      "AGED": false,
      "screws": true,
      "logo": false,
      "pos": [
        120,
        0
      ]
    },
    {
      "id": 362,
      "plugin": "LindenbergResearch",
      "version": "1.3.3",
      "model": "BlankPanel_Wood",
      "params": [],
      "leftModuleId": 455,
      "gestaltID": 1,
      "gradient": false,
      "patina": false,
      "patina_i_x": false,
      "patina_i_y": false,
      "patina_a_x": 1048.69849,
      "patina_a_y": 465.392822,
      "overlay": false,
      "overlay_r": 0.674636364,
      "overlay_g": 0.939366817,
      "overlay_b": 0.502913058,
      "overlay_a": 0.200441316,
      "AGED": false,
      "screws": true,
      "logo": false,
      "pos": [
        120,
        1
      ]
    },
    {
      "id": 364,
      "plugin": "LindenbergResearch",
      "version": "1.3.3",
      "model": "BlankPanel_Wood",
      "params": [],
      "rightModuleId": 380,
      "gestaltID": 1,
      "gradient": false,
      "patina": false,
      "patina_i_x": true,
      "patina_i_y": false,
      "patina_a_x": 732.980896,
      "patina_a_y": 232.628174,
      "overlay": false,
      "overlay_r": 0.493108749,
      "overlay_g": 0.240504861,
      "overlay_b": 0.620660663,
      "overlay_a": 0.264972866,
      "AGED": false,
      "screws": true,
      "logo": false,
      "pos": [
        0,
        0
      ]
    },
    {
      "id": 365,
      "plugin": "LindenbergResearch",
      "version": "1.3.3",
      "model": "BlankPanel_Wood",
      "params": [],
      "rightModuleId": 383,
      "gestaltID": 1,
      "gradient": false,
      "patina": false,
      "patina_i_x": true,
      "patina_i_y": false,
      "patina_a_x": 732.980896,
      "patina_a_y": 232.628174,
      "overlay": false,
      "overlay_r": 0.219422042,
      "overlay_g": 0.0910340548,
      "overlay_b": 0.631065071,
      "overlay_a": 0.163149014,
      "AGED": false,
      "screws": true,
      "logo": false,
      "pos": [
        0,
        1
      ]
    },
    {
      "id": 375,
      "plugin": "squinkylabs-plug1",
      "version": "1.0.22",
      "model": "squinkylabs-mix8",
      "params": [
        {
          "id": 0,
          "value": 0.800000012
        },
        {
          "id": 1,
          "value": 0.0
        },
        {
          "id": 2,
          "value": 0.800000012
        },
        {
          "id": 3,
          "value": 0.800000012
        },
        {
          "id": 4,
          "value": 0.800000012
        },
        {
          "id": 5,
          "value": 0.800000012
        },
        {
          "id": 6,
          "value": 0.800000012
        },
        {
          "id": 7,
          "value": 0.294499993
        },
        {
          "id": 8,
          "value": 0.800000012
        },
        {
          "id": 9,
          "value": 0.800000012
        },
        {
          "id": 10,
          "value": -1.0
        },
        {
          "id": 11,
          "value": -0.234000012
        },
        {
          "id": 12,
          "value": 0.192000002
        },
        {
          "id": 13,
          "value": 0.788999915
        },
        {
          "id": 14,
          "value": 0.0
        },
        {
          "id": 15,
          "value": 0.0
        },
        {
          "id": 16,
          "value": 0.0
        },
        {
          "id": 17,
          "value": 0.0
        },
        {
          "id": 18,
          "value": 0.0
        },
        {
          "id": 19,
          "value": 0.0
        },
        {
          "id": 20,
          "value": 0.0
        },
        {
          "id": 21,
          "value": 0.0
        },
        {
          "id": 22,
          "value": 0.0
        },
        {
          "id": 23,
          "value": 0.0
        },
        {
          "id": 24,
          "value": 0.0
        },
        {
          "id": 25,
          "value": 0.0
        },
        {
          "id": 26,
          "value": 0.0
        },
        {
          "id": 27,
          "value": 0.0
        },
        {
          "id": 28,
          "value": 0.0
        },
        {
          "id": 29,
          "value": 0.0
        },
        {
          "id": 30,
          "value": 0.0
        },
        {
          "id": 31,
          "value": 0.0
        },
        {
          "id": 32,
          "value": 0.0
        },
        {
          "id": 33,
          "value": 0.0
        },
        {
          "id": 34,
          "value": 0.308999985
        },
        {
          "id": 35,
          "value": 0.371999949
        },
        {
          "id": 36,
          "value": 0.297000021
        },
        {
          "id": 37,
          "value": 0.418500036
        },
        {
          "id": 38,
          "value": 0.0
        },
        {
          "id": 39,
          "value": 0.0
        },
        {
          "id": 40,
          "value": 0.0
        },
        {
          "id": 41,
          "value": 0.0
        },
        {
          "id": 42,
          "value": 1.0
        }
      ],
      "leftModuleId": 79,
      "rightModuleId": 1,
      "pos": [
        14,
        0
      ]
    },
    {
      "id": 380,
      "plugin": "Stoermelder-P1",
      "version": "1.10.0",
      "model": "Me",
      "params": [],
      "leftModuleId": 364,
      "rightModuleId": 76,
      "pos": [
        4,
        0
      ]
    },
    {
      "id": 383,
      "plugin": "ImpromptuModular",
      "version": "1.1.12",
      "model": "Clocked",
      "params": [
        {
          "id": 0,
          "value": 120.0
        },
        {
          "id": 1,
          "value": 2.0
        },
        {
          "id": 2,
          "value": 5.0
        },
        {
          "id": 3,
          "value": -17.0
        },
        {
          "id": 4,
          "value": 0.0
        },
        {
          "id": 5,
          "value": 0.0
        },
        {
          "id": 6,
          "value": 0.0
        },
        {
          "id": 7,
          "value": 0.0
        },
        {
          "id": 8,
          "value": 0.5
        },
        {
          "id": 9,
          "value": 0.5
        },
        {
          "id": 10,
          "value": 0.5
        },
        {
          "id": 11,
          "value": 0.5
        },
        {
          "id": 12,
          "value": 0.0
        },
        {
          "id": 13,
          "value": 0.0
        },
        {
          "id": 14,
          "value": 0.0
        },
        {
          "id": 15,
          "value": 0.0
        },
        {
          "id": 16,
          "value": 0.0
        },
        {
          "id": 17,
          "value": 0.0
        },
        {
          "id": 18,
          "value": 0.0
        },
        {
          "id": 19,
          "value": 0.0
        }
      ],
      "leftModuleId": 365,
      "rightModuleId": 418,
      "data": {
        "panelTheme": 1,
        "running": true,
        "displayDelayNoteMode": true,
        "bpmDetectionMode": false,
        "resetOnStartStop": 0,
        "ppqn": 4,
        "resetClockOutputsHigh": true,
        "momentaryRunInput": true,
        "clockMaster": false
      },
      "pos": [
        4,
        1
      ]
    },
    {
      "id": 384,
      "plugin": "Valley",
      "version": "1.1.7",
      "model": "Plateau",
      "params": [
        {
          "id": 0,
          "value": 0.0
        },
        {
          "id": 1,
          "value": 1.0
        },
        {
          "id": 2,
          "value": 0.0
        },
        {
          "id": 3,
          "value": 3.50499916
        },
        {
          "id": 4,
          "value": 9.32500076
        },
        {
          "id": 5,
          "value": 0.5
        },
        {
          "id": 6,
          "value": 10.0
        },
        {
          "id": 7,
          "value": 0.549950004
        },
        {
          "id": 8,
          "value": 10.0
        },
        {
          "id": 9,
          "value": 10.0
        },
        {
          "id": 10,
          "value": 0.0
        },
        {
          "id": 11,
          "value": 0.5
        },
        {
          "id": 12,
          "value": 0.5
        },
        {
          "id": 13,
          "value": 0.0
        },
        {
          "id": 14,
          "value": 0.0
        },
        {
          "id": 15,
          "value": 0.0
        },
        {
          "id": 16,
          "value": 0.0
        },
        {
          "id": 17,
          "value": 0.0
        },
        {
          "id": 18,
          "value": 0.0
        },
        {
          "id": 19,
          "value": 0.0
        },
        {
          "id": 20,
          "value": 0.0
        },
        {
          "id": 21,
          "value": 0.0
        },
        {
          "id": 22,
          "value": 0.0
        },
        {
          "id": 23,
          "value": 0.0
        },
        {
          "id": 24,
          "value": 0.0
        },
        {
          "id": 25,
          "value": 0.0
        },
        {
          "id": 26,
          "value": 0.0
        },
        {
          "id": 27,
          "value": 0.0
        },
        {
          "id": 28,
          "value": 0.0
        },
        {
          "id": 29,
          "value": 0.0
        },
        {
          "id": 30,
          "value": 1.0
        }
      ],
      "leftModuleId": 1,
      "rightModuleId": 431,
      "data": {
        "frozen": false,
        "freezeToggle": false,
        "panelStyle": 0,
        "tuned": 0,
        "diffuseInput": 1,
        "preDelayCVSens": 0,
        "inputSensitivity": 0,
        "outputSaturation": 0
      },
      "pos": [
        50,
        0
      ]
    },
    {
      "id": 415,
      "plugin": "Geodesics",
      "version": "1.2.0",
      "model": "Energy",
      "params": [
        {
          "id": 0,
          "value": 0.0
        },
        {
          "id": 1,
          "value": 0.0
        },
        {
          "id": 2,
          "value": 0.0
        },
        {
          "id": 3,
          "value": 0.0
        },
        {
          "id": 4,
          "value": 0.0
        },
        {
          "id": 5,
          "value": 0.0
        },
        {
          "id": 6,
          "value": 0.0
        },
        {
          "id": 7,
          "value": 0.0
        },
        {
          "id": 8,
          "value": 0.0
        },
        {
          "id": 9,
          "value": 0.0
        }
      ],
      "leftModuleId": 416,
      "rightModuleId": 425,
      "data": {
        "panelTheme": 1,
        "oscM_phase": 1793898176,
        "oscC_phase": 1793898176,
        "osc1M_phase": 778306112,
        "osc1C_phase": 778306112,
        "osc2M_phase": 2266508480,
        "osc2C_phase": 2266508480,
        "osc3M_phase": 1508418176,
        "osc3C_phase": 1508418176,
        "osc4M_phase": 0,
        "osc4C_phase": 0,
        "osc5M_phase": 0,
        "osc5C_phase": 0,
        "osc6M_phase": 0,
        "osc6C_phase": 0,
        "osc7M_phase": 0,
        "osc7C_phase": 0,
        "osc8M_phase": 0,
        "osc8C_phase": 0,
        "osc9M_phase": 0,
        "osc9C_phase": 0,
        "osc10M_phase": 0,
        "osc10C_phase": 0,
        "osc11M_phase": 0,
        "osc11C_phase": 0,
        "osc12M_phase": 0,
        "osc12C_phase": 0,
        "osc13M_phase": 0,
        "osc13C_phase": 0,
        "osc14M_phase": 0,
        "osc14C_phase": 0,
        "osc15M_phase": 0,
        "osc15C_phase": 0,
        "routing": 1,
        "planck0": 0,
        "planck1": 0,
        "modtype0": 1,
        "modtype1": 1,
        "cross": 0
      },
      "pos": [
        86,
        1
      ]
    },
    {
      "id": 416,
      "plugin": "GrandeModular",
      "version": "1.9.0",
      "model": "MergeSplit4",
      "params": [],
      "leftModuleId": 424,
      "rightModuleId": 415,
      "data": {
        "channels_merge": -1
      },
      "pos": [
        84,
        1
      ]
    },
    {
      "id": 417,
      "plugin": "Bogaudio",
      "version": "1.1.37",
      "model": "Bogaudio-AD",
      "params": [
        {
          "id": 0,
          "value": 0.0
        },
        {
          "id": 1,
          "value": 0.214229971
        },
        {
          "id": 2,
          "value": 0.0
        },
        {
          "id": 3,
          "value": 0.0
        },
        {
          "id": 4,
          "value": 1.0
        }
      ],
      "leftModuleId": 433,
      "rightModuleId": 429,
      "data": {
        "invert": 1.0
      },
      "pos": [
        105,
        1
      ]
    },
    {
      "id": 418,
      "plugin": "Geodesics",
      "version": "1.2.0",
      "model": "Ions",
      "params": [
        {
          "id": 0,
          "value": 0.0
        },
        {
          "id": 1,
          "value": 0.0
        },
        {
          "id": 2,
          "value": 0.624816895
        },
        {
          "id": 3,
          "value": 0.682319999
        },
        {
          "id": 4,
          "value": 0.946038604
        },
        {
          "id": 5,
          "value": 0.2204175
        },
        {
          "id": 6,
          "value": 0.212239802
        },
        {
          "id": 7,
          "value": 0.831660151
        },
        {
          "id": 8,
          "value": 0.285605729
        },
        {
          "id": 9,
          "value": 0.242693126
        },
        {
          "id": 10,
          "value": 0.28915596
        },
        {
          "id": 11,
          "value": 0.845816076
        },
        {
          "id": 12,
          "value": 0.348924339
        },
        {
          "id": 13,
          "value": 0.524674892
        },
        {
          "id": 14,
          "value": 0.270645082
        },
        {
          "id": 15,
          "value": 0.605570316
        },
        {
          "id": 16,
          "value": 0.801847458
        },
        {
          "id": 17,
          "value": 0.833685338
        },
        {
          "id": 18,
          "value": 0.0
        },
        {
          "id": 19,
          "value": 0.0
        },
        {
          "id": 20,
          "value": 0.0
        },
        {
          "id": 21,
          "value": 0.0
        },
        {
          "id": 22,
          "value": 0.0
        },
        {
          "id": 23,
          "value": 0.0
        },
        {
          "id": 24,
          "value": 0.0
        },
        {
          "id": 25,
          "value": 0.0
        },
        {
          "id": 26,
          "value": 0.0
        },
        {
          "id": 27,
          "value": 0.0
        }
      ],
      "leftModuleId": 383,
      "rightModuleId": 420,
      "data": {
        "panelTheme": 1,
        "running": true,
        "resetOnRun": false,
        "quantize": 3,
        "uncertainty": false,
        "stepIndexes0": 0,
        "stepIndexes1": 0,
        "states0": 0,
        "states1": 0,
        "ranges0": 1,
        "ranges1": 1,
        "leap": false
      },
      "pos": [
        24,
        1
      ]
    },
    {
      "id": 419,
      "plugin": "repelzen",
      "version": "1.1.0",
      "model": "rewin",
      "params": [
        {
          "id": 0,
          "value": 0.0
        },
        {
          "id": 1,
          "value": -1.0
        },
        {
          "id": 2,
          "value": 1.0
        },
        {
          "id": 3,
          "value": 0.0
        },
        {
          "id": 4,
          "value": 0.0
        },
        {
          "id": 5,
          "value": 0.0
        },
        {
          "id": 6,
          "value": 0.0
        },
        {
          "id": 7,
          "value": 0.0
        },
        {
          "id": 8,
          "value": 0.0
        },
        {
          "id": 9,
          "value": 0.0
        },
        {
          "id": 10,
          "value": 0.0
        },
        {
          "id": 11,
          "value": 0.0
        },
        {
          "id": 12,
          "value": 0.0
        },
        {
          "id": 13,
          "value": 0.0
        },
        {
          "id": 14,
          "value": 0.0
        },
        {
          "id": 15,
          "value": 0.0
        },
        {
          "id": 16,
          "value": 0.0
        }
      ],
      "leftModuleId": 420,
      "rightModuleId": 451,
      "data": {
        "notes": [
          true,
          false,
          true,
          false,
          false,
          false,
          false,
          true,
          false,
          true,
          true,
          false,
          false,
          true,
          false,
          true,
          false,
          false,
          true,
          false,
          true,
          false,
          true,
          false,
          false,
          false,
          false,
          true,
          false,
          false,
          true,
          false,
          true,
          false,
          true,
          false,
          false,
          false,
          false,
          false,
          false,
          false,
          false,
          false,
          false,
          false,
          false,
          false,
          false,
          false,
          false,
          false,
          false,
          false,
          false,
          false,
          false,
          false,
          false,
          false,
          false,
          false,
          false,
          false,
          false,
          false,
          false,
          false,
          false,
          false,
          false,
          false,
          false,
          false,
          false,
          false,
          false,
          false,
          false,
          false,
          false,
          false,
          false,
          false,
          false,
          false,
          false,
          false,
          false,
          false,
          false,
          false,
          false,
          false,
          false,
          false,
          false,
          false,
          false,
          false,
          false,
          false,
          false,
          false,
          false,
          false,
          false,
          false,
          false,
          false,
          false,
          false,
          false,
          false,
          false,
          false,
          false,
          false,
          false,
          false,
          false,
          false,
          false,
          false,
          false,
          false,
          false,
          false,
          false,
          false,
          false,
          false,
          false,
          false,
          false,
          false,
          false,
          false,
          false,
          false,
          false,
          false,
          false,
          false,
          false,
          false,
          false,
          false,
          false,
          false,
          false,
          false,
          false,
          false,
          false,
          false,
          false,
          false,
          false,
          false,
          false,
          false,
          false,
          false,
          false,
          false,
          false,
          false,
          false,
          false,
          false,
          false,
          false,
          false,
          false,
          false,
          false,
          false,
          false,
          false,
          false,
          false,
          false,
          false,
          false,
          false,
          false,
          false,
          false,
          false,
          false,
          false
        ],
        "mode": 0
      },
      "pos": [
        48,
        1
      ]
    },
    {
      "id": 420,
      "plugin": "Geodesics",
      "version": "1.2.0",
      "model": "Fate",
      "params": [
        {
          "id": 0,
          "value": 0.373500019
        },
        {
          "id": 1,
          "value": 0.261999995
        }
      ],
      "leftModuleId": 418,
      "rightModuleId": 419,
      "data": {
        "panelTheme": 1,
        "holdTrigOut": 0
      },
      "pos": [
        43,
        1
      ]
    },
    {
      "id": 421,
      "plugin": "ML_modules",
      "version": "1.1.3",
      "model": "ShiftRegister",
      "params": [
        {
          "id": 0,
          "value": 0.0
        },
        {
          "id": 1,
          "value": 0.0
        },
        {
          "id": 2,
          "value": 0.0
        },
        {
          "id": 3,
          "value": 0.0
        },
        {
          "id": 4,
          "value": 0.0
        },
        {
          "id": 5,
          "value": 0.0
        },
        {
          "id": 6,
          "value": 0.0
        },
        {
          "id": 7,
          "value": 0.0
        },
        {
          "id": 8,
          "value": 0.0
        }
      ],
      "leftModuleId": 454,
      "rightModuleId": 452,
      "pos": [
        65,
        1
      ]
    },
    {
      "id": 424,
      "plugin": "Extratone",
      "version": "1.2.0",
      "model": "Darwinism",
      "params": [
        {
          "id": 0,
          "value": 1.0
        },
        {
          "id": 1,
          "value": 0.0
        },
        {
          "id": 2,
          "value": 0.0
        },
        {
          "id": 3,
          "value": 0.0
        },
        {
          "id": 4,
          "value": 0.5
        },
        {
          "id": 5,
          "value": 0.0
        },
        {
          "id": 6,
          "value": 0.0
        },
        {
          "id": 7,
          "value": 16.0
        },
        {
          "id": 8,
          "value": 0.0
        },
        {
          "id": 9,
          "value": 0.5
        },
        {
          "id": 10,
          "value": 0.0
        },
        {
          "id": 11,
          "value": 0.0
        },
        {
          "id": 12,
          "value": 1.0
        },
        {
          "id": 13,
          "value": 1.0
        },
        {
          "id": 14,
          "value": 0.0
        },
        {
          "id": 15,
          "value": 0.0
        },
        {
          "id": 16,
          "value": 1.0
        },
        {
          "id": 17,
          "value": 1.0
        },
        {
          "id": 18,
          "value": 0.0
        },
        {
          "id": 19,
          "value": 0.0
        },
        {
          "id": 20,
          "value": 0.0
        },
        {
          "id": 21,
          "value": 1.0
        },
        {
          "id": 22,
          "value": 1.0
        },
        {
          "id": 23,
          "value": 0.0
        },
        {
          "id": 24,
          "value": 0.0
        },
        {
          "id": 25,
          "value": 0.0
        },
        {
          "id": 26,
          "value": 1.0
        },
        {
          "id": 27,
          "value": 0.0
        },
        {
          "id": 28,
          "value": 0.610294759
        },
        {
          "id": 29,
          "value": 0.782411397
        },
        {
          "id": 30,
          "value": 0.622420609
        },
        {
          "id": 31,
          "value": 0.7336694
        },
        {
          "id": 32,
          "value": 0.943615556
        },
        {
          "id": 33,
          "value": 0.406090796
        },
        {
          "id": 34,
          "value": 0.658858955
        },
        {
          "id": 35,
          "value": 0.582418084
        },
        {
          "id": 36,
          "value": 0.0368542671
        },
        {
          "id": 37,
          "value": 0.607977629
        },
        {
          "id": 38,
          "value": 0.344130337
        },
        {
          "id": 39,
          "value": 0.0804136992
        },
        {
          "id": 40,
          "value": 0.640299916
        },
        {
          "id": 41,
          "value": 0.0461575389
        },
        {
          "id": 42,
          "value": 0.534432113
        },
        {
          "id": 43,
          "value": 0.537512183
        },
        {
          "id": 44,
          "value": 0.0
        },
        {
          "id": 45,
          "value": 0.0
        },
        {
          "id": 46,
          "value": 0.0
        },
        {
          "id": 47,
          "value": 0.0
        },
        {
          "id": 48,
          "value": 0.0
        },
        {
          "id": 49,
          "value": 0.0
        },
        {
          "id": 50,
          "value": 0.0
        },
        {
          "id": 51,
          "value": 0.0
        },
        {
          "id": 52,
          "value": 0.0
        },
        {
          "id": 53,
          "value": 0.0
        },
        {
          "id": 54,
          "value": 0.0
        },
        {
          "id": 55,
          "value": 0.0
        },
        {
          "id": 56,
          "value": 0.0
        },
        {
          "id": 57,
          "value": 0.0
        },
        {
          "id": 58,
          "value": 0.0
        },
        {
          "id": 59,
          "value": 0.0
        },
        {
          "id": 60,
          "value": 0.0
        },
        {
          "id": 61,
          "value": 0.0
        },
        {
          "id": 62,
          "value": 0.0
        },
        {
          "id": 63,
          "value": 0.0
        },
        {
          "id": 64,
          "value": 0.0
        },
        {
          "id": 65,
          "value": 0.0
        },
        {
          "id": 66,
          "value": 0.0
        },
        {
          "id": 67,
          "value": 0.0
        },
        {
          "id": 68,
          "value": 0.0
        },
        {
          "id": 69,
          "value": 0.0
        },
        {
          "id": 70,
          "value": 0.0
        },
        {
          "id": 71,
          "value": 0.0
        },
        {
          "id": 72,
          "value": 0.0
        },
        {
          "id": 73,
          "value": 0.0
        },
        {
          "id": 74,
          "value": 0.0
        },
        {
          "id": 75,
          "value": 0.0
        },
        {
          "id": 76,
          "value": 0.0
        },
        {
          "id": 77,
          "value": 0.0
        },
        {
          "id": 78,
          "value": 0.0
        },
        {
          "id": 79,
          "value": 0.0
        },
        {
          "id": 80,
          "value": 0.0
        },
        {
          "id": 81,
          "value": 0.0
        },
        {
          "id": 82,
          "value": 0.0
        },
        {
          "id": 83,
          "value": 0.0
        },
        {
          "id": 84,
          "value": 0.0
        },
        {
          "id": 85,
          "value": 0.0
        },
        {
          "id": 86,
          "value": 0.0
        },
        {
          "id": 87,
          "value": 0.0
        },
        {
          "id": 88,
          "value": 0.0
        },
        {
          "id": 89,
          "value": 0.0
        },
        {
          "id": 90,
          "value": 0.0
        },
        {
          "id": 91,
          "value": 0.0
        },
        {
          "id": 92,
          "value": 0.0
        },
        {
          "id": 93,
          "value": 0.0
        },
        {
          "id": 94,
          "value": 0.0
        },
        {
          "id": 95,
          "value": 0.0
        },
        {
          "id": 96,
          "value": 0.0
        },
        {
          "id": 97,
          "value": 0.0
        },
        {
          "id": 98,
          "value": 0.0
        },
        {
          "id": 99,
          "value": 0.0
        },
        {
          "id": 100,
          "value": 0.0
        },
        {
          "id": 101,
          "value": 0.0
        },
        {
          "id": 102,
          "value": 0.0
        },
        {
          "id": 103,
          "value": 0.0
        },
        {
          "id": 104,
          "value": 0.0
        },
        {
          "id": 105,
          "value": 0.0
        },
        {
          "id": 106,
          "value": 0.0
        },
        {
          "id": 107,
          "value": 0.0
        },
        {
          "id": 108,
          "value": 0.0
        },
        {
          "id": 109,
          "value": 0.0
        },
        {
          "id": 110,
          "value": 0.0
        },
        {
          "id": 111,
          "value": 0.0
        },
        {
          "id": 112,
          "value": 0.0
        },
        {
          "id": 113,
          "value": 0.0
        },
        {
          "id": 114,
          "value": 0.0
        },
        {
          "id": 115,
          "value": 0.0
        },
        {
          "id": 116,
          "value": 0.0
        },
        {
          "id": 117,
          "value": 0.0
        },
        {
          "id": 118,
          "value": 0.0
        },
        {
          "id": 119,
          "value": 0.0
        },
        {
          "id": 120,
          "value": 0.0
        },
        {
          "id": 121,
          "value": 0.0
        },
        {
          "id": 122,
          "value": 0.0
        },
        {
          "id": 123,
          "value": 0.0
        },
        {
          "id": 124,
          "value": 0.0
        },
        {
          "id": 125,
          "value": 0.0
        },
        {
          "id": 126,
          "value": 0.0
        },
        {
          "id": 127,
          "value": 0.0
        },
        {
          "id": 128,
          "value": 0.0
        },
        {
          "id": 129,
          "value": 0.0
        },
        {
          "id": 130,
          "value": 0.0
        },
        {
          "id": 131,
          "value": 0.0
        },
        {
          "id": 132,
          "value": 0.0
        },
        {
          "id": 133,
          "value": 0.0
        },
        {
          "id": 134,
          "value": 0.0
        },
        {
          "id": 135,
          "value": 0.0
        },
        {
          "id": 136,
          "value": 0.0
        },
        {
          "id": 137,
          "value": 0.0
        },
        {
          "id": 138,
          "value": 0.0
        },
        {
          "id": 139,
          "value": 0.0
        },
        {
          "id": 140,
          "value": 0.0
        },
        {
          "id": 141,
          "value": 0.0
        },
        {
          "id": 142,
          "value": 0.0
        },
        {
          "id": 143,
          "value": 0.0
        },
        {
          "id": 144,
          "value": 0.0
        },
        {
          "id": 145,
          "value": 0.0
        },
        {
          "id": 146,
          "value": 0.0
        },
        {
          "id": 147,
          "value": 0.0
        },
        {
          "id": 148,
          "value": 0.0
        },
        {
          "id": 149,
          "value": 0.0
        },
        {
          "id": 150,
          "value": 0.0
        },
        {
          "id": 151,
          "value": 0.0
        },
        {
          "id": 152,
          "value": 0.0
        },
        {
          "id": 153,
          "value": 0.0
        },
        {
          "id": 154,
          "value": 0.0
        },
        {
          "id": 155,
          "value": 0.0
        },
        {
          "id": 156,
          "value": 0.0
        },
        {
          "id": 157,
          "value": 0.0
        },
        {
          "id": 158,
          "value": 0.0
        },
        {
          "id": 159,
          "value": 0.0
        },
        {
          "id": 160,
          "value": 0.0
        },
        {
          "id": 161,
          "value": 0.0
        },
        {
          "id": 162,
          "value": 0.0
        },
        {
          "id": 163,
          "value": 0.0
        },
        {
          "id": 164,
          "value": 0.0
        },
        {
          "id": 165,
          "value": 0.0
        },
        {
          "id": 166,
          "value": 0.0
        },
        {
          "id": 167,
          "value": 0.0
        },
        {
          "id": 168,
          "value": 0.0
        },
        {
          "id": 169,
          "value": 0.0
        },
        {
          "id": 170,
          "value": 0.0
        },
        {
          "id": 171,
          "value": 0.0
        },
        {
          "id": 172,
          "value": 0.0
        },
        {
          "id": 173,
          "value": 0.0
        },
        {
          "id": 174,
          "value": 0.0
        },
        {
          "id": 175,
          "value": 0.0
        },
        {
          "id": 176,
          "value": 0.0
        },
        {
          "id": 177,
          "value": 0.0
        },
        {
          "id": 178,
          "value": 0.0
        },
        {
          "id": 179,
          "value": 0.0
        },
        {
          "id": 180,
          "value": 0.0
        },
        {
          "id": 181,
          "value": 0.0
        },
        {
          "id": 182,
          "value": 0.0
        },
        {
          "id": 183,
          "value": 0.0
        },
        {
          "id": 184,
          "value": 0.0
        },
        {
          "id": 185,
          "value": 0.0
        },
        {
          "id": 186,
          "value": 0.0
        },
        {
          "id": 187,
          "value": 0.0
        },
        {
          "id": 188,
          "value": 0.0
        },
        {
          "id": 189,
          "value": 0.0
        },
        {
          "id": 190,
          "value": 0.0
        },
        {
          "id": 191,
          "value": 0.0
        },
        {
          "id": 192,
          "value": 0.0
        },
        {
          "id": 193,
          "value": 0.0
        },
        {
          "id": 194,
          "value": 0.0
        },
        {
          "id": 195,
          "value": 0.0
        },
        {
          "id": 196,
          "value": 0.0
        },
        {
          "id": 197,
          "value": 0.0
        },
        {
          "id": 198,
          "value": 0.0
        },
        {
          "id": 199,
          "value": 0.0
        },
        {
          "id": 200,
          "value": 0.0
        },
        {
          "id": 201,
          "value": 0.0
        },
        {
          "id": 202,
          "value": 0.0
        },
        {
          "id": 203,
          "value": 0.0
        },
        {
          "id": 204,
          "value": 0.0
        },
        {
          "id": 205,
          "value": 0.0
        },
        {
          "id": 206,
          "value": 0.0
        },
        {
          "id": 207,
          "value": 0.0
        },
        {
          "id": 208,
          "value": 0.0
        },
        {
          "id": 209,
          "value": 0.0
        },
        {
          "id": 210,
          "value": 0.0
        },
        {
          "id": 211,
          "value": 0.0
        },
        {
          "id": 212,
          "value": 0.0
        },
        {
          "id": 213,
          "value": 0.0
        },
        {
          "id": 214,
          "value": 0.0
        },
        {
          "id": 215,
          "value": 0.0
        },
        {
          "id": 216,
          "value": 0.0
        },
        {
          "id": 217,
          "value": 0.0
        },
        {
          "id": 218,
          "value": 0.0
        },
        {
          "id": 219,
          "value": 0.0
        },
        {
          "id": 220,
          "value": 0.0
        },
        {
          "id": 221,
          "value": 0.0
        },
        {
          "id": 222,
          "value": 0.0
        },
        {
          "id": 223,
          "value": 0.0
        },
        {
          "id": 224,
          "value": 0.0
        },
        {
          "id": 225,
          "value": 0.0
        },
        {
          "id": 226,
          "value": 0.0
        },
        {
          "id": 227,
          "value": 0.0
        },
        {
          "id": 228,
          "value": 0.0
        },
        {
          "id": 229,
          "value": 0.0
        },
        {
          "id": 230,
          "value": 0.0
        },
        {
          "id": 231,
          "value": 0.0
        },
        {
          "id": 232,
          "value": 0.0
        },
        {
          "id": 233,
          "value": 0.0
        },
        {
          "id": 234,
          "value": 0.0
        },
        {
          "id": 235,
          "value": 0.0
        },
        {
          "id": 236,
          "value": 0.0
        },
        {
          "id": 237,
          "value": 0.0
        },
        {
          "id": 238,
          "value": 0.0
        },
        {
          "id": 239,
          "value": 0.0
        },
        {
          "id": 240,
          "value": 0.0
        },
        {
          "id": 241,
          "value": 0.0
        },
        {
          "id": 242,
          "value": 0.0
        },
        {
          "id": 243,
          "value": 0.0
        },
        {
          "id": 244,
          "value": 0.0
        },
        {
          "id": 245,
          "value": 0.0
        },
        {
          "id": 246,
          "value": 0.0
        },
        {
          "id": 247,
          "value": 0.0
        },
        {
          "id": 248,
          "value": 0.0
        },
        {
          "id": 249,
          "value": 0.0
        },
        {
          "id": 250,
          "value": 0.0
        },
        {
          "id": 251,
          "value": 0.0
        },
        {
          "id": 252,
          "value": 0.0
        },
        {
          "id": 253,
          "value": 0.0
        },
        {
          "id": 254,
          "value": 0.0
        },
        {
          "id": 255,
          "value": 0.0
        },
        {
          "id": 256,
          "value": 0.0
        },
        {
          "id": 257,
          "value": 0.0
        },
        {
          "id": 258,
          "value": 0.0
        },
        {
          "id": 259,
          "value": 0.0
        },
        {
          "id": 260,
          "value": 0.0
        },
        {
          "id": 261,
          "value": 0.0
        },
        {
          "id": 262,
          "value": 0.0
        },
        {
          "id": 263,
          "value": 0.0
        },
        {
          "id": 264,
          "value": 0.0
        },
        {
          "id": 265,
          "value": 0.0
        },
        {
          "id": 266,
          "value": 0.0
        },
        {
          "id": 267,
          "value": 0.0
        },
        {
          "id": 268,
          "value": 0.0
        },
        {
          "id": 269,
          "value": 0.0
        },
        {
          "id": 270,
          "value": 0.0
        },
        {
          "id": 271,
          "value": 0.0
        },
        {
          "id": 272,
          "value": 0.0
        },
        {
          "id": 273,
          "value": 0.0
        },
        {
          "id": 274,
          "value": 0.0
        },
        {
          "id": 275,
          "value": 0.0
        },
        {
          "id": 276,
          "value": 0.0
        },
        {
          "id": 277,
          "value": 0.0
        },
        {
          "id": 278,
          "value": 0.0
        },
        {
          "id": 279,
          "value": 0.0
        },
        {
          "id": 280,
          "value": 0.0
        },
        {
          "id": 281,
          "value": 0.0
        },
        {
          "id": 282,
          "value": 0.0
        },
        {
          "id": 283,
          "value": 0.0
        },
        {
          "id": 284,
          "value": 0.0
        },
        {
          "id": 285,
          "value": 0.0
        },
        {
          "id": 286,
          "value": 0.0
        },
        {
          "id": 287,
          "value": 0.0
        },
        {
          "id": 288,
          "value": 0.0
        },
        {
          "id": 289,
          "value": 0.0
        },
        {
          "id": 290,
          "value": 0.0
        },
        {
          "id": 291,
          "value": 0.0
        },
        {
          "id": 292,
          "value": 0.0
        },
        {
          "id": 293,
          "value": 0.0
        },
        {
          "id": 294,
          "value": 0.0
        },
        {
          "id": 295,
          "value": 0.0
        },
        {
          "id": 296,
          "value": 0.0
        },
        {
          "id": 297,
          "value": 0.0
        },
        {
          "id": 298,
          "value": 0.0
        },
        {
          "id": 299,
          "value": 0.0
        },
        {
          "id": 300,
          "value": 0.0
        },
        {
          "id": 301,
          "value": 0.0
        },
        {
          "id": 302,
          "value": 0.0
        },
        {
          "id": 303,
          "value": 0.0
        },
        {
          "id": 304,
          "value": 0.0
        },
        {
          "id": 305,
          "value": 0.0
        },
        {
          "id": 306,
          "value": 0.0
        },
        {
          "id": 307,
          "value": 0.0
        },
        {
          "id": 308,
          "value": 0.0
        },
        {
          "id": 309,
          "value": 0.0
        },
        {
          "id": 310,
          "value": 0.0
        },
        {
          "id": 311,
          "value": 0.0
        },
        {
          "id": 312,
          "value": 0.0
        },
        {
          "id": 313,
          "value": 0.0
        },
        {
          "id": 314,
          "value": 0.0
        },
        {
          "id": 315,
          "value": 0.0
        },
        {
          "id": 316,
          "value": 0.0
        },
        {
          "id": 317,
          "value": 0.0
        },
        {
          "id": 318,
          "value": 0.0
        },
        {
          "id": 319,
          "value": 0.0
        },
        {
          "id": 320,
          "value": 0.0
        },
        {
          "id": 321,
          "value": 0.0
        },
        {
          "id": 322,
          "value": 0.0
        },
        {
          "id": 323,
          "value": 0.0
        },
        {
          "id": 324,
          "value": 0.0
        },
        {
          "id": 325,
          "value": 0.0
        },
        {
          "id": 326,
          "value": 0.0
        },
        {
          "id": 327,
          "value": 0.0
        },
        {
          "id": 328,
          "value": 0.0
        },
        {
          "id": 329,
          "value": 0.0
        },
        {
          "id": 330,
          "value": 0.0
        },
        {
          "id": 331,
          "value": 0.0
        },
        {
          "id": 332,
          "value": 0.0
        },
        {
          "id": 333,
          "value": 0.0
        },
        {
          "id": 334,
          "value": 0.0
        },
        {
          "id": 335,
          "value": 0.0
        },
        {
          "id": 336,
          "value": 0.0
        },
        {
          "id": 337,
          "value": 0.0
        },
        {
          "id": 338,
          "value": 0.0
        },
        {
          "id": 339,
          "value": 0.0
        },
        {
          "id": 340,
          "value": 0.0
        },
        {
          "id": 341,
          "value": 0.0
        },
        {
          "id": 342,
          "value": 0.0
        },
        {
          "id": 343,
          "value": 0.0
        },
        {
          "id": 344,
          "value": 0.0
        },
        {
          "id": 345,
          "value": 0.0
        },
        {
          "id": 346,
          "value": 0.0
        },
        {
          "id": 347,
          "value": 0.0
        },
        {
          "id": 348,
          "value": 0.0
        },
        {
          "id": 349,
          "value": 0.0
        },
        {
          "id": 350,
          "value": 0.0
        },
        {
          "id": 351,
          "value": 0.0
        },
        {
          "id": 352,
          "value": 0.0
        },
        {
          "id": 353,
          "value": 0.0
        },
        {
          "id": 354,
          "value": 0.0
        },
        {
          "id": 355,
          "value": 0.0
        },
        {
          "id": 356,
          "value": 0.0
        },
        {
          "id": 357,
          "value": 0.0
        },
        {
          "id": 358,
          "value": 0.0
        },
        {
          "id": 359,
          "value": 0.0
        },
        {
          "id": 360,
          "value": 0.0
        },
        {
          "id": 361,
          "value": 0.0
        },
        {
          "id": 362,
          "value": 0.0
        },
        {
          "id": 363,
          "value": 0.0
        },
        {
          "id": 364,
          "value": 0.0
        },
        {
          "id": 365,
          "value": 0.0
        },
        {
          "id": 366,
          "value": 0.0
        },
        {
          "id": 367,
          "value": 0.0
        },
        {
          "id": 368,
          "value": 0.0
        },
        {
          "id": 369,
          "value": 0.0
        },
        {
          "id": 370,
          "value": 0.0
        },
        {
          "id": 371,
          "value": 0.0
        },
        {
          "id": 372,
          "value": 0.0
        },
        {
          "id": 373,
          "value": 0.0
        },
        {
          "id": 374,
          "value": 0.0
        },
        {
          "id": 375,
          "value": 0.0
        },
        {
          "id": 376,
          "value": 0.0
        },
        {
          "id": 377,
          "value": 0.0
        },
        {
          "id": 378,
          "value": 0.0
        },
        {
          "id": 379,
          "value": 0.0
        },
        {
          "id": 380,
          "value": 0.0
        },
        {
          "id": 381,
          "value": 0.0
        },
        {
          "id": 382,
          "value": 0.0
        },
        {
          "id": 383,
          "value": 0.0
        },
        {
          "id": 384,
          "value": 0.0
        },
        {
          "id": 385,
          "value": 0.0
        },
        {
          "id": 386,
          "value": 0.0
        },
        {
          "id": 387,
          "value": 0.0
        },
        {
          "id": 388,
          "value": 0.0
        },
        {
          "id": 389,
          "value": 0.0
        },
        {
          "id": 390,
          "value": 0.0
        },
        {
          "id": 391,
          "value": 0.0
        },
        {
          "id": 392,
          "value": 0.0
        },
        {
          "id": 393,
          "value": 0.0
        },
        {
          "id": 394,
          "value": 0.0
        },
        {
          "id": 395,
          "value": 0.0
        },
        {
          "id": 396,
          "value": 0.0
        },
        {
          "id": 397,
          "value": 0.0
        },
        {
          "id": 398,
          "value": 0.0
        },
        {
          "id": 399,
          "value": 0.0
        },
        {
          "id": 400,
          "value": 0.0
        },
        {
          "id": 401,
          "value": 0.0
        },
        {
          "id": 402,
          "value": 0.0
        },
        {
          "id": 403,
          "value": 0.0
        },
        {
          "id": 404,
          "value": 0.0
        },
        {
          "id": 405,
          "value": 0.0
        },
        {
          "id": 406,
          "value": 0.0
        },
        {
          "id": 407,
          "value": 0.0
        },
        {
          "id": 408,
          "value": 0.0
        },
        {
          "id": 409,
          "value": 0.0
        },
        {
          "id": 410,
          "value": 0.0
        },
        {
          "id": 411,
          "value": 0.0
        },
        {
          "id": 412,
          "value": 0.0
        },
        {
          "id": 413,
          "value": 0.0
        },
        {
          "id": 414,
          "value": 0.0
        },
        {
          "id": 415,
          "value": 0.0
        },
        {
          "id": 416,
          "value": 0.0
        },
        {
          "id": 417,
          "value": 0.0
        },
        {
          "id": 418,
          "value": 0.0
        },
        {
          "id": 419,
          "value": 0.0
        },
        {
          "id": 420,
          "value": 0.0
        },
        {
          "id": 421,
          "value": 0.0
        },
        {
          "id": 422,
          "value": 0.0
        },
        {
          "id": 423,
          "value": 0.0
        },
        {
          "id": 424,
          "value": 0.0
        },
        {
          "id": 425,
          "value": 0.0
        },
        {
          "id": 426,
          "value": 0.0
        },
        {
          "id": 427,
          "value": 0.0
        },
        {
          "id": 428,
          "value": 0.0
        },
        {
          "id": 429,
          "value": 0.0
        },
        {
          "id": 430,
          "value": 0.0
        },
        {
          "id": 431,
          "value": 0.0
        },
        {
          "id": 432,
          "value": 0.0
        },
        {
          "id": 433,
          "value": 0.0
        },
        {
          "id": 434,
          "value": 0.0
        },
        {
          "id": 435,
          "value": 0.0
        },
        {
          "id": 436,
          "value": 0.0
        },
        {
          "id": 437,
          "value": 0.0
        },
        {
          "id": 438,
          "value": 0.0
        },
        {
          "id": 439,
          "value": 0.0
        },
        {
          "id": 440,
          "value": 0.0
        },
        {
          "id": 441,
          "value": 0.0
        },
        {
          "id": 442,
          "value": 0.0
        },
        {
          "id": 443,
          "value": 0.0
        },
        {
          "id": 444,
          "value": 0.0
        },
        {
          "id": 445,
          "value": 0.0
        },
        {
          "id": 446,
          "value": 0.0
        },
        {
          "id": 447,
          "value": 0.0
        },
        {
          "id": 448,
          "value": 0.0
        },
        {
          "id": 449,
          "value": 0.0
        },
        {
          "id": 450,
          "value": 0.0
        },
        {
          "id": 451,
          "value": 0.0
        },
        {
          "id": 452,
          "value": 0.0
        },
        {
          "id": 453,
          "value": 0.0
        },
        {
          "id": 454,
          "value": 0.0
        },
        {
          "id": 455,
          "value": 0.0
        },
        {
          "id": 456,
          "value": 0.0
        },
        {
          "id": 457,
          "value": 0.0
        },
        {
          "id": 458,
          "value": 0.0
        },
        {
          "id": 459,
          "value": 0.0
        },
        {
          "id": 460,
          "value": 0.0
        },
        {
          "id": 461,
          "value": 0.0
        },
        {
          "id": 462,
          "value": 0.0
        },
        {
          "id": 463,
          "value": 0.0
        },
        {
          "id": 464,
          "value": 0.0
        },
        {
          "id": 465,
          "value": 0.0
        },
        {
          "id": 466,
          "value": 0.0
        },
        {
          "id": 467,
          "value": 0.0
        },
        {
          "id": 468,
          "value": 0.0
        },
        {
          "id": 469,
          "value": 0.0
        },
        {
          "id": 470,
          "value": 0.0
        },
        {
          "id": 471,
          "value": 0.0
        },
        {
          "id": 472,
          "value": 0.0
        },
        {
          "id": 473,
          "value": 0.0
        },
        {
          "id": 474,
          "value": 0.0
        },
        {
          "id": 475,
          "value": 0.0
        },
        {
          "id": 476,
          "value": 0.0
        },
        {
          "id": 477,
          "value": 0.0
        },
        {
          "id": 478,
          "value": 0.0
        },
        {
          "id": 479,
          "value": 0.0
        },
        {
          "id": 480,
          "value": 0.0
        },
        {
          "id": 481,
          "value": 0.0
        },
        {
          "id": 482,
          "value": 0.0
        },
        {
          "id": 483,
          "value": 0.0
        },
        {
          "id": 484,
          "value": 0.0
        },
        {
          "id": 485,
          "value": 0.0
        },
        {
          "id": 486,
          "value": 0.0
        },
        {
          "id": 487,
          "value": 0.0
        },
        {
          "id": 488,
          "value": 0.0
        },
        {
          "id": 489,
          "value": 0.0
        },
        {
          "id": 490,
          "value": 0.0
        },
        {
          "id": 491,
          "value": 0.0
        },
        {
          "id": 492,
          "value": 0.0
        },
        {
          "id": 493,
          "value": 0.0
        },
        {
          "id": 494,
          "value": 0.0
        },
        {
          "id": 495,
          "value": 0.0
        },
        {
          "id": 496,
          "value": 0.0
        },
        {
          "id": 497,
          "value": 0.0
        },
        {
          "id": 498,
          "value": 0.0
        },
        {
          "id": 499,
          "value": 0.0
        },
        {
          "id": 500,
          "value": 0.0
        },
        {
          "id": 501,
          "value": 0.0
        },
        {
          "id": 502,
          "value": 0.0
        },
        {
          "id": 503,
          "value": 0.0
        },
        {
          "id": 504,
          "value": 0.0
        },
        {
          "id": 505,
          "value": 0.0
        },
        {
          "id": 506,
          "value": 0.0
        },
        {
          "id": 507,
          "value": 0.0
        },
        {
          "id": 508,
          "value": 0.0
        },
        {
          "id": 509,
          "value": 0.0
        },
        {
          "id": 510,
          "value": 0.0
        },
        {
          "id": 511,
          "value": 0.0
        },
        {
          "id": 512,
          "value": 0.0
        },
        {
          "id": 513,
          "value": 0.0
        },
        {
          "id": 514,
          "value": 0.0
        },
        {
          "id": 515,
          "value": 0.0
        },
        {
          "id": 516,
          "value": 0.0
        },
        {
          "id": 517,
          "value": 0.0
        },
        {
          "id": 518,
          "value": 0.0
        },
        {
          "id": 519,
          "value": 0.0
        },
        {
          "id": 520,
          "value": 0.0
        },
        {
          "id": 521,
          "value": 0.0
        },
        {
          "id": 522,
          "value": 0.0
        },
        {
          "id": 523,
          "value": 0.0
        },
        {
          "id": 524,
          "value": 0.0
        },
        {
          "id": 525,
          "value": 0.0
        },
        {
          "id": 526,
          "value": 0.0
        },
        {
          "id": 527,
          "value": 0.0
        },
        {
          "id": 528,
          "value": 0.0
        },
        {
          "id": 529,
          "value": 0.0
        },
        {
          "id": 530,
          "value": 0.0
        },
        {
          "id": 531,
          "value": 0.0
        },
        {
          "id": 532,
          "value": 0.0
        },
        {
          "id": 533,
          "value": 0.0
        },
        {
          "id": 534,
          "value": 0.0
        },
        {
          "id": 535,
          "value": 0.0
        },
        {
          "id": 536,
          "value": 0.0
        },
        {
          "id": 537,
          "value": 0.0
        },
        {
          "id": 538,
          "value": 0.0
        },
        {
          "id": 539,
          "value": 0.0
        },
        {
          "id": 540,
          "value": 0.0
        },
        {
          "id": 541,
          "value": 0.0
        },
        {
          "id": 542,
          "value": 0.0
        },
        {
          "id": 543,
          "value": 0.0
        },
        {
          "id": 544,
          "value": 0.0
        },
        {
          "id": 545,
          "value": 0.0
        },
        {
          "id": 546,
          "value": 0.0
        },
        {
          "id": 547,
          "value": 0.0
        },
        {
          "id": 548,
          "value": 0.0
        },
        {
          "id": 549,
          "value": 0.0
        },
        {
          "id": 550,
          "value": 0.0
        },
        {
          "id": 551,
          "value": 0.0
        },
        {
          "id": 552,
          "value": 0.0
        },
        {
          "id": 553,
          "value": 0.0
        },
        {
          "id": 554,
          "value": 0.0
        },
        {
          "id": 555,
          "value": 0.0
        },
        {
          "id": 556,
          "value": 0.0
        }
      ],
      "leftModuleId": 452,
      "rightModuleId": 416,
      "pos": [
        72,
        1
      ]
    },
    {
      "id": 425,
      "plugin": "Geodesics",
      "version": "1.2.0",
      "model": "Energy",
      "params": [
        {
          "id": 0,
          "value": 0.0
        },
        {
          "id": 1,
          "value": 0.0
        },
        {
          "id": 2,
          "value": 0.0
        },
        {
          "id": 3,
          "value": 0.0
        },
        {
          "id": 4,
          "value": 0.0
        },
        {
          "id": 5,
          "value": -0.945000112
        },
        {
          "id": 6,
          "value": 0.0
        },
        {
          "id": 7,
          "value": 0.0
        },
        {
          "id": 8,
          "value": 0.0
        },
        {
          "id": 9,
          "value": 0.0
        }
      ],
      "leftModuleId": 415,
      "rightModuleId": 432,
      "data": {
        "panelTheme": 1,
        "oscM_phase": 3265832000,
        "oscC_phase": 678307424,
        "osc1M_phase": 3491621712,
        "osc1C_phase": 3512477560,
        "osc2M_phase": 3858941040,
        "osc2C_phase": 3858941040,
        "osc3M_phase": 4057976672,
        "osc3C_phase": 4057976672,
        "osc4M_phase": 0,
        "osc4C_phase": 0,
        "osc5M_phase": 0,
        "osc5C_phase": 0,
        "osc6M_phase": 0,
        "osc6C_phase": 0,
        "osc7M_phase": 0,
        "osc7C_phase": 0,
        "osc8M_phase": 0,
        "osc8C_phase": 0,
        "osc9M_phase": 0,
        "osc9C_phase": 0,
        "osc10M_phase": 0,
        "osc10C_phase": 0,
        "osc11M_phase": 0,
        "osc11C_phase": 0,
        "osc12M_phase": 0,
        "osc12C_phase": 0,
        "osc13M_phase": 0,
        "osc13C_phase": 0,
        "osc14M_phase": 0,
        "osc14C_phase": 0,
        "osc15M_phase": 0,
        "osc15C_phase": 0,
        "routing": 1,
        "planck0": 2,
        "planck1": 2,
        "modtype0": 1,
        "modtype1": 1,
        "cross": 0
      },
      "pos": [
        93,
        1
      ]
    },
    {
      "id": 429,
      "plugin": "Bogaudio",
      "version": "1.1.37",
      "model": "Bogaudio-AD",
      "params": [
        {
          "id": 0,
          "value": 0.0
        },
        {
          "id": 1,
          "value": 0.145229965
        },
        {
          "id": 2,
          "value": 0.0
        },
        {
          "id": 3,
          "value": 0.0
        },
        {
          "id": 4,
          "value": 1.0
        }
      ],
      "leftModuleId": 417,
      "rightModuleId": 434,
      "data": {
        "invert": 1.0
      },
      "pos": [
        108,
        1
      ]
    },
    {
      "id": 431,
      "plugin": "Valley",
      "version": "1.1.7",
      "model": "uGraph",
      "params": [
        {
          "id": 0,
          "value": 0.0
        },
        {
          "id": 1,
          "value": 0.0
        },
        {
          "id": 2,
          "value": 0.0
        },
        {
          "id": 3,
          "value": 0.152999997
        },
        {
          "id": 4,
          "value": 0.548999965
        },
        {
          "id": 5,
          "value": 0.203999996
        },
        {
          "id": 6,
          "value": 0.615499973
        },
        {
          "id": 7,
          "value": 0.5
        },
        {
          "id": 8,
          "value": 0.5
        },
        {
          "id": 9,
          "value": 0.0
        }
      ],
      "leftModuleId": 384,
      "rightModuleId": 436,
      "data": {
        "sequencerMode": 2,
        "triggerOutputMode": 0,
        "accOutputMode": 0,
        "extClockResolution": 0,
        "chaosKnobMode": 0,
        "runMode": 0,
        "panelStyle": 0,
        "running": 1
      },
      "pos": [
        62,
        0
      ]
    },
    {
      "id": 432,
      "plugin": "GrandeModular",
      "version": "1.9.0",
      "model": "MergeSplit4",
      "params": [],
      "leftModuleId": 425,
      "rightModuleId": 433,
      "data": {
        "channels_merge": -1
      },
      "pos": [
        100,
        1
      ]
    },
    {
      "id": 433,
      "plugin": "Bogaudio",
      "version": "1.1.37",
      "model": "Bogaudio-AD",
      "params": [
        {
          "id": 0,
          "value": 0.100499995
        },
        {
          "id": 1,
          "value": 0.214229971
        },
        {
          "id": 2,
          "value": 0.0
        },
        {
          "id": 3,
          "value": 0.0
        },
        {
          "id": 4,
          "value": 1.0
        }
      ],
      "leftModuleId": 432,
      "rightModuleId": 417,
      "data": {
        "invert": 1.0
      },
      "pos": [
        102,
        1
      ]
    },
    {
      "id": 434,
      "plugin": "Bogaudio",
      "version": "1.1.37",
      "model": "Bogaudio-AD",
      "params": [
        {
          "id": 0,
          "value": 0.115500003
        },
        {
          "id": 1,
          "value": 0.127229959
        },
        {
          "id": 2,
          "value": 0.0
        },
        {
          "id": 3,
          "value": 0.0
        },
        {
          "id": 4,
          "value": 1.0
        }
      ],
      "leftModuleId": 429,
      "rightModuleId": 460,
      "data": {
        "invert": 1.0
      },
      "pos": [
        111,
        1
      ]
    },
    {
      "id": 436,
      "plugin": "Instruo",
      "version": "1.1.0",
      "model": "ochd",
      "params": [
        {
          "id": 0,
          "value": 0.427999914
        },
        {
          "id": 1,
          "value": 0.0
        }
      ],
      "leftModuleId": 431,
      "rightModuleId": 437,
      "data": {
        "deviations": {
          "lfos": [
            {
              "amplitude": 5.5,
              "frequency": {
                "maximum": 154.699997,
                "minimum": 0.147,
                "absMinimum": 0.000294000027,
                "absMaximum": 160.887985
              }
            },
            {
              "amplitude": 5.5,
              "frequency": {
                "maximum": 84.7399979,
                "minimum": 0.0816000029,
                "absMinimum": 0.00016320002,
                "absMaximum": 88.1295929
              }
            },
            {
              "amplitude": 5.5,
              "frequency": {
                "maximum": 42.2599983,
                "minimum": 0.0417000018,
                "absMinimum": 8.34000093e-5,
                "absMaximum": 43.9503975
              }
            },
            {
              "amplitude": 5.5,
              "frequency": {
                "maximum": 22.0100002,
                "minimum": 0.0221999995,
                "absMinimum": 4.43999998e-5,
                "absMaximum": 22.8903999
              }
            },
            {
              "amplitude": 5.5,
              "frequency": {
                "maximum": 10.3699999,
                "minimum": 0.0102000004,
                "absMinimum": 2.04000025e-5,
                "absMaximum": 10.7847996
              }
            },
            {
              "amplitude": 5.5,
              "frequency": {
                "maximum": 4.69999981,
                "minimum": 0.00505999988,
                "absMinimum": 1.01200003e-5,
                "absMaximum": 4.88799953
              }
            },
            {
              "amplitude": 5.5,
              "frequency": {
                "maximum": 2.11999989,
                "minimum": 0.00212999992,
                "absMinimum": 4.25999997e-6,
                "absMaximum": 2.20479989
              }
            },
            {
              "amplitude": 5.5,
              "frequency": {
                "maximum": 1.00999999,
                "minimum": 0.00100000005,
                "absMinimum": 2.00000022e-6,
                "absMaximum": 1.0503999
              }
            }
          ]
        }
      },
      "pos": [
        72,
        0
      ]
    },
    {
      "id": 437,
      "plugin": "Geodesics",
      "version": "1.2.0",
      "model": "Branes",
      "params": [
        {
          "id": 0,
          "value": 0.0
        },
        {
          "id": 1,
          "value": 0.0
        },
        {
          "id": 2,
          "value": 0.0
        },
        {
          "id": 3,
          "value": 0.0
        }
      ],
      "leftModuleId": 436,
      "rightModuleId": 464,
      "data": {
        "panelTheme": 1,
        "vibrations0": 0,
        "vibrations1": 0,
        "noiseRange0": 0.0,
        "noiseRange1": 0.0
      },
      "pos": [
        76,
        0
      ]
    },
    {
      "id": 441,
      "plugin": "Bogaudio",
      "version": "1.1.37",
      "model": "Bogaudio-AddrSeq",
      "params": [
        {
          "id": 0,
          "value": 2.22500014
        },
        {
          "id": 1,
          "value": 1.0
        },
        {
          "id": 2,
          "value": 0.0
        },
        {
          "id": 3,
          "value": 0.0
        },
        {
          "id": 4,
          "value": 0.0749999955
        },
        {
          "id": 5,
          "value": 0.0
        },
        {
          "id": 6,
          "value": 0.0
        },
        {
          "id": 7,
          "value": 0.0
        },
        {
          "id": 8,
          "value": 0.0
        },
        {
          "id": 9,
          "value": 0.0
        },
        {
          "id": 10,
          "value": 0.0
        }
      ],
      "leftModuleId": 464,
      "rightModuleId": 458,
      "data": {
        "poly_input": 0,
        "select_on_clock": false,
        "triggered_select": false,
        "reverse_on_negative_clock": false,
        "range_offset": 0.0,
        "range_scale": 10.0
      },
      "pos": [
        90,
        0
      ]
    },
    {
      "id": 451,
      "plugin": "Fundamental",
      "version": "1.4.0",
      "model": "SequentialSwitch1",
      "params": [
        {
          "id": 0,
          "value": 2.0
        }
      ],
      "leftModuleId": 419,
      "rightModuleId": 453,
      "pos": [
        56,
        1
      ]
    },
    {
      "id": 452,
      "plugin": "Fundamental",
      "version": "1.4.0",
      "model": "SequentialSwitch2",
      "params": [
        {
          "id": 0,
          "value": 2.0
        }
      ],
      "leftModuleId": 421,
      "rightModuleId": 424,
      "pos": [
        69,
        1
      ]
    },
    {
      "id": 453,
      "plugin": "ML_modules",
      "version": "1.1.3",
      "model": "ShiftRegister",
      "params": [
        {
          "id": 0,
          "value": 0.0
        },
        {
          "id": 1,
          "value": 0.0
        },
        {
          "id": 2,
          "value": 0.0
        },
        {
          "id": 3,
          "value": 0.0
        },
        {
          "id": 4,
          "value": 0.0
        },
        {
          "id": 5,
          "value": 0.0
        },
        {
          "id": 6,
          "value": 0.0
        },
        {
          "id": 7,
          "value": 0.0
        },
        {
          "id": 8,
          "value": 0.0
        }
      ],
      "leftModuleId": 451,
      "rightModuleId": 454,
      "pos": [
        59,
        1
      ]
    },
    {
      "id": 454,
      "plugin": "GrandeModular",
      "version": "1.9.0",
      "model": "MergeSplit4",
      "params": [],
      "leftModuleId": 453,
      "rightModuleId": 421,
      "data": {
        "channels_merge": -1
      },
      "pos": [
        63,
        1
      ]
    },
    {
      "id": 455,
      "plugin": "Bogaudio",
      "version": "1.1.37",
      "model": "Bogaudio-Blank3",
      "params": [],
      "leftModuleId": 460,
      "rightModuleId": 362,
      "data": {},
      "pos": [
        117,
        1
      ]
    },
    {
      "id": 456,
      "plugin": "squinkylabs-plug1",
      "version": "1.0.22",
      "model": "squinkylabs-basic",
      "params": [
        {
          "id": 0,
          "value": 4.0
        },
        {
          "id": 1,
          "value": 0.0
        },
        {
          "id": 2,
          "value": 0.0
        },
        {
          "id": 3,
          "value": 12.6000004
        },
        {
          "id": 4,
          "value": 50.0
        },
        {
          "id": 5,
          "value": 100.0
        },
        {
          "id": 6,
          "value": 3.0
        }
      ],
      "leftModuleId": 462,
      "rightModuleId": 457,
      "pos": [
        110,
        0
      ]
    },
    {
      "id": 457,
      "plugin": "Bogaudio",
      "version": "1.1.37",
      "model": "Bogaudio-LVCF",
      "params": [
        {
          "id": 0,
          "value": 0.316610038
        },
        {
          "id": 1,
          "value": -0.497999966
        },
        {
          "id": 2,
          "value": 0.292499989
        },
        {
          "id": 3,
          "value": 1.0
        }
      ],
      "leftModuleId": 456,
      "rightModuleId": 463,
      "data": {
        "poles": 4,
        "bandwidthMode": "pitched"
      },
      "pos": [
        113,
        0
      ]
    },
    {
      "id": 458,
      "plugin": "Bogaudio",
      "version": "1.1.37",
      "model": "Bogaudio-AD",
      "params": [
        {
          "id": 0,
          "value": 0.230999991
        },
        {
          "id": 1,
          "value": 0.271230012
        },
        {
          "id": 2,
          "value": 0.0
        },
        {
          "id": 3,
          "value": 0.0
        },
        {
          "id": 4,
          "value": 1.0
        }
      ],
      "leftModuleId": 441,
      "rightModuleId": 459,
      "data": {
        "invert": 1.0
      },
      "pos": [
        96,
        0
      ]
    },
    {
      "id": 459,
      "plugin": "Bogaudio",
      "version": "1.1.37",
      "model": "Bogaudio-AD",
      "params": [
        {
          "id": 0,
          "value": 0.0944999903
        },
        {
          "id": 1,
          "value": 0.323729903
        },
        {
          "id": 2,
          "value": 0.0
        },
        {
          "id": 3,
          "value": 0.0
        },
        {
          "id": 4,
          "value": 1.0
        }
      ],
      "leftModuleId": 458,
      "rightModuleId": 462,
      "data": {
        "invert": 1.0
      },
      "pos": [
        99,
        0
      ]
    },
    {
      "id": 460,
      "plugin": "Bogaudio",
      "version": "1.1.37",
      "model": "Bogaudio-VCAmp",
      "params": [
        {
          "id": 0,
          "value": 0.794499993
        }
      ],
      "leftModuleId": 434,
      "rightModuleId": 455,
      "data": {},
      "pos": [
        114,
        1
      ]
    },
    {
      "id": 462,
      "plugin": "AS",
      "version": "1.0.4",
      "model": "DelayPlusFx",
      "params": [
        {
          "id": 0,
          "value": 0.245000109
        },
        {
          "id": 1,
          "value": 0.706999898
        },
        {
          "id": 2,
          "value": 0.583999991
        },
        {
          "id": 3,
          "value": 0.5
        },
        {
          "id": 4,
          "value": 0.0
        }
      ],
      "leftModuleId": 459,
      "rightModuleId": 456,
      "data": {
        "as_FxBypass": [
          false
        ]
      },
      "pos": [
        102,
        0
      ]
    },
    {
      "id": 463,
      "plugin": "CountModula",
      "version": "1.15.1",
      "model": "Chances",
      "params": [
        {
          "id": 0,
          "value": 0.5
        },
        {
          "id": 1,
          "value": 1.0
        }
      ],
      "leftModuleId": 457,
      "rightModuleId": 360,
      "data": {
        "moduleVersion": 1.10000002,
        "theme": 1
      },
      "pos": [
        116,
        0
      ]
    },
    {
      "id": 464,
      "plugin": "ModularFungi",
      "version": "1.1.4",
      "model": "Blank3HP",
      "params": [],
      "leftModuleId": 437,
      "rightModuleId": 441,
      "style": 1.0,
      "pos": [
        87,
        0
      ]
    }
  ],
  "cables": [
    {
      "id": 702,
      "outputModuleId": 375,
      "outputId": 0,
      "inputModuleId": 1,
      "inputId": 0,
      "color": "#c91847"
    },
    {
      "id": 703,
      "outputModuleId": 375,
      "outputId": 1,
      "inputModuleId": 1,
      "inputId": 1,
      "color": "#c91847"
    },
    {
      "id": 707,
      "outputModuleId": 375,
      "outputId": 10,
      "inputModuleId": 384,
      "inputId": 0,
      "color": "#c91847"
    },
    {
      "id": 708,
      "outputModuleId": 375,
      "outputId": 11,
      "inputModuleId": 384,
      "inputId": 1,
      "color": "#c91847"
    },
    {
      "id": 709,
      "outputModuleId": 384,
      "outputId": 0,
      "inputModuleId": 375,
      "inputId": 34,
      "color": "#c91847"
    },
    {
      "id": 710,
      "outputModuleId": 384,
      "outputId": 1,
      "inputModuleId": 375,
      "inputId": 35,
      "color": "#c91847"
    },
    {
      "id": 854,
      "outputModuleId": 383,
      "outputId": 1,
      "inputModuleId": 418,
      "inputId": 0,
      "color": "#364449"
    },
    {
      "id": 855,
      "outputModuleId": 383,
      "outputId": 1,
      "inputModuleId": 420,
      "inputId": 1,
      "color": "#364449"
    },
    {
      "id": 856,
      "outputModuleId": 418,
      "outputId": 1,
      "inputModuleId": 420,
      "inputId": 2,
      "color": "#c9b70e"
    },
    {
      "id": 857,
      "outputModuleId": 420,
      "outputId": 0,
      "inputModuleId": 419,
      "inputId": 2,
      "color": "#c9b70e"
    },
    {
      "id": 859,
      "outputModuleId": 421,
      "outputId": 0,
      "inputModuleId": 416,
      "inputId": 0,
      "color": "#c9b70e"
    },
    {
      "id": 860,
      "outputModuleId": 421,
      "outputId": 1,
      "inputModuleId": 416,
      "inputId": 1,
      "color": "#c9b70e"
    },
    {
      "id": 861,
      "outputModuleId": 421,
      "outputId": 2,
      "inputModuleId": 416,
      "inputId": 2,
      "color": "#c9b70e"
    },
    {
      "id": 862,
      "outputModuleId": 421,
      "outputId": 3,
      "inputModuleId": 416,
      "inputId": 3,
      "color": "#c9b70e"
    },
    {
      "id": 865,
      "outputModuleId": 383,
      "outputId": 4,
      "inputModuleId": 418,
      "inputId": 4,
      "color": "#364449"
    },
    {
      "id": 870,
      "outputModuleId": 415,
      "outputId": 0,
      "inputModuleId": 416,
      "inputId": 4,
      "color": "#c91847"
    },
    {
      "id": 871,
      "outputModuleId": 416,
      "outputId": 1,
      "inputModuleId": 375,
      "inputId": 0,
      "color": "#c91847"
    },
    {
      "id": 872,
      "outputModuleId": 416,
      "outputId": 2,
      "inputModuleId": 375,
      "inputId": 1,
      "color": "#c91847"
    },
    {
      "id": 873,
      "outputModuleId": 416,
      "outputId": 3,
      "inputModuleId": 375,
      "inputId": 2,
      "color": "#c91847"
    },
    {
      "id": 874,
      "outputModuleId": 416,
      "outputId": 4,
      "inputModuleId": 375,
      "inputId": 3,
      "color": "#c91847"
    },
    {
      "id": 875,
      "outputModuleId": 383,
      "outputId": 2,
      "inputModuleId": 424,
      "inputId": 6,
      "color": "#364449"
    },
    {
      "id": 876,
      "outputModuleId": 424,
      "outputId": 4,
      "inputModuleId": 421,
      "inputId": 1,
      "color": "#364449"
    },
    {
      "id": 877,
      "outputModuleId": 418,
      "outputId": 3,
      "inputModuleId": 424,
      "inputId": 5,
      "color": "#364449"
    },
    {
      "id": 878,
      "outputModuleId": 424,
      "outputId": 4,
      "inputModuleId": 417,
      "inputId": 0,
      "color": "#364449"
    },
    {
      "id": 879,
      "outputModuleId": 424,
      "outputId": 2,
      "inputModuleId": 419,
      "inputId": 3,
      "color": "#c9b70e"
    },
    {
      "id": 880,
      "outputModuleId": 419,
      "outputId": 1,
      "inputModuleId": 425,
      "inputId": 2,
      "color": "#c9b70e"
    },
    {
      "id": 881,
      "outputModuleId": 425,
      "outputId": 0,
      "inputModuleId": 375,
      "inputId": 4,
      "color": "#c91847"
    },
    {
      "id": 889,
      "outputModuleId": 429,
      "outputId": 0,
      "inputModuleId": 425,
      "inputId": 3,
      "color": "#0c8e15"
    },
    {
      "id": 890,
      "outputModuleId": 383,
      "outputId": 1,
      "inputModuleId": 431,
      "inputId": 0,
      "color": "#364449"
    },
    {
      "id": 891,
      "outputModuleId": 383,
      "outputId": 4,
      "inputModuleId": 431,
      "inputId": 1,
      "color": "#364449"
    },
    {
      "id": 892,
      "outputModuleId": 431,
      "outputId": 0,
      "inputModuleId": 429,
      "inputId": 0,
      "color": "#364449"
    },
    {
      "id": 893,
      "outputModuleId": 417,
      "outputId": 0,
      "inputModuleId": 432,
      "inputId": 0,
      "color": "#0c8e15"
    },
    {
      "id": 894,
      "outputModuleId": 429,
      "outputId": 0,
      "inputModuleId": 432,
      "inputId": 1,
      "color": "#0c8e15"
    },
    {
      "id": 895,
      "outputModuleId": 432,
      "outputId": 0,
      "inputModuleId": 415,
      "inputId": 3,
      "color": "#0c8e15"
    },
    {
      "id": 896,
      "outputModuleId": 431,
      "outputId": 1,
      "inputModuleId": 433,
      "inputId": 0,
      "color": "#0c8e15"
    },
    {
      "id": 897,
      "outputModuleId": 433,
      "outputId": 0,
      "inputModuleId": 432,
      "inputId": 2,
      "color": "#0c8e15"
    },
    {
      "id": 898,
      "outputModuleId": 431,
      "outputId": 2,
      "inputModuleId": 434,
      "inputId": 0,
      "color": "#364449"
    },
    {
      "id": 899,
      "outputModuleId": 434,
      "outputId": 0,
      "inputModuleId": 432,
      "inputId": 3,
      "color": "#0c8e15"
    },
    {
      "id": 900,
      "outputModuleId": 436,
      "outputId": 2,
      "inputModuleId": 437,
      "inputId": 0,
      "color": "#0c8e15"
    },
    {
      "id": 901,
      "outputModuleId": 436,
      "outputId": 3,
      "inputModuleId": 437,
      "inputId": 1,
      "color": "#0c8e15"
    },
    {
      "id": 902,
      "outputModuleId": 436,
      "outputId": 4,
      "inputModuleId": 437,
      "inputId": 2,
      "color": "#0c8e15"
    },
    {
      "id": 903,
      "outputModuleId": 436,
      "outputId": 5,
      "inputModuleId": 437,
      "inputId": 3,
      "color": "#0c8e15"
    },
    {
      "id": 904,
      "outputModuleId": 383,
      "outputId": 0,
      "inputModuleId": 437,
      "inputId": 14,
      "color": "#364449"
    },
    {
      "id": 905,
      "outputModuleId": 437,
      "outputId": 0,
      "inputModuleId": 434,
      "inputId": 1,
      "color": "#0c8e15"
    },
    {
      "id": 906,
      "outputModuleId": 437,
      "outputId": 1,
      "inputModuleId": 433,
      "inputId": 1,
      "color": "#0c8e15"
    },
    {
      "id": 907,
      "outputModuleId": 437,
      "outputId": 2,
      "inputModuleId": 417,
      "inputId": 1,
      "color": "#0c8e15"
    },
    {
      "id": 909,
      "outputModuleId": 436,
      "outputId": 1,
      "inputModuleId": 437,
      "inputId": 4,
      "color": "#0c8e15"
    },
    {
      "id": 910,
      "outputModuleId": 436,
      "outputId": 0,
      "inputModuleId": 437,
      "inputId": 5,
      "color": "#0c8e15"
    },
    {
      "id": 911,
      "outputModuleId": 436,
      "outputId": 6,
      "inputModuleId": 437,
      "inputId": 6,
      "color": "#0c8e15"
    },
    {
      "id": 913,
      "outputModuleId": 437,
      "outputId": 5,
      "inputModuleId": 417,
      "inputId": 2,
      "color": "#0c8e15"
    },
    {
      "id": 914,
      "outputModuleId": 437,
      "outputId": 6,
      "inputModuleId": 433,
      "inputId": 2,
      "color": "#0c8e15"
    },
    {
      "id": 915,
      "outputModuleId": 436,
      "outputId": 7,
      "inputModuleId": 434,
      "inputId": 2,
      "color": "#0c8e15"
    },
    {
      "id": 920,
      "outputModuleId": 383,
      "outputId": 4,
      "inputModuleId": 441,
      "inputId": 1,
      "color": "#364449"
    },
    {
      "id": 919,
      "outputModuleId": 383,
      "outputId": 3,
      "inputModuleId": 441,
      "inputId": 0,
      "color": "#364449"
    },
    {
      "id": 917,
      "outputModuleId": 441,
      "outputId": 0,
      "inputModuleId": 419,
      "inputId": 6,
      "color": "#c91847"
    },
    {
      "id": 926,
      "outputModuleId": 383,
      "outputId": 3,
      "inputModuleId": 451,
      "inputId": 0,
      "color": "#364449"
    },
    {
      "id": 927,
      "outputModuleId": 383,
      "outputId": 4,
      "inputModuleId": 451,
      "inputId": 1,
      "color": "#364449"
    },
    {
      "id": 928,
      "outputModuleId": 419,
      "outputId": 0,
      "inputModuleId": 451,
      "inputId": 2,
      "color": "#c9b70e"
    },
    {
      "id": 929,
      "outputModuleId": 451,
      "outputId": 0,
      "inputModuleId": 421,
      "inputId": 0,
      "color": "#c9b70e"
    },
    {
      "id": 930,
      "outputModuleId": 451,
      "outputId": 1,
      "inputModuleId": 453,
      "inputId": 0,
      "color": "#c9b70e"
    },
    {
      "id": 869,
      "outputModuleId": 416,
      "outputId": 0,
      "inputModuleId": 452,
      "inputId": 2,
      "color": "#c9b70e"
    },
    {
      "id": 931,
      "outputModuleId": 453,
      "outputId": 0,
      "inputModuleId": 454,
      "inputId": 0,
      "color": "#c9b70e"
    },
    {
      "id": 932,
      "outputModuleId": 453,
      "outputId": 1,
      "inputModuleId": 454,
      "inputId": 1,
      "color": "#c9b70e"
    },
    {
      "id": 933,
      "outputModuleId": 453,
      "outputId": 2,
      "inputModuleId": 454,
      "inputId": 2,
      "color": "#c9b70e"
    },
    {
      "id": 934,
      "outputModuleId": 453,
      "outputId": 3,
      "inputModuleId": 454,
      "inputId": 3,
      "color": "#c9b70e"
    },
    {
      "id": 935,
      "outputModuleId": 424,
      "outputId": 4,
      "inputModuleId": 453,
      "inputId": 1,
      "color": "#364449"
    },
    {
      "id": 936,
      "outputModuleId": 454,
      "outputId": 0,
      "inputModuleId": 452,
      "inputId": 3,
      "color": "#c9b70e"
    },
    {
      "id": 937,
      "outputModuleId": 452,
      "outputId": 0,
      "inputModuleId": 415,
      "inputId": 2,
      "color": "#c9b70e"
    },
    {
      "id": 938,
      "outputModuleId": 383,
      "outputId": 3,
      "inputModuleId": 452,
      "inputId": 0,
      "color": "#364449"
    },
    {
      "id": 939,
      "outputModuleId": 383,
      "outputId": 4,
      "inputModuleId": 452,
      "inputId": 1,
      "color": "#364449"
    },
    {
      "id": 941,
      "outputModuleId": 431,
      "outputId": 2,
      "inputModuleId": 437,
      "inputId": 15,
      "color": "#364449"
    },
    {
      "id": 940,
      "outputModuleId": 437,
      "outputId": 10,
      "inputModuleId": 425,
      "inputId": 5,
      "color": "#0c8e15"
    },
    {
      "id": 942,
      "outputModuleId": 437,
      "outputId": 9,
      "inputModuleId": 425,
      "inputId": 4,
      "color": "#0c8e15"
    },
    {
      "id": 943,
      "outputModuleId": 437,
      "outputId": 11,
      "inputModuleId": 415,
      "inputId": 4,
      "color": "#0c8e15"
    },
    {
      "id": 944,
      "outputModuleId": 437,
      "outputId": 12,
      "inputModuleId": 415,
      "inputId": 5,
      "color": "#0c8e15"
    },
    {
      "id": 945,
      "outputModuleId": 418,
      "outputId": 0,
      "inputModuleId": 419,
      "inputId": 4,
      "color": "#c9b70e"
    },
    {
      "id": 948,
      "outputModuleId": 456,
      "outputId": 0,
      "inputModuleId": 457,
      "inputId": 0,
      "color": "#c91847"
    },
    {
      "id": 949,
      "outputModuleId": 457,
      "outputId": 0,
      "inputModuleId": 460,
      "inputId": 1,
      "color": "#c91847"
    },
    {
      "id": 951,
      "outputModuleId": 459,
      "outputId": 0,
      "inputModuleId": 460,
      "inputId": 0,
      "color": "#0c8e15"
    },
    {
      "id": 952,
      "outputModuleId": 458,
      "outputId": 0,
      "inputModuleId": 457,
      "inputId": 1,
      "color": "#0c8e15"
    },
    {
      "id": 953,
      "outputModuleId": 419,
      "outputId": 2,
      "inputModuleId": 456,
      "inputId": 0,
      "color": "#c9b70e"
    },
    {
      "id": 954,
      "outputModuleId": 436,
      "outputId": 3,
      "inputModuleId": 456,
      "inputId": 1,
      "color": "#0c8e15"
    },
    {
      "id": 956,
      "outputModuleId": 460,
      "outputId": 0,
      "inputModuleId": 462,
      "inputId": 5,
      "color": "#c91847"
    },
    {
      "id": 957,
      "outputModuleId": 462,
      "outputId": 1,
      "inputModuleId": 375,
      "inputId": 5,
      "color": "#c91847"
    },
    {
      "id": 958,
      "outputModuleId": 437,
      "outputId": 2,
      "inputModuleId": 375,
      "inputId": 21,
      "color": "#0c8e15"
    },
    {
      "id": 959,
      "outputModuleId": 431,
      "outputId": 3,
      "inputModuleId": 463,
      "inputId": 0,
      "color": "#364449"
    },
    {
      "id": 960,
      "outputModuleId": 463,
      "outputId": 0,
      "inputModuleId": 459,
      "inputId": 0,
      "color": "#364449"
    },
    {
      "id": 961,
      "outputModuleId": 463,
      "outputId": 1,
      "inputModuleId": 458,
      "inputId": 0,
      "color": "#364449"
    },
    {
      "id": 962,
      "outputModuleId": 437,
      "outputId": 8,
      "inputModuleId": 462,
      "inputId": 2,
      "color": "#0c8e15"
    }
  ]
}