{
  "version": "1.1.6",
  "modules": [
    {
      "id": 1,
      "plugin": "Core",
      "version": "1.1.6",
      "model": "AudioInterface",
      "params": [],
      "leftModuleId": 375,
      "rightModuleId": 384,
      "data": {
        "audio": {
          "driver": 7,
          "deviceName": "Studio USB ASIO Driver",
          "offset": 0,
          "maxChannels": 8,
          "sampleRate": 48000,
          "blockSize": 256
        }
      },
      "pos": [
        40,
        0
      ]
    },
    {
      "id": 76,
      "plugin": "Stoermelder-P1",
      "version": "1.10.0",
      "model": "Mb",
      "params": [],
      "leftModuleId": 364,
      "rightModuleId": 380,
      "data": {
        "mode": 1
      },
      "pos": [
        4,
        0
      ]
    },
    {
      "id": 360,
      "plugin": "LindenbergResearch",
      "version": "1.3.3",
      "model": "BlankPanel_Wood",
      "params": [],
      "leftModuleId": 719,
      "gestaltID": 1,
      "gradient": false,
      "patina": false,
      "patina_i_x": false,
      "patina_i_y": false,
      "patina_a_x": 1048.69849,
      "patina_a_y": 465.392822,
      "overlay": false,
      "overlay_r": 0.797075808,
      "overlay_g": 0.404897928,
      "overlay_b": 0.0369209051,
      "overlay_a": 0.235077262,
      "AGED": false,
      "screws": true,
      "logo": false,
      "pos": [
        74,
        0
      ]
    },
    {
      "id": 362,
      "plugin": "LindenbergResearch",
      "version": "1.3.3",
      "model": "BlankPanel_Wood",
      "params": [],
      "leftModuleId": 720,
      "gestaltID": 1,
      "gradient": false,
      "patina": false,
      "patina_i_x": false,
      "patina_i_y": false,
      "patina_a_x": 1048.69849,
      "patina_a_y": 465.392822,
      "overlay": false,
      "overlay_r": 0.0601139069,
      "overlay_g": 0.433385074,
      "overlay_b": 0.96533972,
      "overlay_a": 0.313129127,
      "AGED": false,
      "screws": true,
      "logo": false,
      "pos": [
        74,
        1
      ]
    },
    {
      "id": 364,
      "plugin": "LindenbergResearch",
      "version": "1.3.3",
      "model": "BlankPanel_Wood",
      "params": [],
      "rightModuleId": 76,
      "gestaltID": 1,
      "gradient": false,
      "patina": false,
      "patina_i_x": true,
      "patina_i_y": false,
      "patina_a_x": 732.980896,
      "patina_a_y": 232.628174,
      "overlay": false,
      "overlay_r": 0.844278216,
      "overlay_g": 0.864125252,
      "overlay_b": 0.700067461,
      "overlay_a": 0.107053153,
      "AGED": false,
      "screws": true,
      "logo": false,
      "pos": [
        0,
        0
      ]
    },
    {
      "id": 365,
      "plugin": "LindenbergResearch",
      "version": "1.3.3",
      "model": "BlankPanel_Wood",
      "params": [],
      "rightModuleId": 648,
      "gestaltID": 1,
      "gradient": false,
      "patina": false,
      "patina_i_x": true,
      "patina_i_y": false,
      "patina_a_x": 732.980896,
      "patina_a_y": 232.628174,
      "overlay": false,
      "overlay_r": 0.815619528,
      "overlay_g": 0.395014346,
      "overlay_b": 0.843371511,
      "overlay_a": 0.363844246,
      "AGED": false,
      "screws": true,
      "logo": false,
      "pos": [
        0,
        1
      ]
    },
    {
      "id": 375,
      "plugin": "squinkylabs-plug1",
      "version": "1.0.22",
      "model": "squinkylabs-mix8",
      "params": [
        {
          "id": 0,
          "value": 0.800000012
        },
        {
          "id": 1,
          "value": 0.0
        },
        {
          "id": 2,
          "value": 0.800000012
        },
        {
          "id": 3,
          "value": 0.800000012
        },
        {
          "id": 4,
          "value": 0.800000012
        },
        {
          "id": 5,
          "value": 0.800000012
        },
        {
          "id": 6,
          "value": 0.800000012
        },
        {
          "id": 7,
          "value": 0.800000012
        },
        {
          "id": 8,
          "value": 0.800000012
        },
        {
          "id": 9,
          "value": 0.800000012
        },
        {
          "id": 10,
          "value": -0.35799998
        },
        {
          "id": 11,
          "value": 0.339000016
        },
        {
          "id": 12,
          "value": 0.0
        },
        {
          "id": 13,
          "value": 0.0
        },
        {
          "id": 14,
          "value": 0.0
        },
        {
          "id": 15,
          "value": 0.0
        },
        {
          "id": 16,
          "value": 0.0
        },
        {
          "id": 17,
          "value": 0.0
        },
        {
          "id": 18,
          "value": 0.0
        },
        {
          "id": 19,
          "value": 0.0
        },
        {
          "id": 20,
          "value": 0.0
        },
        {
          "id": 21,
          "value": 0.0
        },
        {
          "id": 22,
          "value": 0.0
        },
        {
          "id": 23,
          "value": 0.0
        },
        {
          "id": 24,
          "value": 0.0
        },
        {
          "id": 25,
          "value": 0.0
        },
        {
          "id": 26,
          "value": 0.0
        },
        {
          "id": 27,
          "value": 0.0
        },
        {
          "id": 28,
          "value": 0.0
        },
        {
          "id": 29,
          "value": 0.0
        },
        {
          "id": 30,
          "value": 0.0
        },
        {
          "id": 31,
          "value": 0.0
        },
        {
          "id": 32,
          "value": 0.0
        },
        {
          "id": 33,
          "value": 0.0
        },
        {
          "id": 34,
          "value": 0.170999974
        },
        {
          "id": 35,
          "value": 0.166500032
        },
        {
          "id": 36,
          "value": 0.0
        },
        {
          "id": 37,
          "value": 0.0
        },
        {
          "id": 38,
          "value": 0.0
        },
        {
          "id": 39,
          "value": 0.0
        },
        {
          "id": 40,
          "value": 0.0
        },
        {
          "id": 41,
          "value": 0.0
        },
        {
          "id": 42,
          "value": 0.725499392
        }
      ],
      "leftModuleId": 646,
      "rightModuleId": 1,
      "pos": [
        14,
        0
      ]
    },
    {
      "id": 380,
      "plugin": "Stoermelder-P1",
      "version": "1.10.0",
      "model": "Me",
      "params": [],
      "leftModuleId": 76,
      "rightModuleId": 646,
      "pos": [
        6,
        0
      ]
    },
    {
      "id": 384,
      "plugin": "Valley",
      "version": "1.1.7",
      "model": "Plateau",
      "params": [
        {
          "id": 0,
          "value": 0.0
        },
        {
          "id": 1,
          "value": 1.0
        },
        {
          "id": 2,
          "value": 0.0
        },
        {
          "id": 3,
          "value": 2.54499912
        },
        {
          "id": 4,
          "value": 10.0
        },
        {
          "id": 5,
          "value": 0.221000031
        },
        {
          "id": 6,
          "value": 10.0
        },
        {
          "id": 7,
          "value": 0.724080503
        },
        {
          "id": 8,
          "value": 10.0
        },
        {
          "id": 9,
          "value": 10.0
        },
        {
          "id": 10,
          "value": 0.0
        },
        {
          "id": 11,
          "value": 0.5
        },
        {
          "id": 12,
          "value": 0.5
        },
        {
          "id": 13,
          "value": 0.0
        },
        {
          "id": 14,
          "value": 0.0
        },
        {
          "id": 15,
          "value": 0.0
        },
        {
          "id": 16,
          "value": 0.0
        },
        {
          "id": 17,
          "value": 0.0
        },
        {
          "id": 18,
          "value": 0.0
        },
        {
          "id": 19,
          "value": 0.0
        },
        {
          "id": 20,
          "value": 0.0
        },
        {
          "id": 21,
          "value": 0.314999998
        },
        {
          "id": 22,
          "value": 0.0
        },
        {
          "id": 23,
          "value": -0.477000028
        },
        {
          "id": 24,
          "value": 0.0
        },
        {
          "id": 25,
          "value": 0.0
        },
        {
          "id": 26,
          "value": 0.0
        },
        {
          "id": 27,
          "value": 0.0
        },
        {
          "id": 28,
          "value": 0.0
        },
        {
          "id": 29,
          "value": 0.0
        },
        {
          "id": 30,
          "value": 1.0
        }
      ],
      "leftModuleId": 1,
      "rightModuleId": 717,
      "data": {
        "frozen": false,
        "freezeToggle": false,
        "panelStyle": 0,
        "tuned": 0,
        "diffuseInput": 1,
        "preDelayCVSens": 0,
        "inputSensitivity": 0,
        "outputSaturation": 0
      },
      "pos": [
        50,
        0
      ]
    },
    {
      "id": 646,
      "plugin": "Stoermelder-P1",
      "version": "1.10.0",
      "model": "Stroke",
      "params": [],
      "leftModuleId": 380,
      "rightModuleId": 375,
      "data": {
        "panelTheme": 1,
        "keys": [
          {
            "button": -1,
            "key": 49,
            "mods": 0,
            "mode": 24,
            "high": false,
            "data": "#e0d8a3"
          },
          {
            "button": -1,
            "key": 50,
            "mods": 0,
            "mode": 24,
            "high": false,
            "data": "#81b29a"
          },
          {
            "button": -1,
            "key": 51,
            "mods": 0,
            "mode": 24,
            "high": false,
            "data": "#e07a5f"
          },
          {
            "button": -1,
            "key": 52,
            "mods": 0,
            "mode": 24,
            "high": false,
            "data": "#3d405b"
          },
          {
            "button": -1,
            "key": -1,
            "mods": 0,
            "mode": 1,
            "high": false,
            "data": ""
          },
          {
            "button": -1,
            "key": -1,
            "mods": 0,
            "mode": 1,
            "high": false,
            "data": ""
          },
          {
            "button": -1,
            "key": -1,
            "mods": 0,
            "mode": 1,
            "high": false,
            "data": ""
          },
          {
            "button": -1,
            "key": -1,
            "mods": 0,
            "mode": 1,
            "high": false,
            "data": ""
          },
          {
            "button": -1,
            "key": -1,
            "mods": 0,
            "mode": 1,
            "high": false,
            "data": ""
          },
          {
            "button": -1,
            "key": -1,
            "mods": 0,
            "mode": 1,
            "high": false,
            "data": ""
          }
        ]
      },
      "pos": [
        8,
        0
      ]
    },
    {
      "id": 648,
      "plugin": "ImpromptuModular",
      "version": "1.1.12",
      "model": "Clocked-Clkd",
      "params": [
        {
          "id": 0,
          "value": 5.0
        },
        {
          "id": 1,
          "value": 3.0
        },
        {
          "id": 2,
          "value": 4.0
        },
        {
          "id": 3,
          "value": 120.0
        },
        {
          "id": 4,
          "value": 0.0
        },
        {
          "id": 5,
          "value": 0.0
        },
        {
          "id": 6,
          "value": 0.0
        },
        {
          "id": 7,
          "value": 0.0
        },
        {
          "id": 8,
          "value": 0.0
        },
        {
          "id": 9,
          "value": 0.0
        }
      ],
      "leftModuleId": 365,
      "rightModuleId": 713,
      "data": {
        "panelTheme": 1,
        "running": false,
        "bpmDetectionMode": false,
        "resetOnStartStop": 0,
        "ppqn": 4,
        "resetClockOutputsHigh": true,
        "momentaryRunInput": true,
        "displayIndex": 3,
        "trigOuts": [
          false,
          false,
          false,
          false
        ],
        "clockMaster": -1
      },
      "pos": [
        4,
        1
      ]
    },
    {
      "id": 711,
      "plugin": "Instruo",
      "version": "1.1.0",
      "model": "ochd",
      "params": [
        {
          "id": 0,
          "value": 0.228500038
        },
        {
          "id": 1,
          "value": 0.0
        }
      ],
      "leftModuleId": 712,
      "rightModuleId": 716,
      "data": {
        "deviations": {
          "lfos": [
            {
              "amplitude": 5.5,
              "frequency": {
                "maximum": 154.699997,
                "minimum": 0.147,
                "absMinimum": 0.000294000027,
                "absMaximum": 160.887985
              }
            },
            {
              "amplitude": 5.5,
              "frequency": {
                "maximum": 84.7399979,
                "minimum": 0.0816000029,
                "absMinimum": 0.00016320002,
                "absMaximum": 88.1295929
              }
            },
            {
              "amplitude": 5.5,
              "frequency": {
                "maximum": 42.2599983,
                "minimum": 0.0417000018,
                "absMinimum": 8.34000093e-5,
                "absMaximum": 43.9503975
              }
            },
            {
              "amplitude": 5.5,
              "frequency": {
                "maximum": 22.0100002,
                "minimum": 0.0221999995,
                "absMinimum": 4.43999998e-5,
                "absMaximum": 22.8903999
              }
            },
            {
              "amplitude": 5.5,
              "frequency": {
                "maximum": 10.3699999,
                "minimum": 0.0102000004,
                "absMinimum": 2.04000025e-5,
                "absMaximum": 10.7847996
              }
            },
            {
              "amplitude": 5.5,
              "frequency": {
                "maximum": 4.69999981,
                "minimum": 0.00505999988,
                "absMinimum": 1.01200003e-5,
                "absMaximum": 4.88799953
              }
            },
            {
              "amplitude": 5.5,
              "frequency": {
                "maximum": 2.11999989,
                "minimum": 0.00212999992,
                "absMinimum": 4.25999997e-6,
                "absMaximum": 2.20479989
              }
            },
            {
              "amplitude": 5.5,
              "frequency": {
                "maximum": 1.00999999,
                "minimum": 0.00100000005,
                "absMinimum": 2.00000022e-6,
                "absMaximum": 1.0503999
              }
            }
          ]
        }
      },
      "pos": [
        56,
        1
      ]
    },
    {
      "id": 712,
      "plugin": "AudibleInstruments",
      "version": "1.5.0",
      "model": "Rings",
      "params": [
        {
          "id": 0,
          "value": 0.0
        },
        {
          "id": 1,
          "value": 0.0
        },
        {
          "id": 2,
          "value": 30.0
        },
        {
          "id": 3,
          "value": 0.66049999
        },
        {
          "id": 4,
          "value": 0.846500337
        },
        {
          "id": 5,
          "value": 0.434000015
        },
        {
          "id": 6,
          "value": 0.198499992
        },
        {
          "id": 7,
          "value": 0.047999993
        },
        {
          "id": 8,
          "value": 0.0240000058
        },
        {
          "id": 9,
          "value": 0.1679997
        },
        {
          "id": 10,
          "value": 0.369000018
        },
        {
          "id": 11,
          "value": 0.194999978
        }
      ],
      "leftModuleId": 713,
      "rightModuleId": 711,
      "data": {
        "polyphony": 2,
        "model": 1,
        "easterEgg": false
      },
      "pos": [
        42,
        1
      ]
    },
    {
      "id": 713,
      "plugin": "cvly",
      "version": "1.0.1",
      "model": "ntrvlc",
      "params": [
        {
          "id": 0,
          "value": 0.0
        },
        {
          "id": 1,
          "value": 1.0
        },
        {
          "id": 2,
          "value": 0.0
        },
        {
          "id": 3,
          "value": 0.0
        },
        {
          "id": 4,
          "value": 1.0
        },
        {
          "id": 5,
          "value": 0.0
        },
        {
          "id": 6,
          "value": 0.0
        },
        {
          "id": 7,
          "value": 0.0
        },
        {
          "id": 8,
          "value": 1.0
        },
        {
          "id": 9,
          "value": 1.0
        },
        {
          "id": 10,
          "value": 0.0
        },
        {
          "id": 11,
          "value": 1.0
        },
        {
          "id": 12,
          "value": 0.0
        },
        {
          "id": 13,
          "value": 8.0
        },
        {
          "id": 14,
          "value": 7.0
        },
        {
          "id": 15,
          "value": 8.0
        },
        {
          "id": 16,
          "value": 6.0
        },
        {
          "id": 17,
          "value": -0.920930862
        },
        {
          "id": 18,
          "value": -0.0747060776
        },
        {
          "id": 19,
          "value": -0.980774641
        },
        {
          "id": 20,
          "value": -0.538452387
        },
        {
          "id": 21,
          "value": 0.583982348
        },
        {
          "id": 22,
          "value": -0.49708569
        },
        {
          "id": 23,
          "value": -0.166553736
        },
        {
          "id": 24,
          "value": -0.046692729
        },
        {
          "id": 25,
          "value": -0.412487984
        },
        {
          "id": 26,
          "value": -0.948863506
        },
        {
          "id": 27,
          "value": -0.611097693
        },
        {
          "id": 28,
          "value": 0.38516438
        },
        {
          "id": 29,
          "value": -0.629907608
        },
        {
          "id": 30,
          "value": -0.127931595
        },
        {
          "id": 31,
          "value": 0.554139972
        },
        {
          "id": 32,
          "value": 0.833110332
        },
        {
          "id": 33,
          "value": 0.243752122
        },
        {
          "id": 34,
          "value": -0.070453167
        },
        {
          "id": 35,
          "value": 0.735345125
        },
        {
          "id": 36,
          "value": -0.670699
        },
        {
          "id": 37,
          "value": 0.720418692
        },
        {
          "id": 38,
          "value": -0.629840851
        },
        {
          "id": 39,
          "value": -0.0424365997
        },
        {
          "id": 40,
          "value": 0.119285822
        },
        {
          "id": 41,
          "value": -0.187831759
        },
        {
          "id": 42,
          "value": -0.990814924
        },
        {
          "id": 43,
          "value": -0.702367663
        },
        {
          "id": 44,
          "value": 0.18774879
        },
        {
          "id": 45,
          "value": 0.625546932
        },
        {
          "id": 46,
          "value": -0.421961904
        },
        {
          "id": 47,
          "value": -0.253595352
        },
        {
          "id": 48,
          "value": 0.463433981
        }
      ],
      "leftModuleId": 648,
      "rightModuleId": 712,
      "pos": [
        14,
        1
      ]
    },
    {
      "id": 716,
      "plugin": "JW-Modules",
      "version": "1.0.29",
      "model": "Quantizer",
      "params": [
        {
          "id": 0,
          "value": 0.0
        },
        {
          "id": 1,
          "value": 11.0
        },
        {
          "id": 2,
          "value": 0.0
        }
      ],
      "leftModuleId": 711,
      "rightModuleId": 718,
      "data": {},
      "pos": [
        60,
        1
      ]
    },
    {
      "id": 717,
      "plugin": "Bogaudio",
      "version": "1.1.37",
      "model": "Bogaudio-AddrSeq",
      "params": [
        {
          "id": 0,
          "value": 8.0
        },
        {
          "id": 1,
          "value": 1.0
        },
        {
          "id": 2,
          "value": 0.0
        },
        {
          "id": 3,
          "value": 0.129000008
        },
        {
          "id": 4,
          "value": 0.372000009
        },
        {
          "id": 5,
          "value": -0.260999978
        },
        {
          "id": 6,
          "value": 0.381000012
        },
        {
          "id": 7,
          "value": 0.290999979
        },
        {
          "id": 8,
          "value": 0.66900003
        },
        {
          "id": 9,
          "value": -0.273000032
        },
        {
          "id": 10,
          "value": -0.26699999
        }
      ],
      "leftModuleId": 384,
      "rightModuleId": 719,
      "data": {
        "poly_input": 0,
        "select_on_clock": false,
        "triggered_select": false,
        "reverse_on_negative_clock": false,
        "range_offset": 0.0,
        "range_scale": 10.0
      },
      "pos": [
        62,
        0
      ]
    },
    {
      "id": 718,
      "plugin": "CountModula",
      "version": "1.15.1",
      "model": "ClockDivider",
      "params": [
        {
          "id": 0,
          "value": 0.0
        },
        {
          "id": 1,
          "value": 0.0
        }
      ],
      "leftModuleId": 716,
      "rightModuleId": 720,
      "data": {
        "moduleVersion": 1,
        "count": 324,
        "theme": 1
      },
      "pos": [
        64,
        1
      ]
    },
    {
      "id": 719,
      "plugin": "Bogaudio",
      "version": "1.1.37",
      "model": "Bogaudio-AddrSeq",
      "params": [
        {
          "id": 0,
          "value": 5.33300257
        },
        {
          "id": 1,
          "value": 1.0
        },
        {
          "id": 2,
          "value": 0.0
        },
        {
          "id": 3,
          "value": -0.386999965
        },
        {
          "id": 4,
          "value": 0.090000011
        },
        {
          "id": 5,
          "value": -0.101999976
        },
        {
          "id": 6,
          "value": 0.186000019
        },
        {
          "id": 7,
          "value": -0.162000045
        },
        {
          "id": 8,
          "value": 0.66900003
        },
        {
          "id": 9,
          "value": -0.273000032
        },
        {
          "id": 10,
          "value": -0.26699999
        }
      ],
      "leftModuleId": 717,
      "rightModuleId": 360,
      "data": {
        "poly_input": 0,
        "select_on_clock": false,
        "triggered_select": false,
        "reverse_on_negative_clock": false,
        "range_offset": 0.0,
        "range_scale": 10.0
      },
      "pos": [
        68,
        0
      ]
    },
    {
      "id": 720,
      "plugin": "Ohmer",
      "version": "1.1.6",
      "model": "OhmerBlank2",
      "params": [],
      "leftModuleId": 718,
      "rightModuleId": 362,
      "data": {
        "Theme": 5,
        "screwsDisposal": 0
      },
      "pos": [
        72,
        1
      ]
    }
  ],
  "cables": [
    {
      "id": 1053,
      "outputModuleId": 375,
      "outputId": 0,
      "inputModuleId": 1,
      "inputId": 0,
      "color": "#db6443"
    },
    {
      "id": 1054,
      "outputModuleId": 375,
      "outputId": 1,
      "inputModuleId": 1,
      "inputId": 1,
      "color": "#db6443"
    },
    {
      "id": 1063,
      "outputModuleId": 375,
      "outputId": 10,
      "inputModuleId": 384,
      "inputId": 0,
      "color": "#db6443"
    },
    {
      "id": 1064,
      "outputModuleId": 375,
      "outputId": 11,
      "inputModuleId": 384,
      "inputId": 1,
      "color": "#db6443"
    },
    {
      "id": 1065,
      "outputModuleId": 384,
      "outputId": 0,
      "inputModuleId": 375,
      "inputId": 34,
      "color": "#e07a5f"
    },
    {
      "id": 1066,
      "outputModuleId": 384,
      "outputId": 1,
      "inputModuleId": 375,
      "inputId": 35,
      "color": "#db6443"
    },
    {
      "id": 1202,
      "outputModuleId": 712,
      "outputId": 0,
      "inputModuleId": 375,
      "inputId": 0,
      "color": "#e07a5f"
    },
    {
      "id": 1203,
      "outputModuleId": 712,
      "outputId": 1,
      "inputModuleId": 375,
      "inputId": 1,
      "color": "#e07a5f"
    },
    {
      "id": 1204,
      "outputModuleId": 711,
      "outputId": 4,
      "inputModuleId": 712,
      "inputId": 4,
      "color": "#81b29a"
    },
    {
      "id": 1205,
      "outputModuleId": 711,
      "outputId": 5,
      "inputModuleId": 712,
      "inputId": 2,
      "color": "#81b29a"
    },
    {
      "id": 1206,
      "outputModuleId": 711,
      "outputId": 0,
      "inputModuleId": 712,
      "inputId": 1,
      "color": "#81b29a"
    },
    {
      "id": 1207,
      "outputModuleId": 711,
      "outputId": 6,
      "inputModuleId": 712,
      "inputId": 0,
      "color": "#81b29a"
    },
    {
      "id": 1200,
      "outputModuleId": 648,
      "outputId": 1,
      "inputModuleId": 713,
      "inputId": 0,
      "color": "#3d405b"
    },
    {
      "id": 1208,
      "outputModuleId": 648,
      "outputId": 1,
      "inputModuleId": 712,
      "inputId": 5,
      "color": "#3d405b"
    },
    {
      "id": 1209,
      "outputModuleId": 711,
      "outputId": 2,
      "inputModuleId": 712,
      "inputId": 3,
      "color": "#81b29a"
    },
    {
      "id": 1212,
      "outputModuleId": 648,
      "outputId": 2,
      "inputModuleId": 713,
      "inputId": 1,
      "color": "#3d405b"
    },
    {
      "id": 1213,
      "outputModuleId": 648,
      "outputId": 3,
      "inputModuleId": 713,
      "inputId": 2,
      "color": "#3d405b"
    },
    {
      "id": 1214,
      "outputModuleId": 648,
      "outputId": 0,
      "inputModuleId": 713,
      "inputId": 3,
      "color": "#3d405b"
    },
    {
      "id": 1216,
      "outputModuleId": 711,
      "outputId": 3,
      "inputModuleId": 384,
      "inputId": 7,
      "color": "#81b29a"
    },
    {
      "id": 1217,
      "outputModuleId": 711,
      "outputId": 7,
      "inputModuleId": 384,
      "inputId": 9,
      "color": "#81b29a"
    },
    {
      "id": 1201,
      "outputModuleId": 713,
      "outputId": 0,
      "inputModuleId": 716,
      "inputId": 2,
      "color": "#e0d8a3"
    },
    {
      "id": 1235,
      "outputModuleId": 716,
      "outputId": 0,
      "inputModuleId": 712,
      "inputId": 6,
      "color": "#e0d8a3"
    },
    {
      "id": 1236,
      "outputModuleId": 648,
      "outputId": 0,
      "inputModuleId": 718,
      "inputId": 0,
      "color": "#3d405b"
    },
    {
      "id": 1237,
      "outputModuleId": 648,
      "outputId": 4,
      "inputModuleId": 718,
      "inputId": 1,
      "color": "#3d405b"
    },
    {
      "id": 1238,
      "outputModuleId": 718,
      "outputId": 2,
      "inputModuleId": 717,
      "inputId": 0,
      "color": "#3d405b"
    },
    {
      "id": 1239,
      "outputModuleId": 717,
      "outputId": 0,
      "inputModuleId": 716,
      "inputId": 0,
      "color": "#81b29a"
    },
    {
      "id": 1240,
      "outputModuleId": 648,
      "outputId": 4,
      "inputModuleId": 713,
      "inputId": 4,
      "color": "#3d405b"
    },
    {
      "id": 1241,
      "outputModuleId": 648,
      "outputId": 4,
      "inputModuleId": 717,
      "inputId": 1,
      "color": "#3d405b"
    },
    {
      "id": 1242,
      "outputModuleId": 648,
      "outputId": 4,
      "inputModuleId": 719,
      "inputId": 1,
      "color": "#3d405b"
    },
    {
      "id": 1243,
      "outputModuleId": 719,
      "outputId": 0,
      "inputModuleId": 716,
      "inputId": 1,
      "color": "#81b29a"
    },
    {
      "id": 1244,
      "outputModuleId": 718,
      "outputId": 2,
      "inputModuleId": 719,
      "inputId": 0,
      "color": "#3d405b"
    }
  ]
}