{
  "version": "1.1.6",
  "modules": [
    {
      "id": 1,
      "plugin": "Core",
      "version": "1.1.6",
      "model": "AudioInterface",
      "params": [],
      "leftModuleId": 94,
      "rightModuleId": 79,
      "data": {
        "audio": {
          "driver": 7,
          "deviceName": "Mackie ASIO Driver",
          "offset": 0,
          "maxChannels": 8,
          "sampleRate": 48000,
          "blockSize": 256
        }
      },
      "pos": [
        50,
        0
      ]
    },
    {
      "id": 5,
      "plugin": "Core",
      "version": "1.1.6",
      "model": "MIDIToCVInterface",
      "params": [],
      "rightModuleId": 94,
      "data": {
        "channels": 1,
        "polyMode": 0,
        "clockDivision": 24,
        "lastPitch": 8192,
        "lastMod": 0,
        "midi": {
          "driver": 4,
          "channel": -1
        }
      },
      "pos": [
        32,
        0
      ]
    },
    {
      "id": 76,
      "plugin": "Stoermelder-P1",
      "version": "1.8.0",
      "model": "Mb",
      "params": [],
      "leftModuleId": 103,
      "rightModuleId": 85,
      "data": {
        "mode": 1
      },
      "pos": [
        69,
        1
      ]
    },
    {
      "id": 79,
      "plugin": "Stoermelder-P1",
      "version": "1.8.0",
      "model": "Stroke",
      "params": [],
      "leftModuleId": 1,
      "data": {
        "panelTheme": 1,
        "keys": [
          {
            "button": -1,
            "key": 49,
            "mods": 0,
            "mode": 24,
            "high": false,
            "data": "#c9b70e"
          },
          {
            "button": -1,
            "key": 50,
            "mods": 0,
            "mode": 24,
            "high": false,
            "data": "#0c8e15"
          },
          {
            "button": -1,
            "key": 51,
            "mods": 0,
            "mode": 24,
            "high": false,
            "data": "#c91847"
          },
          {
            "button": -1,
            "key": 52,
            "mods": 0,
            "mode": 24,
            "high": false,
            "data": "#364449"
          },
          {
            "button": -1,
            "key": -1,
            "mods": 0,
            "mode": 1,
            "high": false,
            "data": ""
          },
          {
            "button": -1,
            "key": -1,
            "mods": 0,
            "mode": 1,
            "high": false,
            "data": ""
          },
          {
            "button": -1,
            "key": -1,
            "mods": 0,
            "mode": 1,
            "high": false,
            "data": ""
          },
          {
            "button": -1,
            "key": -1,
            "mods": 0,
            "mode": 1,
            "high": false,
            "data": ""
          },
          {
            "button": -1,
            "key": -1,
            "mods": 0,
            "mode": 1,
            "high": false,
            "data": ""
          },
          {
            "button": -1,
            "key": -1,
            "mods": 0,
            "mode": 1,
            "high": false,
            "data": ""
          }
        ]
      },
      "pos": [
        60,
        0
      ]
    },
    {
      "id": 82,
      "plugin": "CountModula",
      "version": "1.14.0",
      "model": "Palette",
      "params": [
        {
          "id": 0,
          "value": 0.0
        }
      ],
      "leftModuleId": 83,
      "rightModuleId": 102,
      "data": {
        "moduleVersion": 1,
        "color": 3,
        "theme": 1
      },
      "pos": [
        35,
        1
      ]
    },
    {
      "id": 83,
      "plugin": "unless_modules",
      "version": "1.1.1",
      "model": "room",
      "params": [],
      "leftModuleId": 146,
      "rightModuleId": 82,
      "data": {
        "inclusive": false,
        "strip_mode": false
      },
      "pos": [
        32,
        1
      ]
    },
    {
      "id": 85,
      "plugin": "Stoermelder-P1",
      "version": "1.8.0",
      "model": "Strip",
      "params": [
        {
          "id": 0,
          "value": 0.0
        },
        {
          "id": 1,
          "value": 0.0
        },
        {
          "id": 2,
          "value": 0.0
        },
        {
          "id": 3,
          "value": 0.0
        },
        {
          "id": 4,
          "value": 0.0
        }
      ],
      "leftModuleId": 76,
      "rightModuleId": 91,
      "data": {
        "panelTheme": 1,
        "mode": 1,
        "onMode": 0,
        "excludedParams": [],
        "randomExcl": 1,
        "randomParamsOnly": false
      },
      "pos": [
        71,
        1
      ]
    },
    {
      "id": 90,
      "plugin": "AS",
      "version": "1.0.4",
      "model": "ReverbStereoFx",
      "params": [
        {
          "id": 0,
          "value": 0.990999997
        },
        {
          "id": 1,
          "value": 0.5
        },
        {
          "id": 2,
          "value": 1.0
        },
        {
          "id": 3,
          "value": 0.0
        }
      ],
      "bypass": true,
      "leftModuleId": 91,
      "rightModuleId": 131,
      "data": {
        "as_FxBypass": [
          false
        ]
      },
      "pos": [
        86,
        1
      ]
    },
    {
      "id": 91,
      "plugin": "AlrightDevices",
      "version": "1.0.3",
      "model": "Chronoblob2",
      "params": [
        {
          "id": 0,
          "value": 0.415999919
        },
        {
          "id": 1,
          "value": 0.459499925
        },
        {
          "id": 2,
          "value": 0.84799993
        },
        {
          "id": 3,
          "value": 0.0
        },
        {
          "id": 4,
          "value": 0.0
        },
        {
          "id": 5,
          "value": 0.0
        },
        {
          "id": 6,
          "value": 0.0
        },
        {
          "id": 7,
          "value": 0.0
        },
        {
          "id": 8,
          "value": 1.0
        },
        {
          "id": 9,
          "value": 0.0
        }
      ],
      "bypass": true,
      "leftModuleId": 85,
      "rightModuleId": 90,
      "data": {
        "delay_mode": 1,
        "hold_behavior": 0,
        "sync_prescaler": 6
      },
      "pos": [
        74,
        1
      ]
    },
    {
      "id": 94,
      "plugin": "Core",
      "version": "1.1.6",
      "model": "MIDI-Map",
      "params": [],
      "leftModuleId": 5,
      "rightModuleId": 1,
      "data": {
        "maps": [
          {
            "cc": -1,
            "moduleId": -1,
            "paramId": 0
          }
        ],
        "midi": {
          "driver": 4,
          "channel": -1
        }
      },
      "pos": [
        40,
        0
      ]
    },
    {
      "id": 102,
      "plugin": "Bogaudio",
      "version": "1.1.37",
      "model": "Bogaudio-Mix4",
      "params": [
        {
          "id": 0,
          "value": 0.960999846
        },
        {
          "id": 1,
          "value": 0.0
        },
        {
          "id": 2,
          "value": 0.0
        },
        {
          "id": 3,
          "value": 0.829591036
        },
        {
          "id": 4,
          "value": 0.0
        },
        {
          "id": 5,
          "value": 0.0
        },
        {
          "id": 6,
          "value": 0.840090752
        },
        {
          "id": 7,
          "value": -0.75
        },
        {
          "id": 8,
          "value": 0.0
        },
        {
          "id": 9,
          "value": 0.574590862
        },
        {
          "id": 10,
          "value": 0.549000025
        },
        {
          "id": 11,
          "value": 0.0
        },
        {
          "id": 12,
          "value": 0.909090936
        },
        {
          "id": 13,
          "value": 0.0
        },
        {
          "id": 14,
          "value": 0.0
        }
      ],
      "leftModuleId": 82,
      "rightModuleId": 103,
      "data": {
        "dim_decibels": 12.0,
        "poly_channel_offset": -1
      },
      "pos": [
        39,
        1
      ]
    },
    {
      "id": 103,
      "plugin": "Bogaudio",
      "version": "1.1.37",
      "model": "Bogaudio-Mix4x",
      "params": [
        {
          "id": 0,
          "value": 0.0
        },
        {
          "id": 1,
          "value": 0.0
        },
        {
          "id": 2,
          "value": 0.0
        },
        {
          "id": 3,
          "value": 0.0
        },
        {
          "id": 4,
          "value": 0.0
        },
        {
          "id": 5,
          "value": 0.0
        },
        {
          "id": 6,
          "value": 0.0
        },
        {
          "id": 7,
          "value": 0.0
        },
        {
          "id": 8,
          "value": 0.0
        },
        {
          "id": 9,
          "value": 0.0
        },
        {
          "id": 10,
          "value": 0.0
        },
        {
          "id": 11,
          "value": 0.0
        },
        {
          "id": 12,
          "value": 0.0
        },
        {
          "id": 13,
          "value": 0.0
        },
        {
          "id": 14,
          "value": 0.0
        },
        {
          "id": 15,
          "value": 0.0
        },
        {
          "id": 16,
          "value": 0.0
        },
        {
          "id": 17,
          "value": 0.0
        },
        {
          "id": 18,
          "value": 0.0
        },
        {
          "id": 19,
          "value": 0.757499993
        },
        {
          "id": 20,
          "value": 0.0
        },
        {
          "id": 21,
          "value": 0.0
        },
        {
          "id": 22,
          "value": 0.0
        },
        {
          "id": 23,
          "value": 0.0
        },
        {
          "id": 24,
          "value": 0.0
        },
        {
          "id": 25,
          "value": 0.0
        },
        {
          "id": 26,
          "value": 0.0
        },
        {
          "id": 27,
          "value": 0.0
        },
        {
          "id": 28,
          "value": 0.800000012
        },
        {
          "id": 29,
          "value": 0.800000012
        }
      ],
      "leftModuleId": 102,
      "rightModuleId": 76,
      "data": {},
      "pos": [
        54,
        1
      ]
    },
    {
      "id": 30,
      "plugin": "ImpromptuModular",
      "version": "1.1.10",
      "model": "Clocked",
      "params": [
        {
          "id": 0,
          "value": 148.0
        },
        {
          "id": 1,
          "value": 2.0
        },
        {
          "id": 2,
          "value": 0.0
        },
        {
          "id": 3,
          "value": 5.0
        },
        {
          "id": 4,
          "value": 0.0
        },
        {
          "id": 5,
          "value": 0.0
        },
        {
          "id": 6,
          "value": 0.0
        },
        {
          "id": 7,
          "value": 0.0
        },
        {
          "id": 8,
          "value": 0.5
        },
        {
          "id": 9,
          "value": 0.5
        },
        {
          "id": 10,
          "value": 0.5
        },
        {
          "id": 11,
          "value": 0.5
        },
        {
          "id": 12,
          "value": 0.0
        },
        {
          "id": 13,
          "value": 0.0
        },
        {
          "id": 14,
          "value": 0.0
        },
        {
          "id": 15,
          "value": 0.0
        },
        {
          "id": 16,
          "value": 0.0
        },
        {
          "id": 17,
          "value": 0.0
        },
        {
          "id": 18,
          "value": 0.0
        },
        {
          "id": 19,
          "value": 0.0
        }
      ],
      "leftModuleId": 139,
      "rightModuleId": 123,
      "data": {
        "panelTheme": 1,
        "running": true,
        "displayDelayNoteMode": true,
        "bpmDetectionMode": false,
        "resetOnStartStop": 0,
        "ppqn": 4,
        "resetClockOutputsHigh": true,
        "momentaryRunInput": true,
        "clockMaster": false
      },
      "pos": [
        37,
        2
      ]
    },
    {
      "id": 122,
      "plugin": "voxglitch",
      "version": "1.29.0",
      "model": "samplerx8",
      "params": [
        {
          "id": 0,
          "value": 0.0
        },
        {
          "id": 1,
          "value": 1.0
        },
        {
          "id": 2,
          "value": 1.0
        },
        {
          "id": 3,
          "value": 1.0
        },
        {
          "id": 4,
          "value": 1.0
        },
        {
          "id": 5,
          "value": 1.0
        },
        {
          "id": 6,
          "value": 1.0
        },
        {
          "id": 7,
          "value": 1.0
        },
        {
          "id": 8,
          "value": 1.0
        },
        {
          "id": 9,
          "value": 0.0
        },
        {
          "id": 10,
          "value": 0.0
        },
        {
          "id": 11,
          "value": 0.0
        },
        {
          "id": 12,
          "value": 0.0
        },
        {
          "id": 13,
          "value": 0.0
        },
        {
          "id": 14,
          "value": 0.0
        },
        {
          "id": 15,
          "value": 0.0
        },
        {
          "id": 16,
          "value": 0.0
        },
        {
          "id": 17,
          "value": 0.0
        }
      ],
      "leftModuleId": 126,
      "rightModuleId": 135,
      "data": {
        "loaded_sample_path_1": "E:\\Misc\\Samples\\Drum Machines\\Acetone_Rhythm-Ace\\KICK1.WAV",
        "loaded_sample_path_2": "E:\\Misc\\Samples\\Drum Machines\\Acetone_Rhythm-Ace\\SNARE1.WAV",
        "loaded_sample_path_3": "E:\\Misc\\Samples\\Drum Machines\\Acetone_Rhythm-Ace\\HHCL.WAV",
        "loaded_sample_path_4": "E:\\Misc\\Samples\\Drum Machines\\Acetone_Rhythm-Ace\\PERC3.WAV",
        "loaded_sample_path_5": "",
        "loaded_sample_path_6": "",
        "loaded_sample_path_7": "",
        "loaded_sample_path_8": ""
      },
      "pos": [
        84,
        2
      ]
    },
    {
      "id": 123,
      "plugin": "Bogaudio",
      "version": "1.1.37",
      "model": "Bogaudio-Mult",
      "params": [],
      "leftModuleId": 30,
      "rightModuleId": 125,
      "data": {
        "skin": "dark"
      },
      "pos": [
        57,
        2
      ]
    },
    {
      "id": 125,
      "plugin": "Admiral",
      "version": "1.1.0",
      "model": "Divisions",
      "params": [
        {
          "id": 0,
          "value": 0.0
        },
        {
          "id": 1,
          "value": 0.0
        },
        {
          "id": 2,
          "value": 0.0
        },
        {
          "id": 3,
          "value": 0.0
        },
        {
          "id": 4,
          "value": 0.0
        },
        {
          "id": 5,
          "value": 0.0
        },
        {
          "id": 6,
          "value": 0.0
        },
        {
          "id": 7,
          "value": 0.0
        },
        {
          "id": 8,
          "value": 0.0
        },
        {
          "id": 9,
          "value": 0.0
        },
        {
          "id": 10,
          "value": 0.0
        },
        {
          "id": 11,
          "value": 0.0
        },
        {
          "id": 12,
          "value": 0.0
        },
        {
          "id": 13,
          "value": 0.0
        },
        {
          "id": 14,
          "value": 0.0
        },
        {
          "id": 15,
          "value": 0.0
        },
        {
          "id": 16,
          "value": 0.0
        },
        {
          "id": 17,
          "value": 0.0
        },
        {
          "id": 18,
          "value": 1.31499994
        },
        {
          "id": 19,
          "value": 2.35000014
        },
        {
          "id": 20,
          "value": 4.46500206
        },
        {
          "id": 21,
          "value": 1.0
        },
        {
          "id": 22,
          "value": 0.0
        }
      ],
      "leftModuleId": 123,
      "rightModuleId": 127,
      "data": {
        "counter": 10484,
        "bus_select": [
          0,
          0,
          0,
          1,
          1,
          0,
          0,
          1,
          0,
          1,
          0,
          0,
          1,
          0,
          0,
          1,
          0,
          1
        ]
      },
      "pos": [
        60,
        2
      ]
    },
    {
      "id": 126,
      "plugin": "AudibleInstruments",
      "version": "1.5.0",
      "model": "Branches",
      "params": [
        {
          "id": 0,
          "value": 0.620000124
        },
        {
          "id": 1,
          "value": 0.5
        },
        {
          "id": 2,
          "value": 0.0
        },
        {
          "id": 3,
          "value": 0.0
        }
      ],
      "leftModuleId": 127,
      "rightModuleId": 122,
      "data": {
        "modes": [
          true,
          true
        ]
      },
      "pos": [
        78,
        2
      ]
    },
    {
      "id": 127,
      "plugin": "repelzen",
      "version": "1.1.0",
      "model": "reburst",
      "params": [
        {
          "id": 0,
          "value": 0.0
        },
        {
          "id": 1,
          "value": 0.31693995
        },
        {
          "id": 2,
          "value": 3.0
        },
        {
          "id": 3,
          "value": 1.53799975
        },
        {
          "id": 4,
          "value": 0.314999968
        },
        {
          "id": 5,
          "value": 0.0
        },
        {
          "id": 6,
          "value": 1.0
        },
        {
          "id": 7,
          "value": 0.359999985
        },
        {
          "id": 8,
          "value": 0.0
        }
      ],
      "leftModuleId": 125,
      "rightModuleId": 126,
      "pos": [
        70,
        2
      ]
    },
    {
      "id": 128,
      "plugin": "Geodesics",
      "version": "1.2.0",
      "model": "Entropia",
      "params": [
        {
          "id": 0,
          "value": 0.0
        },
        {
          "id": 1,
          "value": 0.0
        },
        {
          "id": 2,
          "value": 0.0
        },
        {
          "id": 3,
          "value": 0.0
        },
        {
          "id": 4,
          "value": 0.0
        },
        {
          "id": 5,
          "value": 0.663483262
        },
        {
          "id": 6,
          "value": 0.311926842
        },
        {
          "id": 7,
          "value": 0.277407527
        },
        {
          "id": 8,
          "value": 0.37703979
        },
        {
          "id": 9,
          "value": 0.194930315
        },
        {
          "id": 10,
          "value": 0.399139166
        },
        {
          "id": 11,
          "value": 0.747163117
        },
        {
          "id": 12,
          "value": 0.157943785
        },
        {
          "id": 13,
          "value": 0.618888438
        },
        {
          "id": 14,
          "value": 0.203351378
        },
        {
          "id": 15,
          "value": 0.853425562
        },
        {
          "id": 16,
          "value": 0.467893779
        },
        {
          "id": 17,
          "value": 0.942186296
        },
        {
          "id": 18,
          "value": 0.595041394
        },
        {
          "id": 19,
          "value": 0.342062652
        },
        {
          "id": 20,
          "value": 0.390790939
        },
        {
          "id": 21,
          "value": 0.607675314
        },
        {
          "id": 22,
          "value": 0.0104523301
        },
        {
          "id": 23,
          "value": 0.755781472
        },
        {
          "id": 24,
          "value": 0.780678511
        },
        {
          "id": 25,
          "value": 0.464640617
        },
        {
          "id": 26,
          "value": 0.695681274
        },
        {
          "id": 27,
          "value": 0.418645263
        },
        {
          "id": 28,
          "value": 0.969726443
        },
        {
          "id": 29,
          "value": 0.0
        },
        {
          "id": 30,
          "value": 0.0
        },
        {
          "id": 31,
          "value": 0.0
        },
        {
          "id": 32,
          "value": 0.0
        },
        {
          "id": 33,
          "value": 0.0
        },
        {
          "id": 34,
          "value": 0.0
        },
        {
          "id": 35,
          "value": 0.0
        },
        {
          "id": 36,
          "value": 0.0
        },
        {
          "id": 37,
          "value": 0.0
        },
        {
          "id": 38,
          "value": 0.0
        },
        {
          "id": 39,
          "value": 0.0
        },
        {
          "id": 40,
          "value": 0.0
        },
        {
          "id": 41,
          "value": 0.429536015
        },
        {
          "id": 42,
          "value": 0.0
        },
        {
          "id": 43,
          "value": 0.0
        },
        {
          "id": 44,
          "value": 0.0
        }
      ],
      "leftModuleId": 138,
      "rightModuleId": 130,
      "data": {
        "panelTheme": 1,
        "running": true,
        "resetOnRun": false,
        "length": 8,
        "quantize": 3,
        "audio": 0,
        "ranges0": 0,
        "ranges1": 0,
        "addMode": false,
        "sources0": 0,
        "sources1": 0,
        "stepIndex": 1,
        "pipeBlue": false,
        "randomCVs0": 0.617116868,
        "randomCVs1": 0.58432883,
        "clkSource": 0
      },
      "pos": [
        35,
        3
      ]
    },
    {
      "id": 129,
      "plugin": "Geodesics",
      "version": "1.2.0",
      "model": "Energy",
      "params": [
        {
          "id": 0,
          "value": 0.0
        },
        {
          "id": 1,
          "value": 0.0
        },
        {
          "id": 2,
          "value": 0.0
        },
        {
          "id": 3,
          "value": 0.0
        },
        {
          "id": 4,
          "value": 0.0
        },
        {
          "id": 5,
          "value": 0.0
        },
        {
          "id": 6,
          "value": 0.0
        },
        {
          "id": 7,
          "value": 0.326999903
        },
        {
          "id": 8,
          "value": 0.0
        },
        {
          "id": 9,
          "value": 0.0
        }
      ],
      "leftModuleId": 133,
      "rightModuleId": 136,
      "data": {
        "panelTheme": 0,
        "oscM_phase": 1208924104,
        "oscC_phase": 424533856,
        "osc1M_phase": 0,
        "osc1C_phase": 0,
        "osc2M_phase": 0,
        "osc2C_phase": 0,
        "osc3M_phase": 0,
        "osc3C_phase": 0,
        "osc4M_phase": 0,
        "osc4C_phase": 0,
        "osc5M_phase": 0,
        "osc5C_phase": 0,
        "osc6M_phase": 0,
        "osc6C_phase": 0,
        "osc7M_phase": 0,
        "osc7C_phase": 0,
        "osc8M_phase": 0,
        "osc8C_phase": 0,
        "osc9M_phase": 0,
        "osc9C_phase": 0,
        "osc10M_phase": 0,
        "osc10C_phase": 0,
        "osc11M_phase": 0,
        "osc11C_phase": 0,
        "osc12M_phase": 0,
        "osc12C_phase": 0,
        "osc13M_phase": 0,
        "osc13C_phase": 0,
        "osc14M_phase": 0,
        "osc14C_phase": 0,
        "osc15M_phase": 0,
        "osc15C_phase": 0,
        "routing": 1,
        "planck0": 0,
        "planck1": 0,
        "modtype0": 1,
        "modtype1": 1,
        "cross": 1
      },
      "pos": [
        83,
        3
      ]
    },
    {
      "id": 130,
      "plugin": "ML_modules",
      "version": "1.1.3",
      "model": "Quantum",
      "params": [
        {
          "id": 0,
          "value": 0.0
        },
        {
          "id": 1,
          "value": 0.0
        },
        {
          "id": 2,
          "value": 0.0
        },
        {
          "id": 3,
          "value": 0.0
        },
        {
          "id": 4,
          "value": 0.0
        },
        {
          "id": 5,
          "value": 0.0
        },
        {
          "id": 6,
          "value": 0.0
        },
        {
          "id": 7,
          "value": 0.0
        },
        {
          "id": 8,
          "value": 0.0
        },
        {
          "id": 9,
          "value": 0.0
        },
        {
          "id": 10,
          "value": 0.0
        },
        {
          "id": 11,
          "value": 0.0
        }
      ],
      "leftModuleId": 128,
      "rightModuleId": 134,
      "data": {
        "scale": [
          0,
          0,
          1,
          0,
          0,
          1,
          0,
          0,
          0,
          1,
          0,
          1
        ],
        "mode": 1,
        "transpose_select": 1,
        "toggle_mode": 0
      },
      "pos": [
        56,
        3
      ]
    },
    {
      "id": 131,
      "plugin": "AS",
      "version": "1.0.4",
      "model": "Mixer4ch",
      "params": [
        {
          "id": 0,
          "value": 0.800000012
        },
        {
          "id": 1,
          "value": 0.800000012
        },
        {
          "id": 2,
          "value": 0.800000012
        },
        {
          "id": 3,
          "value": 0.347000003
        },
        {
          "id": 4,
          "value": 0.748999953
        },
        {
          "id": 5,
          "value": 0.0
        },
        {
          "id": 6,
          "value": 0.0
        },
        {
          "id": 7,
          "value": 0.0
        },
        {
          "id": 8,
          "value": 0.0
        },
        {
          "id": 9,
          "value": 0.0
        },
        {
          "id": 10,
          "value": 0.0
        },
        {
          "id": 11,
          "value": 0.0
        },
        {
          "id": 12,
          "value": 0.0
        },
        {
          "id": 13,
          "value": 0.0
        }
      ],
      "leftModuleId": 90,
      "rightModuleId": 166,
      "data": {
        "as_Mixer4Mutes": [
          0,
          0,
          0,
          0,
          0
        ]
      },
      "pos": [
        92,
        1
      ]
    },
    {
      "id": 132,
      "plugin": "VultModulesFree",
      "version": "1.16",
      "model": "Slap",
      "params": [
        {
          "id": 0,
          "value": 0.0
        },
        {
          "id": 1,
          "value": 0.550999999
        },
        {
          "id": 2,
          "value": 0.0
        },
        {
          "id": 3,
          "value": 0.33799994
        },
        {
          "id": 4,
          "value": 0.0
        },
        {
          "id": 5,
          "value": -0.46299997
        },
        {
          "id": 6,
          "value": 0.0
        },
        {
          "id": 7,
          "value": 0.0
        },
        {
          "id": 8,
          "value": 1.0
        }
      ],
      "leftModuleId": 134,
      "rightModuleId": 133,
      "pos": [
        67,
        3
      ]
    },
    {
      "id": 133,
      "plugin": "AudibleInstruments",
      "version": "1.5.0",
      "model": "Branches",
      "params": [
        {
          "id": 0,
          "value": 0.488000154
        },
        {
          "id": 1,
          "value": 0.5
        },
        {
          "id": 2,
          "value": 0.0
        },
        {
          "id": 3,
          "value": 0.0
        }
      ],
      "leftModuleId": 132,
      "rightModuleId": 129,
      "data": {
        "modes": [
          true,
          false
        ]
      },
      "pos": [
        77,
        3
      ]
    },
    {
      "id": 134,
      "plugin": "Fundamental",
      "version": "1.4.0",
      "model": "Octave",
      "params": [
        {
          "id": 0,
          "value": -2.0
        }
      ],
      "leftModuleId": 130,
      "rightModuleId": 132,
      "pos": [
        64,
        3
      ]
    },
    {
      "id": 135,
      "plugin": "Geodesics",
      "version": "1.2.0",
      "model": "Branes",
      "params": [
        {
          "id": 0,
          "value": 0.0
        },
        {
          "id": 1,
          "value": 0.0
        },
        {
          "id": 2,
          "value": 0.0
        },
        {
          "id": 3,
          "value": 0.0
        }
      ],
      "leftModuleId": 122,
      "rightModuleId": 170,
      "data": {
        "panelTheme": 0,
        "vibrations0": 0,
        "vibrations1": 0,
        "noiseRange0": 0.0,
        "noiseRange1": 0.0
      },
      "pos": [
        99,
        2
      ]
    },
    {
      "id": 136,
      "plugin": "LindenbergResearch",
      "version": "1.3.3",
      "model": "Neo",
      "params": [
        {
          "id": 0,
          "value": 0.254500031
        },
        {
          "id": 1,
          "value": 0.53850013
        },
        {
          "id": 2,
          "value": 0.528000057
        },
        {
          "id": 3,
          "value": 0.383399993
        },
        {
          "id": 4,
          "value": 0.545399964
        },
        {
          "id": 5,
          "value": 0.0
        },
        {
          "id": 6,
          "value": 0.0
        },
        {
          "id": 7,
          "value": 1.0
        }
      ],
      "leftModuleId": 129,
      "rightModuleId": 137,
      "gestaltID": 1,
      "gradient": true,
      "patina": false,
      "patina_i_x": false,
      "patina_i_y": false,
      "patina_a_x": 305.514191,
      "patina_a_y": 504.751556,
      "overlay": false,
      "overlay_r": 0.778779328,
      "overlay_g": 0.669432819,
      "overlay_b": 0.590248346,
      "overlay_a": 0.24334541,
      "pos": [
        90,
        3
      ]
    },
    {
      "id": 137,
      "plugin": "Hora-ModulationFree",
      "version": "1.0.2",
      "model": "TwinQuartet-LFO",
      "params": [
        {
          "id": 0,
          "value": 3.65001369
        },
        {
          "id": 1,
          "value": 0.0
        },
        {
          "id": 2,
          "value": 1.0
        },
        {
          "id": 3,
          "value": 1.0
        },
        {
          "id": 4,
          "value": 90.0
        },
        {
          "id": 5,
          "value": 90.0
        },
        {
          "id": 6,
          "value": 0.0
        }
      ],
      "leftModuleId": 136,
      "rightModuleId": 168,
      "pos": [
        107,
        3
      ]
    },
    {
      "id": 138,
      "plugin": "Geodesics",
      "version": "1.2.0",
      "model": "Ions",
      "params": [
        {
          "id": 0,
          "value": 0.0
        },
        {
          "id": 1,
          "value": 0.0
        },
        {
          "id": 2,
          "value": 0.2990188
        },
        {
          "id": 3,
          "value": 0.216884017
        },
        {
          "id": 4,
          "value": 0.642066896
        },
        {
          "id": 5,
          "value": 0.433546662
        },
        {
          "id": 6,
          "value": 0.224570632
        },
        {
          "id": 7,
          "value": 0.668049097
        },
        {
          "id": 8,
          "value": 0.35180825
        },
        {
          "id": 9,
          "value": 0.871905923
        },
        {
          "id": 10,
          "value": 0.462601662
        },
        {
          "id": 11,
          "value": 0.871293664
        },
        {
          "id": 12,
          "value": 0.204559326
        },
        {
          "id": 13,
          "value": 0.657823086
        },
        {
          "id": 14,
          "value": 0.532242417
        },
        {
          "id": 15,
          "value": 0.543919325
        },
        {
          "id": 16,
          "value": 0.932750404
        },
        {
          "id": 17,
          "value": 0.312031567
        },
        {
          "id": 18,
          "value": 0.0
        },
        {
          "id": 19,
          "value": 0.0
        },
        {
          "id": 20,
          "value": 0.0
        },
        {
          "id": 21,
          "value": 0.0
        },
        {
          "id": 22,
          "value": 0.0
        },
        {
          "id": 23,
          "value": 0.0
        },
        {
          "id": 24,
          "value": 0.0
        },
        {
          "id": 25,
          "value": 0.0
        },
        {
          "id": 26,
          "value": 0.0
        },
        {
          "id": 27,
          "value": 0.0
        }
      ],
      "leftModuleId": 149,
      "rightModuleId": 128,
      "data": {
        "panelTheme": 1,
        "running": true,
        "resetOnRun": false,
        "quantize": 3,
        "uncertainty": false,
        "stepIndexes0": 15,
        "stepIndexes1": 15,
        "states0": 2,
        "states1": 2,
        "ranges0": 1,
        "ranges1": 1,
        "leap": false
      },
      "pos": [
        16,
        3
      ]
    },
    {
      "id": 139,
      "plugin": "AudibleInstruments",
      "version": "1.5.0",
      "model": "Branches",
      "params": [
        {
          "id": 0,
          "value": 0.620000124
        },
        {
          "id": 1,
          "value": 0.5
        },
        {
          "id": 2,
          "value": 0.0
        },
        {
          "id": 3,
          "value": 0.0
        }
      ],
      "leftModuleId": 140,
      "rightModuleId": 30,
      "data": {
        "modes": [
          true,
          true
        ]
      },
      "pos": [
        31,
        2
      ]
    },
    {
      "id": 140,
      "plugin": "ML_modules",
      "version": "1.1.3",
      "model": "Quantum",
      "params": [
        {
          "id": 0,
          "value": 0.0
        },
        {
          "id": 1,
          "value": 0.0
        },
        {
          "id": 2,
          "value": 0.0
        },
        {
          "id": 3,
          "value": 0.0
        },
        {
          "id": 4,
          "value": 0.0
        },
        {
          "id": 5,
          "value": 0.0
        },
        {
          "id": 6,
          "value": 0.0
        },
        {
          "id": 7,
          "value": 0.0
        },
        {
          "id": 8,
          "value": 0.0
        },
        {
          "id": 9,
          "value": 0.0
        },
        {
          "id": 10,
          "value": 0.0
        },
        {
          "id": 11,
          "value": 0.0
        }
      ],
      "leftModuleId": 141,
      "rightModuleId": 139,
      "data": {
        "scale": [
          0,
          0,
          1,
          0,
          0,
          1,
          0,
          0,
          0,
          0,
          0,
          1
        ],
        "mode": 1,
        "transpose_select": 1,
        "toggle_mode": 0
      },
      "pos": [
        23,
        2
      ]
    },
    {
      "id": 141,
      "plugin": "ML_modules",
      "version": "1.1.3",
      "model": "ShiftRegister",
      "params": [
        {
          "id": 0,
          "value": 0.0
        },
        {
          "id": 1,
          "value": 0.0
        },
        {
          "id": 2,
          "value": 0.0
        },
        {
          "id": 3,
          "value": 0.0
        },
        {
          "id": 4,
          "value": 0.0
        },
        {
          "id": 5,
          "value": 0.0
        },
        {
          "id": 6,
          "value": 0.0
        },
        {
          "id": 7,
          "value": 0.0
        },
        {
          "id": 8,
          "value": 0.0
        }
      ],
      "leftModuleId": 145,
      "rightModuleId": 140,
      "pos": [
        19,
        2
      ]
    },
    {
      "id": 145,
      "plugin": "VultModulesFree",
      "version": "1.16",
      "model": "Slap",
      "params": [
        {
          "id": 0,
          "value": 0.519999862
        },
        {
          "id": 1,
          "value": 0.582000017
        },
        {
          "id": 2,
          "value": 0.423000038
        },
        {
          "id": 3,
          "value": 0.512999952
        },
        {
          "id": 4,
          "value": 0.0
        },
        {
          "id": 5,
          "value": -0.46299997
        },
        {
          "id": 6,
          "value": 0.0
        },
        {
          "id": 7,
          "value": 0.0
        },
        {
          "id": 8,
          "value": 1.0
        }
      ],
      "leftModuleId": 151,
      "rightModuleId": 141,
      "pos": [
        9,
        2
      ]
    },
    {
      "id": 146,
      "plugin": "AudibleInstruments",
      "version": "1.5.0",
      "model": "Ripples",
      "params": [
        {
          "id": 0,
          "value": 0.551999986
        },
        {
          "id": 1,
          "value": 6.39481068
        },
        {
          "id": 2,
          "value": 0.0209999755
        }
      ],
      "leftModuleId": 147,
      "rightModuleId": 83,
      "pos": [
        24,
        1
      ]
    },
    {
      "id": 147,
      "plugin": "ML_modules",
      "version": "1.1.3",
      "model": "Quantum",
      "params": [
        {
          "id": 0,
          "value": 0.0
        },
        {
          "id": 1,
          "value": 0.0
        },
        {
          "id": 2,
          "value": 0.0
        },
        {
          "id": 3,
          "value": 0.0
        },
        {
          "id": 4,
          "value": 0.0
        },
        {
          "id": 5,
          "value": 0.0
        },
        {
          "id": 6,
          "value": 0.0
        },
        {
          "id": 7,
          "value": 0.0
        },
        {
          "id": 8,
          "value": 0.0
        },
        {
          "id": 9,
          "value": 0.0
        },
        {
          "id": 10,
          "value": 0.0
        },
        {
          "id": 11,
          "value": 0.0
        }
      ],
      "leftModuleId": 148,
      "rightModuleId": 146,
      "data": {
        "scale": [
          1,
          0,
          1,
          0,
          0,
          0,
          0,
          0,
          0,
          1,
          0,
          0
        ],
        "mode": 1,
        "transpose_select": 1,
        "toggle_mode": 0
      },
      "pos": [
        16,
        1
      ]
    },
    {
      "id": 148,
      "plugin": "AudibleInstruments",
      "version": "1.5.0",
      "model": "Braids",
      "params": [
        {
          "id": 0,
          "value": 0.0
        },
        {
          "id": 1,
          "value": -1.0
        },
        {
          "id": 2,
          "value": 0.0
        },
        {
          "id": 3,
          "value": 0.5
        },
        {
          "id": 4,
          "value": -0.648999929
        },
        {
          "id": 5,
          "value": 0.70449996
        },
        {
          "id": 6,
          "value": 0.56400007
        }
      ],
      "rightModuleId": 147,
      "data": {
        "settings": [
          26,
          0,
          0,
          0,
          0,
          0,
          0,
          0,
          0,
          0,
          0,
          0,
          0,
          0,
          0,
          0,
          0,
          0,
          0,
          0
        ],
        "lowCpu": false
      },
      "pos": [
        0,
        1
      ]
    },
    {
      "id": 149,
      "plugin": "VultModulesFree",
      "version": "1.16",
      "model": "Bleak",
      "params": [
        {
          "id": 0,
          "value": 0.0
        },
        {
          "id": 1,
          "value": 0.0
        },
        {
          "id": 2,
          "value": 0.5
        },
        {
          "id": 3,
          "value": 0.0
        },
        {
          "id": 4,
          "value": 0.5
        },
        {
          "id": 5,
          "value": 0.0
        }
      ],
      "leftModuleId": 150,
      "rightModuleId": 138,
      "pos": [
        10,
        3
      ]
    },
    {
      "id": 150,
      "plugin": "VultModulesFree",
      "version": "1.16",
      "model": "Slap",
      "params": [
        {
          "id": 0,
          "value": 0.719999969
        },
        {
          "id": 1,
          "value": 0.190500021
        },
        {
          "id": 2,
          "value": 0.0570000336
        },
        {
          "id": 3,
          "value": 0.0
        },
        {
          "id": 4,
          "value": 0.0
        },
        {
          "id": 5,
          "value": -0.46299997
        },
        {
          "id": 6,
          "value": 0.0
        },
        {
          "id": 7,
          "value": 0.0
        },
        {
          "id": 8,
          "value": 1.0
        }
      ],
      "rightModuleId": 149,
      "pos": [
        0,
        3
      ]
    },
    {
      "id": 151,
      "plugin": "AudibleInstruments",
      "version": "1.5.0",
      "model": "Ripples",
      "params": [
        {
          "id": 0,
          "value": 0.687000036
        },
        {
          "id": 1,
          "value": 6.03604126
        },
        {
          "id": 2,
          "value": -0.944999933
        }
      ],
      "leftModuleId": 160,
      "rightModuleId": 145,
      "pos": [
        1,
        2
      ]
    },
    {
      "id": 160,
      "plugin": "SubmarineFree",
      "version": "1.1.10",
      "model": "XX-219",
      "params": [],
      "rightModuleId": 151,
      "pos": [
        0,
        2
      ]
    },
    {
      "id": 166,
      "plugin": "JW-Modules",
      "version": "1.0.29",
      "model": "Tree",
      "params": [
        {
          "id": 0,
          "value": 47.4100075
        },
        {
          "id": 1,
          "value": 0.118000008
        },
        {
          "id": 2,
          "value": 0.680000007
        },
        {
          "id": 3,
          "value": 18.2649975
        },
        {
          "id": 4,
          "value": 10.0
        },
        {
          "id": 5,
          "value": 0.0
        }
      ],
      "leftModuleId": 131,
      "width": 300.0,
      "pos": [
        108,
        1
      ]
    },
    {
      "id": 168,
      "plugin": "ModularFungi",
      "version": "1.1.4",
      "model": "Blank6HP",
      "params": [],
      "leftModuleId": 137,
      "style": 0.0,
      "pos": [
        122,
        3
      ]
    },
    {
      "id": 170,
      "plugin": "Ohmer",
      "version": "1.1.6",
      "model": "OhmerBlank16",
      "params": [],
      "leftModuleId": 135,
      "rightModuleId": 171,
      "data": {
        "Theme": 5
      },
      "pos": [
        110,
        2
      ]
    },
    {
      "id": 171,
      "plugin": "Sha-Bang-Modules",
      "version": "1.3.3",
      "model": "AbsorptionSpectrum",
      "params": [],
      "leftModuleId": 170,
      "pos": [
        126,
        2
      ]
    }
  ],
  "cables": [
    {
      "id": 34,
      "outputModuleId": 103,
      "outputId": 0,
      "inputModuleId": 91,
      "inputId": 5,
      "color": "#c91847"
    },
    {
      "id": 35,
      "outputModuleId": 103,
      "outputId": 0,
      "inputModuleId": 91,
      "inputId": 6,
      "color": "#c91847"
    },
    {
      "id": 36,
      "outputModuleId": 91,
      "outputId": 0,
      "inputModuleId": 103,
      "inputId": 8,
      "color": "#c91847"
    },
    {
      "id": 37,
      "outputModuleId": 91,
      "outputId": 1,
      "inputModuleId": 103,
      "inputId": 9,
      "color": "#c91847"
    },
    {
      "id": 38,
      "outputModuleId": 103,
      "outputId": 1,
      "inputModuleId": 90,
      "inputId": 0,
      "color": "#c91847"
    },
    {
      "id": 39,
      "outputModuleId": 103,
      "outputId": 1,
      "inputModuleId": 90,
      "inputId": 1,
      "color": "#c91847"
    },
    {
      "id": 40,
      "outputModuleId": 90,
      "outputId": 0,
      "inputModuleId": 103,
      "inputId": 11,
      "color": "#c91847"
    },
    {
      "id": 41,
      "outputModuleId": 90,
      "outputId": 1,
      "inputModuleId": 103,
      "inputId": 12,
      "color": "#c91847"
    },
    {
      "id": 43,
      "outputModuleId": 102,
      "outputId": 0,
      "inputModuleId": 1,
      "inputId": 0,
      "color": "#c91847"
    },
    {
      "id": 44,
      "outputModuleId": 102,
      "outputId": 1,
      "inputModuleId": 1,
      "inputId": 1,
      "color": "#c91847"
    },
    {
      "id": 47,
      "outputModuleId": 30,
      "outputId": 0,
      "inputModuleId": 123,
      "inputId": 0,
      "color": "#364449"
    },
    {
      "id": 88,
      "outputModuleId": 123,
      "outputId": 0,
      "inputModuleId": 91,
      "inputId": 7,
      "color": "#364449"
    },
    {
      "id": 100,
      "outputModuleId": 30,
      "outputId": 1,
      "inputModuleId": 125,
      "inputId": 0,
      "color": "#364449"
    },
    {
      "id": 104,
      "outputModuleId": 126,
      "outputId": 0,
      "inputModuleId": 122,
      "inputId": 1,
      "color": "#c91847"
    },
    {
      "id": 105,
      "outputModuleId": 126,
      "outputId": 2,
      "inputModuleId": 122,
      "inputId": 0,
      "color": "#364449"
    },
    {
      "id": 102,
      "outputModuleId": 125,
      "outputId": 0,
      "inputModuleId": 126,
      "inputId": 0,
      "color": "#c9b70e"
    },
    {
      "id": 106,
      "outputModuleId": 125,
      "outputId": 1,
      "inputModuleId": 126,
      "inputId": 1,
      "color": "#c9b70e"
    },
    {
      "id": 109,
      "outputModuleId": 123,
      "outputId": 1,
      "inputModuleId": 127,
      "inputId": 1,
      "color": "#364449"
    },
    {
      "id": 110,
      "outputModuleId": 127,
      "outputId": 0,
      "inputModuleId": 122,
      "inputId": 2,
      "color": "#364449"
    },
    {
      "id": 112,
      "outputModuleId": 125,
      "outputId": 2,
      "inputModuleId": 127,
      "inputId": 0,
      "color": "#c91847"
    },
    {
      "id": 113,
      "outputModuleId": 126,
      "outputId": 3,
      "inputModuleId": 125,
      "inputId": 4,
      "color": "#364449"
    },
    {
      "id": 111,
      "outputModuleId": 126,
      "outputId": 1,
      "inputModuleId": 122,
      "inputId": 3,
      "color": "#0c8e15"
    },
    {
      "id": 115,
      "outputModuleId": 30,
      "outputId": 2,
      "inputModuleId": 128,
      "inputId": 0,
      "color": "#364449"
    },
    {
      "id": 116,
      "outputModuleId": 127,
      "outputId": 1,
      "inputModuleId": 128,
      "inputId": 1,
      "color": "#364449"
    },
    {
      "id": 85,
      "outputModuleId": 122,
      "outputId": 0,
      "inputModuleId": 131,
      "inputId": 1,
      "color": "#c91847"
    },
    {
      "id": 86,
      "outputModuleId": 122,
      "outputId": 1,
      "inputModuleId": 131,
      "inputId": 4,
      "color": "#c91847"
    },
    {
      "id": 94,
      "outputModuleId": 122,
      "outputId": 2,
      "inputModuleId": 131,
      "inputId": 7,
      "color": "#c91847"
    },
    {
      "id": 114,
      "outputModuleId": 122,
      "outputId": 3,
      "inputModuleId": 131,
      "inputId": 10,
      "color": "#c9b70e"
    },
    {
      "id": 118,
      "outputModuleId": 131,
      "outputId": 0,
      "inputModuleId": 102,
      "inputId": 2,
      "color": "#c91847"
    },
    {
      "id": 119,
      "outputModuleId": 130,
      "outputId": 0,
      "inputModuleId": 129,
      "inputId": 2,
      "color": "#c9b70e"
    },
    {
      "id": 120,
      "outputModuleId": 129,
      "outputId": 0,
      "inputModuleId": 132,
      "inputId": 5,
      "color": "#c91847"
    },
    {
      "id": 123,
      "outputModuleId": 30,
      "outputId": 3,
      "inputModuleId": 133,
      "inputId": 0,
      "color": "#364449"
    },
    {
      "id": 124,
      "outputModuleId": 133,
      "outputId": 0,
      "inputModuleId": 132,
      "inputId": 0,
      "color": "#364449"
    },
    {
      "id": 125,
      "outputModuleId": 134,
      "outputId": 0,
      "inputModuleId": 130,
      "inputId": 0,
      "color": "#c9b70e"
    },
    {
      "id": 117,
      "outputModuleId": 128,
      "outputId": 0,
      "inputModuleId": 134,
      "inputId": 0,
      "color": "#c9b70e"
    },
    {
      "id": 128,
      "outputModuleId": 135,
      "outputId": 6,
      "inputModuleId": 129,
      "inputId": 4,
      "color": "#0c8e15"
    },
    {
      "id": 129,
      "outputModuleId": 133,
      "outputId": 3,
      "inputModuleId": 135,
      "inputId": 14,
      "color": "#c91847"
    },
    {
      "id": 130,
      "outputModuleId": 135,
      "outputId": 1,
      "inputModuleId": 129,
      "inputId": 5,
      "color": "#364449"
    },
    {
      "id": 121,
      "outputModuleId": 132,
      "outputId": 0,
      "inputModuleId": 136,
      "inputId": 0,
      "color": "#c91847"
    },
    {
      "id": 131,
      "outputModuleId": 136,
      "outputId": 0,
      "inputModuleId": 102,
      "inputId": 5,
      "color": "#c91847"
    },
    {
      "id": 132,
      "outputModuleId": 137,
      "outputId": 0,
      "inputModuleId": 136,
      "inputId": 1,
      "color": "#0c8e15"
    },
    {
      "id": 133,
      "outputModuleId": 137,
      "outputId": 1,
      "inputModuleId": 129,
      "inputId": 1,
      "color": "#0c8e15"
    },
    {
      "id": 134,
      "outputModuleId": 137,
      "outputId": 2,
      "inputModuleId": 136,
      "inputId": 2,
      "color": "#0c8e15"
    },
    {
      "id": 135,
      "outputModuleId": 137,
      "outputId": 3,
      "inputModuleId": 132,
      "inputId": 2,
      "color": "#0c8e15"
    },
    {
      "id": 136,
      "outputModuleId": 123,
      "outputId": 2,
      "inputModuleId": 139,
      "inputId": 0,
      "color": "#364449"
    },
    {
      "id": 137,
      "outputModuleId": 139,
      "outputId": 0,
      "inputModuleId": 138,
      "inputId": 0,
      "color": "#364449"
    },
    {
      "id": 138,
      "outputModuleId": 138,
      "outputId": 0,
      "inputModuleId": 140,
      "inputId": 0,
      "color": "#c9b70e"
    },
    {
      "id": 139,
      "outputModuleId": 140,
      "outputId": 0,
      "inputModuleId": 141,
      "inputId": 0,
      "color": "#c9b70e"
    },
    {
      "id": 140,
      "outputModuleId": 140,
      "outputId": 1,
      "inputModuleId": 141,
      "inputId": 1,
      "color": "#c9b70e"
    },
    {
      "id": 151,
      "outputModuleId": 139,
      "outputId": 1,
      "inputModuleId": 145,
      "inputId": 0,
      "color": "#364449"
    },
    {
      "id": 150,
      "outputModuleId": 145,
      "outputId": 0,
      "inputModuleId": 146,
      "inputId": 3,
      "color": "#c91847"
    },
    {
      "id": 154,
      "outputModuleId": 138,
      "outputId": 1,
      "inputModuleId": 147,
      "inputId": 0,
      "color": "#c9b70e"
    },
    {
      "id": 156,
      "outputModuleId": 139,
      "outputId": 2,
      "inputModuleId": 138,
      "inputId": 2,
      "color": "#c91847"
    },
    {
      "id": 157,
      "outputModuleId": 139,
      "outputId": 3,
      "inputModuleId": 138,
      "inputId": 1,
      "color": "#364449"
    },
    {
      "id": 146,
      "outputModuleId": 141,
      "outputId": 0,
      "inputModuleId": 148,
      "inputId": 1,
      "color": "#c9b70e"
    },
    {
      "id": 158,
      "outputModuleId": 139,
      "outputId": 0,
      "inputModuleId": 148,
      "inputId": 0,
      "color": "#364449"
    },
    {
      "id": 161,
      "outputModuleId": 135,
      "outputId": 2,
      "inputModuleId": 148,
      "inputId": 3,
      "color": "#0c8e15"
    },
    {
      "id": 162,
      "outputModuleId": 135,
      "outputId": 5,
      "inputModuleId": 148,
      "inputId": 4,
      "color": "#0c8e15"
    },
    {
      "id": 159,
      "outputModuleId": 148,
      "outputId": 0,
      "inputModuleId": 145,
      "inputId": 5,
      "color": "#0c8e15"
    },
    {
      "id": 152,
      "outputModuleId": 146,
      "outputId": 2,
      "inputModuleId": 102,
      "inputId": 8,
      "color": "#c91847"
    },
    {
      "id": 163,
      "outputModuleId": 135,
      "outputId": 3,
      "inputModuleId": 146,
      "inputId": 1,
      "color": "#0c8e15"
    },
    {
      "id": 164,
      "outputModuleId": 141,
      "outputId": 1,
      "inputModuleId": 149,
      "inputId": 0,
      "color": "#c9b70e"
    },
    {
      "id": 165,
      "outputModuleId": 149,
      "outputId": 0,
      "inputModuleId": 150,
      "inputId": 5,
      "color": "#c91847"
    },
    {
      "id": 169,
      "outputModuleId": 133,
      "outputId": 1,
      "inputModuleId": 150,
      "inputId": 0,
      "color": "#364449"
    },
    {
      "id": 166,
      "outputModuleId": 150,
      "outputId": 0,
      "inputModuleId": 151,
      "inputId": 3,
      "color": "#c91847"
    },
    {
      "id": 170,
      "outputModuleId": 151,
      "outputId": 0,
      "inputModuleId": 102,
      "inputId": 11,
      "color": "#c91847"
    },
    {
      "id": 171,
      "outputModuleId": 135,
      "outputId": 4,
      "inputModuleId": 151,
      "inputId": 1,
      "color": "#0c8e15"
    },
    {
      "id": 172,
      "outputModuleId": 135,
      "outputId": 0,
      "inputModuleId": 151,
      "inputId": 2,
      "color": "#0c8e15"
    },
    {
      "id": 173,
      "outputModuleId": 135,
      "outputId": 2,
      "inputModuleId": 102,
      "inputId": 7,
      "color": "#0c8e15"
    },
    {
      "id": 174,
      "outputModuleId": 135,
      "outputId": 4,
      "inputModuleId": 102,
      "inputId": 10,
      "color": "#0c8e15"
    },
    {
      "id": 178,
      "outputModuleId": 135,
      "outputId": 6,
      "inputModuleId": 166,
      "inputId": 0,
      "color": "#0c8e15"
    },
    {
      "id": 179,
      "outputModuleId": 135,
      "outputId": 1,
      "inputModuleId": 166,
      "inputId": 3,
      "color": "#c91847"
    },
    {
      "id": 180,
      "outputModuleId": 102,
      "outputId": 1,
      "inputModuleId": 166,
      "inputId": 4,
      "color": "#364449"
    },
    {
      "id": 181,
      "outputModuleId": 102,
      "outputId": 0,
      "inputModuleId": 166,
      "inputId": 2,
      "color": "#c9b70e"
    },
    {
      "id": 182,
      "outputModuleId": 135,
      "outputId": 3,
      "inputModuleId": 166,
      "inputId": 5,
      "color": "#0c8e15"
    },
    {
      "id": 183,
      "outputModuleId": 138,
      "outputId": 0,
      "inputModuleId": 166,
      "inputId": 1,
      "color": "#c91847"
    }
  ]
}