{
  "version": "1.1.6",
  "modules": [
    {
      "id": 1,
      "plugin": "Core",
      "version": "1.1.6",
      "model": "AudioInterface",
      "params": [],
      "leftModuleId": 375,
      "rightModuleId": 489,
      "data": {
        "audio": {
          "driver": 7,
          "deviceName": "ReaRoute ASIO (x64)",
          "offset": 0,
          "maxChannels": 8,
          "sampleRate": 48000,
          "blockSize": 256
        }
      },
      "pos": [
        58,
        0
      ]
    },
    {
      "id": 5,
      "plugin": "Core",
      "version": "1.1.6",
      "model": "MIDIToCVInterface",
      "params": [],
      "leftModuleId": 79,
      "rightModuleId": 94,
      "data": {
        "channels": 1,
        "polyMode": 0,
        "clockDivision": 24,
        "lastPitch": 8192,
        "lastMod": 0,
        "midi": {
          "driver": 4,
          "deviceName": "loopMIDI Port 3",
          "channel": -1
        }
      },
      "pos": [
        14,
        0
      ]
    },
    {
      "id": 76,
      "plugin": "Stoermelder-P1",
      "version": "1.10.0",
      "model": "Mb",
      "params": [],
      "leftModuleId": 380,
      "rightModuleId": 79,
      "data": {
        "mode": 1
      },
      "pos": [
        6,
        0
      ]
    },
    {
      "id": 79,
      "plugin": "Stoermelder-P1",
      "version": "1.10.0",
      "model": "Stroke",
      "params": [],
      "leftModuleId": 76,
      "rightModuleId": 5,
      "data": {
        "panelTheme": 1,
        "keys": [
          {
            "button": -1,
            "key": 49,
            "mods": 0,
            "mode": 24,
            "high": false,
            "data": "#c9b70e"
          },
          {
            "button": -1,
            "key": 50,
            "mods": 0,
            "mode": 24,
            "high": false,
            "data": "#0c8e15"
          },
          {
            "button": -1,
            "key": 51,
            "mods": 0,
            "mode": 24,
            "high": false,
            "data": "#c91847"
          },
          {
            "button": -1,
            "key": 52,
            "mods": 0,
            "mode": 24,
            "high": false,
            "data": "#364449"
          },
          {
            "button": -1,
            "key": -1,
            "mods": 0,
            "mode": 1,
            "high": false,
            "data": ""
          },
          {
            "button": -1,
            "key": -1,
            "mods": 0,
            "mode": 1,
            "high": false,
            "data": ""
          },
          {
            "button": -1,
            "key": -1,
            "mods": 0,
            "mode": 1,
            "high": false,
            "data": ""
          },
          {
            "button": -1,
            "key": -1,
            "mods": 0,
            "mode": 1,
            "high": false,
            "data": ""
          },
          {
            "button": -1,
            "key": -1,
            "mods": 0,
            "mode": 1,
            "high": false,
            "data": ""
          },
          {
            "button": -1,
            "key": -1,
            "mods": 0,
            "mode": 1,
            "high": false,
            "data": ""
          }
        ]
      },
      "pos": [
        8,
        0
      ]
    },
    {
      "id": 94,
      "plugin": "Core",
      "version": "1.1.6",
      "model": "MIDI-Map",
      "params": [],
      "leftModuleId": 5,
      "rightModuleId": 375,
      "data": {
        "maps": [
          {
            "cc": -1,
            "moduleId": -1,
            "paramId": 0
          }
        ],
        "midi": {
          "driver": 4,
          "deviceName": "loopMIDI Port 3",
          "channel": -1
        }
      },
      "pos": [
        22,
        0
      ]
    },
    {
      "id": 360,
      "plugin": "LindenbergResearch",
      "version": "1.3.3",
      "model": "BlankPanel_Wood",
      "params": [],
      "leftModuleId": 500,
      "gestaltID": 1,
      "gradient": false,
      "patina": false,
      "patina_i_x": false,
      "patina_i_y": false,
      "patina_a_x": 1048.69849,
      "patina_a_y": 465.392822,
      "overlay": false,
      "overlay_r": 0.374342084,
      "overlay_g": 0.917832315,
      "overlay_b": 0.547539651,
      "overlay_a": 0.243561357,
      "AGED": false,
      "screws": true,
      "logo": false,
      "pos": [
        117,
        0
      ]
    },
    {
      "id": 362,
      "plugin": "LindenbergResearch",
      "version": "1.3.3",
      "model": "BlankPanel_Wood",
      "params": [],
      "leftModuleId": 499,
      "gestaltID": 1,
      "gradient": false,
      "patina": false,
      "patina_i_x": false,
      "patina_i_y": false,
      "patina_a_x": 1048.69849,
      "patina_a_y": 465.392822,
      "overlay": false,
      "overlay_r": 0.5403319,
      "overlay_g": 0.686306298,
      "overlay_b": 0.212780237,
      "overlay_a": 0.270446271,
      "AGED": false,
      "screws": true,
      "logo": false,
      "pos": [
        117,
        1
      ]
    },
    {
      "id": 364,
      "plugin": "LindenbergResearch",
      "version": "1.3.3",
      "model": "BlankPanel_Wood",
      "params": [],
      "rightModuleId": 380,
      "gestaltID": 1,
      "gradient": false,
      "patina": false,
      "patina_i_x": true,
      "patina_i_y": false,
      "patina_a_x": 732.980896,
      "patina_a_y": 232.628174,
      "overlay": false,
      "overlay_r": 0.0671655536,
      "overlay_g": 0.647980452,
      "overlay_b": 0.862122893,
      "overlay_a": 0.103892528,
      "AGED": false,
      "screws": true,
      "logo": false,
      "pos": [
        0,
        0
      ]
    },
    {
      "id": 365,
      "plugin": "LindenbergResearch",
      "version": "1.3.3",
      "model": "BlankPanel_Wood",
      "params": [],
      "rightModuleId": 379,
      "gestaltID": 1,
      "gradient": false,
      "patina": false,
      "patina_i_x": true,
      "patina_i_y": false,
      "patina_a_x": 732.980896,
      "patina_a_y": 232.628174,
      "overlay": false,
      "overlay_r": 0.749924064,
      "overlay_g": 0.726444244,
      "overlay_b": 0.0299958587,
      "overlay_a": 0.333762556,
      "AGED": false,
      "screws": true,
      "logo": false,
      "pos": [
        0,
        1
      ]
    },
    {
      "id": 375,
      "plugin": "squinkylabs-plug1",
      "version": "1.0.20",
      "model": "squinkylabs-mix8",
      "params": [
        {
          "id": 0,
          "value": 0.800000012
        },
        {
          "id": 1,
          "value": 0.0
        },
        {
          "id": 2,
          "value": 0.800000012
        },
        {
          "id": 3,
          "value": 0.800000012
        },
        {
          "id": 4,
          "value": 0.800000012
        },
        {
          "id": 5,
          "value": 0.243500024
        },
        {
          "id": 6,
          "value": 0.800000012
        },
        {
          "id": 7,
          "value": 0.800000012
        },
        {
          "id": 8,
          "value": 0.800000012
        },
        {
          "id": 9,
          "value": 0.800000012
        },
        {
          "id": 10,
          "value": 0.0
        },
        {
          "id": 11,
          "value": -0.648000062
        },
        {
          "id": 12,
          "value": -0.29400003
        },
        {
          "id": 13,
          "value": 0.182999998
        },
        {
          "id": 14,
          "value": 0.639000058
        },
        {
          "id": 15,
          "value": 0.0
        },
        {
          "id": 16,
          "value": 0.0
        },
        {
          "id": 17,
          "value": 0.0
        },
        {
          "id": 18,
          "value": 0.0
        },
        {
          "id": 19,
          "value": 0.0
        },
        {
          "id": 20,
          "value": 0.0
        },
        {
          "id": 21,
          "value": 0.0
        },
        {
          "id": 22,
          "value": 0.0
        },
        {
          "id": 23,
          "value": 0.0
        },
        {
          "id": 24,
          "value": 0.0
        },
        {
          "id": 25,
          "value": 0.0
        },
        {
          "id": 26,
          "value": 0.0
        },
        {
          "id": 27,
          "value": 0.0
        },
        {
          "id": 28,
          "value": 0.0
        },
        {
          "id": 29,
          "value": 0.0
        },
        {
          "id": 30,
          "value": 0.0
        },
        {
          "id": 31,
          "value": 0.0
        },
        {
          "id": 32,
          "value": 0.0
        },
        {
          "id": 33,
          "value": 0.0
        },
        {
          "id": 34,
          "value": 0.0
        },
        {
          "id": 35,
          "value": 0.0
        },
        {
          "id": 36,
          "value": 0.0
        },
        {
          "id": 37,
          "value": 0.0
        },
        {
          "id": 38,
          "value": 0.0
        },
        {
          "id": 39,
          "value": 0.0
        },
        {
          "id": 40,
          "value": 0.0
        },
        {
          "id": 41,
          "value": 0.0
        },
        {
          "id": 42,
          "value": 0.0
        }
      ],
      "leftModuleId": 94,
      "rightModuleId": 1,
      "pos": [
        32,
        0
      ]
    },
    {
      "id": 379,
      "plugin": "ImpromptuModular",
      "version": "1.1.11",
      "model": "Clocked-Clkd",
      "params": [
        {
          "id": 0,
          "value": 2.0
        },
        {
          "id": 1,
          "value": -5.0
        },
        {
          "id": 2,
          "value": 5.0
        },
        {
          "id": 3,
          "value": 120.0
        },
        {
          "id": 4,
          "value": 0.0
        },
        {
          "id": 5,
          "value": 0.0
        },
        {
          "id": 6,
          "value": 0.0
        },
        {
          "id": 7,
          "value": 0.0
        },
        {
          "id": 8,
          "value": 0.0
        },
        {
          "id": 9,
          "value": 0.0
        }
      ],
      "leftModuleId": 365,
      "rightModuleId": 484,
      "data": {
        "panelTheme": 1,
        "running": true,
        "bpmDetectionMode": false,
        "resetOnStartStop": 0,
        "ppqn": 4,
        "resetClockOutputsHigh": true,
        "momentaryRunInput": true,
        "displayIndex": 3,
        "trigOuts": [
          false,
          false,
          false,
          false
        ],
        "clockMaster": -1
      },
      "pos": [
        4,
        1
      ]
    },
    {
      "id": 380,
      "plugin": "Stoermelder-P1",
      "version": "1.10.0",
      "model": "Me",
      "params": [],
      "leftModuleId": 364,
      "rightModuleId": 76,
      "pos": [
        4,
        0
      ]
    },
    {
      "id": 478,
      "plugin": "Instruo",
      "version": "1.1.0",
      "model": "harmonaig",
      "params": [
        {
          "id": 0,
          "value": 0.0
        },
        {
          "id": 1,
          "value": 0.0
        },
        {
          "id": 2,
          "value": 1.0
        },
        {
          "id": 3,
          "value": 0.0
        },
        {
          "id": 4,
          "value": 1.0
        },
        {
          "id": 5,
          "value": 1.0
        },
        {
          "id": 6,
          "value": 0.0
        },
        {
          "id": 7,
          "value": 1.0
        },
        {
          "id": 8,
          "value": 0.0
        },
        {
          "id": 9,
          "value": 0.0
        },
        {
          "id": 10,
          "value": 1.0
        },
        {
          "id": 11,
          "value": 0.0
        },
        {
          "id": 12,
          "value": 0.0
        },
        {
          "id": 13,
          "value": 0.0
        },
        {
          "id": 14,
          "value": 0.0
        },
        {
          "id": 15,
          "value": 0.152900115
        },
        {
          "id": 16,
          "value": 0.0
        },
        {
          "id": 17,
          "value": 0.0
        },
        {
          "id": 18,
          "value": 0.0
        },
        {
          "id": 19,
          "value": 0.0
        },
        {
          "id": 20,
          "value": 0.0
        },
        {
          "id": 21,
          "value": 0.0
        },
        {
          "id": 22,
          "value": 0.0
        },
        {
          "id": 23,
          "value": 0.0
        },
        {
          "id": 24,
          "value": 0.0
        },
        {
          "id": 25,
          "value": 0.0
        },
        {
          "id": 26,
          "value": 1.0
        },
        {
          "id": 27,
          "value": 0.0
        },
        {
          "id": 28,
          "value": 1.0
        },
        {
          "id": 29,
          "value": 1.0
        },
        {
          "id": 30,
          "value": 0.0
        },
        {
          "id": 31,
          "value": 1.0
        },
        {
          "id": 32,
          "value": 0.0
        },
        {
          "id": 33,
          "value": 0.0
        },
        {
          "id": 34,
          "value": 1.0
        },
        {
          "id": 35,
          "value": 0.0
        },
        {
          "id": 36,
          "value": 1.0
        },
        {
          "id": 37,
          "value": 0.0
        },
        {
          "id": 38,
          "value": 2.0
        },
        {
          "id": 39,
          "value": 0.0
        },
        {
          "id": 40,
          "value": 0.0
        },
        {
          "id": 41,
          "value": 0.0
        },
        {
          "id": 42,
          "value": 1.0
        },
        {
          "id": 43,
          "value": 1.0
        },
        {
          "id": 44,
          "value": 1.0
        },
        {
          "id": 45,
          "value": 1.0
        }
      ],
      "leftModuleId": 485,
      "rightModuleId": 479,
      "data": {
        "mode": 0
      },
      "pos": [
        48,
        1
      ]
    },
    {
      "id": 479,
      "plugin": "Instruo",
      "version": "1.1.0",
      "model": "ochd",
      "params": [
        {
          "id": 0,
          "value": 0.375500023
        },
        {
          "id": 1,
          "value": 0.0
        }
      ],
      "leftModuleId": 478,
      "rightModuleId": 481,
      "data": {
        "deviations": {
          "lfos": [
            {
              "amplitude": 5.5,
              "frequency": {
                "maximum": 154.699997,
                "minimum": 0.147,
                "absMinimum": 0.000294000027,
                "absMaximum": 160.887985
              }
            },
            {
              "amplitude": 5.5,
              "frequency": {
                "maximum": 84.7399979,
                "minimum": 0.0816000029,
                "absMinimum": 0.00016320002,
                "absMaximum": 88.1295929
              }
            },
            {
              "amplitude": 5.5,
              "frequency": {
                "maximum": 42.2599983,
                "minimum": 0.0417000018,
                "absMinimum": 8.34000093e-5,
                "absMaximum": 43.9503975
              }
            },
            {
              "amplitude": 5.5,
              "frequency": {
                "maximum": 22.0100002,
                "minimum": 0.0221999995,
                "absMinimum": 4.43999998e-5,
                "absMaximum": 22.8903999
              }
            },
            {
              "amplitude": 5.5,
              "frequency": {
                "maximum": 10.3699999,
                "minimum": 0.0102000004,
                "absMinimum": 2.04000025e-5,
                "absMaximum": 10.7847996
              }
            },
            {
              "amplitude": 5.5,
              "frequency": {
                "maximum": 4.69999981,
                "minimum": 0.00505999988,
                "absMinimum": 1.01200003e-5,
                "absMaximum": 4.88799953
              }
            },
            {
              "amplitude": 5.5,
              "frequency": {
                "maximum": 2.11999989,
                "minimum": 0.00212999992,
                "absMinimum": 4.25999997e-6,
                "absMaximum": 2.20479989
              }
            },
            {
              "amplitude": 5.5,
              "frequency": {
                "maximum": 1.00999999,
                "minimum": 0.00100000005,
                "absMinimum": 2.00000022e-6,
                "absMaximum": 1.0503999
              }
            }
          ]
        }
      },
      "pos": [
        66,
        1
      ]
    },
    {
      "id": 481,
      "plugin": "Geodesics",
      "version": "1.2.0",
      "model": "Ions",
      "params": [
        {
          "id": 0,
          "value": 0.0
        },
        {
          "id": 1,
          "value": 0.0
        },
        {
          "id": 2,
          "value": 0.865005016
        },
        {
          "id": 3,
          "value": 0.230550826
        },
        {
          "id": 4,
          "value": 0.512777388
        },
        {
          "id": 5,
          "value": 0.668116331
        },
        {
          "id": 6,
          "value": 0.112816453
        },
        {
          "id": 7,
          "value": 0.505894184
        },
        {
          "id": 8,
          "value": 0.0356616378
        },
        {
          "id": 9,
          "value": 0.157507062
        },
        {
          "id": 10,
          "value": 0.212084115
        },
        {
          "id": 11,
          "value": 0.282214046
        },
        {
          "id": 12,
          "value": 0.0724102259
        },
        {
          "id": 13,
          "value": 0.985037982
        },
        {
          "id": 14,
          "value": 0.240886867
        },
        {
          "id": 15,
          "value": 0.10737592
        },
        {
          "id": 16,
          "value": 0.365734696
        },
        {
          "id": 17,
          "value": 0.475273699
        },
        {
          "id": 18,
          "value": 0.0
        },
        {
          "id": 19,
          "value": 0.0
        },
        {
          "id": 20,
          "value": 0.0
        },
        {
          "id": 21,
          "value": 0.0
        },
        {
          "id": 22,
          "value": 0.0
        },
        {
          "id": 23,
          "value": 0.0
        },
        {
          "id": 24,
          "value": 0.0
        },
        {
          "id": 25,
          "value": 0.0
        },
        {
          "id": 26,
          "value": 0.0
        },
        {
          "id": 27,
          "value": 0.0
        }
      ],
      "leftModuleId": 479,
      "rightModuleId": 491,
      "data": {
        "panelTheme": 1,
        "running": true,
        "resetOnRun": false,
        "quantize": 0,
        "uncertainty": false,
        "stepIndexes0": 12,
        "stepIndexes1": 0,
        "states0": 2,
        "states1": 2,
        "ranges0": 1,
        "ranges1": 1,
        "leap": false
      },
      "pos": [
        70,
        1
      ]
    },
    {
      "id": 483,
      "plugin": "Bogaudio",
      "version": "1.1.37",
      "model": "Bogaudio-AddrSeq",
      "params": [
        {
          "id": 0,
          "value": 6.50567865
        },
        {
          "id": 1,
          "value": 1.0
        },
        {
          "id": 2,
          "value": 3.36512136
        },
        {
          "id": 3,
          "value": 0.681708217
        },
        {
          "id": 4,
          "value": -0.296387911
        },
        {
          "id": 5,
          "value": -0.248158693
        },
        {
          "id": 6,
          "value": 0.744614601
        },
        {
          "id": 7,
          "value": -0.372840047
        },
        {
          "id": 8,
          "value": 0.700037599
        },
        {
          "id": 9,
          "value": -0.349600554
        },
        {
          "id": 10,
          "value": 0.116534114
        }
      ],
      "leftModuleId": 487,
      "rightModuleId": 494,
      "data": {
        "poly_input": 0,
        "select_on_clock": false,
        "triggered_select": false,
        "reverse_on_negative_clock": false,
        "range_offset": 0.0,
        "range_scale": 10.0
      },
      "pos": [
        85,
        0
      ]
    },
    {
      "id": 484,
      "plugin": "Grayscale",
      "version": "1.0.2",
      "model": "Algorhythm",
      "params": [
        {
          "id": 0,
          "value": 0.0
        },
        {
          "id": 1,
          "value": 0.0
        },
        {
          "id": 2,
          "value": 0.0
        },
        {
          "id": 3,
          "value": 0.0
        },
        {
          "id": 4,
          "value": 0.0
        },
        {
          "id": 5,
          "value": 0.0
        },
        {
          "id": 6,
          "value": 0.0
        },
        {
          "id": 7,
          "value": 0.0
        },
        {
          "id": 8,
          "value": 0.0
        },
        {
          "id": 9,
          "value": 0.0
        },
        {
          "id": 10,
          "value": 0.0
        },
        {
          "id": 11,
          "value": 0.0
        }
      ],
      "leftModuleId": 379,
      "rightModuleId": 486,
      "data": {
        "pattern": [
          1,
          0,
          1,
          1,
          1,
          0,
          1,
          1
        ],
        "gates": [
          1,
          1,
          1,
          1,
          1,
          1,
          1,
          1
        ],
        "looping": false,
        "seq": true,
        "gate": true,
        "clockPassthrough": true,
        "patternLength": 7,
        "numLoops": 1,
        "immediateReset": 1,
        "startupState": 2,
        "started": false,
        "running": false,
        "stepOutsAlwaysActive": true
      },
      "pos": [
        14,
        1
      ]
    },
    {
      "id": 485,
      "plugin": "Admiral",
      "version": "1.1.0",
      "model": "Tables",
      "params": [
        {
          "id": 0,
          "value": 0.0
        },
        {
          "id": 1,
          "value": 0.0
        },
        {
          "id": 2,
          "value": 0.0
        },
        {
          "id": 3,
          "value": 0.0
        },
        {
          "id": 4,
          "value": 0.0
        },
        {
          "id": 5,
          "value": 0.0
        },
        {
          "id": 6,
          "value": 0.0
        },
        {
          "id": 7,
          "value": 0.0
        },
        {
          "id": 8,
          "value": 0.0
        },
        {
          "id": 9,
          "value": 0.0
        },
        {
          "id": 10,
          "value": 0.0
        },
        {
          "id": 11,
          "value": 0.0
        },
        {
          "id": 12,
          "value": 0.0
        },
        {
          "id": 13,
          "value": 0.0
        },
        {
          "id": 14,
          "value": 0.0
        },
        {
          "id": 15,
          "value": 0.0
        },
        {
          "id": 16,
          "value": 0.0
        },
        {
          "id": 17,
          "value": 0.0
        }
      ],
      "leftModuleId": 486,
      "rightModuleId": 478,
      "data": {
        "sel": 1,
        "channels": [
          {
            "order": 2,
            "beat": 3,
            "beats": [
              2,
              2,
              0,
              1
            ],
            "step": 2,
            "steps": [
              {
                "mode": 3,
                "pattern": 13
              },
              {
                "mode": 1,
                "pattern": 3
              },
              {
                "mode": 3,
                "pattern": 13
              },
              {
                "mode": 0,
                "pattern": 1
              },
              {
                "mode": 2,
                "pattern": 5
              },
              {
                "mode": 0,
                "pattern": 0
              },
              {
                "mode": 0,
                "pattern": 0
              },
              {
                "mode": 0,
                "pattern": 0
              }
            ]
          },
          {
            "order": 0,
            "beat": 1,
            "beats": [
              -1,
              -1,
              0,
              0
            ],
            "step": 3,
            "steps": [
              {
                "mode": 1,
                "pattern": 4
              },
              {
                "mode": 0,
                "pattern": 3
              },
              {
                "mode": 0,
                "pattern": 2
              },
              {
                "mode": 0,
                "pattern": 2
              },
              {
                "mode": 0,
                "pattern": 2
              },
              {
                "mode": 0,
                "pattern": 0
              },
              {
                "mode": 0,
                "pattern": 0
              },
              {
                "mode": 0,
                "pattern": 0
              }
            ]
          },
          {
            "order": 0,
            "beat": -1,
            "beats": [
              0,
              0,
              0,
              0
            ],
            "step": 2,
            "steps": [
              {
                "mode": 0,
                "pattern": 0
              },
              {
                "mode": 0,
                "pattern": 0
              },
              {
                "mode": 0,
                "pattern": 0
              },
              {
                "mode": 0,
                "pattern": 0
              },
              {
                "mode": 0,
                "pattern": 0
              },
              {
                "mode": 0,
                "pattern": 0
              },
              {
                "mode": 0,
                "pattern": 0
              },
              {
                "mode": 0,
                "pattern": 0
              }
            ]
          },
          {
            "order": 0,
            "beat": -1,
            "beats": [
              0,
              0,
              0,
              0
            ],
            "step": 2,
            "steps": [
              {
                "mode": 0,
                "pattern": 0
              },
              {
                "mode": 0,
                "pattern": 0
              },
              {
                "mode": 0,
                "pattern": 0
              },
              {
                "mode": 0,
                "pattern": 0
              },
              {
                "mode": 0,
                "pattern": 0
              },
              {
                "mode": 0,
                "pattern": 0
              },
              {
                "mode": 0,
                "pattern": 0
              },
              {
                "mode": 0,
                "pattern": 0
              }
            ]
          }
        ]
      },
      "pos": [
        38,
        1
      ]
    },
    {
      "id": 486,
      "plugin": "Grayscale",
      "version": "1.0.2",
      "model": "Algorhythm",
      "params": [
        {
          "id": 0,
          "value": 0.0
        },
        {
          "id": 1,
          "value": 0.0
        },
        {
          "id": 2,
          "value": 0.0
        },
        {
          "id": 3,
          "value": 0.0
        },
        {
          "id": 4,
          "value": 0.0
        },
        {
          "id": 5,
          "value": 0.0
        },
        {
          "id": 6,
          "value": 0.0
        },
        {
          "id": 7,
          "value": 0.0
        },
        {
          "id": 8,
          "value": 0.0
        },
        {
          "id": 9,
          "value": 0.0
        },
        {
          "id": 10,
          "value": 0.0
        },
        {
          "id": 11,
          "value": 0.0
        }
      ],
      "leftModuleId": 484,
      "rightModuleId": 485,
      "data": {
        "pattern": [
          1,
          1,
          0,
          1,
          1,
          1,
          1,
          1
        ],
        "gates": [
          1,
          1,
          1,
          1,
          1,
          1,
          1,
          1
        ],
        "looping": false,
        "seq": true,
        "gate": true,
        "clockPassthrough": true,
        "patternLength": 5,
        "numLoops": 1,
        "immediateReset": 1,
        "startupState": 2,
        "started": false,
        "running": false,
        "stepOutsAlwaysActive": true
      },
      "pos": [
        26,
        1
      ]
    },
    {
      "id": 487,
      "plugin": "Bogaudio",
      "version": "1.1.37",
      "model": "Bogaudio-SampleHold",
      "params": [
        {
          "id": 0,
          "value": 0.0
        },
        {
          "id": 1,
          "value": 0.0
        },
        {
          "id": 2,
          "value": 0.0
        },
        {
          "id": 3,
          "value": 0.0
        },
        {
          "id": 4,
          "value": 0.0
        },
        {
          "id": 5,
          "value": 0.0
        }
      ],
      "leftModuleId": 490,
      "rightModuleId": 483,
      "data": {
        "poly_input": 0,
        "noise_type": 0,
        "range_offset": 1.0,
        "range_scale": 5.0
      },
      "pos": [
        82,
        0
      ]
    },
    {
      "id": 489,
      "plugin": "Bogaudio",
      "version": "1.1.37",
      "model": "Bogaudio-EightOne",
      "params": [
        {
          "id": 0,
          "value": 7.0
        },
        {
          "id": 1,
          "value": 1.0
        },
        {
          "id": 2,
          "value": 0.0
        }
      ],
      "leftModuleId": 1,
      "rightModuleId": 490,
      "data": {
        "poly_input": 8,
        "select_on_clock": false,
        "triggered_select": false,
        "reverse_on_negative_clock": false
      },
      "pos": [
        68,
        0
      ]
    },
    {
      "id": 490,
      "plugin": "RJModules",
      "version": "1.7.2",
      "model": "Octaves",
      "params": [
        {
          "id": 0,
          "value": 1.0
        },
        {
          "id": 1,
          "value": -1.0
        },
        {
          "id": 2,
          "value": -1.0
        },
        {
          "id": 3,
          "value": 0.0
        },
        {
          "id": 4,
          "value": 0.0
        },
        {
          "id": 5,
          "value": 0.0
        },
        {
          "id": 6,
          "value": 0.0
        },
        {
          "id": 7,
          "value": 0.0
        },
        {
          "id": 8,
          "value": 0.0
        },
        {
          "id": 9,
          "value": 0.0
        }
      ],
      "leftModuleId": 489,
      "rightModuleId": 487,
      "data": {
        "states": [
          false,
          false,
          false,
          true,
          true,
          true,
          true,
          false,
          false,
          false
        ]
      },
      "pos": [
        74,
        0
      ]
    },
    {
      "id": 491,
      "plugin": "Geodesics",
      "version": "1.2.0",
      "model": "Energy",
      "params": [
        {
          "id": 0,
          "value": 0.0
        },
        {
          "id": 1,
          "value": 0.0
        },
        {
          "id": 2,
          "value": 0.0
        },
        {
          "id": 3,
          "value": 0.0
        },
        {
          "id": 4,
          "value": 0.0
        },
        {
          "id": 5,
          "value": -0.890999913
        },
        {
          "id": 6,
          "value": 0.972000003
        },
        {
          "id": 7,
          "value": 0.0
        },
        {
          "id": 8,
          "value": 0.0
        },
        {
          "id": 9,
          "value": 0.0
        }
      ],
      "leftModuleId": 481,
      "rightModuleId": 492,
      "data": {
        "panelTheme": 1,
        "oscM_phase": 2528930304,
        "oscC_phase": 3858981120,
        "osc1M_phase": 0,
        "osc1C_phase": 0,
        "osc2M_phase": 0,
        "osc2C_phase": 0,
        "osc3M_phase": 0,
        "osc3C_phase": 0,
        "osc4M_phase": 0,
        "osc4C_phase": 0,
        "osc5M_phase": 0,
        "osc5C_phase": 0,
        "osc6M_phase": 0,
        "osc6C_phase": 0,
        "osc7M_phase": 0,
        "osc7C_phase": 0,
        "osc8M_phase": 0,
        "osc8C_phase": 0,
        "osc9M_phase": 0,
        "osc9C_phase": 0,
        "osc10M_phase": 0,
        "osc10C_phase": 0,
        "osc11M_phase": 0,
        "osc11C_phase": 0,
        "osc12M_phase": 0,
        "osc12C_phase": 0,
        "osc13M_phase": 0,
        "osc13C_phase": 0,
        "osc14M_phase": 0,
        "osc14C_phase": 0,
        "osc15M_phase": 0,
        "osc15C_phase": 0,
        "routing": 2,
        "planck0": 2,
        "planck1": 2,
        "modtype0": 1,
        "modtype1": 1,
        "cross": 0
      },
      "pos": [
        89,
        1
      ]
    },
    {
      "id": 492,
      "plugin": "Bogaudio",
      "version": "1.1.37",
      "model": "Bogaudio-AD",
      "params": [
        {
          "id": 0,
          "value": 0.0
        },
        {
          "id": 1,
          "value": 0.133230001
        },
        {
          "id": 2,
          "value": 0.0
        },
        {
          "id": 3,
          "value": 0.0
        },
        {
          "id": 4,
          "value": 1.0
        }
      ],
      "leftModuleId": 491,
      "rightModuleId": 493,
      "data": {
        "invert": 1.0
      },
      "pos": [
        96,
        1
      ]
    },
    {
      "id": 493,
      "plugin": "Geodesics",
      "version": "1.2.0",
      "model": "Energy",
      "params": [
        {
          "id": 0,
          "value": 0.0
        },
        {
          "id": 1,
          "value": 0.0
        },
        {
          "id": 2,
          "value": 0.0
        },
        {
          "id": 3,
          "value": 0.0
        },
        {
          "id": 4,
          "value": 0.0
        },
        {
          "id": 5,
          "value": 0.900000036
        },
        {
          "id": 6,
          "value": -1.01699996
        },
        {
          "id": 7,
          "value": 0.530999959
        },
        {
          "id": 8,
          "value": 0.418500006
        },
        {
          "id": 9,
          "value": 0.0
        }
      ],
      "leftModuleId": 492,
      "rightModuleId": 498,
      "data": {
        "panelTheme": 1,
        "oscM_phase": 638924576,
        "oscC_phase": 442826720,
        "osc1M_phase": 670218656,
        "osc1C_phase": 2145828288,
        "osc2M_phase": 732876736,
        "osc2C_phase": 1101349248,
        "osc3M_phase": 2541005728,
        "osc3C_phase": 2541005728,
        "osc4M_phase": 0,
        "osc4C_phase": 0,
        "osc5M_phase": 0,
        "osc5C_phase": 0,
        "osc6M_phase": 0,
        "osc6C_phase": 0,
        "osc7M_phase": 0,
        "osc7C_phase": 0,
        "osc8M_phase": 0,
        "osc8C_phase": 0,
        "osc9M_phase": 0,
        "osc9C_phase": 0,
        "osc10M_phase": 0,
        "osc10C_phase": 0,
        "osc11M_phase": 0,
        "osc11C_phase": 0,
        "osc12M_phase": 0,
        "osc12C_phase": 0,
        "osc13M_phase": 0,
        "osc13C_phase": 0,
        "osc14M_phase": 0,
        "osc14C_phase": 0,
        "osc15M_phase": 0,
        "osc15C_phase": 0,
        "routing": 0,
        "planck0": 2,
        "planck1": 2,
        "modtype0": 1,
        "modtype1": 1,
        "cross": 0
      },
      "pos": [
        99,
        1
      ]
    },
    {
      "id": 494,
      "plugin": "Bogaudio",
      "version": "1.1.37",
      "model": "Bogaudio-AD",
      "params": [
        {
          "id": 0,
          "value": 0.141421005
        },
        {
          "id": 1,
          "value": 0.316229999
        },
        {
          "id": 2,
          "value": 0.0
        },
        {
          "id": 3,
          "value": 0.0
        },
        {
          "id": 4,
          "value": 1.0
        }
      ],
      "leftModuleId": 483,
      "rightModuleId": 496,
      "data": {
        "invert": 1.0
      },
      "pos": [
        91,
        0
      ]
    },
    {
      "id": 496,
      "plugin": "Instruo",
      "version": "1.1.0",
      "model": "harmonaig",
      "params": [
        {
          "id": 0,
          "value": 0.0
        },
        {
          "id": 1,
          "value": 0.0
        },
        {
          "id": 2,
          "value": 1.0
        },
        {
          "id": 3,
          "value": 0.0
        },
        {
          "id": 4,
          "value": 1.0
        },
        {
          "id": 5,
          "value": 1.0
        },
        {
          "id": 6,
          "value": 0.0
        },
        {
          "id": 7,
          "value": 1.0
        },
        {
          "id": 8,
          "value": 0.0
        },
        {
          "id": 9,
          "value": 0.0
        },
        {
          "id": 10,
          "value": 1.0
        },
        {
          "id": 11,
          "value": 0.0
        },
        {
          "id": 12,
          "value": 0.0
        },
        {
          "id": 13,
          "value": 2.09400034
        },
        {
          "id": 14,
          "value": 4.0
        },
        {
          "id": 15,
          "value": -0.221100092
        },
        {
          "id": 16,
          "value": 0.0
        },
        {
          "id": 17,
          "value": 0.0
        },
        {
          "id": 18,
          "value": 0.0
        },
        {
          "id": 19,
          "value": 0.0
        },
        {
          "id": 20,
          "value": -24.0
        },
        {
          "id": 21,
          "value": 0.0
        },
        {
          "id": 22,
          "value": 0.0
        },
        {
          "id": 23,
          "value": 0.0
        },
        {
          "id": 24,
          "value": 0.0
        },
        {
          "id": 25,
          "value": 0.0
        },
        {
          "id": 26,
          "value": 1.0
        },
        {
          "id": 27,
          "value": 0.0
        },
        {
          "id": 28,
          "value": 1.0
        },
        {
          "id": 29,
          "value": 1.0
        },
        {
          "id": 30,
          "value": 0.0
        },
        {
          "id": 31,
          "value": 1.0
        },
        {
          "id": 32,
          "value": 0.0
        },
        {
          "id": 33,
          "value": 0.0
        },
        {
          "id": 34,
          "value": 1.0
        },
        {
          "id": 35,
          "value": 0.0
        },
        {
          "id": 36,
          "value": 1.0
        },
        {
          "id": 37,
          "value": 0.0
        },
        {
          "id": 38,
          "value": 4.0
        },
        {
          "id": 39,
          "value": 0.0
        },
        {
          "id": 40,
          "value": 0.0
        },
        {
          "id": 41,
          "value": 0.0
        },
        {
          "id": 42,
          "value": 1.0
        },
        {
          "id": 43,
          "value": 1.0
        },
        {
          "id": 44,
          "value": 1.0
        },
        {
          "id": 45,
          "value": 1.0
        }
      ],
      "leftModuleId": 494,
      "rightModuleId": 497,
      "data": {
        "mode": 0
      },
      "pos": [
        94,
        0
      ]
    },
    {
      "id": 497,
      "plugin": "GrandeModular",
      "version": "1.9.0",
      "model": "MergeSplit4",
      "params": [],
      "leftModuleId": 496,
      "rightModuleId": 500,
      "data": {
        "channels_merge": -1
      },
      "pos": [
        112,
        0
      ]
    },
    {
      "id": 498,
      "plugin": "Befaco",
      "version": "1.0.1",
      "model": "DualAtenuverter",
      "params": [
        {
          "id": 0,
          "value": 1.0
        },
        {
          "id": 1,
          "value": 0.0
        },
        {
          "id": 2,
          "value": 0.0
        },
        {
          "id": 3,
          "value": 0.0
        }
      ],
      "leftModuleId": 493,
      "rightModuleId": 499,
      "pos": [
        106,
        1
      ]
    },
    {
      "id": 499,
      "plugin": "AudibleInstruments",
      "version": "1.5.0",
      "model": "Branches",
      "params": [
        {
          "id": 0,
          "value": 0.5
        },
        {
          "id": 1,
          "value": 0.5
        },
        {
          "id": 2,
          "value": 0.0
        },
        {
          "id": 3,
          "value": 0.0
        }
      ],
      "leftModuleId": 498,
      "rightModuleId": 362,
      "data": {
        "modes": [
          false,
          false
        ]
      },
      "pos": [
        111,
        1
      ]
    },
    {
      "id": 500,
      "plugin": "Bogaudio",
      "version": "1.1.37",
      "model": "Bogaudio-Blank3",
      "params": [],
      "leftModuleId": 497,
      "rightModuleId": 360,
      "data": {},
      "pos": [
        114,
        0
      ]
    }
  ],
  "cables": [
    {
      "id": 702,
      "outputModuleId": 375,
      "outputId": 0,
      "inputModuleId": 1,
      "inputId": 0,
      "color": "#c91847"
    },
    {
      "id": 703,
      "outputModuleId": 375,
      "outputId": 1,
      "inputModuleId": 1,
      "inputId": 1,
      "color": "#c91847"
    },
    {
      "id": 964,
      "outputModuleId": 379,
      "outputId": 4,
      "inputModuleId": 484,
      "inputId": 1,
      "color": "#364449"
    },
    {
      "id": 968,
      "outputModuleId": 485,
      "outputId": 1,
      "inputModuleId": 484,
      "inputId": 0,
      "color": "#364449"
    },
    {
      "id": 971,
      "outputModuleId": 379,
      "outputId": 4,
      "inputModuleId": 485,
      "inputId": 1,
      "color": "#364449"
    },
    {
      "id": 969,
      "outputModuleId": 379,
      "outputId": 1,
      "inputModuleId": 484,
      "inputId": 2,
      "color": "#364449"
    },
    {
      "id": 972,
      "outputModuleId": 379,
      "outputId": 0,
      "inputModuleId": 485,
      "inputId": 0,
      "color": "#364449"
    },
    {
      "id": 973,
      "outputModuleId": 484,
      "outputId": 9,
      "inputModuleId": 486,
      "inputId": 0,
      "color": "#364449"
    },
    {
      "id": 974,
      "outputModuleId": 379,
      "outputId": 4,
      "inputModuleId": 486,
      "inputId": 1,
      "color": "#364449"
    },
    {
      "id": 980,
      "outputModuleId": 379,
      "outputId": 1,
      "inputModuleId": 489,
      "inputId": 8,
      "color": "#364449"
    },
    {
      "id": 981,
      "outputModuleId": 379,
      "outputId": 4,
      "inputModuleId": 489,
      "inputId": 9,
      "color": "#364449"
    },
    {
      "id": 982,
      "outputModuleId": 478,
      "outputId": 1,
      "inputModuleId": 489,
      "inputId": 0,
      "color": "#c9b70e"
    },
    {
      "id": 983,
      "outputModuleId": 478,
      "outputId": 0,
      "inputModuleId": 489,
      "inputId": 1,
      "color": "#c9b70e"
    },
    {
      "id": 985,
      "outputModuleId": 478,
      "outputId": 3,
      "inputModuleId": 489,
      "inputId": 3,
      "color": "#c9b70e"
    },
    {
      "id": 986,
      "outputModuleId": 478,
      "outputId": 2,
      "inputModuleId": 489,
      "inputId": 4,
      "color": "#c9b70e"
    },
    {
      "id": 989,
      "outputModuleId": 478,
      "outputId": 0,
      "inputModuleId": 489,
      "inputId": 6,
      "color": "#c9b70e"
    },
    {
      "id": 987,
      "outputModuleId": 478,
      "outputId": 3,
      "inputModuleId": 490,
      "inputId": 0,
      "color": "#c9b70e"
    },
    {
      "id": 990,
      "outputModuleId": 490,
      "outputId": 0,
      "inputModuleId": 489,
      "inputId": 5,
      "color": "#c9b70e"
    },
    {
      "id": 984,
      "outputModuleId": 478,
      "outputId": 1,
      "inputModuleId": 490,
      "inputId": 1,
      "color": "#c9b70e"
    },
    {
      "id": 991,
      "outputModuleId": 490,
      "outputId": 1,
      "inputModuleId": 489,
      "inputId": 2,
      "color": "#c9b70e"
    },
    {
      "id": 992,
      "outputModuleId": 489,
      "outputId": 0,
      "inputModuleId": 491,
      "inputId": 2,
      "color": "#c9b70e"
    },
    {
      "id": 993,
      "outputModuleId": 491,
      "outputId": 0,
      "inputModuleId": 375,
      "inputId": 0,
      "color": "#c91847"
    },
    {
      "id": 999,
      "outputModuleId": 379,
      "outputId": 0,
      "inputModuleId": 487,
      "inputId": 0,
      "color": "#364449"
    },
    {
      "id": 1001,
      "outputModuleId": 492,
      "outputId": 0,
      "inputModuleId": 491,
      "inputId": 3,
      "color": "#364449"
    },
    {
      "id": 1003,
      "outputModuleId": 486,
      "outputId": 11,
      "inputModuleId": 494,
      "inputId": 0,
      "color": "#364449"
    },
    {
      "id": 1004,
      "outputModuleId": 494,
      "outputId": 0,
      "inputModuleId": 493,
      "inputId": 3,
      "color": "#0c8e15"
    },
    {
      "id": 1007,
      "outputModuleId": 479,
      "outputId": 4,
      "inputModuleId": 487,
      "inputId": 1,
      "color": "#c9b70e"
    },
    {
      "id": 1008,
      "outputModuleId": 487,
      "outputId": 0,
      "inputModuleId": 491,
      "inputId": 5,
      "color": "#0c8e15"
    },
    {
      "id": 1010,
      "outputModuleId": 483,
      "outputId": 0,
      "inputModuleId": 478,
      "inputId": 0,
      "color": "#c9b70e"
    },
    {
      "id": 1011,
      "outputModuleId": 484,
      "outputId": 11,
      "inputModuleId": 483,
      "inputId": 0,
      "color": "#364449"
    },
    {
      "id": 1012,
      "outputModuleId": 486,
      "outputId": 11,
      "inputModuleId": 481,
      "inputId": 0,
      "color": "#364449"
    },
    {
      "id": 1013,
      "outputModuleId": 379,
      "outputId": 4,
      "inputModuleId": 481,
      "inputId": 4,
      "color": "#364449"
    },
    {
      "id": 1014,
      "outputModuleId": 485,
      "outputId": 0,
      "inputModuleId": 481,
      "inputId": 2,
      "color": "#364449"
    },
    {
      "id": 1020,
      "outputModuleId": 493,
      "outputId": 0,
      "inputModuleId": 497,
      "inputId": 4,
      "color": "#c91847"
    },
    {
      "id": 1030,
      "outputModuleId": 483,
      "outputId": 0,
      "inputModuleId": 496,
      "inputId": 0,
      "color": "#c9b70e"
    },
    {
      "id": 1027,
      "outputModuleId": 497,
      "outputId": 1,
      "inputModuleId": 375,
      "inputId": 2,
      "color": "#c91847"
    },
    {
      "id": 1029,
      "outputModuleId": 497,
      "outputId": 2,
      "inputModuleId": 375,
      "inputId": 4,
      "color": "#c91847"
    },
    {
      "id": 1033,
      "outputModuleId": 497,
      "outputId": 0,
      "inputModuleId": 493,
      "inputId": 2,
      "color": "#c9b70e"
    },
    {
      "id": 1034,
      "outputModuleId": 479,
      "outputId": 1,
      "inputModuleId": 498,
      "inputId": 0,
      "color": "#0c8e15"
    },
    {
      "id": 1035,
      "outputModuleId": 498,
      "outputId": 0,
      "inputModuleId": 493,
      "inputId": 5,
      "color": "#0c8e15"
    },
    {
      "id": 1031,
      "outputModuleId": 496,
      "outputId": 0,
      "inputModuleId": 497,
      "inputId": 0,
      "color": "#c9b70e"
    },
    {
      "id": 1018,
      "outputModuleId": 496,
      "outputId": 1,
      "inputModuleId": 497,
      "inputId": 1,
      "color": "#c9b70e"
    },
    {
      "id": 1036,
      "outputModuleId": 496,
      "outputId": 3,
      "inputModuleId": 497,
      "inputId": 2,
      "color": "#c9b70e"
    },
    {
      "id": 1037,
      "outputModuleId": 497,
      "outputId": 3,
      "inputModuleId": 375,
      "inputId": 3,
      "color": "#c91847"
    },
    {
      "id": 1038,
      "outputModuleId": 379,
      "outputId": 0,
      "inputModuleId": 486,
      "inputId": 2,
      "color": "#0c8e15"
    },
    {
      "id": 1039,
      "outputModuleId": 484,
      "outputId": 11,
      "inputModuleId": 481,
      "inputId": 1,
      "color": "#364449"
    },
    {
      "id": 1042,
      "outputModuleId": 481,
      "outputId": 0,
      "inputModuleId": 491,
      "inputId": 4,
      "color": "#0c8e15"
    },
    {
      "id": 1043,
      "outputModuleId": 481,
      "outputId": 1,
      "inputModuleId": 493,
      "inputId": 4,
      "color": "#0c8e15"
    },
    {
      "id": 1044,
      "outputModuleId": 379,
      "outputId": 1,
      "inputModuleId": 499,
      "inputId": 0,
      "color": "#364449"
    },
    {
      "id": 1045,
      "outputModuleId": 499,
      "outputId": 0,
      "inputModuleId": 492,
      "inputId": 0,
      "color": "#364449"
    }
  ]
}