{
  "version": "1.1.6",
  "modules": [
    {
      "id": 1,
      "plugin": "Core",
      "version": "1.1.6",
      "model": "AudioInterface",
      "params": [],
      "leftModuleId": 375,
      "rightModuleId": 557,
      "data": {
        "audio": {
          "driver": 7,
          "deviceName": "Studio USB ASIO Driver",
          "offset": 0,
          "maxChannels": 8,
          "sampleRate": 48000,
          "blockSize": 256
        }
      },
      "pos": [
        58,
        0
      ]
    },
    {
      "id": 5,
      "plugin": "Core",
      "version": "1.1.6",
      "model": "MIDIToCVInterface",
      "params": [],
      "leftModuleId": 79,
      "rightModuleId": 94,
      "data": {
        "channels": 1,
        "polyMode": 0,
        "clockDivision": 24,
        "lastPitch": 8192,
        "lastMod": 12,
        "midi": {
          "driver": 4,
          "channel": -1
        }
      },
      "pos": [
        14,
        0
      ]
    },
    {
      "id": 76,
      "plugin": "Stoermelder-P1",
      "version": "1.10.0",
      "model": "Mb",
      "params": [],
      "leftModuleId": 380,
      "rightModuleId": 79,
      "data": {
        "mode": 1
      },
      "pos": [
        6,
        0
      ]
    },
    {
      "id": 79,
      "plugin": "Stoermelder-P1",
      "version": "1.10.0",
      "model": "Stroke",
      "params": [],
      "leftModuleId": 76,
      "rightModuleId": 5,
      "data": {
        "panelTheme": 1,
        "keys": [
          {
            "button": -1,
            "key": 49,
            "mods": 0,
            "mode": 24,
            "high": false,
            "data": "#c9b70e"
          },
          {
            "button": -1,
            "key": 50,
            "mods": 0,
            "mode": 24,
            "high": false,
            "data": "#0c8e15"
          },
          {
            "button": -1,
            "key": 51,
            "mods": 0,
            "mode": 24,
            "high": false,
            "data": "#c91847"
          },
          {
            "button": -1,
            "key": 52,
            "mods": 0,
            "mode": 24,
            "high": false,
            "data": "#364449"
          },
          {
            "button": -1,
            "key": -1,
            "mods": 0,
            "mode": 1,
            "high": false,
            "data": ""
          },
          {
            "button": -1,
            "key": -1,
            "mods": 0,
            "mode": 1,
            "high": false,
            "data": ""
          },
          {
            "button": -1,
            "key": -1,
            "mods": 0,
            "mode": 1,
            "high": false,
            "data": ""
          },
          {
            "button": -1,
            "key": -1,
            "mods": 0,
            "mode": 1,
            "high": false,
            "data": ""
          },
          {
            "button": -1,
            "key": -1,
            "mods": 0,
            "mode": 1,
            "high": false,
            "data": ""
          },
          {
            "button": -1,
            "key": -1,
            "mods": 0,
            "mode": 1,
            "high": false,
            "data": ""
          }
        ]
      },
      "pos": [
        8,
        0
      ]
    },
    {
      "id": 94,
      "plugin": "Core",
      "version": "1.1.6",
      "model": "MIDI-Map",
      "params": [],
      "leftModuleId": 5,
      "rightModuleId": 375,
      "data": {
        "maps": [
          {
            "cc": -1,
            "moduleId": -1,
            "paramId": 0
          }
        ],
        "midi": {
          "driver": 4,
          "channel": -1
        }
      },
      "pos": [
        22,
        0
      ]
    },
    {
      "id": 360,
      "plugin": "LindenbergResearch",
      "version": "1.3.3",
      "model": "BlankPanel_Wood",
      "params": [],
      "gestaltID": 1,
      "gradient": false,
      "patina": false,
      "patina_i_x": false,
      "patina_i_y": false,
      "patina_a_x": 1048.69849,
      "patina_a_y": 465.392822,
      "overlay": false,
      "overlay_r": 0.37700069,
      "overlay_g": 0.8395105,
      "overlay_b": 0.514945209,
      "overlay_a": 0.311370641,
      "AGED": false,
      "screws": true,
      "logo": false,
      "pos": [
        89,
        0
      ]
    },
    {
      "id": 362,
      "plugin": "LindenbergResearch",
      "version": "1.3.3",
      "model": "BlankPanel_Wood",
      "params": [],
      "gestaltID": 1,
      "gradient": false,
      "patina": false,
      "patina_i_x": false,
      "patina_i_y": false,
      "patina_a_x": 1048.69849,
      "patina_a_y": 465.392822,
      "overlay": false,
      "overlay_r": 0.075494945,
      "overlay_g": 0.591042399,
      "overlay_b": 0.247472763,
      "overlay_a": 0.121341608,
      "AGED": false,
      "screws": true,
      "logo": false,
      "pos": [
        89,
        1
      ]
    },
    {
      "id": 364,
      "plugin": "LindenbergResearch",
      "version": "1.3.3",
      "model": "BlankPanel_Wood",
      "params": [],
      "rightModuleId": 380,
      "gestaltID": 1,
      "gradient": false,
      "patina": false,
      "patina_i_x": true,
      "patina_i_y": false,
      "patina_a_x": 732.980896,
      "patina_a_y": 232.628174,
      "overlay": false,
      "overlay_r": 0.402686834,
      "overlay_g": 0.3162992,
      "overlay_b": 0.453384757,
      "overlay_a": 0.186037108,
      "AGED": false,
      "screws": true,
      "logo": false,
      "pos": [
        0,
        0
      ]
    },
    {
      "id": 365,
      "plugin": "LindenbergResearch",
      "version": "1.3.3",
      "model": "BlankPanel_Wood",
      "params": [],
      "rightModuleId": 555,
      "gestaltID": 1,
      "gradient": false,
      "patina": false,
      "patina_i_x": true,
      "patina_i_y": false,
      "patina_a_x": 732.980896,
      "patina_a_y": 232.628174,
      "overlay": false,
      "overlay_r": 0.204083085,
      "overlay_g": 0.556783557,
      "overlay_b": 0.364764094,
      "overlay_a": 0.339274853,
      "AGED": false,
      "screws": true,
      "logo": false,
      "pos": [
        0,
        1
      ]
    },
    {
      "id": 375,
      "plugin": "squinkylabs-plug1",
      "version": "1.0.22",
      "model": "squinkylabs-mix8",
      "params": [
        {
          "id": 0,
          "value": 0.662
        },
        {
          "id": 1,
          "value": 0.0
        },
        {
          "id": 2,
          "value": 0.800000012
        },
        {
          "id": 3,
          "value": 0.800000012
        },
        {
          "id": 4,
          "value": 0.627499998
        },
        {
          "id": 5,
          "value": 0.567500114
        },
        {
          "id": 6,
          "value": 0.800000012
        },
        {
          "id": 7,
          "value": 0.800000012
        },
        {
          "id": 8,
          "value": 0.800000012
        },
        {
          "id": 9,
          "value": 0.800000012
        },
        {
          "id": 10,
          "value": 0.0
        },
        {
          "id": 11,
          "value": 0.0
        },
        {
          "id": 12,
          "value": 0.0
        },
        {
          "id": 13,
          "value": 0.0
        },
        {
          "id": 14,
          "value": 0.0
        },
        {
          "id": 15,
          "value": 0.0
        },
        {
          "id": 16,
          "value": 0.0
        },
        {
          "id": 17,
          "value": 0.0
        },
        {
          "id": 18,
          "value": 0.0
        },
        {
          "id": 19,
          "value": 0.0
        },
        {
          "id": 20,
          "value": 0.0
        },
        {
          "id": 21,
          "value": 0.0
        },
        {
          "id": 22,
          "value": 1.0
        },
        {
          "id": 23,
          "value": 0.0
        },
        {
          "id": 24,
          "value": 0.0
        },
        {
          "id": 25,
          "value": 0.0
        },
        {
          "id": 26,
          "value": 0.0
        },
        {
          "id": 27,
          "value": 0.0
        },
        {
          "id": 28,
          "value": 0.0
        },
        {
          "id": 29,
          "value": 0.0
        },
        {
          "id": 30,
          "value": 0.0
        },
        {
          "id": 31,
          "value": 0.0
        },
        {
          "id": 32,
          "value": 0.0
        },
        {
          "id": 33,
          "value": 0.0
        },
        {
          "id": 34,
          "value": 0.0
        },
        {
          "id": 35,
          "value": 0.0
        },
        {
          "id": 36,
          "value": 0.0
        },
        {
          "id": 37,
          "value": 0.0
        },
        {
          "id": 38,
          "value": 0.0
        },
        {
          "id": 39,
          "value": 0.0
        },
        {
          "id": 40,
          "value": 0.0
        },
        {
          "id": 41,
          "value": 0.0
        },
        {
          "id": 42,
          "value": 0.0
        }
      ],
      "leftModuleId": 94,
      "rightModuleId": 1,
      "pos": [
        32,
        0
      ]
    },
    {
      "id": 380,
      "plugin": "Stoermelder-P1",
      "version": "1.10.0",
      "model": "Me",
      "params": [],
      "leftModuleId": 364,
      "rightModuleId": 76,
      "pos": [
        4,
        0
      ]
    },
    {
      "id": 548,
      "plugin": "FehlerFabrik-Suite",
      "version": "1.1.1",
      "model": "Aspect",
      "params": [],
      "leftModuleId": 555,
      "rightModuleId": 553,
      "pos": [
        24,
        1
      ]
    },
    {
      "id": 552,
      "plugin": "CountModula",
      "version": "1.14.0",
      "model": "PolyG2T",
      "params": [],
      "leftModuleId": 553,
      "rightModuleId": 554,
      "data": {
        "moduleVersion": 2,
        "theme": 1
      },
      "pos": [
        39,
        1
      ]
    },
    {
      "id": 553,
      "plugin": "Fundamental",
      "version": "1.4.0",
      "model": "Merge",
      "params": [],
      "leftModuleId": 548,
      "rightModuleId": 552,
      "data": {
        "channels": -1
      },
      "pos": [
        34,
        1
      ]
    },
    {
      "id": 554,
      "plugin": "Fundamental",
      "version": "1.4.0",
      "model": "Split",
      "params": [],
      "leftModuleId": 552,
      "rightModuleId": 560,
      "pos": [
        47,
        1
      ]
    },
    {
      "id": 555,
      "plugin": "ImpromptuModular",
      "version": "1.1.12",
      "model": "Clocked",
      "params": [
        {
          "id": 0,
          "value": 78.0
        },
        {
          "id": 1,
          "value": 9.0
        },
        {
          "id": 2,
          "value": 0.0
        },
        {
          "id": 3,
          "value": 0.0
        },
        {
          "id": 4,
          "value": 0.0
        },
        {
          "id": 5,
          "value": 0.0840000808
        },
        {
          "id": 6,
          "value": 0.0
        },
        {
          "id": 7,
          "value": 0.0
        },
        {
          "id": 8,
          "value": 0.5
        },
        {
          "id": 9,
          "value": 0.5
        },
        {
          "id": 10,
          "value": 0.5
        },
        {
          "id": 11,
          "value": 0.5
        },
        {
          "id": 12,
          "value": 0.0
        },
        {
          "id": 13,
          "value": 0.0
        },
        {
          "id": 14,
          "value": 0.0
        },
        {
          "id": 15,
          "value": 0.0
        },
        {
          "id": 16,
          "value": 0.0
        },
        {
          "id": 17,
          "value": 0.0
        },
        {
          "id": 18,
          "value": 0.0
        },
        {
          "id": 19,
          "value": 0.0
        }
      ],
      "leftModuleId": 365,
      "rightModuleId": 548,
      "data": {
        "panelTheme": 1,
        "running": true,
        "displayDelayNoteMode": true,
        "bpmDetectionMode": false,
        "resetOnStartStop": 0,
        "ppqn": 4,
        "resetClockOutputsHigh": true,
        "momentaryRunInput": true,
        "clockMaster": false
      },
      "pos": [
        4,
        1
      ]
    },
    {
      "id": 556,
      "plugin": "AudibleInstruments",
      "version": "1.5.0",
      "model": "Branches",
      "params": [
        {
          "id": 0,
          "value": 1.0
        },
        {
          "id": 1,
          "value": 0.214999974
        },
        {
          "id": 2,
          "value": 0.0
        },
        {
          "id": 3,
          "value": 0.0
        }
      ],
      "leftModuleId": 573,
      "rightModuleId": 579,
      "data": {
        "modes": [
          true,
          false
        ]
      },
      "pos": [
        53,
        3
      ]
    },
    {
      "id": 557,
      "plugin": "voxglitch",
      "version": "1.33.0",
      "model": "samplerx8",
      "params": [
        {
          "id": 0,
          "value": 0.0
        },
        {
          "id": 1,
          "value": 1.0
        },
        {
          "id": 2,
          "value": 1.0
        },
        {
          "id": 3,
          "value": 0.191499829
        },
        {
          "id": 4,
          "value": 1.0
        },
        {
          "id": 5,
          "value": 1.0
        },
        {
          "id": 6,
          "value": 1.0
        },
        {
          "id": 7,
          "value": 1.0
        },
        {
          "id": 8,
          "value": 1.0
        },
        {
          "id": 9,
          "value": 0.0
        },
        {
          "id": 10,
          "value": 0.0
        },
        {
          "id": 11,
          "value": 0.0
        },
        {
          "id": 12,
          "value": 0.0
        },
        {
          "id": 13,
          "value": 0.0
        },
        {
          "id": 14,
          "value": 0.0
        },
        {
          "id": 15,
          "value": 0.0
        },
        {
          "id": 16,
          "value": 0.0
        },
        {
          "id": 17,
          "value": 0.0
        }
      ],
      "leftModuleId": 1,
      "data": {
        "loaded_sample_path_1": "E:\\Misc\\Samples\\Ghosthack - Unique Drum Collection\\One-Shots\\30 Kicks\\Ghosthack Kick 1.wav",
        "loaded_sample_path_2": "E:\\Misc\\Samples\\Ghosthack - Unique Drum Collection\\One-Shots\\30 Snares\\Ghosthack Snare 5.wav",
        "loaded_sample_path_3": "E:\\Misc\\Samples\\Ghosthack - Unique Drum Collection\\One-Shots\\20 HiHats\\Ghosthack HiHat 8.wav",
        "loaded_sample_path_4": "E:\\Misc\\Samples\\Ghosthack - Unique Drum Collection\\One-Shots\\20 HiHats\\Ghosthack HiHat 15.wav",
        "loaded_sample_path_5": "",
        "loaded_sample_path_6": "",
        "loaded_sample_path_7": "",
        "loaded_sample_path_8": ""
      },
      "pos": [
        68,
        0
      ]
    },
    {
      "id": 559,
      "plugin": "Stalys",
      "version": "1.4.2",
      "model": "Clip",
      "params": [
        {
          "id": 0,
          "value": -2.0
        },
        {
          "id": 1,
          "value": -0.620000124
        },
        {
          "id": 2,
          "value": -0.636746287
        },
        {
          "id": 3,
          "value": 0.149253726
        },
        {
          "id": 4,
          "value": 0.149253726
        },
        {
          "id": 5,
          "value": 0.149253726
        },
        {
          "id": 6,
          "value": 0.149253726
        },
        {
          "id": 7,
          "value": -2.0
        }
      ],
      "leftModuleId": 560,
      "data": {
        "skin": ""
      },
      "pos": [
        72,
        1
      ]
    },
    {
      "id": 560,
      "plugin": "CountModula",
      "version": "1.14.0",
      "model": "MatrixCombiner",
      "params": [
        {
          "id": 0,
          "value": 1.0
        },
        {
          "id": 1,
          "value": 0.0
        },
        {
          "id": 2,
          "value": 0.0
        },
        {
          "id": 3,
          "value": 0.0
        },
        {
          "id": 4,
          "value": 0.0
        },
        {
          "id": 5,
          "value": 0.0
        },
        {
          "id": 6,
          "value": 0.0
        },
        {
          "id": 7,
          "value": 0.0
        },
        {
          "id": 8,
          "value": 1.0
        },
        {
          "id": 9,
          "value": 0.0
        },
        {
          "id": 10,
          "value": 1.0
        },
        {
          "id": 11,
          "value": 1.0
        },
        {
          "id": 12,
          "value": 0.0
        },
        {
          "id": 13,
          "value": 1.0
        },
        {
          "id": 14,
          "value": 0.0
        },
        {
          "id": 15,
          "value": 0.0
        },
        {
          "id": 16,
          "value": 1.0
        },
        {
          "id": 17,
          "value": 0.0
        },
        {
          "id": 18,
          "value": 1.0
        },
        {
          "id": 19,
          "value": 0.0
        },
        {
          "id": 20,
          "value": 1.0
        },
        {
          "id": 21,
          "value": 1.0
        },
        {
          "id": 22,
          "value": 0.0
        },
        {
          "id": 23,
          "value": 0.0
        },
        {
          "id": 24,
          "value": 0.0
        },
        {
          "id": 25,
          "value": 0.0
        },
        {
          "id": 26,
          "value": 1.0
        },
        {
          "id": 27,
          "value": 0.0
        },
        {
          "id": 28,
          "value": 0.0
        },
        {
          "id": 29,
          "value": 1.0
        },
        {
          "id": 30,
          "value": 1.0
        },
        {
          "id": 31,
          "value": 0.0
        },
        {
          "id": 32,
          "value": 1.0
        },
        {
          "id": 33,
          "value": 1.0
        },
        {
          "id": 34,
          "value": 0.0
        },
        {
          "id": 35,
          "value": 0.0
        },
        {
          "id": 36,
          "value": 0.0
        },
        {
          "id": 37,
          "value": 0.0
        },
        {
          "id": 38,
          "value": 0.0
        },
        {
          "id": 39,
          "value": 0.0
        },
        {
          "id": 40,
          "value": 0.0
        },
        {
          "id": 41,
          "value": 0.0
        },
        {
          "id": 42,
          "value": 1.0
        }
      ],
      "leftModuleId": 554,
      "rightModuleId": 559,
      "data": {
        "moduleVersion": 1,
        "theme": 1
      },
      "pos": [
        52,
        1
      ]
    },
    {
      "id": 561,
      "plugin": "repelzen",
      "version": "1.1.0",
      "model": "reburst",
      "params": [
        {
          "id": 0,
          "value": 0.0
        },
        {
          "id": 1,
          "value": 0.503590167
        },
        {
          "id": 2,
          "value": 4.0
        },
        {
          "id": 3,
          "value": 1.45600009
        },
        {
          "id": 4,
          "value": 0.37650001
        },
        {
          "id": 5,
          "value": 0.0
        },
        {
          "id": 6,
          "value": 1.0
        },
        {
          "id": 7,
          "value": 0.0
        },
        {
          "id": 8,
          "value": 0.0
        }
      ],
      "leftModuleId": 591,
      "rightModuleId": 584,
      "pos": [
        70,
        3
      ]
    },
    {
      "id": 563,
      "plugin": "FehlerFabrik-Suite",
      "version": "1.1.1",
      "model": "Aspect",
      "params": [],
      "leftModuleId": 566,
      "rightModuleId": 567,
      "pos": [
        30,
        2
      ]
    },
    {
      "id": 566,
      "plugin": "AS",
      "version": "1.0.4",
      "model": "Merge2_5",
      "params": [],
      "leftModuleId": 575,
      "rightModuleId": 563,
      "pos": [
        25,
        2
      ]
    },
    {
      "id": 567,
      "plugin": "Fundamental",
      "version": "1.4.0",
      "model": "Merge",
      "params": [],
      "leftModuleId": 563,
      "rightModuleId": 568,
      "data": {
        "channels": -1
      },
      "pos": [
        40,
        2
      ]
    },
    {
      "id": 568,
      "plugin": "CountModula",
      "version": "1.14.0",
      "model": "PolyG2T",
      "params": [],
      "leftModuleId": 567,
      "rightModuleId": 569,
      "data": {
        "moduleVersion": 2,
        "theme": 1
      },
      "pos": [
        45,
        2
      ]
    },
    {
      "id": 569,
      "plugin": "Fundamental",
      "version": "1.4.0",
      "model": "Split",
      "params": [],
      "leftModuleId": 568,
      "rightModuleId": 570,
      "pos": [
        53,
        2
      ]
    },
    {
      "id": 570,
      "plugin": "CountModula",
      "version": "1.14.0",
      "model": "MatrixCombiner",
      "params": [
        {
          "id": 0,
          "value": 0.0
        },
        {
          "id": 1,
          "value": 0.0
        },
        {
          "id": 2,
          "value": 0.0
        },
        {
          "id": 3,
          "value": 0.0
        },
        {
          "id": 4,
          "value": 0.0
        },
        {
          "id": 5,
          "value": 0.0
        },
        {
          "id": 6,
          "value": 0.0
        },
        {
          "id": 7,
          "value": 0.0
        },
        {
          "id": 8,
          "value": 1.0
        },
        {
          "id": 9,
          "value": 0.0
        },
        {
          "id": 10,
          "value": 1.0
        },
        {
          "id": 11,
          "value": 1.0
        },
        {
          "id": 12,
          "value": 0.0
        },
        {
          "id": 13,
          "value": 0.0
        },
        {
          "id": 14,
          "value": 0.0
        },
        {
          "id": 15,
          "value": 0.0
        },
        {
          "id": 16,
          "value": 1.0
        },
        {
          "id": 17,
          "value": 0.0
        },
        {
          "id": 18,
          "value": 1.0
        },
        {
          "id": 19,
          "value": 0.0
        },
        {
          "id": 20,
          "value": 0.0
        },
        {
          "id": 21,
          "value": 0.0
        },
        {
          "id": 22,
          "value": 1.0
        },
        {
          "id": 23,
          "value": 0.0
        },
        {
          "id": 24,
          "value": 0.0
        },
        {
          "id": 25,
          "value": 0.0
        },
        {
          "id": 26,
          "value": 0.0
        },
        {
          "id": 27,
          "value": 0.0
        },
        {
          "id": 28,
          "value": 0.0
        },
        {
          "id": 29,
          "value": 0.0
        },
        {
          "id": 30,
          "value": 0.0
        },
        {
          "id": 31,
          "value": 0.0
        },
        {
          "id": 32,
          "value": 0.0
        },
        {
          "id": 33,
          "value": 0.0
        },
        {
          "id": 34,
          "value": 0.0
        },
        {
          "id": 35,
          "value": 0.0
        },
        {
          "id": 36,
          "value": 0.0
        },
        {
          "id": 37,
          "value": 0.0
        },
        {
          "id": 38,
          "value": 0.0
        },
        {
          "id": 39,
          "value": 0.0
        },
        {
          "id": 40,
          "value": 0.0
        },
        {
          "id": 41,
          "value": 0.0
        },
        {
          "id": 42,
          "value": 1.0
        }
      ],
      "leftModuleId": 569,
      "rightModuleId": 585,
      "data": {
        "moduleVersion": 1,
        "theme": 1
      },
      "pos": [
        58,
        2
      ]
    },
    {
      "id": 572,
      "plugin": "Geodesics",
      "version": "1.2.0",
      "model": "Energy",
      "params": [
        {
          "id": 0,
          "value": 0.0
        },
        {
          "id": 1,
          "value": 0.0
        },
        {
          "id": 2,
          "value": 0.0
        },
        {
          "id": 3,
          "value": 0.0
        },
        {
          "id": 4,
          "value": 0.0
        },
        {
          "id": 5,
          "value": 0.0
        },
        {
          "id": 6,
          "value": 0.0
        },
        {
          "id": 7,
          "value": 0.0
        },
        {
          "id": 8,
          "value": 0.0
        },
        {
          "id": 9,
          "value": 0.0
        }
      ],
      "leftModuleId": 577,
      "rightModuleId": 573,
      "data": {
        "panelTheme": 1,
        "oscM_phase": 3058666464,
        "oscC_phase": 820775712,
        "osc1M_phase": 0,
        "osc1C_phase": 0,
        "osc2M_phase": 0,
        "osc2C_phase": 0,
        "osc3M_phase": 0,
        "osc3C_phase": 0,
        "osc4M_phase": 0,
        "osc4C_phase": 0,
        "osc5M_phase": 0,
        "osc5C_phase": 0,
        "osc6M_phase": 0,
        "osc6C_phase": 0,
        "osc7M_phase": 0,
        "osc7C_phase": 0,
        "osc8M_phase": 0,
        "osc8C_phase": 0,
        "osc9M_phase": 0,
        "osc9C_phase": 0,
        "osc10M_phase": 0,
        "osc10C_phase": 0,
        "osc11M_phase": 0,
        "osc11C_phase": 0,
        "osc12M_phase": 0,
        "osc12C_phase": 0,
        "osc13M_phase": 0,
        "osc13C_phase": 0,
        "osc14M_phase": 0,
        "osc14C_phase": 0,
        "osc15M_phase": 0,
        "osc15C_phase": 0,
        "routing": 2,
        "planck0": 0,
        "planck1": 2,
        "modtype0": 1,
        "modtype1": 1,
        "cross": 1
      },
      "pos": [
        43,
        3
      ]
    },
    {
      "id": 573,
      "plugin": "Bogaudio",
      "version": "1.1.37",
      "model": "Bogaudio-AD",
      "params": [
        {
          "id": 0,
          "value": 0.0179999992
        },
        {
          "id": 1,
          "value": 0.0
        },
        {
          "id": 2,
          "value": 0.0
        },
        {
          "id": 3,
          "value": 0.0
        },
        {
          "id": 4,
          "value": 1.0
        }
      ],
      "leftModuleId": 572,
      "rightModuleId": 556,
      "data": {
        "invert": 1.0
      },
      "pos": [
        50,
        3
      ]
    },
    {
      "id": 574,
      "plugin": "repelzen",
      "version": "1.1.0",
      "model": "rewin",
      "params": [
        {
          "id": 0,
          "value": 0.0
        },
        {
          "id": 1,
          "value": -2.0
        },
        {
          "id": 2,
          "value": 0.0
        },
        {
          "id": 3,
          "value": 0.0
        },
        {
          "id": 4,
          "value": 0.0
        },
        {
          "id": 5,
          "value": 0.0
        },
        {
          "id": 6,
          "value": 0.0
        },
        {
          "id": 7,
          "value": 0.0
        },
        {
          "id": 8,
          "value": 0.0
        },
        {
          "id": 9,
          "value": 0.0
        },
        {
          "id": 10,
          "value": 0.0
        },
        {
          "id": 11,
          "value": 0.0
        },
        {
          "id": 12,
          "value": 0.0
        },
        {
          "id": 13,
          "value": 0.0
        },
        {
          "id": 14,
          "value": 0.0
        },
        {
          "id": 15,
          "value": 0.0
        },
        {
          "id": 16,
          "value": 0.0
        }
      ],
      "leftModuleId": 578,
      "rightModuleId": 576,
      "data": {
        "notes": [
          false,
          true,
          false,
          true,
          false,
          true,
          false,
          true,
          true,
          false,
          false,
          false,
          false,
          false,
          false,
          false,
          false,
          false,
          false,
          false,
          false,
          false,
          false,
          false,
          false,
          false,
          false,
          false,
          false,
          false,
          false,
          false,
          false,
          false,
          false,
          false,
          false,
          false,
          false,
          false,
          false,
          false,
          false,
          false,
          false,
          false,
          false,
          false,
          false,
          false,
          false,
          false,
          false,
          false,
          false,
          false,
          false,
          false,
          false,
          false,
          false,
          false,
          false,
          false,
          false,
          false,
          false,
          false,
          false,
          false,
          false,
          false,
          false,
          false,
          false,
          false,
          false,
          false,
          false,
          false,
          false,
          false,
          false,
          false,
          false,
          false,
          false,
          false,
          false,
          false,
          false,
          false,
          false,
          false,
          false,
          false,
          false,
          false,
          false,
          false,
          false,
          false,
          false,
          false,
          false,
          false,
          false,
          false,
          false,
          false,
          false,
          false,
          false,
          false,
          false,
          false,
          false,
          false,
          false,
          false,
          false,
          false,
          false,
          false,
          false,
          false,
          false,
          false,
          false,
          false,
          false,
          false,
          false,
          false,
          false,
          false,
          false,
          false,
          false,
          false,
          false,
          false,
          false,
          false,
          false,
          false,
          false,
          false,
          false,
          false,
          false,
          false,
          false,
          false,
          false,
          false,
          false,
          false,
          false,
          false,
          false,
          false,
          false,
          false,
          false,
          false,
          false,
          false,
          false,
          false,
          false,
          false,
          false,
          false,
          false,
          false,
          false,
          false,
          false,
          false,
          false,
          false,
          false,
          false,
          false,
          false,
          false,
          false,
          false,
          false,
          false,
          false
        ],
        "mode": 0
      },
      "pos": [
        25,
        3
      ]
    },
    {
      "id": 575,
      "plugin": "Geodesics",
      "version": "1.2.0",
      "model": "Entropia",
      "params": [
        {
          "id": 0,
          "value": 0.0
        },
        {
          "id": 1,
          "value": 0.0
        },
        {
          "id": 2,
          "value": 0.0
        },
        {
          "id": 3,
          "value": 0.0
        },
        {
          "id": 4,
          "value": 0.0
        },
        {
          "id": 5,
          "value": 0.8344962
        },
        {
          "id": 6,
          "value": 0.705287039
        },
        {
          "id": 7,
          "value": 0.504883051
        },
        {
          "id": 8,
          "value": 0.731377721
        },
        {
          "id": 9,
          "value": 0.759902298
        },
        {
          "id": 10,
          "value": 0.106282175
        },
        {
          "id": 11,
          "value": 0.854726017
        },
        {
          "id": 12,
          "value": 0.413847625
        },
        {
          "id": 13,
          "value": 0.0178363919
        },
        {
          "id": 14,
          "value": 0.438542068
        },
        {
          "id": 15,
          "value": 0.816574097
        },
        {
          "id": 16,
          "value": 0.183223546
        },
        {
          "id": 17,
          "value": 0.316452146
        },
        {
          "id": 18,
          "value": 0.895558238
        },
        {
          "id": 19,
          "value": 0.803774774
        },
        {
          "id": 20,
          "value": 0.295953453
        },
        {
          "id": 21,
          "value": 0.615069509
        },
        {
          "id": 22,
          "value": 0.408837676
        },
        {
          "id": 23,
          "value": 0.401859105
        },
        {
          "id": 24,
          "value": 0.0679169893
        },
        {
          "id": 25,
          "value": 0.532761335
        },
        {
          "id": 26,
          "value": 0.574501753
        },
        {
          "id": 27,
          "value": 0.823368251
        },
        {
          "id": 28,
          "value": 0.815629125
        },
        {
          "id": 29,
          "value": 0.0
        },
        {
          "id": 30,
          "value": 0.0
        },
        {
          "id": 31,
          "value": 0.0
        },
        {
          "id": 32,
          "value": 0.0
        },
        {
          "id": 33,
          "value": 0.0
        },
        {
          "id": 34,
          "value": 0.0
        },
        {
          "id": 35,
          "value": 0.0
        },
        {
          "id": 36,
          "value": 0.0
        },
        {
          "id": 37,
          "value": 0.0
        },
        {
          "id": 38,
          "value": 0.0
        },
        {
          "id": 39,
          "value": 0.0
        },
        {
          "id": 40,
          "value": 0.0
        },
        {
          "id": 41,
          "value": 0.993636012
        },
        {
          "id": 42,
          "value": 0.0
        },
        {
          "id": 43,
          "value": 0.0
        },
        {
          "id": 44,
          "value": 0.0
        }
      ],
      "leftModuleId": 580,
      "rightModuleId": 566,
      "data": {
        "panelTheme": 1,
        "running": true,
        "resetOnRun": false,
        "length": 8,
        "quantize": 3,
        "audio": 0,
        "ranges0": 1,
        "ranges1": 1,
        "addMode": false,
        "sources0": 0,
        "sources1": 0,
        "stepIndex": 6,
        "pipeBlue": false,
        "randomCVs0": 0.614349961,
        "randomCVs1": 0.271002829,
        "clkSource": 0
      },
      "pos": [
        4,
        2
      ]
    },
    {
      "id": 576,
      "plugin": "Geodesics",
      "version": "1.2.0",
      "model": "Energy",
      "params": [
        {
          "id": 0,
          "value": 0.0
        },
        {
          "id": 1,
          "value": 0.0
        },
        {
          "id": 2,
          "value": 0.0
        },
        {
          "id": 3,
          "value": 0.0
        },
        {
          "id": 4,
          "value": 0.0
        },
        {
          "id": 5,
          "value": -1.07099998
        },
        {
          "id": 6,
          "value": -0.0449995473
        },
        {
          "id": 7,
          "value": 0.289499938
        },
        {
          "id": 8,
          "value": 0.0
        },
        {
          "id": 9,
          "value": 0.0
        }
      ],
      "leftModuleId": 574,
      "rightModuleId": 577,
      "data": {
        "panelTheme": 1,
        "oscM_phase": 3185926016,
        "oscC_phase": 2140451712,
        "osc1M_phase": 0,
        "osc1C_phase": 0,
        "osc2M_phase": 0,
        "osc2C_phase": 0,
        "osc3M_phase": 0,
        "osc3C_phase": 0,
        "osc4M_phase": 0,
        "osc4C_phase": 0,
        "osc5M_phase": 0,
        "osc5C_phase": 0,
        "osc6M_phase": 0,
        "osc6C_phase": 0,
        "osc7M_phase": 0,
        "osc7C_phase": 0,
        "osc8M_phase": 0,
        "osc8C_phase": 0,
        "osc9M_phase": 0,
        "osc9C_phase": 0,
        "osc10M_phase": 0,
        "osc10C_phase": 0,
        "osc11M_phase": 0,
        "osc11C_phase": 0,
        "osc12M_phase": 0,
        "osc12C_phase": 0,
        "osc13M_phase": 0,
        "osc13C_phase": 0,
        "osc14M_phase": 0,
        "osc14C_phase": 0,
        "osc15M_phase": 0,
        "osc15C_phase": 0,
        "routing": 2,
        "planck0": 2,
        "planck1": 2,
        "modtype0": 1,
        "modtype1": 1,
        "cross": 1
      },
      "pos": [
        33,
        3
      ]
    },
    {
      "id": 577,
      "plugin": "Bogaudio",
      "version": "1.1.37",
      "model": "Bogaudio-AD",
      "params": [
        {
          "id": 0,
          "value": 0.188999996
        },
        {
          "id": 1,
          "value": 0.163499996
        },
        {
          "id": 2,
          "value": 0.0
        },
        {
          "id": 3,
          "value": 0.0
        },
        {
          "id": 4,
          "value": 0.0
        }
      ],
      "leftModuleId": 576,
      "rightModuleId": 572,
      "data": {
        "invert": 1.0
      },
      "pos": [
        40,
        3
      ]
    },
    {
      "id": 578,
      "plugin": "Geodesics",
      "version": "1.2.0",
      "model": "Entropia",
      "params": [
        {
          "id": 0,
          "value": 0.0
        },
        {
          "id": 1,
          "value": 0.0
        },
        {
          "id": 2,
          "value": 0.0
        },
        {
          "id": 3,
          "value": 0.0
        },
        {
          "id": 4,
          "value": 0.0
        },
        {
          "id": 5,
          "value": 0.353544116
        },
        {
          "id": 6,
          "value": 0.495085418
        },
        {
          "id": 7,
          "value": 0.441417813
        },
        {
          "id": 8,
          "value": 0.520133376
        },
        {
          "id": 9,
          "value": 0.812537849
        },
        {
          "id": 10,
          "value": 0.73776257
        },
        {
          "id": 11,
          "value": 0.2170856
        },
        {
          "id": 12,
          "value": 0.51266396
        },
        {
          "id": 13,
          "value": 0.896823347
        },
        {
          "id": 14,
          "value": 0.18832916
        },
        {
          "id": 15,
          "value": 0.831550241
        },
        {
          "id": 16,
          "value": 0.248120546
        },
        {
          "id": 17,
          "value": 0.426198304
        },
        {
          "id": 18,
          "value": 0.975694358
        },
        {
          "id": 19,
          "value": 0.882029235
        },
        {
          "id": 20,
          "value": 0.0455595255
        },
        {
          "id": 21,
          "value": 0.0762982965
        },
        {
          "id": 22,
          "value": 0.00157594681
        },
        {
          "id": 23,
          "value": 0.492709994
        },
        {
          "id": 24,
          "value": 0.365208387
        },
        {
          "id": 25,
          "value": 0.399656892
        },
        {
          "id": 26,
          "value": 0.568212748
        },
        {
          "id": 27,
          "value": 0.441302657
        },
        {
          "id": 28,
          "value": 0.235760987
        },
        {
          "id": 29,
          "value": 0.0
        },
        {
          "id": 30,
          "value": 0.0
        },
        {
          "id": 31,
          "value": 0.0
        },
        {
          "id": 32,
          "value": 0.0
        },
        {
          "id": 33,
          "value": 0.0
        },
        {
          "id": 34,
          "value": 0.0
        },
        {
          "id": 35,
          "value": 0.0
        },
        {
          "id": 36,
          "value": 0.0
        },
        {
          "id": 37,
          "value": 0.0
        },
        {
          "id": 38,
          "value": 0.0
        },
        {
          "id": 39,
          "value": 0.0
        },
        {
          "id": 40,
          "value": 0.0
        },
        {
          "id": 41,
          "value": -0.609597683
        },
        {
          "id": 42,
          "value": 0.0
        },
        {
          "id": 43,
          "value": 0.0
        },
        {
          "id": 44,
          "value": 0.0
        }
      ],
      "leftModuleId": 581,
      "rightModuleId": 574,
      "data": {
        "panelTheme": 1,
        "running": true,
        "resetOnRun": false,
        "length": 8,
        "quantize": 3,
        "audio": 0,
        "ranges0": 0,
        "ranges1": 0,
        "addMode": false,
        "sources0": 0,
        "sources1": 0,
        "stepIndex": 7,
        "pipeBlue": true,
        "randomCVs0": 0.329801202,
        "randomCVs1": 0.636738539,
        "clkSource": 0
      },
      "pos": [
        4,
        3
      ]
    },
    {
      "id": 579,
      "plugin": "AudibleInstruments",
      "version": "1.5.0",
      "model": "Branches",
      "params": [
        {
          "id": 0,
          "value": 0.681999922
        },
        {
          "id": 1,
          "value": 0.249499962
        },
        {
          "id": 2,
          "value": 0.0
        },
        {
          "id": 3,
          "value": 0.0
        }
      ],
      "leftModuleId": 556,
      "rightModuleId": 591,
      "data": {
        "modes": [
          true,
          false
        ]
      },
      "pos": [
        59,
        3
      ]
    },
    {
      "id": 580,
      "plugin": "LindenbergResearch",
      "version": "1.3.3",
      "model": "BlankPanel_Wood",
      "params": [],
      "rightModuleId": 575,
      "gestaltID": 1,
      "gradient": false,
      "patina": false,
      "patina_i_x": true,
      "patina_i_y": false,
      "patina_a_x": 732.980896,
      "patina_a_y": 232.628174,
      "overlay": false,
      "overlay_r": 0.322033584,
      "overlay_g": 0.38854152,
      "overlay_b": 0.123586953,
      "overlay_a": 0.333188117,
      "AGED": false,
      "screws": true,
      "logo": false,
      "pos": [
        0,
        2
      ]
    },
    {
      "id": 581,
      "plugin": "LindenbergResearch",
      "version": "1.3.3",
      "model": "BlankPanel_Wood",
      "params": [],
      "rightModuleId": 578,
      "gestaltID": 1,
      "gradient": false,
      "patina": false,
      "patina_i_x": true,
      "patina_i_y": false,
      "patina_a_x": 732.980896,
      "patina_a_y": 232.628174,
      "overlay": false,
      "overlay_r": 0.285215318,
      "overlay_g": 0.65227735,
      "overlay_b": 0.376215458,
      "overlay_a": 0.213186383,
      "AGED": false,
      "screws": true,
      "logo": false,
      "pos": [
        0,
        3
      ]
    },
    {
      "id": 582,
      "plugin": "LindenbergResearch",
      "version": "1.3.3",
      "model": "BlankPanel_Wood",
      "params": [],
      "gestaltID": 1,
      "gradient": false,
      "patina": false,
      "patina_i_x": false,
      "patina_i_y": false,
      "patina_a_x": 1048.69849,
      "patina_a_y": 465.392822,
      "overlay": false,
      "overlay_r": 0.637469053,
      "overlay_g": 0.83193177,
      "overlay_b": 0.601939321,
      "overlay_a": 0.382792354,
      "AGED": false,
      "screws": true,
      "logo": false,
      "pos": [
        89,
        2
      ]
    },
    {
      "id": 583,
      "plugin": "LindenbergResearch",
      "version": "1.3.3",
      "model": "BlankPanel_Wood",
      "params": [],
      "leftModuleId": 587,
      "gestaltID": 1,
      "gradient": false,
      "patina": false,
      "patina_i_x": false,
      "patina_i_y": false,
      "patina_a_x": 1048.69849,
      "patina_a_y": 465.392822,
      "overlay": false,
      "overlay_r": 0.382186294,
      "overlay_g": 0.712987363,
      "overlay_b": 0.681274772,
      "overlay_a": 0.312638104,
      "AGED": false,
      "screws": true,
      "logo": false,
      "pos": [
        89,
        3
      ]
    },
    {
      "id": 584,
      "plugin": "Bogaudio",
      "version": "1.1.37",
      "model": "Bogaudio-SampleHold",
      "params": [
        {
          "id": 0,
          "value": 0.0
        },
        {
          "id": 1,
          "value": 0.0
        },
        {
          "id": 2,
          "value": 0.0
        },
        {
          "id": 3,
          "value": 0.0
        },
        {
          "id": 4,
          "value": 0.0
        },
        {
          "id": 5,
          "value": 0.0
        }
      ],
      "leftModuleId": 561,
      "rightModuleId": 587,
      "data": {
        "poly_input": 0,
        "noise_type": 0,
        "range_offset": 1.0,
        "range_scale": 5.0
      },
      "pos": [
        78,
        3
      ]
    },
    {
      "id": 585,
      "plugin": "Instruo",
      "version": "1.1.0",
      "model": "ochd",
      "params": [
        {
          "id": 0,
          "value": 0.5
        },
        {
          "id": 1,
          "value": 0.0
        }
      ],
      "leftModuleId": 570,
      "rightModuleId": 588,
      "data": {
        "deviations": {
          "lfos": [
            {
              "amplitude": 5.5,
              "frequency": {
                "maximum": 154.699997,
                "minimum": 0.147,
                "absMinimum": 0.000294000027,
                "absMaximum": 160.887985
              }
            },
            {
              "amplitude": 5.5,
              "frequency": {
                "maximum": 84.7399979,
                "minimum": 0.0816000029,
                "absMinimum": 0.00016320002,
                "absMaximum": 88.1295929
              }
            },
            {
              "amplitude": 5.5,
              "frequency": {
                "maximum": 42.2599983,
                "minimum": 0.0417000018,
                "absMinimum": 8.34000093e-5,
                "absMaximum": 43.9503975
              }
            },
            {
              "amplitude": 5.5,
              "frequency": {
                "maximum": 22.0100002,
                "minimum": 0.0221999995,
                "absMinimum": 4.43999998e-5,
                "absMaximum": 22.8903999
              }
            },
            {
              "amplitude": 5.5,
              "frequency": {
                "maximum": 10.3699999,
                "minimum": 0.0102000004,
                "absMinimum": 2.04000025e-5,
                "absMaximum": 10.7847996
              }
            },
            {
              "amplitude": 5.5,
              "frequency": {
                "maximum": 4.69999981,
                "minimum": 0.00505999988,
                "absMinimum": 1.01200003e-5,
                "absMaximum": 4.88799953
              }
            },
            {
              "amplitude": 5.5,
              "frequency": {
                "maximum": 2.11999989,
                "minimum": 0.00212999992,
                "absMinimum": 4.25999997e-6,
                "absMaximum": 2.20479989
              }
            },
            {
              "amplitude": 5.5,
              "frequency": {
                "maximum": 1.00999999,
                "minimum": 0.00100000005,
                "absMinimum": 2.00000022e-6,
                "absMaximum": 1.0503999
              }
            }
          ]
        }
      },
      "pos": [
        78,
        2
      ]
    },
    {
      "id": 587,
      "plugin": "Fundamental",
      "version": "1.4.0",
      "model": "VCF",
      "params": [
        {
          "id": 0,
          "value": 0.60650003
        },
        {
          "id": 1,
          "value": 0.5
        },
        {
          "id": 2,
          "value": 0.306000024
        },
        {
          "id": 3,
          "value": 0.381000012
        },
        {
          "id": 4,
          "value": 0.436499983
        }
      ],
      "leftModuleId": 584,
      "rightModuleId": 583,
      "pos": [
        81,
        3
      ]
    },
    {
      "id": 588,
      "plugin": "Befaco",
      "version": "1.1.0",
      "model": "DualAtenuverter",
      "params": [
        {
          "id": 0,
          "value": 0.10800007
        },
        {
          "id": 1,
          "value": 0.0
        },
        {
          "id": 2,
          "value": 0.191999957
        },
        {
          "id": 3,
          "value": 0.0
        }
      ],
      "leftModuleId": 585,
      "pos": [
        82,
        2
      ]
    },
    {
      "id": 591,
      "plugin": "AS",
      "version": "1.0.4",
      "model": "Merge2_5",
      "params": [],
      "leftModuleId": 579,
      "rightModuleId": 561,
      "pos": [
        65,
        3
      ]
    }
  ],
  "cables": [
    {
      "id": 702,
      "outputModuleId": 375,
      "outputId": 0,
      "inputModuleId": 1,
      "inputId": 0,
      "color": "#c91847"
    },
    {
      "id": 703,
      "outputModuleId": 375,
      "outputId": 1,
      "inputModuleId": 1,
      "inputId": 1,
      "color": "#c91847"
    },
    {
      "id": 732,
      "outputModuleId": 548,
      "outputId": 6,
      "inputModuleId": 553,
      "inputId": 0,
      "color": "#364449"
    },
    {
      "id": 733,
      "outputModuleId": 548,
      "outputId": 7,
      "inputModuleId": 553,
      "inputId": 1,
      "color": "#364449"
    },
    {
      "id": 734,
      "outputModuleId": 548,
      "outputId": 8,
      "inputModuleId": 553,
      "inputId": 2,
      "color": "#364449"
    },
    {
      "id": 735,
      "outputModuleId": 548,
      "outputId": 9,
      "inputModuleId": 553,
      "inputId": 3,
      "color": "#364449"
    },
    {
      "id": 736,
      "outputModuleId": 548,
      "outputId": 10,
      "inputModuleId": 553,
      "inputId": 4,
      "color": "#364449"
    },
    {
      "id": 742,
      "outputModuleId": 553,
      "outputId": 0,
      "inputModuleId": 552,
      "inputId": 0,
      "color": "#364449"
    },
    {
      "id": 756,
      "outputModuleId": 555,
      "outputId": 1,
      "inputModuleId": 548,
      "inputId": 0,
      "color": "#364449"
    },
    {
      "id": 759,
      "outputModuleId": 557,
      "outputId": 16,
      "inputModuleId": 375,
      "inputId": 0,
      "color": "#c91847"
    },
    {
      "id": 760,
      "outputModuleId": 557,
      "outputId": 17,
      "inputModuleId": 375,
      "inputId": 1,
      "color": "#c91847"
    },
    {
      "id": 764,
      "outputModuleId": 556,
      "outputId": 0,
      "inputModuleId": 557,
      "inputId": 0,
      "color": "#364449"
    },
    {
      "id": 765,
      "outputModuleId": 556,
      "outputId": 2,
      "inputModuleId": 557,
      "inputId": 1,
      "color": "#364449"
    },
    {
      "id": 772,
      "outputModuleId": 552,
      "outputId": 2,
      "inputModuleId": 554,
      "inputId": 0,
      "color": "#364449"
    },
    {
      "id": 775,
      "outputModuleId": 554,
      "outputId": 0,
      "inputModuleId": 560,
      "inputId": 0,
      "color": "#c91847"
    },
    {
      "id": 776,
      "outputModuleId": 554,
      "outputId": 1,
      "inputModuleId": 560,
      "inputId": 1,
      "color": "#364449"
    },
    {
      "id": 777,
      "outputModuleId": 554,
      "outputId": 2,
      "inputModuleId": 560,
      "inputId": 2,
      "color": "#c9b70e"
    },
    {
      "id": 778,
      "outputModuleId": 554,
      "outputId": 3,
      "inputModuleId": 560,
      "inputId": 3,
      "color": "#0c8e15"
    },
    {
      "id": 779,
      "outputModuleId": 554,
      "outputId": 4,
      "inputModuleId": 560,
      "inputId": 4,
      "color": "#c91847"
    },
    {
      "id": 781,
      "outputModuleId": 560,
      "outputId": 1,
      "inputModuleId": 559,
      "inputId": 2,
      "color": "#364449"
    },
    {
      "id": 780,
      "outputModuleId": 560,
      "outputId": 0,
      "inputModuleId": 559,
      "inputId": 0,
      "color": "#364449"
    },
    {
      "id": 771,
      "outputModuleId": 559,
      "outputId": 0,
      "inputModuleId": 556,
      "inputId": 0,
      "color": "#364449"
    },
    {
      "id": 782,
      "outputModuleId": 548,
      "outputId": 11,
      "inputModuleId": 553,
      "inputId": 5,
      "color": "#364449"
    },
    {
      "id": 783,
      "outputModuleId": 548,
      "outputId": 12,
      "inputModuleId": 553,
      "inputId": 6,
      "color": "#364449"
    },
    {
      "id": 784,
      "outputModuleId": 554,
      "outputId": 5,
      "inputModuleId": 560,
      "inputId": 5,
      "color": "#c9b70e"
    },
    {
      "id": 785,
      "outputModuleId": 554,
      "outputId": 6,
      "inputModuleId": 560,
      "inputId": 6,
      "color": "#0c8e15"
    },
    {
      "id": 787,
      "outputModuleId": 556,
      "outputId": 1,
      "inputModuleId": 561,
      "inputId": 0,
      "color": "#364449"
    },
    {
      "id": 786,
      "outputModuleId": 560,
      "outputId": 2,
      "inputModuleId": 559,
      "inputId": 4,
      "color": "#364449"
    },
    {
      "id": 788,
      "outputModuleId": 559,
      "outputId": 2,
      "inputModuleId": 556,
      "inputId": 1,
      "color": "#364449"
    },
    {
      "id": 792,
      "outputModuleId": 559,
      "outputId": 7,
      "inputModuleId": 557,
      "inputId": 3,
      "color": "#364449"
    },
    {
      "id": 794,
      "outputModuleId": 555,
      "outputId": 1,
      "inputModuleId": 563,
      "inputId": 0,
      "color": "#364449"
    },
    {
      "id": 793,
      "outputModuleId": 563,
      "outputId": 11,
      "inputModuleId": 566,
      "inputId": 5,
      "color": "#364449"
    },
    {
      "id": 795,
      "outputModuleId": 555,
      "outputId": 4,
      "inputModuleId": 566,
      "inputId": 6,
      "color": "#364449"
    },
    {
      "id": 796,
      "outputModuleId": 566,
      "outputId": 1,
      "inputModuleId": 563,
      "inputId": 1,
      "color": "#364449"
    },
    {
      "id": 720,
      "outputModuleId": 548,
      "outputId": 13,
      "inputModuleId": 566,
      "inputId": 0,
      "color": "#364449"
    },
    {
      "id": 797,
      "outputModuleId": 555,
      "outputId": 4,
      "inputModuleId": 566,
      "inputId": 1,
      "color": "#364449"
    },
    {
      "id": 798,
      "outputModuleId": 566,
      "outputId": 0,
      "inputModuleId": 548,
      "inputId": 1,
      "color": "#364449"
    },
    {
      "id": 799,
      "outputModuleId": 563,
      "outputId": 6,
      "inputModuleId": 567,
      "inputId": 0,
      "color": "#364449"
    },
    {
      "id": 800,
      "outputModuleId": 563,
      "outputId": 7,
      "inputModuleId": 567,
      "inputId": 1,
      "color": "#364449"
    },
    {
      "id": 801,
      "outputModuleId": 563,
      "outputId": 8,
      "inputModuleId": 567,
      "inputId": 2,
      "color": "#364449"
    },
    {
      "id": 802,
      "outputModuleId": 563,
      "outputId": 9,
      "inputModuleId": 567,
      "inputId": 3,
      "color": "#364449"
    },
    {
      "id": 803,
      "outputModuleId": 563,
      "outputId": 10,
      "inputModuleId": 567,
      "inputId": 4,
      "color": "#364449"
    },
    {
      "id": 804,
      "outputModuleId": 567,
      "outputId": 0,
      "inputModuleId": 568,
      "inputId": 0,
      "color": "#364449"
    },
    {
      "id": 805,
      "outputModuleId": 559,
      "outputId": 1,
      "inputModuleId": 557,
      "inputId": 2,
      "color": "#364449"
    },
    {
      "id": 806,
      "outputModuleId": 568,
      "outputId": 2,
      "inputModuleId": 569,
      "inputId": 0,
      "color": "#364449"
    },
    {
      "id": 807,
      "outputModuleId": 569,
      "outputId": 0,
      "inputModuleId": 570,
      "inputId": 0,
      "color": "#364449"
    },
    {
      "id": 808,
      "outputModuleId": 569,
      "outputId": 1,
      "inputModuleId": 570,
      "inputId": 1,
      "color": "#364449"
    },
    {
      "id": 809,
      "outputModuleId": 569,
      "outputId": 2,
      "inputModuleId": 570,
      "inputId": 2,
      "color": "#364449"
    },
    {
      "id": 810,
      "outputModuleId": 569,
      "outputId": 3,
      "inputModuleId": 570,
      "inputId": 3,
      "color": "#364449"
    },
    {
      "id": 811,
      "outputModuleId": 569,
      "outputId": 4,
      "inputModuleId": 570,
      "inputId": 4,
      "color": "#364449"
    },
    {
      "id": 812,
      "outputModuleId": 572,
      "outputId": 0,
      "inputModuleId": 375,
      "inputId": 2,
      "color": "#c91847"
    },
    {
      "id": 813,
      "outputModuleId": 573,
      "outputId": 0,
      "inputModuleId": 572,
      "inputId": 3,
      "color": "#0c8e15"
    },
    {
      "id": 817,
      "outputModuleId": 555,
      "outputId": 4,
      "inputModuleId": 575,
      "inputId": 4,
      "color": "#364449"
    },
    {
      "id": 819,
      "outputModuleId": 575,
      "outputId": 0,
      "inputModuleId": 574,
      "inputId": 2,
      "color": "#364449"
    },
    {
      "id": 820,
      "outputModuleId": 574,
      "outputId": 0,
      "inputModuleId": 572,
      "inputId": 2,
      "color": "#c9b70e"
    },
    {
      "id": 824,
      "outputModuleId": 578,
      "outputId": 0,
      "inputModuleId": 574,
      "inputId": 3,
      "color": "#364449"
    },
    {
      "id": 826,
      "outputModuleId": 574,
      "outputId": 1,
      "inputModuleId": 576,
      "inputId": 2,
      "color": "#c9b70e"
    },
    {
      "id": 827,
      "outputModuleId": 560,
      "outputId": 3,
      "inputModuleId": 579,
      "inputId": 0,
      "color": "#364449"
    },
    {
      "id": 828,
      "outputModuleId": 579,
      "outputId": 0,
      "inputModuleId": 577,
      "inputId": 0,
      "color": "#c9b70e"
    },
    {
      "id": 829,
      "outputModuleId": 579,
      "outputId": 0,
      "inputModuleId": 578,
      "inputId": 0,
      "color": "#0c8e15"
    },
    {
      "id": 821,
      "outputModuleId": 577,
      "outputId": 0,
      "inputModuleId": 576,
      "inputId": 3,
      "color": "#0c8e15"
    },
    {
      "id": 831,
      "outputModuleId": 584,
      "outputId": 0,
      "inputModuleId": 576,
      "inputId": 5,
      "color": "#0c8e15"
    },
    {
      "id": 832,
      "outputModuleId": 560,
      "outputId": 4,
      "inputModuleId": 584,
      "inputId": 0,
      "color": "#364449"
    },
    {
      "id": 833,
      "outputModuleId": 585,
      "outputId": 3,
      "inputModuleId": 584,
      "inputId": 1,
      "color": "#0c8e15"
    },
    {
      "id": 834,
      "outputModuleId": 570,
      "outputId": 2,
      "inputModuleId": 584,
      "inputId": 2,
      "color": "#364449"
    },
    {
      "id": 836,
      "outputModuleId": 584,
      "outputId": 1,
      "inputModuleId": 572,
      "inputId": 5,
      "color": "#0c8e15"
    },
    {
      "id": 814,
      "outputModuleId": 570,
      "outputId": 1,
      "inputModuleId": 579,
      "inputId": 1,
      "color": "#364449"
    },
    {
      "id": 837,
      "outputModuleId": 579,
      "outputId": 1,
      "inputModuleId": 573,
      "inputId": 0,
      "color": "#364449"
    },
    {
      "id": 838,
      "outputModuleId": 579,
      "outputId": 3,
      "inputModuleId": 575,
      "inputId": 0,
      "color": "#364449"
    },
    {
      "id": 823,
      "outputModuleId": 576,
      "outputId": 0,
      "inputModuleId": 587,
      "inputId": 3,
      "color": "#364449"
    },
    {
      "id": 839,
      "outputModuleId": 587,
      "outputId": 0,
      "inputModuleId": 375,
      "inputId": 3,
      "color": "#c91847"
    },
    {
      "id": 840,
      "outputModuleId": 577,
      "outputId": 0,
      "inputModuleId": 587,
      "inputId": 0,
      "color": "#c9b70e"
    },
    {
      "id": 842,
      "outputModuleId": 585,
      "outputId": 4,
      "inputModuleId": 588,
      "inputId": 1,
      "color": "#0c8e15"
    },
    {
      "id": 843,
      "outputModuleId": 588,
      "outputId": 1,
      "inputModuleId": 587,
      "inputId": 1,
      "color": "#0c8e15"
    },
    {
      "id": 789,
      "outputModuleId": 556,
      "outputId": 3,
      "inputModuleId": 591,
      "inputId": 5,
      "color": "#0c8e15"
    },
    {
      "id": 790,
      "outputModuleId": 561,
      "outputId": 0,
      "inputModuleId": 591,
      "inputId": 6,
      "color": "#c91847"
    },
    {
      "id": 791,
      "outputModuleId": 591,
      "outputId": 1,
      "inputModuleId": 559,
      "inputId": 14,
      "color": "#364449"
    },
    {
      "id": 846,
      "outputModuleId": 585,
      "outputId": 5,
      "inputModuleId": 588,
      "inputId": 0,
      "color": "#c91847"
    },
    {
      "id": 851,
      "outputModuleId": 584,
      "outputId": 1,
      "inputModuleId": 572,
      "inputId": 1,
      "color": "#0c8e15"
    },
    {
      "id": 852,
      "outputModuleId": 588,
      "outputId": 0,
      "inputModuleId": 576,
      "inputId": 1,
      "color": "#0c8e15"
    },
    {
      "id": 853,
      "outputModuleId": 555,
      "outputId": 4,
      "inputModuleId": 578,
      "inputId": 4,
      "color": "#364449"
    }
  ]
}