{
  "version": "1.1.6",
  "modules": [
    {
      "id": 1,
      "plugin": "Core",
      "version": "1.1.6",
      "model": "AudioInterface",
      "params": [],
      "leftModuleId": 375,
      "rightModuleId": 474,
      "data": {
        "audio": {
          "driver": 7,
          "deviceName": "Studio USB ASIO Driver",
          "offset": 0,
          "maxChannels": 8,
          "sampleRate": 48000,
          "blockSize": 256
        }
      },
      "pos": [
        56,
        0
      ]
    },
    {
      "id": 5,
      "plugin": "Core",
      "version": "1.1.6",
      "model": "MIDIToCVInterface",
      "params": [],
      "leftModuleId": 79,
      "rightModuleId": 94,
      "data": {
        "channels": 1,
        "polyMode": 0,
        "clockDivision": 24,
        "lastPitch": 8192,
        "lastMod": 0,
        "midi": {
          "driver": 4,
          "channel": -1
        }
      },
      "pos": [
        12,
        0
      ]
    },
    {
      "id": 76,
      "plugin": "Stoermelder-P1",
      "version": "1.10.0",
      "model": "Mb",
      "params": [],
      "leftModuleId": 364,
      "rightModuleId": 79,
      "data": {
        "mode": 1
      },
      "pos": [
        4,
        0
      ]
    },
    {
      "id": 79,
      "plugin": "Stoermelder-P1",
      "version": "1.10.0",
      "model": "Stroke",
      "params": [],
      "leftModuleId": 76,
      "rightModuleId": 5,
      "data": {
        "panelTheme": 1,
        "keys": [
          {
            "button": -1,
            "key": 49,
            "mods": 0,
            "mode": 24,
            "high": false,
            "data": "#c9b70e"
          },
          {
            "button": -1,
            "key": 50,
            "mods": 0,
            "mode": 24,
            "high": false,
            "data": "#0c8e15"
          },
          {
            "button": -1,
            "key": 51,
            "mods": 0,
            "mode": 24,
            "high": false,
            "data": "#c91847"
          },
          {
            "button": -1,
            "key": 52,
            "mods": 0,
            "mode": 24,
            "high": false,
            "data": "#364449"
          },
          {
            "button": -1,
            "key": -1,
            "mods": 0,
            "mode": 1,
            "high": false,
            "data": ""
          },
          {
            "button": -1,
            "key": -1,
            "mods": 0,
            "mode": 1,
            "high": false,
            "data": ""
          },
          {
            "button": -1,
            "key": -1,
            "mods": 0,
            "mode": 1,
            "high": false,
            "data": ""
          },
          {
            "button": -1,
            "key": -1,
            "mods": 0,
            "mode": 1,
            "high": false,
            "data": ""
          },
          {
            "button": -1,
            "key": -1,
            "mods": 0,
            "mode": 1,
            "high": false,
            "data": ""
          },
          {
            "button": -1,
            "key": -1,
            "mods": 0,
            "mode": 1,
            "high": false,
            "data": ""
          }
        ]
      },
      "pos": [
        6,
        0
      ]
    },
    {
      "id": 94,
      "plugin": "Core",
      "version": "1.1.6",
      "model": "MIDI-Map",
      "params": [],
      "leftModuleId": 5,
      "rightModuleId": 375,
      "data": {
        "maps": [
          {
            "cc": -1,
            "moduleId": -1,
            "paramId": 0
          }
        ],
        "midi": {
          "driver": 4,
          "channel": -1
        }
      },
      "pos": [
        20,
        0
      ]
    },
    {
      "id": 360,
      "plugin": "LindenbergResearch",
      "version": "1.3.3",
      "model": "BlankPanel_Wood",
      "params": [],
      "leftModuleId": 479,
      "gestaltID": 1,
      "gradient": false,
      "patina": false,
      "patina_i_x": false,
      "patina_i_y": false,
      "patina_a_x": 1048.69849,
      "patina_a_y": 465.392822,
      "overlay": false,
      "overlay_r": 0.541818976,
      "overlay_g": 0.755012214,
      "overlay_b": 0.880681515,
      "overlay_a": 0.381426305,
      "AGED": false,
      "screws": true,
      "logo": false,
      "pos": [
        115,
        0
      ]
    },
    {
      "id": 361,
      "plugin": "LindenbergResearch",
      "version": "1.3.3",
      "model": "BlankPanel_Wood",
      "params": [],
      "gestaltID": 1,
      "gradient": false,
      "patina": false,
      "patina_i_x": false,
      "patina_i_y": false,
      "patina_a_x": 1048.69849,
      "patina_a_y": 465.392822,
      "overlay": false,
      "overlay_r": 0.171763182,
      "overlay_g": 0.867474318,
      "overlay_b": 0.758803189,
      "overlay_a": 0.405544251,
      "AGED": false,
      "screws": true,
      "logo": false,
      "pos": [
        116,
        3
      ]
    },
    {
      "id": 362,
      "plugin": "LindenbergResearch",
      "version": "1.3.3",
      "model": "BlankPanel_Wood",
      "params": [],
      "leftModuleId": 483,
      "gestaltID": 1,
      "gradient": false,
      "patina": false,
      "patina_i_x": false,
      "patina_i_y": false,
      "patina_a_x": 1048.69849,
      "patina_a_y": 465.392822,
      "overlay": false,
      "overlay_r": 0.898625791,
      "overlay_g": 0.517248929,
      "overlay_b": 0.00373965502,
      "overlay_a": 0.400826007,
      "AGED": false,
      "screws": true,
      "logo": false,
      "pos": [
        115,
        1
      ]
    },
    {
      "id": 364,
      "plugin": "LindenbergResearch",
      "version": "1.3.3",
      "model": "BlankPanel_Wood",
      "params": [],
      "rightModuleId": 76,
      "gestaltID": 1,
      "gradient": false,
      "patina": false,
      "patina_i_x": true,
      "patina_i_y": false,
      "patina_a_x": 732.980896,
      "patina_a_y": 232.628174,
      "overlay": false,
      "overlay_r": 0.527354836,
      "overlay_g": 0.341510177,
      "overlay_b": 0.249272227,
      "overlay_a": 0.418786347,
      "AGED": false,
      "screws": true,
      "logo": false,
      "pos": [
        0,
        0
      ]
    },
    {
      "id": 365,
      "plugin": "LindenbergResearch",
      "version": "1.3.3",
      "model": "BlankPanel_Wood",
      "params": [],
      "rightModuleId": 379,
      "gestaltID": 1,
      "gradient": false,
      "patina": false,
      "patina_i_x": true,
      "patina_i_y": false,
      "patina_a_x": 732.980896,
      "patina_a_y": 232.628174,
      "overlay": false,
      "overlay_r": 0.227221668,
      "overlay_g": 0.773307323,
      "overlay_b": 0.405060709,
      "overlay_a": 0.195735633,
      "AGED": false,
      "screws": true,
      "logo": false,
      "pos": [
        0,
        1
      ]
    },
    {
      "id": 367,
      "plugin": "LindenbergResearch",
      "version": "1.3.3",
      "model": "BlankPanel_Wood",
      "params": [],
      "gestaltID": 1,
      "gradient": false,
      "patina": false,
      "patina_i_x": true,
      "patina_i_y": false,
      "patina_a_x": 732.980896,
      "patina_a_y": 232.628174,
      "overlay": false,
      "overlay_r": 0.0354922414,
      "overlay_g": 0.833884716,
      "overlay_b": 0.290497243,
      "overlay_a": 0.196244001,
      "AGED": false,
      "screws": true,
      "logo": false,
      "pos": [
        0,
        3
      ]
    },
    {
      "id": 375,
      "plugin": "squinkylabs-plug1",
      "version": "1.0.21",
      "model": "squinkylabs-mix8",
      "params": [
        {
          "id": 0,
          "value": 0.800000012
        },
        {
          "id": 1,
          "value": 0.0
        },
        {
          "id": 2,
          "value": 0.708499968
        },
        {
          "id": 3,
          "value": 0.836500049
        },
        {
          "id": 4,
          "value": 0.549500108
        },
        {
          "id": 5,
          "value": 0.800000012
        },
        {
          "id": 6,
          "value": 0.800000012
        },
        {
          "id": 7,
          "value": 0.800000012
        },
        {
          "id": 8,
          "value": 0.800000012
        },
        {
          "id": 9,
          "value": 0.800000012
        },
        {
          "id": 10,
          "value": 0.0
        },
        {
          "id": 11,
          "value": 0.0
        },
        {
          "id": 12,
          "value": 0.0
        },
        {
          "id": 13,
          "value": 0.0
        },
        {
          "id": 14,
          "value": 0.0
        },
        {
          "id": 15,
          "value": 0.0
        },
        {
          "id": 16,
          "value": 0.0
        },
        {
          "id": 17,
          "value": 0.0
        },
        {
          "id": 18,
          "value": 0.0
        },
        {
          "id": 19,
          "value": 0.0
        },
        {
          "id": 20,
          "value": 0.0
        },
        {
          "id": 21,
          "value": 0.0
        },
        {
          "id": 22,
          "value": 0.0
        },
        {
          "id": 23,
          "value": 0.0
        },
        {
          "id": 24,
          "value": 0.0
        },
        {
          "id": 25,
          "value": 0.0
        },
        {
          "id": 26,
          "value": 0.0
        },
        {
          "id": 27,
          "value": 0.0
        },
        {
          "id": 28,
          "value": 0.0
        },
        {
          "id": 29,
          "value": 0.0
        },
        {
          "id": 30,
          "value": 0.0
        },
        {
          "id": 31,
          "value": 0.0
        },
        {
          "id": 32,
          "value": 0.0
        },
        {
          "id": 33,
          "value": 0.0
        },
        {
          "id": 34,
          "value": 0.782999873
        },
        {
          "id": 35,
          "value": 0.377999693
        },
        {
          "id": 36,
          "value": 0.640500009
        },
        {
          "id": 37,
          "value": 0.0
        },
        {
          "id": 38,
          "value": 0.0
        },
        {
          "id": 39,
          "value": 0.0
        },
        {
          "id": 40,
          "value": 0.0
        },
        {
          "id": 41,
          "value": 0.0
        },
        {
          "id": 42,
          "value": 1.0
        }
      ],
      "leftModuleId": 94,
      "rightModuleId": 1,
      "pos": [
        30,
        0
      ]
    },
    {
      "id": 379,
      "plugin": "ImpromptuModular",
      "version": "1.1.11",
      "model": "Clocked-Clkd",
      "params": [
        {
          "id": 0,
          "value": -2.0
        },
        {
          "id": 1,
          "value": -3.0
        },
        {
          "id": 2,
          "value": 0.0
        },
        {
          "id": 3,
          "value": 30.0
        },
        {
          "id": 4,
          "value": 0.0
        },
        {
          "id": 5,
          "value": 0.0
        },
        {
          "id": 6,
          "value": 0.0
        },
        {
          "id": 7,
          "value": 0.0
        },
        {
          "id": 8,
          "value": 0.0
        },
        {
          "id": 9,
          "value": 0.0
        }
      ],
      "leftModuleId": 365,
      "rightModuleId": 464,
      "data": {
        "panelTheme": 1,
        "running": true,
        "bpmDetectionMode": false,
        "resetOnStartStop": 0,
        "ppqn": 4,
        "resetClockOutputsHigh": true,
        "momentaryRunInput": true,
        "displayIndex": 2,
        "trigOuts": [
          false,
          false,
          false,
          false
        ],
        "clockMaster": -1
      },
      "pos": [
        4,
        1
      ]
    },
    {
      "id": 464,
      "plugin": "AudibleInstruments",
      "version": "1.5.0",
      "model": "Branches",
      "params": [
        {
          "id": 0,
          "value": 0.5
        },
        {
          "id": 1,
          "value": 0.5
        },
        {
          "id": 2,
          "value": 0.0
        },
        {
          "id": 3,
          "value": 0.0
        }
      ],
      "leftModuleId": 379,
      "rightModuleId": 465,
      "data": {
        "modes": [
          true,
          true
        ]
      },
      "pos": [
        14,
        1
      ]
    },
    {
      "id": 465,
      "plugin": "repelzen",
      "version": "1.1.0",
      "model": "reburst",
      "params": [
        {
          "id": 0,
          "value": 0.0
        },
        {
          "id": 1,
          "value": 0.236050159
        },
        {
          "id": 2,
          "value": 4.0
        },
        {
          "id": 3,
          "value": 1.0
        },
        {
          "id": 4,
          "value": 0.0
        },
        {
          "id": 5,
          "value": 0.0
        },
        {
          "id": 6,
          "value": 1.0
        },
        {
          "id": 7,
          "value": 0.365999907
        },
        {
          "id": 8,
          "value": 0.447000057
        }
      ],
      "leftModuleId": 464,
      "rightModuleId": 466,
      "pos": [
        20,
        1
      ]
    },
    {
      "id": 466,
      "plugin": "Geodesics",
      "version": "1.2.0",
      "model": "Ions",
      "params": [
        {
          "id": 0,
          "value": 0.0
        },
        {
          "id": 1,
          "value": 0.0
        },
        {
          "id": 2,
          "value": 0.0110970736
        },
        {
          "id": 3,
          "value": 0.440482795
        },
        {
          "id": 4,
          "value": 0.602047205
        },
        {
          "id": 5,
          "value": 0.10079354
        },
        {
          "id": 6,
          "value": 0.465647638
        },
        {
          "id": 7,
          "value": 0.791990995
        },
        {
          "id": 8,
          "value": 0.87962842
        },
        {
          "id": 9,
          "value": 0.858965099
        },
        {
          "id": 10,
          "value": 0.507837832
        },
        {
          "id": 11,
          "value": 0.920464098
        },
        {
          "id": 12,
          "value": 0.687794447
        },
        {
          "id": 13,
          "value": 0.641371727
        },
        {
          "id": 14,
          "value": 0.0263520479
        },
        {
          "id": 15,
          "value": 0.578073382
        },
        {
          "id": 16,
          "value": 0.954253852
        },
        {
          "id": 17,
          "value": 0.392723262
        },
        {
          "id": 18,
          "value": 0.0
        },
        {
          "id": 19,
          "value": 0.0
        },
        {
          "id": 20,
          "value": 0.0
        },
        {
          "id": 21,
          "value": 0.0
        },
        {
          "id": 22,
          "value": 0.0
        },
        {
          "id": 23,
          "value": 0.0
        },
        {
          "id": 24,
          "value": 0.0
        },
        {
          "id": 25,
          "value": 0.0
        },
        {
          "id": 26,
          "value": 0.0
        },
        {
          "id": 27,
          "value": 0.0
        }
      ],
      "leftModuleId": 465,
      "rightModuleId": 467,
      "data": {
        "panelTheme": 1,
        "running": true,
        "resetOnRun": false,
        "quantize": 3,
        "uncertainty": false,
        "stepIndexes0": 12,
        "stepIndexes1": 5,
        "states0": 2,
        "states1": 0,
        "ranges0": 2,
        "ranges1": 0,
        "leap": false
      },
      "pos": [
        28,
        1
      ]
    },
    {
      "id": 467,
      "plugin": "NYSTHI",
      "version": "1.0.17",
      "model": "Logic",
      "params": [],
      "leftModuleId": 466,
      "rightModuleId": 468,
      "data": {
        "m_use_10volts": false
      },
      "pos": [
        47,
        1
      ]
    },
    {
      "id": 468,
      "plugin": "repelzen",
      "version": "1.1.0",
      "model": "rewin",
      "params": [
        {
          "id": 0,
          "value": 0.0
        },
        {
          "id": 1,
          "value": -2.0
        },
        {
          "id": 2,
          "value": 0.0
        },
        {
          "id": 3,
          "value": 0.0
        },
        {
          "id": 4,
          "value": 0.0
        },
        {
          "id": 5,
          "value": 0.0
        },
        {
          "id": 6,
          "value": 0.0
        },
        {
          "id": 7,
          "value": 0.0
        },
        {
          "id": 8,
          "value": 0.0
        },
        {
          "id": 9,
          "value": 0.0
        },
        {
          "id": 10,
          "value": 0.0
        },
        {
          "id": 11,
          "value": 0.0
        },
        {
          "id": 12,
          "value": 0.0
        },
        {
          "id": 13,
          "value": 0.0
        },
        {
          "id": 14,
          "value": 0.0
        },
        {
          "id": 15,
          "value": 0.0
        },
        {
          "id": 16,
          "value": 0.0
        }
      ],
      "leftModuleId": 467,
      "rightModuleId": 469,
      "data": {
        "notes": [
          false,
          false,
          true,
          false,
          true,
          false,
          false,
          true,
          false,
          true,
          false,
          false,
          false,
          false,
          false,
          false,
          false,
          false,
          false,
          false,
          false,
          false,
          false,
          false,
          false,
          false,
          false,
          false,
          false,
          false,
          false,
          false,
          false,
          false,
          false,
          false,
          false,
          false,
          false,
          false,
          false,
          false,
          false,
          false,
          false,
          false,
          false,
          false,
          false,
          false,
          false,
          false,
          false,
          false,
          false,
          false,
          false,
          false,
          false,
          false,
          false,
          false,
          false,
          false,
          false,
          false,
          false,
          false,
          false,
          false,
          false,
          false,
          false,
          false,
          false,
          false,
          false,
          false,
          false,
          false,
          false,
          false,
          false,
          false,
          false,
          false,
          false,
          false,
          false,
          false,
          false,
          false,
          false,
          false,
          false,
          false,
          false,
          false,
          false,
          false,
          false,
          false,
          false,
          false,
          false,
          false,
          false,
          false,
          false,
          false,
          false,
          false,
          false,
          false,
          false,
          false,
          false,
          false,
          false,
          false,
          false,
          false,
          false,
          false,
          false,
          false,
          false,
          false,
          false,
          false,
          false,
          false,
          false,
          false,
          false,
          false,
          false,
          false,
          false,
          false,
          false,
          false,
          false,
          false,
          false,
          false,
          false,
          false,
          false,
          false,
          false,
          false,
          false,
          false,
          false,
          false,
          false,
          false,
          false,
          false,
          false,
          false,
          false,
          false,
          false,
          false,
          false,
          false,
          false,
          false,
          false,
          false,
          false,
          false,
          false,
          false,
          false,
          false,
          false,
          false,
          false,
          false,
          false,
          false,
          false,
          false,
          false,
          false,
          false,
          false,
          false,
          false
        ],
        "mode": 0
      },
      "pos": [
        52,
        1
      ]
    },
    {
      "id": 469,
      "plugin": "Geodesics",
      "version": "1.2.0",
      "model": "Energy",
      "params": [
        {
          "id": 0,
          "value": 0.0
        },
        {
          "id": 1,
          "value": 0.0
        },
        {
          "id": 2,
          "value": 0.0
        },
        {
          "id": 3,
          "value": 0.0
        },
        {
          "id": 4,
          "value": 0.0
        },
        {
          "id": 5,
          "value": 0.0
        },
        {
          "id": 6,
          "value": 0.0
        },
        {
          "id": 7,
          "value": 0.166499987
        },
        {
          "id": 8,
          "value": 0.0
        },
        {
          "id": 9,
          "value": 0.0
        }
      ],
      "leftModuleId": 468,
      "rightModuleId": 470,
      "data": {
        "panelTheme": 1,
        "oscM_phase": 2849608128,
        "oscC_phase": 1667200800,
        "osc1M_phase": 0,
        "osc1C_phase": 0,
        "osc2M_phase": 0,
        "osc2C_phase": 0,
        "osc3M_phase": 0,
        "osc3C_phase": 0,
        "osc4M_phase": 0,
        "osc4C_phase": 0,
        "osc5M_phase": 0,
        "osc5C_phase": 0,
        "osc6M_phase": 0,
        "osc6C_phase": 0,
        "osc7M_phase": 0,
        "osc7C_phase": 0,
        "osc8M_phase": 0,
        "osc8C_phase": 0,
        "osc9M_phase": 0,
        "osc9C_phase": 0,
        "osc10M_phase": 0,
        "osc10C_phase": 0,
        "osc11M_phase": 0,
        "osc11C_phase": 0,
        "osc12M_phase": 0,
        "osc12C_phase": 0,
        "osc13M_phase": 0,
        "osc13C_phase": 0,
        "osc14M_phase": 0,
        "osc14C_phase": 0,
        "osc15M_phase": 0,
        "osc15C_phase": 0,
        "routing": 1,
        "planck0": 0,
        "planck1": 2,
        "modtype0": 1,
        "modtype1": 1,
        "cross": 0
      },
      "pos": [
        60,
        1
      ]
    },
    {
      "id": 470,
      "plugin": "Geodesics",
      "version": "1.2.0",
      "model": "Energy",
      "params": [
        {
          "id": 0,
          "value": 0.0
        },
        {
          "id": 1,
          "value": 0.0
        },
        {
          "id": 2,
          "value": 0.0
        },
        {
          "id": 3,
          "value": 0.0
        },
        {
          "id": 4,
          "value": 0.0
        },
        {
          "id": 5,
          "value": 0.0
        },
        {
          "id": 6,
          "value": 0.0
        },
        {
          "id": 7,
          "value": 0.280500025
        },
        {
          "id": 8,
          "value": 0.0
        },
        {
          "id": 9,
          "value": 0.0
        }
      ],
      "leftModuleId": 469,
      "rightModuleId": 471,
      "data": {
        "panelTheme": 1,
        "oscM_phase": 4199591552,
        "oscC_phase": 350410656,
        "osc1M_phase": 0,
        "osc1C_phase": 0,
        "osc2M_phase": 0,
        "osc2C_phase": 0,
        "osc3M_phase": 0,
        "osc3C_phase": 0,
        "osc4M_phase": 0,
        "osc4C_phase": 0,
        "osc5M_phase": 0,
        "osc5C_phase": 0,
        "osc6M_phase": 0,
        "osc6C_phase": 0,
        "osc7M_phase": 0,
        "osc7C_phase": 0,
        "osc8M_phase": 0,
        "osc8C_phase": 0,
        "osc9M_phase": 0,
        "osc9C_phase": 0,
        "osc10M_phase": 0,
        "osc10C_phase": 0,
        "osc11M_phase": 0,
        "osc11C_phase": 0,
        "osc12M_phase": 0,
        "osc12C_phase": 0,
        "osc13M_phase": 0,
        "osc13C_phase": 0,
        "osc14M_phase": 0,
        "osc14C_phase": 0,
        "osc15M_phase": 0,
        "osc15C_phase": 0,
        "routing": 1,
        "planck0": 0,
        "planck1": 2,
        "modtype0": 1,
        "modtype1": 2,
        "cross": 0
      },
      "pos": [
        67,
        1
      ]
    },
    {
      "id": 471,
      "plugin": "Bogaudio",
      "version": "1.1.37",
      "model": "Bogaudio-AD",
      "params": [
        {
          "id": 0,
          "value": 0.301500022
        },
        {
          "id": 1,
          "value": 0.260729998
        },
        {
          "id": 2,
          "value": 0.0
        },
        {
          "id": 3,
          "value": 0.0
        },
        {
          "id": 4,
          "value": 1.0
        }
      ],
      "leftModuleId": 470,
      "rightModuleId": 472,
      "data": {
        "invert": 1.0
      },
      "pos": [
        74,
        1
      ]
    },
    {
      "id": 472,
      "plugin": "Bogaudio",
      "version": "1.1.37",
      "model": "Bogaudio-AD",
      "params": [
        {
          "id": 0,
          "value": 0.284999967
        },
        {
          "id": 1,
          "value": 0.515730083
        },
        {
          "id": 2,
          "value": 0.0
        },
        {
          "id": 3,
          "value": 0.0
        },
        {
          "id": 4,
          "value": 1.0
        }
      ],
      "leftModuleId": 471,
      "rightModuleId": 473,
      "data": {
        "invert": 1.0
      },
      "pos": [
        77,
        1
      ]
    },
    {
      "id": 473,
      "plugin": "Geodesics",
      "version": "1.2.0",
      "model": "Ions",
      "params": [
        {
          "id": 0,
          "value": 0.0
        },
        {
          "id": 1,
          "value": 0.0
        },
        {
          "id": 2,
          "value": 0.935654879
        },
        {
          "id": 3,
          "value": 0.47554934
        },
        {
          "id": 4,
          "value": 0.942463219
        },
        {
          "id": 5,
          "value": 0.73629576
        },
        {
          "id": 6,
          "value": 0.527921379
        },
        {
          "id": 7,
          "value": 0.851730824
        },
        {
          "id": 8,
          "value": 0.725275576
        },
        {
          "id": 9,
          "value": 0.702195406
        },
        {
          "id": 10,
          "value": 0.456719816
        },
        {
          "id": 11,
          "value": 0.158355772
        },
        {
          "id": 12,
          "value": 0.614468038
        },
        {
          "id": 13,
          "value": 0.0691738129
        },
        {
          "id": 14,
          "value": 0.596924186
        },
        {
          "id": 15,
          "value": 0.981734633
        },
        {
          "id": 16,
          "value": 0.0399239063
        },
        {
          "id": 17,
          "value": 0.94058919
        },
        {
          "id": 18,
          "value": 0.0
        },
        {
          "id": 19,
          "value": 0.0
        },
        {
          "id": 20,
          "value": 0.0
        },
        {
          "id": 21,
          "value": 0.0
        },
        {
          "id": 22,
          "value": 0.0
        },
        {
          "id": 23,
          "value": 0.0
        },
        {
          "id": 24,
          "value": 0.0
        },
        {
          "id": 25,
          "value": 0.0
        },
        {
          "id": 26,
          "value": 0.0
        },
        {
          "id": 27,
          "value": 0.0
        }
      ],
      "leftModuleId": 472,
      "rightModuleId": 476,
      "data": {
        "panelTheme": 1,
        "running": true,
        "resetOnRun": false,
        "quantize": 0,
        "uncertainty": false,
        "stepIndexes0": 7,
        "stepIndexes1": 15,
        "states0": 2,
        "states1": 2,
        "ranges0": 1,
        "ranges1": 1,
        "leap": false
      },
      "pos": [
        80,
        1
      ]
    },
    {
      "id": 474,
      "plugin": "AlrightDevices",
      "version": "1.0.3",
      "model": "Chronoblob2",
      "params": [
        {
          "id": 0,
          "value": 0.535999954
        },
        {
          "id": 1,
          "value": 0.270500004
        },
        {
          "id": 2,
          "value": 1.0
        },
        {
          "id": 3,
          "value": 0.0
        },
        {
          "id": 4,
          "value": 0.351000041
        },
        {
          "id": 5,
          "value": -0.591000199
        },
        {
          "id": 6,
          "value": 0.0
        },
        {
          "id": 7,
          "value": 0.0
        },
        {
          "id": 8,
          "value": 1.0
        },
        {
          "id": 9,
          "value": 0.0
        }
      ],
      "leftModuleId": 1,
      "rightModuleId": 481,
      "data": {
        "delay_mode": 0,
        "hold_behavior": 0,
        "sync_prescaler": 6
      },
      "pos": [
        66,
        0
      ]
    },
    {
      "id": 475,
      "plugin": "Instruo",
      "version": "1.1.0",
      "model": "ochd",
      "params": [
        {
          "id": 0,
          "value": 0.319999933
        },
        {
          "id": 1,
          "value": 0.0
        }
      ],
      "leftModuleId": 481,
      "rightModuleId": 479,
      "data": {
        "deviations": {
          "lfos": [
            {
              "amplitude": 5.5,
              "frequency": {
                "maximum": 154.699997,
                "minimum": 0.147,
                "absMinimum": 0.000294000027,
                "absMaximum": 160.887985
              }
            },
            {
              "amplitude": 5.5,
              "frequency": {
                "maximum": 84.7399979,
                "minimum": 0.0816000029,
                "absMinimum": 0.00016320002,
                "absMaximum": 88.1295929
              }
            },
            {
              "amplitude": 5.5,
              "frequency": {
                "maximum": 42.2599983,
                "minimum": 0.0417000018,
                "absMinimum": 8.34000093e-5,
                "absMaximum": 43.9503975
              }
            },
            {
              "amplitude": 5.5,
              "frequency": {
                "maximum": 22.0100002,
                "minimum": 0.0221999995,
                "absMinimum": 4.43999998e-5,
                "absMaximum": 22.8903999
              }
            },
            {
              "amplitude": 5.5,
              "frequency": {
                "maximum": 10.3699999,
                "minimum": 0.0102000004,
                "absMinimum": 2.04000025e-5,
                "absMaximum": 10.7847996
              }
            },
            {
              "amplitude": 5.5,
              "frequency": {
                "maximum": 4.69999981,
                "minimum": 0.00505999988,
                "absMinimum": 1.01200003e-5,
                "absMaximum": 4.88799953
              }
            },
            {
              "amplitude": 5.5,
              "frequency": {
                "maximum": 2.11999989,
                "minimum": 0.00212999992,
                "absMinimum": 4.25999997e-6,
                "absMaximum": 2.20479989
              }
            },
            {
              "amplitude": 5.5,
              "frequency": {
                "maximum": 1.00999999,
                "minimum": 0.00100000005,
                "absMinimum": 2.00000022e-6,
                "absMaximum": 1.0503999
              }
            }
          ]
        }
      },
      "pos": [
        90,
        0
      ]
    },
    {
      "id": 476,
      "plugin": "Geodesics",
      "version": "1.2.0",
      "model": "Energy",
      "params": [
        {
          "id": 0,
          "value": 0.0
        },
        {
          "id": 1,
          "value": 0.0
        },
        {
          "id": 2,
          "value": 0.0
        },
        {
          "id": 3,
          "value": 0.0
        },
        {
          "id": 4,
          "value": 0.0
        },
        {
          "id": 5,
          "value": 0.0
        },
        {
          "id": 6,
          "value": 1.32300019
        },
        {
          "id": 7,
          "value": 0.496499866
        },
        {
          "id": 8,
          "value": 0.0
        },
        {
          "id": 9,
          "value": 0.0
        }
      ],
      "leftModuleId": 473,
      "rightModuleId": 477,
      "data": {
        "panelTheme": 1,
        "oscM_phase": 2383322320,
        "oscC_phase": 519172368,
        "osc1M_phase": 0,
        "osc1C_phase": 0,
        "osc2M_phase": 0,
        "osc2C_phase": 0,
        "osc3M_phase": 0,
        "osc3C_phase": 0,
        "osc4M_phase": 0,
        "osc4C_phase": 0,
        "osc5M_phase": 0,
        "osc5C_phase": 0,
        "osc6M_phase": 0,
        "osc6C_phase": 0,
        "osc7M_phase": 0,
        "osc7C_phase": 0,
        "osc8M_phase": 0,
        "osc8C_phase": 0,
        "osc9M_phase": 0,
        "osc9C_phase": 0,
        "osc10M_phase": 0,
        "osc10C_phase": 0,
        "osc11M_phase": 0,
        "osc11C_phase": 0,
        "osc12M_phase": 0,
        "osc12C_phase": 0,
        "osc13M_phase": 0,
        "osc13C_phase": 0,
        "osc14M_phase": 0,
        "osc14C_phase": 0,
        "osc15M_phase": 0,
        "osc15C_phase": 0,
        "routing": 2,
        "planck0": 2,
        "planck1": 2,
        "modtype0": 0,
        "modtype1": 2,
        "cross": 1
      },
      "pos": [
        99,
        1
      ]
    },
    {
      "id": 477,
      "plugin": "Bogaudio",
      "version": "1.1.37",
      "model": "Bogaudio-AD",
      "params": [
        {
          "id": 0,
          "value": 0.562499762
        },
        {
          "id": 1,
          "value": 0.394500047
        },
        {
          "id": 2,
          "value": 0.0
        },
        {
          "id": 3,
          "value": 0.0
        },
        {
          "id": 4,
          "value": 1.0
        }
      ],
      "leftModuleId": 476,
      "rightModuleId": 482,
      "data": {
        "invert": 1.0
      },
      "pos": [
        106,
        1
      ]
    },
    {
      "id": 479,
      "plugin": "Geodesics",
      "version": "1.2.0",
      "model": "Entropia",
      "params": [
        {
          "id": 0,
          "value": 0.0
        },
        {
          "id": 1,
          "value": 0.0
        },
        {
          "id": 2,
          "value": 0.0
        },
        {
          "id": 3,
          "value": 0.0
        },
        {
          "id": 4,
          "value": 0.0
        },
        {
          "id": 5,
          "value": 0.922808766
        },
        {
          "id": 6,
          "value": 0.282218695
        },
        {
          "id": 7,
          "value": 0.986515224
        },
        {
          "id": 8,
          "value": 0.205776215
        },
        {
          "id": 9,
          "value": 0.319724143
        },
        {
          "id": 10,
          "value": 0.159383237
        },
        {
          "id": 11,
          "value": 0.616631985
        },
        {
          "id": 12,
          "value": 0.7267735
        },
        {
          "id": 13,
          "value": 0.10162425
        },
        {
          "id": 14,
          "value": 0.591864169
        },
        {
          "id": 15,
          "value": 0.372941017
        },
        {
          "id": 16,
          "value": 0.26744312
        },
        {
          "id": 17,
          "value": 0.297909439
        },
        {
          "id": 18,
          "value": 0.118660569
        },
        {
          "id": 19,
          "value": 0.898676157
        },
        {
          "id": 20,
          "value": 0.921323597
        },
        {
          "id": 21,
          "value": 0.667423069
        },
        {
          "id": 22,
          "value": 0.767611206
        },
        {
          "id": 23,
          "value": 0.25619936
        },
        {
          "id": 24,
          "value": 0.40656364
        },
        {
          "id": 25,
          "value": 0.994593441
        },
        {
          "id": 26,
          "value": 0.550712883
        },
        {
          "id": 27,
          "value": 0.865420818
        },
        {
          "id": 28,
          "value": 0.0039883852
        },
        {
          "id": 29,
          "value": 0.0
        },
        {
          "id": 30,
          "value": 0.0
        },
        {
          "id": 31,
          "value": 0.0
        },
        {
          "id": 32,
          "value": 0.0
        },
        {
          "id": 33,
          "value": 0.0
        },
        {
          "id": 34,
          "value": 0.0
        },
        {
          "id": 35,
          "value": 0.0
        },
        {
          "id": 36,
          "value": 0.0
        },
        {
          "id": 37,
          "value": 0.0
        },
        {
          "id": 38,
          "value": 0.0
        },
        {
          "id": 39,
          "value": 0.0
        },
        {
          "id": 40,
          "value": 0.0
        },
        {
          "id": 41,
          "value": -0.392190903
        },
        {
          "id": 42,
          "value": 0.0
        },
        {
          "id": 43,
          "value": 0.0
        },
        {
          "id": 44,
          "value": 0.0
        }
      ],
      "leftModuleId": 475,
      "rightModuleId": 360,
      "data": {
        "panelTheme": 1,
        "running": true,
        "resetOnRun": false,
        "length": 7,
        "quantize": 3,
        "audio": 0,
        "ranges0": 1,
        "ranges1": 1,
        "addMode": false,
        "sources0": 0,
        "sources1": 0,
        "stepIndex": 1,
        "pipeBlue": true,
        "randomCVs0": 0.00300842524,
        "randomCVs1": 0.648751259,
        "clkSource": 0
      },
      "pos": [
        94,
        0
      ]
    },
    {
      "id": 481,
      "plugin": "Valley",
      "version": "1.1.7",
      "model": "Plateau",
      "params": [
        {
          "id": 0,
          "value": 1.0
        },
        {
          "id": 1,
          "value": 0.5
        },
        {
          "id": 2,
          "value": 0.0
        },
        {
          "id": 3,
          "value": 10.0
        },
        {
          "id": 4,
          "value": 10.0
        },
        {
          "id": 5,
          "value": 0.5
        },
        {
          "id": 6,
          "value": 10.0
        },
        {
          "id": 7,
          "value": 0.549950004
        },
        {
          "id": 8,
          "value": 10.0
        },
        {
          "id": 9,
          "value": 10.0
        },
        {
          "id": 10,
          "value": 0.0
        },
        {
          "id": 11,
          "value": 0.5
        },
        {
          "id": 12,
          "value": 0.5
        },
        {
          "id": 13,
          "value": 0.0
        },
        {
          "id": 14,
          "value": 0.0
        },
        {
          "id": 15,
          "value": 0.0
        },
        {
          "id": 16,
          "value": 0.0
        },
        {
          "id": 17,
          "value": 0.0
        },
        {
          "id": 18,
          "value": 0.0
        },
        {
          "id": 19,
          "value": 0.0
        },
        {
          "id": 20,
          "value": 0.0
        },
        {
          "id": 21,
          "value": 0.0
        },
        {
          "id": 22,
          "value": 0.0
        },
        {
          "id": 23,
          "value": 0.0
        },
        {
          "id": 24,
          "value": 0.0
        },
        {
          "id": 25,
          "value": 0.0
        },
        {
          "id": 26,
          "value": 0.0
        },
        {
          "id": 27,
          "value": 0.0
        },
        {
          "id": 28,
          "value": 0.0
        },
        {
          "id": 29,
          "value": 0.0
        },
        {
          "id": 30,
          "value": 1.0
        }
      ],
      "leftModuleId": 474,
      "rightModuleId": 475,
      "data": {
        "frozen": false,
        "freezeToggle": false,
        "panelStyle": 0,
        "tuned": 0,
        "diffuseInput": 1,
        "preDelayCVSens": 0,
        "inputSensitivity": 0,
        "outputSaturation": 0
      },
      "pos": [
        78,
        0
      ]
    },
    {
      "id": 482,
      "plugin": "Geodesics",
      "version": "1.2.0",
      "model": "Blank-PanelLogo",
      "params": [
        {
          "id": 0,
          "value": 1.0
        }
      ],
      "leftModuleId": 477,
      "rightModuleId": 483,
      "data": {
        "panelTheme": 1
      },
      "pos": [
        109,
        1
      ]
    },
    {
      "id": 483,
      "plugin": "Stoermelder-P1",
      "version": "1.10.0",
      "model": "Me",
      "params": [],
      "leftModuleId": 482,
      "rightModuleId": 362,
      "pos": [
        113,
        1
      ]
    }
  ],
  "cables": [
    {
      "id": 940,
      "outputModuleId": 379,
      "outputId": 1,
      "inputModuleId": 464,
      "inputId": 0,
      "color": "#364449"
    },
    {
      "id": 941,
      "outputModuleId": 464,
      "outputId": 0,
      "inputModuleId": 467,
      "inputId": 10,
      "color": "#364449"
    },
    {
      "id": 942,
      "outputModuleId": 464,
      "outputId": 1,
      "inputModuleId": 467,
      "inputId": 11,
      "color": "#364449"
    },
    {
      "id": 943,
      "outputModuleId": 467,
      "outputId": 6,
      "inputModuleId": 466,
      "inputId": 0,
      "color": "#364449"
    },
    {
      "id": 944,
      "outputModuleId": 466,
      "outputId": 0,
      "inputModuleId": 468,
      "inputId": 2,
      "color": "#c9b70e"
    },
    {
      "id": 945,
      "outputModuleId": 466,
      "outputId": 1,
      "inputModuleId": 468,
      "inputId": 3,
      "color": "#c9b70e"
    },
    {
      "id": 946,
      "outputModuleId": 468,
      "outputId": 0,
      "inputModuleId": 469,
      "inputId": 2,
      "color": "#c9b70e"
    },
    {
      "id": 947,
      "outputModuleId": 468,
      "outputId": 1,
      "inputModuleId": 470,
      "inputId": 2,
      "color": "#c9b70e"
    },
    {
      "id": 948,
      "outputModuleId": 469,
      "outputId": 0,
      "inputModuleId": 375,
      "inputId": 0,
      "color": "#c91847"
    },
    {
      "id": 949,
      "outputModuleId": 470,
      "outputId": 0,
      "inputModuleId": 375,
      "inputId": 1,
      "color": "#c91847"
    },
    {
      "id": 950,
      "outputModuleId": 464,
      "outputId": 2,
      "inputModuleId": 465,
      "inputId": 0,
      "color": "#364449"
    },
    {
      "id": 951,
      "outputModuleId": 465,
      "outputId": 0,
      "inputModuleId": 471,
      "inputId": 0,
      "color": "#364449"
    },
    {
      "id": 952,
      "outputModuleId": 471,
      "outputId": 0,
      "inputModuleId": 469,
      "inputId": 3,
      "color": "#0c8e15"
    },
    {
      "id": 953,
      "outputModuleId": 472,
      "outputId": 0,
      "inputModuleId": 470,
      "inputId": 3,
      "color": "#0c8e15"
    },
    {
      "id": 954,
      "outputModuleId": 464,
      "outputId": 3,
      "inputModuleId": 472,
      "inputId": 0,
      "color": "#364449"
    },
    {
      "id": 955,
      "outputModuleId": 465,
      "outputId": 0,
      "inputModuleId": 466,
      "inputId": 1,
      "color": "#c9b70e"
    },
    {
      "id": 957,
      "outputModuleId": 471,
      "outputId": 1,
      "inputModuleId": 467,
      "inputId": 7,
      "color": "#364449"
    },
    {
      "id": 956,
      "outputModuleId": 472,
      "outputId": 1,
      "inputModuleId": 467,
      "inputId": 6,
      "color": "#364449"
    },
    {
      "id": 958,
      "outputModuleId": 467,
      "outputId": 4,
      "inputModuleId": 465,
      "inputId": 1,
      "color": "#364449"
    },
    {
      "id": 959,
      "outputModuleId": 465,
      "outputId": 0,
      "inputModuleId": 473,
      "inputId": 0,
      "color": "#364449"
    },
    {
      "id": 961,
      "outputModuleId": 473,
      "outputId": 1,
      "inputModuleId": 469,
      "inputId": 5,
      "color": "#0c8e15"
    },
    {
      "id": 960,
      "outputModuleId": 473,
      "outputId": 0,
      "inputModuleId": 470,
      "inputId": 5,
      "color": "#0c8e15"
    },
    {
      "id": 962,
      "outputModuleId": 464,
      "outputId": 1,
      "inputModuleId": 473,
      "inputId": 2,
      "color": "#364449"
    },
    {
      "id": 963,
      "outputModuleId": 464,
      "outputId": 3,
      "inputModuleId": 473,
      "inputId": 1,
      "color": "#0c8e15"
    },
    {
      "id": 965,
      "outputModuleId": 375,
      "outputId": 10,
      "inputModuleId": 474,
      "inputId": 5,
      "color": "#c91847"
    },
    {
      "id": 966,
      "outputModuleId": 375,
      "outputId": 11,
      "inputModuleId": 474,
      "inputId": 6,
      "color": "#c91847"
    },
    {
      "id": 967,
      "outputModuleId": 474,
      "outputId": 0,
      "inputModuleId": 375,
      "inputId": 34,
      "color": "#c91847"
    },
    {
      "id": 968,
      "outputModuleId": 474,
      "outputId": 1,
      "inputModuleId": 375,
      "inputId": 35,
      "color": "#c91847"
    },
    {
      "id": 969,
      "outputModuleId": 475,
      "outputId": 4,
      "inputModuleId": 469,
      "inputId": 4,
      "color": "#0c8e15"
    },
    {
      "id": 970,
      "outputModuleId": 475,
      "outputId": 5,
      "inputModuleId": 470,
      "inputId": 4,
      "color": "#0c8e15"
    },
    {
      "id": 971,
      "outputModuleId": 475,
      "outputId": 6,
      "inputModuleId": 469,
      "inputId": 1,
      "color": "#0c8e15"
    },
    {
      "id": 972,
      "outputModuleId": 475,
      "outputId": 2,
      "inputModuleId": 470,
      "inputId": 1,
      "color": "#0c8e15"
    },
    {
      "id": 973,
      "outputModuleId": 475,
      "outputId": 5,
      "inputModuleId": 474,
      "inputId": 1,
      "color": "#0c8e15"
    },
    {
      "id": 974,
      "outputModuleId": 475,
      "outputId": 4,
      "inputModuleId": 474,
      "inputId": 3,
      "color": "#0c8e15"
    },
    {
      "id": 975,
      "outputModuleId": 475,
      "outputId": 7,
      "inputModuleId": 465,
      "inputId": 3,
      "color": "#0c8e15"
    },
    {
      "id": 976,
      "outputModuleId": 475,
      "outputId": 3,
      "inputModuleId": 465,
      "inputId": 2,
      "color": "#0c8e15"
    },
    {
      "id": 978,
      "outputModuleId": 464,
      "outputId": 0,
      "inputModuleId": 467,
      "inputId": 1,
      "color": "#364449"
    },
    {
      "id": 979,
      "outputModuleId": 467,
      "outputId": 0,
      "inputModuleId": 477,
      "inputId": 0,
      "color": "#364449"
    },
    {
      "id": 980,
      "outputModuleId": 467,
      "outputId": 0,
      "inputModuleId": 479,
      "inputId": 0,
      "color": "#364449"
    },
    {
      "id": 981,
      "outputModuleId": 477,
      "outputId": 0,
      "inputModuleId": 476,
      "inputId": 3,
      "color": "#0c8e15"
    },
    {
      "id": 982,
      "outputModuleId": 479,
      "outputId": 0,
      "inputModuleId": 468,
      "inputId": 4,
      "color": "#c9b70e"
    },
    {
      "id": 983,
      "outputModuleId": 468,
      "outputId": 2,
      "inputModuleId": 476,
      "inputId": 2,
      "color": "#c9b70e"
    },
    {
      "id": 984,
      "outputModuleId": 476,
      "outputId": 0,
      "inputModuleId": 375,
      "inputId": 2,
      "color": "#c91847"
    },
    {
      "id": 987,
      "outputModuleId": 475,
      "outputId": 4,
      "inputModuleId": 476,
      "inputId": 5,
      "color": "#0c8e15"
    },
    {
      "id": 988,
      "outputModuleId": 379,
      "outputId": 2,
      "inputModuleId": 467,
      "inputId": 0,
      "color": "#364449"
    },
    {
      "id": 989,
      "outputModuleId": 475,
      "outputId": 4,
      "inputModuleId": 375,
      "inputId": 16,
      "color": "#0c8e15"
    },
    {
      "id": 990,
      "outputModuleId": 475,
      "outputId": 6,
      "inputModuleId": 375,
      "inputId": 18,
      "color": "#0c8e15"
    },
    {
      "id": 992,
      "outputModuleId": 475,
      "outputId": 3,
      "inputModuleId": 476,
      "inputId": 4,
      "color": "#0c8e15"
    },
    {
      "id": 994,
      "outputModuleId": 475,
      "outputId": 4,
      "inputModuleId": 476,
      "inputId": 1,
      "color": "#0c8e15"
    },
    {
      "id": 702,
      "outputModuleId": 375,
      "outputId": 0,
      "inputModuleId": 481,
      "inputId": 0,
      "color": "#c91847"
    },
    {
      "id": 703,
      "outputModuleId": 375,
      "outputId": 1,
      "inputModuleId": 481,
      "inputId": 1,
      "color": "#c91847"
    },
    {
      "id": 995,
      "outputModuleId": 481,
      "outputId": 0,
      "inputModuleId": 1,
      "inputId": 0,
      "color": "#c91847"
    },
    {
      "id": 996,
      "outputModuleId": 481,
      "outputId": 1,
      "inputModuleId": 1,
      "inputId": 1,
      "color": "#c91847"
    }
  ]
}