{
  "version": "1.1.6",
  "modules": [
    {
      "id": 1,
      "plugin": "Core",
      "version": "1.1.6",
      "model": "AudioInterface",
      "params": [],
      "leftModuleId": 350,
      "rightModuleId": 91,
      "data": {
        "audio": {
          "driver": 7,
          "deviceName": "Voicemeeter Insert Virtual ASIO",
          "offset": 0,
          "maxChannels": 8,
          "sampleRate": 48000,
          "blockSize": 256
        }
      },
      "pos": [
        58,
        0
      ]
    },
    {
      "id": 5,
      "plugin": "Core",
      "version": "1.1.6",
      "model": "MIDIToCVInterface",
      "params": [],
      "leftModuleId": 83,
      "rightModuleId": 94,
      "data": {
        "channels": 1,
        "polyMode": 0,
        "clockDivision": 24,
        "lastPitch": 8192,
        "lastMod": 0,
        "midi": {
          "driver": 4,
          "channel": -1
        }
      },
      "pos": [
        4,
        0
      ]
    },
    {
      "id": 76,
      "plugin": "Stoermelder-P1",
      "version": "1.8.0",
      "model": "Mb",
      "params": [],
      "leftModuleId": 79,
      "rightModuleId": 350,
      "data": {
        "mode": 1
      },
      "pos": [
        28,
        0
      ]
    },
    {
      "id": 79,
      "plugin": "Stoermelder-P1",
      "version": "1.8.0",
      "model": "Stroke",
      "params": [],
      "leftModuleId": 94,
      "rightModuleId": 76,
      "data": {
        "panelTheme": 1,
        "keys": [
          {
            "button": -1,
            "key": 49,
            "mods": 0,
            "mode": 24,
            "high": false,
            "data": "#c9b70e"
          },
          {
            "button": -1,
            "key": 50,
            "mods": 0,
            "mode": 24,
            "high": false,
            "data": "#0c8e15"
          },
          {
            "button": -1,
            "key": 51,
            "mods": 0,
            "mode": 24,
            "high": false,
            "data": "#c91847"
          },
          {
            "button": -1,
            "key": 52,
            "mods": 0,
            "mode": 24,
            "high": false,
            "data": "#364449"
          },
          {
            "button": -1,
            "key": -1,
            "mods": 0,
            "mode": 1,
            "high": false,
            "data": ""
          },
          {
            "button": -1,
            "key": -1,
            "mods": 0,
            "mode": 1,
            "high": false,
            "data": ""
          },
          {
            "button": -1,
            "key": -1,
            "mods": 0,
            "mode": 1,
            "high": false,
            "data": ""
          },
          {
            "button": -1,
            "key": -1,
            "mods": 0,
            "mode": 1,
            "high": false,
            "data": ""
          },
          {
            "button": -1,
            "key": -1,
            "mods": 0,
            "mode": 1,
            "high": false,
            "data": ""
          },
          {
            "button": -1,
            "key": -1,
            "mods": 0,
            "mode": 1,
            "high": false,
            "data": ""
          }
        ]
      },
      "pos": [
        22,
        0
      ]
    },
    {
      "id": 83,
      "plugin": "unless_modules",
      "version": "1.1.1",
      "model": "room",
      "params": [],
      "leftModuleId": 305,
      "rightModuleId": 5,
      "data": {
        "inclusive": false,
        "strip_mode": false
      },
      "pos": [
        1,
        0
      ]
    },
    {
      "id": 91,
      "plugin": "AlrightDevices",
      "version": "1.0.3",
      "model": "Chronoblob2",
      "params": [
        {
          "id": 0,
          "value": 0.399499953
        },
        {
          "id": 1,
          "value": 0.495499998
        },
        {
          "id": 2,
          "value": 1.0
        },
        {
          "id": 3,
          "value": 0.0
        },
        {
          "id": 4,
          "value": 0.0
        },
        {
          "id": 5,
          "value": 0.0
        },
        {
          "id": 6,
          "value": 0.0
        },
        {
          "id": 7,
          "value": 0.0
        },
        {
          "id": 8,
          "value": 0.0
        },
        {
          "id": 9,
          "value": 0.0
        }
      ],
      "leftModuleId": 1,
      "rightModuleId": 359,
      "data": {
        "delay_mode": 0,
        "hold_behavior": 0,
        "sync_prescaler": 6
      },
      "pos": [
        68,
        0
      ]
    },
    {
      "id": 94,
      "plugin": "Core",
      "version": "1.1.6",
      "model": "MIDI-Map",
      "params": [],
      "leftModuleId": 5,
      "rightModuleId": 79,
      "data": {
        "maps": [
          {
            "cc": -1,
            "moduleId": -1,
            "paramId": 0
          }
        ],
        "midi": {
          "driver": 4,
          "channel": -1
        }
      },
      "pos": [
        12,
        0
      ]
    },
    {
      "id": 30,
      "plugin": "ImpromptuModular",
      "version": "1.1.10",
      "model": "Clocked",
      "params": [
        {
          "id": 0,
          "value": 144.0
        },
        {
          "id": 1,
          "value": 2.0
        },
        {
          "id": 2,
          "value": 0.0
        },
        {
          "id": 3,
          "value": 5.0
        },
        {
          "id": 4,
          "value": 0.0
        },
        {
          "id": 5,
          "value": 0.0
        },
        {
          "id": 6,
          "value": 0.0
        },
        {
          "id": 7,
          "value": 0.0
        },
        {
          "id": 8,
          "value": 0.5
        },
        {
          "id": 9,
          "value": 0.0614999868
        },
        {
          "id": 10,
          "value": 0.747500062
        },
        {
          "id": 11,
          "value": 0.5
        },
        {
          "id": 12,
          "value": 0.0
        },
        {
          "id": 13,
          "value": 0.0
        },
        {
          "id": 14,
          "value": 0.0
        },
        {
          "id": 15,
          "value": 0.0
        },
        {
          "id": 16,
          "value": 0.0
        },
        {
          "id": 17,
          "value": 0.0
        },
        {
          "id": 18,
          "value": 0.0
        },
        {
          "id": 19,
          "value": 0.0
        }
      ],
      "leftModuleId": 304,
      "rightModuleId": 510,
      "data": {
        "panelTheme": 1,
        "running": true,
        "displayDelayNoteMode": true,
        "bpmDetectionMode": false,
        "resetOnStartStop": 0,
        "ppqn": 4,
        "resetClockOutputsHigh": true,
        "momentaryRunInput": true,
        "clockMaster": false
      },
      "pos": [
        1,
        1
      ]
    },
    {
      "id": 298,
      "plugin": "CountModula",
      "version": "1.14.0",
      "model": "LightStrip",
      "params": [],
      "data": {
        "moduleVersion": 1,
        "color": [
          0.294,
          0.635999858,
          0.0
        ],
        "narrowMode": false,
        "theme": 0
      },
      "pos": [
        113,
        2
      ]
    },
    {
      "id": 299,
      "plugin": "CountModula",
      "version": "1.14.0",
      "model": "LightStrip",
      "params": [],
      "leftModuleId": 482,
      "data": {
        "moduleVersion": 1,
        "color": [
          0.294,
          0.635999858,
          0.0
        ],
        "narrowMode": false,
        "theme": 0
      },
      "pos": [
        113,
        1
      ]
    },
    {
      "id": 300,
      "plugin": "CountModula",
      "version": "1.14.0",
      "model": "LightStrip",
      "params": [],
      "data": {
        "moduleVersion": 1,
        "color": [
          0.294,
          0.635999858,
          0.0
        ],
        "narrowMode": false,
        "theme": 0
      },
      "pos": [
        113,
        0
      ]
    },
    {
      "id": 301,
      "plugin": "CountModula",
      "version": "1.14.0",
      "model": "LightStrip",
      "params": [],
      "data": {
        "moduleVersion": 1,
        "color": [
          0.294,
          0.635999858,
          0.0
        ],
        "narrowMode": false,
        "theme": 0
      },
      "pos": [
        113,
        3
      ]
    },
    {
      "id": 302,
      "plugin": "CountModula",
      "version": "1.14.0",
      "model": "LightStrip",
      "params": [],
      "data": {
        "moduleVersion": 1,
        "color": [
          0.294,
          0.635999858,
          0.0
        ],
        "narrowMode": false,
        "theme": 0
      },
      "pos": [
        0,
        3
      ]
    },
    {
      "id": 303,
      "plugin": "CountModula",
      "version": "1.14.0",
      "model": "LightStrip",
      "params": [],
      "data": {
        "moduleVersion": 1,
        "color": [
          0.294,
          0.635999858,
          0.0
        ],
        "narrowMode": false,
        "theme": 0
      },
      "pos": [
        0,
        2
      ]
    },
    {
      "id": 304,
      "plugin": "CountModula",
      "version": "1.14.0",
      "model": "LightStrip",
      "params": [],
      "rightModuleId": 30,
      "data": {
        "moduleVersion": 1,
        "color": [
          0.294,
          0.635999858,
          0.0
        ],
        "narrowMode": false,
        "theme": 0
      },
      "pos": [
        0,
        1
      ]
    },
    {
      "id": 305,
      "plugin": "CountModula",
      "version": "1.14.0",
      "model": "LightStrip",
      "params": [],
      "rightModuleId": 83,
      "data": {
        "moduleVersion": 1,
        "color": [
          0.294,
          0.635999858,
          0.0
        ],
        "narrowMode": false,
        "theme": 0
      },
      "pos": [
        0,
        0
      ]
    },
    {
      "id": 350,
      "plugin": "repelzen",
      "version": "1.1.0",
      "model": "rexmix",
      "params": [
        {
          "id": 0,
          "value": -1.88999999
        },
        {
          "id": 1,
          "value": 0.0
        },
        {
          "id": 2,
          "value": 0.0
        },
        {
          "id": 3,
          "value": 0.0
        },
        {
          "id": 4,
          "value": -13.5900002
        },
        {
          "id": 5,
          "value": -6.21000004
        },
        {
          "id": 6,
          "value": 0.0
        },
        {
          "id": 7,
          "value": 0.0
        },
        {
          "id": 8,
          "value": -12.5100002
        },
        {
          "id": 9,
          "value": -60.0
        },
        {
          "id": 10,
          "value": 0.0
        },
        {
          "id": 11,
          "value": 0.0
        },
        {
          "id": 12,
          "value": 0.0
        },
        {
          "id": 13,
          "value": 0.0
        },
        {
          "id": 14,
          "value": 0.0
        },
        {
          "id": 15,
          "value": 0.0
        },
        {
          "id": 16,
          "value": 0.0
        },
        {
          "id": 17,
          "value": 0.0
        },
        {
          "id": 18,
          "value": 0.0
        },
        {
          "id": 19,
          "value": 0.0
        },
        {
          "id": 20,
          "value": 0.0
        },
        {
          "id": 21,
          "value": 0.0
        },
        {
          "id": 22,
          "value": 0.0
        },
        {
          "id": 23,
          "value": 0.0
        },
        {
          "id": 24,
          "value": 0.0
        },
        {
          "id": 25,
          "value": 0.0
        },
        {
          "id": 26,
          "value": 0.0
        },
        {
          "id": 27,
          "value": 0.0
        },
        {
          "id": 28,
          "value": 0.0
        },
        {
          "id": 29,
          "value": 0.0
        },
        {
          "id": 30,
          "value": 0.0
        },
        {
          "id": 31,
          "value": 0.0
        },
        {
          "id": 32,
          "value": 0.0
        },
        {
          "id": 33,
          "value": 0.0
        },
        {
          "id": 34,
          "value": 0.0
        },
        {
          "id": 35,
          "value": 0.0
        },
        {
          "id": 36,
          "value": 0.0
        },
        {
          "id": 37,
          "value": 0.0
        },
        {
          "id": 38,
          "value": 0.0
        },
        {
          "id": 39,
          "value": 0.0
        },
        {
          "id": 40,
          "value": 0.869499981
        },
        {
          "id": 41,
          "value": 0.0
        },
        {
          "id": 42,
          "value": 0.640500009
        },
        {
          "id": 43,
          "value": 0.0
        },
        {
          "id": 44,
          "value": 0.0
        },
        {
          "id": 45,
          "value": 0.0
        },
        {
          "id": 46,
          "value": 0.432999849
        },
        {
          "id": 47,
          "value": 0.425999999
        },
        {
          "id": 48,
          "value": 0.0
        },
        {
          "id": 49,
          "value": 0.0
        },
        {
          "id": 50,
          "value": 0.0
        },
        {
          "id": 51,
          "value": 0.0
        }
      ],
      "leftModuleId": 76,
      "rightModuleId": 1,
      "pos": [
        30,
        0
      ]
    },
    {
      "id": 359,
      "plugin": "AS",
      "version": "1.0.4",
      "model": "ReverbStereoFx",
      "params": [
        {
          "id": 0,
          "value": 0.81099999
        },
        {
          "id": 1,
          "value": 0.366000026
        },
        {
          "id": 2,
          "value": 1.0
        },
        {
          "id": 3,
          "value": 0.0
        }
      ],
      "leftModuleId": 91,
      "rightModuleId": 505,
      "data": {
        "as_FxBypass": [
          false
        ]
      },
      "pos": [
        80,
        0
      ]
    },
    {
      "id": 476,
      "plugin": "AS",
      "version": "1.0.4",
      "model": "SEQ16",
      "params": [
        {
          "id": 0,
          "value": 1.0
        },
        {
          "id": 1,
          "value": 0.0
        },
        {
          "id": 2,
          "value": 0.0
        },
        {
          "id": 3,
          "value": 13.0
        },
        {
          "id": 4,
          "value": 0.0
        },
        {
          "id": 5,
          "value": 0.0
        },
        {
          "id": 6,
          "value": 0.0
        },
        {
          "id": 7,
          "value": 0.0
        },
        {
          "id": 8,
          "value": 0.360000014
        },
        {
          "id": 9,
          "value": 1.72500002
        },
        {
          "id": 10,
          "value": 0.810000002
        },
        {
          "id": 11,
          "value": 2.2349999
        },
        {
          "id": 12,
          "value": 1.755
        },
        {
          "id": 13,
          "value": 3.37500072
        },
        {
          "id": 14,
          "value": 2.61000061
        },
        {
          "id": 15,
          "value": 2.91000009
        },
        {
          "id": 16,
          "value": 4.28999996
        },
        {
          "id": 17,
          "value": 2.10000014
        },
        {
          "id": 18,
          "value": 2.38500023
        },
        {
          "id": 19,
          "value": 2.07000017
        },
        {
          "id": 20,
          "value": 2.08500004
        },
        {
          "id": 21,
          "value": 0.0
        },
        {
          "id": 22,
          "value": 0.0
        },
        {
          "id": 23,
          "value": 0.0
        },
        {
          "id": 24,
          "value": 0.0
        },
        {
          "id": 25,
          "value": 0.0
        },
        {
          "id": 26,
          "value": 0.0
        },
        {
          "id": 27,
          "value": 0.0
        },
        {
          "id": 28,
          "value": 0.0
        },
        {
          "id": 29,
          "value": 0.0
        },
        {
          "id": 30,
          "value": 0.0
        },
        {
          "id": 31,
          "value": 0.0
        },
        {
          "id": 32,
          "value": 0.0
        },
        {
          "id": 33,
          "value": 0.0
        },
        {
          "id": 34,
          "value": 0.0
        },
        {
          "id": 35,
          "value": 0.0
        },
        {
          "id": 36,
          "value": 0.0
        },
        {
          "id": 37,
          "value": 0.0
        },
        {
          "id": 38,
          "value": 0.0
        },
        {
          "id": 39,
          "value": 0.0
        },
        {
          "id": 40,
          "value": 0.0
        },
        {
          "id": 41,
          "value": 0.0
        },
        {
          "id": 42,
          "value": 0.0
        },
        {
          "id": 43,
          "value": 0.0
        },
        {
          "id": 44,
          "value": 0.0
        },
        {
          "id": 45,
          "value": 0.0
        },
        {
          "id": 46,
          "value": 0.0
        },
        {
          "id": 47,
          "value": 0.0
        },
        {
          "id": 48,
          "value": 0.0
        },
        {
          "id": 49,
          "value": 0.0
        },
        {
          "id": 50,
          "value": 0.0
        },
        {
          "id": 51,
          "value": 0.0
        },
        {
          "id": 52,
          "value": 0.0
        },
        {
          "id": 53,
          "value": 0.0
        },
        {
          "id": 54,
          "value": 0.0
        },
        {
          "id": 55,
          "value": 0.0
        },
        {
          "id": 56,
          "value": 0.0
        },
        {
          "id": 57,
          "value": 0.0
        },
        {
          "id": 58,
          "value": 0.0
        },
        {
          "id": 59,
          "value": 0.0
        },
        {
          "id": 60,
          "value": 0.0
        },
        {
          "id": 61,
          "value": 0.0
        },
        {
          "id": 62,
          "value": 0.0
        },
        {
          "id": 63,
          "value": 0.0
        },
        {
          "id": 64,
          "value": 0.0
        },
        {
          "id": 65,
          "value": 0.0
        },
        {
          "id": 66,
          "value": 0.0
        },
        {
          "id": 67,
          "value": 0.0
        },
        {
          "id": 68,
          "value": 0.0
        },
        {
          "id": 69,
          "value": 0.0
        },
        {
          "id": 70,
          "value": 0.0
        },
        {
          "id": 71,
          "value": 0.0
        }
      ],
      "rightModuleId": 490,
      "data": {
        "running": true,
        "gates": [
          1,
          0,
          0,
          0,
          1,
          0,
          0,
          0,
          0,
          0,
          0,
          0,
          0,
          0,
          0,
          0
        ],
        "seq_gate_mode": 0
      },
      "pos": [
        39,
        1
      ]
    },
    {
      "id": 478,
      "plugin": "Geodesics",
      "version": "1.2.0",
      "model": "Torus",
      "params": [
        {
          "id": 0,
          "value": 1.0
        },
        {
          "id": 1,
          "value": 0.0
        }
      ],
      "leftModuleId": 490,
      "rightModuleId": 480,
      "data": {
        "panelTheme": 1,
        "mixmode": 0,
        "filterSlope": 1
      },
      "pos": [
        93,
        1
      ]
    },
    {
      "id": 480,
      "plugin": "CountModula",
      "version": "1.14.0",
      "model": "G2T",
      "params": [],
      "leftModuleId": 478,
      "rightModuleId": 488,
      "data": {
        "moduleVersion": 2,
        "theme": 0
      },
      "pos": [
        98,
        1
      ]
    },
    {
      "id": 482,
      "plugin": "Geodesics",
      "version": "1.2.0",
      "model": "Energy",
      "params": [
        {
          "id": 0,
          "value": 0.0
        },
        {
          "id": 1,
          "value": 0.0
        },
        {
          "id": 2,
          "value": 0.0
        },
        {
          "id": 3,
          "value": 0.0
        },
        {
          "id": 4,
          "value": 0.0
        },
        {
          "id": 5,
          "value": -1.00800002
        },
        {
          "id": 6,
          "value": 1.10699999
        },
        {
          "id": 7,
          "value": 0.0
        },
        {
          "id": 8,
          "value": 0.205499947
        },
        {
          "id": 9,
          "value": 0.0
        }
      ],
      "leftModuleId": 488,
      "rightModuleId": 299,
      "data": {
        "panelTheme": 1,
        "oscM_phase": 4235171568,
        "oscC_phase": 3519406560,
        "osc1M_phase": 0,
        "osc1C_phase": 0,
        "osc2M_phase": 0,
        "osc2C_phase": 0,
        "osc3M_phase": 0,
        "osc3C_phase": 0,
        "osc4M_phase": 0,
        "osc4C_phase": 0,
        "osc5M_phase": 0,
        "osc5C_phase": 0,
        "osc6M_phase": 0,
        "osc6C_phase": 0,
        "osc7M_phase": 0,
        "osc7C_phase": 0,
        "osc8M_phase": 0,
        "osc8C_phase": 0,
        "osc9M_phase": 0,
        "osc9C_phase": 0,
        "osc10M_phase": 0,
        "osc10C_phase": 0,
        "osc11M_phase": 0,
        "osc11C_phase": 0,
        "osc12M_phase": 0,
        "osc12C_phase": 0,
        "osc13M_phase": 0,
        "osc13C_phase": 0,
        "osc14M_phase": 0,
        "osc14C_phase": 0,
        "osc15M_phase": 0,
        "osc15C_phase": 0,
        "routing": 1,
        "planck0": 2,
        "planck1": 2,
        "modtype0": 1,
        "modtype1": 1,
        "cross": 0
      },
      "pos": [
        106,
        1
      ]
    },
    {
      "id": 483,
      "plugin": "Geodesics",
      "version": "1.2.0",
      "model": "Entropia",
      "params": [
        {
          "id": 0,
          "value": 0.0
        },
        {
          "id": 1,
          "value": 0.0
        },
        {
          "id": 2,
          "value": 0.0
        },
        {
          "id": 3,
          "value": 0.0
        },
        {
          "id": 4,
          "value": 0.0
        },
        {
          "id": 5,
          "value": 0.466309905
        },
        {
          "id": 6,
          "value": 0.412976265
        },
        {
          "id": 7,
          "value": 0.442684591
        },
        {
          "id": 8,
          "value": 0.618341684
        },
        {
          "id": 9,
          "value": 0.776135027
        },
        {
          "id": 10,
          "value": 0.564452469
        },
        {
          "id": 11,
          "value": 0.901850104
        },
        {
          "id": 12,
          "value": 0.268903911
        },
        {
          "id": 13,
          "value": 0.0518706441
        },
        {
          "id": 14,
          "value": 0.788006186
        },
        {
          "id": 15,
          "value": 0.040743053
        },
        {
          "id": 16,
          "value": 0.00903195143
        },
        {
          "id": 17,
          "value": 0.109329522
        },
        {
          "id": 18,
          "value": 0.067054987
        },
        {
          "id": 19,
          "value": 0.218674421
        },
        {
          "id": 20,
          "value": 0.7291435
        },
        {
          "id": 21,
          "value": 0.0783870816
        },
        {
          "id": 22,
          "value": 0.783563673
        },
        {
          "id": 23,
          "value": 0.39401418
        },
        {
          "id": 24,
          "value": 0.844665051
        },
        {
          "id": 25,
          "value": 0.328780591
        },
        {
          "id": 26,
          "value": 0.747627556
        },
        {
          "id": 27,
          "value": 0.0223382711
        },
        {
          "id": 28,
          "value": 0.891879916
        },
        {
          "id": 29,
          "value": 0.0
        },
        {
          "id": 30,
          "value": 0.0
        },
        {
          "id": 31,
          "value": 0.0
        },
        {
          "id": 32,
          "value": 0.0
        },
        {
          "id": 33,
          "value": 0.0
        },
        {
          "id": 34,
          "value": 0.0
        },
        {
          "id": 35,
          "value": 0.0
        },
        {
          "id": 36,
          "value": 0.0
        },
        {
          "id": 37,
          "value": 0.0
        },
        {
          "id": 38,
          "value": 0.0
        },
        {
          "id": 39,
          "value": 0.0
        },
        {
          "id": 40,
          "value": 0.0
        },
        {
          "id": 41,
          "value": -0.878441334
        },
        {
          "id": 42,
          "value": 0.0
        },
        {
          "id": 43,
          "value": 0.0
        },
        {
          "id": 44,
          "value": 0.0
        }
      ],
      "leftModuleId": 497,
      "rightModuleId": 484,
      "data": {
        "panelTheme": 1,
        "running": true,
        "resetOnRun": false,
        "length": 8,
        "quantize": 3,
        "audio": 0,
        "ranges0": 1,
        "ranges1": 0,
        "addMode": false,
        "sources0": 0,
        "sources1": 0,
        "stepIndex": 0,
        "pipeBlue": true,
        "randomCVs0": 0.574236393,
        "randomCVs1": 0.901138544,
        "clkSource": 0
      },
      "pos": [
        21,
        2
      ]
    },
    {
      "id": 484,
      "plugin": "Geodesics",
      "version": "1.2.0",
      "model": "Entropia",
      "params": [
        {
          "id": 0,
          "value": 0.0
        },
        {
          "id": 1,
          "value": 0.0
        },
        {
          "id": 2,
          "value": 0.0
        },
        {
          "id": 3,
          "value": 0.0
        },
        {
          "id": 4,
          "value": 0.0
        },
        {
          "id": 5,
          "value": 0.541285932
        },
        {
          "id": 6,
          "value": 0.161376238
        },
        {
          "id": 7,
          "value": 0.100139976
        },
        {
          "id": 8,
          "value": 0.673409045
        },
        {
          "id": 9,
          "value": 0.825255156
        },
        {
          "id": 10,
          "value": 0.355708838
        },
        {
          "id": 11,
          "value": 0.250449359
        },
        {
          "id": 12,
          "value": 0.39612323
        },
        {
          "id": 13,
          "value": 0.992341995
        },
        {
          "id": 14,
          "value": 0.597920716
        },
        {
          "id": 15,
          "value": 0.0827124119
        },
        {
          "id": 16,
          "value": 0.751996577
        },
        {
          "id": 17,
          "value": 0.84109205
        },
        {
          "id": 18,
          "value": 0.210849583
        },
        {
          "id": 19,
          "value": 0.227017164
        },
        {
          "id": 20,
          "value": 0.729508877
        },
        {
          "id": 21,
          "value": 0.559271514
        },
        {
          "id": 22,
          "value": 0.701476336
        },
        {
          "id": 23,
          "value": 0.796061873
        },
        {
          "id": 24,
          "value": 0.692529559
        },
        {
          "id": 25,
          "value": 0.949736655
        },
        {
          "id": 26,
          "value": 0.850116491
        },
        {
          "id": 27,
          "value": 0.067335546
        },
        {
          "id": 28,
          "value": 0.0636360645
        },
        {
          "id": 29,
          "value": 0.0
        },
        {
          "id": 30,
          "value": 0.0
        },
        {
          "id": 31,
          "value": 0.0
        },
        {
          "id": 32,
          "value": 0.0
        },
        {
          "id": 33,
          "value": 0.0
        },
        {
          "id": 34,
          "value": 0.0
        },
        {
          "id": 35,
          "value": 0.0
        },
        {
          "id": 36,
          "value": 0.0
        },
        {
          "id": 37,
          "value": 0.0
        },
        {
          "id": 38,
          "value": 0.0
        },
        {
          "id": 39,
          "value": 0.0
        },
        {
          "id": 40,
          "value": 0.0
        },
        {
          "id": 41,
          "value": -0.0455138683
        },
        {
          "id": 42,
          "value": 0.0
        },
        {
          "id": 43,
          "value": 0.0
        },
        {
          "id": 44,
          "value": 0.0
        }
      ],
      "leftModuleId": 483,
      "rightModuleId": 486,
      "data": {
        "panelTheme": 1,
        "running": true,
        "resetOnRun": false,
        "length": 8,
        "quantize": 3,
        "audio": 0,
        "ranges0": 1,
        "ranges1": 0,
        "addMode": false,
        "sources0": 0,
        "sources1": 0,
        "stepIndex": 0,
        "pipeBlue": true,
        "randomCVs0": 0.749370396,
        "randomCVs1": 0.553182423,
        "clkSource": 0
      },
      "pos": [
        42,
        2
      ]
    },
    {
      "id": 486,
      "plugin": "ML_modules",
      "version": "1.1.3",
      "model": "SeqSwitch",
      "params": [
        {
          "id": 0,
          "value": 2.0
        },
        {
          "id": 1,
          "value": 0.0
        },
        {
          "id": 2,
          "value": 0.0
        },
        {
          "id": 3,
          "value": 0.0
        },
        {
          "id": 4,
          "value": 0.0
        },
        {
          "id": 5,
          "value": 0.0
        },
        {
          "id": 6,
          "value": 0.0
        },
        {
          "id": 7,
          "value": 0.0
        },
        {
          "id": 8,
          "value": 0.0
        }
      ],
      "leftModuleId": 484,
      "rightModuleId": 487,
      "data": {
        "inputRange": 0
      },
      "pos": [
        63,
        2
      ]
    },
    {
      "id": 487,
      "plugin": "JW-Modules",
      "version": "1.0.29",
      "model": "Quantizer",
      "params": [
        {
          "id": 0,
          "value": 3.0
        },
        {
          "id": 1,
          "value": 4.0
        },
        {
          "id": 2,
          "value": 1.0
        }
      ],
      "leftModuleId": 486,
      "rightModuleId": 492,
      "data": {},
      "pos": [
        71,
        2
      ]
    },
    {
      "id": 488,
      "plugin": "JW-Modules",
      "version": "1.0.29",
      "model": "Quantizer",
      "params": [
        {
          "id": 0,
          "value": 0.0
        },
        {
          "id": 1,
          "value": 4.0
        },
        {
          "id": 2,
          "value": 1.0
        }
      ],
      "leftModuleId": 480,
      "rightModuleId": 482,
      "data": {},
      "pos": [
        102,
        1
      ]
    },
    {
      "id": 489,
      "plugin": "JW-Modules",
      "version": "1.0.29",
      "model": "Quantizer",
      "params": [
        {
          "id": 0,
          "value": 0.0
        },
        {
          "id": 1,
          "value": 4.0
        },
        {
          "id": 2,
          "value": -2.0
        }
      ],
      "leftModuleId": 495,
      "rightModuleId": 499,
      "data": {},
      "pos": [
        63,
        3
      ]
    },
    {
      "id": 490,
      "plugin": "Admiral",
      "version": "1.1.0",
      "model": "Tables",
      "params": [
        {
          "id": 0,
          "value": 0.0
        },
        {
          "id": 1,
          "value": 0.0
        },
        {
          "id": 2,
          "value": 0.0
        },
        {
          "id": 3,
          "value": 0.0
        },
        {
          "id": 4,
          "value": 0.0
        },
        {
          "id": 5,
          "value": 0.0
        },
        {
          "id": 6,
          "value": 0.0
        },
        {
          "id": 7,
          "value": 0.0
        },
        {
          "id": 8,
          "value": 0.0
        },
        {
          "id": 9,
          "value": 0.0
        },
        {
          "id": 10,
          "value": 0.0
        },
        {
          "id": 11,
          "value": 0.0
        },
        {
          "id": 12,
          "value": 0.0
        },
        {
          "id": 13,
          "value": 0.0
        },
        {
          "id": 14,
          "value": 0.0
        },
        {
          "id": 15,
          "value": 0.0
        },
        {
          "id": 16,
          "value": 1.0
        },
        {
          "id": 17,
          "value": 1.0
        }
      ],
      "leftModuleId": 476,
      "rightModuleId": 478,
      "data": {
        "sel": 0,
        "channels": [
          {
            "order": 0,
            "beat": 2,
            "beats": [
              1,
              -1,
              -1,
              -1
            ],
            "step": 0,
            "steps": [
              {
                "mode": 1,
                "pattern": 4
              },
              {
                "mode": 0,
                "pattern": 0
              },
              {
                "mode": 0,
                "pattern": 0
              },
              {
                "mode": 0,
                "pattern": 0
              },
              {
                "mode": 0,
                "pattern": 0
              },
              {
                "mode": 0,
                "pattern": 0
              },
              {
                "mode": 0,
                "pattern": 0
              },
              {
                "mode": 0,
                "pattern": 0
              }
            ]
          },
          {
            "order": 0,
            "beat": -1,
            "beats": [
              0,
              0,
              0,
              0
            ],
            "step": 3,
            "steps": [
              {
                "mode": 0,
                "pattern": 0
              },
              {
                "mode": 0,
                "pattern": 0
              },
              {
                "mode": 0,
                "pattern": 0
              },
              {
                "mode": 0,
                "pattern": 0
              },
              {
                "mode": 0,
                "pattern": 0
              },
              {
                "mode": 0,
                "pattern": 0
              },
              {
                "mode": 0,
                "pattern": 0
              },
              {
                "mode": 0,
                "pattern": 0
              }
            ]
          },
          {
            "order": 0,
            "beat": -1,
            "beats": [
              0,
              0,
              0,
              0
            ],
            "step": 3,
            "steps": [
              {
                "mode": 0,
                "pattern": 0
              },
              {
                "mode": 0,
                "pattern": 0
              },
              {
                "mode": 0,
                "pattern": 0
              },
              {
                "mode": 0,
                "pattern": 0
              },
              {
                "mode": 0,
                "pattern": 0
              },
              {
                "mode": 0,
                "pattern": 0
              },
              {
                "mode": 0,
                "pattern": 0
              },
              {
                "mode": 0,
                "pattern": 0
              }
            ]
          },
          {
            "order": 0,
            "beat": -1,
            "beats": [
              0,
              0,
              0,
              0
            ],
            "step": 3,
            "steps": [
              {
                "mode": 0,
                "pattern": 0
              },
              {
                "mode": 0,
                "pattern": 0
              },
              {
                "mode": 0,
                "pattern": 0
              },
              {
                "mode": 0,
                "pattern": 0
              },
              {
                "mode": 0,
                "pattern": 0
              },
              {
                "mode": 0,
                "pattern": 0
              },
              {
                "mode": 0,
                "pattern": 0
              },
              {
                "mode": 0,
                "pattern": 0
              }
            ]
          }
        ]
      },
      "pos": [
        83,
        1
      ]
    },
    {
      "id": 492,
      "plugin": "ML_modules",
      "version": "1.1.3",
      "model": "SeqSwitch",
      "params": [
        {
          "id": 0,
          "value": 2.0
        },
        {
          "id": 1,
          "value": 0.0
        },
        {
          "id": 2,
          "value": 0.0
        },
        {
          "id": 3,
          "value": 0.0
        },
        {
          "id": 4,
          "value": 0.0
        },
        {
          "id": 5,
          "value": 0.0
        },
        {
          "id": 6,
          "value": 0.0
        },
        {
          "id": 7,
          "value": 0.0
        },
        {
          "id": 8,
          "value": 0.0
        }
      ],
      "leftModuleId": 487,
      "rightModuleId": 509,
      "data": {
        "inputRange": 0
      },
      "pos": [
        75,
        2
      ]
    },
    {
      "id": 493,
      "plugin": "Geodesics",
      "version": "1.2.0",
      "model": "Ions",
      "params": [
        {
          "id": 0,
          "value": 0.0
        },
        {
          "id": 1,
          "value": 0.0
        },
        {
          "id": 2,
          "value": 0.473203897
        },
        {
          "id": 3,
          "value": 0.0845917463
        },
        {
          "id": 4,
          "value": 0.0168879032
        },
        {
          "id": 5,
          "value": 0.208674371
        },
        {
          "id": 6,
          "value": 0.244690776
        },
        {
          "id": 7,
          "value": 0.642615318
        },
        {
          "id": 8,
          "value": 0.378947973
        },
        {
          "id": 9,
          "value": 0.133584559
        },
        {
          "id": 10,
          "value": 0.189340949
        },
        {
          "id": 11,
          "value": 0.196618378
        },
        {
          "id": 12,
          "value": 0.354724348
        },
        {
          "id": 13,
          "value": 0.310899198
        },
        {
          "id": 14,
          "value": 0.373596311
        },
        {
          "id": 15,
          "value": 0.220569432
        },
        {
          "id": 16,
          "value": 0.347183645
        },
        {
          "id": 17,
          "value": 0.897015393
        },
        {
          "id": 18,
          "value": 0.0
        },
        {
          "id": 19,
          "value": 0.0
        },
        {
          "id": 20,
          "value": 0.0
        },
        {
          "id": 21,
          "value": 0.0
        },
        {
          "id": 22,
          "value": 0.0
        },
        {
          "id": 23,
          "value": 0.0
        },
        {
          "id": 24,
          "value": 0.0
        },
        {
          "id": 25,
          "value": 0.0
        },
        {
          "id": 26,
          "value": 0.0
        },
        {
          "id": 27,
          "value": 0.0
        }
      ],
      "leftModuleId": 506,
      "rightModuleId": 494,
      "data": {
        "panelTheme": 1,
        "running": true,
        "resetOnRun": false,
        "quantize": 3,
        "uncertainty": false,
        "stepIndexes0": 11,
        "stepIndexes1": 3,
        "states0": 2,
        "states1": 2,
        "ranges0": 0,
        "ranges1": 0,
        "leap": false
      },
      "pos": [
        21,
        3
      ]
    },
    {
      "id": 494,
      "plugin": "Geodesics",
      "version": "1.2.0",
      "model": "Ions",
      "params": [
        {
          "id": 0,
          "value": 0.0
        },
        {
          "id": 1,
          "value": 0.0
        },
        {
          "id": 2,
          "value": 0.149687529
        },
        {
          "id": 3,
          "value": 0.782107472
        },
        {
          "id": 4,
          "value": 0.359711647
        },
        {
          "id": 5,
          "value": 0.639650881
        },
        {
          "id": 6,
          "value": 0.174288571
        },
        {
          "id": 7,
          "value": 0.469603658
        },
        {
          "id": 8,
          "value": 0.137533486
        },
        {
          "id": 9,
          "value": 0.648477376
        },
        {
          "id": 10,
          "value": 0.902718306
        },
        {
          "id": 11,
          "value": 0.858911455
        },
        {
          "id": 12,
          "value": 0.633418143
        },
        {
          "id": 13,
          "value": 0.441518545
        },
        {
          "id": 14,
          "value": 0.0391084552
        },
        {
          "id": 15,
          "value": 0.226213038
        },
        {
          "id": 16,
          "value": 0.0473167896
        },
        {
          "id": 17,
          "value": 0.619132578
        },
        {
          "id": 18,
          "value": 0.0
        },
        {
          "id": 19,
          "value": 0.0
        },
        {
          "id": 20,
          "value": 0.0
        },
        {
          "id": 21,
          "value": 0.0
        },
        {
          "id": 22,
          "value": 0.0
        },
        {
          "id": 23,
          "value": 0.0
        },
        {
          "id": 24,
          "value": 0.0
        },
        {
          "id": 25,
          "value": 0.0
        },
        {
          "id": 26,
          "value": 0.0
        },
        {
          "id": 27,
          "value": 0.0
        }
      ],
      "leftModuleId": 493,
      "rightModuleId": 495,
      "data": {
        "panelTheme": 1,
        "running": true,
        "resetOnRun": false,
        "quantize": 3,
        "uncertainty": false,
        "stepIndexes0": 9,
        "stepIndexes1": 2,
        "states0": 2,
        "states1": 2,
        "ranges0": 1,
        "ranges1": 1,
        "leap": false
      },
      "pos": [
        40,
        3
      ]
    },
    {
      "id": 495,
      "plugin": "JW-Modules",
      "version": "1.0.29",
      "model": "Quantizer",
      "params": [
        {
          "id": 0,
          "value": 3.0
        },
        {
          "id": 1,
          "value": 4.0
        },
        {
          "id": 2,
          "value": -2.0
        }
      ],
      "leftModuleId": 494,
      "rightModuleId": 489,
      "data": {},
      "pos": [
        59,
        3
      ]
    },
    {
      "id": 496,
      "plugin": "Geodesics",
      "version": "1.2.0",
      "model": "Energy",
      "params": [
        {
          "id": 0,
          "value": 0.0
        },
        {
          "id": 1,
          "value": 0.0
        },
        {
          "id": 2,
          "value": 0.0
        },
        {
          "id": 3,
          "value": 0.0
        },
        {
          "id": 4,
          "value": 0.0
        },
        {
          "id": 5,
          "value": -1.10700035
        },
        {
          "id": 6,
          "value": 0.0
        },
        {
          "id": 7,
          "value": 0.0
        },
        {
          "id": 8,
          "value": 0.472499996
        },
        {
          "id": 9,
          "value": 0.0
        }
      ],
      "rightModuleId": 503,
      "data": {
        "panelTheme": 1,
        "oscM_phase": 4252822032,
        "oscC_phase": 2896644304,
        "osc1M_phase": 0,
        "osc1C_phase": 0,
        "osc2M_phase": 0,
        "osc2C_phase": 0,
        "osc3M_phase": 0,
        "osc3C_phase": 0,
        "osc4M_phase": 0,
        "osc4C_phase": 0,
        "osc5M_phase": 0,
        "osc5C_phase": 0,
        "osc6M_phase": 0,
        "osc6C_phase": 0,
        "osc7M_phase": 0,
        "osc7C_phase": 0,
        "osc8M_phase": 0,
        "osc8C_phase": 0,
        "osc9M_phase": 0,
        "osc9C_phase": 0,
        "osc10M_phase": 0,
        "osc10C_phase": 0,
        "osc11M_phase": 0,
        "osc11C_phase": 0,
        "osc12M_phase": 0,
        "osc12C_phase": 0,
        "osc13M_phase": 0,
        "osc13C_phase": 0,
        "osc14M_phase": 0,
        "osc14C_phase": 0,
        "osc15M_phase": 0,
        "osc15C_phase": 0,
        "routing": 1,
        "planck0": 2,
        "planck1": 2,
        "modtype0": 1,
        "modtype1": 1,
        "cross": 0
      },
      "pos": [
        92,
        2
      ]
    },
    {
      "id": 497,
      "plugin": "AudibleInstruments",
      "version": "1.5.0",
      "model": "Branches",
      "params": [
        {
          "id": 0,
          "value": 0.5
        },
        {
          "id": 1,
          "value": 0.5
        },
        {
          "id": 2,
          "value": 0.0
        },
        {
          "id": 3,
          "value": 0.0
        }
      ],
      "leftModuleId": 508,
      "rightModuleId": 483,
      "data": {
        "modes": [
          false,
          true
        ]
      },
      "pos": [
        15,
        2
      ]
    },
    {
      "id": 498,
      "plugin": "AudibleInstruments",
      "version": "1.5.0",
      "model": "Plaits",
      "params": [
        {
          "id": 0,
          "value": 0.0
        },
        {
          "id": 1,
          "value": 0.0
        },
        {
          "id": 2,
          "value": 0.0
        },
        {
          "id": 3,
          "value": 0.5
        },
        {
          "id": 4,
          "value": 0.303500116
        },
        {
          "id": 5,
          "value": 0.5
        },
        {
          "id": 6,
          "value": 0.819000185
        },
        {
          "id": 7,
          "value": -0.18599999
        },
        {
          "id": 8,
          "value": 0.489000022
        },
        {
          "id": 9,
          "value": 0.5
        },
        {
          "id": 10,
          "value": 0.5
        }
      ],
      "leftModuleId": 501,
      "rightModuleId": 502,
      "data": {
        "lowCpu": false,
        "model": 5
      },
      "pos": [
        83,
        3
      ]
    },
    {
      "id": 499,
      "plugin": "JW-Modules",
      "version": "1.0.29",
      "model": "Quantizer",
      "params": [
        {
          "id": 0,
          "value": 3.0
        },
        {
          "id": 1,
          "value": 4.0
        },
        {
          "id": 2,
          "value": 2.0
        }
      ],
      "leftModuleId": 489,
      "rightModuleId": 500,
      "data": {},
      "pos": [
        67,
        3
      ]
    },
    {
      "id": 500,
      "plugin": "JW-Modules",
      "version": "1.0.29",
      "model": "Quantizer",
      "params": [
        {
          "id": 0,
          "value": 0.0
        },
        {
          "id": 1,
          "value": 4.0
        },
        {
          "id": 2,
          "value": 2.0
        }
      ],
      "leftModuleId": 499,
      "rightModuleId": 501,
      "data": {},
      "pos": [
        71,
        3
      ]
    },
    {
      "id": 501,
      "plugin": "ML_modules",
      "version": "1.1.3",
      "model": "SeqSwitch",
      "params": [
        {
          "id": 0,
          "value": 2.0
        },
        {
          "id": 1,
          "value": 0.0
        },
        {
          "id": 2,
          "value": 0.0
        },
        {
          "id": 3,
          "value": 0.0
        },
        {
          "id": 4,
          "value": 0.0
        },
        {
          "id": 5,
          "value": 0.0
        },
        {
          "id": 6,
          "value": 0.0
        },
        {
          "id": 7,
          "value": 0.0
        },
        {
          "id": 8,
          "value": 0.0
        }
      ],
      "leftModuleId": 500,
      "rightModuleId": 498,
      "data": {
        "inputRange": 0
      },
      "pos": [
        75,
        3
      ]
    },
    {
      "id": 502,
      "plugin": "VultModulesFree",
      "version": "1.16",
      "model": "Slap",
      "params": [
        {
          "id": 0,
          "value": 0.0
        },
        {
          "id": 1,
          "value": 0.0500000268
        },
        {
          "id": 2,
          "value": 0.76850009
        },
        {
          "id": 3,
          "value": 0.105500109
        },
        {
          "id": 4,
          "value": 0.0
        },
        {
          "id": 5,
          "value": 0.0
        },
        {
          "id": 6,
          "value": 0.0
        },
        {
          "id": 7,
          "value": 0.0
        },
        {
          "id": 8,
          "value": 1.0
        }
      ],
      "leftModuleId": 498,
      "pos": [
        95,
        3
      ]
    },
    {
      "id": 503,
      "plugin": "VultModulesFree",
      "version": "1.16",
      "model": "Lateralus",
      "params": [
        {
          "id": 0,
          "value": 0.45200026
        },
        {
          "id": 1,
          "value": 0.610499918
        },
        {
          "id": 2,
          "value": 0.212999955
        },
        {
          "id": 3,
          "value": 0.0990000218
        },
        {
          "id": 4,
          "value": 1.53000021
        },
        {
          "id": 5,
          "value": 0.0
        },
        {
          "id": 6,
          "value": 0.0
        }
      ],
      "leftModuleId": 496,
      "pos": [
        99,
        2
      ]
    },
    {
      "id": 505,
      "plugin": "Instruo",
      "version": "1.1.0",
      "model": "ochd",
      "params": [
        {
          "id": 0,
          "value": 0.5
        },
        {
          "id": 1,
          "value": 0.0
        }
      ],
      "leftModuleId": 359,
      "data": {
        "deviations": {
          "lfos": [
            {
              "amplitude": 5.5,
              "frequency": {
                "maximum": 154.699997,
                "minimum": 0.147,
                "absMinimum": 0.000294000027,
                "absMaximum": 160.887985
              }
            },
            {
              "amplitude": 5.5,
              "frequency": {
                "maximum": 84.7399979,
                "minimum": 0.0816000029,
                "absMinimum": 0.00016320002,
                "absMaximum": 88.1295929
              }
            },
            {
              "amplitude": 5.5,
              "frequency": {
                "maximum": 42.2599983,
                "minimum": 0.0417000018,
                "absMinimum": 8.34000093e-5,
                "absMaximum": 43.9503975
              }
            },
            {
              "amplitude": 5.5,
              "frequency": {
                "maximum": 22.0100002,
                "minimum": 0.0221999995,
                "absMinimum": 4.43999998e-5,
                "absMaximum": 22.8903999
              }
            },
            {
              "amplitude": 5.5,
              "frequency": {
                "maximum": 10.3699999,
                "minimum": 0.0102000004,
                "absMinimum": 2.04000025e-5,
                "absMaximum": 10.7847996
              }
            },
            {
              "amplitude": 5.5,
              "frequency": {
                "maximum": 4.69999981,
                "minimum": 0.00505999988,
                "absMinimum": 1.01200003e-5,
                "absMaximum": 4.88799953
              }
            },
            {
              "amplitude": 5.5,
              "frequency": {
                "maximum": 2.11999989,
                "minimum": 0.00212999992,
                "absMinimum": 4.25999997e-6,
                "absMaximum": 2.20479989
              }
            },
            {
              "amplitude": 5.5,
              "frequency": {
                "maximum": 1.00999999,
                "minimum": 0.00100000005,
                "absMinimum": 2.00000022e-6,
                "absMaximum": 1.0503999
              }
            }
          ]
        }
      },
      "pos": [
        86,
        0
      ]
    },
    {
      "id": 506,
      "plugin": "voxglitch",
      "version": "1.29.0",
      "model": "samplerx8",
      "params": [
        {
          "id": 0,
          "value": 0.0
        },
        {
          "id": 1,
          "value": 1.0
        },
        {
          "id": 2,
          "value": 1.0
        },
        {
          "id": 3,
          "value": 1.0
        },
        {
          "id": 4,
          "value": 1.0
        },
        {
          "id": 5,
          "value": 1.0
        },
        {
          "id": 6,
          "value": 1.0
        },
        {
          "id": 7,
          "value": 1.0
        },
        {
          "id": 8,
          "value": 1.0
        },
        {
          "id": 9,
          "value": 0.0
        },
        {
          "id": 10,
          "value": 0.0
        },
        {
          "id": 11,
          "value": 0.0
        },
        {
          "id": 12,
          "value": 0.0
        },
        {
          "id": 13,
          "value": 0.0
        },
        {
          "id": 14,
          "value": 0.0
        },
        {
          "id": 15,
          "value": 0.0
        },
        {
          "id": 16,
          "value": 0.0
        },
        {
          "id": 17,
          "value": 0.0
        }
      ],
      "rightModuleId": 493,
      "data": {
        "loaded_sample_path_1": "E:\\Misc\\Samples\\Drum Machines\\Boxed Ear Tempest vs MPC60\\Kicks\\Kick 01.wav",
        "loaded_sample_path_2": "E:\\Misc\\Samples\\Drum Machines\\Boxed Ear Tempest vs MPC60\\Snares\\Snare 12.wav",
        "loaded_sample_path_3": "E:\\Misc\\Samples\\Drum Machines\\Boxed Ear Tempest vs MPC60\\HiHats\\HiHat 02.wav",
        "loaded_sample_path_4": "E:\\Misc\\Samples\\Drum Machines\\Boxed Ear Tempest vs MPC60\\HiHats\\HiHat 12.wav",
        "loaded_sample_path_5": "E:\\Misc\\Samples\\Drum Machines\\Fricke MFB-512\\512cymb.wav",
        "loaded_sample_path_6": "",
        "loaded_sample_path_7": "",
        "loaded_sample_path_8": ""
      },
      "pos": [
        6,
        3
      ]
    },
    {
      "id": 508,
      "plugin": "Fundamental",
      "version": "1.4.0",
      "model": "VCMixer",
      "params": [
        {
          "id": 0,
          "value": 2.0
        },
        {
          "id": 1,
          "value": 1.0
        },
        {
          "id": 2,
          "value": 1.0
        },
        {
          "id": 3,
          "value": 1.0
        },
        {
          "id": 4,
          "value": 0.639375567
        }
      ],
      "rightModuleId": 497,
      "pos": [
        5,
        2
      ]
    },
    {
      "id": 509,
      "plugin": "repelzen",
      "version": "1.1.0",
      "model": "reburst",
      "params": [
        {
          "id": 0,
          "value": 0.0
        },
        {
          "id": 1,
          "value": 0.180190116
        },
        {
          "id": 2,
          "value": 3.0
        },
        {
          "id": 3,
          "value": 1.2385
        },
        {
          "id": 4,
          "value": 0.299999982
        },
        {
          "id": 5,
          "value": 0.0
        },
        {
          "id": 6,
          "value": 0.0
        },
        {
          "id": 7,
          "value": 0.0
        },
        {
          "id": 8,
          "value": 0.0
        }
      ],
      "leftModuleId": 492,
      "pos": [
        83,
        2
      ]
    },
    {
      "id": 510,
      "plugin": "ImpromptuModular",
      "version": "1.1.10",
      "model": "Clocked-Expander",
      "params": [],
      "leftModuleId": 30,
      "rightModuleId": 511,
      "pos": [
        21,
        1
      ]
    },
    {
      "id": 511,
      "plugin": "Geodesics",
      "version": "1.2.0",
      "model": "Branes",
      "params": [
        {
          "id": 0,
          "value": 0.0
        },
        {
          "id": 1,
          "value": 0.0
        },
        {
          "id": 2,
          "value": 0.0
        },
        {
          "id": 3,
          "value": 0.0
        }
      ],
      "leftModuleId": 510,
      "data": {
        "panelTheme": 1,
        "vibrations0": 0,
        "vibrations1": 0,
        "noiseRange0": 0.0,
        "noiseRange1": 0.0
      },
      "pos": [
        25,
        1
      ]
    }
  ],
  "cables": [
    {
      "id": 47,
      "outputModuleId": 30,
      "outputId": 0,
      "inputModuleId": 91,
      "inputId": 7,
      "color": "#364449"
    },
    {
      "id": 668,
      "outputModuleId": 350,
      "outputId": 2,
      "inputModuleId": 91,
      "inputId": 5,
      "color": "#c91847"
    },
    {
      "id": 669,
      "outputModuleId": 350,
      "outputId": 3,
      "inputModuleId": 91,
      "inputId": 6,
      "color": "#c91847"
    },
    {
      "id": 670,
      "outputModuleId": 91,
      "outputId": 0,
      "inputModuleId": 350,
      "inputId": 0,
      "color": "#c91847"
    },
    {
      "id": 671,
      "outputModuleId": 91,
      "outputId": 1,
      "inputModuleId": 350,
      "inputId": 1,
      "color": "#c91847"
    },
    {
      "id": 673,
      "outputModuleId": 350,
      "outputId": 0,
      "inputModuleId": 1,
      "inputId": 0,
      "color": "#c91847"
    },
    {
      "id": 674,
      "outputModuleId": 350,
      "outputId": 1,
      "inputModuleId": 1,
      "inputId": 1,
      "color": "#c91847"
    },
    {
      "id": 691,
      "outputModuleId": 350,
      "outputId": 4,
      "inputModuleId": 359,
      "inputId": 0,
      "color": "#c91847"
    },
    {
      "id": 692,
      "outputModuleId": 350,
      "outputId": 5,
      "inputModuleId": 359,
      "inputId": 1,
      "color": "#c91847"
    },
    {
      "id": 693,
      "outputModuleId": 359,
      "outputId": 0,
      "inputModuleId": 350,
      "inputId": 2,
      "color": "#c91847"
    },
    {
      "id": 694,
      "outputModuleId": 359,
      "outputId": 1,
      "inputModuleId": 350,
      "inputId": 3,
      "color": "#c91847"
    },
    {
      "id": 884,
      "outputModuleId": 30,
      "outputId": 4,
      "inputModuleId": 476,
      "inputId": 2,
      "color": "#364449"
    },
    {
      "id": 885,
      "outputModuleId": 30,
      "outputId": 4,
      "inputModuleId": 478,
      "inputId": 1,
      "color": "#364449"
    },
    {
      "id": 894,
      "outputModuleId": 480,
      "outputId": 2,
      "inputModuleId": 478,
      "inputId": 8,
      "color": "#364449"
    },
    {
      "id": 897,
      "outputModuleId": 482,
      "outputId": 0,
      "inputModuleId": 350,
      "inputId": 4,
      "color": "#0c8e15"
    },
    {
      "id": 901,
      "outputModuleId": 476,
      "outputId": 4,
      "inputModuleId": 483,
      "inputId": 4,
      "color": "#364449"
    },
    {
      "id": 907,
      "outputModuleId": 30,
      "outputId": 0,
      "inputModuleId": 484,
      "inputId": 0,
      "color": "#364449"
    },
    {
      "id": 909,
      "outputModuleId": 476,
      "outputId": 4,
      "inputModuleId": 484,
      "inputId": 4,
      "color": "#364449"
    },
    {
      "id": 913,
      "outputModuleId": 30,
      "outputId": 1,
      "inputModuleId": 482,
      "inputId": 3,
      "color": "#364449"
    },
    {
      "id": 905,
      "outputModuleId": 484,
      "outputId": 0,
      "inputModuleId": 487,
      "inputId": 2,
      "color": "#c9b70e"
    },
    {
      "id": 914,
      "outputModuleId": 487,
      "outputId": 0,
      "inputModuleId": 486,
      "inputId": 1,
      "color": "#c9b70e"
    },
    {
      "id": 915,
      "outputModuleId": 486,
      "outputId": 0,
      "inputModuleId": 482,
      "inputId": 2,
      "color": "#c9b70e"
    },
    {
      "id": 917,
      "outputModuleId": 483,
      "outputId": 0,
      "inputModuleId": 488,
      "inputId": 2,
      "color": "#c9b70e"
    },
    {
      "id": 918,
      "outputModuleId": 488,
      "outputId": 0,
      "inputModuleId": 486,
      "inputId": 0,
      "color": "#c9b70e"
    },
    {
      "id": 919,
      "outputModuleId": 30,
      "outputId": 1,
      "inputModuleId": 476,
      "inputId": 1,
      "color": "#364449"
    },
    {
      "id": 920,
      "outputModuleId": 30,
      "outputId": 4,
      "inputModuleId": 486,
      "inputId": 11,
      "color": "#364449"
    },
    {
      "id": 926,
      "outputModuleId": 476,
      "outputId": 4,
      "inputModuleId": 490,
      "inputId": 0,
      "color": "#364449"
    },
    {
      "id": 929,
      "outputModuleId": 490,
      "outputId": 8,
      "inputModuleId": 486,
      "inputId": 10,
      "color": "#364449"
    },
    {
      "id": 930,
      "outputModuleId": 30,
      "outputId": 4,
      "inputModuleId": 492,
      "inputId": 11,
      "color": "#364449"
    },
    {
      "id": 931,
      "outputModuleId": 490,
      "outputId": 8,
      "inputModuleId": 492,
      "inputId": 10,
      "color": "#364449"
    },
    {
      "id": 932,
      "outputModuleId": 493,
      "outputId": 1,
      "inputModuleId": 495,
      "inputId": 2,
      "color": "#c9b70e"
    },
    {
      "id": 933,
      "outputModuleId": 493,
      "outputId": 0,
      "inputModuleId": 489,
      "inputId": 2,
      "color": "#c9b70e"
    },
    {
      "id": 936,
      "outputModuleId": 492,
      "outputId": 0,
      "inputModuleId": 496,
      "inputId": 2,
      "color": "#c9b70e"
    },
    {
      "id": 937,
      "outputModuleId": 496,
      "outputId": 0,
      "inputModuleId": 350,
      "inputId": 5,
      "color": "#c91847"
    },
    {
      "id": 934,
      "outputModuleId": 495,
      "outputId": 0,
      "inputModuleId": 492,
      "inputId": 1,
      "color": "#c9b70e"
    },
    {
      "id": 935,
      "outputModuleId": 489,
      "outputId": 0,
      "inputModuleId": 492,
      "inputId": 0,
      "color": "#c9b70e"
    },
    {
      "id": 938,
      "outputModuleId": 30,
      "outputId": 0,
      "inputModuleId": 493,
      "inputId": 0,
      "color": "#364449"
    },
    {
      "id": 939,
      "outputModuleId": 30,
      "outputId": 4,
      "inputModuleId": 493,
      "inputId": 4,
      "color": "#364449"
    },
    {
      "id": 940,
      "outputModuleId": 30,
      "outputId": 2,
      "inputModuleId": 497,
      "inputId": 0,
      "color": "#364449"
    },
    {
      "id": 941,
      "outputModuleId": 497,
      "outputId": 0,
      "inputModuleId": 496,
      "inputId": 3,
      "color": "#364449"
    },
    {
      "id": 942,
      "outputModuleId": 30,
      "outputId": 4,
      "inputModuleId": 494,
      "inputId": 4,
      "color": "#364449"
    },
    {
      "id": 944,
      "outputModuleId": 30,
      "outputId": 3,
      "inputModuleId": 494,
      "inputId": 0,
      "color": "#364449"
    },
    {
      "id": 945,
      "outputModuleId": 494,
      "outputId": 1,
      "inputModuleId": 499,
      "inputId": 2,
      "color": "#c9b70e"
    },
    {
      "id": 946,
      "outputModuleId": 494,
      "outputId": 0,
      "inputModuleId": 500,
      "inputId": 2,
      "color": "#c9b70e"
    },
    {
      "id": 947,
      "outputModuleId": 490,
      "outputId": 8,
      "inputModuleId": 501,
      "inputId": 10,
      "color": "#0c8e15"
    },
    {
      "id": 948,
      "outputModuleId": 30,
      "outputId": 4,
      "inputModuleId": 501,
      "inputId": 11,
      "color": "#364449"
    },
    {
      "id": 949,
      "outputModuleId": 499,
      "outputId": 0,
      "inputModuleId": 501,
      "inputId": 1,
      "color": "#c9b70e"
    },
    {
      "id": 950,
      "outputModuleId": 500,
      "outputId": 0,
      "inputModuleId": 501,
      "inputId": 0,
      "color": "#c9b70e"
    },
    {
      "id": 951,
      "outputModuleId": 501,
      "outputId": 0,
      "inputModuleId": 498,
      "inputId": 7,
      "color": "#c9b70e"
    },
    {
      "id": 952,
      "outputModuleId": 30,
      "outputId": 1,
      "inputModuleId": 497,
      "inputId": 1,
      "color": "#364449"
    },
    {
      "id": 953,
      "outputModuleId": 497,
      "outputId": 1,
      "inputModuleId": 502,
      "inputId": 0,
      "color": "#364449"
    },
    {
      "id": 954,
      "outputModuleId": 498,
      "outputId": 0,
      "inputModuleId": 502,
      "inputId": 5,
      "color": "#c91847"
    },
    {
      "id": 955,
      "outputModuleId": 502,
      "outputId": 0,
      "inputModuleId": 503,
      "inputId": 0,
      "color": "#0c8e15"
    },
    {
      "id": 956,
      "outputModuleId": 503,
      "outputId": 3,
      "inputModuleId": 350,
      "inputId": 6,
      "color": "#364449"
    },
    {
      "id": 959,
      "outputModuleId": 505,
      "outputId": 7,
      "inputModuleId": 350,
      "inputId": 18,
      "color": "#0c8e15"
    },
    {
      "id": 960,
      "outputModuleId": 505,
      "outputId": 6,
      "inputModuleId": 350,
      "inputId": 17,
      "color": "#0c8e15"
    },
    {
      "id": 961,
      "outputModuleId": 505,
      "outputId": 5,
      "inputModuleId": 503,
      "inputId": 1,
      "color": "#0c8e15"
    },
    {
      "id": 962,
      "outputModuleId": 505,
      "outputId": 4,
      "inputModuleId": 503,
      "inputId": 2,
      "color": "#0c8e15"
    },
    {
      "id": 963,
      "outputModuleId": 505,
      "outputId": 5,
      "inputModuleId": 498,
      "inputId": 1,
      "color": "#0c8e15"
    },
    {
      "id": 964,
      "outputModuleId": 505,
      "outputId": 6,
      "inputModuleId": 498,
      "inputId": 3,
      "color": "#364449"
    },
    {
      "id": 967,
      "outputModuleId": 496,
      "outputId": 0,
      "inputModuleId": 498,
      "inputId": 2,
      "color": "#c91847"
    },
    {
      "id": 968,
      "outputModuleId": 476,
      "outputId": 4,
      "inputModuleId": 506,
      "inputId": 0,
      "color": "#364449"
    },
    {
      "id": 969,
      "outputModuleId": 476,
      "outputId": 8,
      "inputModuleId": 506,
      "inputId": 1,
      "color": "#364449"
    },
    {
      "id": 970,
      "outputModuleId": 506,
      "outputId": 0,
      "inputModuleId": 508,
      "inputId": 1,
      "color": "#c91847"
    },
    {
      "id": 971,
      "outputModuleId": 506,
      "outputId": 1,
      "inputModuleId": 508,
      "inputId": 2,
      "color": "#c91847"
    },
    {
      "id": 972,
      "outputModuleId": 508,
      "outputId": 0,
      "inputModuleId": 350,
      "inputId": 7,
      "color": "#0c8e15"
    },
    {
      "id": 898,
      "outputModuleId": 30,
      "outputId": 0,
      "inputModuleId": 483,
      "inputId": 0,
      "color": "#364449"
    },
    {
      "id": 973,
      "outputModuleId": 497,
      "outputId": 2,
      "inputModuleId": 484,
      "inputId": 1,
      "color": "#364449"
    },
    {
      "id": 974,
      "outputModuleId": 497,
      "outputId": 3,
      "inputModuleId": 483,
      "inputId": 1,
      "color": "#364449"
    },
    {
      "id": 975,
      "outputModuleId": 497,
      "outputId": 2,
      "inputModuleId": 493,
      "inputId": 2,
      "color": "#364449"
    },
    {
      "id": 977,
      "outputModuleId": 497,
      "outputId": 0,
      "inputModuleId": 493,
      "inputId": 1,
      "color": "#364449"
    },
    {
      "id": 979,
      "outputModuleId": 497,
      "outputId": 2,
      "inputModuleId": 506,
      "inputId": 2,
      "color": "#0c8e15"
    },
    {
      "id": 980,
      "outputModuleId": 506,
      "outputId": 2,
      "inputModuleId": 508,
      "inputId": 3,
      "color": "#c91847"
    },
    {
      "id": 982,
      "outputModuleId": 30,
      "outputId": 2,
      "inputModuleId": 509,
      "inputId": 1,
      "color": "#364449"
    },
    {
      "id": 983,
      "outputModuleId": 509,
      "outputId": 0,
      "inputModuleId": 506,
      "inputId": 3,
      "color": "#364449"
    },
    {
      "id": 984,
      "outputModuleId": 497,
      "outputId": 0,
      "inputModuleId": 509,
      "inputId": 0,
      "color": "#364449"
    },
    {
      "id": 985,
      "outputModuleId": 506,
      "outputId": 3,
      "inputModuleId": 508,
      "inputId": 4,
      "color": "#364449"
    },
    {
      "id": 986,
      "outputModuleId": 506,
      "outputId": 4,
      "inputModuleId": 350,
      "inputId": 8,
      "color": "#c9b70e"
    },
    {
      "id": 987,
      "outputModuleId": 490,
      "outputId": 8,
      "inputModuleId": 506,
      "inputId": 4,
      "color": "#364449"
    },
    {
      "id": 989,
      "outputModuleId": 505,
      "outputId": 3,
      "inputModuleId": 511,
      "inputId": 3,
      "color": "#0c8e15"
    },
    {
      "id": 990,
      "outputModuleId": 30,
      "outputId": 2,
      "inputModuleId": 511,
      "inputId": 14,
      "color": "#364449"
    },
    {
      "id": 991,
      "outputModuleId": 511,
      "outputId": 3,
      "inputModuleId": 510,
      "inputId": 1,
      "color": "#0c8e15"
    }
  ]
}