{
  "version": "1.1.6",
  "modules": [
    {
      "id": 1,
      "plugin": "Core",
      "version": "1.1.6",
      "model": "AudioInterface",
      "params": [],
      "leftModuleId": 375,
      "rightModuleId": 400,
      "data": {
        "audio": {
          "driver": 7,
          "deviceName": "ReaRoute ASIO (x64)",
          "offset": 0,
          "maxChannels": 8,
          "sampleRate": 48000,
          "blockSize": 256
        }
      },
      "pos": [
        56,
        0
      ]
    },
    {
      "id": 5,
      "plugin": "Core",
      "version": "1.1.6",
      "model": "MIDIToCVInterface",
      "params": [],
      "leftModuleId": 79,
      "rightModuleId": 94,
      "data": {
        "channels": 1,
        "polyMode": 0,
        "clockDivision": 24,
        "lastPitch": 8192,
        "lastMod": 27,
        "midi": {
          "driver": 4,
          "deviceName": "loopMIDI Port 3",
          "channel": -1
        }
      },
      "pos": [
        12,
        0
      ]
    },
    {
      "id": 76,
      "plugin": "Stoermelder-P1",
      "version": "1.9.0",
      "model": "Mb",
      "params": [],
      "leftModuleId": 364,
      "rightModuleId": 79,
      "data": {
        "mode": 1
      },
      "pos": [
        4,
        0
      ]
    },
    {
      "id": 79,
      "plugin": "Stoermelder-P1",
      "version": "1.9.0",
      "model": "Stroke",
      "params": [],
      "leftModuleId": 76,
      "rightModuleId": 5,
      "data": {
        "panelTheme": 1,
        "keys": [
          {
            "button": -1,
            "key": 49,
            "mods": 0,
            "mode": 24,
            "high": false,
            "data": "#c9b70e"
          },
          {
            "button": -1,
            "key": 50,
            "mods": 0,
            "mode": 24,
            "high": false,
            "data": "#0c8e15"
          },
          {
            "button": -1,
            "key": 51,
            "mods": 0,
            "mode": 24,
            "high": false,
            "data": "#c91847"
          },
          {
            "button": -1,
            "key": 52,
            "mods": 0,
            "mode": 24,
            "high": false,
            "data": "#364449"
          },
          {
            "button": -1,
            "key": -1,
            "mods": 0,
            "mode": 1,
            "high": false,
            "data": ""
          },
          {
            "button": -1,
            "key": -1,
            "mods": 0,
            "mode": 1,
            "high": false,
            "data": ""
          },
          {
            "button": -1,
            "key": -1,
            "mods": 0,
            "mode": 1,
            "high": false,
            "data": ""
          },
          {
            "button": -1,
            "key": -1,
            "mods": 0,
            "mode": 1,
            "high": false,
            "data": ""
          },
          {
            "button": -1,
            "key": -1,
            "mods": 0,
            "mode": 1,
            "high": false,
            "data": ""
          },
          {
            "button": -1,
            "key": -1,
            "mods": 0,
            "mode": 1,
            "high": false,
            "data": ""
          }
        ]
      },
      "pos": [
        6,
        0
      ]
    },
    {
      "id": 94,
      "plugin": "Core",
      "version": "1.1.6",
      "model": "MIDI-Map",
      "params": [],
      "leftModuleId": 5,
      "rightModuleId": 375,
      "data": {
        "maps": [
          {
            "cc": 3,
            "moduleId": 401,
            "paramId": 0
          },
          {
            "cc": 88,
            "moduleId": 402,
            "paramId": 0
          },
          {
            "cc": 88,
            "moduleId": -1,
            "paramId": 0
          },
          {
            "cc": -1,
            "moduleId": -1,
            "paramId": 0
          },
          {
            "cc": 7,
            "moduleId": -1,
            "paramId": 0
          },
          {
            "cc": -1,
            "moduleId": -1,
            "paramId": 0
          }
        ],
        "midi": {
          "driver": 4,
          "deviceName": "loopMIDI Port 3",
          "channel": -1
        }
      },
      "pos": [
        20,
        0
      ]
    },
    {
      "id": 360,
      "plugin": "LindenbergResearch",
      "version": "1.3.3",
      "model": "BlankPanel_Wood",
      "params": [],
      "leftModuleId": 405,
      "gestaltID": 1,
      "gradient": false,
      "patina": false,
      "patina_i_x": false,
      "patina_i_y": false,
      "patina_a_x": 1048.69849,
      "patina_a_y": 465.392822,
      "overlay": false,
      "overlay_r": 0.202232957,
      "overlay_g": 0.423975229,
      "overlay_b": 0.302999437,
      "overlay_a": 0.443240136,
      "AGED": false,
      "screws": true,
      "logo": false,
      "pos": [
        108,
        0
      ]
    },
    {
      "id": 362,
      "plugin": "LindenbergResearch",
      "version": "1.3.3",
      "model": "BlankPanel_Wood",
      "params": [],
      "leftModuleId": 404,
      "gestaltID": 1,
      "gradient": false,
      "patina": false,
      "patina_i_x": false,
      "patina_i_y": false,
      "patina_a_x": 1048.69849,
      "patina_a_y": 465.392822,
      "overlay": false,
      "overlay_r": 0.434715927,
      "overlay_g": 0.0313314199,
      "overlay_b": 0.967767835,
      "overlay_a": 0.325262308,
      "AGED": false,
      "screws": true,
      "logo": false,
      "pos": [
        108,
        1
      ]
    },
    {
      "id": 364,
      "plugin": "LindenbergResearch",
      "version": "1.3.3",
      "model": "BlankPanel_Wood",
      "params": [],
      "rightModuleId": 76,
      "gestaltID": 1,
      "gradient": false,
      "patina": false,
      "patina_i_x": true,
      "patina_i_y": false,
      "patina_a_x": 732.980896,
      "patina_a_y": 232.628174,
      "overlay": false,
      "overlay_r": 0.326164246,
      "overlay_g": 0.718356371,
      "overlay_b": 0.362836421,
      "overlay_a": 0.361439198,
      "AGED": false,
      "screws": true,
      "logo": false,
      "pos": [
        0,
        0
      ]
    },
    {
      "id": 365,
      "plugin": "LindenbergResearch",
      "version": "1.3.3",
      "model": "BlankPanel_Wood",
      "params": [],
      "rightModuleId": 410,
      "gestaltID": 1,
      "gradient": false,
      "patina": false,
      "patina_i_x": true,
      "patina_i_y": false,
      "patina_a_x": 732.980896,
      "patina_a_y": 232.628174,
      "overlay": false,
      "overlay_r": 0.12921226,
      "overlay_g": 0.419809103,
      "overlay_b": 0.9364326,
      "overlay_a": 0.294954479,
      "AGED": false,
      "screws": true,
      "logo": false,
      "pos": [
        0,
        1
      ]
    },
    {
      "id": 375,
      "plugin": "squinkylabs-plug1",
      "version": "1.0.19",
      "model": "squinkylabs-mix8",
      "params": [
        {
          "id": 0,
          "value": 0.905000031
        },
        {
          "id": 1,
          "value": 0.0
        },
        {
          "id": 2,
          "value": 0.421999991
        },
        {
          "id": 3,
          "value": 0.39199993
        },
        {
          "id": 4,
          "value": 0.800000012
        },
        {
          "id": 5,
          "value": 0.800000012
        },
        {
          "id": 6,
          "value": 0.800000012
        },
        {
          "id": 7,
          "value": 0.800000012
        },
        {
          "id": 8,
          "value": 0.800000012
        },
        {
          "id": 9,
          "value": 0.800000012
        },
        {
          "id": 10,
          "value": -0.341999978
        },
        {
          "id": 11,
          "value": 0.248999998
        },
        {
          "id": 12,
          "value": 0.0
        },
        {
          "id": 13,
          "value": 0.0
        },
        {
          "id": 14,
          "value": 0.0
        },
        {
          "id": 15,
          "value": 0.0
        },
        {
          "id": 16,
          "value": 0.0
        },
        {
          "id": 17,
          "value": 0.0
        },
        {
          "id": 18,
          "value": 0.0
        },
        {
          "id": 19,
          "value": 0.0
        },
        {
          "id": 20,
          "value": 0.0
        },
        {
          "id": 21,
          "value": 0.0
        },
        {
          "id": 22,
          "value": 0.0
        },
        {
          "id": 23,
          "value": 0.0
        },
        {
          "id": 24,
          "value": 0.0
        },
        {
          "id": 25,
          "value": 0.0
        },
        {
          "id": 26,
          "value": 0.0
        },
        {
          "id": 27,
          "value": 0.0
        },
        {
          "id": 28,
          "value": 0.0
        },
        {
          "id": 29,
          "value": 0.0
        },
        {
          "id": 30,
          "value": 0.0
        },
        {
          "id": 31,
          "value": 0.0
        },
        {
          "id": 32,
          "value": 0.0
        },
        {
          "id": 33,
          "value": 0.0
        },
        {
          "id": 34,
          "value": 0.0
        },
        {
          "id": 35,
          "value": 0.0
        },
        {
          "id": 36,
          "value": 0.0
        },
        {
          "id": 37,
          "value": 0.0
        },
        {
          "id": 38,
          "value": 0.0
        },
        {
          "id": 39,
          "value": 0.0
        },
        {
          "id": 40,
          "value": 0.0
        },
        {
          "id": 41,
          "value": 0.0
        },
        {
          "id": 42,
          "value": 1.0
        }
      ],
      "leftModuleId": 94,
      "rightModuleId": 1,
      "pos": [
        30,
        0
      ]
    },
    {
      "id": 380,
      "plugin": "squinkylabs-plug1",
      "version": "1.0.19",
      "model": "squinkylabs-basic",
      "params": [
        {
          "id": 0,
          "value": 4.0
        },
        {
          "id": 1,
          "value": 0.0
        },
        {
          "id": 2,
          "value": 0.0
        },
        {
          "id": 3,
          "value": 0.0
        },
        {
          "id": 4,
          "value": 71.0
        },
        {
          "id": 5,
          "value": 0.0
        },
        {
          "id": 6,
          "value": 3.0
        }
      ],
      "leftModuleId": 409,
      "rightModuleId": 382,
      "pos": [
        18,
        1
      ]
    },
    {
      "id": 382,
      "plugin": "squinkylabs-plug1",
      "version": "1.0.19",
      "model": "squinkylabs-basic",
      "params": [
        {
          "id": 0,
          "value": 5.0
        },
        {
          "id": 1,
          "value": 0.0
        },
        {
          "id": 2,
          "value": 0.0
        },
        {
          "id": 3,
          "value": 0.0
        },
        {
          "id": 4,
          "value": 50.0
        },
        {
          "id": 5,
          "value": 0.0
        },
        {
          "id": 6,
          "value": 2.0
        }
      ],
      "leftModuleId": 380,
      "rightModuleId": 383,
      "pos": [
        21,
        1
      ]
    },
    {
      "id": 383,
      "plugin": "squinkylabs-plug1",
      "version": "1.0.19",
      "model": "squinkylabs-basic",
      "params": [
        {
          "id": 0,
          "value": 3.0
        },
        {
          "id": 1,
          "value": 0.0
        },
        {
          "id": 2,
          "value": 0.0
        },
        {
          "id": 3,
          "value": 0.0
        },
        {
          "id": 4,
          "value": 50.0
        },
        {
          "id": 5,
          "value": 0.0
        },
        {
          "id": 6,
          "value": 0.0
        }
      ],
      "leftModuleId": 382,
      "rightModuleId": 389,
      "pos": [
        24,
        1
      ]
    },
    {
      "id": 384,
      "plugin": "Fundamental",
      "version": "1.4.0",
      "model": "VCMixer",
      "params": [
        {
          "id": 0,
          "value": 1.0
        },
        {
          "id": 1,
          "value": 1.0
        },
        {
          "id": 2,
          "value": 1.0
        },
        {
          "id": 3,
          "value": 1.04368949
        },
        {
          "id": 4,
          "value": 1.0
        }
      ],
      "leftModuleId": 389,
      "rightModuleId": 396,
      "pos": [
        30,
        1
      ]
    },
    {
      "id": 387,
      "plugin": "Fundamental",
      "version": "1.4.0",
      "model": "VCA-1",
      "params": [
        {
          "id": 0,
          "value": 1.0
        },
        {
          "id": 1,
          "value": 1.0
        }
      ],
      "leftModuleId": 395,
      "rightModuleId": 388,
      "pos": [
        50,
        1
      ]
    },
    {
      "id": 388,
      "plugin": "Fundamental",
      "version": "1.4.0",
      "model": "ADSR",
      "params": [
        {
          "id": 0,
          "value": 0.83100003
        },
        {
          "id": 1,
          "value": 1.0
        },
        {
          "id": 2,
          "value": 0.5
        },
        {
          "id": 3,
          "value": 0.711499989
        }
      ],
      "leftModuleId": 387,
      "rightModuleId": 397,
      "pos": [
        53,
        1
      ]
    },
    {
      "id": 389,
      "plugin": "squinkylabs-plug1",
      "version": "1.0.19",
      "model": "squinkylabs-basic",
      "params": [
        {
          "id": 0,
          "value": 4.0
        },
        {
          "id": 1,
          "value": 0.0
        },
        {
          "id": 2,
          "value": 0.0
        },
        {
          "id": 3,
          "value": 0.0
        },
        {
          "id": 4,
          "value": 50.0
        },
        {
          "id": 5,
          "value": 0.0
        },
        {
          "id": 6,
          "value": 2.0
        }
      ],
      "leftModuleId": 383,
      "rightModuleId": 384,
      "pos": [
        27,
        1
      ]
    },
    {
      "id": 395,
      "plugin": "Stalys",
      "version": "1.4.2",
      "model": "Abs",
      "params": [],
      "leftModuleId": 396,
      "rightModuleId": 387,
      "data": {
        "skin": ""
      },
      "pos": [
        44,
        1
      ]
    },
    {
      "id": 396,
      "plugin": "Instruo",
      "version": "1.1.0",
      "model": "ochd",
      "params": [
        {
          "id": 0,
          "value": 0.45350039
        },
        {
          "id": 1,
          "value": 0.395999998
        }
      ],
      "leftModuleId": 384,
      "rightModuleId": 395,
      "data": {
        "deviations": {
          "lfos": [
            {
              "amplitude": 5.5,
              "frequency": {
                "maximum": 154.699997,
                "minimum": 0.147,
                "absMinimum": 0.000294000027,
                "absMaximum": 160.887985
              }
            },
            {
              "amplitude": 5.5,
              "frequency": {
                "maximum": 84.7399979,
                "minimum": 0.0816000029,
                "absMinimum": 0.00016320002,
                "absMaximum": 88.1295929
              }
            },
            {
              "amplitude": 5.5,
              "frequency": {
                "maximum": 42.2599983,
                "minimum": 0.0417000018,
                "absMinimum": 8.34000093e-5,
                "absMaximum": 43.9503975
              }
            },
            {
              "amplitude": 5.5,
              "frequency": {
                "maximum": 22.0100002,
                "minimum": 0.0221999995,
                "absMinimum": 4.43999998e-5,
                "absMaximum": 22.8903999
              }
            },
            {
              "amplitude": 5.5,
              "frequency": {
                "maximum": 10.3699999,
                "minimum": 0.0102000004,
                "absMinimum": 2.04000025e-5,
                "absMaximum": 10.7847996
              }
            },
            {
              "amplitude": 5.5,
              "frequency": {
                "maximum": 4.69999981,
                "minimum": 0.00505999988,
                "absMinimum": 1.01200003e-5,
                "absMaximum": 4.88799953
              }
            },
            {
              "amplitude": 5.5,
              "frequency": {
                "maximum": 2.11999989,
                "minimum": 0.00212999992,
                "absMinimum": 4.25999997e-6,
                "absMaximum": 2.20479989
              }
            },
            {
              "amplitude": 5.5,
              "frequency": {
                "maximum": 1.00999999,
                "minimum": 0.00100000005,
                "absMinimum": 2.00000022e-6,
                "absMaximum": 1.0503999
              }
            }
          ]
        }
      },
      "pos": [
        40,
        1
      ]
    },
    {
      "id": 397,
      "plugin": "Instruo",
      "version": "1.1.0",
      "model": "saich",
      "params": [
        {
          "id": 0,
          "value": 0.475499988
        },
        {
          "id": 1,
          "value": 0.0
        },
        {
          "id": 2,
          "value": 0.0
        },
        {
          "id": 3,
          "value": 0.0
        },
        {
          "id": 4,
          "value": 0.0
        },
        {
          "id": 5,
          "value": 0.0
        },
        {
          "id": 6,
          "value": 0.0
        },
        {
          "id": 7,
          "value": 0.525000036
        },
        {
          "id": 8,
          "value": 0.0
        },
        {
          "id": 9,
          "value": 0.0
        },
        {
          "id": 10,
          "value": 0.0
        },
        {
          "id": 11,
          "value": 0.0
        }
      ],
      "leftModuleId": 388,
      "rightModuleId": 399,
      "data": {
        "mixprofile": 0,
        "mixprofileMem": 0.0,
        "intervalicOffset": 0.0,
        "detuneMem": 1.0,
        "ctrlMode": 0,
        "cvRoute": 0,
        "diatonicMode": false,
        "subOctaveSetting": 0
      },
      "pos": [
        61,
        1
      ]
    },
    {
      "id": 398,
      "plugin": "Fundamental",
      "version": "1.4.0",
      "model": "VCA-1",
      "params": [
        {
          "id": 0,
          "value": 1.0
        },
        {
          "id": 1,
          "value": 1.0
        }
      ],
      "leftModuleId": 399,
      "rightModuleId": 401,
      "pos": [
        81,
        1
      ]
    },
    {
      "id": 399,
      "plugin": "Fundamental",
      "version": "1.4.0",
      "model": "ADSR",
      "params": [
        {
          "id": 0,
          "value": 0.828000069
        },
        {
          "id": 1,
          "value": 1.0
        },
        {
          "id": 2,
          "value": 0.5
        },
        {
          "id": 3,
          "value": 0.643999994
        }
      ],
      "leftModuleId": 397,
      "rightModuleId": 398,
      "pos": [
        73,
        1
      ]
    },
    {
      "id": 400,
      "plugin": "Instruo",
      "version": "1.1.0",
      "model": "harmonaig",
      "params": [
        {
          "id": 0,
          "value": 1.0
        },
        {
          "id": 1,
          "value": 1.0
        },
        {
          "id": 2,
          "value": 1.0
        },
        {
          "id": 3,
          "value": 1.0
        },
        {
          "id": 4,
          "value": 1.0
        },
        {
          "id": 5,
          "value": 1.0
        },
        {
          "id": 6,
          "value": 1.0
        },
        {
          "id": 7,
          "value": 1.0
        },
        {
          "id": 8,
          "value": 1.0
        },
        {
          "id": 9,
          "value": 1.0
        },
        {
          "id": 10,
          "value": 1.0
        },
        {
          "id": 11,
          "value": 1.0
        },
        {
          "id": 12,
          "value": 0.0
        },
        {
          "id": 13,
          "value": 2.61600018
        },
        {
          "id": 14,
          "value": 4.0
        },
        {
          "id": 15,
          "value": 1.10000002
        },
        {
          "id": 16,
          "value": 0.0
        },
        {
          "id": 17,
          "value": 0.0
        },
        {
          "id": 18,
          "value": 0.0
        },
        {
          "id": 19,
          "value": 0.0
        },
        {
          "id": 20,
          "value": 0.0
        },
        {
          "id": 21,
          "value": 0.0
        },
        {
          "id": 22,
          "value": 0.0
        },
        {
          "id": 23,
          "value": 0.0
        },
        {
          "id": 24,
          "value": 1.0
        },
        {
          "id": 25,
          "value": 1.0
        },
        {
          "id": 26,
          "value": 1.0
        },
        {
          "id": 27,
          "value": 1.0
        },
        {
          "id": 28,
          "value": 1.0
        },
        {
          "id": 29,
          "value": 1.0
        },
        {
          "id": 30,
          "value": 1.0
        },
        {
          "id": 31,
          "value": 1.0
        },
        {
          "id": 32,
          "value": 1.0
        },
        {
          "id": 33,
          "value": 1.0
        },
        {
          "id": 34,
          "value": 1.0
        },
        {
          "id": 35,
          "value": 1.0
        },
        {
          "id": 36,
          "value": 1.0
        },
        {
          "id": 37,
          "value": 0.0
        },
        {
          "id": 38,
          "value": 3.0
        },
        {
          "id": 39,
          "value": 0.0
        },
        {
          "id": 40,
          "value": 0.0
        },
        {
          "id": 41,
          "value": 0.0
        },
        {
          "id": 42,
          "value": 1.0
        },
        {
          "id": 43,
          "value": 1.0
        },
        {
          "id": 44,
          "value": 1.0
        },
        {
          "id": 45,
          "value": 1.0
        }
      ],
      "leftModuleId": 1,
      "rightModuleId": 402,
      "data": {
        "mode": 0
      },
      "pos": [
        66,
        0
      ]
    },
    {
      "id": 401,
      "plugin": "LindenbergResearch",
      "version": "1.3.3",
      "model": "MS20_VCF",
      "params": [
        {
          "id": 0,
          "value": 0.708661437
        },
        {
          "id": 1,
          "value": 0.385826766
        },
        {
          "id": 2,
          "value": 0.0509999953
        },
        {
          "id": 3,
          "value": 0.26730001
        },
        {
          "id": 4,
          "value": 0.0
        },
        {
          "id": 5,
          "value": 0.0
        },
        {
          "id": 6,
          "value": 1.0
        }
      ],
      "leftModuleId": 398,
      "rightModuleId": 406,
      "gestaltID": 1,
      "gradient": true,
      "patina": false,
      "patina_i_x": true,
      "patina_i_y": true,
      "patina_a_x": 474.709839,
      "patina_a_y": 81.2986679,
      "overlay": false,
      "overlay_r": 0.0962265134,
      "overlay_g": 0.793221235,
      "overlay_b": 0.786094666,
      "overlay_a": 0.217864871,
      "pos": [
        84,
        1
      ]
    },
    {
      "id": 402,
      "plugin": "LindenbergResearch",
      "version": "1.3.3",
      "model": "MS20_VCF",
      "params": [
        {
          "id": 0,
          "value": 0.976377964
        },
        {
          "id": 1,
          "value": 0.433070868
        },
        {
          "id": 2,
          "value": 0.0959999859
        },
        {
          "id": 3,
          "value": 0.0
        },
        {
          "id": 4,
          "value": 0.0
        },
        {
          "id": 5,
          "value": 0.0
        },
        {
          "id": 6,
          "value": 0.0
        }
      ],
      "leftModuleId": 400,
      "rightModuleId": 403,
      "gestaltID": 1,
      "gradient": true,
      "patina": false,
      "patina_i_x": true,
      "patina_i_y": true,
      "patina_a_x": 474.709839,
      "patina_a_y": 81.2986679,
      "overlay": false,
      "overlay_r": 0.677473783,
      "overlay_g": 0.638358951,
      "overlay_b": 0.393157244,
      "overlay_a": 0.206433475,
      "pos": [
        84,
        0
      ]
    },
    {
      "id": 403,
      "plugin": "Befaco",
      "version": "1.0.1",
      "model": "SlewLimiter",
      "params": [
        {
          "id": 0,
          "value": 0.680999994
        },
        {
          "id": 1,
          "value": 0.504000068
        },
        {
          "id": 2,
          "value": 0.555000007
        }
      ],
      "leftModuleId": 402,
      "rightModuleId": 405,
      "pos": [
        96,
        0
      ]
    },
    {
      "id": 404,
      "plugin": "Befaco",
      "version": "1.0.1",
      "model": "SlewLimiter",
      "params": [
        {
          "id": 0,
          "value": 0.378000021
        },
        {
          "id": 1,
          "value": 0.620999932
        },
        {
          "id": 2,
          "value": 0.579000115
        }
      ],
      "leftModuleId": 406,
      "rightModuleId": 362,
      "pos": [
        102,
        1
      ]
    },
    {
      "id": 405,
      "plugin": "Befaco",
      "version": "1.0.1",
      "model": "SlewLimiter",
      "params": [
        {
          "id": 0,
          "value": 0.568500042
        },
        {
          "id": 1,
          "value": 0.498000085
        },
        {
          "id": 2,
          "value": 0.519000113
        }
      ],
      "leftModuleId": 403,
      "rightModuleId": 360,
      "pos": [
        102,
        0
      ]
    },
    {
      "id": 406,
      "plugin": "Befaco",
      "version": "1.0.1",
      "model": "SlewLimiter",
      "params": [
        {
          "id": 0,
          "value": 0.507000029
        },
        {
          "id": 1,
          "value": 0.657000065
        },
        {
          "id": 2,
          "value": 0.594000041
        }
      ],
      "leftModuleId": 401,
      "rightModuleId": 404,
      "pos": [
        96,
        1
      ]
    },
    {
      "id": 409,
      "plugin": "Fundamental",
      "version": "1.4.0",
      "model": "Scope",
      "params": [
        {
          "id": 0,
          "value": 0.0
        },
        {
          "id": 1,
          "value": 0.0
        },
        {
          "id": 2,
          "value": 0.0
        },
        {
          "id": 3,
          "value": 0.0
        },
        {
          "id": 4,
          "value": 13.2850065
        },
        {
          "id": 5,
          "value": 0.0
        },
        {
          "id": 6,
          "value": 0.0
        },
        {
          "id": 7,
          "value": 0.0
        }
      ],
      "leftModuleId": 410,
      "rightModuleId": 380,
      "data": {
        "lissajous": 0,
        "external": 0
      },
      "pos": [
        5,
        1
      ]
    },
    {
      "id": 410,
      "plugin": "Ohmer",
      "version": "1.1.6",
      "model": "OhmerBlank1",
      "params": [],
      "leftModuleId": 365,
      "rightModuleId": 409,
      "data": {
        "Theme": 5
      },
      "pos": [
        4,
        1
      ]
    }
  ],
  "cables": [
    {
      "id": 702,
      "outputModuleId": 375,
      "outputId": 0,
      "inputModuleId": 1,
      "inputId": 0,
      "color": "#c91847"
    },
    {
      "id": 703,
      "outputModuleId": 375,
      "outputId": 1,
      "inputModuleId": 1,
      "inputId": 1,
      "color": "#c91847"
    },
    {
      "id": 717,
      "outputModuleId": 380,
      "outputId": 0,
      "inputModuleId": 384,
      "inputId": 1,
      "color": "#c91847"
    },
    {
      "id": 718,
      "outputModuleId": 382,
      "outputId": 0,
      "inputModuleId": 384,
      "inputId": 2,
      "color": "#c91847"
    },
    {
      "id": 719,
      "outputModuleId": 383,
      "outputId": 0,
      "inputModuleId": 384,
      "inputId": 3,
      "color": "#c91847"
    },
    {
      "id": 720,
      "outputModuleId": 384,
      "outputId": 0,
      "inputModuleId": 387,
      "inputId": 1,
      "color": "#c91847"
    },
    {
      "id": 728,
      "outputModuleId": 388,
      "outputId": 0,
      "inputModuleId": 387,
      "inputId": 0,
      "color": "#0c8e15"
    },
    {
      "id": 739,
      "outputModuleId": 389,
      "outputId": 0,
      "inputModuleId": 384,
      "inputId": 4,
      "color": "#c91847"
    },
    {
      "id": 760,
      "outputModuleId": 396,
      "outputId": 3,
      "inputModuleId": 395,
      "inputId": 0,
      "color": "#0c8e15"
    },
    {
      "id": 761,
      "outputModuleId": 396,
      "outputId": 4,
      "inputModuleId": 395,
      "inputId": 1,
      "color": "#0c8e15"
    },
    {
      "id": 762,
      "outputModuleId": 396,
      "outputId": 5,
      "inputModuleId": 395,
      "inputId": 2,
      "color": "#0c8e15"
    },
    {
      "id": 763,
      "outputModuleId": 396,
      "outputId": 6,
      "inputModuleId": 395,
      "inputId": 3,
      "color": "#0c8e15"
    },
    {
      "id": 764,
      "outputModuleId": 395,
      "outputId": 0,
      "inputModuleId": 384,
      "inputId": 5,
      "color": "#0c8e15"
    },
    {
      "id": 765,
      "outputModuleId": 395,
      "outputId": 1,
      "inputModuleId": 384,
      "inputId": 6,
      "color": "#0c8e15"
    },
    {
      "id": 766,
      "outputModuleId": 395,
      "outputId": 2,
      "inputModuleId": 384,
      "inputId": 7,
      "color": "#0c8e15"
    },
    {
      "id": 767,
      "outputModuleId": 395,
      "outputId": 3,
      "inputModuleId": 384,
      "inputId": 8,
      "color": "#0c8e15"
    },
    {
      "id": 771,
      "outputModuleId": 5,
      "outputId": 1,
      "inputModuleId": 399,
      "inputId": 4,
      "color": "#364449"
    },
    {
      "id": 773,
      "outputModuleId": 399,
      "outputId": 0,
      "inputModuleId": 398,
      "inputId": 0,
      "color": "#0c8e15"
    },
    {
      "id": 774,
      "outputModuleId": 397,
      "outputId": 0,
      "inputModuleId": 398,
      "inputId": 1,
      "color": "#c91847"
    },
    {
      "id": 727,
      "outputModuleId": 5,
      "outputId": 1,
      "inputModuleId": 388,
      "inputId": 4,
      "color": "#364449"
    },
    {
      "id": 780,
      "outputModuleId": 5,
      "outputId": 6,
      "inputModuleId": 388,
      "inputId": 5,
      "color": "#0c8e15"
    },
    {
      "id": 781,
      "outputModuleId": 5,
      "outputId": 6,
      "inputModuleId": 399,
      "inputId": 5,
      "color": "#c91847"
    },
    {
      "id": 775,
      "outputModuleId": 398,
      "outputId": 0,
      "inputModuleId": 402,
      "inputId": 0,
      "color": "#c91847"
    },
    {
      "id": 784,
      "outputModuleId": 402,
      "outputId": 0,
      "inputModuleId": 375,
      "inputId": 1,
      "color": "#c91847"
    },
    {
      "id": 725,
      "outputModuleId": 387,
      "outputId": 0,
      "inputModuleId": 401,
      "inputId": 0,
      "color": "#c91847"
    },
    {
      "id": 785,
      "outputModuleId": 401,
      "outputId": 0,
      "inputModuleId": 375,
      "inputId": 0,
      "color": "#c91847"
    },
    {
      "id": 776,
      "outputModuleId": 400,
      "outputId": 0,
      "inputModuleId": 405,
      "inputId": 2,
      "color": "#c9b70e"
    },
    {
      "id": 790,
      "outputModuleId": 405,
      "outputId": 0,
      "inputModuleId": 397,
      "inputId": 0,
      "color": "#c9b70e"
    },
    {
      "id": 777,
      "outputModuleId": 400,
      "outputId": 1,
      "inputModuleId": 403,
      "inputId": 2,
      "color": "#c9b70e"
    },
    {
      "id": 791,
      "outputModuleId": 403,
      "outputId": 0,
      "inputModuleId": 397,
      "inputId": 1,
      "color": "#c9b70e"
    },
    {
      "id": 778,
      "outputModuleId": 400,
      "outputId": 2,
      "inputModuleId": 404,
      "inputId": 2,
      "color": "#c9b70e"
    },
    {
      "id": 792,
      "outputModuleId": 404,
      "outputId": 0,
      "inputModuleId": 397,
      "inputId": 2,
      "color": "#c9b70e"
    },
    {
      "id": 779,
      "outputModuleId": 400,
      "outputId": 3,
      "inputModuleId": 406,
      "inputId": 2,
      "color": "#c9b70e"
    },
    {
      "id": 793,
      "outputModuleId": 406,
      "outputId": 0,
      "inputModuleId": 397,
      "inputId": 3,
      "color": "#c9b70e"
    },
    {
      "id": 794,
      "outputModuleId": 405,
      "outputId": 0,
      "inputModuleId": 380,
      "inputId": 0,
      "color": "#c9b70e"
    },
    {
      "id": 795,
      "outputModuleId": 403,
      "outputId": 0,
      "inputModuleId": 382,
      "inputId": 0,
      "color": "#c9b70e"
    },
    {
      "id": 796,
      "outputModuleId": 404,
      "outputId": 0,
      "inputModuleId": 383,
      "inputId": 0,
      "color": "#c9b70e"
    },
    {
      "id": 797,
      "outputModuleId": 406,
      "outputId": 0,
      "inputModuleId": 389,
      "inputId": 0,
      "color": "#c9b70e"
    },
    {
      "id": 798,
      "outputModuleId": 384,
      "outputId": 0,
      "inputModuleId": 409,
      "inputId": 0,
      "color": "#c9b70e"
    },
    {
      "id": 800,
      "outputModuleId": 5,
      "outputId": 0,
      "inputModuleId": 400,
      "inputId": 0,
      "color": "#c9b70e"
    }
  ]
}